<?xml version="1.0" encoding="UTF-8" standalone="no"?>
<!-- Created with Inkscape (http://www.inkscape.org/) -->

<svg
   width="499.99997mm"
   height="332.08731mm"
   viewBox="0 0 499.99997 332.08732"
   version="1.1"
   id="svg1"
   xmlns="http://www.w3.org/2000/svg"
   xmlns:svg="http://www.w3.org/2000/svg">
  <defs
     id="defs1" />
  <g
     id="layer1"
     transform="translate(-1026.1355,158.78963)">
    <path
       style="fill:none;stroke:#000000;stroke-width:8.142px;stroke-linecap:round;stroke-linejoin:round;stroke-miterlimit:4;stroke-dasharray:none;stroke-opacity:1"
       d="m 1491.1468,-19.000474 v -12.356474 m 0,0 v -0.400671 m 0,0 0.1536,-0.400671 m 0,0 0.1535,-0.379179 m 0,0 0.1842,-0.357687 m 0,0 0.2149,-0.33773 m 0,0 0.2763,-0.294746 m 0,0 0.3071,-0.27479 m 0,0 0.3223,-0.210314 m 0,0 0.3838,-0.190357 m 0,0 0.3838,-0.122811 m 0,0 0.3991,-0.07676 m 0,0 0.3992,-0.01535 m 0,0 h 24.5929 m 0,0 0.3991,-0.01535 m 0,0 0.3992,-0.07676 m 0,0 0.3837,-0.122811 m 0,0 0.3531,-0.190357 m 0,0 0.3377,-0.210314 m 0,0 0.2917,-0.274789 m 0,0 0.2763,-0.294747 m 0,0 0.2303,-0.33773 m 0,0 0.1689,-0.357687 m 0,0 0.1535,-0.379179 m 0,0 0.1535,-0.400671 m 0,0 v -0.400671 m 0,0 v -109.54233 m 0,0 v -0.80134 m 0,0 -0.1535,-0.80134 m 0,0 -0.2149,-0.77985 m 0,0 -0.2917,-0.7384 m 0,0 -0.3531,-0.71691 m 0,0 -0.4452,-0.69542 m 0,0 -0.5066,-0.61098 m 0,0 -0.568,-0.56954 m 0,0 -0.6294,-0.5066 m 0,0 -0.6754,-0.44365 m 0,0 -0.7062,-0.37918 m 0,0 -0.7522,-0.27479 m 0,0 -0.7829,-0.21031 m 0,0 -0.7983,-0.12281 m 0,0 -0.7983,-0.0461 m 0,0 h -476.4759 m 0,0 -0.8136,0.0461 m 0,0 -0.7983,0.12281 m 0,0 -0.7829,0.21031 m 0,0 -0.7369,0.27479 m 0,0 -0.7368,0.37918 m 0,0 -0.6755,0.44365 m 0,0 -0.6294,0.5066 m 0,0 -0.568,0.56954 m 0,0 -0.5066,0.61098 m 0,0 -0.4452,0.69542 m 0,0 -0.3531,0.71691 m 0,0 -0.2917,0.7384 m 0,0 -0.2149,0.77985 m 0,0 -0.1535,0.80134 m 0,0 v 0.80134 m 0,0 v 6.17831 m 0,0 v 0.80135 m 0,0 0.1535,0.80134 m 0,0 0.2149,0.77985 m 0,0 0.2917,0.75989 m 0,0 0.3531,0.71691 m 0,0 0.4452,0.67546 m 0,0 0.5066,0.63248 m 0,0 0.568,0.56953 m 0,0 0.6294,0.5066 m 0,0 0.6755,0.44365 m 0,0 0.7368,0.35769 m 0,0 0.7369,0.29475 m 0,0 0.7829,0.21031 m 0,0 0.7983,0.12281 m 0,0 0.8136,0.0461 m 0,0 h 169.0739 m 0,0 0.7983,0.0461 m 0,0 0.7982,0.12281 m 0,0 0.7676,0.21031 m 0,0 0.7522,0.29475 m 0,0 0.7215,0.35922 m 0,0 0.6755,0.44212 m 0,0 0.6294,0.5066 m 0,0 0.568,0.56953 m 0,0 0.5066,0.63248 m 0,0 0.4452,0.67392 m 0,0 0.3531,0.71691 m 0,0 0.2916,0.75836 m 0,0 0.215,0.77985 m 0,0 0.1535,0.77985 m 0,0 v 0.82284 m 0,0 v 24.94475 m 0,0 5.2455,5.271507 m 0,0 0.2764,0.294746 m 0,0 0.2149,0.33773 m 0,0 0.1842,0.359222 m 0,0 0.1535,0.379179 m 0,0 0.1535,0.400671 m 0,0 v 0.400671 m 0,0 v 0.400671 m 0,0 -0.1535,0.400671 m 0,0 -0.1535,0.379178 m 0,0 -0.1842,0.357687 m 0,0 -0.2149,0.337731 m 0,0 -0.2764,0.294746 m 0,0 -5.2455,5.271508 m 0,0 v 51.87183 m 0,0 v 1.202012 m 0,0 -0.1535,1.202013 m 0,0 -0.2303,1.180521 m 0,0 -0.3377,1.18052 m 0,0 -0.4145,1.139072 m 0,0 -0.5066,1.096088 m 0,0 -0.3838,0.695417 m 0,0 -69.6691,121.09762 m 0,0 -0.3838,0.716909 m 0,0 -0.5066,1.096088 m 0,0 -0.4145,1.139072 m 0,0 -0.3377,1.159029 m 0,0 -0.2303,1.180521 m 0,0 -0.1535,1.20201 m 0,0 v 1.22351 m 0,0 v 58.7038 m 0,0 v 0.80134 m 0,0 0.1535,0.80134 m 0,0 0.2149,0.77985 m 0,0 0.2917,0.7599 m 0,0 0.3531,0.71691 m 0,0 0.4452,0.67546 m 0,0 0.5065,0.63247 m 0,0 0.568,0.56954 m 0,0 0.6295,0.50659 m 0,0 0.6754,0.44366 m 0,0 0.7215,0.35769 m 0,0 0.7522,0.29474 m 0,0 0.783,0.21032 m 0,0 0.7982,0.12281 m 0,0 0.7983,0.0461 m 0,0 0.6755,-0.0154 m 0,0 0.8596,0.0154 m 0,0 1.09,-0.0461 m 0,0 1.0899,-0.12281 m 0,0 1.0439,-0.21032 m 0,0 1.0439,-0.29474 m 0,0 1.0286,-0.37918 m 0,0 0.9825,-0.46361 m 0,0 0.9364,-0.52656 m 0,0 0.9057,-0.61098 m 0,0 0.8597,-0.67546 m 0,0 0.7983,-0.7384 m 0,0 0.7368,-0.80134 m 0,0 0.6755,-0.86429 m 0,0 0.6141,-0.90726 m 0,0 0.5219,-0.94872 m 0,0 0.4605,-0.9917 m 0,0 0.3531,-1.01165 m 0,0 0.3224,-1.05464 m 0,0 0.2149,-1.07613 m 0,0 0.1535,-1.0746 m 0,0 v -1.09609 m 0,0 v -48.39259 m 0,0 v -0.80134 m 0,0 0.1535,-0.80134 m 0,0 0.215,-0.77985 m 0,0 0.2763,-0.7599 m 0,0 0.3838,-0.71691 m 0,0 58.3797,-101.5084958 m 0,0 0.3992,-0.7169091 m 0,0 0.5065,-1.09608805 m 0,0 0.4145,-1.13907185 m 0,0 0.3071,-1.1590287 m 0,0 0.2456,-1.1805206 m 0,0 0.1535,-1.2020126 m 0,0 v -1.2235044 m 0,0 v -3.5635143 m 0,0 v -0.9702066 m 0,0 0.1535,-0.970207 m 0,0 0.1842,-0.948715 m 0,0 0.2456,-0.927223 m 0,0 0.3378,-0.907266 m 0,0 0.3991,-0.885774 m 0,0 0.4759,-0.842791 m 0,0 0.522,-0.801341 m 0,0 0.614,-0.77985 m 0,0 0.6448,-0.695417 m 0,0 0.7061,-0.653969 m 0,0 0.7522,-0.610984 m 0,0 0.7983,-0.526552 m 0,0 0.8597,-0.485104 m 0,0 0.8597,-0.400671 m 0,0 0.9057,-0.33773 m 0,0 0.9518,-0.27479 m 0,0 0.9364,-0.190357 m 0,0 0.9672,-0.107459 m 0,0 0.9671,-0.04605 m 0,0 h 18.4462 m 0,0 1.1974,0.04605 m 0,0 1.1974,0.07676 m 0,0 1.1974,0.168865 m 0,0 1.1974,0.210314 m 0,0 1.1821,0.294746 m 0,0 1.1513,0.33773 m 0,0 1.136,0.400671 m 0,0 1.1053,0.463612 m 0,0 1.09,0.526552 m 0,0 1.0746,0.569536 m 0,0 1.0285,0.632476 m 0,0 0.9825,0.695417 m 0,0 0.9672,0.738401 m 0,0 0.921,0.77985 m 0,0 0.8597,0.842791 m 0,0 0.8443,0.864282 m 0,0 0.783,0.927223 m 0,0 0.7368,0.970207 m 0,0 0.6908,0.991698 m 0,0 0.6294,1.033148 m 0,0 0.568,1.0546391 m 0,0 0.522,1.096088 m 0,0 0.4605,1.11758 m 0,0 0.3992,1.1605638 m 0,0 0.353,1.1590287 m 0,0 0.2764,1.1590287 m 0,0 0.2302,1.2020125 m 0,0 0.1536,1.2020126 m 0,0 0.1535,1.20201249 m 0,0 V 1.0752843 m 0,0 V 35.002894 m 0,0 v 0.801342 m 0,0 -0.1535,0.801341 m 0,0 -0.215,0.77985 m 0,0 -0.2763,0.759893 m 0,0 -0.3838,0.716909 m 0,0 -0.4452,0.675461 m 0,0 -0.5066,0.632476 m 0,0 -0.568,0.569536 m 0,0 -0.6294,0.506595 m 0,0 -0.6754,0.44212 m 0,0 -0.7215,0.357687 m 0,0 -0.7523,0.294746 m 0,0 -0.7829,0.210314 m 0,0 -0.7982,0.122811 m 0,0 -0.7983,0.04605 m 0,0 h -18.4447 m 0,0 -0.3991,0.01535 m 0,0 -0.3992,0.07676 m 0,0 -0.3837,0.122811 m 0,0 -0.3531,0.190357 m 0,0 -0.3378,0.210314 m 0,0 -0.307,0.27479 m 0,0 -0.2456,0.294746 m 0,0 -0.2303,0.33773 m 0,0 -0.1688,0.357687 m 0,0 -0.1536,0.379179 m 0,0 -0.1535,0.400671 m 0,0 v 0.400671 m 0,0 v 0.400671 m 0,0 0.1535,0.400671 m 0,0 0.1536,0.379179 m 0,0 0.1535,0.231805 m 0,0 4.9938,9.804923 m 0,0 0.1842,0.359222 m 0,0 0.4452,0.67546 m 0,0 0.5066,0.632477 m 0,0 0.568,0.569536 m 0,0 0.6294,0.506595 m 0,0 0.6754,0.442119 m 0,0 0.7216,0.357687 m 0,0 0.7522,0.294747 m 0,0 0.7829,0.210314 m 0,0 0.7983,0.122811 m 0,0 0.7982,0.04605 m 0,0 h 10.8918 m 0,0 1.2128,-0.04605 m 0,0 1.1974,-0.07676 m 0,0 1.1974,-0.168865 m 0,0 1.1974,-0.210314 m 0,0 1.1821,-0.294747 m 0,0 1.1513,-0.33773 m 0,0 1.136,-0.400671 m 0,0 1.1053,-0.463611 m 0,0 1.09,-0.526552 m 0,0 1.0746,-0.569536 m 0,0 1.0285,-0.632477 m 0,0 0.9825,-0.695417 m 0,0 0.9671,-0.738401 m 0,0 0.9058,-0.77985 m 0,0 0.875,-0.84279 m 0,0 0.8443,-0.864282 m 0,0 0.7829,-0.927223 m 0,0 0.7369,-0.970207 m 0,0 0.6908,-0.991699 m 0,0 0.6294,-1.033147 m 0,0 0.568,-1.05464 m 0,0 0.522,-1.096088 m 0,0 0.4605,-1.11758 m 0,0 0.3991,-1.139072 m 0,0 0.3378,-1.18052 m 0,0 0.2917,-1.159029 m 0,0 0.2149,-1.202012 m 0,0 0.1688,-1.202013 m 0,0 0.1535,-1.202012 m 0,0 v -1.223505 m 0,0 v -83.290104 m 0,0 v -0.801341 m 0,0 -0.1535,-0.801342 m 0,0 -0.2149,-0.77985 m 0,0 -0.2917,-0.759893 m 0,0 -0.353,-0.716909 m 0,0 -0.4452,-0.67546 m 0,0 -0.5066,-0.632477 m 0,0 -0.568,-0.569536 m 0,0 -0.6294,-0.506595 m 0,0 -0.6755,-0.44212 m 0,0 -0.7062,-0.357687 m 0,0 -0.7522,-0.294746 m 0,0 -0.7675,-0.210314 m 0,0 -0.7983,-0.122811 m 0,0 -0.7983,-0.04605 m 0,0 h -39.9765 m 0,0 v -80.211543 m 0,0 h 224.4094 m 0,0 v 20.05289 m 0,0 h 26.125 m 0,0 v 12.12451 m 0,0 -0.1535,0.10746 m 0,0 -0.8136,0.885777 m 0,0 -0.7369,0.948715 m 0,0 -0.6754,1.011655 m 0,0 -0.5834,1.05464 m 0,0 -0.5219,1.096088 m 0,0 -0.3992,1.139072 m 0,0 -0.3377,1.18052 m 0,0 -0.2303,1.180521 m 0,0 -0.1535,1.202012 m 0,0 v 1.202013 m 0,0 v 1.223504 m 0,0 0.1535,1.202013 m 0,0 0.2303,1.18052 m 0,0 0.3377,1.159029 m 0,0 0.3992,1.139072 m 0,0 0.5219,1.096088 m 0,0 0.5834,1.076131 m 0,0 0.6754,0.991699 m 0,0 0.7369,0.948715 m 0,0 0.8136,0.907266 m 0,0 0.1535,0.10746 m 0,0 v 5.946201 m 0,0 h -26.125 m 0,0 v 20.052884 m 0,0 h -12.2964 m 0,0 -0.7983,0.04605 m 0,0 -0.7982,0.12281 m 0,0 -0.783,0.210314 m 0,0 -0.7522,0.294747 m 0,0 -0.7061,0.357687 m 0,0 -0.6755,0.442119 m 0,0 -0.6294,0.506596 m 0,0 -0.568,0.569535 m 0,0 -0.5066,0.632477 m 0,0 -0.4452,0.67546 m 0,0 -0.3531,0.71691 m 0,0 -0.2917,0.759893 m 0,0 -0.2149,0.779849 m 0,0 -0.1535,0.801342 m 0,0 v 0.801342 m 0,0 v 26.231045 m 0,0 v 0.400671 m 0,0 0.1535,0.379179 m 0,0 0.1535,0.40067 m 0,0 0.1843,0.357687 m 0,0 0.2149,0.337731 m 0,0 0.2763,0.294746 m 0,0 0.2917,0.27479 m 0,0 0.3377,0.210313 m 0,0 0.3531,0.190357 m 0,0 0.3991,0.122811 m 0,0 0.3838,0.07676 m 0,0 0.4145,0.01535 m 0,0 h 32.2747 m 0,0 0.3992,-0.01535 m 0,0 0.3991,-0.07676 m 0,0 0.3838,-0.122811 m 0,0 0.3531,-0.190357 m 0,0 0.3377,-0.210313 m 0,0 0.2917,-0.27479 m 0,0 0.2763,-0.294746 m 0,0 0.2303,-0.337731 m 0,0 0.1688,-0.357687 m 0,0 0.1535,-0.40067 m 0,0 0.1536,-0.379179 m 0,0 v -0.400671"
       id="path1" />
    <path
       style="fill:none;stroke:#000000;stroke-width:0.0209846px;stroke-linecap:round;stroke-linejoin:round;stroke-miterlimit:4;stroke-dasharray:none;stroke-opacity:1"
       d="m 1506.8022,-34.456544 6.5044,-6.536614 m 6.5274,-6.5578 2.0555,-2.066448 m -50.9712,31.523738 6.5259,-6.536769 m 6.5259,-6.557799 6.5274,-6.536615 m 6.5044,-6.536768 6.5258,-6.5578 m 6.5274,-6.536615 6.5259,-6.557799 m -63.8556,44.449594 1.9082,-1.89789 m 6.5059,-6.557646 6.5259,-6.536769 m 6.5259,-6.536614 6.5274,-6.5578 m 6.5043,-6.536768 6.5259,-6.536615 m 6.5274,-6.5578 6.5259,-6.536768 m 6.5044,-6.5578 6.5274,-6.536614 m -67.1086,47.717901 5.1612,-5.166197 m 6.5258,-6.5578 2.1201,-2.129696 m 10.9117,-10.964718 6.5259,-6.536769 m 12.1091,-12.166577 0.9211,-0.927223 m 6.5259,-6.536615 6.5274,-6.557799 m 6.5259,-6.536764 5.3085,-5.33476 m -23.0624,3.50027 1.443,-1.43382 m 6.5259,-6.53677 6.5044,-6.5578 m 6.5274,-6.53661 2.0555,-2.06645 m -34.5406,15.03436 3.1486,-3.16284 m 6.5044,-6.53677 6.5259,-6.53661 m 6.5274,-6.5578 6.5258,-6.53677 m -42.3897,22.89949 6.5274,-6.53661 m 6.5044,-6.5578 6.5258,-6.53677 m 6.5274,-6.53662 6.5259,-6.5578 m -232.1941,213.412645 0.6908,-0.695417 m 6.5044,-6.5578 6.5274,-6.536768 m 6.5258,-6.557646 1.0286,-1.011655 m 172.3253,-172.948269 2.7064,-2.74114 m 6.5259,-6.53677 6.5259,-6.55779 m -336.5282,318.1262 0.6908,-0.69542 m 6.5258,-6.53677 6.506,-6.5578 m 97.8297,-98.176943 6.5258,-6.536615 m 6.5044,-6.536768 1.8053,-1.792273 m 11.248,-11.302141 6.5258,-6.536769 m 163.0286,-163.628291 6.5059,-6.53662 m 6.5258,-6.5578 2.4977,-2.48815 m -325.2818,306.82406 6.5059,-6.53676 m 6.5259,-6.55765 5.855,-5.86208 m 86.1826,-86.495159 3.9039,-3.921969 m 25.1808,-25.28233 2.7694,-2.783358 m 6.5274,-6.5366145 6.5259,-6.5577996 m 136.945,-137.4393099 6.5259,-6.53677 m 6.5059,-6.5578 5.7491,-5.75646 m -309.8782,291.36799 0.9057,-0.90726 m 6.5259,-6.53662 6.5258,-6.5578 m 6.5059,-6.53676 2.6021,-2.59362 m 115.0785,-115.4885336 6.2326,-6.2625927 m 6.5259,-6.5577997 4.3445,-4.364856 m 113.5679,-113.970438 5.9809,-6.0096 m 6.5258,-6.53662 6.5259,-6.5578 m -287.8444,269.24866 4.1756,-4.17511 m 6.5059,-6.5578 6.5259,-6.536616 m 6.5258,-6.536768 6.5259,-6.5578 m 6.5059,-6.536615 1.2588,-1.243461 m 93.6757,-94.044048 2.8952,-2.888821 m 6.5044,-6.536769 6.5274,-6.557799 m 6.5259,-6.536615 1.0899,-1.096088 m 93.9888,-94.33925 2.7279,-2.74115 m 6.5274,-6.53676 6.5259,-6.5578 m -263.23,244.556737 5.6447,-5.672026 m 6.5259,-6.536768 6.5059,-6.536768 m 6.5259,-6.557646 6.5258,-6.536768 m 6.5259,-6.5578 6.5059,-6.536615 m 6.5259,-6.536768 6.5259,-6.5578 m 59.1549,-59.357313 6.0654,-6.093881 m 6.5043,-6.536768 6.5274,-6.536615 m 6.5259,-6.557799 5.1197,-5.145013 m 86.1626,-86.474289 6.5259,-6.53661 m 6.5274,-6.5578 2.4962,-2.48815 m -220.9462,202.110345 6.5059,-6.557646 m 6.5259,-6.536768 6.5258,-6.536768 m 6.5259,-6.557646 6.5059,-6.536769 m 6.5259,-6.5366144 6.5258,-6.5577997 m 6.5274,-6.5367682 2.1185,-2.129696 m 14.8985,-14.9711197 2.5407,-2.530367 m 6.5259,-6.5578 6.5043,-6.536614 m 6.5259,-6.536769 6.5274,-6.557799 m 84.7764,-85.082381 6.5274,-6.53676 m 6.5044,-6.5578 5.7506,-5.75646 m -172.032,153.021873 6.5258,-6.5366147 m 6.5059,-6.5577993 6.5259,-6.536769 m 6.5259,-6.557646 6.5274,-6.536768 m 6.5258,-6.536615 6.5044,-6.557799 m 85.323,-85.609692 5.9808,-6.00961 m 6.5259,-6.53661 6.5059,-6.5578 m -133.6721,114.539819 6.5274,-6.536769 m 6.5044,-6.557799 6.5259,-6.536615 m 6.5274,-6.5578 5.6017,-5.629962 m 63.395,-63.616854 2.728,-2.74115 m 6.5259,-6.53676 6.5258,-6.5578 m -107.6085,88.372019 6.5259,-6.5578 m 6.5274,-6.536768 6.5258,-6.5578 m 6.5044,-6.536615 2.3503,-2.361655 m 49.8183,-49.995281 6.5259,-6.53661 m 6.5258,-6.5578 2.4977,-2.48815 m -99.1729,79.895299 2.1184,-2.129696 m 6.5274,-6.557799 6.5044,-6.536615 m 6.5259,-6.5578 6.5274,-6.536769 m 32.6094,-32.7256 6.5044,-6.53676 m 6.5274,-6.5578 5.7491,-5.75646 m -76.6141,57.2488 2.3917,-2.403872 m 6.5259,-6.536618 6.5274,-6.53676 m 6.5258,-6.5578 6.5044,-6.53662 m 7.0724,-7.08496 5.9809,-6.00961 m 6.5259,-6.53661 6.5043,-6.5578 m -55.42,35.99406 6.5274,-6.53677 m 6.5044,-6.53662 6.5259,-6.5578 m 6.5274,-6.53676 6.5259,-6.5578 m -37.2901,17.79669 1.4124,-1.43382 m 6.5258,-6.53677 6.5259,-6.53661 m 6.5274,-6.5578 2.4762,-2.48815 m -38.3401,18.85102 6.5059,-6.53676 m 6.5259,-6.5578 5.7506,-5.75646 m -41.0879,21.59217 6.0008,-6.00961 m 6.506,-6.53661 6.5258,-6.5578 m -38.5903,19.10402 2.728,-2.74115 m 6.5258,-6.53676 6.5259,-6.5578 m -29.3564,9.8261 6.5259,-6.53661 m 6.5258,-6.5578 2.4762,-2.48815 m -38.36,18.85102 6.5259,-6.53676 m 6.5274,-6.5578 5.7491,-5.75646 m -41.088,21.59217 6.0024,-6.00961 m 6.5044,-6.53661 6.5258,-6.5578 m -38.5902,19.10402 2.7279,-2.74115 m 6.5259,-6.53676 6.5059,-6.5578 m -29.3365,9.8261 6.5259,-6.53661 m 6.5258,-6.5578 2.4762,-2.48815 m -38.36,18.85102 6.5259,-6.53676 m 6.5274,-6.5578 5.7491,-5.75646 m -28.5812,9.04595 6.5258,-6.5578"
       id="path2" />
  </g>
</svg>
