<?xml version="1.0" encoding="UTF-8" standalone="no"?>
<!-- Created with Inkscape (http://www.inkscape.org/) -->

<svg
   width="500.0011mm"
   height="185.77205mm"
   viewBox="0 0 500.0011 185.77205"
   version="1.1"
   id="svg1"
   xmlns="http://www.w3.org/2000/svg"
   xmlns:svg="http://www.w3.org/2000/svg">
  <defs
     id="defs1" />
  <g
     id="layer1"
     transform="translate(-1105.3541,14.687198)">
    <path
       style="fill:none;stroke:#000000;stroke-width:4.16462px;stroke-linecap:round;stroke-linejoin:round;stroke-miterlimit:4;stroke-dasharray:none;stroke-opacity:1"
       d="M 1146.6284,167.42919 V 16.620615 m 0,0 v -0.518258 m 0,0 -0.1102,-0.518258 m 0,0 -0.1652,-0.481195 m 0,0 -0.2204,-0.462703 m 0,0 -0.2911,-0.425718 m 0,0 -0.3305,-0.388654 m 0,0 -0.3856,-0.35167 m 0,0 -0.4249,-0.277621 m 0,0 -0.4564,-0.222066 m 0,0 -0.4958,-0.166589 m 0,0 -0.4957,-0.111033 m 0,0 -0.5194,-0.03698 m 0,0 h -28.2854 m 0,-14.1961481 -0.7397,0.036985 m 0,0 -0.7161,0.1110329 m 0,0 -0.7161,0.185081 m 0,0 -0.7004,0.27762158 m 0,0 -0.661,0.33317733 m 0,0 -0.6059,0.40722548 m 0,0 -0.5744,0.46270256 m 0,0 -0.5351,0.53675072 m 0,0 -0.4564,0.57373543 m 0,0 -0.4092,0.6107989 m 0,0 -0.3305,0.6662759 m 0,0 -0.2755,0.7033394 m 0,0 -0.1809,0.7218318 m 0,0 -0.1102,0.7218317 m 0,0 v 0.7403241 m 0,0 v 0.7588952 m 0,0 0.1102,0.7218317 m 0,0 0.1809,0.7218318 m 0,0 0.2755,0.7033394 m 0,0 0.3305,0.6477836 m 0,0 0.4092,0.6292912 m 0,0 0.4564,0.5737354 m 0,0 0.5351,0.53675 m 0,0 0.5744,0.462703 m 0,0 0.6059,0.407226 m 0,0 0.661,0.333177 m 0,0 0.7004,0.277621 m 0,0 0.7161,0.185081 m 0,0 0.7161,0.111033 m 0,0 0.7397,0.03698 m 0,-14.1961473 h 14.926 m 0,0 0.2597,-0.036985 m 0,0 0.2361,-0.055871 m 0,0 0.2203,-0.09254 m 0,0 0.2204,-0.1295252 m 0,0 0.181,-0.1480963 m 0,0 0.1495,-0.2035734 m 0,0 0.1259,-0.2035734 m 0,0 0.1101,-0.2220658 m 0,0 0.079,-0.2406368 m 0,0 v -0.2591292 m 0,0 v -5.5155798 m 3.9251,-3.9608518 -0.5115,0.03698 m 0,0 -0.4957,0.111033 m 0,0 -0.4958,0.166589 m 0,0 -0.4564,0.222144 m 0,0 -0.4249,0.277622 m 0,0 -0.3856,0.35167 m 0,0 -0.3305,0.388654 m 0,0 -0.2911,0.425718 m 0,0 -0.2204,0.462702 m 0,0 -0.1652,0.4811954 m 0,0 -0.094,0.5182584 m 0,0 v 0.5182584 m 3.9251,-3.9608522 H 1599.29 m 3.9251,3.9608522 v -0.5182584 m 0,0 -0.094,-0.5182584 m 0,0 -0.1653,-0.4811954 m 0,0 -0.2203,-0.462702 m 0,0 -0.2912,-0.425718 m 0,0 -0.3305,-0.388654 m 0,0 -0.3855,-0.35167 m 0,0 -0.425,-0.277622 m 0,0 -0.4643,-0.222144 m 0,0 -0.4957,-0.166589 m 0,0 -0.4958,-0.111033 m 0,0 -0.5193,-0.03698 m 3.9251,3.9608518 v 3.1464719 m -3.9251,3.960852 0.5193,-0.036985 m 0,0 0.4958,-0.1110329 m 0,0 0.4957,-0.1665887 m 0,0 0.4643,-0.2220657 m 0,0 0.425,-0.2961139 m 0,0 0.3855,-0.3331774 m 0,0 0.3305,-0.3886544 m 0,0 0.2912,-0.4257178 m 0,0 0.2203,-0.4627026 m 0,0 0.1653,-0.499766 m 0,0 0.094,-0.499766 m 0,0 V -5.497513 m -3.9251,3.960852 h -63.6483 m 0,0 -0.4958,0.018886 m 0,0 -0.5115,0.1110329 m 0,0 -0.48,0.1665887 m 0,0 -0.4643,0.2220657 m 0,0 -0.4249,0.29611391 m 0,0 -0.3856,0.33317733 m 0,0 -0.3462,0.38865442001 m 0,0 -0.2755,0.42571783999 m 0,0 -0.236,0.46270257 m 0,0 -0.1653,0.49976603 m 0,0 -0.094,0.4997659 m 0,0 v 0.5182584 m 0,0 V 82.085858 m 0,0 v 0.518258 m 0,0 0.094,0.518258 m 0,0 0.1653,0.481195 m 0,0 0.236,0.462703 m 0,0 0.2755,0.425718 m 0,0 0.3462,0.388654 m 0,0 26.4803,26.633966 m 0.4643,1.11051 v -0.24063 m 0,0 -0.079,-0.25913 m 0,0 -0.094,-0.22215 m 0,0 -0.1259,-0.20357 m 0,0 -0.1652,-0.18508 m 0.4643,1.11052 v 3.16498 m 0,0 v 0.24063 m 0,0 0.079,0.24064 m 0,0 0.1102,0.22207 m 0,0 0.1259,0.22206 m 0,0 0.1495,0.18508 m 0,0 0.181,0.16659 m 0,0 0.2204,0.12953 m 0,0 0.2203,0.0925 m 0,0 0.2439,0.0559 m 0,0 0.2597,0.0189 m 0,0 h 3.1327 m 1.1064,0.46271 -0.1889,-0.16659 m 0,0 -0.2046,-0.12953 m 0,0 -0.236,-0.0925 m 0,0 -0.2361,-0.0559 m 0,0 -0.2361,-0.0189 m 1.1064,0.4627 36.4308,36.59162 m 1.1426,2.79481 v -0.51826 m 0,0 -0.094,-0.49977 m 0,0 -0.1652,-0.48119 m 0,0 -0.2204,-0.48119 m 0,0 -0.2911,-0.42572 m 0,0 -0.3305,-0.38866 m 1.1426,2.79481 v 10.21679 m -1.566,1.57322 0.2361,-0.0189 m 0,0 0.2361,-0.0559 m 0,0 0.236,-0.0925 m 0,0 0.2046,-0.1296 m 0,0 0.1889,-0.16659 m 0,0 0.1652,-0.18508 m 0,0 0.1259,-0.22207 m 0,0 0.094,-0.22214 m 0,0 0.079,-0.24064 m 0,0 v -0.24056 m -1.566,1.57323 h -11.0018 m -1.5659,-1.57323 v 0.24056 m 0,0 0.079,0.24064 m 0,0 0.094,0.22214 m 0,0 0.1259,0.22207 m 0,0 0.1653,0.18508 m 0,0 0.181,0.16659 m 0,0 0.2046,0.1296 m 0,0 0.236,0.0925 m 0,0 0.2361,0.0559 m 0,0 0.2361,0.0189 m -1.566,-1.57322 v -4.33105 m 0,0 v -0.51825 m 0,0 -0.094,-0.49969 m 0,0 -0.1653,-0.4812 m 0,0 -0.236,-0.4627 m 0,0 -0.2754,-0.44421 m 0,0 -0.3463,-0.38865 m 0,0 -60.9028,-61.208156 m 0,0 -0.3856,-0.333177 m 0,0 -0.4249,-0.296114 m 0,0 -0.4643,-0.222066 m 0,0 -0.4958,-0.166589 m 0,0 -0.4957,-0.111033 m 0,0 -0.5194,-0.01889 m 0,0 H 1164.878 m 0,0 -0.5193,0.01889 m 0,0 -0.4958,0.111033 m 0,0 -0.48,0.166589 m 0,0 -0.4564,0.222066 m 0,0 -0.4407,0.296114 m 0,0 -0.3856,0.333177 m 0,0 -0.3305,0.388654 m 0,0 -0.2754,0.425718 m 0,0 -0.2361,0.462704 m 0,0 -0.1652,0.49976 m 0,0 -0.094,0.49977 m 0,0 v 0.51826 m 0,0 v 65.53917 m -1.5668,1.57322 0.244,-0.0189 m 0,0 0.236,-0.0559 m 0,0 0.2204,-0.0925 m 0,0 0.2203,-0.12961 m 0,0 0.1889,-0.16659 m 0,0 0.1652,-0.18508 m 0,0 0.1259,-0.22206 m 0,0 0.094,-0.22215 m 0,0 0.079,-0.24063 m 0,0 v -0.24056 m -1.5667,1.57322 h -11.001 m -1.5848,-1.57322 v 0.24056 m 0,0 0.079,0.24063 m 0,0 0.094,0.22215 m 0,0 0.1259,0.22206 m 0,0 0.1495,0.18508 m 0,0 0.2046,0.16659 m 0,0 0.2046,0.12961 m 0,0 0.2203,0.0925 m 0,0 0.2361,0.0559 m 0,0 0.2597,0.0189 M 1160.9934,20.563093 V 3.1834572 m 0,0 h 356.7201 m 0,0 V 20.563093 m 0,0 h -14.1518 m 0,0 -0.2439,0.01889 m 0,0 -0.2361,0.05587 m 0,0 -0.2203,0.09254 m 0,0 -0.2204,0.129525 m 0,0 -0.1809,0.166589 m 0,0 -0.1653,0.185081 m 0,0 -0.1259,0.222066 m 0,0 -0.094,0.222065 m 0,0 -0.079,0.240637 m 0,0 v 0.240637 m 0,0 v 11.068181 m 0,0 v 0.240637 m 0,0 0.079,0.240637 m 0,0 0.094,0.222066 m 0,0 0.1259,0.222066 m 0,0 0.1653,0.185081 m 0,0 0.1809,0.166588 m 0,0 0.2204,0.129604 m 0,0 0.2203,0.09254 m 0,0 0.2361,0.05587 m 0,0 0.2439,0.01889 m 0,0 h 12.567 m 1.5848,1.573236 v -0.240637 m 0,0 -0.079,-0.240637 m 0,0 -0.1102,-0.240636 m 0,0 -0.1259,-0.203574 m 0,0 -0.1495,-0.185081 m 0,0 -0.181,-0.166589 m 0,0 -0.2203,-0.129603 m 0,0 -0.2203,-0.09254 m 0,0 -0.244,-0.05587 m 0,0 -0.2597,-0.01888 m 1.5849,1.573236 v 45.789707 m -3.9251,3.960852 0.4957,-0.03699 m 0,0 0.5194,-0.111033 m 0,0 0.48,-0.148096 m 0,0 0.4643,-0.240637 m 0,0 0.4249,-0.277621 m 0,0 0.3856,-0.35167 m 0,0 0.3541,-0.388655 m 0,0 0.2754,-0.425717 m 0,0 0.244,-0.462703 m 0,0 0.1495,-0.481195 m 0,0 0.1101,-0.518258 m 0,0 v -0.518259 m -3.9251,3.960852 h -348.8698 m -3.9251,-3.960852 v 0.518259 m 0,0 0.094,0.518258 m 0,0 0.1653,0.481195 m 0,0 0.236,0.462703 m 0,0 0.2754,0.425717 m 0,0 0.3305,0.388655 m 0,0 0.3856,0.35167 m 0,0 0.4407,0.277621 m 0,0 0.4564,0.240637 m 0,0 0.48,0.148096 m 0,0 0.4958,0.111033 m 0,0 0.5193,0.03699 m -3.9251,-3.960852 V 36.350848 m 1.566,-1.573235 -0.2361,0.01888 m 0,0 -0.2361,0.05587 m 0,0 -0.2203,0.09254 m 0,0 -0.2203,0.129604 m 0,0 -0.1889,0.166589 m 0,0 -0.1652,0.185081 m 0,0 -0.1259,0.203573 m 0,0 -0.094,0.240637 m 0,0 -0.079,0.240637 m 0,0 v 0.240637 m 1.566,-1.573236 h 12.5677 m 0,0 0.2597,-0.01889 m 0,0 0.2439,-0.05587 m 0,0 0.2204,-0.09254 m 0,0 0.2203,-0.129604 m 0,0 0.181,-0.166589 m 0,0 0.1495,-0.185081 m 0,0 0.1259,-0.222065 m 0,0 0.1102,-0.222066 m 0,0 0.079,-0.240637 m 0,0 v -0.240637 m 0,0 V 22.136274 m 0,0 v -0.240637 m 0,0 -0.079,-0.240637 m 0,0 -0.1102,-0.222066 m 0,0 -0.1259,-0.222065 m 0,0 -0.1495,-0.185081 m 0,0 -0.181,-0.166589 m 0,0 -0.2203,-0.129525 m 0,0 -0.2204,-0.09254 m 0,0 -0.2439,-0.05587 m 0,0 -0.2597,-0.01889 m 0,0 h -14.1337"
       id="path1" />
    <path
       style="fill:none;stroke:#000000;stroke-width:0.0184275px;stroke-linecap:round;stroke-linejoin:round;stroke-miterlimit:4;stroke-dasharray:none;stroke-opacity:1"
       d="m 1602.0466,-2.7579585 -1.2347,-1.2400744 m -3.3349,-3.3500689 -3.3357,-3.3500692 m -1.6581,8.3844227 -3.3357,-3.3500689 m -3.3357,-3.350061 -3.3349,-3.3500688 m -1.6588,8.3659141 -3.3349,-3.3500689 m -3.3357,-3.3500692 -1.898,-1.906389 m 0.9954,11.0681756 -0.7554,-0.7773875 m -3.3357,-3.3500689 -3.3358,-3.350061 m -3.3349,-3.3500692 -0.2203,-0.240637 m 0.9946,11.0681764 -2.4504,-2.4616485 m -3.3357,-3.3500689 -3.3168,-3.350069 m -1.6769,8.3844225 -3.3357,-3.3500689 m -3.335,-3.3500611 -3.3357,-3.3500685 m -1.658,8.3659139 -3.3357,-3.3500689 m -3.3357,-3.350069 -1.898,-1.90639 m 1.4746,11.5308947 -1.2346,-1.2400822 m -3.3357,-3.3500689 -3.3349,-3.3500611 m -3.3358,-3.3500685 -0.2203,-0.240637 m 8.5506,18.6567261 -3.3357,-3.350061 m -3.335,-3.3500689 -3.3176,-3.3500689 m -3.3349,-3.3500689 -3.3357,-3.3500684 m 17.4883,27.633431 -2.4882,-2.517181 m -3.335,-3.350061 -3.3357,-3.3500685 m -3.3357,-3.3315608 -3.3349,-3.3500689 m -3.3357,-3.3500689 -3.3349,-3.3500689 m -3.3168,-3.3500611 -3.3358,-3.3500689 m 29.1527,39.349412 -0.8294,-0.832896 m -3.3357,-3.350061 -3.335,-3.350066 m -3.3176,-3.350069 -3.3168,-3.331561 m -10.0244,-10.0687069 -3.3349,-3.3500689 m -3.3358,-3.3500689 -3.3357,-3.3500689 m -3.3349,-3.3500684 -1.8799,-1.90639 m 36.8919,47.123051 -3.335,-3.350068 m -3.3357,-3.350069 -3.3357,-3.350069 m -3.3349,-3.350067 -0.5508,-0.555243 m -19.4406,-19.5266385 -3.3357,-3.3500689 m -3.3349,-3.3500689 -3.3358,-3.350061 m -3.3357,-3.3500687 -0.2203,-0.240637 m 48.557,58.857535 -3.3357,-3.350061 m -3.3349,-3.350069 -3.3176,-3.350069 m -3.3349,-3.350069 -3.3357,-3.350069 m -3.335,-3.350069 -3.3357,-3.350061 m -19.5145,-19.6191842 -0.4801,-0.481195 m -3.3357,-3.35006887 -3.3349,-3.35006893 m -3.3357,-3.3500689 -3.3349,-3.3500691 m 57.4939,67.83424 -2.4882,-2.51718 m -3.3349,-3.350061 -3.3357,-3.350069 m -3.3357,-3.350069 -1.6399,-1.647268 m -8.1076,-8.14381 -0.2596,-0.259129 m -3.3169,-3.350069 -3.3357,-3.350069 m -24.5271,-24.6350295 -2.1562,-2.1470029 m -3.3168,-3.3500689 -3.3357,-3.3500689 m -3.3349,-3.350061 -3.3357,-3.3500688 m 69.1591,79.550223 -0.8294,-0.832888 m -3.3358,-3.350069 -3.3349,-3.350069 m -3.3176,-3.350069 -3.3168,-3.33156 m -50.0309,-50.269516 -3.3349,-3.35006893 m -3.3357,-3.35006887 -3.3169,-3.3500689 m -3.3349,-3.3500693 -1.898,-1.906389 m 76.8976,87.323862 -3.335,-3.350069 m -3.3357,-3.350068 -3.3357,-3.350069 m -63.3352,-63.6327754 -3.3349,-3.3500689 m -3.3357,-3.3500689 -3.3357,-3.350061 m -3.3349,-3.3500688 -0.2203,-0.240637 m 160.8906,171.741857 -2.3222,-2.33208 m -3.3349,-3.35007 -3.3357,-3.35007 m -3.3349,-3.35007 -3.3176,-3.35007 m -3.3349,-3.35006 -3.3357,-3.35007 m -3.335,-3.35006 -3.3357,-3.35007 m -3.3349,-3.35007 -3.3357,-3.35007 m -3.3357,-3.35007 -2.5614,-2.59121 m -4.1092,-4.10893 -3.3169,-3.35006 m -3.3357,-3.35007 -3.3349,-3.35007 m -3.3357,-3.350066 -3.3349,-3.350068 m -3.3357,-3.350061 -3.3357,-3.350069 m -3.335,-3.350069 -3.3357,-3.350069 m -3.3349,-3.350069 -3.3176,-3.350069 m -72.8623,-73.2202631 -0.48,-0.4811949 m -3.3349,-3.35006893 -3.3357,-3.35006887 m -3.3349,-3.3500689 -3.3357,-3.3500693 m 168.4457,179.330424 -0.094,-0.11104 m -3.3349,-3.35007 -3.3357,-3.35007 m -3.335,-3.35006 -3.3357,-3.35007 m -3.3357,-3.35006 -3.3349,-3.35007 m -3.3357,-3.35006 -3.3349,-3.35007 m -3.3168,-3.35007 -3.3357,-3.35007 m -3.3358,-3.35007 -3.3349,-3.35007 m -3.3357,-3.35007 -3.3349,-3.35006 m -3.3357,-3.35007 -3.3357,-3.35007 m -3.3349,-3.35006 -3.3358,-3.35007 m -3.3168,-3.35007 -3.3357,-3.35006 m -3.3349,-3.350073 -3.3357,-3.350069 m -3.3349,-3.350068 -3.3357,-3.350069 m -3.3357,-3.350069 -1.7501,-1.739809 M 1437.9681,3.1832841 1435.812,1.0362812 m -3.3357,-3.3500689 -3.3349,-3.3500689 m -3.3357,-3.350061 -3.335,-3.3500684 m 170.491,181.366356 -2.1554,-2.14699 m -69.9884,-70.351427 -3.335,-3.350061 m -3.3357,-3.350069 -3.3349,-3.350069 m -83.3478,-83.7516884 -3.3169,-3.35006893 m -3.3357,-3.35006887 -3.3357,-3.3500689 m -3.3349,-3.3500689 -1.898,-1.90639 m 96.8921,107.424268 -3.3168,-3.350068 m -3.3357,-3.350069 -2.0271,-2.017447 m -84.6565,-85.0657634 -3.3349,-3.3500689 m -3.3357,-3.3500689 -3.3168,-3.350061 m -3.3349,-3.3500688 -0.244,-0.240637 m 100.0067,110.552232 -1.4377,-1.443679 m -3.3357,-3.350062 -3.3349,-3.350068 m -3.3357,-3.350069 -0.3462,-0.35167 m -82.4996,-82.9188002 -0.48,-0.4811949 m -3.3357,-3.35006888 -3.3349,-3.35006892 m -3.3357,-3.3500689 -3.3358,-3.3500692 m 98.1087,108.645842 -3.0957,-3.127963 m -3.3357,-3.350069 -3.3357,-3.350069 m -84.5085,-84.9362465 -2.1561,-2.1470029 m -3.335,-3.3500689 -3.3357,-3.3500689 m -3.3349,-3.350061 -3.3357,-3.3500688 m 98.3479,108.867939 -3.3357,-3.350061 m -3.3349,-3.350069 -3.3357,-3.350068 m -83.329,-83.7516891 -3.3357,-3.35006888 m -3.3357,-3.35006892 -3.3349,-3.3500689 m -3.3357,-3.3500692 -1.8981,-1.906389 m 96.9103,107.424268 -3.335,-3.350069 m -3.3357,-3.350069 -2.0271,-2.017446 m -84.6556,-85.0658034 -3.3169,-3.3500689 m -3.3357,-3.3500689 -3.3357,-3.350061 m -3.3349,-3.3500688 -0.2203,-0.240637 m 99.9878,110.552232 -1.4377,-1.443679 m -3.3168,-3.350062 -3.3349,-3.350068 m -3.3357,-3.350069 -0.3463,-0.35167 m -82.5003,-82.9188002 -0.4958,-0.4811949 m -3.3357,-3.35006888 -3.3349,-3.35006892 m -3.3168,-3.3500689 -3.3357,-3.3500692 m 98.1087,108.645842 -3.1146,-3.127963 m -3.3357,-3.350069 -3.335,-3.350069 m -84.5085,-84.9362465 -2.1561,-2.1470029 m -3.3357,-3.3500689 -3.3357,-3.3500689 m -3.335,-3.350061 -3.3357,-3.3500688 m 98.3479,108.867939 -3.3349,-3.350061 m -3.3357,-3.350069 -3.3357,-3.350068 m -83.329,-83.7516891 -3.3357,-3.35006888 m -3.3349,-3.35006892 -3.3357,-3.3500689 m -3.3349,-3.3500692 -1.8807,-1.906389 m 96.8929,107.424268 -3.3357,-3.350069 m -3.335,-3.350069 -2.0089,-2.017446 m -84.6565,-85.0658034 -3.3357,-3.3500689 m -3.3357,-3.3500689 -3.3349,-3.350061 m -3.3357,-3.3500688 -0.2204,-0.240637 m 99.9878,110.552232 -1.4188,-1.443679 m -3.3357,-3.350062 -3.3349,-3.350068 m -3.3357,-3.350069 -0.3462,-0.35167 m -82.4996,-82.9188002 -0.4957,-0.4811949 m -3.3169,-3.35006888 -3.3349,-3.35006892 m -3.3357,-3.3500689 -3.3357,-3.3500692 m 98.1087,108.645842 -3.1146,-3.127963 m -3.3168,-3.350069 -3.3349,-3.350069 m -84.5275,-84.9362465 -2.1561,-2.1470029 m -3.3357,-3.3500689 -3.3168,-3.3500689 m -3.3349,-3.350061 -3.3358,-3.3500688 m 98.3299,108.867939 -3.3358,-3.350061 m -3.3357,-3.350069 -3.3168,-3.350068 m -83.347,-83.7516891 -3.335,-3.35006888 m -3.3357,-3.35006892 -3.3357,-3.3500689 m -3.3357,-3.3500692 -1.8799,-1.906389 m 96.8929,107.424268 -3.3357,-3.350069 m -3.3357,-3.350069 -2.009,-2.017446 m -84.6557,-85.0658034 -3.3357,-3.3500689 m -3.3349,-3.3500689 -3.3357,-3.350061 m -3.3349,-3.3500688 -0.2204,-0.240637 m 100.006,110.552232 -1.4377,-1.443679 m -3.335,-3.350062 -3.3357,-3.350068 m -3.3349,-3.350069 -0.3462,-0.35167 m -82.5004,-82.9188002 -0.48,-0.4811949 m -3.3349,-3.35006888 -3.3357,-3.35006892 m -3.3357,-3.3500689 -3.3349,-3.3500692 m 98.1079,108.645842 -3.0957,-3.127963 m -3.3357,-3.350069 -3.335,-3.350069 m -84.5274,-84.9362465 -2.1372,-2.1470029 m -3.3357,-3.3500689 -3.335,-3.3500689 m -3.3357,-3.350061 -3.3357,-3.3500688 m 98.3298,108.867939 -3.3168,-3.350061 m -3.3357,-3.350069 -3.3357,-3.350068 m -83.3471,-83.7516891 -3.3357,-3.35006888 m -3.3357,-3.35006892 -3.3168,-3.3500689 m -3.3349,-3.3500692 -1.898,-1.906389 m 96.8913,107.424268 -3.3349,-3.350069 m -3.3357,-3.350069 -2.0082,-2.017446 m -84.6565,-85.0658034 -3.3349,-3.3500689 m -3.3357,-3.3500689 -3.3357,-3.350061 m -3.3169,-3.3500688 -0.236,-0.240637 m 100.0059,110.552232 -1.4369,-1.443679 m -3.3357,-3.350062 -3.3349,-3.350068 m -3.3357,-3.350069 -0.3463,-0.35167 m -82.5003,-82.9188002 -0.48,-0.4811949 m -3.335,-3.35006888 -3.3357,-3.35006892 m -3.3349,-3.3500689 -3.3357,-3.3500692 m 98.1087,108.645842 -3.0965,-3.127963 m -3.3349,-3.350069 -3.3357,-3.350069 m -84.5086,-84.9362465 -2.1561,-2.1470029 m -3.3349,-3.3500689 -3.3357,-3.3500689 m -3.3357,-3.350061 -3.335,-3.3500688 m 98.3479,108.867939 -3.3357,-3.350061 m -3.3357,-3.350069 -3.3349,-3.350068 m -83.3478,-83.7516891 -3.3169,-3.35006888 m -3.3357,-3.35006892 -3.3349,-3.3500689 m -3.3357,-3.3500692 -1.898,-1.906389 m 96.9102,107.424268 -3.3349,-3.350069 m -3.3357,-3.350069 -2.0271,-2.017446 m -84.6557,-85.0658034 -3.3357,-3.3500689 m -3.3168,-3.3500689 -3.3357,-3.350061 m -3.3349,-3.3500688 -0.244,-0.240637 m 100.0067,110.552232 -1.4377,-1.443679 m -3.3357,-3.350062 -3.3349,-3.350068 m -3.3168,-3.350069 -0.3462,-0.35167 m -82.5004,-82.9188002 -0.4957,-0.4811949 m -3.3357,-3.35006888 -3.335,-3.35006892 m -3.3357,-3.3500689 -3.3357,-3.3500692 m 98.1087,108.645842 -3.0957,-3.127963 m -3.3357,-3.350069 -3.3349,-3.350069 m -84.5094,-84.9362465 -2.1561,-2.1470029 m -3.3349,-3.3500689 -3.3357,-3.3500689 m -3.3349,-3.350061 -3.3357,-3.3500688 m 98.3479,108.867939 -3.3357,-3.350061 m -3.335,-3.350069 -3.3357,-3.350068 m -83.3289,-83.7516891 -3.3357,-3.35006888 m -3.3357,-3.35006892 -3.335,-3.3500689 m -3.3357,-3.3500692 -1.898,-1.906389 m 96.911,107.424268 -3.3357,-3.350069 m -3.3357,-3.350069 -2.0271,-2.017446 m -84.6368,-85.0658034 -3.3349,-3.3500689 m -3.3357,-3.3500689 -3.3349,-3.350061 m -3.3357,-3.3500688 -0.2204,-0.240637 m 99.9878,110.552232 -1.4376,-1.443679 m -3.3169,-3.350062 -3.3349,-3.350068 m -3.3357,-3.350069 -0.3462,-0.35167 m -82.4996,-82.9188002 -0.4957,-0.4811949 m -3.335,-3.35006888 -3.3357,-3.35006892 m -3.3168,-3.3500689 -3.3357,-3.3500692 m 98.1087,108.645842 -3.1146,-3.127963 m -3.3357,-3.350069 -3.316,-3.350069 m -66.0083,-66.316529 -0.661,-0.684847 M 1159.156,4.3863659 1155.8211,1.036297 m -3.3357,-3.3500689 -3.335,-3.3500689 m -3.3357,-3.350061 -3.3168,-3.3500692 m 98.329,108.86794 -3.3349,-3.350062 m -3.3357,-3.350068 -3.3349,-3.350069 m -56.6653,-56.951156 -3.335,-3.350069 m -3.3357,-3.350061 -2.2293,-2.239548 m -4.4413,-4.479095 -3.3168,-3.331561 m -3.3357,-3.3500688 -3.335,-3.3500689 m -3.3357,-3.350061 -3.3357,-3.35006889 m -3.3349,-3.35006891 -3.3357,-3.3500689 m -3.3349,-3.3500686 -1.3086,-1.314115 m 96.3208,106.831993 -3.3357,-3.350069 m -3.335,-3.350069 -2.0089,-2.017446 m -51.3207,-51.583632 -3.3349,-3.350069 m -3.3357,-3.350069 -3.3357,-3.350069 m -3.3349,-3.350067 -3.3357,-3.350069 m -3.335,-3.350068 -3.3357,-3.350061 m -3.3168,-3.3500693 -3.3357,-3.3315608 m -3.3349,-3.3500689 -3.3357,-3.3500689 m 89.7792,100.2614199 -1.4377,-1.443679 m -3.3349,-3.350062 -3.3357,-3.350068 m -3.3357,-3.350069 -0.3462,-0.35167 m -52.9976,-53.249417 -3.3168,-3.350069 m -3.3349,-3.350069 -3.3357,-3.350061 m -10.0795,-10.142744 -3.2618,-3.2575288 m -3.3357,-3.3500689 -3.3168,-3.350061 m -3.3357,-3.35006889 -0.9026,-0.88842041 m 89.0049,99.484056 -3.0957,-3.127964 m -3.3357,-3.350069 -3.3349,-3.350069 m -43.3422,-43.55088 -3.3349,-3.350068 m -3.3357,-3.350069 -3.3349,-3.350061 m -23.3295,-23.450472 -3.3357,-3.3500693 m -3.3349,-3.3315608 -3.3358,-3.3500689 m 85.0067,95.467672 -3.3357,-3.350062 m -3.3357,-3.350068 -3.3168,-3.350069 m -30.0183,-30.16912 -3.3168,-3.331561 m -3.3357,-3.350069 -3.3349,-3.350069 m -3.3357,-3.350061 -0.8294,-0.832896 m -32.5057,-32.6677828 -3.3357,-3.3500689 m 78.3353,88.7675417 -3.335,-3.350069 m -3.3357,-3.350069 -2.0082,-2.017446 m -19.6625,-19.767252 -1.6588,-1.665776 m -3.3349,-3.350069 -3.3357,-3.350069 m -3.3349,-3.350069 -2.4882,-2.498664 m 35.6021,45.827447 -1.4377,-1.443679 m -3.3349,-3.350062 -3.3357,-3.350068 m -3.3349,-3.350069 -0.3463,-0.35167 m -12.973,-13.048606 -3.3357,-3.350069 m -3.3349,-3.350061 -3.3357,-3.350068 m 24.7664,34.944352 -3.0957,-3.127964 m -3.3349,-3.350069 -3.3357,-3.350069 m -3.3357,-3.350069 -3.335,-3.350068 m -3.3357,-3.350061 -3.3349,-3.350069 m 11.6644,21.78469 -3.3169,-3.350062 m -3.3357,-3.350068 -3.3349,-3.350069 m -3.3357,-3.350069 -0.8294,-0.832888 m 14.1526,24.264857 -1.6588,-1.66579 m -3.335,-3.35006 -3.3357,-3.350067 m -3.3349,-3.350069 -2.4882,-2.498672 m 10.8357,20.933298 -3.3357,-3.35007 m -3.3349,-3.35006 -3.3357,-3.35007 m 11.6644,21.76618 -3.335,-3.35006 m -3.3357,-3.35007 -3.3349,-3.35007 m 11.6644,21.76618 -3.3169,-3.33155 m -3.3357,-3.35007 -3.3349,-3.35007 m -3.3357,-3.35007 -0.8294,-0.83289 m 14.1526,24.26486 -1.6588,-1.66578 m -3.335,-3.35007 -3.3357,-3.35007 m -3.3349,-3.35006 -2.4882,-2.49868 m 10.8357,20.9333 -3.3357,-3.35006 m -3.3349,-3.35007 -3.3357,-3.35007 m 11.6644,21.76618 -3.335,-3.35007 m -3.3357,-3.35006 -3.3349,-3.35007 m 3.8142,13.88149 -2.1373,-2.14699 m -3.3357,-3.35007 -0.8294,-0.8329"
       id="path2" />
  </g>
</svg>
