<?xml version="1.0" encoding="UTF-8" standalone="no"?>
<!-- Created with Inkscape (http://www.inkscape.org/) -->

<svg
   width="16.704844mm"
   height="39.998966mm"
   viewBox="0 0 16.704843 39.998964"
   version="1.1"
   id="svg1"
   inkscape:export-filename="Steckprofil 80 x 18.svg"
   inkscape:export-xdpi="96"
   inkscape:export-ydpi="96"
   xmlns:inkscape="http://www.inkscape.org/namespaces/inkscape"
   xmlns:sodipodi="http://sodipodi.sourceforge.net/DTD/sodipodi-0.dtd"
   xmlns="http://www.w3.org/2000/svg"
   xmlns:svg="http://www.w3.org/2000/svg">
  <sodipodi:namedview
     id="namedview1"
     pagecolor="#ffffff"
     bordercolor="#999999"
     borderopacity="1"
     inkscape:showpageshadow="2"
     inkscape:pageopacity="0"
     inkscape:pagecheckerboard="0"
     inkscape:deskcolor="#d1d1d1"
     inkscape:document-units="mm"
     inkscape:lockguides="true">
    <inkscape:page
       x="1.6522829e-30"
       y="0"
       width="16.704844"
       height="39.998962"
       id="page2"
       margin="0"
       bleed="0" />
  </sodipodi:namedview>
  <defs
     id="defs1" />
  <g
     inkscape:label="Ebene 1"
     inkscape:groupmode="layer"
     id="layer1"
     transform="translate(2.1170561,-185.22164)">
    <path
       style="fill:none;stroke:#000000;stroke-width:0.731765px;stroke-linecap:round;stroke-linejoin:round;stroke-miterlimit:4;stroke-dasharray:none;stroke-opacity:1"
       d="m 12.884051,206.71812 -0.0264,-0.005 m 0,0 -0.04778,-0.0126 m 0,0 -0.04652,-0.0175 m 0,0 -0.04401,-0.0226 m 0,0 -0.04149,-0.0276 m 0,0 -0.03898,-0.0314 m 0,0 -0.03521,-0.0352 m 0,0 -0.03143,-0.0376 m 0,0 -0.0264,-0.0414 m 0,0 -0.02263,-0.0452 m 0,0 -0.01886,-0.0452 m 0,0 -0.01258,-0.049 m 0,0 -0.0075,-0.049 m 0,0 -0.0025,-0.049 m 0,0 v -9.17183 m 0,0 -0.0025,-0.049 m 0,0 -0.0075,-0.049 m 0,0 -0.01383,-0.0477 m 0,0 -0.0176,-0.0464 m 0,0 -0.02263,-0.0439 m 0,0 -0.0264,-0.0414 m 0,0 -0.03143,-0.0389 m 0,0 -0.03521,-0.0352 m 0,0 -0.03898,-0.0314 m 0,0 -0.04149,-0.0264 m 0,0 -0.04401,-0.0226 m 0,0 -0.03018,-0.0126 m 0,0 -1.424553,-0.51737 m 0,0 -0.01509,-0.005 m 0,0 -0.04778,-0.0126 m 0,0 -0.04904,-0.009 m 0,0 -0.04903,-0.003 m 0,0 -0.05029,0.003 m 0,0 -0.04903,0.009 m 0,0 -0.04778,0.0126 m 0,0 -0.04652,0.0175 m 0,0 -0.04401,0.0226 m 0,0 -0.04149,0.0264 m 0,0 -0.03898,0.0314 m 0,0 -0.03521,0.0351 m 0,0 -0.03143,0.0389 m 0,0 -0.0264,0.0414 m 0,0 -0.02263,0.0439 m 0,0 -0.0176,0.0465 m 0,0 -0.01383,0.0477 m 0,0 -0.0075,0.049 m 0,0 -0.0025,0.0503 m 0,0 v 9.66408 m 0,0 -0.0025,0.049 m 0,0 -0.0075,0.049 m 0,0 -0.01258,0.0477 m 0,0 -0.0176,0.0464 m 0,0 -0.02263,0.0439 m 0,0 -0.02766,0.0414 m 0,0 -0.031432,0.0389 m 0,0 -0.035205,0.0352 m 0,0 -0.037721,0.0314 m 0,0 -0.041492,0.0264 m 0,0 -0.045264,0.0226 m 0,0 -0.046521,0.0175 m 0,0 -0.047779,0.0126 m 0,0 -0.049036,0.009 m 0,0 -0.049036,0.003 m 0,0 H 5.206996 m 0,0 -0.049036,-0.003 m 0,0 -0.049035,-0.009 m 0,0 -0.049037,-0.0126 m 0,0 -0.046521,-0.0175 m 0,0 -0.044006,-0.0226 m 0,0 -0.041492,-0.0264 m 0,0 -0.038977,-0.0314 m 0,0 -0.033948,-0.0352 m 0,0 -0.031434,-0.0389 m 0,0 -0.027661,-0.0414 m 0,0 -0.022632,-0.0439 m 0,0 -0.017603,-0.0464 m 0,0 -0.012577,-0.0477 m 0,0 -0.00754,-0.049 m 0,0 -0.00251,-0.049 m 0,0 v -1.52321 m 0,0 -0.00251,-0.049 m 0,0 -0.0088,-0.049 m 0,0 -0.012577,-0.049 m 0,0 -0.017603,-0.0452 m 0,0 -0.022632,-0.0452 m 0,0 -0.026405,-0.0414 m 0,0 -0.031432,-0.0376 m 0,0 -0.035205,-0.0351 m 0,0 -0.038977,-0.0314 m 0,0 -0.041492,-0.0276 m 0,0 -0.044006,-0.0226 m 0,0 -0.046521,-0.0175 m 0,0 -0.047779,-0.0126 m 0,0 -0.049036,-0.008 m 0,0 -0.050293,-0.003 m 0,0 H 4.23383 m 0,0 -3.1144037,0.16324 m 0,0 -0.023889,0.001 m 0,0 -0.050293,-0.003 m 0,0 -0.0490357,-0.008 m 0,0 -0.0477785,-0.0126 m 0,0 -0.0465212,-0.0175 m 0,0 -0.0440074,-0.0226 m 0,0 -0.0414921,-0.0277 m 0,0 -0.0389767,-0.0302 m 0,0 -0.0352053,-0.0352 m 0,0 -0.0314339,-0.0389 m 0,0 -0.0264032,-0.0414 m 0,0 -0.0226318,-0.0439 m 0,0 -0.0176026,-0.0464 m 0,0 -0.0125767,-0.0477 m 0,0 -0.008801,-0.049 m 0,0 -0.002512,-0.0502 m 0,0 V 189.3909 m 0,0 0.002512,-0.0502 m 0,0 0.008801,-0.049 m 0,0 0.0125767,-0.0477 m 0,0 0.0176026,-0.0465 m 0,0 0.0226318,-0.0439 m 0,0 0.0264032,-0.0414 m 0,0 0.0314339,-0.0389 m 0,0 0.0352053,-0.034 m 0,0 0.0389767,-0.0315 m 0,0 0.0414921,-0.0276 m 0,0 0.0440074,-0.0226 m 0,0 0.0465212,-0.0175 m 0,0 0.0477785,-0.0126 m 0,0 0.0490357,-0.008 m 0,0 0.00754,-0.001 m 0,0 8.5397779,-0.74592 m 0,0 0.04275,-0.001 m 0,0 0.049036,0.003 m 0,0 0.049036,0.008 m 0,0 0.047779,0.0126 m 0,0 0.046521,0.0175 m 0,0 0.045263,0.0226 m 0,0 0.041492,0.0276 m 0,0 0.037721,0.0314 m 0,0 0.035205,0.034 m 0,0 0.031433,0.0389 m 0,0 0.02766,0.0414 m 0,0 0.02263,0.0439 m 0,0 0.0176,0.0465 m 0,0 0.01258,0.0477 m 0,0 0.0075,0.049 m 0,0 0.0025,0.0503 m 0,0 v 1.75424 m 0,0 0.0025,0.0502 m 0,0 0.0075,0.0477 m 0,0 0.01383,0.049 m 0,0 0.0176,0.0452 m 0,0 0.02263,0.0452 m 0,0 0.0264,0.0414 m 0,0 0.03143,0.0376 m 0,0 0.03521,0.0352 m 0,0 0.03898,0.0314 m 0,0 0.04149,0.0277 m 0,0 0.044,0.0226 m 0,0 0.04652,0.0175 m 0,0 0.04778,0.0126 m 0,0 0.04903,0.008 m 0,0 0.0503,0.003 m 0,0 0.04903,-0.003 m 0,0 0.04904,-0.008 m 0,0 0.04778,-0.0126 m 0,0 0.04652,-0.0175 m 0,0 0.04401,-0.0226 m 0,0 0.04149,-0.0277 m 0,0 0.03898,-0.0314 m 0,0 0.01886,-0.0163 m 0,0 1.423296,-1.42148 m 0,0 0.01634,-0.0175 m 0,0 0.03143,-0.0389 m 0,0 0.0264,-0.0414 m 0,0 0.02263,-0.0439 m 0,0 0.0176,-0.0465 m 0,0 0.01383,-0.0477 m 0,0 0.0075,-0.049 m 0,0 0.0025,-0.049 m 0,0 v -2.91832 m 0,0 -0.0025,-0.0502 m 0,0 -0.0075,-0.049 m 0,0 -0.01383,-0.0477 m 0,0 -0.0176,-0.0465 m 0,0 -0.02263,-0.0439 m 0,0 -0.0264,-0.0414 m 0,0 -0.03143,-0.0376 m 0,0 -0.0352,-0.0352 m 0,0 -0.03898,-0.0314 m 0,0 -0.04149,-0.0276 m 0,0 -0.04401,-0.0226 m 0,0 -0.04652,-0.0175 m 0,0 -0.04778,-0.0126 m 0,0 -0.04904,-0.008 m 0,0 -0.04903,-0.003 m 0,0 -0.04149,10e-4 m 0,0 -13.2861926,1.16028 m 0,0 -0.00754,0.001 m 0,0 -0.049035,0.008 m 0,0 -0.047779,0.0126 m 0,0 -0.046521,0.0175 m 0,0 -0.044006,0.0226 m 0,0 -0.041492,0.0276 m 0,0 -0.038977,0.0314 m 0,0 -0.035205,0.034 m 0,0 -0.030176,0.0389 m 0,0 -0.027661,0.0414 m 0,0 -0.022632,0.0439 m 0,0 -0.017603,0.0465 m 0,0 -0.012577,0.0477 m 0,0 -0.00754,0.049 m 0,0 -0.00251,0.0502 m 0,0 v 18.86104 m 0,0 0.00251,0.0615 m 0,0 0.00629,0.0615 m 0,0 0.012577,0.0603 m 0,0 0.016345,0.0604 m 0,0 0.021374,0.0578 m 0,0 0.026403,0.0566 m 0,0 0.030176,0.054 m 0,0 0.035205,0.0515 m 0,0 0.037721,0.049 m 0,0 0.04275,0.0452 m 0,0 0.045264,0.0427 m 0,0 0.049036,0.0376 m 0,0 0.05155,0.0351 m 0,0 0.054066,0.0302 m 0,0 0.056579,0.0251 m 0,0 0.057837,0.0213 m 0,0 0.060352,0.0175 m 0,0 0.060352,0.0111 m 0,0 0.061608,0.008 m 0,0 0.0616085,0.003 m 0,0 0.0414921,-0.001 m 0,0 2.4480191,-0.12814 m 0,0 h 0.041492 m 0,0 0.061609,0.001 m 0,0 0.061609,0.008 m 0,0 0.061609,0.0126 m 0,0 0.059094,0.0163 m 0,0 0.059094,0.0213 m 0,0 0.05658,0.0264 m 0,0 0.054065,0.0302 m 0,0 0.05155,0.0352 m 0,0 0.047779,0.0376 m 0,0 0.046521,0.0427 m 0,0 0.041492,0.0452 m 0,0 0.038977,0.049 m 0,0 0.033948,0.0515 m 0,0 0.030176,0.054 m 0,0 0.026404,0.0566 m 0,0 0.021375,0.0578 m 0,0 0.017603,0.0591 m 0,0 0.011316,0.0615 m 0,0 0.00754,0.0615 m 0,0 0.00251,0.0615 m 0,0 v 8.79888 m 0,0 0.00252,0.049 m 0,0 0.00754,0.049 m 0,0 0.012574,0.0477 m 0,0 0.01886,0.0465 m 0,0 0.021374,0.0439 m 0,0 0.027662,0.0414 m 0,0 0.031433,0.0389 m 0,0 0.035205,0.0352 m 0,0 0.03772,0.0314 m 0,0 0.042749,0.0264 m 0,0 0.044007,0.0226 m 0,0 0.046521,0.0175 m 0,0 0.047778,0.0142 m 0,0 0.049036,0.008 m 0,0 0.049036,0.003 m 0,0 H 3.925659 m 0,0 0.050293,-0.003 m 0,0 0.049037,-0.008 m 0,0 0.047779,-0.0142 m 0,0 0.046521,-0.0175 m 0,0 0.044006,-0.0226 m 0,0 0.041492,-0.0264 m 0,0 0.038977,-0.0314 m 0,0 0.033948,-0.0352 m 0,0 0.031434,-0.0389 m 0,0 0.027661,-0.0414 m 0,0 0.022632,-0.0439 m 0,0 0.012577,-0.0302 m 0,0 0.9555699,-2.62071 m 0,0 0.00629,-0.0201 m 0,0 0.013825,-0.0477 m 0,0 0.010064,-0.049 m 0,0 0.00502,-0.049 m 0,0 0.00251,-0.0503 m 0,0 -0.00251,-0.049 m 0,0 -0.00502,-0.049 m 0,0 -0.010064,-0.049 m 0,0 -0.013825,-0.0477 m 0,0 -0.017603,-0.0465 m 0,0 -0.020118,-0.0452 m 0,0 -0.010065,-0.0188 m 0,0 -0.010065,-0.0188 m 0,0 -0.021374,-0.0452 m 0,0 -0.016345,-0.0465 m 0,0 -0.013825,-0.0477 m 0,0 -0.010064,-0.049 m 0,0 -0.00502,-0.049 m 0,0 -0.00251,-0.0502 m 0,0 0.00251,-0.049 m 0,0 0.00502,-0.049 m 0,0 0.010064,-0.049 m 0,0 0.013825,-0.0477 m 0,0 0.016345,-0.0464 m 0,0 0.011313,-0.0264 m 0,0 0.01886,-0.0427 m 0,0 0.028919,-0.0766 m 0,0 0.022632,-0.0792 m 0,0 0.015089,-0.0804 m 0,0 0.010065,-0.0817 m 0,0 0.00378,-0.0817 m 0,0 -0.00378,-0.0828 m 0,0 -0.010065,-0.0817 m 0,0 -0.015089,-0.0804 m 0,0 -0.022632,-0.0792 m 0,0 -0.028919,-0.0766 m 0,0 -0.01886,-0.0427 m 0,0 -0.011313,-0.0264 m 0,0 -0.016345,-0.0465 m 0,0 -0.013825,-0.0477 m 0,0 -0.010064,-0.049 m 0,0 -0.00502,-0.049 m 0,0 -0.00251,-0.049 m 0,0 0.00251,-0.0502 m 0,0 0.00502,-0.049 m 0,0 0.010064,-0.049 m 0,0 0.013825,-0.0477 m 0,0 0.016345,-0.0464 m 0,0 0.021374,-0.0439 m 0,0 0.023889,-0.0439 m 0,0 0.012577,-0.0188 m 0,0 0.010065,-0.0163 m 0,0 0.015089,-0.0302 m 0,0 0.011313,-0.0302 m 0,0 0.0088,-0.0327 m 0,0 0.00502,-0.0327 m 0,0 0.00251,-0.0327 m 0,0 v -1.55835 m 0,0 0.00251,-0.0503 m 0,0 0.00754,-0.049 m 0,0 0.012577,-0.0477 m 0,0 0.017603,-0.0465 m 0,0 0.022632,-0.0439 m 0,0 0.027661,-0.0414 m 0,0 0.031434,-0.0389 m 0,0 0.035205,-0.0352 m 0,0 0.037721,-0.0302 m 0,0 0.041492,-0.0276 m 0,0 0.045263,-0.0226 m 0,0 0.045263,-0.0175 m 0,0 0.049035,-0.0126 m 0,0 0.049036,-0.008 m 0,0 0.049036,-0.003 m 0,0 h 3.6374525 m 0,0 0.082984,0.003 m 0,0 0.082984,0.006 m 0,0 0.081727,0.0111 m 0,0 0.081727,0.0158 m 0,0 0.080469,0.0188 m 0,0 0.079211,0.0238 m 0,0 0.077955,0.0276 m 0,0 0.0767,0.0315 m 0,0 0.07418,0.0365 m 0,0 0.07293,0.0389 m 0,0 0.07041,0.0427 m 0,0 0.0679,0.0477 m 0,0 0.06664,0.0502 m 0,0 0.06287,0.0528 m 0,0 0.06035,0.0578 m 0,0 0.05658,0.0591 m 0,0 0.05407,0.064 m 0,0 0.05029,0.0653 m 0,0 0.04652,0.0678 m 0,0 0.04275,0.0703 m 0,0 0.04023,0.0728 m 0,0 0.03521,0.0741 m 0,0 0.03143,0.0766 m 0,0 0.02766,0.0779 m 0,0 0.02389,0.0791 m 0,0 0.01886,0.0804 m 0,0 0.01509,0.0817 m 0,0 0.01131,0.0817 m 0,0 0.0063,0.083 m 0,0 0.0025,0.0828 m 0,0 v 14.2073 m 0,0 h 1.79798 m 0,0 0.05029,-0.003 m 0,0 0.04904,-0.008 m 0,0 0.04778,-0.0126 m 0,0 0.04652,-0.0175 m 0,0 0.04401,-0.0226 m 0,0 0.04149,-0.0276 m 0,0 0.03898,-0.0302 m 0,0 0.0352,-0.0352 m 0,0 0.03143,-0.0389 m 0,0 0.0264,-0.0414 m 0,0 0.02263,-0.0439 m 0,0 0.93168,-2.08702 m 0,0 v -14.20857 m 0,0 -0.0025,-0.0829 m 0,0 -0.0063,-0.083 m 0,0 -0.01131,-0.0817 m 0,0 -0.01509,-0.0804 m 0,0 -0.01886,-0.0804 m 0,0 -0.02389,-0.0804 m 0,0 -0.02766,-0.0779 m 0,0 -0.03143,-0.0754 m 0,0 -0.03646,-0.0754 m 0,0 -0.03898,-0.0728 m 0,0 -0.04275,-0.0703 m 0,0 -0.04778,-0.0678 m 0,0 -0.05029,-0.0653 m 0,0 -0.05407,-0.0627 m 0,0 -0.05658,-0.0603 m 0,0 -0.06035,-0.0566 m 0,0 -0.06287,-0.054 m 0,0 -0.06538,-0.0503 m 0,0 -0.0679,-0.0464 m 0,0 -0.07041,-0.0439 m 0,0 -0.07292,-0.0389 m 0,0 -0.07544,-0.0365 m 0,0 -0.0767,-0.0314 m 0,0 -0.07795,-0.0276 m 0,0 -0.07921,-0.0226 m 0,0 -0.08047,-0.0201 m 0,0 -0.08424,-0.0158"
       id="path1" />
  </g>
</svg>
