<?xml version="1.0" encoding="UTF-8" standalone="no"?>
<!-- Created with Inkscape (http://www.inkscape.org/) -->

<svg
   width="63.338509mm"
   height="20.460796mm"
   viewBox="0 0 63.338509 20.460796"
   version="1.1"
   id="svg1"
   inkscape:export-filename="GT Sprosse FB 60mm.svg"
   inkscape:export-xdpi="96"
   inkscape:export-ydpi="96"
   xmlns:inkscape="http://www.inkscape.org/namespaces/inkscape"
   xmlns:sodipodi="http://sodipodi.sourceforge.net/DTD/sodipodi-0.dtd"
   xmlns="http://www.w3.org/2000/svg"
   xmlns:svg="http://www.w3.org/2000/svg">
  <sodipodi:namedview
     id="namedview1"
     pagecolor="#ffffff"
     bordercolor="#999999"
     borderopacity="1"
     inkscape:showpageshadow="2"
     inkscape:pageopacity="0"
     inkscape:pagecheckerboard="0"
     inkscape:deskcolor="#d1d1d1"
     inkscape:document-units="mm">
    <inkscape:page
       x="0"
       y="0"
       width="63.338509"
       height="20.460796"
       id="page2"
       margin="0"
       bleed="0" />
  </sodipodi:namedview>
  <defs
     id="defs1" />
  <g
     inkscape:label="Ebene 1"
     inkscape:groupmode="layer"
     id="layer1"
     transform="translate(-82.325016,-128.50542)">
    <path
       style="fill:none;stroke:#000000;stroke-width:0.459007px;stroke-linecap:round;stroke-linejoin:round;stroke-miterlimit:4;stroke-dasharray:none;stroke-opacity:1"
       d="M 144.93425,128.73492 H 83.054639 m 0,0 -0.05296,0.004 m 0,0 -0.051,0.008 m 0,0 -0.051,0.0137 m 0,0 -0.04904,0.0177 m 0,0 -0.04708,0.0236 m 0,0 -0.04315,0.0294 m 0,0 -0.04119,0.0333 m 0,0 -0.03531,0.0373 m 0,0 -0.03335,0.0393 m 0,0 -0.02942,0.0451 m 0,0 -0.02354,0.0451 m 0,0 -0.01765,0.0491 m 0,0 -0.01373,0.051 m 0,0 -0.0078,0.051 m 0,0 -0.0039,0.053 m 0,0 v 6.80151 m 0,0 0.0039,0.051 m 0,0 0.0078,0.053 m 0,0 0.01373,0.051 m 0,0 0.01765,0.0471 m 0,0 0.02354,0.0471 m 0,0 0.02942,0.0451 m 0,0 0.03335,0.0393 m 0,0 0.03531,0.0373 m 0,0 0.04119,0.0334 m 0,0 0.04315,0.0275 m 0,0 0.04708,0.0255 m 0,0 0.04904,0.0177 m 0,0 0.051,0.0137 m 0,0 0.051,0.008 m 0,0 0.05296,0.004 m 0,0 h 1.196556 m 0,0 0.07846,-0.004 m 0,0 0.07846,-0.01 m 0,0 0.0765,-0.0137 m 0,0 0.07454,-0.0216 m 0,0 0.07454,-0.0275 m 0,0 0.07062,-0.0334 m 0,0 0.06866,-0.0392 m 0,0 0.06473,-0.0432 m 0,0 0.06277,-0.0491 m 0,0 0.05689,-0.053 m 0,0 0.05296,-0.0569 m 0,0 0.04904,-0.0608 m 0,0 0.04315,-0.0667 m 0,0 0.03923,-0.0687 m 0,0 0.03139,-0.0706 m 0,0 0.02746,-0.0746 m 0,0 0.02158,-0.0746 m 0,0 0.01569,-0.0765 m 0,0 0.0078,-0.0785 m 0,0 0.0039,-0.0785 m 0,0 v -0.20016 m 0,0 -0.002,-0.0393 m 0,0 -0.0078,-0.0393 m 0,0 -0.01373,-0.0373 m 0,0 -0.01569,-0.0334 m 0,0 -0.02354,-0.0334 m 0,0 -0.0255,-0.0294 m 0,0 -0.02942,-0.0255 m 0,0 -0.03139,-0.0216 m 0,0 -0.03531,-0.0177 m 0,0 -0.03727,-0.0137 m 0,0 -0.03923,-0.008 m 0,0 -0.03923,-0.002 m 0,0 h -0.498238 m 0,0 -0.03923,-0.002 m 0,0 -0.03923,-0.008 m 0,0 -0.03727,-0.0137 m 0,0 -0.03335,-0.0157 m 0,0 -0.03335,-0.0216 m 0,0 -0.02942,-0.0275 m 0,0 -0.0255,-0.0294 m 0,0 -0.02158,-0.0314 m 0,0 -0.01765,-0.0353 m 0,0 -0.01373,-0.0373 m 0,0 -0.0059,-0.0392 m 0,0 -0.0039,-0.0392 m 0,0 v -2.1998 m 0,0 h 0.5002 m 0,0 0.051,-0.002 m 0,0 0.05296,-0.01 m 0,0 0.04904,-0.0137 m 0,0 0.04904,-0.0177 m 0,0 0.04708,-0.0236 m 0,0 0.04315,-0.0294 m 0,0 0.04119,-0.0334 m 0,0 0.03727,-0.0353 m 0,0 0.03139,-0.0412 m 0,0 0.02942,-0.0432 m 0,0 0.02354,-0.0471 m 0,0 0.01962,-0.0491 m 0,0 0.01373,-0.051 m 0,0 0.0078,-0.051 m 0,0 0.002,-0.053 m 0,0 v -0.30024 m 0,0 -0.002,-0.0314 m 0,0 -0.0078,-0.0294 m 0,0 -0.01177,-0.0294 m 0,0 -0.01569,-0.0275 m 0,0 -0.02158,-0.0236 m 0,0 -0.02354,-0.0196 m 0,0 -0.0255,-0.0177 m 0,0 -0.02942,-0.0118 m 0,0 -0.03139,-0.006 m 0,0 -0.03139,-0.004 m 0,0 h -0.798358 m 0,0 v -1.19899 m 0,0 h 5.190308 m 0,0 v 1.19899 m 0,0 h -0.798358 m 0,0 -0.03139,0.004 m 0,0 -0.02942,0.006 m 0,0 -0.02942,0.0118 m 0,0 -0.02746,0.0177 m 0,0 -0.02354,0.0196 m 0,0 -0.01962,0.0236 m 0,0 -0.01765,0.0275 m 0,0 -0.01177,0.0294 m 0,0 -0.0059,0.0294 m 0,0 -0.0039,0.0314 m 0,0 v 0.30024 m 0,0 0.0039,0.053 m 0,0 0.0078,0.051 m 0,0 0.01373,0.051 m 0,0 0.01766,0.0491 m 0,0 0.02354,0.0471 m 0,0 0.02942,0.0432 m 0,0 0.03335,0.0412 m 0,0 0.03531,0.0353 m 0,0 0.04119,0.0334 m 0,0 0.04315,0.0294 m 0,0 0.04708,0.0236 m 0,0 0.04904,0.0177 m 0,0 0.051,0.0137 m 0,0 0.051,0.01 m 0,0 0.05296,0.002 m 0,0 h 0.498238 m 0,0 v 2.1998 m 0,0 -0.002,0.0392 m 0,0 -0.0078,0.0392 m 0,0 -0.01373,0.0373 m 0,0 -0.01569,0.0353 m 0,0 -0.02158,0.0314 m 0,0 -0.02746,0.0294 m 0,0 -0.02942,0.0275 m 0,0 -0.03139,0.0216 m 0,0 -0.03531,0.0157 m 0,0 -0.03727,0.0137 m 0,0 -0.03923,0.008 m 0,0 -0.03923,0.002 m 0,0 h -0.498238 m 0,0 -0.03923,0.002 m 0,0 -0.03727,0.008 m 0,0 -0.03727,0.0137 m 0,0 -0.03531,0.0177 m 0,0 -0.03335,0.0216 m 0,0 -0.02942,0.0255 m 0,0 -0.0255,0.0294 m 0,0 -0.02158,0.0334 m 0,0 -0.01765,0.0334 m 0,0 -0.01177,0.0373 m 0,0 -0.0078,0.0393 m 0,0 -0.0039,0.0393 m 0,0 v 0.20016 m 0,0 0.0039,0.0785 m 0,0 0.0098,0.0785 m 0,0 0.01373,0.0765 m 0,0 0.02158,0.0746 m 0,0 0.02746,0.0746 m 0,0 0.03335,0.0706 m 0,0 0.03727,0.0687 m 0,0 0.04512,0.0667 m 0,0 0.04708,0.0608 m 0,0 0.05296,0.0569 m 0,0 0.05885,0.053 m 0,0 0.06081,0.0491 m 0,0 0.06473,0.0432 m 0,0 0.06865,0.0392 m 0,0 0.07258,0.0334 m 0,0 0.07258,0.0275 m 0,0 0.07454,0.0216 m 0,0 0.07846,0.0137 m 0,0 0.0765,0.01 m 0,0 0.07846,0.004 m 0,0 h 2.995314 m 0,0 0.103963,-0.004 m 0,0 0.103963,-0.008 m 0,0 0.103963,-0.0137 m 0,0 0.102002,-0.0196 m 0,0 0.102001,-0.0236 m 0,0 0.10004,-0.0294 m 0,0 0.09808,-0.0353 m 0,0 0.09808,-0.0412 m 0,0 0.09416,-0.0451 m 0,0 0.09023,-0.0491 m 0,0 0.09023,-0.0549 m 0,0 0.08631,-0.0589 m 0,0 0.08239,-0.0648 m 0,0 0.08042,-0.0667 m 0,0 0.07454,-0.0726 m 0,0 0.07258,-0.0765 m 0,0 0.06866,-0.0785 m 0,0 0.06277,-0.0844 m 0,0 0.05885,-0.0864 m 0,0 0.05492,-0.0883 m 0,0 0.04904,-0.0922 m 0,0 0.04512,-0.0942 m 0,0 0.04119,-0.0961 m 0,0 0.03335,-0.10008 m 0,0 0.03139,-0.10008 m 0,0 0.02354,-0.10204 m 0,0 0.01962,-0.10205 m 0,0 0.01373,-0.104 m 0,0 0.0078,-0.104 m 0,0 0.002,-0.10597 m 0,0 v -0.15307 m 0,0 -0.002,-0.0392 m 0,0 -0.0078,-0.0393 m 0,0 -0.01177,-0.0373 m 0,0 -0.01765,-0.0353 m 0,0 -0.02158,-0.0334 m 0,0 -0.0255,-0.0294 m 0,0 -0.02942,-0.0255 m 0,0 -0.03335,-0.0216 m 0,0 -0.27462,-0.15895 m 0,0 -0.0098,-0.004 m 0,0 -0.02942,-0.0137 m 0,0 -0.02942,-0.006 m 0,0 -0.03139,-0.004 m 0,0 -0.03138,0.004 m 0,0 -0.02942,0.006 m 0,0 -0.02942,0.0137 m 0,0 -0.02746,0.0157 m 0,0 -0.02354,0.0196 m 0,0 -0.01962,0.0236 m 0,0 -0.07258,0.0922 m 0,0 -0.08042,0.0863 m 0,0 -0.08631,0.0805 m 0,0 -0.09219,0.0726 m 0,0 -0.09808,0.0667 m 0,0 -0.102002,0.0569 m 0,0 -0.105925,0.0491 m 0,0 -0.111809,0.0412 m 0,0 -0.111809,0.0314 m 0,0 -0.115733,0.0236 m 0,0 -0.117694,0.0137 m 0,0 -0.115732,0.004 m 0,0 -0.117694,-0.004 m 0,0 -0.117694,-0.0137 m 0,0 -0.115733,-0.0236 m 0,0 -0.111809,-0.0314 m 0,0 -0.111809,-0.0412 m 0,0 -0.105925,-0.0491 m 0,0 -0.102002,-0.0569 m 0,0 -0.09808,-0.0667 m 0,0 -0.09219,-0.0726 m 0,0 -0.08631,-0.0805 m 0,0 -0.08042,-0.0863 m 0,0 -0.07258,-0.0922 m 0,0 -0.02942,-0.0432 m 0,0 -0.0255,-0.0294 m 0,0 -0.02354,-0.0216 m 0,0 -0.02746,-0.0157 m 0,0 -0.02746,-0.0118 m 0,0 -0.03139,-0.008 m 0,0 -0.03139,-0.002 m 0,0 h -0.190272 m 0,0 -0.02942,-0.002 m 0,0 -0.03139,-0.008 m 0,0 -0.02942,-0.0118 m 0,0 -0.0255,-0.0157 m 0,0 -0.0255,-0.0216 m 0,0 -0.01962,-0.0236 m 0,0 -0.01569,-0.0275 m 0,0 -0.01177,-0.0275 m 0,0 -0.0078,-0.0314 m 0,0 -0.002,-0.0314 m 0,0 v -1.10088 m 0,0 0.002,-0.0314 m 0,0 0.0078,-0.0294 m 0,0 0.01177,-0.0294 m 0,0 0.01569,-0.0255 m 0,0 0.01962,-0.0255 m 0,0 0.0255,-0.0196 m 0,0 0.0255,-0.0157 m 0,0 0.02942,-0.0137 m 0,0 0.03139,-0.006 m 0,0 0.02942,-0.004 m 0,0 h 0.190272 m 0,0 0.03139,-0.002 m 0,0 0.03139,-0.006 m 0,0 0.02746,-0.0137 m 0,0 0.02746,-0.0157 m 0,0 0.02354,-0.0196 m 0,0 0.0255,-0.0294 m 0,0 0.02942,-0.0451 m 0,0 0.07258,-0.0922 m 0,0 0.08042,-0.0863 m 0,0 0.08631,-0.0805 m 0,0 0.09219,-0.0726 m 0,0 0.09808,-0.0648 m 0,0 0.102002,-0.0569 m 0,0 0.105925,-0.051 m 0,0 0.111809,-0.0392 m 0,0 0.111809,-0.0334 m 0,0 0.115733,-0.0216 m 0,0 0.117694,-0.0137 m 0,0 0.117694,-0.006 m 0,0 0.115732,0.006 m 0,0 0.117694,0.0137 m 0,0 0.115733,0.0216 m 0,0 0.111809,0.0334 m 0,0 0.111809,0.0392 m 0,0 0.105925,0.051 m 0,0 0.102002,0.0569 m 0,0 0.09808,0.0648 m 0,0 0.09219,0.0726 m 0,0 0.08631,0.0805 m 0,0 0.08042,0.0863 m 0,0 0.07258,0.0922 m 0,0 0.01962,0.0236 m 0,0 0.02354,0.0216 m 0,0 0.02746,0.0157 m 0,0 0.02942,0.0118 m 0,0 0.02942,0.008 m 0,0 0.03138,0.002 m 0,0 0.03139,-0.002 m 0,0 0.02942,-0.008 m 0,0 0.02942,-0.0118 m 0,0 0.0098,-0.006 m 0,0 0.27462,-0.15895 m 0,0 0.03335,-0.0216 m 0,0 0.02942,-0.0255 m 0,0 0.0255,-0.0294 m 0,0 0.02158,-0.0334 m 0,0 0.01765,-0.0353 m 0,0 0.01177,-0.0353 m 0,0 0.0078,-0.0392 m 0,0 0.002,-0.0393 m 0,0 v -0.0549 m 0,0 0.0059,-0.11774 m 0,0 0.01373,-0.11578 m 0,0 0.02158,-0.11577 m 0,0 0.03335,-0.11382 m 0,0 0.03923,-0.10989 m 0,0 0.04904,-0.10793 m 0,0 0.05885,-0.10204 m 0,0 0.06473,-0.0981 m 0,0 0.07258,-0.0922 m 0,0 0.08042,-0.0864 m 0,0 0.08631,-0.0804 m 0,0 0.09219,-0.0726 m 0,0 0.09808,-0.0667 m 0,0 0.102002,-0.0569 m 0,0 0.105924,-0.0491 m 0,0 0.11181,-0.0412 m 0,0 0.111809,-0.0314 m 0,0 0.115733,-0.0236 m 0,0 0.117694,-0.0137 m 0,0 0.117694,-0.004 m 0,0 h 3.093392 m 0,0 0.117694,0.004 m 0,0 0.115732,0.0137 m 0,0 0.115733,0.0236 m 0,0 0.113771,0.0314 m 0,0 0.109848,0.0412 m 0,0 0.105925,0.0491 m 0,0 0.103963,0.0569 m 0,0 0.09612,0.0667 m 0,0 0.09416,0.0726 m 0,0 0.08631,0.0804 m 0,0 0.07846,0.0864 m 0,0 0.07258,0.0922 m 0,0 0.0667,0.0981 m 0,0 0.0569,0.10204 m 0,0 0.049,0.10793 m 0,0 0.0412,0.10989 m 0,0 0.0314,0.11382 m 0,0 0.0235,0.11577 m 0,0 0.0137,0.11578 m 0,0 0.004,0.11774 m 0,0 v 1.70136 m 0,0 -0.004,0.11774 m 0,0 -0.0137,0.11578 m 0,0 -0.0235,0.11578 m 0,0 -0.0314,0.11382 m 0,0 -0.0412,0.10989 m 0,0 -0.049,0.10793 m 0,0 -0.0569,0.10204 m 0,0 -0.0667,0.0981 m 0,0 -0.07258,0.0922 m 0,0 -0.07846,0.0863 m 0,0 -0.08631,0.0805 m 0,0 -0.09416,0.0726 m 0,0 -0.09612,0.0648 m 0,0 -0.103963,0.0589 m 0,0 -0.105925,0.0491 m 0,0 -0.109848,0.0412 m 0,0 -0.113771,0.0314 m 0,0 -0.115733,0.0236 m 0,0 -0.115732,0.0137 m 0,0 -0.117694,0.004 m 0,0 h -0.10004 m 0,0 -0.117694,0.004 m 0,0 -0.115733,0.0157 m 0,0 -0.115732,0.0216 m 0,0 -0.113771,0.0334 m 0,0 -0.109848,0.0392 m 0,0 -0.107886,0.0491 m 0,0 -0.102001,0.0589 m 0,0 -0.09808,0.0648 m 0,0 -0.09219,0.0726 m 0,0 -0.08631,0.0805 m 0,0 -0.07846,0.0863 m 0,0 -0.07258,0.0922 m 0,0 -0.06669,0.0981 m 0,0 -0.05688,0.104 m 0,0 -0.04904,0.10597 m 0,0 -0.04119,0.10989 m 0,0 -0.03139,0.11382 m 0,0 -0.02354,0.11577 m 0,0 -0.01373,0.11775 m 0,0 -0.0039,0.11774 m 0,0 v 3.39879 m 0,0 0.0039,0.11774 m 0,0 0.01373,0.11774 m 0,0 0.02354,0.11578 m 0,0 0.03139,0.11381 m 0,0 0.04119,0.1099 m 0,0 0.04904,0.10793 m 0,0 0.05688,0.10204 m 0,0 0.06669,0.0981 m 0,0 0.07258,0.0922 m 0,0 0.07846,0.0863 m 0,0 0.08631,0.0805 m 0,0 0.09219,0.0726 m 0,0 0.09808,0.0648 m 0,0 0.102001,0.0589 m 0,0 0.107886,0.0491 m 0,0 0.109848,0.0412 m 0,0 0.113771,0.0314 m 0,0 0.115732,0.0235 m 0,0 0.115733,0.0137 m 0,0 0.117694,0.004 m 0,0 h 0.307966 m 0,0 0.05296,-0.002 m 0,0 0.051,-0.01 m 0,0 0.051,-0.0137 m 0,0 0.04708,-0.0177 m 0,0 0.04708,-0.0235 m 0,0 0.04316,-0.0294 m 0,0 0.04119,-0.0334 m 0,0 0.03727,-0.0353 m 0,0 0.03335,-0.0412 m 0,0 0.02746,-0.0432 m 0,0 0.01373,-0.0236 m 0,0 0.323659,-0.6358 m 0,0 0.01177,-0.0294 m 0,0 0.0059,-0.0314 m 0,0 0.0039,-0.0314 m 0,0 -0.0039,-0.0314 m 0,0 -0.0059,-0.0294 m 0,0 -0.01177,-0.0294 m 0,0 -0.01765,-0.0275 m 0,0 -0.01962,-0.0236 m 0,0 -0.02354,-0.0196 m 0,0 -0.02746,-0.0177 m 0,0 -0.02942,-0.0118 m 0,0 -0.02942,-0.006 m 0,0 -0.03139,-0.004 m 0,0 H 98.82366 m 0,0 -0.05296,-0.002 m 0,0 -0.051,-0.008 m 0,0 -0.051,-0.0137 m 0,0 -0.04904,-0.0196 m 0,0 -0.04512,-0.0236 m 0,0 -0.04512,-0.0275 m 0,0 -0.03923,-0.0334 m 0,0 -0.03727,-0.0373 m 0,0 -0.03335,-0.0412 m 0,0 -0.02746,-0.0432 m 0,0 -0.0255,-0.0471 m 0,0 -0.01765,-0.0491 m 0,0 -0.01373,-0.051 m 0,0 -0.0078,-0.051 m 0,0 -0.0039,-0.051 m 0,0 v -1.90152 m 0,0 0.0059,-0.11774 m 0,0 0.01373,-0.11578 m 0,0 0.02354,-0.11578 m 0,0 0.03139,-0.11381 m 0,0 0.04119,-0.10989 m 0,0 0.04904,-0.10793 m 0,0 0.05688,-0.10205 m 0,0 0.06473,-0.0981 m 0,0 0.07258,-0.0922 m 0,0 0.08042,-0.0863 m 0,0 0.08631,-0.0805 m 0,0 0.09219,-0.0726 m 0,0 0.09808,-0.0667 m 0,0 0.102002,-0.0569 m 0,0 0.107886,-0.0491 m 0,0 0.109848,-0.0412 m 0,0 0.111809,-0.0314 m 0,0 0.115733,-0.0236 m 0,0 0.117694,-0.0137 m 0,0 0.117694,-0.004 m 0,0 h 1.196554 m 0,0 0.0844,0.004 m 0,0 0.0824,0.0137 m 0,0 0.0804,0.0216 m 0,0 0.0785,0.0294 m 0,0 0.0745,0.0373 m 0,0 0.0687,0.0471 m 0,0 0.0667,0.051 m 0,0 0.0589,0.0608 m 0,0 0.053,0.0648 m 0,0 0.0451,0.0707 m 0,0 0.0373,0.0746 m 0,0 0.0294,0.0765 m 0,0 0.0216,0.0824 m 0,0 0.0137,0.0824 m 0,0 0.004,0.0824 m 0,0 v 0.23352 m 0,0 0.004,0.0785 m 0,0 0.01,0.0765 m 0,0 0.0137,0.0785 m 0,0 0.0216,0.0746 m 0,0 0.0275,0.0746 m 0,0 0.0333,0.0707 m 0,0 0.0235,0.0451 m 0,0 3.79171,6.58172 m 0,0 0.0255,0.0471 m 0,0 0.0177,0.0491 m 0,0 0.0137,0.051 m 0,0 0.008,0.051 m 0,0 0.004,0.053 m 0,0 v 3.1378 m 0,0 0.004,0.0942 m 0,0 0.0157,0.0922 m 0,0 0.0235,0.0922 m 0,0 0.0333,0.0863 m 0,0 0.0432,0.0844 m 0,0 0.051,0.0785 m 0,0 0.0588,0.0746 m 0,0 0.0667,0.0667 m 0,0 0.0726,0.0589 m 0,0 0.0804,0.051 m 0,0 0.0824,0.0432 m 0,0 0.0883,0.0334 m 0,0 0.0902,0.0236 m 0,0 0.0941,0.0157 m 0,0 0.0922,0.004 m 0,0 h 0.10004 m 0,0 0.053,-0.002 m 0,0 0.051,-0.008 m 0,0 0.051,-0.0137 m 0,0 0.049,-0.0196 m 0,0 0.0471,-0.0236 m 0,0 0.0431,-0.0275 m 0,0 0.0412,-0.0334 m 0,0 0.0353,-0.0373 m 0,0 0.0334,-0.0412 m 0,0 0.0294,-0.0432 m 0,0 0.0235,-0.0471 m 0,0 0.0177,-0.049 m 0,0 0.0137,-0.0491 m 0,0 0.008,-0.053 m 0,0 0.004,-0.051 m 0,0 v -3.9404 m 0,0 -0.004,-0.053 m 0,0 -0.008,-0.051 m 0,0 -0.0137,-0.051 m 0,0 -0.0177,-0.0491 m 0,0 -0.0235,-0.0471 m 0,0 -4.1389,-7.18416 m 0,0 -0.0177,-0.0353 m 0,0 -0.0137,-0.0373 m 0,0 -0.008,-0.0373 m 0,0 -0.002,-0.0392 m 0,0 0.002,-0.0393 m 0,0 0.008,-0.0392 m 0,0 0.0137,-0.0373 m 0,0 0.0177,-0.0353 m 0,0 0.0216,-0.0314 m 0,0 0.0255,-0.0294 m 0,0 0.0294,-0.0255 m 0,0 0.0314,-0.0216 m 0,0 0.0353,-0.0177 m 0,0 0.0373,-0.0137 m 0,0 0.0392,-0.008 m 0,0 0.0392,-0.002 m 0,0 0.0333,0.002 m 0,0 0.0255,0.002 m 0,0 0.17262,0.0137 m 0,0 0.17066,0.006 m 0,0 0.17261,-0.006 m 0,0 0.17262,-0.0137 m 0,0 0.17066,-0.0216 m 0,0 0.17065,-0.0314 m 0,0 0.16674,-0.0412 m 0,0 0.16477,-0.0491 m 0,0 0.16281,-0.0569 m 0,0 0.10985,-0.0432 m 0,0 0.0608,-0.0294 m 0,0 0.0687,-0.0392 m 0,0 0.0647,-0.0432 m 0,0 0.0628,-0.0491 m 0,0 0.0569,-0.053 m 0,0 0.053,-0.0589 m 0,0 0.049,-0.0608 m 0,0 0.0431,-0.0648 m 0,0 0.0392,-0.0687 m 0,0 0.0314,-0.0706 m 0,0 0.0275,-0.0746 m 0,0 0.0216,-0.0765 m 0,0 0.0157,-0.0765 m 0,0 0.01,-0.0785 m 0,0 0.002,-0.0785 m 0,0 v -0.86933 m 0,0 -0.002,-0.0392 m 0,0 -0.008,-0.0393 m 0,0 -0.0118,-0.0373 m 0,0 -0.0177,-0.0353 m 0,0 -0.0216,-0.0334 m 0,0 -0.0255,-0.0294 m 0,0 -0.0294,-0.0255 m 0,0 -0.0333,-0.0216 m 0,0 -0.27462,-0.15895 m 0,0 -0.01,-0.004 m 0,0 -0.0294,-0.0137 m 0,0 -0.0294,-0.006 m 0,0 -0.0314,-0.004 m 0,0 -0.0314,0.004 m 0,0 -0.0294,0.006 m 0,0 -0.0294,0.0137 m 0,0 -0.0275,0.0157 m 0,0 -0.0235,0.0196 m 0,0 -0.0196,0.0236 m 0,0 -0.0726,0.0922 m 0,0 -0.0804,0.0863 m 0,0 -0.0863,0.0805 m 0,0 -0.0922,0.0726 m 0,0 -0.0981,0.0667 m 0,0 -0.102,0.0569 m 0,0 -0.10593,0.0491 m 0,0 -0.1118,0.0412 m 0,0 -0.11181,0.0314 m 0,0 -0.11574,0.0236 m 0,0 -0.11769,0.0137 m 0,0 -0.11769,0.004 m 0,0 -0.11574,-0.004 m 0,0 -0.11769,-0.0137 m 0,0 -0.11573,-0.0236 m 0,0 -0.11181,-0.0314 m 0,0 -0.11181,-0.0412 m 0,0 -0.10593,-0.0491 m 0,0 -0.102,-0.0569 m 0,0 -0.0981,-0.0667 m 0,0 -0.0922,-0.0726 m 0,0 -0.0863,-0.0805 m 0,0 -0.0804,-0.0863 m 0,0 -0.0726,-0.0922 m 0,0 -0.0294,-0.0432 m 0,0 -0.0255,-0.0294 m 0,0 -0.0235,-0.0216 m 0,0 -0.0275,-0.0157 m 0,0 -0.0275,-0.0118 m 0,0 -0.0314,-0.008 m 0,0 -0.0314,-0.002 m 0,0 h -0.19027 m 0,0 -0.0314,-0.002 m 0,0 -0.0294,-0.008 m 0,0 -0.0294,-0.0118 m 0,0 -0.0255,-0.0157 m 0,0 -0.0255,-0.0216 m 0,0 -0.0196,-0.0236 m 0,0 -0.0157,-0.0275 m 0,0 -0.0118,-0.0275 m 0,0 -0.008,-0.0314 m 0,0 -0.002,-0.0314 m 0,0 v -1.10088 m 0,0 0.002,-0.0314 m 0,0 0.008,-0.0294 m 0,0 0.0118,-0.0294 m 0,0 0.0157,-0.0255 m 0,0 0.0196,-0.0255 m 0,0 0.0255,-0.0196 m 0,0 0.0255,-0.0157 m 0,0 0.0294,-0.0137 m 0,0 0.0294,-0.006 m 0,0 0.0314,-0.004 m 0,0 h 0.19027 m 0,0 0.0314,-0.002 m 0,0 0.0314,-0.006 m 0,0 0.0275,-0.0137 m 0,0 0.0275,-0.0157 m 0,0 0.0235,-0.0196 m 0,0 0.0255,-0.0294 m 0,0 0.0294,-0.0451 m 0,0 0.0726,-0.0922 m 0,0 0.0804,-0.0863 m 0,0 0.0863,-0.0805 m 0,0 0.0922,-0.0726 m 0,0 0.0981,-0.0648 m 0,0 0.102,-0.0569 m 0,0 0.10593,-0.051 m 0,0 0.11181,-0.0392 m 0,0 0.11181,-0.0334 m 0,0 0.11573,-0.0216 m 0,0 0.11769,-0.0137 m 0,0 0.11574,-0.006 m 0,0 0.11769,0.006 m 0,0 0.11769,0.0137 m 0,0 0.11574,0.0216 m 0,0 0.11181,0.0334 m 0,0 0.1118,0.0392 m 0,0 0.10593,0.051 m 0,0 0.102,0.0569 m 0,0 0.0981,0.0648 m 0,0 0.0922,0.0726 m 0,0 0.0863,0.0805 m 0,0 0.0804,0.0863 m 0,0 0.0726,0.0922 m 0,0 0.0196,0.0236 m 0,0 0.0235,0.0216 m 0,0 0.0275,0.0157 m 0,0 0.0294,0.0118 m 0,0 0.0294,0.008 m 0,0 0.0314,0.002 m 0,0 0.0314,-0.002 m 0,0 0.0294,-0.008 m 0,0 0.0294,-0.0118 m 0,0 0.01,-0.006 m 0,0 0.27462,-0.15895 m 0,0 0.0333,-0.0216 m 0,0 0.0294,-0.0255 m 0,0 0.0255,-0.0294 m 0,0 0.0216,-0.0334 m 0,0 0.0177,-0.0353 m 0,0 0.0118,-0.0353 m 0,0 0.008,-0.0392 m 0,0 0.002,-0.0393 m 0,0 v -1.25394 m 0,0 0.004,-0.053 m 0,0 0.008,-0.051 m 0,0 0.0137,-0.051 m 0,0 0.0177,-0.0491 m 0,0 0.0235,-0.0471 m 0,0 0.0294,-0.0432 m 0,0 0.0333,-0.0412 m 0,0 0.0353,-0.0373 m 0,0 0.0412,-0.0334 m 0,0 0.0431,-0.0275 m 0,0 0.0471,-0.0236 m 0,0 0.049,-0.0196 m 0,0 0.051,-0.0137 m 0,0 0.051,-0.008 m 0,0 0.053,-0.002 m 0,0 h 15.669 m 0,0 0.053,0.002 m 0,0 0.051,0.008 m 0,0 0.051,0.0137 m 0,0 0.049,0.0196 m 0,0 0.0451,0.0236 m 0,0 0.0451,0.0275 m 0,0 0.0392,0.0334 m 0,0 0.0373,0.0373 m 0,0 0.0333,0.0412 m 0,0 0.0275,0.0432 m 0,0 0.0235,0.0471 m 0,0 0.0196,0.0491 m 0,0 0.0137,0.051 m 0,0 0.008,0.051 m 0,0 0.002,0.053 m 0,0 v 1.25394 m 0,0 0.004,0.0393 m 0,0 0.008,0.0392 m 0,0 0.0118,0.0353 m 0,0 0.0177,0.0353 m 0,0 0.0216,0.0334 m 0,0 0.0255,0.0294 m 0,0 0.0294,0.0255 m 0,0 0.0333,0.0216 m 0,0 0.27462,0.15895 m 0,0 0.008,0.006 m 0,0 0.0294,0.0118 m 0,0 0.0314,0.008 m 0,0 0.0314,0.002 m 0,0 0.0314,-0.002 m 0,0 0.0294,-0.008 m 0,0 0.0294,-0.0118 m 0,0 0.0255,-0.0157 m 0,0 0.0255,-0.0216 m 0,0 0.0196,-0.0236 m 0,0 0.0726,-0.0922 m 0,0 0.0804,-0.0863 m 0,0 0.0863,-0.0805 m 0,0 0.0922,-0.0726 m 0,0 0.0961,-0.0648 m 0,0 0.10397,-0.0569 m 0,0 0.10592,-0.051 m 0,0 0.10985,-0.0392 m 0,0 0.11377,-0.0334 m 0,0 0.11573,-0.0216 m 0,0 0.11573,-0.0137 m 0,0 0.1177,-0.006 m 0,0 0.11769,0.006 m 0,0 0.1177,0.0137 m 0,0 0.11377,0.0216 m 0,0 0.11377,0.0334 m 0,0 0.10985,0.0392 m 0,0 0.10788,0.051 m 0,0 0.102,0.0569 m 0,0 0.0981,0.0648 m 0,0 0.0922,0.0726 m 0,0 0.0863,0.0805 m 0,0 0.0804,0.0863 m 0,0 0.0726,0.0922 m 0,0 0.0294,0.0451 m 0,0 0.0255,0.0294 m 0,0 0.0235,0.0196 m 0,0 0.0255,0.0157 m 0,0 0.0294,0.0137 m 0,0 0.0314,0.006 m 0,0 0.0314,0.002 m 0,0 h 0.18831 m 0,0 0.0314,0.004 m 0,0 0.0314,0.006 m 0,0 0.0275,0.0137 m 0,0 0.0275,0.0157 m 0,0 0.0235,0.0196 m 0,0 0.0216,0.0255 m 0,0 0.0157,0.0255 m 0,0 0.0118,0.0294 m 0,0 0.008,0.0294 m 0,0 0.002,0.0314 m 0,0 v 1.10088 m 0,0 -0.002,0.0314 m 0,0 -0.008,0.0314 m 0,0 -0.0118,0.0275 m 0,0 -0.0157,0.0275 m 0,0 -0.0216,0.0236 m 0,0 -0.0235,0.0216 m 0,0 -0.0275,0.0157 m 0,0 -0.0275,0.0118 m 0,0 -0.0314,0.008 m 0,0 -0.0314,0.002 m 0,0 h -0.18831 m 0,0 -0.0314,0.002 m 0,0 -0.0314,0.008 m 0,0 -0.0294,0.0118 m 0,0 -0.0255,0.0157 m 0,0 -0.0235,0.0216 m 0,0 -0.0255,0.0294 m 0,0 -0.0294,0.0432 m 0,0 -0.0726,0.0922 m 0,0 -0.0804,0.0863 m 0,0 -0.0863,0.0805 m 0,0 -0.0922,0.0726 m 0,0 -0.0981,0.0667 m 0,0 -0.102,0.0569 m 0,0 -0.10788,0.0491 m 0,0 -0.10985,0.0412 m 0,0 -0.11377,0.0314 m 0,0 -0.11377,0.0236 m 0,0 -0.1177,0.0137 m 0,0 -0.11769,0.004 m 0,0 -0.1177,-0.004 m 0,0 -0.11573,-0.0137 m 0,0 -0.11573,-0.0236 m 0,0 -0.11377,-0.0314 m 0,0 -0.10985,-0.0412 m 0,0 -0.10592,-0.0491 m 0,0 -0.10397,-0.0569 m 0,0 -0.0961,-0.0667 m 0,0 -0.0922,-0.0726 m 0,0 -0.0863,-0.0805 m 0,0 -0.0804,-0.0863 m 0,0 -0.0726,-0.0922 m 0,0 -0.0196,-0.0236 m 0,0 -0.0255,-0.0196 m 0,0 -0.0255,-0.0157 m 0,0 -0.0294,-0.0137 m 0,0 -0.0294,-0.006 m 0,0 -0.0314,-0.004 m 0,0 -0.0314,0.004 m 0,0 -0.0314,0.006 m 0,0 -0.0294,0.0137 m 0,0 -0.008,0.004 m 0,0 -0.27462,0.15895 m 0,0 -0.0333,0.0216 m 0,0 -0.0294,0.0255 m 0,0 -0.0255,0.0294 m 0,0 -0.0216,0.0334 m 0,0 -0.0177,0.0353 m 0,0 -0.0118,0.0373 m 0,0 -0.008,0.0393 m 0,0 -0.004,0.0392 m 0,0 v 0.86933 m 0,0 0.004,0.0785 m 0,0 0.01,0.0785 m 0,0 0.0137,0.0765 m 0,0 0.0216,0.0765 m 0,0 0.0275,0.0746 m 0,0 0.0334,0.0706 m 0,0 0.0373,0.0687 m 0,0 0.0451,0.0648 m 0,0 0.0471,0.0608 m 0,0 0.053,0.0589 m 0,0 0.0589,0.053 m 0,0 0.0608,0.0491 m 0,0 0.0647,0.0432 m 0,0 0.0687,0.0392 m 0,0 0.0628,0.0294 m 0,0 0.10789,0.0432 m 0,0 0.1628,0.0569 m 0,0 0.16674,0.0491 m 0,0 0.16673,0.0412 m 0,0 0.17066,0.0314 m 0,0 0.17065,0.0216 m 0,0 0.17066,0.0137 m 0,0 0.17262,0.006 m 0,0 0.17262,-0.006 m 0,0 0.17261,-0.0137 m 0,0 0.0255,-0.002 m 0,0 0.0333,-0.002 m 0,0 0.0392,0.002 m 0,0 0.0373,0.008 m 0,0 0.0373,0.0137 m 0,0 0.0353,0.0177 m 0,0 0.0333,0.0216 m 0,0 0.0294,0.0255 m 0,0 0.0255,0.0294 m 0,0 0.0216,0.0314 m 0,0 0.0177,0.0353 m 0,0 0.0118,0.0373 m 0,0 0.008,0.0392 m 0,0 0.004,0.0393 m 0,0 -0.004,0.0392 m 0,0 -0.008,0.0373 m 0,0 -0.0118,0.0373 m 0,0 -0.0177,0.0353 m 0,0 -4.13891,7.18416 m 0,0 -0.0235,0.0471 m 0,0 -0.0196,0.0491 m 0,0 -0.0137,0.051 m 0,0 -0.008,0.051 m 0,0 -0.002,0.053 m 0,0 v 3.9404 m 0,0 0.002,0.051 m 0,0 0.008,0.053 m 0,0 0.0137,0.0491 m 0,0 0.0196,0.049 m 0,0 0.0235,0.0471 m 0,0 0.0275,0.0432 m 0,0 0.0333,0.0412 m 0,0 0.0373,0.0373 m 0,0 0.0412,0.0334 m 0,0 0.0432,0.0275 m 0,0 0.0471,0.0236 m 0,0 0.049,0.0196 m 0,0 0.049,0.0137 m 0,0 0.053,0.008 m 0,0 0.051,0.002 m 0,0 h 0.10003 m 0,0 0.0942,-0.004 m 0,0 0.0922,-0.0157 m 0,0 0.0922,-0.0236 m 0,0 0.0863,-0.0334 m 0,0 0.0843,-0.0432 m 0,0 0.0785,-0.051 m 0,0 0.0745,-0.0589 m 0,0 0.0647,-0.0667 m 0,0 0.0608,-0.0746 m 0,0 0.051,-0.0785 m 0,0 0.0431,-0.0844 m 0,0 0.0333,-0.0863 m 0,0 0.0235,-0.0922 m 0,0 0.0157,-0.0922 m 0,0 0.004,-0.0942 m 0,0 v -3.1378 m 0,0 0.004,-0.053 m 0,0 0.008,-0.051 m 0,0 0.0137,-0.051 m 0,0 0.0177,-0.0491 m 0,0 0.0235,-0.0471 m 0,0 3.79171,-6.58172 m 0,0 0.0255,-0.0451 m 0,0 0.0333,-0.0707 m 0,0 0.0255,-0.0746 m 0,0 0.0216,-0.0746 m 0,0 0.0157,-0.0785 m 0,0 0.01,-0.0765 m 0,0 0.002,-0.0785 m 0,0 v -0.23352 m 0,0 0.006,-0.0824 m 0,0 0.0118,-0.0824 m 0,0 0.0216,-0.0824 m 0,0 0.0314,-0.0765 m 0,0 0.0373,-0.0746 m 0,0 0.0451,-0.0707 m 0,0 0.053,-0.0648 m 0,0 0.0588,-0.0608 m 0,0 0.0647,-0.051 m 0,0 0.0706,-0.0471 m 0,0 0.0745,-0.0373 m 0,0 0.0785,-0.0294 m 0,0 0.0804,-0.0216 m 0,0 0.0824,-0.0137 m 0,0 0.0824,-0.004 m 0,0 h 1.19852 m 0,0 0.11769,0.004 m 0,0 0.11574,0.0137 m 0,0 0.11573,0.0236 m 0,0 0.11377,0.0314 m 0,0 0.10985,0.0412 m 0,0 0.10592,0.0491 m 0,0 0.10396,0.0569 m 0,0 0.0981,0.0667 m 0,0 0.0922,0.0726 m 0,0 0.0863,0.0805 m 0,0 0.0785,0.0863 m 0,0 0.0726,0.0922 m 0,0 0.0667,0.0981 m 0,0 0.0569,0.10205 m 0,0 0.049,0.10793 m 0,0 0.0412,0.10989 m 0,0 0.0314,0.11381 m 0,0 0.0235,0.11578 m 0,0 0.0137,0.11578 m 0,0 0.004,0.11774 m 0,0 v 1.90152 m 0,0 -0.002,0.051 m 0,0 -0.008,0.051 m 0,0 -0.0137,0.051 m 0,0 -0.0196,0.0491 m 0,0 -0.0235,0.0471 m 0,0 -0.0275,0.0432 m 0,0 -0.0333,0.0412 m 0,0 -0.0373,0.0373 m 0,0 -0.0412,0.0334 m 0,0 -0.0432,0.0275 m 0,0 -0.0471,0.0236 m 0,0 -0.049,0.0196 m 0,0 -0.049,0.0137 m 0,0 -0.053,0.008 m 0,0 -0.051,0.002 m 0,0 h -0.79836 m 0,0 -0.0314,0.004 m 0,0 -0.0314,0.006 m 0,0 -0.0275,0.0118 m 0,0 -0.0275,0.0177 m 0,0 -0.0235,0.0196 m 0,0 -0.0216,0.0236 m 0,0 -0.0157,0.0275 m 0,0 -0.0118,0.0294 m 0,0 -0.008,0.0294 m 0,0 -0.002,0.0314 m 0,0 0.002,0.0314 m 0,0 0.008,0.0314 m 0,0 0.0118,0.0294 m 0,0 0.32366,0.6358 m 0,0 0.0118,0.0236 m 0,0 0.0294,0.0432 m 0,0 0.0333,0.0412 m 0,0 0.0353,0.0353 m 0,0 0.0412,0.0334 m 0,0 0.0451,0.0294 m 0,0 0.0451,0.0235 m 0,0 0.049,0.0177 m 0,0 0.051,0.0137 m 0,0 0.051,0.01 m 0,0 0.053,0.002 m 0,0 h 0.30797 m 0,0 0.11769,-0.004 m 0,0 0.11573,-0.0137 m 0,0 0.11574,-0.0235 m 0,0 0.11377,-0.0314 m 0,0 0.10984,-0.0412 m 0,0 0.10593,-0.0491 m 0,0 0.102,-0.0589 m 0,0 0.0981,-0.0648 m 0,0 0.0922,-0.0726 m 0,0 0.0863,-0.0805 m 0,0 0.0804,-0.0863 m 0,0 0.0726,-0.0922 m 0,0 0.0647,-0.0981 m 0,0 0.0588,-0.10204 m 0,0 0.049,-0.10793 m 0,0 0.0412,-0.1099 m 0,0 0.0314,-0.11381 m 0,0 0.0235,-0.11578 m 0,0 0.0137,-0.11774 m 0,0 0.004,-0.11774 m 0,0 v -3.39879 m 0,0 -0.004,-0.11774 m 0,0 -0.0137,-0.11775 m 0,0 -0.0235,-0.11577 m 0,0 -0.0314,-0.11382 m 0,0 -0.0412,-0.10989 m 0,0 -0.049,-0.10597 m 0,0 -0.0588,-0.104 m 0,0 -0.0647,-0.0981 m 0,0 -0.0726,-0.0922 m 0,0 -0.0804,-0.0863 m 0,0 -0.0863,-0.0805 m 0,0 -0.0922,-0.0726 m 0,0 -0.0981,-0.0648 m 0,0 -0.102,-0.0589 m 0,0 -0.10593,-0.0491 m 0,0 -0.10984,-0.0392 m 0,0 -0.11377,-0.0334 m 0,0 -0.11574,-0.0216 m 0,0 -0.11573,-0.0157 m 0,0 -0.11769,-0.004 m 0,0 h -0.10004 m 0,0 -0.1177,-0.004 m 0,0 -0.11769,-0.0137 m 0,0 -0.11377,-0.0236 m 0,0 -0.11377,-0.0314 m 0,0 -0.10985,-0.0412 m 0,0 -0.10789,-0.0491 m 0,0 -0.102,-0.0589 m 0,0 -0.0981,-0.0648 m 0,0 -0.0922,-0.0726 m 0,0 -0.0863,-0.0805 m 0,0 -0.0804,-0.0863 m 0,0 -0.0726,-0.0922 m 0,0 -0.0647,-0.0981 m 0,0 -0.0569,-0.10204 m 0,0 -0.049,-0.10793 m 0,0 -0.0412,-0.10989 m 0,0 -0.0314,-0.11382 m 0,0 -0.0235,-0.11578 m 0,0 -0.0137,-0.11578 m 0,0 -0.004,-0.11774 m 0,0 v -1.70136 m 0,0 0.004,-0.11774 m 0,0 0.0137,-0.11578 m 0,0 0.0235,-0.11577 m 0,0 0.0314,-0.11382 m 0,0 0.0412,-0.10989 m 0,0 0.049,-0.10793 m 0,0 0.0569,-0.10204 m 0,0 0.0647,-0.0981 m 0,0 0.0726,-0.0922 m 0,0 0.0804,-0.0864 m 0,0 0.0863,-0.0804 m 0,0 0.0922,-0.0726 m 0,0 0.0981,-0.0667 m 0,0 0.102,-0.0569 m 0,0 0.10789,-0.0491 m 0,0 0.10985,-0.0412 m 0,0 0.11377,-0.0314 m 0,0 0.11377,-0.0236 m 0,0 0.11769,-0.0137 m 0,0 0.1177,-0.004 m 0,0 h 3.09339 m 0,0 0.11769,0.004 m 0,0 0.1177,0.0137 m 0,0 0.11377,0.0236 m 0,0 0.11377,0.0314 m 0,0 0.10985,0.0412 m 0,0 0.10788,0.0491 m 0,0 0.102,0.0569 m 0,0 0.0981,0.0667 m 0,0 0.0922,0.0726 m 0,0 0.0863,0.0804 m 0,0 0.0785,0.0864 m 0,0 0.0745,0.0922 m 0,0 0.0647,0.0981 m 0,0 0.0569,0.10204 m 0,0 0.049,0.10793 m 0,0 0.0412,0.10989 m 0,0 0.0314,0.11382 m 0,0 0.0235,0.11577 m 0,0 0.0137,0.11578 m 0,0 0.004,0.11774 m 0,0 v 0.0549 m 0,0 0.004,0.0393 m 0,0 0.008,0.0392 m 0,0 0.0118,0.0353 m 0,0 0.0177,0.0353 m 0,0 0.0216,0.0334 m 0,0 0.0255,0.0294 m 0,0 0.0294,0.0255 m 0,0 0.0333,0.0216 m 0,0 0.27463,0.15895 m 0,0 0.008,0.006 m 0,0 0.0294,0.0118 m 0,0 0.0314,0.008 m 0,0 0.0314,0.002 m 0,0 0.0314,-0.002 m 0,0 0.0294,-0.008 m 0,0 0.0294,-0.0118 m 0,0 0.0255,-0.0157 m 0,0 0.0255,-0.0216 m 0,0 0.0196,-0.0236 m 0,0 0.0726,-0.0922 m 0,0 0.0785,-0.0863 m 0,0 0.0863,-0.0805 m 0,0 0.0922,-0.0726 m 0,0 0.0981,-0.0648 m 0,0 0.10396,-0.0569 m 0,0 0.10592,-0.051 m 0,0 0.10985,-0.0392 m 0,0 0.11377,-0.0334 m 0,0 0.11573,-0.0216 m 0,0 0.11574,-0.0137 m 0,0 0.11769,-0.006 m 0,0 0.11769,0.006 m 0,0 0.1177,0.0137 m 0,0 0.11377,0.0216 m 0,0 0.11377,0.0334 m 0,0 0.10985,0.0392 m 0,0 0.10788,0.051 m 0,0 0.10201,0.0569 m 0,0 0.0981,0.0648 m 0,0 0.0922,0.0726 m 0,0 0.0863,0.0805 m 0,0 0.0785,0.0863 m 0,0 0.0745,0.0922 m 0,0 0.0294,0.0451 m 0,0 0.0235,0.0294 m 0,0 0.0255,0.0196 m 0,0 0.0255,0.0157 m 0,0 0.0294,0.0137 m 0,0 0.0314,0.006 m 0,0 0.0294,0.002 m 0,0 h 0.19027 m 0,0 0.0314,0.004 m 0,0 0.0314,0.006 m 0,0 0.0275,0.0137 m 0,0 0.0275,0.0157 m 0,0 0.0235,0.0196 m 0,0 0.0216,0.0255 m 0,0 0.0157,0.0255 m 0,0 0.0118,0.0294 m 0,0 0.008,0.0294 m 0,0 0.002,0.0314 m 0,0 v 1.10088 m 0,0 -0.002,0.0314 m 0,0 -0.008,0.0314 m 0,0 -0.0118,0.0275 m 0,0 -0.0157,0.0275 m 0,0 -0.0216,0.0236 m 0,0 -0.0235,0.0216 m 0,0 -0.0275,0.0157 m 0,0 -0.0275,0.0118 m 0,0 -0.0314,0.008 m 0,0 -0.0314,0.002 m 0,0 h -0.19027 m 0,0 -0.0294,0.002 m 0,0 -0.0314,0.008 m 0,0 -0.0294,0.0118 m 0,0 -0.0255,0.0157 m 0,0 -0.0255,0.0216 m 0,0 -0.0235,0.0294 m 0,0 -0.0294,0.0432 m 0,0 -0.0745,0.0922 m 0,0 -0.0785,0.0863 m 0,0 -0.0863,0.0805 m 0,0 -0.0922,0.0726 m 0,0 -0.0981,0.0667 m 0,0 -0.10201,0.0569 m 0,0 -0.10788,0.0491 m 0,0 -0.10985,0.0412 m 0,0 -0.11377,0.0314 m 0,0 -0.11377,0.0236 m 0,0 -0.1177,0.0137 m 0,0 -0.11769,0.004 m 0,0 -0.11769,-0.004 m 0,0 -0.11574,-0.0137 m 0,0 -0.11573,-0.0236 m 0,0 -0.11377,-0.0314 m 0,0 -0.10985,-0.0412 m 0,0 -0.10592,-0.0491 m 0,0 -0.10396,-0.0569 m 0,0 -0.0981,-0.0667 m 0,0 -0.0922,-0.0726 m 0,0 -0.0863,-0.0805 m 0,0 -0.0785,-0.0863 m 0,0 -0.0726,-0.0922 m 0,0 -0.0196,-0.0236 m 0,0 -0.0255,-0.0196 m 0,0 -0.0255,-0.0157 m 0,0 -0.0294,-0.0137 m 0,0 -0.0294,-0.006 m 0,0 -0.0314,-0.004 m 0,0 -0.0314,0.004 m 0,0 -0.0314,0.006 m 0,0 -0.0294,0.0137 m 0,0 -0.008,0.004 m 0,0 -0.27463,0.15895 m 0,0 -0.0333,0.0216 m 0,0 -0.0294,0.0255 m 0,0 -0.0255,0.0294 m 0,0 -0.0216,0.0334 m 0,0 -0.0177,0.0353 m 0,0 -0.0118,0.0373 m 0,0 -0.008,0.0393 m 0,0 -0.004,0.0392 m 0,0 v 0.15307 m 0,0 0.004,0.10597 m 0,0 0.008,0.104 m 0,0 0.0137,0.104 m 0,0 0.0196,0.10205 m 0,0 0.0235,0.10204 m 0,0 0.0294,0.10008 m 0,0 0.0353,0.10008 m 0,0 0.0392,0.0961 m 0,0 0.0451,0.0942 m 0,0 0.051,0.0922 m 0,0 0.0549,0.0883 m 0,0 0.0588,0.0864 m 0,0 0.0628,0.0844 m 0,0 0.0687,0.0785 m 0,0 0.0706,0.0765 m 0,0 0.0765,0.0726 m 0,0 0.0804,0.0667 m 0,0 0.0824,0.0648 m 0,0 0.0863,0.0589 m 0,0 0.0883,0.0549 m 0,0 0.0922,0.0491 m 0,0 0.0941,0.0451 m 0,0 0.0961,0.0412 m 0,0 0.10004,0.0353 m 0,0 0.10004,0.0294 m 0,0 0.10004,0.0236 m 0,0 0.10396,0.0196 m 0,0 0.10397,0.0137 m 0,0 0.10396,0.008 m 0,0 0.10396,0.004 m 0,0 h 2.99335 m 0,0 0.0785,-0.004 m 0,0 0.0785,-0.01 m 0,0 0.0765,-0.0137 m 0,0 0.0765,-0.0216 m 0,0 0.0726,-0.0275 m 0,0 0.0706,-0.0334 m 0,0 0.0687,-0.0392 m 0,0 0.0667,-0.0432 m 0,0 0.0608,-0.0491 m 0,0 0.0569,-0.053 m 0,0 0.053,-0.0569 m 0,0 0.049,-0.0608 m 0,0 0.0431,-0.0667 m 0,0 0.0392,-0.0687 m 0,0 0.0333,-0.0706 m 0,0 0.0255,-0.0746 m 0,0 0.0216,-0.0746 m 0,0 0.0157,-0.0765 m 0,0 0.01,-0.0785 m 0,0 0.002,-0.0785 m 0,0 v -0.20016 m 0,0 -0.002,-0.0393 m 0,0 -0.008,-0.0393 m 0,0 -0.0118,-0.0373 m 0,0 -0.0177,-0.0334 m 0,0 -0.0216,-0.0334 m 0,0 -0.0255,-0.0294 m 0,0 -0.0294,-0.0255 m 0,0 -0.0333,-0.0216 m 0,0 -0.0353,-0.0177 m 0,0 -0.0373,-0.0137 m 0,0 -0.0373,-0.008 m 0,0 -0.0392,-0.002 m 0,0 h -0.5002 m 0,0 -0.0392,-0.002 m 0,0 -0.0373,-0.008 m 0,0 -0.0373,-0.0137 m 0,0 -0.0353,-0.0157 m 0,0 -0.0334,-0.0216 m 0,0 -0.0294,-0.0275 m 0,0 -0.0255,-0.0294 m 0,0 -0.0216,-0.0314 m 0,0 -0.0177,-0.0353 m 0,0 -0.0118,-0.0373 m 0,0 -0.008,-0.0392 m 0,0 -0.002,-0.0392 m 0,0 v -2.1998 m 0,0 h 0.49823 m 0,0 0.053,-0.002 m 0,0 0.051,-0.01 m 0,0 0.051,-0.0137 m 0,0 0.0471,-0.0177 m 0,0 0.0471,-0.0236 m 0,0 0.0432,-0.0294 m 0,0 0.0412,-0.0334 m 0,0 0.0373,-0.0353 m 0,0 0.0333,-0.0412 m 0,0 0.0275,-0.0432 m 0,0 0.0235,-0.0471 m 0,0 0.0196,-0.0491 m 0,0 0.0137,-0.051 m 0,0 0.008,-0.051 m 0,0 0.002,-0.053 m 0,0 v -0.30024 m 0,0 -0.002,-0.0314 m 0,0 -0.008,-0.0294 m 0,0 -0.0118,-0.0294 m 0,0 -0.0157,-0.0275 m 0,0 -0.0196,-0.0236 m 0,0 -0.0255,-0.0196 m 0,0 -0.0255,-0.0177 m 0,0 -0.0294,-0.0118 m 0,0 -0.0294,-0.006 m 0,0 -0.0314,-0.004 m 0,0 h -0.79835 m 0,0 v -1.19899 m 0,0 h 5.18834 m 0,0 v 1.19899 m 0,0 h -0.79836 m 0,0 -0.0314,0.004 m 0,0 -0.0294,0.006 m 0,0 -0.0294,0.0118 m 0,0 -0.0255,0.0177 m 0,0 -0.0255,0.0196 m 0,0 -0.0196,0.0236 m 0,0 -0.0157,0.0275 m 0,0 -0.0118,0.0294 m 0,0 -0.008,0.0294 m 0,0 -0.002,0.0314 m 0,0 v 0.30024 m 0,0 0.002,0.053 m 0,0 0.008,0.051 m 0,0 0.0137,0.051 m 0,0 0.0196,0.0491 m 0,0 0.0235,0.0471 m 0,0 0.0275,0.0432 m 0,0 0.0334,0.0412 m 0,0 0.0373,0.0353 m 0,0 0.0392,0.0334 m 0,0 0.0451,0.0294 m 0,0 0.0471,0.0236 m 0,0 0.0471,0.0177 m 0,0 0.051,0.0137 m 0,0 0.051,0.01 m 0,0 0.053,0.002 m 0,0 h 0.49824 m 0,0 v 2.1998 m 0,0 -0.002,0.0392 m 0,0 -0.008,0.0392 m 0,0 -0.0118,0.0373 m 0,0 -0.0177,0.0353 m 0,0 -0.0216,0.0314 m 0,0 -0.0255,0.0294 m 0,0 -0.0294,0.0275 m 0,0 -0.0334,0.0216 m 0,0 -0.0353,0.0157 m 0,0 -0.0373,0.0137 m 0,0 -0.0373,0.008 m 0,0 -0.0392,0.002 m 0,0 h -0.5002 m 0,0 -0.0392,0.002 m 0,0 -0.0373,0.008 m 0,0 -0.0373,0.0137 m 0,0 -0.0353,0.0177 m 0,0 -0.0333,0.0216 m 0,0 -0.0294,0.0255 m 0,0 -0.0255,0.0294 m 0,0 -0.0216,0.0334 m 0,0 -0.0177,0.0334 m 0,0 -0.0118,0.0373 m 0,0 -0.008,0.0393 m 0,0 -0.002,0.0393 m 0,0 v 0.20016 m 0,0 0.002,0.0785 m 0,0 0.01,0.0785 m 0,0 0.0157,0.0765 m 0,0 0.0216,0.0746 m 0,0 0.0255,0.0746 m 0,0 0.0333,0.0706 m 0,0 0.0392,0.0687 m 0,0 0.0432,0.0667 m 0,0 0.049,0.0608 m 0,0 0.053,0.0569 m 0,0 0.0569,0.053 m 0,0 0.0608,0.0491 m 0,0 0.0667,0.0432 m 0,0 0.0687,0.0392 m 0,0 0.0706,0.0334 m 0,0 0.0726,0.0275 m 0,0 0.0765,0.0216 m 0,0 0.0765,0.0137 m 0,0 0.0785,0.01 m 0,0 0.0785,0.004 m 0,0 h 1.19656 m 0,0 0.053,-0.004 m 0,0 0.051,-0.008 m 0,0 0.051,-0.0137 m 0,0 0.049,-0.0177 m 0,0 0.0451,-0.0255 m 0,0 0.0451,-0.0275 m 0,0 0.0392,-0.0334 m 0,0 0.0373,-0.0373 m 0,0 0.0333,-0.0393 m 0,0 0.0275,-0.0451 m 0,0 0.0255,-0.0471 m 0,0 0.0177,-0.0471 m 0,0 0.0137,-0.051 m 0,0 0.008,-0.053 m 0,0 0.002,-0.051 m 0,0 v -6.80151 m 0,0 -0.002,-0.053 m 0,0 -0.008,-0.051 m 0,0 -0.0137,-0.051 m 0,0 -0.0177,-0.0491 m 0,0 -0.0255,-0.0451 m 0,0 -0.0275,-0.0451 m 0,0 -0.0333,-0.0393 m 0,0 -0.0373,-0.0373 m 0,0 -0.0392,-0.0333 m 0,0 -0.0451,-0.0294 m 0,0 -0.0451,-0.0236 m 0,0 -0.049,-0.0177 m 0,0 -0.051,-0.0137 m 0,0 -0.051,-0.008 m 0,0 -0.053,-0.004"
       id="path1" />
  </g>
</svg>
