<?xml version="1.0" encoding="UTF-8" standalone="no"?>
<!-- Created with Inkscape (http://www.inkscape.org/) -->

<svg
   width="105.42944mm"
   height="20.433086mm"
   viewBox="0 0 105.42944 20.433086"
   version="1.1"
   id="svg1"
   inkscape:export-filename="GT Sprosse FB 105mm.svg"
   inkscape:export-xdpi="96"
   inkscape:export-ydpi="96"
   xmlns:inkscape="http://www.inkscape.org/namespaces/inkscape"
   xmlns:sodipodi="http://sodipodi.sourceforge.net/DTD/sodipodi-0.dtd"
   xmlns="http://www.w3.org/2000/svg"
   xmlns:svg="http://www.w3.org/2000/svg">
  <sodipodi:namedview
     id="namedview1"
     pagecolor="#ffffff"
     bordercolor="#999999"
     borderopacity="1"
     inkscape:showpageshadow="2"
     inkscape:pageopacity="0"
     inkscape:pagecheckerboard="0"
     inkscape:deskcolor="#d1d1d1"
     inkscape:document-units="mm">
    <inkscape:page
       x="0"
       y="0"
       width="105.42944"
       height="20.433086"
       id="page2"
       margin="0"
       bleed="0" />
  </sodipodi:namedview>
  <defs
     id="defs1" />
  <g
     inkscape:label="Ebene 1"
     inkscape:groupmode="layer"
     id="layer1"
     transform="translate(-70.82165,-125.29587)">
    <path
       style="fill:none;stroke:#000000;stroke-width:0.458245px;stroke-linecap:round;stroke-linejoin:round;stroke-miterlimit:4;stroke-dasharray:none;stroke-opacity:1"
       d="M 175.52408,125.52499 H 71.548843 m 0,0 -0.06309,0.007 m 0,0 -0.06641,0.0133 m 0,0 -0.05977,0.02 m 0,0 -0.05977,0.0299 m 0,0 -0.05313,0.0333 m 0,0 -0.04981,0.0433 m 0,0 -0.04317,0.0499 m 0,0 -0.03653,0.0532 m 0,0 -0.02989,0.0599 m 0,0 -0.01992,0.0632 m 0,0 -0.01328,0.0632 m 0,0 -0.0033,0.0632 m 0,0 v 6.79513 m 0,0 0.0033,0.0632 m 0,0 0.01328,0.0632 m 0,0 0.01992,0.0632 m 0,0 0.02989,0.0599 m 0,0 0.03653,0.0532 m 0,0 0.04317,0.0499 m 0,0 0.04981,0.0433 m 0,0 0.05313,0.0333 m 0,0 0.05977,0.03 m 0,0 0.05977,0.02 m 0,0 0.06641,0.0133 m 0,0 0.06309,0.007 m 0,0 h 1.198744 m 0,0 0.10626,-0.007 m 0,0 0.102939,-0.0166 m 0,0 0.09962,-0.0266 m 0,0 0.09962,-0.0366 m 0,0 0.09298,-0.0499 m 0,0 0.08634,-0.0566 m 0,0 0.08302,-0.0632 m 0,0 0.07305,-0.0765 m 0,0 0.06641,-0.0799 m 0,0 0.05645,-0.0865 m 0,0 0.04981,-0.0932 m 0,0 0.03653,-0.0998 m 0,0 0.02657,-0.0998 m 0,0 0.0166,-0.10315 m 0,0 0.0066,-0.10649 m 0,0 v -0.19966 m 0,0 -0.0066,-0.0466 m 0,0 -0.01,-0.0433 m 0,0 -0.0166,-0.0433 m 0,0 -0.02657,-0.0433 m 0,0 -0.02989,-0.0333 m 0,0 -0.03653,-0.0299 m 0,0 -0.03985,-0.0266 m 0,0 -0.04317,-0.0166 m 0,0 -0.04649,-0.0133 m 0,0 -0.04649,-0.003 m 0,0 h -0.498092 m 0,0 -0.04649,-0.003 m 0,0 -0.04649,-0.01 m 0,0 -0.04317,-0.0166 m 0,0 -0.03985,-0.0266 m 0,0 -0.03653,-0.0299 m 0,0 -0.02989,-0.0366 m 0,0 -0.02657,-0.0399 m 0,0 -0.0166,-0.0433 m 0,0 -0.01328,-0.0466 m 0,0 -0.0033,-0.0466 m 0,0 v -2.19628 m 0,0 h 0.501414 m 0,0 0.06641,-0.003 m 0,0 0.06309,-0.0133 m 0,0 0.05977,-0.02 m 0,0 0.05977,-0.03 m 0,0 0.05645,-0.0366 m 0,0 0.04649,-0.0433 m 0,0 0.04317,-0.0499 m 0,0 0.03653,-0.0532 m 0,0 0.02989,-0.0599 m 0,0 0.01992,-0.0599 m 0,0 0.01328,-0.0632 m 0,0 0.0033,-0.0666 m 0,0 v -0.29949 m 0,0 -0.0066,-0.0532 m 0,0 -0.01992,-0.0466 m 0,0 -0.02989,-0.0433 m 0,0 -0.04317,-0.0299 m 0,0 -0.04649,-0.02 m 0,0 -0.05313,-0.007 m 0,0 h -0.800269 m 0,0 v -1.19797 m 0,0 h 5.20009 m 0,0 v 1.19797 m 0,0 H 77.04777 m 0,0 -0.05313,0.007 m 0,0 -0.04649,0.02 m 0,0 -0.04317,0.0299 m 0,0 -0.02988,0.0433 m 0,0 -0.01992,0.0466 m 0,0 -0.0066,0.0532 m 0,0 v 0.29949 m 0,0 0.0033,0.0666 m 0,0 0.01328,0.0632 m 0,0 0.01992,0.0599 m 0,0 0.02989,0.0599 m 0,0 0.03653,0.0532 m 0,0 0.04317,0.0499 m 0,0 0.04981,0.0433 m 0,0 0.05313,0.0366 m 0,0 0.05977,0.03 m 0,0 0.05977,0.02 m 0,0 0.06641,0.0133 m 0,0 0.06309,0.003 m 0,0 h 0.501413 m 0,0 v 2.19628 m 0,0 -0.0033,0.0466 m 0,0 -0.01,0.0466 m 0,0 -0.01992,0.0433 m 0,0 -0.02324,0.0399 m 0,0 -0.03321,0.0366 m 0,0 -0.03321,0.0299 m 0,0 -0.03985,0.0266 m 0,0 -0.04317,0.0166 m 0,0 -0.04649,0.01 m 0,0 -0.04649,0.003 m 0,0 H 77.04777 m 0,0 -0.04649,0.003 m 0,0 -0.04649,0.0133 m 0,0 -0.04317,0.0166 m 0,0 -0.03985,0.0266 m 0,0 -0.03653,0.0299 m 0,0 -0.02988,0.0333 m 0,0 -0.02325,0.0433 m 0,0 -0.01992,0.0433 m 0,0 -0.01,0.0433 m 0,0 -0.0033,0.0466 m 0,0 v 0.19966 m 0,0 0.0033,0.10649 m 0,0 0.0166,0.10315 m 0,0 0.02657,0.0998 m 0,0 0.03985,0.0998 m 0,0 0.04649,0.0932 m 0,0 0.05645,0.0865 m 0,0 0.06641,0.0799 m 0,0 0.07305,0.0765 m 0,0 0.08302,0.0632 m 0,0 0.08634,0.0566 m 0,0 0.09298,0.0499 m 0,0 0.09962,0.0366 m 0,0 0.09962,0.0266 m 0,0 0.10294,0.0166 m 0,0 0.10626,0.007 m 0,0 h 2.998519 m 0,0 0.156069,-0.007 m 0,0 0.156069,-0.02 m 0,0 0.156069,-0.0299 m 0,0 0.149428,-0.0433 m 0,0 0.146107,-0.0532 m 0,0 0.142787,-0.0666 m 0,0 0.139466,-0.0765 m 0,0 0.129504,-0.0865 m 0,0 0.122863,-0.0965 m 0,0 0.116222,-0.10649 m 0,0 0.10626,-0.11647 m 0,0 0.0963,-0.12312 m 0,0 0.08634,-0.12978 m 0,0 0.07969,-0.13644 m 0,0 0.06309,-0.14309 m 0,0 0.05645,-0.14642 m 0,0 0.04317,-0.15307 m 0,0 0.02988,-0.15307 m 0,0 0.0166,-0.1564 m 0,0 0.0066,-0.15641 m 0,0 v -0.15307 m 0,0 -0.0033,-0.0466 m 0,0 -0.01,-0.0466 m 0,0 -0.01992,-0.0433 m 0,0 -0.02324,-0.0399 m 0,0 -0.02989,-0.0366 m 0,0 -0.03653,-0.0299 m 0,0 -0.02657,-0.0166 m 0,0 -0.275612,-0.15973 m 0,0 -0.04649,-0.02 m 0,0 -0.05313,-0.007 m 0,0 -0.05313,0.007 m 0,0 -0.04649,0.02 m 0,0 -0.04317,0.0333 m 0,0 -0.01992,0.0233 m 0,0 -0.0963,0.1198 m 0,0 -0.1129,0.11314 m 0,0 -0.119543,0.0965 m 0,0 -0.132825,0.0865 m 0,0 -0.139466,0.0699 m 0,0 -0.146107,0.0566 m 0,0 -0.152748,0.0399 m 0,0 -0.156069,0.0266 m 0,0 -0.15607,0.007 m 0,0 -0.156069,-0.007 m 0,0 -0.156069,-0.0266 m 0,0 -0.149428,-0.0399 m 0,0 -0.149428,-0.0566 m 0,0 -0.139466,-0.0699 m 0,0 -0.129504,-0.0865 m 0,0 -0.122863,-0.0965 m 0,0 -0.10958,-0.11314 m 0,0 -0.09962,-0.1198 m 0,0 -0.02989,-0.0433 m 0,0 -0.02656,-0.03 m 0,0 -0.03985,-0.0333 m 0,0 -0.04981,-0.02 m 0,0 -0.04981,-0.007 m 0,0 H 79.24591 m 0,0 -0.04981,-0.007 m 0,0 -0.04981,-0.02 m 0,0 -0.03985,-0.0299 m 0,0 -0.03321,-0.0433 m 0,0 -0.01992,-0.0466 m 0,0 -0.0066,-0.0532 m 0,0 v -1.09813 m 0,0 0.0066,-0.0533 m 0,0 0.01992,-0.0466 m 0,0 0.03321,-0.0399 m 0,0 0.03985,-0.0333 m 0,0 0.04981,-0.02 m 0,0 0.04981,-0.007 m 0,0 h 0.192596 m 0,0 0.04981,-0.007 m 0,0 0.04981,-0.02 m 0,0 0.03985,-0.0333 m 0,0 0.02656,-0.03 m 0,0 0.02989,-0.0433 m 0,0 0.09962,-0.1198 m 0,0 0.10958,-0.11314 m 0,0 0.122863,-0.0965 m 0,0 0.129504,-0.0865 m 0,0 0.139466,-0.0699 m 0,0 0.149428,-0.0566 m 0,0 0.149428,-0.0399 m 0,0 0.156069,-0.0266 m 0,0 0.156069,-0.007 m 0,0 0.15607,0.007 m 0,0 0.156069,0.0266 m 0,0 0.152748,0.0399 m 0,0 0.146107,0.0566 m 0,0 0.139466,0.0699 m 0,0 0.132825,0.0865 m 0,0 0.119543,0.0965 m 0,0 0.1129,0.11314 m 0,0 0.0963,0.1198 m 0,0 0.01992,0.0233 m 0,0 0.04317,0.0333 m 0,0 0.04649,0.02 m 0,0 0.05313,0.007 m 0,0 0.05313,-0.007 m 0,0 0.04649,-0.02 m 0,0 0.275612,-0.15973 m 0,0 0.02657,-0.0166 m 0,0 0.03653,-0.0299 m 0,0 0.02989,-0.0366 m 0,0 0.02324,-0.0399 m 0,0 0.01992,-0.0433 m 0,0 0.01,-0.0466 m 0,0 0.0033,-0.0466 m 0,0 v -0.0532 m 0,0 0.01,-0.1564 m 0,0 0.02325,-0.1564 m 0,0 0.03985,-0.14975 m 0,0 0.05645,-0.14642 m 0,0 0.07305,-0.13976 m 0,0 0.08302,-0.13311 m 0,0 0.09962,-0.1198 m 0,0 0.112902,-0.11314 m 0,0 0.119542,-0.0965 m 0,0 0.132825,-0.0865 m 0,0 0.139466,-0.0699 m 0,0 0.146107,-0.0566 m 0,0 0.152749,-0.0433 m 0,0 0.156068,-0.0233 m 0,0 0.15607,-0.007 m 0,0 h 3.098137 m 0,0 0.156069,0.007 m 0,0 0.15607,0.0233 m 0,0 0.152748,0.0433 m 0,0 0.146111,0.0566 m 0,0 0.13946,0.0699 m 0,0 0.13283,0.0865 m 0,0 0.11954,0.0965 m 0,0 0.1129,0.11314 m 0,0 0.0963,0.1198 m 0,0 0.0863,0.13311 m 0,0 0.0731,0.13976 m 0,0 0.0564,0.14642 m 0,0 0.0399,0.14975 m 0,0 0.0232,0.1564 m 0,0 0.01,0.1564 m 0,0 v 1.69712 m 0,0 -0.01,0.1564 m 0,0 -0.0232,0.1564 m 0,0 -0.0399,0.14975 m 0,0 -0.0564,0.14641 m 0,0 -0.0731,0.13977 m 0,0 -0.0863,0.1331 m 0,0 -0.0963,0.1198 m 0,0 -0.1129,0.11314 m 0,0 -0.11954,0.0965 m 0,0 -0.13283,0.0865 m 0,0 -0.13946,0.0699 m 0,0 -0.146111,0.0566 m 0,0 -0.152748,0.0433 m 0,0 -0.15607,0.0233 m 0,0 -0.156069,0.007 m 0,0 h -0.09962 m 0,0 -0.156069,0.01 m 0,0 -0.156069,0.0233 m 0,0 -0.152749,0.0399 m 0,0 -0.146107,0.0566 m 0,0 -0.139466,0.0732 m 0,0 -0.129504,0.0832 m 0,0 -0.122863,0.0998 m 0,0 -0.112901,0.10981 m 0,0 -0.0963,0.12313 m 0,0 -0.08634,0.12978 m 0,0 -0.07305,0.13976 m 0,0 -0.05313,0.14642 m 0,0 -0.04317,0.15307 m 0,0 -0.02324,0.1564 m 0,0 -0.01,0.1564 m 0,0 v 3.39424 m 0,0 0.01,0.1564 m 0,0 0.02324,0.15641 m 0,0 0.04317,0.14974 m 0,0 0.05313,0.14642 m 0,0 0.07305,0.13976 m 0,0 0.08634,0.13311 m 0,0 0.0963,0.1198 m 0,0 0.112901,0.11314 m 0,0 0.122863,0.0965 m 0,0 0.129504,0.0865 m 0,0 0.139466,0.0699 m 0,0 0.146107,0.0566 m 0,0 0.152749,0.0433 m 0,0 0.156069,0.0233 m 0,0 0.156069,0.007 m 0,0 h 0.308817 m 0,0 0.06641,-0.003 m 0,0 0.06309,-0.0133 m 0,0 0.06309,-0.02 m 0,0 0.05645,-0.03 m 0,0 0.05645,-0.0366 m 0,0 0.0465,-0.0433 m 0,0 0.0432,-0.0466 m 0,0 0.0365,-0.0566 m 0,0 0.0133,-0.0233 m 0,0 0.32543,-0.63559 m 0,0 0.0133,-0.0366 m 0,0 0.007,-0.0532 m 0,0 -0.007,-0.0499 m 0,0 -0.0199,-0.0499 m 0,0 -0.0299,-0.0399 m 0,0 -0.0432,-0.0333 m 0,0 -0.0465,-0.02 m 0,0 -0.0531,-0.007 m 0,0 h -0.800269 m 0,0 -0.06641,-0.003 m 0,0 -0.06309,-0.0133 m 0,0 -0.05977,-0.02 m 0,0 -0.05977,-0.03 m 0,0 -0.05645,-0.0366 m 0,0 -0.04649,-0.0433 m 0,0 -0.04317,-0.0499 m 0,0 -0.03653,-0.0532 m 0,0 -0.02989,-0.0566 m 0,0 -0.01992,-0.0632 m 0,0 -0.01328,-0.0632 m 0,0 -0.0033,-0.0666 m 0,0 v -1.89678 m 0,0 0.0066,-0.1564 m 0,0 0.02324,-0.1564 m 0,0 0.04317,-0.14975 m 0,0 0.05645,-0.14642 m 0,0 0.06973,-0.13976 m 0,0 0.08634,-0.13311 m 0,0 0.09962,-0.11979 m 0,0 0.109581,-0.11314 m 0,0 0.122863,-0.0965 m 0,0 0.129504,-0.0865 m 0,0 0.142787,-0.0732 m 0,0 0.146104,-0.0532 m 0,0 0.14943,-0.0433 m 0,0 0.15607,-0.0233 m 0,0 0.15607,-0.007 m 0,0 h 1.19874 m 0,0 0.0863,0.003 m 0,0 0.083,0.0133 m 0,0 0.0797,0.02 m 0,0 0.0764,0.0299 m 0,0 0.0764,0.0399 m 0,0 0.0697,0.0433 m 0,0 0.0664,0.0532 m 0,0 0.0564,0.0599 m 0,0 0.0531,0.0665 m 0,0 0.0465,0.0699 m 0,0 0.0399,0.0732 m 0,0 0.0299,0.0765 m 0,0 0.0199,0.0832 m 0,0 0.0133,0.0832 m 0,0 0.003,0.0832 m 0,0 v 0.22961 m 0,0 0.007,0.10648 m 0,0 0.0166,0.10316 m 0,0 0.0266,0.0998 m 0,0 0.0365,0.0965 m 0,0 0.0498,0.0932 m 0,0 3.79547,6.57218 m 0,0 0.0299,0.0599 m 0,0 0.0232,0.0632 m 0,0 0.01,0.0632 m 0,0 0.007,0.0666 m 0,0 v 3.13136 m 0,0 0.003,0.0965 m 0,0 0.0166,0.0899 m 0,0 0.0232,0.0932 m 0,0 0.0332,0.0865 m 0,0 0.0432,0.0832 m 0,0 0.0498,0.0799 m 0,0 0.0598,0.0732 m 0,0 0.0664,0.0666 m 0,0 0.0731,0.0599 m 0,0 0.0797,0.0499 m 0,0 0.083,0.0433 m 0,0 0.0896,0.0333 m 0,0 0.0897,0.0266 m 0,0 0.093,0.0133 m 0,0 0.0963,0.003 m 0,0 h 0.0996 m 0,0 0.0631,-0.003 m 0,0 0.0664,-0.0133 m 0,0 0.0598,-0.02 m 0,0 0.0598,-0.03 m 0,0 0.0531,-0.0366 m 0,0 0.0498,-0.0399 m 0,0 0.0432,-0.0499 m 0,0 0.0365,-0.0566 m 0,0 0.0299,-0.0566 m 0,0 0.0199,-0.0632 m 0,0 0.0133,-0.0632 m 0,0 0.003,-0.0666 m 0,0 v -3.93333 m 0,0 -0.003,-0.0666 m 0,0 -0.0133,-0.0632 m 0,0 -0.0199,-0.0632 m 0,0 -0.0299,-0.0566 m 0,0 -4.14414,-7.17449 m 0,0 -0.01,-0.0133 m 0,0 -0.0166,-0.0433 m 0,0 -0.01,-0.0466 m 0,0 -0.007,-0.0466 m 0,0 0.007,-0.0466 m 0,0 0.01,-0.0466 m 0,0 0.0166,-0.0433 m 0,0 0.0266,-0.0399 m 0,0 0.0299,-0.0366 m 0,0 0.0365,-0.03 m 0,0 0.0399,-0.0233 m 0,0 0.0432,-0.02 m 0,0 0.0465,-0.01 m 0,0 0.0465,-0.003 m 0,0 h 0.0332 m 0,0 0.10958,0.0133 m 0,0 0.25901,0.01 m 0,0 0.259,-0.01 m 0,0 0.25901,-0.0333 m 0,0 0.25237,-0.0499 m 0,0 0.24905,-0.0699 m 0,0 0.24572,-0.0899 m 0,0 0.0266,-0.01 m 0,0 0.0166,-0.007 m 0,0 0.093,-0.0499 m 0,0 0.0863,-0.0566 m 0,0 0.083,-0.0666 m 0,0 0.0731,-0.0732 m 0,0 0.0664,-0.0799 m 0,0 0.0564,-0.0899 m 0,0 0.0465,-0.0932 m 0,0 0.0399,-0.0965 m 0,0 0.0266,-0.0998 m 0,0 0.0166,-0.10316 m 0,0 0.003,-0.10648 m 0,0 v -0.86853 m 0,0 -0.003,-0.0466 m 0,0 -0.01,-0.0466 m 0,0 -0.0166,-0.0433 m 0,0 -0.0266,-0.0399 m 0,0 -0.0299,-0.0366 m 0,0 -0.0365,-0.0299 m 0,0 -0.0266,-0.0166 m 0,0 -0.27561,-0.15973 m 0,0 -0.0465,-0.02 m 0,0 -0.0531,-0.007 m 0,0 -0.0498,0.007 m 0,0 -0.0498,0.02 m 0,0 -0.0398,0.0333 m 0,0 -0.0199,0.0233 m 0,0 -0.0996,0.1198 m 0,0 -0.10958,0.11314 m 0,0 -0.12286,0.0965 m 0,0 -0.13282,0.0865 m 0,0 -0.13947,0.0699 m 0,0 -0.14611,0.0566 m 0,0 -0.15275,0.0399 m 0,0 -0.15274,0.0266 m 0,0 -0.15939,0.007 m 0,0 -0.15607,-0.007 m 0,0 -0.15275,-0.0266 m 0,0 -0.15275,-0.0399 m 0,0 -0.14611,-0.0566 m 0,0 -0.13946,-0.0699 m 0,0 -0.13283,-0.0865 m 0,0 -0.12286,-0.0965 m 0,0 -0.10958,-0.11314 m 0,0 -0.0996,-0.1198 m 0,0 -0.0299,-0.0433 m 0,0 -0.0232,-0.03 m 0,0 -0.0432,-0.0333 m 0,0 -0.0465,-0.02 m 0,0 -0.0531,-0.007 m 0,0 h -0.18927 m 0,0 -0.0531,-0.007 m 0,0 -0.0465,-0.02 m 0,0 -0.0432,-0.0299 m 0,0 -0.0299,-0.0433 m 0,0 -0.0199,-0.0466 m 0,0 -0.007,-0.0532 m 0,0 v -1.09813 m 0,0 0.007,-0.0533 m 0,0 0.0199,-0.0466 m 0,0 0.0299,-0.0399 m 0,0 0.0432,-0.0333 m 0,0 0.0465,-0.02 m 0,0 0.0531,-0.007 m 0,0 h 0.18927 m 0,0 0.0531,-0.007 m 0,0 0.0465,-0.02 m 0,0 0.0432,-0.0333 m 0,0 0.0232,-0.03 m 0,0 0.0299,-0.0433 m 0,0 0.0996,-0.1198 m 0,0 0.10958,-0.11314 m 0,0 0.12286,-0.0965 m 0,0 0.13283,-0.0865 m 0,0 0.13946,-0.0699 m 0,0 0.14611,-0.0566 m 0,0 0.15275,-0.0399 m 0,0 0.15275,-0.0266 m 0,0 0.15607,-0.007 m 0,0 0.15939,0.007 m 0,0 0.15274,0.0266 m 0,0 0.15275,0.0399 m 0,0 0.14611,0.0566 m 0,0 0.13947,0.0699 m 0,0 0.13282,0.0865 m 0,0 0.12286,0.0965 m 0,0 0.10958,0.11314 m 0,0 0.0996,0.1198 m 0,0 0.0199,0.0233 m 0,0 0.0398,0.0333 m 0,0 0.0498,0.02 m 0,0 0.0498,0.007 m 0,0 0.0531,-0.007 m 0,0 0.0465,-0.02 m 0,0 0.27561,-0.15973 m 0,0 0.0266,-0.0166 m 0,0 0.0365,-0.0299 m 0,0 0.0299,-0.0366 m 0,0 0.0266,-0.0399 m 0,0 0.0166,-0.0433 m 0,0 0.01,-0.0466 m 0,0 0.003,-0.0466 m 0,0 v -1.25121 m 0,0 0.007,-0.0665 m 0,0 0.0133,-0.0632 m 0,0 0.0199,-0.0632 m 0,0 0.0299,-0.0566 m 0,0 0.0365,-0.0566 m 0,0 0.0432,-0.0466 m 0,0 0.0465,-0.0433 m 0,0 0.0565,-0.0366 m 0,0 0.0564,-0.03 m 0,0 0.0631,-0.02 m 0,0 0.0631,-0.0133 m 0,0 0.0664,-0.003 m 0,0 h 57.685804 m 0,0 0.0664,0.003 m 0,0 0.0631,0.0133 m 0,0 0.0631,0.02 m 0,0 0.0564,0.03 m 0,0 0.0565,0.0366 m 0,0 0.0465,0.0433 m 0,0 0.0432,0.0466 m 0,0 0.0365,0.0566 m 0,0 0.0299,0.0566 m 0,0 0.0199,0.0632 m 0,0 0.0133,0.0632 m 0,0 0.007,0.0665 m 0,0 v 1.25121 m 0,0 0.003,0.0466 m 0,0 0.01,0.0466 m 0,0 0.0166,0.0433 m 0,0 0.0266,0.0399 m 0,0 0.0299,0.0366 m 0,0 0.0365,0.0299 m 0,0 0.0266,0.0166 m 0,0 0.27562,0.15973 m 0,0 0.0465,0.02 m 0,0 0.0531,0.007 m 0,0 0.0498,-0.007 m 0,0 0.0498,-0.02 m 0,0 0.0399,-0.0333 m 0,0 0.0199,-0.0233 m 0,0 0.0996,-0.1198 m 0,0 0.10958,-0.11314 m 0,0 0.12287,-0.0965 m 0,0 0.13282,-0.0865 m 0,0 0.13947,-0.0699 m 0,0 0.1461,-0.0566 m 0,0 0.15275,-0.0399 m 0,0 0.15275,-0.0266 m 0,0 0.15939,-0.007 m 0,0 0.15607,0.007 m 0,0 0.15275,0.0266 m 0,0 0.15275,0.0399 m 0,0 0.1461,0.0566 m 0,0 0.13947,0.0699 m 0,0 0.13282,0.0865 m 0,0 0.12287,0.0965 m 0,0 0.10958,0.11314 m 0,0 0.0996,0.1198 m 0,0 0.0299,0.0433 m 0,0 0.0232,0.03 m 0,0 0.0432,0.0333 m 0,0 0.0465,0.02 m 0,0 0.0531,0.007 m 0,0 h 0.18928 m 0,0 0.0531,0.007 m 0,0 0.0465,0.02 m 0,0 0.0432,0.0333 m 0,0 0.0299,0.0399 m 0,0 0.0199,0.0466 m 0,0 0.007,0.0533 m 0,0 v 1.09813 m 0,0 -0.007,0.0532 m 0,0 -0.0199,0.0466 m 0,0 -0.0299,0.0433 m 0,0 -0.0432,0.0299 m 0,0 -0.0465,0.02 m 0,0 -0.0531,0.007 m 0,0 h -0.18928 m 0,0 -0.0531,0.007 m 0,0 -0.0465,0.02 m 0,0 -0.0432,0.0333 m 0,0 -0.0232,0.03 m 0,0 -0.0299,0.0433 m 0,0 -0.0996,0.1198 m 0,0 -0.10958,0.11314 m 0,0 -0.12287,0.0965 m 0,0 -0.13282,0.0865 m 0,0 -0.13947,0.0699 m 0,0 -0.1461,0.0566 m 0,0 -0.15275,0.0399 m 0,0 -0.15275,0.0266 m 0,0 -0.15607,0.007 m 0,0 -0.15939,-0.007 m 0,0 -0.15275,-0.0266 m 0,0 -0.15275,-0.0399 m 0,0 -0.1461,-0.0566 m 0,0 -0.13947,-0.0699 m 0,0 -0.13282,-0.0865 m 0,0 -0.12287,-0.0965 m 0,0 -0.10958,-0.11314 m 0,0 -0.0996,-0.1198 m 0,0 -0.0199,-0.0233 m 0,0 -0.0399,-0.0333 m 0,0 -0.0498,-0.02 m 0,0 -0.0498,-0.007 m 0,0 -0.0531,0.007 m 0,0 -0.0465,0.02 m 0,0 -0.27562,0.15973 m 0,0 -0.0266,0.0166 m 0,0 -0.0365,0.0299 m 0,0 -0.0299,0.0366 m 0,0 -0.0266,0.0399 m 0,0 -0.0166,0.0433 m 0,0 -0.01,0.0466 m 0,0 -0.003,0.0466 m 0,0 v 0.86853 m 0,0 0.003,0.10648 m 0,0 0.0166,0.10316 m 0,0 0.0266,0.0998 m 0,0 0.0398,0.0965 m 0,0 0.0465,0.0932 m 0,0 0.0565,0.0899 m 0,0 0.0664,0.0799 m 0,0 0.0731,0.0732 m 0,0 0.083,0.0666 m 0,0 0.0863,0.0566 m 0,0 0.093,0.0499 m 0,0 0.0166,0.007 m 0,0 0.0266,0.01 m 0,0 0.24573,0.0899 m 0,0 0.24905,0.0699 m 0,0 0.25236,0.0499 m 0,0 0.25901,0.0333 m 0,0 0.25901,0.01 m 0,0 0.25901,-0.01 m 0,0 0.10958,-0.0133 m 0,0 h 0.0332 m 0,0 0.0465,0.003 m 0,0 0.0465,0.01 m 0,0 0.0432,0.02 m 0,0 0.0398,0.0233 m 0,0 0.0365,0.03 m 0,0 0.0299,0.0366 m 0,0 0.0266,0.0399 m 0,0 0.0166,0.0433 m 0,0 0.0133,0.0466 m 0,0 0.003,0.0466 m 0,0 -0.003,0.0466 m 0,0 -0.0133,0.0466 m 0,0 -0.0166,0.0433 m 0,0 -0.007,0.0133 m 0,0 -4.14746,7.17449 m 0,0 -0.0299,0.0566 m 0,0 -0.0199,0.0632 m 0,0 -0.0133,0.0632 m 0,0 -0.003,0.0666 m 0,0 v 3.93333 m 0,0 0.003,0.0666 m 0,0 0.0133,0.0632 m 0,0 0.0199,0.0632 m 0,0 0.0299,0.0566 m 0,0 0.0365,0.0566 m 0,0 0.0432,0.0499 m 0,0 0.0498,0.0399 m 0,0 0.0531,0.0366 m 0,0 0.0598,0.03 m 0,0 0.0598,0.02 m 0,0 0.0664,0.0133 m 0,0 0.0631,0.003 m 0,0 h 0.0996 m 0,0 0.0963,-0.003 m 0,0 0.093,-0.0133 m 0,0 0.0897,-0.0266 m 0,0 0.0897,-0.0333 m 0,0 0.083,-0.0433 m 0,0 0.0797,-0.0499 m 0,0 0.073,-0.0599 m 0,0 0.0664,-0.0666 m 0,0 0.0598,-0.0732 m 0,0 0.0498,-0.0799 m 0,0 0.0432,-0.0832 m 0,0 0.0332,-0.0865 m 0,0 0.0232,-0.0932 m 0,0 0.0166,-0.0899 m 0,0 0.003,-0.0965 m 0,0 v -3.13136 m 0,0 0.007,-0.0666 m 0,0 0.01,-0.0632 m 0,0 0.0232,-0.0632 m 0,0 0.0299,-0.0599 m 0,0 3.79547,-6.57218 m 0,0 0.0498,-0.0932 m 0,0 0.0365,-0.0965 m 0,0 0.0266,-0.0998 m 0,0 0.0166,-0.10316 m 0,0 0.007,-0.10648 m 0,0 v -0.22961 m 0,0 0.003,-0.0832 m 0,0 0.0133,-0.0832 m 0,0 0.0199,-0.0832 m 0,0 0.0299,-0.0765 m 0,0 0.0398,-0.0732 m 0,0 0.0465,-0.0699 m 0,0 0.0531,-0.0665 m 0,0 0.0565,-0.0599 m 0,0 0.0664,-0.0532 m 0,0 0.0697,-0.0433 m 0,0 0.0764,-0.0399 m 0,0 0.0764,-0.0299 m 0,0 0.0797,-0.02 m 0,0 0.083,-0.0133 m 0,0 0.0863,-0.003 m 0,0 h 1.19875 m 0,0 0.15607,0.007 m 0,0 0.15607,0.0233 m 0,0 0.14942,0.0433 m 0,0 0.14611,0.0532 m 0,0 0.14279,0.0732 m 0,0 0.1295,0.0865 m 0,0 0.12287,0.0965 m 0,0 0.10957,0.11314 m 0,0 0.0996,0.11979 m 0,0 0.0863,0.13311 m 0,0 0.0697,0.13976 m 0,0 0.0564,0.14642 m 0,0 0.0432,0.14975 m 0,0 0.0232,0.1564 m 0,0 0.007,0.1564 m 0,0 v 1.89678 m 0,0 -0.003,0.0666 m 0,0 -0.0133,0.0632 m 0,0 -0.0199,0.0632 m 0,0 -0.0299,0.0566 m 0,0 -0.0365,0.0532 m 0,0 -0.0432,0.0499 m 0,0 -0.0465,0.0433 m 0,0 -0.0564,0.0366 m 0,0 -0.0598,0.03 m 0,0 -0.0598,0.02 m 0,0 -0.0631,0.0133 m 0,0 -0.0664,0.003 m 0,0 h -0.80026 m 0,0 -0.0531,0.007 m 0,0 -0.0465,0.02 m 0,0 -0.0432,0.0333 m 0,0 -0.0299,0.0399 m 0,0 -0.0199,0.0499 m 0,0 -0.007,0.0499 m 0,0 0.007,0.0532 m 0,0 0.0133,0.0366 m 0,0 0.32542,0.63559 m 0,0 0.0133,0.0233 m 0,0 0.0365,0.0566 m 0,0 0.0432,0.0466 m 0,0 0.0465,0.0433 m 0,0 0.0565,0.0366 m 0,0 0.0564,0.03 m 0,0 0.0631,0.02 m 0,0 0.0631,0.0133 m 0,0 0.0664,0.003 m 0,0 h 0.30882 m 0,0 0.15607,-0.007 m 0,0 0.15607,-0.0233 m 0,0 0.15275,-0.0433 m 0,0 0.14611,-0.0566 m 0,0 0.13946,-0.0699 m 0,0 0.12951,-0.0865 m 0,0 0.12286,-0.0965 m 0,0 0.1129,-0.11314 m 0,0 0.0963,-0.1198 m 0,0 0.0863,-0.13311 m 0,0 0.0731,-0.13976 m 0,0 0.0531,-0.14642 m 0,0 0.0432,-0.14974 m 0,0 0.0232,-0.15641 m 0,0 0.01,-0.1564 m 0,0 v -3.39424 m 0,0 -0.01,-0.1564 m 0,0 -0.0232,-0.1564 m 0,0 -0.0432,-0.15307 m 0,0 -0.0531,-0.14642 m 0,0 -0.0731,-0.13976 m 0,0 -0.0863,-0.12978 m 0,0 -0.0963,-0.12313 m 0,0 -0.1129,-0.10981 m 0,0 -0.12286,-0.0998 m 0,0 -0.12951,-0.0832 m 0,0 -0.13946,-0.0732 m 0,0 -0.14611,-0.0566 m 0,0 -0.15275,-0.0399 m 0,0 -0.15607,-0.0233 m 0,0 -0.15607,-0.01 m 0,0 h -0.0996 m 0,0 -0.15607,-0.007 m 0,0 -0.15607,-0.0233 m 0,0 -0.15274,-0.0433 m 0,0 -0.14611,-0.0566 m 0,0 -0.13947,-0.0699 m 0,0 -0.13282,-0.0865 m 0,0 -0.11954,-0.0965 m 0,0 -0.1129,-0.11314 m 0,0 -0.0963,-0.1198 m 0,0 -0.0863,-0.1331 m 0,0 -0.073,-0.13977 m 0,0 -0.0565,-0.14641 m 0,0 -0.0399,-0.14975 m 0,0 -0.0232,-0.1564 m 0,0 -0.01,-0.1564 m 0,0 v -1.69712 m 0,0 0.01,-0.1564 m 0,0 0.0232,-0.1564 m 0,0 0.0399,-0.14975 m 0,0 0.0565,-0.14642 m 0,0 0.073,-0.13976 m 0,0 0.0863,-0.13311 m 0,0 0.0963,-0.1198 m 0,0 0.1129,-0.11314 m 0,0 0.11954,-0.0965 m 0,0 0.13282,-0.0865 m 0,0 0.13947,-0.0699 m 0,0 0.14611,-0.0566 m 0,0 0.15274,-0.0433 m 0,0 0.15607,-0.0233 m 0,0 0.15607,-0.007 m 0,0 h 3.09814 m 0,0 0.15607,0.007 m 0,0 0.15607,0.0233 m 0,0 0.15275,0.0433 m 0,0 0.1461,0.0566 m 0,0 0.13947,0.0699 m 0,0 0.13283,0.0865 m 0,0 0.11954,0.0965 m 0,0 0.1129,0.11314 m 0,0 0.0996,0.1198 m 0,0 0.083,0.13311 m 0,0 0.0731,0.13976 m 0,0 0.0565,0.14642 m 0,0 0.0399,0.14975 m 0,0 0.0232,0.1564 m 0,0 0.01,0.1564 m 0,0 v 0.0532 m 0,0 0.003,0.0466 m 0,0 0.01,0.0466 m 0,0 0.0199,0.0433 m 0,0 0.0232,0.0399 m 0,0 0.0299,0.0366 m 0,0 0.0365,0.0299 m 0,0 0.0266,0.0166 m 0,0 0.27561,0.15973 m 0,0 0.0465,0.02 m 0,0 0.0531,0.007 m 0,0 0.0531,-0.007 m 0,0 0.0465,-0.02 m 0,0 0.0432,-0.0333 m 0,0 0.0199,-0.0233 m 0,0 0.0963,-0.1198 m 0,0 0.1129,-0.11314 m 0,0 0.11954,-0.0965 m 0,0 0.13283,-0.0865 m 0,0 0.13946,-0.0699 m 0,0 0.14611,-0.0566 m 0,0 0.15275,-0.0399 m 0,0 0.15607,-0.0266 m 0,0 0.15606,-0.007 m 0,0 0.15607,0.007 m 0,0 0.15607,0.0266 m 0,0 0.14943,0.0399 m 0,0 0.14943,0.0566 m 0,0 0.13947,0.0699 m 0,0 0.1295,0.0865 m 0,0 0.12286,0.0965 m 0,0 0.10958,0.11314 m 0,0 0.0996,0.1198 m 0,0 0.0299,0.0433 m 0,0 0.0266,0.03 m 0,0 0.0399,0.0333 m 0,0 0.0498,0.02 m 0,0 0.0498,0.007 m 0,0 h 0.19259 m 0,0 0.0498,0.007 m 0,0 0.0498,0.02 m 0,0 0.0399,0.0333 m 0,0 0.0332,0.0399 m 0,0 0.0199,0.0466 m 0,0 0.007,0.0533 m 0,0 v 1.09813 m 0,0 -0.007,0.0532 m 0,0 -0.0199,0.0466 m 0,0 -0.0332,0.0433 m 0,0 -0.0399,0.0299 m 0,0 -0.0498,0.02 m 0,0 -0.0498,0.007 m 0,0 h -0.19259 m 0,0 -0.0498,0.007 m 0,0 -0.0498,0.02 m 0,0 -0.0399,0.0333 m 0,0 -0.0266,0.03 m 0,0 -0.0299,0.0433 m 0,0 -0.0996,0.1198 m 0,0 -0.10958,0.11314 m 0,0 -0.12286,0.0965 m 0,0 -0.1295,0.0865 m 0,0 -0.13947,0.0699 m 0,0 -0.14943,0.0566 m 0,0 -0.14943,0.0399 m 0,0 -0.15607,0.0266 m 0,0 -0.15607,0.007 m 0,0 -0.15606,-0.007 m 0,0 -0.15607,-0.0266 m 0,0 -0.15275,-0.0399 m 0,0 -0.14611,-0.0566 m 0,0 -0.13946,-0.0699 m 0,0 -0.13283,-0.0865 m 0,0 -0.11954,-0.0965 m 0,0 -0.1129,-0.11314 m 0,0 -0.0963,-0.1198 m 0,0 -0.0199,-0.0233 m 0,0 -0.0432,-0.0333 m 0,0 -0.0465,-0.02 m 0,0 -0.0531,-0.007 m 0,0 -0.0531,0.007 m 0,0 -0.0465,0.02 m 0,0 -0.27561,0.15973 m 0,0 -0.0266,0.0166 m 0,0 -0.0365,0.0299 m 0,0 -0.0299,0.0366 m 0,0 -0.0232,0.0399 m 0,0 -0.0199,0.0433 m 0,0 -0.01,0.0466 m 0,0 -0.003,0.0466 m 0,0 v 0.15307 m 0,0 0.007,0.15641 m 0,0 0.0166,0.1564 m 0,0 0.0299,0.15307 m 0,0 0.0432,0.15307 m 0,0 0.0565,0.14642 m 0,0 0.0631,0.14309 m 0,0 0.0797,0.13644 m 0,0 0.0863,0.12978 m 0,0 0.0963,0.12312 m 0,0 0.10626,0.11647 m 0,0 0.11622,0.10649 m 0,0 0.12286,0.0965 m 0,0 0.12951,0.0865 m 0,0 0.13946,0.0765 m 0,0 0.14279,0.0666 m 0,0 0.14611,0.0532 m 0,0 0.14943,0.0433 m 0,0 0.15607,0.0299 m 0,0 0.15607,0.02 m 0,0 0.15607,0.007 m 0,0 h 2.99851 m 0,0 0.10626,-0.007 m 0,0 0.10294,-0.0166 m 0,0 0.0996,-0.0266 m 0,0 0.0996,-0.0366 m 0,0 0.093,-0.0499 m 0,0 0.0863,-0.0566 m 0,0 0.083,-0.0632 m 0,0 0.073,-0.0765 m 0,0 0.0664,-0.0799 m 0,0 0.0565,-0.0865 m 0,0 0.0465,-0.0932 m 0,0 0.0399,-0.0998 m 0,0 0.0266,-0.0998 m 0,0 0.0166,-0.10315 m 0,0 0.003,-0.10649 m 0,0 v -0.19966 m 0,0 -0.003,-0.0466 m 0,0 -0.01,-0.0433 m 0,0 -0.0199,-0.0433 m 0,0 -0.0232,-0.0433 m 0,0 -0.0299,-0.0333 m 0,0 -0.0365,-0.0299 m 0,0 -0.0399,-0.0266 m 0,0 -0.0432,-0.0166 m 0,0 -0.0465,-0.0133 m 0,0 -0.0465,-0.003 m 0,0 h -0.50141 m 0,0 -0.0465,-0.003 m 0,0 -0.0465,-0.01 m 0,0 -0.0432,-0.0166 m 0,0 -0.0399,-0.0266 m 0,0 -0.0332,-0.0299 m 0,0 -0.0332,-0.0366 m 0,0 -0.0232,-0.0399 m 0,0 -0.0166,-0.0433 m 0,0 -0.0133,-0.0466 m 0,0 -0.003,-0.0466 m 0,0 v -2.19628 m 0,0 h 0.50142 m 0,0 0.0631,-0.003 m 0,0 0.0664,-0.0133 m 0,0 0.0598,-0.02 m 0,0 0.0598,-0.03 m 0,0 0.0531,-0.0366 m 0,0 0.0498,-0.0433 m 0,0 0.0432,-0.0499 m 0,0 0.0365,-0.0532 m 0,0 0.0299,-0.0599 m 0,0 0.0199,-0.0599 m 0,0 0.0133,-0.0632 m 0,0 0.003,-0.0666 m 0,0 v -0.29949 m 0,0 -0.007,-0.0532 m 0,0 -0.0199,-0.0466 m 0,0 -0.0299,-0.0433 m 0,0 -0.0432,-0.0299 m 0,0 -0.0465,-0.02 m 0,0 -0.0531,-0.007 m 0,0 h -0.80027 m 0,0 v -1.19797 m 0,0 h 5.20009 m 0,0 v 1.19797 m 0,0 h -0.80027 m 0,0 -0.0531,0.007 m 0,0 -0.0465,0.02 m 0,0 -0.0432,0.0299 m 0,0 -0.0299,0.0433 m 0,0 -0.0199,0.0466 m 0,0 -0.007,0.0532 m 0,0 v 0.29949 m 0,0 0.003,0.0666 m 0,0 0.0133,0.0632 m 0,0 0.0199,0.0599 m 0,0 0.0299,0.0599 m 0,0 0.0365,0.0532 m 0,0 0.0432,0.0499 m 0,0 0.0465,0.0433 m 0,0 0.0564,0.0366 m 0,0 0.0598,0.03 m 0,0 0.0598,0.02 m 0,0 0.0631,0.0133 m 0,0 0.0664,0.003 m 0,0 h 0.50141 m 0,0 v 2.19628 m 0,0 -0.003,0.0466 m 0,0 -0.0133,0.0466 m 0,0 -0.0166,0.0433 m 0,0 -0.0266,0.0399 m 0,0 -0.0299,0.0366 m 0,0 -0.0365,0.0299 m 0,0 -0.0399,0.0266 m 0,0 -0.0432,0.0166 m 0,0 -0.0465,0.01 m 0,0 -0.0465,0.003 m 0,0 h -0.4981 m 0,0 -0.0465,0.003 m 0,0 -0.0465,0.0133 m 0,0 -0.0432,0.0166 m 0,0 -0.0399,0.0266 m 0,0 -0.0365,0.0299 m 0,0 -0.0299,0.0333 m 0,0 -0.0266,0.0433 m 0,0 -0.0166,0.0433 m 0,0 -0.01,0.0433 m 0,0 -0.007,0.0466 m 0,0 v 0.19966 m 0,0 0.007,0.10649 m 0,0 0.0166,0.10315 m 0,0 0.0266,0.0998 m 0,0 0.0399,0.0998 m 0,0 0.0465,0.0932 m 0,0 0.0564,0.0865 m 0,0 0.0664,0.0799 m 0,0 0.073,0.0765 m 0,0 0.083,0.0632 m 0,0 0.0863,0.0566 m 0,0 0.093,0.0499 m 0,0 0.0996,0.0366 m 0,0 0.0996,0.0266 m 0,0 0.10294,0.0166 m 0,0 0.10626,0.007 m 0,0 h 1.19874 m 0,0 0.0631,-0.007 m 0,0 0.0664,-0.0133 m 0,0 0.0598,-0.02 m 0,0 0.0598,-0.03 m 0,0 0.0531,-0.0333 m 0,0 0.0498,-0.0433 m 0,0 0.0432,-0.0499 m 0,0 0.0365,-0.0532 m 0,0 0.0299,-0.0599 m 0,0 0.0199,-0.0632 m 0,0 0.0133,-0.0632 m 0,0 0.003,-0.0632 m 0,0 v -6.79513 m 0,0 -0.003,-0.0632 m 0,0 -0.0133,-0.0632 m 0,0 -0.0199,-0.0632 m 0,0 -0.0299,-0.0599 m 0,0 -0.0365,-0.0532 m 0,0 -0.0432,-0.0499 m 0,0 -0.0498,-0.0433 m 0,0 -0.0531,-0.0333 m 0,0 -0.0598,-0.0299 m 0,0 -0.0598,-0.02 m 0,0 -0.0664,-0.0133 m 0,0 -0.0631,-0.007"
       id="path1" />
  </g>
</svg>
