<?xml version="1.0" encoding="UTF-8" standalone="no"?>
<!-- Created with Inkscape (http://www.inkscape.org/) -->

<svg
   width="155.87477mm"
   height="40.000313mm"
   viewBox="0 0 155.87476 40.000312"
   version="1.1"
   id="svg1"
   inkscape:export-filename="GT Sprosse FB 105mm.svg"
   inkscape:export-xdpi="96"
   inkscape:export-ydpi="96"
   xmlns:inkscape="http://www.inkscape.org/namespaces/inkscape"
   xmlns:sodipodi="http://sodipodi.sourceforge.net/DTD/sodipodi-0.dtd"
   xmlns="http://www.w3.org/2000/svg"
   xmlns:svg="http://www.w3.org/2000/svg">
  <sodipodi:namedview
     id="namedview1"
     pagecolor="#ffffff"
     bordercolor="#999999"
     borderopacity="1"
     inkscape:showpageshadow="2"
     inkscape:pageopacity="0"
     inkscape:pagecheckerboard="0"
     inkscape:deskcolor="#d1d1d1"
     inkscape:document-units="mm"
     inkscape:lockguides="true">
    <inkscape:page
       x="0"
       y="0"
       width="155.87476"
       height="40.000313"
       id="page2"
       margin="0"
       bleed="0" />
  </sodipodi:namedview>
  <defs
     id="defs1" />
  <g
     inkscape:label="Ebene 1"
     inkscape:groupmode="layer"
     id="layer1"
     transform="translate(37.059289,-163.1326)">
    <path
       style="fill:none;stroke:#000000;stroke-width:1.11964px;stroke-linecap:round;stroke-linejoin:round;stroke-miterlimit:4;stroke-dasharray:none;stroke-opacity:1"
       d="m 38.089043,165.20251 0.01,-0.0395 m 0,0 0.0194,-0.12814 m 0,0 0.005,-0.12814 m 0,0 -0.005,-0.12306 m 0,0 -0.0194,-0.12814 m 0,0 -0.0344,-0.12306 m 0,0 -0.0443,-0.11821 m 0,0 -0.0589,-0.11337 m 0,0 -0.0688,-0.10828 m 0,0 -0.0785,-0.0986 m 0,0 -0.0933,-0.0887 m 0,0 -0.0981,-0.0787 m 0,0 -0.1032,-0.069 m 0,0 -0.11288,-0.0591 m 0,0 -0.11797,-0.0443 m 0,0 -0.12281,-0.0344 m 0,0 -0.12766,-0.0194 m 0,0 -0.12282,-0.005 m 0,0 h -72.201894 m 0,0 -0.127684,0.005 m 0,0 -0.127683,0.0194 m 0,0 -0.117849,0.0344 m 0,0 -0.122766,0.0443 m 0,0 -0.108038,0.0591 m 0,0 -0.108038,0.069 m 0,0 -0.0982,0.0787 m 0,0 -0.08839,0.0887 m 0,0 -0.08348,0.0986 m 0,0 -0.06875,0.10828 m 0,0 -0.05402,0.11337 m 0,0 -0.0491,0.11821 m 0,0 -0.02946,0.12306 m 0,0 -0.01962,0.12814 m 0,0 -0.0099,0.12306 m 0,0 v 1.45849 m 0,0 0.0099,0.12814 m 0,0 0.01962,0.12814 m 0,0 0.02946,0.12306 m 0,0 0.0491,0.11821 m 0,0 0.05402,0.11337 m 0,0 0.06875,0.10344 m 0,0 0.08348,0.0986 m 0,0 0.08839,0.0935 m 0,0 0.0982,0.0787 m 0,0 0.108038,0.069 m 0,0 0.108038,0.0591 m 0,0 0.122766,0.0443 m 0,0 0.117849,0.0344 m 0,0 0.127683,0.0194 m 0,0 0.127684,0.005 m 0,0 h 22.967295 m 0,0 v 9.45559 m 0,0 -0.103121,0.11337 m 0,0 -0.157139,0.19718 m 0,0 -0.137495,0.21196 m 0,0 -0.117848,0.22673 m 0,0 -0.08839,0.23642 m 0,0 -0.06875,0.24638 m 0,0 -0.03929,0.25128 m 0,0 -0.0099,0.25624 m 0,0 0.0099,0.25129 m 0,0 0.03929,0.2513 m 0,0 0.06875,0.24636 m 0,0 0.08839,0.23642 m 0,0 0.117848,0.22674 m 0,0 0.137495,0.2168 m 0,0 0.157139,0.19718 m 0,0 0.103121,0.10828 m 0,0 v 11.1309 m 0,0 0.0099,0.12815 m 0,0 0.01962,0.12305 m 0,0 0.03437,0.12306 m 0,0 0.04421,0.11821 m 0,0 0.05402,0.11337 m 0,0 0.06875,0.10852 m 0,0 0.08347,0.0986 m 0,0 0.08839,0.0887 m 0,0 0.09823,0.0787 m 0,0 0.108038,0.069 m 0,0 0.112956,0.0591 m 0,0 0.117849,0.0443 m 0,0 0.117848,0.0344 m 0,0 0.127684,0.0194 m 0,0 0.127683,0.005 m 0,0 h 9.1879007 m 0,0 0.12768,-0.005 m 0,0 0.12277,-0.0194 m 0,0 0.12276,-0.0344 m 0,0 0.11785,-0.0443 m 0,0 0.11296,-0.0591 m 0,0 0.10312,-0.069 m 0,0 0.10312,-0.0787 m 0,0 0.0884,-0.0887 m 0,0 0.0786,-0.0986 m 0,0 0.0687,-0.10852 m 0,0 0.0589,-0.11337 m 0,0 0.0442,-0.11821 m 0,0 0.0344,-0.12306 m 0,0 0.0196,-0.12305 m 0,0 0.005,-0.12815 m 0,0 v -0.97069 m 0,0 -0.005,-0.12815 m 0,0 -0.0196,-0.12814 m 0,0 -0.0344,-0.12306 m 0,0 -0.0442,-0.11821 m 0,0 -0.0589,-0.11337 m 0,0 -0.0687,-0.10343 m 0,0 -0.0786,-0.0986 m 0,0 -0.0884,-0.0935 m 0,0 -0.10312,-0.079 m 0,0 -0.10312,-0.069 m 0,0 -0.11296,-0.0591 m 0,0 -0.11785,-0.0443 m 0,0 -0.12276,-0.0344 m 0,0 -0.12277,-0.0194 m 0,0 -0.12768,-0.005 m 0,0 h -7.01247 m 0,0 v -21.87253 m 0,0 H 31.960573 m 0,0 0.12282,0.005 m 0,0 0.12766,0.0194 m 0,0 0.12281,0.0344 m 0,0 0.11797,0.0443 m 0,0 0.11288,0.0591 m 0,0 0.1032,0.069 m 0,0 0.0984,0.0787 m 0,0 0.0933,0.0935 m 0,0 0.0785,0.0986 m 0,0 0.0688,0.10343 m 0,0 0.0589,0.11337 m 0,0 0.0441,0.11821 m 0,0 0.0344,0.12306 m 0,0 0.0194,0.12814 m 0,0 0.005,0.12815 m 0,0 -0.005,0.12305 m 0,0 -0.0194,0.12815 m 0,0 -0.01,0.0395 m 0,0 -5.06784,20.36477 m 0,0 h -7.25803 m 0,0 -0.12277,0.005 m 0,0 -0.12768,0.0194 m 0,0 -0.12277,0.0344 m 0,0 -0.11785,0.0443 m 0,0 -0.11295,0.0591 m 0,0 -0.10312,0.069 m 0,0 -0.0982,0.079 m 0,0 -0.0933,0.0935 m 0,0 -0.0786,0.0986 m 0,0 -0.0687,0.10343 m 0,0 -0.0589,0.11337 m 0,0 -0.0442,0.11821 m 0,0 -0.0294,0.12306 m 0,0 -0.0246,0.12814 m 0,0 -0.005,0.12815 m 0,0 v 0.97069 m 0,0 0.005,0.12815 m 0,0 0.0246,0.12305 m 0,0 0.0294,0.12306 m 0,0 0.0442,0.11821 m 0,0 0.0589,0.11337 m 0,0 0.0687,0.10852 m 0,0 0.0786,0.0986 m 0,0 0.0933,0.0887 m 0,0 0.0982,0.0787 m 0,0 0.10312,0.069 m 0,0 0.11295,0.0591 m 0,0 0.11785,0.0443 m 0,0 0.12277,0.0344 m 0,0 0.12768,0.0194 m 0,0 0.12277,0.005 m 0,0 h 80.982177 m 0,0 0.0981,-0.005 m 0,0 0.0933,-0.0194 m 0,0 0.0884,-0.0296 m 0,0 0.0836,-0.0395 m 0,0 0.0884,-0.064 m 0,0 1.47811,-1.17764 m 0,0 0.0441,-0.0344 m 0,0 0.10319,-0.069 m 0,0 0.11289,-0.0591 m 0,0 0.11773,-0.0443 m 0,0 0.12281,-0.0344 m 0,0 0.12766,-0.0194 m 0,0 0.12281,-0.005 m 0,0 0.12766,0.005 m 0,0 0.12766,0.0194 m 0,0 0.12282,0.0344 m 0,0 0.11797,0.0443 m 0,0 0.11288,0.0591 m 0,0 0.10319,0.069 m 0,0 0.0441,0.0344 m 0,0 1.47814,1.17764 m 0,0 0.0884,0.064 m 0,0 0.0836,0.0395 m 0,0 0.0884,0.0296 m 0,0 0.0933,0.0194 m 0,0 0.0981,0.005 m 0,0 h 7.71467 m 0,0 v 5.59254 m 0,0 -0.005,0.0935 m 0,0 -0.0194,0.0935 m 0,0 -0.0296,0.0887 m 0,0 -0.0441,0.0887 m 0,0 -0.054,0.0787 m 0,0 -0.064,0.069 m 0,0 -0.0688,0.0642 m 0,0 -0.0785,0.0543 m 0,0 -0.0836,0.0443 m 0,0 -0.0933,0.0296 m 0,0 -0.0933,0.0194 m 0,0 -0.0933,0.005 m 0,0 h -1.69419 m 0,0 -0.12281,0.005 m 0,0 -0.12766,0.0194 m 0,0 -0.12282,0.0344 m 0,0 -0.11797,0.0443 m 0,0 -0.11288,0.0591 m 0,0 -0.10319,0.069 m 0,0 -0.0981,0.0787 m 0,0 -0.0933,0.0887 m 0,0 -0.0785,0.0986 m 0,0 -0.0688,0.10828 m 0,0 -0.0589,0.11337 m 0,0 -0.0441,0.11821 m 0,0 -0.0296,0.12306 m 0,0 -0.0194,0.12814 m 0,0 -0.01,0.12306 m 0,0 v 0.97561 m 0,0 0.01,0.12815 m 0,0 0.0194,0.12305 m 0,0 0.0296,0.1233 m 0,0 0.0441,0.11822 m 0,0 0.0589,0.11336 m 0,0 0.0688,0.10828 m 0,0 0.0785,0.0986 m 0,0 0.0933,0.0887 m 0,0 0.0981,0.079 m 0,0 0.10319,0.069 m 0,0 0.11288,0.0591 m 0,0 0.11797,0.0443 m 0,0 0.12282,0.0344 m 0,0 0.12766,0.0194 m 0,0 0.12281,0.005 m 0,0 h 4.59642 m 0,0 0.12765,-0.005 m 0,0 0.12282,-0.0194 m 0,0 0.12281,-0.0344 m 0,0 0.11773,-0.0443 m 0,0 0.11288,-0.0591 m 0,0 0.10804,-0.069 m 0,0 0.0981,-0.079 m 0,0 0.0884,-0.0887 m 0,0 0.0785,-0.0986 m 0,0 0.0688,-0.10828 m 0,0 0.0589,-0.11336 m 0,0 0.0443,-0.11822 m 0,0 0.0344,-0.1233 m 0,0 0.0194,-0.12305 m 0,0 0.005,-0.12815 m 0,0 v -36.45749 m 0,0 -0.005,-0.12306 m 0,0 -0.0194,-0.12815 m 0,0 -0.0344,-0.12305 m 0,0 -0.0443,-0.11821 m 0,0 -0.0589,-0.11337 m 0,0 -0.0688,-0.10828 m 0,0 -0.0785,-0.0986 m 0,0 -0.0884,-0.0887 m 0,0 -0.0981,-0.0787 m 0,0 -0.10804,-0.069 m 0,0 -0.11288,-0.0591 m 0,0 -0.11773,-0.0443 m 0,0 -0.12281,-0.0344 m 0,0 -0.12282,-0.0194 m 0,0 -0.12765,-0.005 m 0,0 H 88.369423 m 0,0 -0.12766,0.005 m 0,0 -0.12281,0.0194 m 0,0 -0.12282,0.0344 m 0,0 -0.11797,0.0443 m 0,0 -0.11288,0.0591 m 0,0 -0.10804,0.069 m 0,0 -0.0981,0.0787 m 0,0 -0.0884,0.0887 m 0,0 -0.0785,0.0986 m 0,0 -0.0688,0.10828 m 0,0 -0.0589,0.11337 m 0,0 -0.0441,0.11821 m 0,0 -0.0344,0.12305 m 0,0 -0.0194,0.12815 m 0,0 -0.005,0.12306 m 0,0 0.005,0.12814 m 0,0 0.0194,0.12814 m 0,0 0.01,0.0395 m 0,0 5.28391,21.23198 m 0,0 0.0145,0.0838 m 0,0 0.0441,0.25127 m 0,0 0.01,0.25624 m 0,0 -0.01,0.2513 m 0,0 -0.0441,0.2513 m 0,0 -0.064,0.24635 m 0,0 -0.0884,0.23643 m 0,0 -0.11772,0.22673 m 0,0 -0.13759,0.21681 m 0,0 -0.15722,0.19718 m 0,0 -0.18167,0.17731 m 0,0 -0.19646,0.16255 m 0,0 -0.21123,0.13807 m 0,0 -0.22577,0.11337 m 0,0 -0.23569,0.0935 m 0,0 -0.24554,0.0639 m 0,0 -0.25045,0.0395 m 0,0 -0.25042,0.0145 m 0,0 h -54.98019 m 0,0 -0.25535,-0.0145 m 0,0 -0.24555,-0.0395 m 0,0 -0.24554,-0.0639 m 0,0 -0.23569,-0.0935 m 0,0 -0.22577,-0.11337 m 0,0 -0.21123,-0.13807 m 0,0 -0.2013,-0.16255 m 0,0 -0.17683,-0.17731 m 0,0 -0.15722,-0.19718 m 0,0 -0.13759,-0.21681 m 0,0 -0.11772,-0.22673 m 0,0 -0.0884,-0.23643 m 0,0 -0.0688,-0.24635 m 0,0 -0.0392,-0.2513 m 0,0 -0.01,-0.2513 m 0,0 0.01,-0.25624 m 0,0 0.0392,-0.25127 m 0,0 0.0194,-0.0838 m 0,0 5.28391,-21.23198 m 76.056777,2.37991 H 93.323863 m 0,0 -0.12766,0.005 m 0,0 -0.12281,0.0194 m 0,0 -0.12282,0.0344 m 0,0 -0.11773,0.0443 m 0,0 -0.11288,0.0591 m 0,0 -0.10804,0.069 m 0,0 -0.0981,0.0787 m 0,0 -0.0884,0.0935 m 0,0 -0.0785,0.0986 m 0,0 -0.0688,0.10343 m 0,0 -0.0589,0.11337 m 0,0 -0.0441,0.11821 m 0,0 -0.0344,0.12306 m 0,0 -0.0194,0.12814 m 0,0 -0.005,0.12815 m 0,0 0.005,0.12305 m 0,0 0.0194,0.12815 m 0,0 0.01,0.0395 m 0,0 4.60623,18.52195 m 0,0 0.0492,0.16254 m 0,0 0.0884,0.23642 m 0,0 0.11797,0.22674 m 0,0 0.13759,0.2168 m 0,0 0.15721,0.19718 m 0,0 0.18168,0.17732 m 0,0 0.19645,0.16254 m 0,0 0.21123,0.13808 m 0,0 0.22601,0.11336 m 0,0 0.2357,0.0935 m 0,0 0.24553,0.0639 m 0,0 0.25045,0.0395 m 0,0 0.25045,0.0145 m 0,0 h 15.041447 m 0,0 0.0933,-0.005 m 0,0 0.0933,-0.0194 m 0,0 0.0933,-0.0296 m 0,0 0.0836,-0.0443 m 0,0 0.0785,-0.0543 m 0,0 0.0688,-0.0591 m 0,0 0.064,-0.0739 m 0,0 0.054,-0.0787 m 0,0 0.0441,-0.0838 m 0,0 0.0296,-0.0935 m 0,0 0.0194,-0.0937 m 0,0 0.005,-0.0935 m 0,0 v -20.41404 m 0,0 -0.005,-0.0937 m 0,0 -0.0194,-0.0935 m 0,0 -0.0296,-0.0935 m 0,0 -0.0441,-0.0838 m 0,0 -0.054,-0.079 m 0,0 -0.064,-0.0739 m 0,0 -0.0688,-0.0591 m 0,0 -0.0785,-0.0543 m 0,0 -0.0836,-0.0443 m 0,0 -0.0933,-0.0296 m 0,0 -0.0933,-0.0194 m 0,0 -0.0933,-0.005"
       id="path1"
       inkscape:export-filename="HST Griffleiste.svg"
       inkscape:export-xdpi="96"
       inkscape:export-ydpi="96" />
  </g>
</svg>
