<?xml version="1.0" encoding="UTF-8" standalone="no"?>
<!-- Created with Inkscape (http://www.inkscape.org/) -->

<svg
   width="1000.0002mm"
   height="108.30314mm"
   viewBox="0 0 1000.0002 108.30314"
   version="1.1"
   id="svg1"
   xmlns="http://www.w3.org/2000/svg"
   xmlns:svg="http://www.w3.org/2000/svg">
  <defs
     id="defs1" />
  <g
     id="layer1"
     transform="translate(-846.80993,-41.775767)">
    <path
       style="fill:none;stroke:#000000;stroke-width:4.34625px;stroke-linecap:round;stroke-linejoin:round;stroke-miterlimit:4;stroke-dasharray:none;stroke-opacity:1"
       d="M 1495.0651,43.948892 H 853.14616 m 0,0 -0.66287,0.07384 m 0,0 -0.62637,0.14759 m 0,0 -0.58903,0.258346 m 0,0 -0.55254,0.332099 m 0,0 -0.51602,0.405937 m 0,0 -0.40486,0.516608 m 0,0 -0.36836,0.553527 m 0,0 -0.22068,0.590445 m 0,0 -0.14767,0.627364 m 0,0 -0.0747,0.664282 m 0,0 v 91.48394 m 0,0 0.0747,0.66428 m 0,0 0.14767,0.62736 m 0,0 0.22068,0.59045 m 0,0 0.36836,0.55353 m 0,0 0.40486,0.5166 m 0,0 0.51602,0.40594 m 0,0 0.55254,0.3321 m 0,0 0.58903,0.25835 m 0,0 0.62637,0.14759 m 0,0 0.66287,0.0738 m 0,0 h 16.72195 m 0,0 0.55253,-0.0738 m 0,0 0.62637,-0.14759 m 0,0 0.58904,-0.22143 m 0,0 0.55253,-0.36902 m 0,0 0.51603,-0.40594 m 0,0 0.40485,-0.5166 m 0,0 0.36836,-0.55353 m 0,0 0.22068,-0.59045 m 0,0 0.11034,-0.36901 m 0,0 0.0332,-0.25835 m 0,0 0.0747,-0.73812 m 0,0 v -3.61655 m 0,0 -0.22068,-1.21782 m 0,0 -0.14767,-0.29518 m 0,0 -0.33185,-0.55352 m 0,0 -0.4422,-0.51661 m 0,0 -0.47869,-0.40594 m 0,0 -0.55253,-0.3321 m 0,0 -0.62637,-0.25834 m 0,0 -0.62637,-0.14759 m 0,0 -0.62637,-0.0738 m 0,0 h -7.55068 m 0,0 -0.44219,-0.0365 m 0,0 -0.40485,-0.18451 m 0,0 -0.33185,-0.25835 m 0,0 -0.25802,-0.3321 m 0,0 -0.18418,-0.40593 m 0,0 -0.0332,-0.44286 m 0,0 v -12.47341 m 0,0 0.0332,-0.66428 m 0,0 0.14768,-0.62737 m 0,0 0.25801,-0.59044 m 0,0 0.33185,-0.55353 m 0,0 0.44219,-0.51661 m 0,0 0.4787,-0.40593 m 0,0 0.55253,-0.3321 m 0,0 0.62637,-0.25835 m 0,0 0.62637,-0.14759 m 0,0 0.66287,-0.0738 m 0,0 h 34.47538 m 0,0 0.66287,0.0738 m 0,0 0.62637,0.14759 m 0,0 0.58903,0.25835 m 0,0 0.55253,0.3321 m 0,0 0.51603,0.40593 m 0,0 0.40486,0.51661 m 0,0 0.36835,0.55353 m 0,0 0.22068,0.59044 m 0,0 0.14768,0.62737 m 0,0 0.0747,0.66428 m 0,0 v 12.47341 m 0,0 -0.0747,0.44286 m 0,0 -0.14768,0.40593 m 0,0 -0.25801,0.3321 m 0,0 -0.36835,0.25835 m 0,0 -0.40486,0.18451 m 0,0 -0.40486,0.0365 m 0,0 H 898.889 m 0,0 -0.66287,0.0738 m 0,0 -0.62637,0.14759 m 0,0 -0.58904,0.25834 m 0,0 -0.55253,0.3321 m 0,0 -0.51603,0.40594 m 0,0 -0.40485,0.51661 m 0,0 -0.33185,0.55352 m 0,0 -0.25802,0.59045 m 0,0 -0.14767,0.62736 m 0,0 -0.0747,0.66428 m 0,0 v 3.32132 m 0,0 0.0747,0.66429 m 0,0 0.14767,0.62736 m 0,0 0.25802,0.59044 m 0,0 0.33185,0.55353 m 0,0 0.40485,0.51661 m 0,0 0.51603,0.40594 m 0,0 0.55253,0.33209 m 0,0 0.58904,0.25835 m 0,0 0.62637,0.14759 m 0,0 0.66287,0.0738 m 0,0 h 7.8822 m 0,0 0.66287,-0.0738 m 0,0 0.62637,-0.14759 m 0,0 0.58903,-0.25835 m 0,0 0.55253,-0.33209 m 0,0 0.5152,-0.40594 m 0,0 0.40486,-0.51661 m 0,0 0.33185,-0.55353 m 0,0 0.25801,-0.59044 m 0,0 0.14768,-0.62736 m 0,0 0.0747,-0.66429 m 0,0 V 97.200696 m 0,0 -0.0747,-0.442855 m 0,0 -0.14768,-0.405936 m 0,0 -0.29451,-0.332099 m 0,0 -0.33186,-0.258346 m 0,0 -0.40485,-0.184509 m 0,0 -0.40486,-0.0365 m 0,0 h -9.98165 m 0,0 v 8.303299 m 0,0 h -38.63737 m 0,0 V 57.271454 m 0,0 h 187.47808 m 0,0 v 4.170101 m 0,0 h 99.5586 m 0,0 V 118.8266 m 0,0 h -95.4327 m 0,0 -0.6264,0.0365 m 0,0 -0.6629,0.14759 m 0,0 -0.589,0.25835 m 0,0 -0.5525,0.3321 m 0,0 -0.4787,0.44285 m 0,0 -0.4422,0.47977 m 0,0 -0.3319,0.55353 m 0,0 -0.258,0.59045 m 0,0 -0.1476,0.66428 m 0,0 -0.033,0.62736 m 0,0 v 0.14759 m 0,0 v 20.81361 m 0,0 0.033,0.47978 m 0,0 0.1476,0.66428 m 0,0 0.258,0.59045 m 0,0 0.3319,0.55352 m 0,0 0.4422,0.47978 m 0,0 0.4787,0.44285 m 0,0 0.5525,0.3321 m 0,0 0.589,0.25834 m 0,0 0.6629,0.1476 m 0,0 0.6264,0.0365 m 0,0 0.6629,-0.0365 m 0,0 0.6263,-0.1476 m 0,0 0.5891,-0.25834 m 0,0 0.5525,-0.3321 m 0,0 0.516,-0.44285 m 0,0 0.4049,-0.47978 m 0,0 0.3683,-0.55352 m 0,0 0.2207,-0.59045 m 0,0 0.1477,-0.66428 m 0,0 0.075,-0.62737 m 0,0 v -4.98198 m 0,0 0.033,-0.66428 m 0,0 0.1477,-0.62736 m 0,0 0.258,-0.62737 m 0,0 0.3319,-0.55352 m 0,0 0.4422,-0.47978 m 0,0 0.4787,-0.44285 m 0,0 0.5525,-0.3321 m 0,0 0.6264,-0.25835 m 0,0 0.6263,-0.14759 m 0,0 0.6264,-0.0365 m 0,0 h 72.4497 m 0,0 0.6629,0.0365 m 0,0 0.6263,0.14759 m 0,0 0.5891,0.25835 m 0,0 0.5525,0.3321 m 0,0 0.516,0.44285 m 0,0 0.4049,0.47978 m 0,0 0.3683,0.55352 m 0,0 0.2207,0.62737 m 0,0 0.1477,0.62736 m 0,0 0.075,0.66428 m 0,0 -0.033,0.40594 m 0,0 v 0.40593 m 0,0 0.033,0.66429 m 0,0 0.1476,0.62736 m 0,0 0.2581,0.59045 m 0,0 0.3318,0.55352 m 0,0 0.4422,0.51661 m 0,0 0.4787,0.40594 m 0,0 0.5525,0.3321 m 0,0 0.5891,0.25834 m 0,0 0.6628,0.14759 m 0,0 0.6629,0.0738 m 0,0 h 42.0629 m 0,0 0.6629,-0.0738 m 0,0 0.6263,-0.14759 m 0,0 0.6264,-0.25834 m 0,0 0.5525,-0.3321 m 0,0 0.4787,-0.40594 m 0,0 0.4422,-0.51661 m 0,0 0.3318,-0.55352 m 0,0 0.258,-0.59045 m 0,0 0.1477,-0.62736 m 0,0 0.033,-0.66429 m 0,0 v -3.32131 m 0,0 -0.033,-0.66429 m 0,0 -0.1477,-0.62736 m 0,0 -0.258,-0.59044 m 0,0 -0.3318,-0.55353 m 0,0 -0.4422,-0.51661 m 0,0 -0.4787,-0.40594 m 0,0 -0.5525,-0.3321 m 0,0 -0.6264,-0.25834 m 0,0 -0.6263,-0.14759 m 0,0 -0.6629,-0.0738 m 0,0 h -24.0517 m 0,0 V 88.860552 m 0,0 h 14.954 m 0,0 0.4049,-0.0365 m 0,0 0.4048,-0.184509 m 0,0 0.3319,-0.258346 m 0,0 0.2945,-0.332099 m 0,0 0.1477,-0.405936 m 0,0 0.075,-0.442855 m 0,0 v -8.303732 m 0,0 -0.075,-0.442855 m 0,0 -0.1477,-0.405936 m 0,0 -0.2945,-0.332183 m 0,0 -0.3319,-0.258346 m 0,0 -0.4048,-0.184508 m 0,0 -0.4049,-0.0365 m 0,0 h -14.954 m 0,0 V 57.271408 m 0,0 h 126.1148 m 0,0 v 19.964831 m 0,0 h -14.9171 m 0,0 -0.4422,0.0365 m 0,0 -0.4049,0.184508 m 0,0 -0.3318,0.258346 m 0,0 -0.258,0.332183 m 0,0 -0.1842,0.405936 m 0,0 -0.033,0.442855 m 0,0 v 8.3033 m 0,0 0.033,0.442855 m 0,0 0.1842,0.405936 m 0,0 0.258,0.3321 m 0,0 0.3318,0.258346 m 0,0 0.4049,0.184509 m 0,0 0.4422,0.0365 m 0,0 h 14.9171 m 0,0 v 43.250977 m 0,0 h -24.0516 m 0,0 -0.6628,0.0738 m 0,0 -0.6264,0.14759 m 0,0 -0.589,0.25834 m 0,0 -0.5526,0.3321 m 0,0 -0.516,0.40594 m 0,0 -0.4049,0.51661 m 0,0 -0.3318,0.55352 m 0,0 -0.258,0.59045 m 0,0 -0.1477,0.62736 m 0,0 -0.075,0.66428 m 0,0 v 3.32132 m 0,0 0.075,0.66429 m 0,0 0.1477,0.62736 m 0,0 0.258,0.59044 m 0,0 0.3318,0.55353 m 0,0 0.4049,0.51661 m 0,0 0.516,0.40594 m 0,0 0.5526,0.3321 m 0,0 0.589,0.25834 m 0,0 0.6264,0.14759 m 0,0 0.6628,0.0738 m 0,0 h 31.5287 m 0,0 0.6629,-0.0738 m 0,0 0.6264,-0.14759 m 0,0 0.589,-0.25834 m 0,0 0.5525,-0.3321 m 0,0 0.5161,-0.40594 m 0,0 0.4048,-0.51661 m 0,0 0.3319,-0.55353 m 0,0 0.258,-0.59044 m 0,0 0.1477,-0.62736 m 0,0 0.075,-0.66429 m 0,0 V 57.270595 m 0,0 h 58.0851 m 0,0 v 82.331855 m 0,0 0.033,0.66429 m 0,0 0.1477,0.62736 m 0,0 0.258,0.59044 m 0,0 0.3318,0.55353 m 0,0 0.4422,0.51661 m 0,0 0.4787,0.40594 m 0,0 0.5525,0.3321 m 0,0 0.5891,0.25834 m 0,0 0.6628,0.14759 m 0,0 0.6264,0.0738 m 0,0 h 31.5287 m 0,0 0.6629,-0.0738 m 0,0 0.6264,-0.14759 m 0,0 0.589,-0.25834 m 0,0 0.5525,-0.3321 m 0,0 0.5161,-0.40594 m 0,0 0.4048,-0.51661 m 0,0 0.3684,-0.55353 m 0,0 0.2206,-0.59044 m 0,0 0.1477,-0.62736 m 0,0 0.075,-0.66429 m 0,0 v -3.32132 m 0,0 -0.075,-0.66428 m 0,0 -0.1477,-0.62736 m 0,0 -0.2206,-0.59045 m 0,0 -0.3684,-0.55352 m 0,0 -0.4048,-0.51661 m 0,0 -0.5161,-0.40594 m 0,0 -0.5525,-0.3321 m 0,0 -0.589,-0.25834 m 0,0 -0.6264,-0.14759 m 0,0 -0.6629,-0.0738 m 0,0 h -24.0518 m 0,0 V 88.86012 m 0,0 h 14.9171 m 0,0 0.4422,-0.0365 m 0,0 0.4049,-0.184509 m 0,0 0.3318,-0.258346 m 0,0 0.258,-0.3321 m 0,0 0.1842,-0.405936 m 0,0 0.033,-0.442855 m 0,0 v -8.3033 m 0,0 -0.033,-0.442855 m 0,0 -0.1842,-0.405936 m 0,0 -0.258,-0.332183 m 0,0 -0.3318,-0.258346 m 0,0 -0.4049,-0.184508 m 0,0 -0.4422,-0.0365 m 0,0 h -14.9171 m 0,0 V 57.271408 m 0,0 H 1489.5 m 0,0 4.6041,19.964831 m 0,0 h -21.9891 m 0,0 -0.4422,0.0365 m 0,0 -0.4048,0.184508 m 0,0 -0.331,0.258346 m 0,0 -0.2581,0.332183 m 0,0 -0.1841,0.405936 m 0,0 -0.033,0.442855 m 0,0 v 8.3033 m 0,0 0.033,0.442855 m 0,0 0.1841,0.405936 m 0,0 0.2581,0.3321 m 0,0 0.331,0.258346 m 0,0 0.4048,0.184509 m 0,0 0.4422,0.0365 m 0,0 h 14.9172 m 0,0 v 18.304177 m 0,0 h 13.9596 m 0,0 3.8306,16.6435 m 0,0 h -17.7902 m 0,0 v 8.3033 m 0,0 H 1468.8 m 0,0 -0.6629,0.0738 m 0,0 -0.6263,0.14759 m 0,0 -0.5891,0.25834 m 0,0 -0.589,0.3321 m 0,0 -0.4787,0.40594 m 0,0 -0.4049,0.51661 m 0,0 -0.3683,0.55352 m 0,0 -0.2207,0.59045 m 0,0 -0.1842,0.62736 m 0,0 -0.033,0.66428 m 0,0 v 3.32132 m 0,0 0.033,0.66429 m 0,0 0.1842,0.62736 m 0,0 0.2207,0.59044 m 0,0 0.3683,0.55353 m 0,0 0.4049,0.51661 m 0,0 0.4787,0.40594 m 0,0 0.589,0.3321 m 0,0 0.5891,0.25834 m 0,0 0.6263,0.14759 m 0,0 0.6629,0.0738 m 0,0 h 42.1366 m 0,0 0.589,-0.0738 m 0,0 0.6629,-0.14759 m 0,0 0.589,-0.25834 m 0,0 0.5525,-0.3321 m 0,0 0.4787,-0.40594 m 0,0 0.4422,-0.51661 m 0,0 0.3319,-0.55353 m 0,0 0.258,-0.59044 m 0,0 0.1477,-0.62736 m 0,0 0.033,-0.66429 m 0,0 v -0.40593 m 0,0 -0.033,-0.40594 m 0,0 0.075,-0.66428 m 0,0 0.1477,-0.62736 m 0,0 0.258,-0.62737 m 0,0 0.3319,-0.55353 m 0,0 0.4048,-0.47977 m 0,0 0.5161,-0.44285 m 0,0 0.5525,-0.3321 m 0,0 0.589,-0.25835 m 0,0 0.6264,-0.14759 m 0,0 0.6629,-0.0365 m 0,0 h 113.9232 m 0,0 0.6629,0.0365 m 0,0 0.6263,0.14759 m 0,0 0.5891,0.25835 m 0,0 0.5525,0.3321 m 0,0 0.516,0.44285 m 0,0 0.4049,0.47977 m 0,0 0.3318,0.55353 m 0,0 0.2581,0.62737 m 0,0 0.1476,0.62736 m 0,0 0.075,0.66428 m 0,0 v 4.98198 m 0,0 0.033,0.62737 m 0,0 0.1477,0.66428 m 0,0 0.258,0.59044 m 0,0 0.3318,0.55353 m 0,0 0.4422,0.47977 m 0,0 0.4787,0.44286 m 0,0 0.5525,0.3321 m 0,0 0.5891,0.25834 m 0,0 0.6628,0.14759 m 0,0 0.6264,0.0365 m 0,0 0.6629,-0.0365 m 0,0 0.6264,-0.14759 m 0,0 0.589,-0.25834 m 0,0 0.5525,-0.3321 m 0,0 0.516,-0.44286 m 0,0 0.4049,-0.47977 m 0,0 0.3684,-0.55353 m 0,0 0.2206,-0.59044 m 0,0 0.1477,-0.66428 m 0,0 0.075,-0.62737 m 0,0 v -0.14759 m 0,0 v -20.81361 m 0,0 -0.075,-0.47977 m 0,0 -0.1477,-0.66429 m 0,0 -0.2206,-0.59044 m 0,0 -0.3684,-0.55353 m 0,0 -0.4049,-0.47977 m 0,0 -0.516,-0.44286 m 0,0 -0.5525,-0.33209 m 0,0 -0.589,-0.25835 m 0,0 -0.6264,-0.14759 m 0,0 -0.6629,-0.0365 m 0,0 h -46.9616 m 0,0 v -57.385 m 0,0 h 51.1237 m 0,0 v -4.170101 m 0,0 h 187.478 m 0,0 v 46.572301 m 0,0 h -38.6742 m 0,0 v -8.303304 m 0,0 h -9.9448 m 0,0 -0.4422,0.0365 m 0,0 -0.4049,0.184509 m 0,0 -0.3318,0.258345 m 0,0 -0.258,0.3321 m 0,0 -0.1842,0.405936 m 0,0 -0.033,0.442855 m 0,0 v 42.402199 m 0,0 0.033,0.66428 m 0,0 0.1477,0.62737 m 0,0 0.258,0.59044 m 0,0 0.3318,0.55353 m 0,0 0.4422,0.51661 m 0,0 0.4787,0.40593 m 0,0 0.5525,0.3321 m 0,0 0.6264,0.25835 m 0,0 0.6264,0.14759 m 0,0 0.6263,0.0738 m 0,0 h 7.8822 m 0,0 0.6628,-0.0738 m 0,0 0.6264,-0.14759 m 0,0 0.6264,-0.25835 m 0,0 0.5525,-0.3321 m 0,0 0.4787,-0.40593 m 0,0 0.4422,-0.51661 m 0,0 0.3318,-0.55353 m 0,0 0.2581,-0.59044 m 0,0 0.1476,-0.62737 m 0,0 0.033,-0.66428 m 0,0 v -3.32132 m 0,0 -0.033,-0.66428 m 0,0 -0.1476,-0.62736 m 0,0 -0.2581,-0.59045 m 0,0 -0.3318,-0.55352 m 0,0 -0.4422,-0.51661 m 0,0 -0.4787,-0.40594 m 0,0 -0.5525,-0.3321 m 0,0 -0.6264,-0.25834 m 0,0 -0.6264,-0.1476 m 0,0 -0.6628,-0.0738 m 0,0 h -2.873 m 0,0 -0.4421,-0.0365 m 0,0 -0.4049,-0.1845 m 0,0 -0.3319,-0.25835 m 0,0 -0.258,-0.3321 m 0,0 -0.1841,-0.40594 m 0,0 -0.033,-0.44285 m 0,0 v -12.47341 m 0,0 0.033,-0.66428 m 0,0 0.1468,-0.62737 m 0,0 0.258,-0.59044 m 0,0 0.3319,-0.55353 m 0,0 0.4422,-0.51661 m 0,0 0.4787,-0.40593 m 0,0 0.5525,-0.3321 m 0,0 0.589,-0.25835 m 0,0 0.6629,-0.14759 m 0,0 0.6264,-0.0738 m 0,0 h 34.5121 m 0,0 0.6629,0.0738 m 0,0 0.6263,0.14759 m 0,0 0.5891,0.25835 m 0,0 0.5525,0.3321 m 0,0 0.516,0.40593 m 0,0 0.4049,0.51661 m 0,0 0.3318,0.55353 m 0,0 0.258,0.59044 m 0,0 0.1477,0.62737 m 0,0 0.075,0.66428 m 0,0 v 12.47341 m 0,0 -0.075,0.44285 m 0,0 -0.1477,0.40594 m 0,0 -0.2945,0.3321 m 0,0 -0.3318,0.25835 m 0,0 -0.4049,0.1845 m 0,0 -0.4422,0.0365 m 0,0 h -7.5138 m 0,0 -0.6629,0.0738 m 0,0 -0.6264,0.1476 m 0,0 -0.589,0.25834 m 0,0 -0.5525,0.3321 m 0,0 -0.516,0.40594 m 0,0 -0.4049,0.51661 m 0,0 -0.3319,0.55352 m 0,0 -0.1476,0.29518 m 0,0 -0.2207,1.21782 m 0,0 v 3.91178 m 0,0 0.033,0.44286 m 0,0 0.1476,0.62736 m 0,0 0.2581,0.59044 m 0,0 0.3318,0.55353 m 0,0 0.4422,0.51661 m 0,0 0.4787,0.40594 m 0,0 0.5525,0.36901 m 0,0 0.5891,0.22143 m 0,0 0.6628,0.14759 m 0,0 0.7367,0.0738 m 0,0 h 16.5379 m 0,0 0.6264,-0.0738 m 0,0 0.6263,-0.14759 m 0,0 0.6264,-0.25834 m 0,0 0.5525,-0.3321 m 0,0 0.4787,-0.40594 m 0,0 0.4422,-0.51661 m 0,0 0.3319,-0.55353 m 0,0 0.258,-0.59044 m 0,0 0.1477,-0.62736 m 0,0 0.033,-0.66429 m 0,0 V 48.119001 m 0,0 -0.033,-0.664282 m 0,0 -0.1477,-0.627363 m 0,0 -0.258,-0.590445 m 0,0 -0.3319,-0.553527 m 0,0 -0.4422,-0.516609 m 0,0 -0.4787,-0.405936 m 0,0 -0.5525,-0.332099 m 0,0 -0.6264,-0.258346 m 0,0 -0.6263,-0.147591 m 0,0 -0.6264,-0.07384 m 0,0 h -269.799 m 0,0 -0.6264,0.07384 m 0,0 -0.6264,0.147591 m 0,0 -0.6263,0.258346 m 0,0 -0.5526,0.332099 m 0,0 -0.4787,0.405936 m 0,0 -0.4422,0.516609 m 0,0 -0.3318,0.553527 m 0,0 -0.258,0.590445 m 0,0 -0.1477,0.627363 m 0,0 -0.033,0.664282 m 0,0 v 9.152084 m 0,0 0.033,0.627364 m 0,0 0.1477,0.664282 m 0,0 0.258,0.590445 m 0,0 0.3318,0.553527 m 0,0 0.4422,0.516608 m 0,0 0.4787,0.405936 m 0,0 0.5526,0.3321 m 0,0 0.6263,0.258346 m 0,0 0.6264,0.14759 m 0,0 0.6264,0.07384 m 0,0 h 15.396 m 0,0 v 4.133199 m 0,0 h -1.6574 m 0,0 v 49.081738 m 0,0 h 1.6574 m 0,0 v 4.17011 m 0,0 h -70.5344 m 0,0 -16.5011,-71.629826 m 0,0 -0.075,-0.369018 m 0,0 -0.258,-0.590446 m 0,0 -0.3319,-0.553526 m 0,0 -0.4422,-0.516609 m 0,0 -0.4787,-0.405936 m 0,0 -0.5525,-0.3321 m 0,0 -0.6264,-0.258345 m 0,0 -0.6263,-0.147591 m 0,0 -0.6264,-0.07384"
       id="path1" />
    <path
       style="fill:none;stroke:#000000;stroke-width:0.0368326px;stroke-linecap:round;stroke-linejoin:round;stroke-miterlimit:4;stroke-dasharray:none;stroke-opacity:1"
       d="m 1844.0542,140.82076 0.5525,-0.55353 m -12.8914,2.32492 3.5359,-3.54273 m 3.5359,-3.54275 3.4992,-3.50584 m -21.2157,10.66514 1.8417,-1.84519 m 3.5359,-3.54274 3.5359,-3.50584 m 3.4992,-3.54274 3.5359,-3.54274 m 3.4991,-3.50585 3.5359,-3.54273 m -8.803,-1.77137 3.5359,-3.50585 m 3.4992,-3.54273 2.3573,-2.36183 m -14.6595,4.1332 3.4992,-3.54275 m 3.5359,-3.50584 3.4991,-3.54273 m 3.5359,-3.54275 0.589,-0.590446 m -55.1384,44.727126 3.4991,-3.54274 m 3.5359,-3.54274 1.6206,-1.62376 m 20.0002,-20.07554 3.0202,-2.98919 m 3.4991,-3.54274 3.4623,-3.43204 m 4.8619,-4.871264 2.2468,-2.251117 m 3.5359,-3.542746 3.4991,-3.542738 m -58.085,47.642505 3.5359,-3.50584 m 19.8897,-19.96483 1.2154,-1.21782 m 3.5359,-3.54274 3.4991,-3.50584 m 17.606,-17.676812 3.536,-3.505836 m 3.4991,-3.542737 3.5359,-3.505845 m -58.0851,47.60561 3.536,-3.50585 m 10.5341,-10.59132 3.5359,-3.54274 m 31.6761,-31.737068 3.5359,-3.542746 m 3.4991,-3.505836 2.3573,-2.398733 m -61.9156,51.517383 1.4733,-1.51305 m 3.5359,-3.50584 3.4991,-3.54274 m 3.5359,-3.50584 1.6575,-1.69757 m 36.5748,-36.645239 0.4787,-0.479773 m 3.5359,-3.542746 3.4991,-3.505836 m 3.5359,-3.542746 0.589,-0.590446 m -61.9156,51.480476 3.2412,-3.24751 m 3.536,-3.54275 3.4991,-3.505836 m 39.3372,-39.449912 2.9098,-2.915383 m 3.5359,-3.542746 3.4991,-3.505836 m -20.4789,9.963965 1.105,-1.144014 m 3.5359,-3.542738 3.5359,-3.505844 m 3.4991,-3.542738 1.5838,-1.58686 m -20.9209,10.406811 3.4991,-3.542746 m 3.5359,-3.505836 3.315,-3.358229 m -22.6889,12.17818 3.5359,-3.542738 m 3.4991,-3.505844 3.5359,-3.542738 m -22.2837,11.735334 2.9098,-2.915383 m 3.5359,-3.542746 3.4991,-3.505836 m -20.479,9.963965 1.1419,-1.144014 m 3.4991,-3.542738 3.5359,-3.505844 m 3.4991,-3.542738 1.5838,-1.58686 m -20.9209,10.406811 3.4991,-3.542746 m 3.5359,-3.505836 3.315,-3.358229 m -22.6889,12.17818 3.5359,-3.542738 m 3.4991,-3.505844 3.5359,-3.542738 m -22.2469,11.735334 2.873,-2.915383 m 3.5359,-3.542746 3.4991,-3.505836 m -20.4789,9.963965 1.1418,-1.144014 m 3.4991,-3.542738 3.5359,-3.505844 m 3.4991,-3.542738 1.5838,-1.58686 m -112.45,102.149072 3.5359,-3.50583 m 3.4991,-3.54274 0.3684,-0.36902 m 84.1257,-84.324646 3.4991,-3.542746 m 3.5359,-3.505836 3.3517,-3.358229 m -100.1478,89.823287 3.4991,-3.54275 m 73.923,-74.102357 3.536,-3.542738 m 3.4991,-3.505844 3.5359,-3.542738 m -99.4113,89.085207 2.6152,-2.62015 m 3.4991,-3.54275 3.5359,-3.54273 m 3.5359,-3.50585 1.9153,-1.95588 m 62.063,-62.182514 2.8729,-2.915382 m 3.536,-3.542746 3.5359,-3.505836 m -97.6801,87.313838 0.8471,-0.84878 m 3.536,-3.54275 3.4991,-3.54273 m 3.5359,-3.50585 3.5359,-3.54274 m 62.2104,-62.367024 1.1418,-1.144013 m 3.499,-3.542738 3.536,-3.505844 m 3.5359,-3.542738 1.5469,-1.58686 m -98.3798,88.051917 3.5358,-3.54275 m 3.536,-3.54273 3.4991,-3.50585 m 66.8881,-67.053776 3.5358,-3.542746 m 3.4992,-3.505836 3.3517,-3.358229 m -100.1478,89.823287 3.4991,-3.54275 m 3.5358,-3.54273 3.536,-3.50585 m 3.4991,-3.54274 0.8471,-0.81187 m 62.505,-62.699159 3.536,-3.542738 m 3.5358,-3.505844 3.4992,-3.542737 m -99.4113,89.085208 2.6152,-2.62015 m 3.5359,-3.54275 3.499,-3.54273 m 3.536,-3.50585 2.5783,-2.58325 m 61.4,-61.555145 2.9098,-2.915383 m 3.4991,-3.542746 3.5358,-3.505836 m -97.68,87.31384 0.8471,-0.84878 m 3.536,-3.54275 3.5359,-3.54274 m 3.499,-3.50584 3.536,-3.54274 m 3.4991,-3.54274 0.2945,-0.25835 m 58.4165,-58.56596 1.1418,-1.144014 m 3.536,-3.542737 3.4991,-3.505845 m 3.5359,-3.542737 1.5838,-1.58686 m -98.3799,88.051913 3.4991,-3.54274 m 3.5359,-3.54274 3.4991,-3.50584 m 6.7404,-6.75335 0.2945,-0.29527 m 3.5359,-3.54274 3.536,-3.54274 m 45.7461,-45.871134 3.5359,-3.505844 m 3.4991,-3.542738 3.5359,-3.542746 m 3.4991,-3.505836 3.3518,-3.358228 m -100.1479,89.823286 3.5359,-3.54275 m 3.4991,-3.54273 3.536,-3.50585 m 3.4991,-3.54274 0.8471,-0.81187 m 14.1437,-14.20787 2.6151,-2.62015 m 3.536,-3.542745 3.4991,-3.505836 m 33.444,-33.508443 1.768,-1.771369 m 3.5359,-3.542746 3.4991,-3.542737 m 3.5359,-3.505845 3.4991,-3.542737 m -99.4112,89.085208 2.6151,-2.62015 m 3.5359,-3.54275 3.4991,-3.54273 m 3.536,-3.50585 2.5782,-2.58325 m 25.5619,-25.647978 3.5359,-3.542738 m 3.536,-3.505844 2.0258,-2.0666 m 22.5783,-22.621884 0.033,-0.0365 m 3.4991,-3.505845 3.5359,-3.542737 m 3.4991,-3.542746 3.536,-3.505836 m -97.6802,87.313838 0.8841,-0.84878 m 3.499,-3.54275 3.536,-3.54274 m 3.4991,-3.50584 3.5359,-3.54274 m 38.7111,-38.822546 3.5359,-3.505844 m 3.4991,-3.542746 0.2945,-0.295181 m 13.8123,-13.801933 3.4991,-3.542746 m 3.5359,-3.542738 3.4991,-3.505844 m 3.5359,-3.542738 1.5838,-1.586859 m -98.3799,88.051915 3.499,-3.54275 m 3.536,-3.54273 3.4991,-3.50585 m 48.4349,-48.52818 0.8472,-0.885693 m 3.5359,-3.505836 3.536,-3.542746 m 3.499,-3.542738 3.536,-3.505844 m 3.4991,-3.542738 3.5359,-3.542746 m 3.4991,-3.505836 3.3517,-3.358228 m -107.1829,96.871865 3.5359,-3.54275 m 3.4992,-3.50583 3.5359,-3.54275 m 3.499,-3.54274 3.536,-3.50584 m 3.4991,-3.54274 0.8471,-0.81187 m 57.238,-57.385043 1.7679,-1.771369 m 3.5359,-3.542746 3.4992,-3.542737 m 3.5359,-3.505845 3.4991,-3.542737 m -107.3671,97.056377 3.5359,-3.54274 m 3.5359,-3.54275 3.4992,-3.50583 m 3.5359,-3.54275 3.499,-3.54274 m 3.536,-3.50584 2.5783,-2.58325 m 57.2379,-57.385043 0.033,-0.0365 m 3.499,-3.505845 3.536,-3.542737 m 3.4991,-3.542746 3.536,-3.505836 m -106.7779,96.465927 2.9467,-2.95228 m 3.499,-3.54275 3.536,-3.50584 m 3.4991,-3.54274 3.5359,-3.54274 m 5.1934,-5.2034 1.8416,-1.84518 m 3.536,-3.54275 3.4991,-3.50583 m 53.702,-53.842315 2.6151,-2.620151 m 3.5359,-3.542738 3.4991,-3.505844 m 3.536,-3.542738 1.5837,-1.58686 m -110.1295,99.824156 1.1786,-1.18091 m 3.536,-3.54274 3.4991,-3.54275 m 10.5709,-10.59132 1.1419,-1.10711 m 12.9282,-12.99005 3.536,-3.54275 m 3.499,-3.50583 0.589,-0.59045 m 55.7646,-55.872001 3.315,-3.358228 m -106.3727,96.059989 2.7257,-2.73086 m 3.4991,-3.50584 1.6574,-1.66066 m 26.5195,-26.57057 3.4991,-3.54274 m 3.5359,-3.542746 3.536,-3.505836 m -22.6153,12.030562 3.2413,-3.21061 m 3.4991,-3.54274 3.5359,-3.505843 m 3.536,-3.542746 3.4991,-3.542738 m 3.5359,-3.505844 0.1477,-0.147591 m -19.5214,8.967575 3.536,-3.542746 m 3.4991,-3.542746 3.5359,-3.505836 m 3.4992,-3.542738 3.4622,-3.432032 m -22.0259,11.477004 2.7256,-2.730866 m 3.5359,-3.542737 3.4992,-3.542746 m 3.5358,-3.505836 3.536,-3.542746 m -27.4035,16.864931 0.9945,-0.996398 m 3.4991,-3.505836 3.5359,-3.542738 m 3.536,-3.505844 0.033,-0.07384 m 7.3665,-7.343813 3.1307,-3.173703 m 3.536,-3.542746 3.0203,-3.026096 m -29.4293,18.894629 1.8416,-1.808271 m 19.2635,-19.337475 3.5359,-3.542738 m -13.4439,2.915382 1.1418,-1.144013 m 3.4991,-3.542738 3.5359,-3.505844 m 3.4991,-3.542738 1.2155,-1.217817 m -109.7612,99.455108 1.1786,-1.18092 m 3.536,-3.54273 3.2044,-3.21062 m 81.2896,-81.48307 3.4992,-3.542746 m 3.5358,-3.505836 3.315,-3.358229 m -107.183,96.871861 3.536,-3.54274 m 3.5359,-3.50584 1.6206,-1.66066 m 75.8016,-75.984441 3.5359,-3.542738 m 3.4992,-3.505844 3.5358,-3.542738 m -107.3548,97.055521 3.4991,-3.54274 m 3.536,-3.54274 3.3886,-3.39514 m 74.6597,-74.840422 2.9098,-2.915382 m 3.5359,-3.542746 3.4991,-3.505836 m -105.6728,95.321906 1.8417,-1.80827 m 3.5358,-3.54275 3.4992,-3.50583 m 76.3171,-76.501092 1.1419,-1.144014 m 3.4991,-3.542737 3.5359,-3.505845 m 3.4991,-3.542737 1.5838,-1.58686 m -98.3799,88.051915 3.5359,-3.54275 m 3.4991,-3.54273 3.2045,-3.17372 m 67.2195,-67.385904 3.4991,-3.542746 m 3.5359,-3.505836 3.315,-3.358229 m -86.041,75.689215 3.5358,-3.54274 m 3.4992,-3.50584 1.4365,-1.43924 m 54.8806,-55.023216 3.5359,-3.542737 m 3.4991,-3.505845 3.5359,-3.542737 m -77.0539,66.684745 1.3629,-1.40234 m 3.5359,-3.54274 3.4991,-3.50584 m 17.606,-17.639907 2.1731,-2.214215 m 26.63,-26.64437 2.873,-2.915382 m 3.5359,-3.542746 3.4991,-3.505836 m -64.715,54.322046 3.1309,-3.173702 m 3.5358,-3.505836 3.4992,-3.542746 m 3.5359,-3.542746 3.4991,-3.505836 m 3.5359,-3.542738 3.4991,-3.505844 m 20.0001,-20.038634 1.1419,-1.144014 m 3.4991,-3.542737 3.5359,-3.505845 m 3.5359,-3.542737 1.547,-1.58686 m -56.1329,45.686622 3.5359,-3.505844 m 3.4991,-3.542738 3.5359,-3.542746 m 24.6411,-24.688483 3.4991,-3.542746 m 3.5359,-3.505836 3.3517,-3.358229 m -107.1828,96.871865 2.1363,-2.14041 m 61.2158,-61.370628 3.5358,-3.542746 m 3.4992,-3.542738 1.4365,-1.402334 m 12.6335,-12.69483 3.536,-3.542737 m 3.5359,-3.505845 3.4991,-3.542737 m -107.3671,97.056375 3.536,-3.54274 m 3.499,-3.54274 3.5359,-3.50584 m 3.4992,-3.54275 0.4048,-0.36901 m 58.0851,-58.23383 1.3628,-1.365432 m 3.5359,-3.542746 3.4991,-3.542738 m 4.1621,-4.133199 2.873,-2.915383 m 3.5358,-3.542746 3.536,-3.505836 m -106.8146,96.4659 2.9466,-2.95228 m 3.5359,-3.54275 3.4991,-3.50583 m 4.6041,-4.61295 2.4678,-2.47254 m 3.4991,-3.50584 3.5359,-3.54274 m 60.2213,-60.374234 3.1308,-3.136802 m 3.5359,-3.542737 3.4991,-3.505845 m 3.536,-3.542737 1.547,-1.58686 m -109.9823,99.713445 1.0682,-1.07021 m 3.4991,-3.54274 3.5359,-3.54274 m 17.606,-17.63991 3.4991,-3.50584 m 3.5359,-3.54274 3.4991,-3.54274 m 52.818,-52.919714 3.5359,-3.542746 m 3.4991,-3.505836 3.3518,-3.358229 m -100.1479,89.823285 1.6206,-1.66067 m 26.5564,-26.57056 3.4991,-3.54274 m 3.5359,-3.542742 2.1363,-2.140412 m 40.1107,-40.187982 3.4991,-3.542737 m 3.5359,-3.505845 3.4991,-3.542737 m -62.2839,51.849511 0.6993,-0.664282 m 3.4991,-3.542746 3.536,-3.542738 m 3.4991,-3.505844 0.4049,-0.369018 m 28.3979,-28.48955 2.9098,-2.915382 m 3.4991,-3.542746 3.5359,-3.505836 m -51.05,40.557016 3.5359,-3.505836 m 3.4991,-3.542738 3.536,-3.505844 m 19.9632,-20.038634 1.1418,-1.144014 m 3.536,-3.542737 3.4991,-3.505845 m 3.5359,-3.542737 1.5838,-1.58686 m -55.3962,44.911643 2.7624,-2.730865 m 3.5359,-3.542738 3.4991,-3.542746 m 3.536,-3.505836 3.499,-3.542746 m 3.536,-3.505836 3.4991,-3.542746 m 10.5709,-10.591319 3.536,-3.542746 m 3.4991,-3.505836 3.3518,-3.358229 m -48.7665,38.305907 1.4365,-1.439236 m 3.4991,-3.505844 0.075,-0.07384 m 14.0332,-14.060262 3.4991,-3.505836 m 3.536,-3.542746 3.499,-3.542738 m 3.536,-3.505844 3.4991,-3.542737 m -22.247,11.735333 2.9099,-2.915383 m 3.499,-3.542746 3.536,-3.505836 m -20.5158,9.963965 1.1418,-1.144014 m 3.536,-3.542738 3.4991,-3.505844 m 3.5359,-3.542737 1.5838,-1.58686 m -110.1295,99.824151 1.1786,-1.18091 m 3.5359,-3.54274 3.4991,-3.54275 m 80.9581,-81.150941 3.536,-3.542746 m 3.4991,-3.505836 3.3518,-3.358228 m -107.183,96.871871 3.5359,-3.54275 m 3.4991,-3.50584 1.6207,-1.66066 m 75.8383,-75.984442 3.4991,-3.542738 m 3.536,-3.505844 3.5359,-3.542737 m -107.3673,97.056411 3.4992,-3.54274 m 3.5358,-3.54274 3.3886,-3.39514 m 74.6598,-74.840425 2.9097,-2.915382 m 3.4992,-3.542746 3.5359,-3.505836 m -106.7778,96.465919 2.9466,-2.95228 m 3.4992,-3.54275 3.5358,-3.50583 m 3.4991,-3.54275 1.6944,-1.69755 m 71.087,-71.260795 1.1417,-1.144014 m 3.5359,-3.542737 3.536,-3.505845 m 3.4991,-3.542737 1.5838,-1.58686 m -105.415,95.100498 3.4992,-3.54274 m 3.5358,-3.50584 3.4991,-3.54275 m 3.536,-3.54273 3.5359,-3.50585 m 66.8512,-67.053777 3.5359,-3.542746 m 3.536,-3.505836 3.3149,-3.358229 m -100.1478,89.823288 3.5359,-3.54275 m 3.499,-3.54274 3.536,-3.50584 m 3.5359,-3.54274 3.4992,-3.54274 m 3.5358,-3.50584 3.4991,-3.54275 m 52.818,-52.919709 3.4992,-3.542737 m 3.5358,-3.505845 3.536,-3.542737 m -99.4481,89.085208 2.6152,-2.62015 m 3.5359,-3.54275 3.5359,-3.54273 m 3.4991,-3.50585 2.5783,-2.58325 m 11.4917,-11.55081 3.536,-3.50584 m 3.5359,-3.54275 3.4255,-3.46893 m 10.6446,-10.62823 3.4991,-3.542738 m 25.2672,-25.315847 2.9097,-2.915382 m 3.536,-3.542746 3.499,-3.505836 m -97.6432,87.313839 0.8471,-0.84878 m 3.4992,-3.54275 3.5359,-3.54274 m 3.5359,-3.50584 3.4991,-3.54274 m 24.6411,-24.688481 3.5358,-3.542746 m 3.4991,-3.542746 3.536,-3.505836 m 3.4991,-3.542738 3.536,-3.505844 m 20,-20.038634 1.105,-1.144014 m 3.5359,-3.542737 3.536,-3.505845 m 3.499,-3.542737 1.5839,-1.58686 m -98.38,88.051918 3.536,-3.54275 m 3.4991,-3.54273 3.5359,-3.50585 m 34.0702,-34.172698 1.1049,-1.107112 m 3.536,-3.542738 3.5359,-3.542746 m 24.641,-24.688483 3.4991,-3.542746 m 3.536,-3.505836 3.3149,-3.358229 m -100.1479,89.823288 3.5359,-3.54275 m 3.536,-3.54274 3.4991,-3.50584 m 3.5359,-3.54274 0.8105,-0.81187 m 42.0629,-42.180778 2.8729,-2.878481 m 3.536,-3.542737 3.4991,-3.505836 m 10.5709,-10.591328 3.536,-3.542738 m 3.4991,-3.505844 3.5359,-3.542738 m -99.4481,89.08521 2.652,-2.62015 m 3.4991,-3.54275 3.5359,-3.54274 m 3.4991,-3.50584 2.5783,-2.58325 m 53.7388,-53.87921 3.5359,-3.542737 m 3.5359,-3.505844 3.4991,-3.542738 m 3.536,-3.542746 3.4991,-3.505836 m -97.6433,87.313841 0.8471,-0.84878 m 3.536,-3.54275 3.4991,-3.54274 m 3.5359,-3.50584 3.4991,-3.54274 m 59.853,-59.968294 3.5359,-3.542746 m 3.4991,-3.542738 3.536,-3.505844 m 3.4991,-3.542738 1.5837,-1.58686 m -110.9766,100.67293 2.0258,-2.0297 m 3.5359,-3.54274 3.536,-3.54274 m 3.4991,-3.50584 3.5359,-3.54275 m 3.4991,-3.54273 3.5359,-3.50585 m 59.853,-60.005196 3.4991,-3.505844 m 3.536,-3.542737 3.4991,-3.542746 m 3.5359,-3.505836 3.3149,-3.358229 m -100.111,89.823288 3.4991,-3.54275 m 3.5359,-3.54274 3.4991,-3.50584 m 3.5359,-3.54274 0.8106,-0.81187 m 57.2747,-57.385045 1.768,-1.771369 m 3.4991,-3.542746 3.5359,-3.542738 m 3.4992,-3.505844 3.5358,-3.542738 m -86.262,75.87373 2.6152,-2.58325 m 57.2379,-57.385045 v -0.0365 m 3.5359,-3.505844 3.4991,-3.542738 m 3.5359,-3.542746 3.4991,-3.505836 m -22.873,12.362697 3.5359,-3.542746 m 3.4991,-3.542738 3.5359,-3.505844 m 3.4991,-3.542738 1.5838,-1.58686 m -27.9559,17.455393 3.4991,-3.505844 m 3.5359,-3.542738 3.4991,-3.542746 m 3.5359,-3.505836 3.3518,-3.358229 m -27.9928,17.492295 1.768,-1.771369 m 3.4991,-3.542746 3.5359,-3.542738 m 3.4991,-3.505844 3.5359,-3.542738 m -26.409,15.905435 v -0.0365 m 3.536,-3.505844 3.4991,-3.542738 m 3.5359,-3.542746 3.5359,-3.505836 m -22.9099,12.362697 3.536,-3.542746 m 3.4991,-3.542738 3.5359,-3.505844 m 3.5359,-3.542738 1.547,-1.586859 m -26.5563,16.08996 2.0994,-2.140412 m 3.536,-3.542738 3.5359,-3.542746 m 3.4991,-3.505836 3.3517,-3.358228 m -22.7257,12.178179 3.536,-3.542738 m 3.5359,-3.505844 3.4991,-3.542738 m -22.2469,11.735334 2.9098,-2.915383 m 3.4991,-3.542746 3.5359,-3.505836 m -20.5157,9.963965 1.1417,-1.144014 m 3.536,-3.542738 3.4991,-3.505844 m 3.5359,-3.542738 1.5839,-1.586859 m -20.9578,10.40681 3.5359,-3.542746 m 3.4991,-3.505836 3.3517,-3.358228 m -22.68884,12.178179 3.49914,-3.542738 m 3.5358,-3.505844 3.4992,-3.542738 m -107.36707,97.055576 3.53587,-3.54274 m 3.53595,-3.54274 1.47333,-1.47614 m 76.57503,-76.759427 2.90975,-2.915382 m 3.49912,-3.542746 3.53595,-3.505836 m -100.33213,89.970891 3.53595,-3.50583 m 3.49912,-3.54275 3.53595,-3.54274 m 69.24528,-69.415607 1.14181,-1.144014 m 3.53595,-3.542737 3.49912,-3.505845 m 3.53595,-3.542737 1.58376,-1.58686 m -84.30989,73.91785 3.53595,-3.50584 m 59.81616,-60.005199 3.53595,-3.542746 m 3.49912,-3.505836 3.35177,-3.358229 m -107.18294,96.87187 1.4365,-1.43924 m 26.74044,-26.79199 3.49912,-3.54275 m 3.53595,-3.50583 3.24126,-3.24752 m 46.04079,-46.166361 3.49904,-3.542737 m 3.53595,-3.505845 3.49911,-3.542737 m -107.36711,97.05638 3.53595,-3.54274 m 3.53595,-3.54274 3.31494,-3.32132 m 18.30579,-18.37798 3.02026,-2.98919 m 3.49911,-3.54274 3.46228,-3.43204 m 3.57279,-3.61655 3.53587,-3.505834 m 39.33724,-39.449913 2.90983,-2.915382 m 3.49912,-3.542746 3.53587,-3.505836 M 849.94198,142.26 l 1.43641,-1.43924 m 3.49912,-3.54275 3.53595,-3.50583 m 19.88963,-19.96483 1.21549,-1.21782 m 3.53587,-3.54275 3.49911,-3.50583 m 48.14025,-48.269865 1.14181,-1.144014 m 3.53595,-3.542737 3.49912,-3.505845 m 3.53587,-3.542737 1.58384,-1.58686 m -98.37994,88.051918 3.49911,-3.54275 m 3.53587,-3.54273 3.49912,-3.50585 m 10.57102,-10.59132 3.53586,-3.54274 m 52.78118,-52.919717 3.53595,-3.542746 m 3.53595,-3.505836 3.31494,-3.358229 m -86.04107,75.689218 3.49912,-3.54274 m 3.53595,-3.50584 3.49911,-3.54275 m 3.53587,-3.50583 1.65751,-1.69757 m 47.62455,-47.716309 3.49912,-3.542737 m 3.53595,-3.505845 3.53595,-3.542737 m -76.31726,65.909768 0.62636,-0.62737 m 3.49912,-3.54274 3.53595,-3.50584 m 3.49912,-3.54274 0.51602,-0.479778 m 42.3575,-42.476 2.90975,-2.915383 m 3.53595,-3.542746 3.49912,-3.505836 m -63.97823,53.547073 2.39405,-2.398728 m 3.49912,-3.505836 3.53595,-3.542746 m 34.03336,-34.135798 1.14181,-1.144014 m 3.53587,-3.542738 3.53595,-3.505844 m 3.49912,-3.542737 1.58384,-1.58686 m -56.13295,45.686622 3.49911,-3.505844 m 3.53596,-3.542738 3.49903,-3.542746 m 24.64107,-24.688484 3.53595,-3.542746 m 3.53587,-3.505836 3.31494,-3.358228 m -43.794,33.360827 3.49912,-3.542746 m 3.53595,-3.542738 2.24679,-2.251117 m 11.82326,-11.846047 3.53595,-3.542738 m 3.49912,-3.505844 3.53587,-3.542737 m -34.07011,23.54447 0.62637,-0.590446 m 3.49903,-3.542746 3.53595,-3.542737 m 3.49912,-3.505845 0.51603,-0.516608 m 0.11034,-0.110672 2.90974,-2.915383 m 3.53596,-3.542746 3.49911,-3.505836 m -21.73124,11.181782 2.39414,-2.361831 m 3.49903,-3.542738 3.53595,-3.505844 m 3.49912,-3.542737 1.58376,-1.58686 m -13.88588,3.358228 3.31494,-3.358228"
       id="path2" />
  </g>
</svg>
