<?xml version="1.0" encoding="UTF-8" standalone="no"?>
<!-- Created with Inkscape (http://www.inkscape.org/) -->

<svg
   width="999.99994mm"
   height="92.710899mm"
   viewBox="0 0 999.99994 92.7109"
   version="1.1"
   id="svg1"
   xmlns="http://www.w3.org/2000/svg"
   xmlns:svg="http://www.w3.org/2000/svg">
  <defs
     id="defs1" />
  <g
     id="layer1"
     transform="translate(-996.99463,-54.344429)">
    <path
       style="fill:none;stroke:#000000;stroke-width:3.70901px;stroke-linecap:round;stroke-linejoin:round;stroke-miterlimit:4;stroke-dasharray:none;stroke-opacity:1"
       d="m 1695.3917,56.198934 h -692.969 m 0,0 -0.5496,0.03417 m 0,0 -0.5495,0.137958 m 0,0 -0.5154,0.207009 m 0,0 -0.4805,0.275988 m 0,0 -0.41219,0.379492 m 0,0 -0.378,0.413947 m 0,0 -0.27478,0.482926 m 0,0 -0.24061,0.517451 m 0,0 -0.13739,0.551976 m 0,0 -0.0356,0.551976 m 0,0 v 78.342943 m 0,0 0.0356,0.55198 m 0,0 0.13739,0.55197 m 0,0 0.24061,0.51745 m 0,0 0.27478,0.48293 m 0,0 0.378,0.41395 m 0,0 0.41219,0.37949 m 0,0 0.4805,0.27599 m 0,0 0.5154,0.207 m 0,0 0.5495,0.13796 m 0,0 0.5496,0.0342 m 0,0 h 14.3209 m 0,0 0.4805,-0.0342 m 0,0 0.5495,-0.13796 m 0,0 0.5154,-0.207 m 0,0 0.4805,-0.27599 m 0,0 0.4129,-0.37949 m 0,0 0.3773,-0.41395 m 0,0 0.2776,-0.48293 m 0,0 0.2421,-0.51745 m 0,0 0.071,-0.31044 m 0,0 v -0.20701 m 0,0 0.071,-0.65548 m 0,0 v -3.06994 m 0,0 -0.2064,-1.06941 m 0,0 -0.1,-0.24147 m 0,0 -0.3061,-0.48293 m 0,0 -0.3417,-0.44847 m 0,0 -0.4484,-0.34497 m 0,0 -0.4805,-0.31044 m 0,0 -0.5154,-0.20701 m 0,0 -0.5496,-0.13796 m 0,0 -0.5495,-0.0342 m 0,0 h -6.4565 m 0,0 -0.378,-0.0342 m 0,0 -0.3431,-0.13796 m 0,0 -0.2748,-0.24146 m 0,0 -0.2406,-0.27599 m 0,0 -0.1374,-0.34496 m 0,0 -0.035,-0.3795 m 0,0 v -10.69485 m 0,0 0.035,-0.55198 m 0,0 0.1374,-0.55197 m 0,0 0.2065,-0.51745 m 0,0 0.2748,-0.44848 m 0,0 0.378,-0.44847 m 0,0 0.4121,-0.34496 m 0,0 0.4812,-0.31045 m 0,0 0.5154,-0.20701 m 0,0 0.5496,-0.13795 m 0,0 0.5495,-0.0342 m 0,0 h 29.6032 m 0,0 0.5481,0.0342 m 0,0 0.5482,0.13795 m 0,0 0.5125,0.20701 m 0,0 0.4769,0.31045 m 0,0 0.4129,0.34496 m 0,0 0.3773,0.44847 m 0,0 0.2776,0.44848 m 0,0 0.2421,0.51745 m 0,0 0.1,0.55197 m 0,0 0.071,0.55198 m 0,0 v 10.69411 m 0,0 -0.071,0.37949 m 0,0 -0.1352,0.34497 m 0,0 -0.2421,0.27598 m 0,0 -0.2776,0.24147 m 0,0 -0.3417,0.13796 m 0,0 -0.3773,0.0342 m 0,0 h -2.4722 m 0,0 -0.5838,0.0342 m 0,0 -0.5125,0.13796 m 0,0 -0.5125,0.20701 m 0,0 -0.477,0.31044 m 0,0 -0.4485,0.34497 m 0,0 -0.3417,0.44847 m 0,0 -0.3061,0.48294 m 0,0 -0.2064,0.51745 m 0,0 -0.1352,0.51745 m 0,0 v 0.55197 m 0,0 v 2.86326 m 0,0 v 0.55197 m 0,0 0.1352,0.55198 m 0,0 0.2064,0.51745 m 0,0 0.3061,0.48293 m 0,0 0.3417,0.41394 m 0,0 0.4485,0.37949 m 0,0 0.477,0.27599 m 0,0 0.5125,0.20701 m 0,0 0.5125,0.13796 m 0,0 0.5838,0.0342 m 0,0 h 6.7313 m 0,0 0.5837,-0.0342 m 0,0 0.5482,-0.13796 m 0,0 0.5125,-0.20701 m 0,0 0.4485,-0.27599 m 0,0 0.4484,-0.37949 m 0,0 0.3417,-0.41394 m 0,0 0.3061,-0.48293 m 0,0 0.2065,-0.51745 m 0,0 0.1352,-0.55198 m 0,0 v -0.55197 m 0,0 v -36.32546 m 0,0 v -0.37949 m 0,0 -0.1352,-0.34497 m 0,0 -0.2421,-0.27599 m 0,0 -0.3061,-0.24146 m 0,0 -0.3417,-0.13796 m 0,0 -0.3417,-0.0342 m 0,0 h -8.5515 m 0,0 v 7.1064 m 0,0 h -33.1408 m 0,0 V 67.582599 m 0,0 h 160.7929 m 0,0 v 3.553199 m 0,0 h 85.4104 m 0,0 v 49.158382 m 0,0 h -81.839 m 0,0 -0.5837,0.0342 m 0,0 -0.5125,0.13796 m 0,0 -0.5126,0.20701 m 0,0 -0.4769,0.31051 m 0,0 -0.4485,0.34497 m 0,0 -0.3417,0.41395 m 0,0 -0.3061,0.48293 m 0,0 -0.2064,0.51745 m 0,0 -0.1353,0.55198 m 0,0 v 0.55197 m 0,0 v 0.13796 m 0,0 v 17.80051 m 0,0 v 0.41395 m 0,0 0.1353,0.55197 m 0,0 0.2064,0.51745 m 0,0 0.3061,0.48293 m 0,0 0.3417,0.41394 m 0,0 0.4485,0.3795 m 0,0 0.4769,0.27598 m 0,0 0.5126,0.20701 m 0,0 0.5125,0.13796 m 0,0 0.5837,0.0342 m 0,0 0.5482,-0.0342 m 0,0 0.5481,-0.13796 m 0,0 0.5125,-0.20701 m 0,0 0.477,-0.27598 m 0,0 0.4129,-0.3795 m 0,0 0.3772,-0.41394 m 0,0 0.2777,-0.48293 m 0,0 0.2064,-0.51745 m 0,0 0.1353,-0.55197 m 0,0 v -0.55198 m 0,0 v -4.27764 m 0,0 0.071,-0.55198 m 0,0 0.1,-0.55197 m 0,0 0.242,-0.483 m 0,0 0.2777,-0.48293 m 0,0 0.3772,-0.44847 m 0,0 0.4129,-0.34496 m 0,0 0.477,-0.31052 m 0,0 0.5125,-0.20701 m 0,0 0.5481,-0.13795 m 0,0 0.5483,-0.0342 m 0,0 h 62.1261 m 0,0 0.5481,0.0342 m 0,0 0.5481,0.13795 m 0,0 0.5126,0.20701 m 0,0 0.4769,0.31052 m 0,0 0.4485,0.34496 m 0,0 0.3417,0.44847 m 0,0 0.3061,0.48293 m 0,0 0.2064,0.483 m 0,0 0.1353,0.55197 m 0,0 v 0.55198 m 0,0 v 0.37949 m 0,0 v 0.34497 m 0,0 v 0.55197 m 0,0 0.1352,0.55198 m 0,0 0.2065,0.51745 m 0,0 0.3061,0.48292 m 0,0 0.3417,0.41395 m 0,0 0.4484,0.37949 m 0,0 0.4485,0.27599 m 0,0 0.5125,0.20701 m 0,0 0.5482,0.13796 m 0,0 0.6193,0.0342 m 0,0 h 36.0599 m 0,0 0.5482,-0.0342 m 0,0 0.5481,-0.13796 m 0,0 0.5125,-0.20701 m 0,0 0.4841,-0.27599 m 0,0 0.4129,-0.37949 m 0,0 0.3773,-0.41395 m 0,0 0.2776,-0.48292 m 0,0 0.242,-0.51745 m 0,0 0.1353,-0.55198 m 0,0 0.071,-0.55197 m 0,0 v -2.86326 m 0,0 -0.071,-0.55197 m 0,0 -0.1353,-0.51745 m 0,0 -0.2064,-0.51745 m 0,0 -0.3061,-0.48294 m 0,0 -0.3773,-0.44847 m 0,0 -0.4129,-0.34497 m 0,0 -0.484,-0.31044 m 0,0 -0.5126,-0.20701 m 0,0 -0.5481,-0.13796 m 0,0 -0.5481,-0.0342 m 0,0 h -20.6404 m 0,0 V 94.663218 m 0,0 h 12.8099 m 0,0 0.3773,-0.06905 m 0,0 0.3417,-0.137958 m 0,0 0.3061,-0.207009 m 0,0 0.2064,-0.310443 m 0,0 0.1353,-0.344967 m 0,0 0.071,-0.379492 m 0,0 v -7.106406 m 0,0 -0.071,-0.379492 m 0,0 -0.1353,-0.344968 m 0,0 -0.2064,-0.275988 m 0,0 -0.3061,-0.241463 m 0,0 -0.3417,-0.137958 m 0,0 -0.3773,-0.03417 m 0,0 h -12.8099 m 0,0 V 67.583283 m 0,0 h 108.1799 m 0,0 v 17.110572 m 0,0 h -12.8099 m 0,0 -0.3417,0.03417 m 0,0 -0.3416,0.137958 m 0,0 -0.3061,0.241463 m 0,0 -0.2421,0.275988 m 0,0 -0.1352,0.344968 m 0,0 v 0.379492 m 0,0 V 93.2143 m 0,0 v 0.379492 m 0,0 0.1352,0.344967 m 0,0 0.2421,0.310443 m 0,0 0.3061,0.207009 m 0,0 0.3416,0.137958 m 0,0 0.3417,0.06905 m 0,0 h 12.8099 m 0,0 v 37.015401 m 0,0 h -20.6396 m 0,0 -0.5481,0.0342 m 0,0 -0.5482,0.13795 m 0,0 -0.5125,0.20701 m 0,0 -0.4841,0.31044 m 0,0 -0.4128,0.34497 m 0,0 -0.3773,0.44847 m 0,0 -0.2777,0.48294 m 0,0 -0.2064,0.51745 m 0,0 -0.1352,0.51745 m 0,0 -0.071,0.55198 m 0,0 v 2.86325 m 0,0 0.071,0.55198 m 0,0 0.1352,0.55197 m 0,0 0.2064,0.51745 m 0,0 0.2777,0.48293 m 0,0 0.3773,0.41394 m 0,0 0.4128,0.3795 m 0,0 0.4841,0.27598 m 0,0 0.5125,0.20701 m 0,0 0.5482,0.13796 m 0,0 0.5481,0.0342 m 0,0 h 27.062 m 0,0 0.5482,-0.0342 m 0,0 0.5481,-0.13796 m 0,0 0.5125,-0.20701 m 0,0 0.4841,-0.27598 m 0,0 0.4129,-0.3795 m 0,0 0.3773,-0.41394 m 0,0 0.2776,-0.48293 m 0,0 0.2064,-0.51745 m 0,0 0.1353,-0.55197 m 0,0 0.071,-0.55198 m 0,0 V 67.582599 m 0,0 h 192.1823 m 0,0 V 138.0947 m 0,0 v 0.55198 m 0,0 0.1352,0.55197 m 0,0 0.2065,0.51745 m 0,0 0.3061,0.48293 m 0,0 0.3417,0.41394 m 0,0 0.4484,0.3795 m 0,0 0.4841,0.27598 m 0,0 0.5125,0.20701 m 0,0 0.5482,0.13796 m 0,0 0.5481,0.0342 m 0,0 h 27.0279 m 0,0 0.5837,-0.0342 m 0,0 0.5125,-0.13796 m 0,0 0.5126,-0.20701 m 0,0 0.4769,-0.27598 m 0,0 0.4485,-0.3795 m 0,0 0.3417,-0.41394 m 0,0 0.3061,-0.48293 m 0,0 0.2064,-0.51745 m 0,0 0.1353,-0.55197 m 0,0 0.071,-0.55198 m 0,0 v -2.86325 m 0,0 -0.071,-0.55198 m 0,0 -0.1353,-0.51745 m 0,0 -0.2064,-0.51745 m 0,0 -0.3061,-0.48294 m 0,0 -0.3417,-0.44847 m 0,0 -0.4485,-0.34497 m 0,0 -0.4769,-0.31044 m 0,0 -0.5126,-0.20701 m 0,0 -0.5125,-0.13795 m 0,0 -0.5837,-0.0342 m 0,0 h -20.6404 m 0,0 V 94.663218 m 0,0 h 12.8099 m 0,0 0.3773,-0.06905 m 0,0 0.3417,-0.137958 m 0,0 0.3061,-0.207009 m 0,0 0.2064,-0.310443 m 0,0 0.1353,-0.344967 m 0,0 0.071,-0.379492 m 0,0 v -7.106406 m 0,0 -0.071,-0.379492 m 0,0 -0.1353,-0.344968 m 0,0 -0.2064,-0.275988 m 0,0 -0.3061,-0.241463 m 0,0 -0.3417,-0.137958 m 0,0 -0.3773,-0.03417 m 0,0 h -12.8099 m 0,0 V 67.583283 m 0,0 h 105.2948 m 0,0 3.9494,17.110572 m 0,0 h -18.8536 m 0,0 -0.3417,0.03417 m 0,0 -0.3417,0.137958 m 0,0 -0.3061,0.241463 m 0,0 -0.242,0.275988 m 0,0 -0.1353,0.344968 m 0,0 -0.071,0.379492 m 0,0 V 93.2143 m 0,0 0.071,0.379492 m 0,0 0.1353,0.344967 m 0,0 0.242,0.310443 m 0,0 0.3061,0.207009 m 0,0 0.3417,0.137958 m 0,0 0.3417,0.06905 m 0,0 h 12.8092 m 0,0 v 15.661691 m 0,0 h 11.9863 m 0,0 3.2624,14.24731 m 0,0 h -15.2487 m 0,0 v 7.1064 m 0,0 h -15.6602 m 0,0 -0.5481,0.0342 m 0,0 -0.5482,0.13795 m 0,0 -0.5125,0.20701 m 0,0 -0.4769,0.31044 m 0,0 -0.4129,0.34497 m 0,0 -0.3417,0.44847 m 0,0 -0.3061,0.48294 m 0,0 -0.2065,0.51745 m 0,0 -0.1352,0.51745 m 0,0 v 0.55198 m 0,0 v 2.86325 m 0,0 v 0.55198 m 0,0 0.1352,0.55197 m 0,0 0.2065,0.51745 m 0,0 0.3061,0.48293 m 0,0 0.3417,0.41394 m 0,0 0.4129,0.3795 m 0,0 0.4769,0.27598 m 0,0 0.5125,0.20701 m 0,0 0.5482,0.13796 m 0,0 0.5481,0.0342 m 0,0 h 36.1632 m 0,0 0.5125,-0.0342 m 0,0 0.5481,-0.13796 m 0,0 0.5126,-0.20701 m 0,0 0.484,-0.27598 m 0,0 0.4129,-0.3795 m 0,0 0.3773,-0.41394 m 0,0 0.2776,-0.48293 m 0,0 0.2421,-0.51745 m 0,0 0.1,-0.55197 m 0,0 0.071,-0.55198 m 0,0 v -0.34497 m 0,0 v -0.37949 m 0,0 v -0.55197 m 0,0 0.1353,-0.55198 m 0,0 0.2064,-0.483 m 0,0 0.2776,-0.48292 m 0,0 0.3773,-0.44847 m 0,0 0.4129,-0.34497 m 0,0 0.4841,-0.31051 m 0,0 0.5125,-0.20701 m 0,0 0.5481,-0.13796 m 0,0 0.5482,-0.0342 m 0,0 h 97.7398 m 0,0 0.5481,0.0342 m 0,0 0.5481,0.13796 m 0,0 0.5126,0.20701 m 0,0 0.484,0.31051 m 0,0 0.4129,0.34497 m 0,0 0.3773,0.44847 m 0,0 0.2776,0.48292 m 0,0 0.2065,0.483 m 0,0 0.1352,0.55198 m 0,0 0.071,0.55197 m 0,0 v 4.27764 m 0,0 0.071,0.55198 m 0,0 0.1352,0.55197 m 0,0 0.2065,0.51745 m 0,0 0.2776,0.48293 m 0,0 0.3773,0.41395 m 0,0 0.4129,0.37949 m 0,0 0.484,0.27599 m 0,0 0.5126,0.20701 m 0,0 0.5481,0.13795 m 0,0 0.5481,0.0342 m 0,0 0.5482,-0.0342 m 0,0 0.5481,-0.13795 m 0,0 0.5125,-0.20701 m 0,0 0.477,-0.27599 m 0,0 0.4129,-0.37949 m 0,0 0.3773,-0.41395 m 0,0 0.2776,-0.48293 m 0,0 0.242,-0.51745 m 0,0 0.1,-0.55197 m 0,0 0.071,-0.65548 m 0,0 v -17.8005 m 0,0 -0.071,-0.44848 m 0,0 -0.1,-0.55197 m 0,0 -0.242,-0.51745 m 0,0 -0.2776,-0.48293 m 0,0 -0.3773,-0.41395 m 0,0 -0.4129,-0.34497 m 0,0 -0.477,-0.31051 m 0,0 -0.5125,-0.20701 m 0,0 -0.5481,-0.13796 m 0,0 -0.5482,-0.0342 m 0,0 h -40.2842 m 0,0 V 71.136097 m 0,0 h 43.8556 m 0,0 v -3.553199 m 0,0 h 160.7928 m 0,0 v 39.878662 m 0,0 h -33.1406 m 0,0 v -7.1064 m 0,0 h -8.5516 m 0,0 -0.3773,0.0342 m 0,0 -0.3417,0.13796 m 0,0 -0.2776,0.24146 m 0,0 -0.242,0.27599 m 0,0 -0.1353,0.34497 m 0,0 -0.071,0.37949 m 0,0 v 36.32546 m 0,0 0.071,0.55197 m 0,0 0.1353,0.55198 m 0,0 0.2064,0.51745 m 0,0 0.2777,0.48293 m 0,0 0.3772,0.41394 m 0,0 0.4129,0.37949 m 0,0 0.4841,0.27599 m 0,0 0.5125,0.20701 m 0,0 0.5482,0.13796 m 0,0 0.5481,0.0342 m 0,0 h 6.7655 m 0,0 0.5481,-0.0342 m 0,0 0.5482,-0.13796 m 0,0 0.5125,-0.20701 m 0,0 0.4769,-0.27599 m 0,0 0.4129,-0.37949 m 0,0 0.3773,-0.41394 m 0,0 0.3061,-0.48293 m 0,0 0.2064,-0.51745 m 0,0 0.1353,-0.55198 m 0,0 0.071,-0.55197 m 0,0 v -2.86326 m 0,0 -0.071,-0.55197 m 0,0 -0.1353,-0.51745 m 0,0 -0.2064,-0.51745 m 0,0 -0.3061,-0.48294 m 0,0 -0.3773,-0.44847 m 0,0 -0.4129,-0.34497 m 0,0 -0.4769,-0.31044 m 0,0 -0.5125,-0.20701 m 0,0 -0.5482,-0.13796 m 0,0 -0.5481,-0.0342 m 0,0 h -2.4723 m 0,0 -0.3773,-0.0342 m 0,0 -0.3417,-0.13795 m 0,0 -0.3061,-0.24147 m 0,0 -0.2064,-0.27598 m 0,0 -0.1353,-0.34497 m 0,0 -0.071,-0.37949 m 0,0 V 119.5701 m 0,0 v -0.55198 m 0,0 0.1352,-0.55197 m 0,0 0.2064,-0.51745 m 0,0 0.3061,-0.44848 m 0,0 0.3773,-0.44847 m 0,0 0.4129,-0.34496 m 0,0 0.4841,-0.31045 m 0,0 0.5125,-0.20701 m 0,0 0.5481,-0.13795 m 0,0 0.5482,-0.0342 m 0,0 h 29.6034 m 0,0 0.5481,0.0342 m 0,0 0.5481,0.13795 m 0,0 0.5126,0.20701 m 0,0 0.4769,0.31045 m 0,0 0.4129,0.34496 m 0,0 0.3417,0.44847 m 0,0 0.3061,0.44848 m 0,0 0.2064,0.51745 m 0,0 0.1353,0.55197 m 0,0 0.071,0.55198 m 0,0 v 10.69411 m 0,0 -0.071,0.37949 m 0,0 -0.1353,0.34497 m 0,0 -0.242,0.27598 m 0,0 -0.3061,0.24147 m 0,0 -0.3417,0.13796 m 0,0 -0.3417,0.0342 m 0,0 h -6.4566 m 0,0 -0.5837,0.0342 m 0,0 -0.5125,0.13796 m 0,0 -0.5482,0.20701 m 0,0 -0.4484,0.31044 m 0,0 -0.4485,0.34497 m 0,0 -0.3417,0.44847 m 0,0 -0.3061,0.48294 m 0,0 -0.1,0.24146 m 0,0 -0.2064,1.06941 m 0,0 v 3.34622 m 0,0 v 0.34496 m 0,0 0.1353,0.55198 m 0,0 0.2064,0.51745 m 0,0 0.3061,0.48293 m 0,0 0.3417,0.41394 m 0,0 0.4485,0.37949 m 0,0 0.4769,0.27599 m 0,0 0.5125,0.20701 m 0,0 0.5482,0.13796 m 0,0 0.6193,0.0342 m 0,0 h 14.1838 m 0,0 0.5481,-0.0342 m 0,0 0.5482,-0.13796 m 0,0 0.5125,-0.20701 m 0,0 0.4841,-0.27599 m 0,0 0.4128,-0.37949 m 0,0 0.3773,-0.41394 m 0,0 0.2776,-0.48293 m 0,0 0.2065,-0.51745 m 0,0 0.1352,-0.55198 m 0,0 0.071,-0.55197 m 0,0 V 59.752139 m 0,0 -0.071,-0.551976 m 0,0 -0.1352,-0.551976 m 0,0 -0.2065,-0.517451 m 0,0 -0.2776,-0.482926 m 0,0 -0.3773,-0.413947 m 0,0 -0.4128,-0.379492 m 0,0 -0.4841,-0.275988 m 0,0 -0.5125,-0.207009 m 0,0 -0.5482,-0.137958 m 0,0 -0.5481,-0.03417 m 0,0 h -231.4022 m 0,0 -0.5837,0.03417 m 0,0 -0.5126,0.137958 m 0,0 -0.5125,0.207009 m 0,0 -0.4769,0.275988 m 0,0 -0.4485,0.379492 m 0,0 -0.3417,0.413947 m 0,0 -0.3061,0.482926 m 0,0 -0.2065,0.517451 m 0,0 -0.1352,0.551976 m 0,0 -0.071,0.551976 m 0,0 v 7.830845 m 0,0 0.071,0.551975 m 0,0 0.1352,0.551977 m 0,0 0.2065,0.517451 m 0,0 0.3061,0.482926 m 0,0 0.3417,0.413946 m 0,0 0.4485,0.379493 m 0,0 0.4769,0.275987 m 0,0 0.5125,0.20701 m 0,0 0.5126,0.137958 m 0,0 0.5837,0.03417 m 0,0 h 13.1879 m 0,0 v 3.587703 m 0,0 h -1.4422 m 0,0 v 42.01748 m 0,0 h 1.4422 m 0,0 v 3.5532 m 0,0 h -60.5123 m 0,0 -14.1489,-61.335859 m 0,0 -0.071,-0.310513 m 0,0 -0.2065,-0.517451 m 0,0 -0.3061,-0.482926 m 0,0 -0.3416,-0.413947 m 0,0 -0.4485,-0.379492 m 0,0 -0.477,-0.275988 m 0,0 -0.5125,-0.207009 m 0,0 -0.5481,-0.137958 m 0,0 -0.5482,-0.03417"
       id="path1" />
    <path
       style="fill:none;stroke:#000000;stroke-width:0.0343427px;stroke-linecap:round;stroke-linejoin:round;stroke-miterlimit:4;stroke-dasharray:none;stroke-opacity:1"
       d="m 1994.7914,139.13 0.4485,-0.483 m -11.0239,2.00083 3.0226,-3.03574 m 3.0218,-3.00124 3.0226,-3.03576 m -18.2023,9.14174 1.5804,-1.58687 m 3.0218,-3.03574 3.0226,-3.00126 m 3.0218,-3.03575 3.0218,-3.00124 m 3.0226,-3.03574 3.0218,-3.03575 m -7.5549,-1.48338 3.0218,-3.03574 m 3.0226,-3.03575 2.0259,-2.00083 m -12.6034,3.5187 3.0218,-3.00124 m 3.0218,-3.03575 3.0226,-3.03575 m 3.0218,-3.00124 0.5126,-0.51745 m -47.3237,38.29179 3.0218,-3.03574 m 3.0219,-3.00125 1.3739,-1.41439 m 17.1714,-17.17956 2.5755,-2.58728 m 3.0226,-3.00125 2.9535,-2.96675 m 4.1551,-4.17415 1.9576,-1.93184 m 3.0226,-3.035744 3.0218,-3.00125 m -49.8316,40.775594 3.0226,-3.00126 m 17.0341,-17.07607 1.0642,-1.06941 m 3.0226,-3.00124 3.0218,-3.03576 m 15.1107,-15.109726 3.0225,-3.035747 m 3.0218,-3.001252 3.0226,-3.035748 m -49.8316,40.810093 3.0226,-3.03575 m 9.032,-9.07274 3.0219,-3.00125 m 27.1994,-27.218223 3.0226,-3.001245 m 3.0218,-3.035748 2.026,-2.000832 m -53.1282,44.087308 1.2706,-1.27639 m 3.0226,-3.03575 3.0218,-3.00124 m 3.0226,-3.03576 1.4422,-1.44887 m 31.3204,-31.357879 0.4485,-0.448473 m 3.0225,-3.001243 3.0219,-3.035748 m 3.0225,-3.001245 0.5126,-0.517451 m -53.1282,44.087319 2.7812,-2.79428 m 3.0226,-3.00125 3.0218,-3.03574 m 33.7243,-33.772675 2.5072,-2.483793 m 3.0226,-3.035749 3.0218,-3.001244 m -17.5836,8.520786 0.9617,-0.965916 m 3.0226,-3.035748 3.0218,-3.001252 m 3.0226,-3.035747 1.339,-1.345387 m -17.961,8.900257 3.0219,-3.035749 m 3.0218,-3.001244 2.851,-2.863264 m -19.4722,10.418134 3.0219,-3.035748 m 3.0218,-3.001252 3.0226,-3.035747 m -19.095,10.038663 2.5072,-2.483793 m 3.0226,-3.035749 2.9876,-3.001244 m -17.5836,8.520786 0.9959,-0.965916 m 3.0225,-3.035748 3.0219,-3.001252 m 3.0218,-3.035747 1.3398,-1.345387 m -17.9617,8.900257 3.0226,-3.035749 m 3.0218,-3.001244 2.851,-2.863264 m -19.4729,10.418134 3.0226,-3.035748 m 3.0218,-3.001252 3.0225,-3.035747 m -19.0949,10.038663 2.5072,-2.483793 m 2.9877,-3.035749 3.0225,-3.001244 m -17.5837,8.520786 0.9959,-0.965916 m 3.0218,-3.035748 3.0226,-3.001252 m 3.0219,-3.035747 1.3397,-1.345387 m -96.4691,87.450185 3.0226,-3.00125 m 3.0218,-3.03574 0.3061,-0.31045 m 72.1541,-72.20246 3.0225,-3.035748 m 3.0219,-3.001244 2.8502,-2.863264 m -85.8908,76.894066 3.0219,-3.03575 m 63.3967,-63.440182 3.0219,-3.035748 m 3.0225,-3.001252 3.0219,-3.035748 m -85.2729,76.27312 2.2324,-2.24231 m 3.0218,-3.03575 3.0225,-3.00124 m 3.0219,-3.03575 1.6487,-1.65587 m 53.2314,-53.263536 2.4723,-2.483794 m 3.0225,-3.035748 3.0219,-3.001244 m -83.7617,74.755242 0.7211,-0.72444 m 3.0219,-3.03575 3.0225,-3.00124 m 3.0219,-3.03575 3.0225,-3.03575 m 53.3688,-53.401526 0.9959,-0.965916 m 3.0219,-3.035748 3.0218,-3.001252 m 2.9884,-3.035748 1.3732,-1.345386 m -84.4144,75.376196 3.0225,-3.03575 m 3.0219,-3.00124 3.0225,-3.03575 m 57.3866,-57.4032 3.0218,-3.035748 m 3.0226,-3.001244 2.8502,-2.863264 m -85.8909,76.894066 3.0219,-3.03575 m 3.0218,-3.00124 2.9885,-3.03575 m 3.0218,-3.03575 0.7211,-0.68993 m 53.6436,-53.677498 3.0219,-3.035748 m 3.0225,-3.001252 3.0219,-3.035747 m -85.3072,76.273125 2.2665,-2.24232 m 3.0219,-3.03575 3.0225,-3.00124 m 3.0219,-3.03574 2.1982,-2.20783 m 52.682,-52.711582 2.4723,-2.483794 m 3.0225,-3.035748 3.0219,-3.001244 m -83.7618,74.755248 0.7211,-0.72445 m 3.0219,-3.03575 3.0225,-3.00124 m 3.0219,-3.03574 3.0225,-3.03575 m 3.0219,-3.00125 0.242,-0.24146 m 50.1065,-50.158808 0.9958,-0.965916 m 2.9877,-3.035748 3.0219,-3.001252 m 3.0225,-3.035747 1.3739,-1.345387 m -84.4152,75.376188 3.0225,-3.03574 m 3.0219,-3.00124 3.0225,-3.03575 m 5.7696,-5.76102 0.2777,-0.27599 m 3.0218,-3.03575 3.0226,-3.00124 m 39.2534,-39.292223 3.0226,-3.035742 m 3.0218,-3.001251 3.0226,-3.035748 m 3.0218,-3.001244 2.8503,-2.863264 m -85.8909,76.894062 3.0218,-3.03575 m 2.9877,-3.00124 3.0226,-3.03574 m 3.0218,-3.03575 0.7211,-0.68994 m 12.123,-12.14297 2.2672,-2.27682 m 3.0219,-3.00124 3.0218,-3.035746 m 28.6767,-28.701603 1.5113,-1.51787 m 3.0218,-3.001245 3.0226,-3.035748 m 3.0218,-3.001252 3.0226,-3.035747 m -85.308,76.273121 2.2666,-2.24232 m 3.0226,-3.03574 3.0218,-3.00124 m 3.0226,-3.03575 2.1975,-2.20783 m 21.9452,-21.974647 3.0218,-3.001251 m 3.0226,-3.035748 1.7511,-1.759347"
       id="path2" />
    <path
       style="fill:none;stroke:#000000;stroke-width:0.0343427px;stroke-linecap:round;stroke-linejoin:round;stroke-miterlimit:4;stroke-dasharray:none;stroke-opacity:1"
       d="m 1803.0214,68.100441 3.0225,-3.001251 m 3.0219,-3.035748 3.0225,-3.001244 m -83.7624,74.755242 0.7211,-0.72444 m 3.0225,-3.03575 3.0219,-3.00124 m 3.0225,-3.03575 3.0219,-3.03575 m 33.2096,-33.220717 3.0219,-3.035748 m 3.0225,-3.001245 0.2421,-0.241462 m 11.8141,-11.867004 3.0218,-3.001245 m 3.0226,-3.035748 3.0218,-3.001252 m 3.0219,-3.035747 1.3739,-1.345387 m -84.4146,75.376195 3.0226,-3.03575 m 3.0218,-3.00124 3.0219,-3.03575 m 41.5206,-41.534523 0.7553,-0.758935 m 3.0225,-3.035748 3.0219,-3.001252 m 3.0225,-3.035748 3.0219,-3.035741 m 3.0225,-3.001251 3.022,-3.035749 m 2.9877,-3.001244 2.8851,-2.863264 m -91.936,82.931065 3.0225,-3.03574 m 2.9877,-3.00126 3.0219,-3.03575 m 3.0225,-3.00124 3.0219,-3.03575 m 3.0225,-3.03574 0.7211,-0.68994 m 49.1098,-49.158382 1.5113,-1.51787 m 3.0225,-3.001245 3.0219,-3.035747 m 3.0225,-3.001252 3.0219,-3.035748 m -92.1075,83.103554 3.0225,-3.03575 m 3.0219,-3.00124 3.0225,-3.03576 m 3.0219,-3.03574 3.0225,-3.00125 m 2.9877,-3.03574 2.2324,-2.20783"
       id="path3" />
    <path
       style="fill:none;stroke:#000000;stroke-width:0.0343427px;stroke-linecap:round;stroke-linejoin:round;stroke-miterlimit:4;stroke-dasharray:none;stroke-opacity:1"
       d="m 1766.7898,68.100441 3.0225,-3.001251 m 3.0219,-3.035748 3.0225,-3.001244 m -91.5921,82.586092 2.5065,-2.51829 m 3.0225,-3.03575 3.0219,-3.00125 m 3.0225,-3.03575 3.0219,-3.00124 m 4.4648,-4.48462 1.5796,-1.58688 m 3.0225,-3.00125 2.9877,-3.03574 m 46.0879,-46.088143 2.2324,-2.242309 m 3.0218,-3.035748 3.0226,-3.001252 m 3.0218,-3.035748 1.339,-1.345386 m -94.4423,85.449356 0.9959,-1.00042 m 3.0225,-3.03575 3.0219,-3.00124 m 9.0669,-9.07274 0.961,-0.96592 m 11.1271,-11.14257 3.0225,-3.00125 m 3.0219,-3.03575 0.4841,-0.48292 m 47.8049,-47.847497 2.8851,-2.863264 m -91.2824,82.241091 2.3349,-2.34581 m 3.0225,-3.00125 1.4081,-1.41438 m 22.7688,-22.7681 3.0226,-3.03574 m 3.0218,-3.00125 3.0226,-3.035745 m -19.4039,10.349135 2.782,-2.79427 m 3.0218,-3.00125 3.0219,-3.03574 m 3.0225,-3.035745 3.0218,-3.001251 m 3.0226,-3.035749 0.1,-0.103504 m -16.7252,7.65836 3.0219,-3.001251 m 3.0225,-3.035742 3.0219,-3.035747 m 3.0225,-3.001252 2.9535,-2.966747 m -18.9233,9.866172 2.3697,-2.380303 m 3.0226,-3.001244 3.0218,-3.035749 m 3.0226,-3.035747 3.0218,-3.001245 m -23.4906,14.454288 0.8243,-0.862426 m 3.0226,-3.035747 3.0218,-3.001252 m 3.0226,-3.035748 0.071,-0.03417 m 6.2843,-6.312973 2.7129,-2.725279 m 3.0225,-3.001244 2.5755,-2.587283 m -25.2418,16.179146 1.5796,-1.552367 m 16.5536,-16.593115 3.0218,-3.001251 m -11.5392,2.483794 0.9617,-0.965916 m 3.0219,-3.035748 3.0225,-3.001252 m 3.0219,-3.035748 1.0307,-1.034909 m -94.1684,85.138874 1.0308,-1.00041 m 3.0218,-3.03575 2.7478,-2.75976 m 69.7153,-69.753175 3.0226,-3.035748 m 3.0218,-3.001244 2.851,-2.863264 m -91.936,82.931071 3.0226,-3.03575 m 3.0218,-3.00126 1.4081,-1.41438 m 65.0455,-65.061547 2.9877,-3.035748 m 3.0218,-3.001252 3.0226,-3.035748 m -92.0734,83.103555 2.9876,-3.03575 m 3.0226,-3.00124 2.9193,-2.93227 m 64.0489,-64.095631 2.5071,-2.483794 m 3.0219,-3.035748 3.0225,-3.001244 m -90.6652,81.620167 1.5803,-1.55236 m 3.0218,-3.03575 3.0226,-3.00126 m 65.4227,-65.510011 0.9959,-0.965916 m 3.0219,-3.035748 3.0225,-3.001252 m 3.0219,-3.035748 1.3397,-1.345386 m -84.3803,75.376191 3.0219,-3.03574 m 3.0225,-3.00125 2.7129,-2.75977 m 57.6613,-57.679175 3.0226,-3.035748 m 3.0218,-3.001244 2.8503,-2.863264 m -73.802,64.785581 3.0218,-3.00125 m 3.0226,-3.03574 1.2016,-1.2074 m 47.0838,-47.123057 3.0226,-3.035748 m 3.0218,-3.001252 3.0226,-3.035748 m -66.1104,57.092725 1.2023,-1.20739 m 3.0219,-3.00125 3.0225,-3.03575 m 15.0765,-15.10974 1.8886,-1.862844 m 22.8037,-22.837087 2.5071,-2.483794 m 3.0219,-3.035748 2.9876,-3.001244 m -55.5321,46.502107 2.7136,-2.69077 m 3.0218,-3.03575 3.0226,-3.001251 m 2.9877,-3.035741 3.0218,-3.035748 m 3.0226,-3.001252 3.0218,-3.035748 m 17.1373,-17.145061 0.9959,-0.965916 m 3.0218,-3.035748 3.0226,-3.001252 m 3.0218,-3.035748 1.3398,-1.345386 m -48.1488,39.11973 3.0219,-3.035749 m 3.0225,-3.001243 3.0219,-3.035749 m 21.1208,-21.146733 3.0226,-3.035748 m 3.0218,-3.001244 2.8503,-2.863264 m -37.5705,28.529111 3.0218,-3.001244 m 3.0226,-3.035748 1.2016,-1.241897 m 10.8523,-10.832088 3.0226,-3.035748 m 3.0218,-3.001252 3.0219,-3.035748 m -29.8782,20.836263 1.2023,-1.2074 m 3.0219,-3.001252 3.0225,-3.035748 m 3.5372,-3.553199 2.4723,-2.483794 m 3.0226,-3.035748 3.0218,-3.001244 m -19.3006,10.245643 2.7136,-2.690773 m 3.0218,-3.035748 3.0226,-3.001252 m 2.9877,-3.035748 1.3731,-1.345386 m -17.9609,8.900256 3.0219,-3.035748 m 3.0225,-3.001244 2.8503,-2.863264 m -19.4722,10.418134 3.0218,-3.035748 m 3.0226,-3.001252 3.0218,-3.035748 m -19.0942,10.038664 2.4723,-2.483794 m 3.0226,-3.035748 3.0218,-3.001244 m -17.5837,8.520786 0.9959,-0.965916 m 3.0225,-3.035748 2.9878,-3.001252 m 3.0226,-3.035748 1.3731,-1.345386 m -17.961,8.900256 3.0219,-3.035748 m 3.0225,-3.001244 2.8503,-2.863264 m -19.4722,10.418134 3.0218,-3.035748 m 3.0226,-3.001252 3.0218,-3.035748 m -19.0942,10.038664 2.4723,-2.483794 m 3.0226,-3.035748 3.0218,-3.001244 m -17.5836,8.520786 0.9617,-0.965916 m 3.0226,-3.035748 3.0218,-3.001252 m 3.0218,-3.035748 1.3739,-1.345386 m -17.9609,8.900256 3.0219,-3.035748 m 3.0225,-3.001244 2.8503,-2.863264 m -19.4722,10.418134 3.0218,-3.035748 m 3.0226,-3.001252 3.0218,-3.035748 m -19.0949,10.038664 2.473,-2.483794 m 3.0219,-3.035748 3.0225,-3.001244 m -17.5836,8.520786 0.9617,-0.965916 m 3.0218,-3.035748 3.0226,-3.001252 m 3.0218,-3.035748 1.3739,-1.345386 m -17.9609,8.900256 2.9877,-3.035748 m 3.0218,-3.001244 2.8852,-2.863264 m -91.936,82.931071 3.0225,-3.03575 m 69.4413,-69.477187 3.0218,-3.035748 m 3.0219,-3.001252 3.0225,-3.035748 m -92.1076,83.103555 3.0226,-3.03575 m 3.0218,-3.00124 3.0226,-3.03576 m 3.0218,-3.03574 2.8845,-2.89776 m 58.0394,-58.058641 2.473,-2.483794 m 3.0219,-3.035748 3.0225,-3.001244 m -91.6271,82.586087 2.5421,-2.51828 m 3.0218,-3.03575 3.0219,-3.00126 m 9.0669,-9.07273 3.0219,-3.03575 m 3.0225,-3.00125 1.3732,-1.41438 m 48.9732,-48.985901 0.9617,-0.965916 m 3.0218,-3.035748 3.0226,-3.001252 m 3.0218,-3.035748 1.3398,-1.345386 m -90.4248,81.413191 3.0218,-3.00124 m 17.1032,-17.14508 1.03,-1.00041 m 3.0226,-3.03574 3.0218,-3.00125 m 45.2637,-45.329215 3.0226,-3.035748 m 3.0218,-3.001244 2.8852,-2.863264 m -61.2677,52.228631 2.5413,-2.55279 m 3.0219,-3.00124 3.0225,-3.03575 m 33.209,-33.220717 3.0225,-3.035748 m 3.0219,-3.001252 2.9877,-3.035748 m -49.7968,40.775595 3.0226,-3.001251 m 3.0218,-3.035749 2.8845,-2.897753 m 21.7736,-21.802178 2.5072,-2.483794 m 3.0218,-3.035748 3.0226,-3.001244 m -43.7872,34.738595 3.0219,-3.035748 m 3.0225,-3.001252 3.0219,-3.035748 m 3.0225,-3.001244 1.3732,-1.414381 m 12.7416,-12.729436 0.9617,-0.965916 m 3.0218,-3.035748 3.0226,-3.001252 m 3.0218,-3.035748 1.3397,-1.345386 m -47.3934,38.360794 2.2665,-2.276813 m 3.0226,-3.001243 3.0218,-3.035749 m 5.0144,-5.03658 1.03,-1.000413 m 3.0226,-3.035747 3.0218,-3.001252 m 9.0321,-9.072741 3.0219,-3.035748 m 3.0225,-3.001244 2.8503,-2.863264 m -37.5705,28.529111 0.071,-0.03417 m 12.5002,-12.556953 2.5414,-2.51829 m 3.0225,-3.001245 3.0218,-3.035748 m 2.9877,-3.001252 3.0226,-3.035747 m -19.0949,10.038663 2.5071,-2.483793 m 3.0226,-3.035749 3.0218,-3.001244 m -91.6263,82.586088 2.5413,-2.51828 m 71.5014,-71.547022 0.9617,-0.965916 m 3.0219,-3.035748 3.0225,-3.001252 m 3.0219,-3.035747 1.3397,-1.345387 m -94.4774,85.449352 1.0308,-1.00041 m 3.0218,-3.03575 3.0226,-3.00124 m 69.4405,-69.511695 3.0226,-3.035749 m 3.0218,-3.001244 2.851,-2.863264 m -91.936,82.931072 3.0226,-3.03575 m 3.0218,-3.00126 1.4081,-1.41438 m 65.0106,-65.061548 3.0226,-3.035748 m 3.0218,-3.001252 3.0226,-3.035747 m -92.1076,83.103555 3.0218,-3.03575 m 3.0226,-3.00124 2.9193,-2.93227 m 64.049,-64.095632 2.5071,-2.483793 m 3.0219,-3.035749 2.9884,-3.001244 m -91.5922,82.586088 2.5413,-2.51828 m 3.0218,-3.03575 3.0226,-3.00126 m 2.9877,-3.03574 3.0218,-3.00125 m 59.4133,-59.473022 0.9959,-0.965916 m 3.0218,-3.035748 3.0226,-3.001252 m 3.0218,-3.035747 1.3398,-1.345387 m -88.9826,79.964312 1.5797,-1.55236 m 3.0225,-3.03576 3.0219,-3.03574 m 3.0225,-3.00124 2.9877,-3.03575 m 3.0218,-3.00126 2.5414,-2.55278 m 51.8234,-51.849165 3.0226,-3.035749 m 3.0218,-3.001244 2.8503,-2.863264 m -85.8909,76.894062 3.0218,-3.03574 m 3.0226,-3.00125 3.0218,-3.03574 m 3.0226,-3.03575 0.6905,-0.68993 m 5.3574,-5.34705 2.9877,-3.00124 m 3.0219,-3.03576 1.0307,-1.03491 m 13.3246,-13.315883 0.756,-0.758936 m 27.1647,-27.183725 3.0225,-3.035747 m 3.0219,-3.001252 3.0225,-3.035748 m -85.2787,76.272481 2.2324,-2.24231 m 3.0218,-3.03575 3.0226,-3.00124 m 3.0218,-3.03575 2.1983,-2.20782 m 11.505,-11.48754 1.4081,-1.41438 m 2.9877,-3.00125 3.0218,-3.03574 m 9.067,-9.072747 3.0218,-3.001244 m 3.0218,-3.035748 1.2024,-1.2074 m 17.4462,-17.455539 2.5072,-2.483794 m 2.9877,-3.035748 3.0219,-3.001244 m -83.7617,74.755244 0.7211,-0.72444 m 3.0218,-3.03575 3.0226,-3.00124 m 3.0218,-3.03575 3.0226,-3.03575 m 21.2582,-21.250217 2.9187,-2.897761 m 2.9883,-3.035741 3.0219,-3.035748 m 3.0218,-3.001252 3.0226,-3.035748 m 17.1366,-17.145061 0.9966,-0.965916 m 3.0218,-3.035748 3.0219,-3.001252 m 3.0225,-3.035748 1.339,-1.345386 m -84.3795,75.376198 3.0218,-3.03575 m 2.9877,-3.00124 3.0226,-3.03575 m 33.2438,-33.220721 2.9877,-3.035748 m 3.0218,-3.035748 2.5413,-2.51829 m 15.5919,-15.592695 3.0218,-3.035748 m 3.0226,-3.001244 2.8503,-2.863264 m -85.8915,76.894068 3.0225,-3.03575 m 3.0219,-3.00124 3.0225,-3.03575 m 3.0218,-3.03575 0.6906,-0.68993 m 41.5889,-41.603515 2.9884,-3.035749 m 3.0218,-3.001244 1.0301,-1.034916 m 5.0143,-5.002076 3.0219,-3.035748 m 3.0225,-3.001252 3.0219,-3.035747 m -85.2729,76.273127 2.2323,-2.24232 m 3.0219,-3.03575 3.0225,-3.00124 m 3.0219,-3.03574 2.1982,-2.20783 m 47.7366,-47.778494 1.408,-1.379891 m 2.9877,-3.035742 3.0219,-3.001251 m 3.0225,-3.035748 3.0219,-3.001244 m -95.1636,86.13929 0.071,-0.0342 m 3.0219,-3.00125 0.3061,-0.34497 m 8.0021,-8.00332 0.7211,-0.72445 m 3.0226,-3.03575 3.0218,-3.00124 m 3.0226,-3.03575 3.0218,-3.03574 m 51.3422,-51.366208 3.0225,-3.001245 m 3.0219,-3.035747 3.0225,-3.001252 m 2.9877,-3.035748 1.3739,-1.345387 m -90.4248,81.413197 3.0219,-3.00125 m 2.9884,-3.03575 3.0219,-3.03575 m 3.0218,-3.00124 3.0226,-3.03575 m 51.3421,-51.366208 3.0226,-3.035741 m 3.0218,-3.001251 3.0226,-3.035749 m 3.0218,-3.001244 2.8503,-2.863264 m -83.6243,74.617257 0.7552,-0.75894 m 3.0226,-3.00124 3.0218,-3.03575 m 2.9877,-3.03574 0.7212,-0.68994 m 49.1105,-49.158383 1.5113,-1.517871 m 3.0218,-3.001244 3.0226,-3.035748 m 3.0218,-3.001252 3.0219,-3.035748"
       id="path4" />
    <path
       style="fill:none;stroke:#000000;stroke-width:0.0343427px;stroke-linecap:round;stroke-linejoin:round;stroke-miterlimit:4;stroke-dasharray:none;stroke-opacity:1"
       d="m 1223.247,68.100441 3.0218,-3.001251 m 3.0226,-3.035748 3.0218,-3.001244 m -19.6096,10.556115 3.0219,-3.001245 m 2.9877,-3.035748 3.0225,-3.001252 m 3.0219,-3.035748 1.3738,-1.345386 m -24.0053,14.937249 3.0219,-3.035742 m 3.0225,-3.001251 3.0219,-3.035748 m 3.0225,-3.001244 2.8503,-2.863264 m -24.006,14.937249 1.5113,-1.51787 m 3.0225,-3.001245 3.0218,-3.035748 m 3.0219,-3.001252 3.0225,-3.035748"
       id="path5" />
    <path
       style="fill:none;stroke:#000000;stroke-width:0.0343427px;stroke-linecap:round;stroke-linejoin:round;stroke-miterlimit:4;stroke-dasharray:none;stroke-opacity:1"
       d="m 1187.0155,68.100441 3.0218,-3.001251 m 3.0219,-3.035748 3.0225,-3.001244 m -19.6097,10.556115 2.9877,-3.001245 m 3.022,-3.035748 3.0225,-3.001252 m 3.0219,-3.035748 1.3738,-1.345386 m -17.961,8.900256 3.0219,-3.035748 m 2.9876,-3.001244 2.8853,-2.863264 m -19.473,10.418134 3.0225,-3.035748 m 3.0219,-3.001252 3.0225,-3.035748 m -19.0949,10.038664 2.473,-2.483794 m 3.0219,-3.035748 3.0225,-3.001244 m -17.5836,8.520786 0.9617,-0.965916 m 3.0218,-3.035748 3.0226,-3.001252 m 3.0218,-3.035748 1.3398,-1.345386 m -17.9275,8.900256 2.9884,-3.035748 m 3.0218,-3.001244 2.8845,-2.863264 m -19.4722,10.418134 3.0225,-3.035748 m 3.0219,-3.001252 3.0225,-3.035748 m -92.1076,83.10355 3.0219,-3.03575 m 3.0225,-3.00124 3.0219,-3.03575 m 63.9464,-63.992146 2.473,-2.483794 m 3.0219,-3.035748 3.0225,-3.001244 m -85.5136,76.480102 2.4723,-2.4493 m 5.0143,-5.00208 1.0301,-1.03491 m 3.0225,-3.03575 2.3349,-2.3458 m 54.0559,-54.091476 0.9617,-0.965916 m 3.0218,-3.035748 3.0226,-3.001252 m 3.0218,-3.035748 1.339,-1.345386 m -71.8793,62.853746 2.6103,-2.58728 m 3.0219,-3.03575 0.8243,-0.82793 m 47.4619,-47.50253 3.0219,-3.035748 m 3.0225,-3.001244 2.8845,-2.863264 m -91.9697,82.931066 3.022,-3.03575 m 21.1551,-21.14673 3.0225,-3.00124 m 3.0219,-3.03576 3.0225,-3.03574 m 39.2535,-39.257712 3.0225,-3.035748 m 2.9877,-3.001252 3.0218,-3.035748 m -92.0727,83.10355 3.0221,-3.03575 m 3.0222,-3.00124 2.8847,-2.93226 m 15.6601,-15.66169 2.5762,-2.58728 m 3.0219,-3.00125 2.9535,-2.96675 m 3.0908,-3.07025 3.0219,-3.03574 m 33.7251,-33.772676 2.5072,-2.483794 m 3.0219,-3.035748 3.0218,-3.001244 m -86.0627,77.032052 3.0221,-3.00125 m 3.0222,-3.03575 1.5111,-1.51787 m 12.5007,-12.52245 1.065,-1.06941 m 3.0218,-3.00124 3.0219,-3.03576 m 41.315,-41.327536 0.961,-0.965916 m 3.0225,-3.035748 3.0219,-3.001252 m 3.0225,-3.035748 1.339,-1.345386 m -82.31941,73.306366 0.96165,-0.96592 m 3.02216,-3.00124 3.0222,-3.03575"
       id="path6" />
    <path
       style="fill:none;stroke:#000000;stroke-width:0.0343427px;stroke-linecap:round;stroke-linejoin:round;stroke-miterlimit:4;stroke-dasharray:none;stroke-opacity:1"
       d="m 1014.8891,113.42965 3.0221,-3.00125 m 45.2983,-45.32921 3.0219,-3.035748 m 3.0225,-3.001244 2.8503,-2.863264 m -73.25321,64.233626 2.47271,-2.4493 m 3.0221,-3.03574 3.0222,-3.00124 m 3.0222,-3.03576 1.4424,-1.44887 m 40.8335,-40.844582 2.9876,-3.035748 m 3.0227,-3.001252 3.0218,-3.035748 m -61.88556,52.88408 3.02216,-3.03575 m 3.0222,-3.00125 3.0221,-3.03574 m 33.7248,-33.772676 2.5065,-2.483794 m 3.0225,-3.035748 3.0219,-3.001244 m -49.8311,40.775587 3.0221,-3.001251 m 3.0222,-3.035741 1.5111,-1.517878 m 24.6928,-24.699931 0.961,-0.965916 m 3.0225,-3.035748 3.0219,-3.001252 m 3.0225,-3.035748 1.339,-1.345386 m -46.08781,37.049904 0.96165,-0.965923 m 3.02216,-3.001244 3.0222,-3.035748 m 21.1209,-21.146733 3.0219,-3.035748 m 3.0225,-3.001244 2.8503,-2.863264 m -37.02161,27.977163 2.47271,-2.449297 m 3.0221,-3.035747 3.0222,-3.035749 m 9.0322,-9.038236 3.022,-3.035748 m 3.0226,-3.001252 3.0218,-3.035748 m -25.65396,16.62761 3.02216,-3.035747 m 3.0222,-3.035742 3.0221,-3.001251 m 3.0222,-3.035748 2.9878,-3.001244 m -13.5654,4.519122 3.0221,-3.001252 m 3.0222,-3.035748 1.3394,-1.345386"
       id="path7" />
  </g>
</svg>
