<?xml version="1.0" encoding="UTF-8" standalone="no"?>
<!-- Created with Inkscape (http://www.inkscape.org/) -->

<svg
   width="999.99603mm"
   height="80.921417mm"
   viewBox="0 0 999.99603 80.921418"
   version="1.1"
   id="svg1"
   xmlns="http://www.w3.org/2000/svg"
   xmlns:svg="http://www.w3.org/2000/svg">
  <defs
     id="defs1" />
  <g
     id="layer1"
     transform="translate(-1052.6004,-59.598444)">
    <path
       style="fill:none;stroke:#000000;stroke-width:3.29464px;stroke-linecap:round;stroke-linejoin:round;stroke-miterlimit:4;stroke-dasharray:none;stroke-opacity:1"
       d="m 1788.3352,61.245796 h -730.9617 m 0,0 -0.4858,0.03736 m 0,0 -0.4857,0.111904 m 0,0 -0.4483,0.186507 m 0,0 -0.411,0.261109 m 0,0 -0.3737,0.335712 m 0,0 -0.2989,0.335712 m 0,0 -0.2615,0.447616 m 0,0 -0.1868,0.447616 m 0,0 -0.1121,0.447616 m 0,0 -0.062,0.484918 m 0,0 v 68.301204 m 0,0 0.062,0.48492 m 0,0 0.1121,0.48492 m 0,0 0.1868,0.44761 m 0,0 0.2615,0.41032 m 0,0 0.2989,0.37301 m 0,0 0.3737,0.29841 m 0,0 0.411,0.26111 m 0,0 0.4483,0.18651 m 0,0 0.4857,0.1119 m 0,0 0.4858,0.0374 m 0,0 h 12.5417 m 0,0 0.411,-0.0374 m 0,0 0.4857,-0.1119 m 0,0 0.4484,-0.18651 m 0,0 0.411,-0.22381 m 0,0 0.3736,-0.33571 m 0,0 0.3363,-0.37301 m 0,0 0.2242,-0.41032 m 0,0 0.1868,-0.44761 m 0,0 0.1121,-0.29841 m 0,0 v -0.14921 m 0,0 0.062,-0.59682 m 0,0 v -2.6858 m 0,0 -0.1495,-0.89526 m 0,0 -0.1121,-0.22381 m 0,0 -0.2615,-0.41031 m 0,0 -0.2989,-0.37302 m 0,0 -0.3737,-0.33571 m 0,0 -0.411,-0.26111 m 0,0 -0.4483,-0.1865 m 0,0 -0.4858,-0.11191 m 0,0 -0.4857,-0.0374 m 0,0 h -5.6531 m 0,0 -0.3363,-0.0374 m 0,0 -0.2989,-0.11191 m 0,0 -0.2242,-0.18651 m 0,0 -0.2242,-0.2611 m 0,0 -0.112,-0.29842 m 0,0 -0.062,-0.33571 m 0,0 V 116.491 m 0,0 0.062,-0.48491 m 0,0 0.112,-0.44762 m 0,0 0.1869,-0.44762 m 0,0 0.2615,-0.41031 m 0,0 0.2989,-0.37301 m 0,0 0.3737,-0.33572 m 0,0 0.411,-0.26111 m 0,0 0.4483,-0.1865 m 0,0 0.4857,-0.11191 m 0,0 0.4858,-0.0374 m 0,0 h 25.9079 m 0,0 0.4857,0.0374 m 0,0 0.4484,0.11191 m 0,0 0.4483,0.1865 m 0,0 0.4484,0.26111 m 0,0 0.3363,0.33572 m 0,0 0.3363,0.37301 m 0,0 0.2615,0.41031 m 0,0 0.1868,0.44762 m 0,0 0.1121,0.44762 m 0,0 0.062,0.48491 m 0,0 v 9.32567 m 0,0 -0.062,0.33571 m 0,0 -0.1494,0.29842 m 0,0 -0.1869,0.2611 m 0,0 -0.2615,0.18651 m 0,0 -0.2989,0.11191 m 0,0 -0.2989,0.0374 m 0,0 h -2.2088 m 0,0 -0.4858,0.0374 m 0,0 -0.4483,0.11191 m 0,0 -0.4484,0.1865 m 0,0 -0.4484,0.26111 m 0,0 -0.3362,0.33571 m 0,0 -0.3363,0.37302 m 0,0 -0.2615,0.41031 m 0,0 -0.1869,0.44762 m 0,0 -0.1121,0.48492 m 0,0 -0.062,0.48491 m 0,0 v 2.46198 m 0,0 0.062,0.48492 m 0,0 0.1121,0.48491 m 0,0 0.1869,0.44762 m 0,0 0.2615,0.41031 m 0,0 0.3363,0.37302 m 0,0 0.3362,0.29841 m 0,0 0.4484,0.26111 m 0,0 0.4484,0.1865 m 0,0 0.4483,0.11191 m 0,0 0.4858,0.0374 m 0,0 h 5.9152 m 0,0 0.4858,-0.0374 m 0,0 0.4857,-0.11191 m 0,0 0.4484,-0.1865 m 0,0 0.411,-0.26111 m 0,0 0.3736,-0.29841 m 0,0 0.3363,-0.37302 m 0,0 0.2242,-0.41031 m 0,0 0.1868,-0.44762 m 0,0 0.1494,-0.48491 m 0,0 0.062,-0.48492 m 0,0 v -31.66997 m 0,0 -0.075,-0.29842 m 0,0 -0.1121,-0.29841 m 0,0 -0.1868,-0.26111 m 0,0 -0.2616,-0.186502 m 0,0 -0.2989,-0.149205 m 0,0 -0.3363,-0.03736 m 0,0 h -7.4496 m 0,0 v 6.229547 m 0,0 h -29.0154 m 0,0 V 71.168193 m 0,0 h 140.6958 m 0,0 v 3.133431 m 0,0 h 74.7664 m 0,0 V 117.1251 m 0,0 h -71.659 m 0,0 -0.4857,0.0374 m 0,0 -0.4484,0.11191 m 0,0 -0.4483,0.1865 m 0,0 -0.411,0.26111 m 0,0 -0.3737,0.29841 m 0,0 -0.3363,0.37302 m 0,0 -0.2615,0.44761 m 0,0 -0.1868,0.44762 m 0,0 -0.1121,0.44762 m 0,0 -0.062,0.59682 m 0,0 v 15.51791 m 0,0 0.062,0.37302 m 0,0 0.1121,0.48491 m 0,0 0.1868,0.44762 m 0,0 0.2615,0.41031 m 0,0 0.3363,0.37302 m 0,0 0.3737,0.33571 m 0,0 0.411,0.26111 m 0,0 0.4483,0.18651 m 0,0 0.4484,0.1119 m 0,0 0.4857,0.0374 m 0,0 0.5231,-0.0374 m 0,0 0.4484,-0.1119 m 0,0 0.4483,-0.18651 m 0,0 0.411,-0.26111 m 0,0 0.3737,-0.33571 m 0,0 0.3362,-0.37302 m 0,0 0.2616,-0.41031 m 0,0 0.1868,-0.44762 m 0,0 0.1121,-0.48491 m 0,0 0.062,-0.48492 m 0,0 v -3.69296 m 0,0 0.062,-0.48492 m 0,0 0.1121,-0.48492 m 0,0 0.1868,-0.44761 m 0,0 0.2616,-0.41032 m 0,0 0.2989,-0.37301 m 0,0 0.3736,-0.33571 m 0,0 0.411,-0.26111 m 0,0 0.4484,-0.18651 m 0,0 0.4857,-0.1119 m 0,0 0.4857,-0.0374 m 0,0 h 54.3616 m 0,0 0.4857,0.0374 m 0,0 0.4858,0.1119 m 0,0 0.4483,0.18651 m 0,0 0.411,0.26111 m 0,0 0.3737,0.33571 m 0,0 0.2989,0.37301 m 0,0 0.2615,0.41032 m 0,0 0.1868,0.44761 m 0,0 0.1121,0.48492 m 0,0 0.062,0.48492 m 0,0 v 0.29841 m 0,0 -0.062,0.29841 m 0,0 0.075,0.48491 m 0,0 0.1121,0.48492 m 0,0 0.1869,0.44762 m 0,0 0.2241,0.41031 m 0,0 0.3363,0.37302 m 0,0 0.3736,0.29841 m 0,0 0.411,0.26111 m 0,0 0.4484,0.1865 m 0,0 0.4857,0.11191 m 0,0 0.4858,0.0374 m 0,0 h 31.5984 m 0,0 0.4857,-0.0374 m 0,0 0.4857,-0.11191 m 0,0 0.4484,-0.1865 m 0,0 0.411,-0.26111 m 0,0 0.3736,-0.29841 m 0,0 0.2989,-0.37302 m 0,0 0.2616,-0.41031 m 0,0 0.1868,-0.44762 m 0,0 0.1121,-0.48492 m 0,0 0.062,-0.48491 m 0,0 v -2.46198 m 0,0 -0.062,-0.48492 m 0,0 -0.1121,-0.48491 m 0,0 -0.1868,-0.44762 m 0,0 -0.2616,-0.41031 m 0,0 -0.2989,-0.37302 m 0,0 -0.3736,-0.33571 m 0,0 -0.411,-0.26111 m 0,0 -0.4484,-0.1865 m 0,0 -0.4857,-0.11191 m 0,0 -0.4857,-0.0374 m 0,0 h -18.0834 m 0,0 V 94.780779 m 0,0 h 11.2321 m 0,0 0.2989,-0.03736 m 0,0 0.2989,-0.149205 m 0,0 0.2616,-0.186507 m 0,0 0.2242,-0.261109 m 0,0 0.1121,-0.298411 m 0,0 0.062,-0.29841 m 0,0 v -6.229548 m 0,0 -0.062,-0.29841 m 0,0 -0.1121,-0.298411 m 0,0 -0.2242,-0.261109 m 0,0 -0.2616,-0.223808 m 0,0 -0.2989,-0.111904 m 0,0 -0.2989,-0.03736 m 0,0 h -11.2321 m 0,0 V 71.168144 m 0,0 h 94.6837 m 0,0 v 14.921075 m 0,0 h -11.2315 m 0,0 -0.2989,0.03736 m 0,0 -0.2989,0.111904 m 0,0 -0.2615,0.223808 m 0,0 -0.1868,0.261109 m 0,0 -0.1495,0.298411 m 0,0 -0.062,0.29841 m 0,0 v 6.229548 m 0,0 0.062,0.29841 m 0,0 0.1495,0.298411 m 0,0 0.1868,0.261109 m 0,0 0.2615,0.186507 m 0,0 0.2989,0.149205 m 0,0 0.2989,0.03736 m 0,0 h 11.2315 m 0,0 V 127.0476 m 0,0 h -18.0453 m 0,0 -0.4858,0.0374 m 0,0 -0.4857,0.11191 m 0,0 -0.4484,0.1865 m 0,0 -0.411,0.26111 m 0,0 -0.3736,0.33571 m 0,0 -0.3363,0.37302 m 0,0 -0.2615,0.41031 m 0,0 -0.1868,0.44762 m 0,0 -0.1121,0.48491 m 0,0 -0.062,0.48492 m 0,0 v 2.46198 m 0,0 0.062,0.48491 m 0,0 0.1121,0.48492 m 0,0 0.1868,0.44762 m 0,0 0.2615,0.41031 m 0,0 0.3363,0.37302 m 0,0 0.3736,0.29841 m 0,0 0.411,0.26111 m 0,0 0.4484,0.1865 m 0,0 0.4857,0.11191 m 0,0 0.4858,0.0374 m 0,0 h 23.6611 m 0,0 0.4857,-0.0374 m 0,0 0.4484,-0.11191 m 0,0 0.4483,-0.1865 m 0,0 0.4484,-0.26111 m 0,0 0.3363,-0.29841 m 0,0 0.3363,-0.37302 m 0,0 0.2615,-0.41031 m 0,0 0.1868,-0.44762 m 0,0 0.1121,-0.48492 m 0,0 0.062,-0.48491 m 0,0 V 71.168131 m 0,0 h 292.6996 m 0,0 v 61.474819 m 0,0 0.062,0.48491 m 0,0 0.1121,0.48492 m 0,0 0.1868,0.44762 m 0,0 0.2616,0.41031 m 0,0 0.3362,0.37302 m 0,0 0.3737,0.29841 m 0,0 0.411,0.26111 m 0,0 0.4483,0.1865 m 0,0 0.4858,0.11191 m 0,0 0.4857,0.0374 m 0,0 h 23.6611 m 0,0 0.4857,-0.0374 m 0,0 0.4484,-0.11191 m 0,0 0.4484,-0.1865 m 0,0 0.4483,-0.26111 m 0,0 0.3363,-0.29841 m 0,0 0.3363,-0.37302 m 0,0 0.2615,-0.41031 m 0,0 0.1868,-0.44762 m 0,0 0.1121,-0.48492 m 0,0 0.062,-0.48491 m 0,0 v -2.46198 m 0,0 -0.062,-0.48492 m 0,0 -0.1121,-0.48491 m 0,0 -0.1868,-0.44762 m 0,0 -0.2615,-0.41031 m 0,0 -0.3363,-0.37302 m 0,0 -0.3363,-0.33571 m 0,0 -0.4483,-0.26111 m 0,0 -0.4484,-0.1865 m 0,0 -0.4484,-0.11191 m 0,0 -0.4857,-0.0374 m 0,0 h -18.0827 m 0,0 V 94.780779 m 0,0 h 11.2315 m 0,0 0.2989,-0.03736 m 0,0 0.2989,-0.149205 m 0,0 0.2615,-0.186507 m 0,0 0.2242,-0.261109 m 0,0 0.1121,-0.298411 m 0,0 0.062,-0.29841 m 0,0 v -6.229548 m 0,0 -0.062,-0.29841 m 0,0 -0.1121,-0.298411 m 0,0 -0.2242,-0.261109 m 0,0 -0.2615,-0.223808 m 0,0 -0.2989,-0.111904 m 0,0 -0.2989,-0.03736 m 0,0 h -11.2315 m 0,0 V 71.168144 m 0,0 h 92.1374 m 0,0 3.4823,14.921075 m 0,0 h -16.511 m 0,0 -0.3363,0.03736 m 0,0 -0.2989,0.111904 m 0,0 -0.2615,0.223808 m 0,0 -0.1869,0.261109 m 0,0 -0.112,0.298411 m 0,0 -0.062,0.29841 m 0,0 v 6.229548 m 0,0 0.062,0.29841 m 0,0 0.112,0.298411 m 0,0 0.1869,0.261109 m 0,0 0.2615,0.186507 m 0,0 0.2989,0.149205 m 0,0 0.3363,0.03736 m 0,0 h 11.1941 m 0,0 v 13.652779 m 0,0 h 10.483 m 0,0 2.8832,12.42179 m 0,0 h -13.3662 m 0,0 v 6.19225 m 0,0 h -13.7025 m 0,0 -0.4857,0.0374 m 0,0 -0.4483,0.11191 m 0,0 -0.4484,0.1865 m 0,0 -0.4484,0.26111 m 0,0 -0.3362,0.33571 m 0,0 -0.3363,0.37302 m 0,0 -0.2616,0.41031 m 0,0 -0.1868,0.44762 m 0,0 -0.1121,0.48491 m 0,0 -0.062,0.48492 m 0,0 v 2.46198 m 0,0 0.062,0.48491 m 0,0 0.1121,0.48492 m 0,0 0.1868,0.44762 m 0,0 0.2616,0.41031 m 0,0 0.3363,0.37302 m 0,0 0.3362,0.29841 m 0,0 0.4484,0.26111 m 0,0 0.4484,0.1865 m 0,0 0.4483,0.11191 m 0,0 0.4857,0.0374 m 0,0 h 31.6364 m 0,0 0.4858,-0.0374 m 0,0 0.4483,-0.11191 m 0,0 0.4484,-0.1865 m 0,0 0.411,-0.26111 m 0,0 0.3736,-0.29841 m 0,0 0.3363,-0.37302 m 0,0 0.2615,-0.41031 m 0,0 0.1869,-0.44762 m 0,0 0.112,-0.48492 m 0,0 0.062,-0.48491 m 0,0 -0.062,-0.29841 m 0,0 v -0.29841 m 0,0 0.062,-0.48492 m 0,0 0.1121,-0.48492 m 0,0 0.1868,-0.44761 m 0,0 0.2616,-0.41032 m 0,0 0.2989,-0.37301 m 0,0 0.3736,-0.33571 m 0,0 0.411,-0.26111 m 0,0 0.4484,-0.18651 m 0,0 0.4857,-0.1119 m 0,0 0.4857,-0.0374 m 0,0 h 85.511 m 0,0 0.4857,0.0374 m 0,0 0.4858,0.1119 m 0,0 0.4483,0.18651 m 0,0 0.411,0.26111 m 0,0 0.3737,0.33571 m 0,0 0.2989,0.37301 m 0,0 0.2615,0.41032 m 0,0 0.1868,0.44761 m 0,0 0.1121,0.48492 m 0,0 0.062,0.48492 m 0,0 v 3.69296 m 0,0 0.062,0.48492 m 0,0 0.1121,0.48491 m 0,0 0.1868,0.44762 m 0,0 0.2615,0.41031 m 0,0 0.3363,0.37302 m 0,0 0.3736,0.33571 m 0,0 0.411,0.26111 m 0,0 0.4484,0.18651 m 0,0 0.4484,0.1119 m 0,0 0.4857,0.0374 m 0,0 0.4857,-0.0374 m 0,0 0.4857,-0.1119 m 0,0 0.4484,-0.18651 m 0,0 0.411,-0.26111 m 0,0 0.3736,-0.33571 m 0,0 0.3363,-0.37302 m 0,0 0.2616,-0.41031 m 0,0 0.1868,-0.44762 m 0,0 0.1121,-0.48491 m 0,0 0.062,-0.55952 m 0,0 V 120.1093 m 0,0 -0.062,-0.37301 m 0,0 -0.1121,-0.44762 m 0,0 -0.1868,-0.44762 m 0,0 -0.2616,-0.44761 m 0,0 -0.3363,-0.37302 m 0,0 -0.3736,-0.29841 m 0,0 -0.411,-0.26111 m 0,0 -0.4484,-0.1865 m 0,0 -0.4857,-0.11191 m 0,0 -0.4857,-0.0374 m 0,0 h -35.2302 m 0,0 V 74.301624 m 0,0 h 38.375 m 0,0 v -3.133431 m 0,0 h 140.6964 m 0,0 V 105.9716 m 0,0 h -29.0154 m 0,0 v -6.229551 m 0,0 h -7.4503 m 0,0 -0.3363,0.03736 m 0,0 -0.2989,0.149205 m 0,0 -0.2615,0.186506 m 0,0 -0.1868,0.26111 m 0,0 -0.1121,0.29841 m 0,0 -0.075,0.29842 m 0,0 v 31.66997 m 0,0 0.062,0.48492 m 0,0 0.1121,0.48491 m 0,0 0.1868,0.44762 m 0,0 0.2616,0.41031 m 0,0 0.3363,0.37302 m 0,0 0.3736,0.29841 m 0,0 0.411,0.26111 m 0,0 0.4484,0.1865 m 0,0 0.4857,0.11191 m 0,0 0.4857,0.0374 m 0,0 h 5.9153 m 0,0 0.4857,-0.0374 m 0,0 0.4484,-0.11191 m 0,0 0.4483,-0.1865 m 0,0 0.411,-0.26111 m 0,0 0.3737,-0.29841 m 0,0 0.3363,-0.37302 m 0,0 0.2615,-0.41031 m 0,0 0.1868,-0.44762 m 0,0 0.1121,-0.48491 m 0,0 0.062,-0.48492 m 0,0 v -2.46198 m 0,0 -0.062,-0.48491 m 0,0 -0.1121,-0.48492 m 0,0 -0.1868,-0.44762 m 0,0 -0.2615,-0.41031 m 0,0 -0.3363,-0.37302 m 0,0 -0.3737,-0.33571 m 0,0 -0.411,-0.26111 m 0,0 -0.4483,-0.1865 m 0,0 -0.4484,-0.11191 m 0,0 -0.4857,-0.0374 m 0,0 h -2.2088 m 0,0 -0.2989,-0.0374 m 0,0 -0.2989,-0.11191 m 0,0 -0.2616,-0.18651 m 0,0 -0.1868,-0.2611 m 0,0 -0.1495,-0.29842 m 0,0 -0.062,-0.33571 m 0,0 V 116.491 m 0,0 0.062,-0.48491 m 0,0 0.1121,-0.44762 m 0,0 0.1869,-0.44762 m 0,0 0.2615,-0.41031 m 0,0 0.2989,-0.37301 m 0,0 0.3736,-0.33572 m 0,0 0.4484,-0.26111 m 0,0 0.4484,-0.1865 m 0,0 0.4483,-0.11191 m 0,0 0.4858,-0.0374 m 0,0 h 25.9079 m 0,0 0.4857,0.0374 m 0,0 0.4857,0.11191 m 0,0 0.4484,0.1865 m 0,0 0.411,0.26111 m 0,0 0.3736,0.33572 m 0,0 0.2989,0.37301 m 0,0 0.2616,0.41031 m 0,0 0.1868,0.44762 m 0,0 0.1121,0.44762 m 0,0 0.062,0.48491 m 0,0 v 9.32567 m 0,0 -0.062,0.33571 m 0,0 -0.1121,0.29842 m 0,0 -0.2242,0.2611 m 0,0 -0.2242,0.18651 m 0,0 -0.2989,0.11191 m 0,0 -0.3362,0.0374 m 0,0 h -5.6538 m 0,0 -0.4857,0.0374 m 0,0 -0.4857,0.11191 m 0,0 -0.4484,0.1865 m 0,0 -0.411,0.26111 m 0,0 -0.3736,0.33571 m 0,0 -0.2989,0.37302 m 0,0 -0.2616,0.41031 m 0,0 -0.1121,0.22381 m 0,0 -0.1868,0.89526 m 0,0 v 2.94691 m 0,0 0.062,0.29842 m 0,0 0.1121,0.48491 m 0,0 0.1868,0.44762 m 0,0 0.2615,0.41031 m 0,0 0.3363,0.37302 m 0,0 0.3737,0.33571 m 0,0 0.4109,0.22381 m 0,0 0.4484,0.1865 m 0,0 0.4857,0.11191 m 0,0 0.5231,0.0374 m 0,0 h 12.4297 m 0,0 0.4857,-0.0374 m 0,0 0.4857,-0.11191 m 0,0 0.4484,-0.1865 m 0,0 0.411,-0.26111 m 0,0 0.3736,-0.29841 m 0,0 0.2989,-0.37302 m 0,0 0.2616,-0.41031 m 0,0 0.1868,-0.44762 m 0,0 0.1121,-0.48491 m 0,0 0.062,-0.48492 m 0,0 V 64.341918 m 0,0 -0.062,-0.484917 m 0,0 -0.1121,-0.447616 m 0,0 -0.1868,-0.447616 m 0,0 -0.2616,-0.447616 m 0,0 -0.2989,-0.335712 m 0,0 -0.3736,-0.335712 m 0,0 -0.411,-0.261109 m 0,0 -0.4484,-0.186507 m 0,0 -0.4857,-0.111904 m 0,0 -0.4857,-0.03736 m 0,0 H 1845.315 m 0,0 -0.4857,0.03736 m 0,0 -0.4858,0.111904 m 0,0 -0.4483,0.186507 m 0,0 -0.411,0.261109 m 0,0 -0.3737,0.335712 m 0,0 -0.2989,0.335712 m 0,0 -0.2615,0.447616 m 0,0 -0.1868,0.447616 m 0,0 -0.1121,0.447616 m 0,0 -0.062,0.484917 m 0,0 v 6.826387 m 0,0 0.062,0.484918 m 0,0 0.1121,0.484917 m 0,0 0.1868,0.447616 m 0,0 0.2615,0.410315 m 0,0 0.2989,0.373013 m 0,0 0.3737,0.335712 m 0,0 0.411,0.26111 m 0,0 0.4483,0.186506 m 0,0 0.4858,0.111904 m 0,0 0.4857,0.03736 m 0,0 h 11.531 m 0,0 v 3.096116 m 0,0 h -1.2355 m 0,0 v 36.631238 m 0,0 h 1.2355 m 0,0 v 3.09613 m 0,0 h -52.9012 m 0,0 -12.3923,-53.454751 m 0,0 -0.075,-0.261109 m 0,0 -0.1868,-0.447616 m 0,0 -0.2616,-0.447616 m 0,0 -0.2989,-0.335712 m 0,0 -0.3736,-0.335712 m 0,0 -0.411,-0.261109 m 0,0 -0.4484,-0.186507 m 0,0 -0.4857,-0.111904 m 0,0 -0.4857,-0.03736"
       id="path1" />
    <path
       style="fill:none;stroke:#000000;stroke-width:0.0374391px;stroke-linecap:round;stroke-linejoin:round;stroke-miterlimit:4;stroke-dasharray:none;stroke-opacity:1"
       d="m 2050.297,133.53839 0.411,-0.41031 m -9.6591,1.75322 2.6578,-2.64849 m 2.6211,-2.64848 2.6578,-2.6112 m -15.9487,7.98278 1.4223,-1.4175 m 2.6211,-2.61119 2.6578,-2.64849 m 2.621,-2.64849 2.6584,-2.61119 m 2.6205,-2.64849 2.6584,-2.61119 m -6.5897,-1.3429 2.6211,-2.61118 m 2.6578,-2.64849 1.7598,-1.75323 m -11.0073,3.05882 2.621,-2.61119 m 2.6584,-2.64849 2.6205,-2.61118 m 2.6584,-2.64849 0.4484,-0.44762 m -41.4076,33.3859 2.6584,-2.64849 m 2.6204,-2.64849 1.2355,-1.19368 m 15.0133,-14.99568 2.2462,-2.23816 m 2.6584,-2.64849 2.5831,-2.53658 m 3.6317,-3.65567 1.7219,-1.67862 m 2.621,-2.648486 2.6578,-2.648495 m -43.6164,35.586761 2.6584,-2.64849 m 14.9006,-14.88377 0.936,-0.93257 m 2.6584,-2.61119 2.6205,-2.64849 m 13.2161,-13.167841 2.6584,-2.611187 m 2.6204,-2.648494 2.6585,-2.648488 m -43.6171,35.58676 2.6585,-2.64849 m 7.9372,-7.90817 2.6205,-2.64849 m 23.8112,-23.687207 2.621,-2.648488 m 2.6578,-2.611187 1.7599,-1.790526 m -46.4997,38.459058 1.1234,-1.11908 m 2.6578,-2.64849 2.6211,-2.61119 m 2.6578,-2.64849 1.2735,-1.23098 m 27.4055,-27.342866 0.3737,-0.410315 m 2.6584,-2.611187 2.6204,-2.648488 m 2.6584,-2.611187 0.4484,-0.447616 m -46.4996,38.421759 2.4336,-2.42467 m 2.6584,-2.64849 2.6584,-2.61119 m 29.5017,-29.46912 2.2088,-2.163552 m 2.6211,-2.611187 2.6578,-2.648494 m -15.387,7.423233 0.8606,-0.820654 m 2.6211,-2.648494 2.6578,-2.648489 m 2.621,-2.611186 1.1982,-1.193687 m -15.7245,7.758958 2.6578,-2.611187 m 2.6211,-2.648494 2.5083,-2.499277 m -17.0347,9.101856 2.6578,-2.648494 m 2.6211,-2.648489 2.6584,-2.611186 m -16.7358,8.728823 2.2094,-2.163552 m 2.6205,-2.611187 2.6584,-2.648494 m -15.3876,7.423233 0.8612,-0.820654 m 2.6211,-2.648494 2.6584,-2.648489 m 2.6205,-2.611186 1.1981,-1.193687 m -15.7251,7.758958 2.6584,-2.611187 m 2.6204,-2.648494 2.509,-2.499277 m -17.0347,9.101856 2.6578,-2.648494 m 2.6211,-2.648489 2.6584,-2.611186 m -16.6978,8.728823 2.1714,-2.163552 m 2.6205,-2.611187 2.6584,-2.648494 m -15.3876,7.423233 0.8612,-0.820654 m 2.6205,-2.648494 2.6584,-2.648489 m 2.6204,-2.611186 1.1982,-1.193687 m -84.425,76.24667 2.6578,-2.61118 m 2.6211,-2.64849 0.2989,-0.26111 m 63.1221,-62.966919 2.6584,-2.611187 m 2.6204,-2.648495 2.509,-2.499276 m -75.1407,67.032917 2.621,-2.64849 m 55.4844,-55.282572 2.6584,-2.648494 m 2.6211,-2.648488 2.6578,-2.611187 m -74.6164,66.473371 1.9472,-1.93974 m 2.6578,-2.64849 2.6211,-2.61118 m 2.6578,-2.64849 1.4603,-1.45481 m 46.5744,-46.441837 2.1714,-2.163552 m 2.6211,-2.611187 2.6578,-2.648495 m -73.3056,65.167781 0.6365,-0.63414 m 2.6578,-2.64849 2.621,-2.61119 m 2.6578,-2.64849 2.6211,-2.61119 m 46.7238,-46.591047 0.8612,-0.820655 m 2.6211,-2.648494 2.6578,-2.648488 m 2.6584,-2.611187 1.1607,-1.193686 m -73.8304,65.727317 2.621,-2.64849 m 2.6584,-2.61118 2.6205,-2.64849 m 50.2061,-50.060199 2.6578,-2.611187 m 2.621,-2.648495 2.5084,-2.499276 m -75.1407,67.032917 2.621,-2.64849 m 2.6584,-2.61119 2.6205,-2.64849 m 2.6584,-2.61119 0.5978,-0.63414 m 46.9486,-46.777562 2.6578,-2.648494 m 2.6211,-2.648488 2.6578,-2.611187 m -74.6158,66.473371 1.9467,-1.93974 m 2.6584,-2.64849 2.6204,-2.61118 m 2.6585,-2.64849 1.9466,-1.93974 m 46.0874,-45.956907 2.1714,-2.163552 m 2.6211,-2.611187 2.6578,-2.648495 m -73.3055,65.167781 0.6364,-0.63414 m 2.6584,-2.64849 2.6204,-2.61119 m 2.6585,-2.64849 2.6204,-2.61119 m 2.6584,-2.64849 0.2242,-0.22381 m 43.8412,-43.718735 0.8606,-0.820654 m 2.6211,-2.648495 2.6578,-2.648488 m 2.6584,-2.611187 1.1608,-1.193686 m -73.8299,65.727315 2.6204,-2.64849 m 2.6585,-2.61118 2.6204,-2.64849 m 5.0547,-5.03587 0.2615,-0.22381 m 2.6211,-2.64848 2.6584,-2.64849 m 34.3315,-34.206558 2.6578,-2.648495 m 2.6211,-2.648488 2.6584,-2.611187 m 2.6578,-2.648494 2.471,-2.499277 m -75.1401,67.032919 2.6204,-2.64849 m 2.6585,-2.61119 2.6204,-2.64849 m 2.6584,-2.61119 0.6364,-0.63414 m 10.5951,-10.59397 1.9846,-1.93973 m 2.6205,-2.64849 2.6584,-2.648497 m 25.0841,-24.992791 1.3475,-1.342898 m 2.6211,-2.611187 2.6584,-2.648494 m 2.6578,-2.648488 2.6211,-2.611187 m -74.6164,66.473372 1.9466,-1.93974 m 2.6585,-2.64849 2.6204,-2.61119 m 2.6584,-2.64848 1.9467,-1.93974 m 19.2061,-19.136278 2.6211,-2.648494 m 2.6584,-2.611187 1.535,-1.529411"
       id="path2" />
    <path
       style="fill:none;stroke:#000000;stroke-width:0.0374391px;stroke-linecap:round;stroke-linejoin:round;stroke-miterlimit:4;stroke-dasharray:none;stroke-opacity:1"
       d="m 1882.4946,71.653242 2.6584,-2.648489 m 2.6578,-2.611186 2.621,-2.648495 m -73.3061,65.167788 0.6364,-0.63415 m 2.6584,-2.64849 2.6205,-2.61119 m 2.6584,-2.64849 2.6584,-2.61119 m 29.0527,-28.984179 2.6204,-2.648489 m 2.6585,-2.611186 0.2241,-0.223808 m 10.3329,-10.332844 2.6585,-2.611187 m 2.6578,-2.648494 2.621,-2.648488 m 2.6578,-2.611187 1.1608,-1.193686 m -73.8299,65.727318 2.6205,-2.64849 m 2.6584,-2.61119 2.6584,-2.64848 m 36.3156,-36.220907 0.6737,-0.671449 m 2.6211,-2.611187 2.6584,-2.648488 m 2.6205,-2.611187 2.6584,-2.648494 m 2.6204,-2.648488 2.6584,-2.611187 m 2.6578,-2.648495 2.509,-2.499276 m -80.4569,72.292598 2.6204,-2.6112 m 2.6584,-2.64848 2.6205,-2.64849 m 2.6584,-2.61119 2.6584,-2.64849 m 2.6204,-2.61119 0.6365,-0.63414 m 42.9426,-42.823478 1.3482,-1.342898 m 2.6204,-2.611187 2.6584,-2.648494 m 2.6578,-2.648488 2.6211,-2.611187 m -80.569,72.441802 2.6204,-2.64849 m 2.6584,-2.64849 2.6205,-2.61119 m 2.6584,-2.64849 2.6584,-2.61119 m 2.6204,-2.64848 1.9473,-1.93974"
       id="path3" />
    <path
       style="fill:none;stroke:#000000;stroke-width:0.0374391px;stroke-linecap:round;stroke-linejoin:round;stroke-miterlimit:4;stroke-dasharray:none;stroke-opacity:1"
       d="m 1850.7834,71.653242 2.6585,-2.648489 m 2.6578,-2.611186 2.621,-2.648495 m -80.1574,71.994168 2.2088,-2.20085 m 2.6585,-2.61119 2.621,-2.64849 m 2.6578,-2.64849 2.6211,-2.61119 m 3.9306,-3.91678 1.3856,-1.3429 m 2.6204,-2.64848 2.6584,-2.6485 m 40.2842,-40.174981 1.9847,-1.939738 m 2.6584,-2.648494 2.6204,-2.648488 m 2.6585,-2.611187 1.1601,-1.193686 m -82.6651,74.493444 0.898,-0.85796 m 2.6584,-2.64849 2.621,-2.64848 m 7.9367,-7.87087 0.8612,-0.85796 m 9.6965,-9.6987 2.6584,-2.64849 m 2.6584,-2.61118 0.411,-0.44762 m 41.8572,-41.704399 2.5084,-2.499277 m -79.8579,71.695746 2.022,-2.01434 m 2.6578,-2.64849 1.2355,-1.23099 m 19.8806,-19.84503 2.6578,-2.61118 m 2.6584,-2.64849 2.6204,-2.648495 m -16.96,9.027255 2.4337,-2.42468 m 2.6584,-2.64849 2.6204,-2.61119 m 2.6584,-2.648485 2.6205,-2.648494 m 2.6584,-2.611187 0.1121,-0.111904 m -14.6385,6.677182 2.6211,-2.611187 m 2.6578,-2.648488 2.6211,-2.611187 m 2.6578,-2.648495 2.5836,-2.573885 m -16.5483,8.579618 2.0594,-2.051648 m 2.6578,-2.648488 2.6584,-2.611187 m 2.6204,-2.648494 2.6584,-2.648488 m -20.5543,12.608305 0.7118,-0.746051 m 2.6578,-2.611187 2.6584,-2.648495 m 2.6204,-2.648488 0.075,-0.03736 m 5.5037,-5.483496 2.3583,-2.387372 m 2.621,-2.611187 2.2836,-2.238161 m -22.0894,14.100415 1.3856,-1.380199 m 14.489,-14.43614 2.6204,-2.648488 m -10.1081,2.163552 0.8606,-0.820654 m 2.6584,-2.648495 2.6211,-2.648488 m 2.6578,-2.611187 0.8986,-0.895263 m -82.3662,74.195026 0.8612,-0.85796 m 2.6584,-2.64849 2.3956,-2.38738 m 61.026,-60.840661 2.6211,-2.611187 m 2.6578,-2.648494 2.5083,-2.499277 m -80.4563,72.292589 2.6205,-2.61119 m 2.6584,-2.64849 1.2355,-1.23099 m 56.9072,-56.700063 2.6211,-2.648495 m 2.6578,-2.648488 2.621,-2.611187 m -80.569,72.441803 2.6205,-2.64849 m 2.6584,-2.64849 2.5457,-2.53659 m 56.0466,-55.879409 2.1715,-2.163552 m 2.6578,-2.611187 2.6211,-2.648494 m -79.2962,71.173512 1.3476,-1.3802 m 2.6584,-2.61119 2.6578,-2.64849 m 57.2448,-57.110399 0.8612,-0.820654 m 2.6578,-2.648495 2.6211,-2.648488 m 2.6578,-2.611187 1.1981,-1.193686 m -73.8672,65.727319 2.6584,-2.64849 m 2.6204,-2.61119 2.3963,-2.38737 m 50.4676,-50.321311 2.6211,-2.611187 m 2.6578,-2.648494 2.5089,-2.499277 m -64.6203,56.513559 2.6584,-2.64849 m 2.6578,-2.6485 1.0487,-1.04447 m 41.2201,-41.070243 2.6211,-2.648495 m 2.6584,-2.648488 2.6578,-2.611187 m -57.8806,49.761773 1.0481,-1.04448 m 2.6584,-2.64848 2.6204,-2.61119 m 13.2161,-13.167849 1.6472,-1.641315 m 19.9552,-19.919635 2.1715,-2.163552 m 2.6584,-2.611187 2.6578,-2.648494 m -48.6331,40.548012 2.3583,-2.35007 m 2.6584,-2.648488 2.6578,-2.611186 m 2.621,-2.648489 2.6585,-2.611186 m 2.6204,-2.648495 2.6584,-2.648488 m 15.0127,-14.958377 0.8239,-0.820654 m 2.6584,-2.648495 2.6578,-2.648488 m 2.6211,-2.611187 1.1981,-1.193686 m -42.1567,34.094647 2.6584,-2.611187 m 2.6204,-2.648488 2.6584,-2.611187 m 18.495,-18.464827 2.6205,-2.611187 m 2.6584,-2.648494 2.5083,-2.499277 m -32.9092,24.880887 2.6584,-2.611187 m 2.6578,-2.648488 1.0487,-1.081782 m 9.5096,-9.437574 2.6205,-2.648495 m 2.6584,-2.648488 2.6578,-2.611187 m -26.1695,18.166404 1.0481,-1.044474 m 2.6584,-2.648489 2.6204,-2.611186 m 3.1074,-3.133431 2.1715,-2.163552 m 2.6584,-2.611187 2.6578,-2.648494 m -16.922,8.952644 2.3583,-2.350065 m 2.6584,-2.648495 2.6578,-2.648488 m 2.621,-2.611187 1.1982,-1.193686 m -15.7245,7.758958 2.6578,-2.611187 m 2.6211,-2.648494 2.5083,-2.499277 m -17.0347,9.101856 2.6584,-2.648495 m 2.6205,-2.648488 2.6584,-2.611187 m -16.7358,8.728824 2.2094,-2.163552 m 2.6205,-2.611187 2.6584,-2.648494 m -15.3876,7.423233 0.8612,-0.820654 m 2.6205,-2.648495 2.6584,-2.648488 m 2.6204,-2.611187 1.1982,-1.193686 m -15.7245,7.758958 2.6584,-2.611187 m 2.6204,-2.648494 2.5084,-2.499277 m -17.0347,9.101856 2.6584,-2.648495 m 2.6204,-2.648488 2.6585,-2.611187 m -16.7352,8.728824 2.2088,-2.163552 m 2.6205,-2.611187 2.6584,-2.648494 m -15.3876,7.423233 0.8612,-0.820654 m 2.6205,-2.648495 2.6584,-2.648488 m 2.6204,-2.611187 1.1981,-1.193686 m -15.7244,7.758958 2.6584,-2.611187 m 2.621,-2.648494 2.5084,-2.499277 m -17.0353,9.101856 2.6584,-2.648495 m 2.6211,-2.648488 2.6578,-2.611187 m -16.6978,8.728824 2.1714,-2.163552 m 2.6211,-2.611187 2.6578,-2.648494 m -15.3876,7.423233 0.8612,-0.820654 m 2.6211,-2.648495 2.6578,-2.648488 m 2.621,-2.611187 1.1981,-1.193686 m -15.7244,7.758958 2.6578,-2.611187 m 2.621,-2.648494 2.5084,-2.499277 m -17.0347,9.101856 2.6578,-2.648495 m 2.621,-2.648488 2.6578,-2.611187 m -16.6978,8.728824 2.1715,-2.163552 m 2.621,-2.611187 2.6578,-2.648494 m -15.3869,7.423233 0.8606,-0.820654 m 2.6211,-2.648495 2.6584,-2.648488 m 2.6578,-2.611187 1.1607,-1.193686 m -15.7244,7.758958 2.6584,-2.611187 m 2.6204,-2.648494 2.5084,-2.499277 m -17.0347,9.101856 2.6584,-2.648495 m 2.6204,-2.648488 2.6584,-2.611187 m -16.6978,8.728824 2.1715,-2.163552 m 2.6204,-2.611187 2.6584,-2.648494 m -15.3875,7.423233 0.8612,-0.820654 m 2.6204,-2.648495 2.6585,-2.648488 m 2.6578,-2.611187 1.1607,-1.193686 m -15.7245,7.758958 2.6585,-2.611187 m 2.6578,-2.648494 2.4709,-2.499277 m -17.0347,9.101856 2.6585,-2.648495 m 2.6578,-2.648488 2.621,-2.611187 m -16.6978,8.728824 2.1715,-2.163552 m 2.6584,-2.611187 2.6204,-2.648494 m -15.3875,7.423233 0.8612,-0.820654 m 2.6584,-2.648495 2.6204,-2.648488 m 2.6585,-2.611187 1.1601,-1.193686 m -15.6865,7.758958 2.6204,-2.611187 m 2.6585,-2.648494 2.5083,-2.499277 m -17.072,9.101856 2.6578,-2.648495 m 2.6584,-2.648488 2.6204,-2.611187 m -16.6978,8.728824 2.1715,-2.163552 m 2.6584,-2.611187 2.6204,-2.648494 m -15.3876,7.423233 0.8613,-0.820654 m 2.6584,-2.648495 2.6204,-2.648488 m 2.6584,-2.611187 1.1608,-1.193686 m -15.6871,7.758958 2.6204,-2.611187 m 2.6585,-2.648494 2.5083,-2.499277 m -80.4569,72.292589 2.621,-2.61119 m 2.6584,-2.64849 0.8607,-0.85796 m 57.2821,-57.073093 2.6204,-2.648495 m 2.6585,-2.648488 2.621,-2.611187 m -80.5696,72.441803 2.621,-2.64849 m 2.6585,-2.64849 2.6204,-2.61119 m 2.6584,-2.64849 2.6578,-2.61119 m 50.6551,-50.545129 2.1714,-2.163552 m 2.6585,-2.611187 2.621,-2.648494 m -80.1574,71.994172 2.2088,-2.20086 m 2.6585,-2.61119 2.6204,-2.64849 m 8.012,-7.98277 2.5831,-2.53658 m 2.621,-2.64849 2.6584,-2.6485 m 41.4076,-41.294059 0.8607,-0.820654 m 2.6584,-2.648495 2.621,-2.648488 m 2.6578,-2.611187 1.1608,-1.193686 m -79.1087,70.986999 2.6204,-2.64849 m 18.495,-18.42753 2.6584,-2.64848 m 2.6578,-2.61119 2.1715,-2.16356 m 34.8185,-34.728791 2.621,-2.611187 m 2.6578,-2.648494 2.5084,-2.499277 m -48.7458,40.697219 2.621,-2.648488 m 2.6584,-2.611186 0.8607,-0.857962 m 25.571,-25.477727 2.621,-2.648495 m 2.6578,-2.648488 2.6211,-2.611187 m -42.1941,34.169256 1.2355,-1.268295 m 2.6584,-2.611187 2.6578,-2.648488 m 18.9446,-18.912462 2.1715,-2.163552 m 2.6577,-2.611187 2.6211,-2.648494 m -38.3002,30.289779 2.6578,-2.611186 m 2.6211,-2.648495 2.6578,-2.648488 m 2.621,-2.611187 2.6584,-2.648488 m 9.6965,-9.698702 0.8613,-0.820654 m 2.6578,-2.648495 2.621,-2.648488 m 2.6578,-2.611187 1.1981,-1.193686 m -40.022,31.968396 0.5231,-0.484917 m 2.6211,-2.648489 2.6578,-2.611186 m 7.8999,-7.90817 2.6584,-2.648488 m 2.6578,-2.611187 2.1714,-2.200859 m 3.1074,-3.096123 2.6211,-2.611187 m 2.6584,-2.648495 2.5084,-2.499276 m -17.0354,9.101856 2.6211,-2.648495 m 2.6584,-2.648488 2.6205,-2.611187 m -16.6978,8.728824 2.1714,-2.163552 m 2.6584,-2.611187 2.6205,-2.648495 m -80.1574,71.994174 2.2094,-2.20086 m 2.6578,-2.61119 0.5605,-0.55952 m 59.3408,-59.199352 0.8613,-0.820654 m 2.6584,-2.648494 2.6204,-2.648488 m 2.6584,-2.611187 1.1982,-1.193686 m -82.6658,74.493441 0.8613,-0.85796 m 2.6578,-2.64849 2.6584,-2.64848 m 60.7638,-60.579554 2.6204,-2.611186 m 2.6585,-2.648495 2.5083,-2.499276 m -80.4569,72.292591 2.6584,-2.61119 m 2.6204,-2.64849 1.2355,-1.23099 m 56.9079,-56.700066 2.6204,-2.648494 m 2.6585,-2.648488 2.6578,-2.611187 m -80.6064,72.441795 2.6584,-2.64849 m 2.6204,-2.64848 2.5464,-2.53659 m 56.046,-55.879412 2.1715,-2.163552 m 2.6584,-2.611186 2.6578,-2.648495 m -79.5951,71.434635 1.6471,-1.64132 m 2.6204,-2.61119 2.6585,-2.64849 m 2.621,-2.64849 2.6578,-2.61119 m 2.6211,-2.64849 0.5231,-0.52222 m 48.8585,-48.679993 0.8232,-0.820654 m 2.6585,-2.648494 2.6578,-2.648489 m 2.621,-2.611186 1.1981,-1.193687 m -76.563,68.413113 0.075,-0.0746 m 2.621,-2.6112 2.6578,-2.64849 m 2.6211,-2.61118 2.6578,-2.64849 m 2.6584,-2.6485 2.6204,-2.61118 m 44.9273,-44.800515 2.6204,-2.611187 m 2.6584,-2.648494 2.5084,-2.499277 m -75.1775,67.032913 2.6578,-2.64849 m 2.6211,-2.61119 2.6578,-2.64849 m 2.6584,-2.61119 0.5978,-0.63414 m 4.6798,-4.66284 2.6211,-2.61119 m 2.6578,-2.64849 2.621,-2.61118 m 9.8466,-9.810605 0.7485,-0.746052 m 23.7738,-23.6872 2.6205,-2.648494 m 2.6584,-2.648489 2.6584,-2.611186 m -74.6537,66.473376 1.984,-1.93975 m 2.621,-2.64849 2.6578,-2.61118 m 2.6585,-2.64849 1.9092,-1.93974 m 13.9273,-13.8766 2.6584,-2.61119 m 2.6205,-2.648482 1.8345,-1.827834 m 3.4443,-3.431847 2.6584,-2.648488 m 2.6211,-2.611187 1.3849,-1.380199 m 14.938,-14.921076 2.1715,-2.163552 m 2.6584,-2.611187 2.6584,-2.648494 m -73.3061,65.167786 0.6364,-0.63415 m 2.621,-2.64849 2.6578,-2.61119 m 2.6211,-2.64849 2.6584,-2.61119 m 20.8906,-20.814887 0.2616,-0.261109 m 2.621,-2.648488 2.6578,-2.611187 m 2.6211,-2.648494 2.6578,-2.648488 m 15.0133,-14.958377 0.8239,-0.820655 m 2.6578,-2.648494 2.6584,-2.648488 m 2.6204,-2.611187 1.1982,-1.193686 m -73.8673,65.72731 2.6578,-2.64848 m 2.6211,-2.61119 2.6584,-2.64849 m 30.1381,-30.028654 1.5724,-1.566712 m 2.6584,-2.648494 2.6204,-2.648488 m 13.2162,-13.167845 2.6584,-2.611186 m 2.6204,-2.648495 2.5084,-2.499276 m -75.1775,67.03291 2.6578,-2.64849 m 2.6211,-2.61118 2.6584,-2.6485 m 2.6578,-2.61119 0.5978,-0.63414 m 36.3909,-36.258198 2.6211,-2.648495 m 2.6578,-2.611187 2.621,-2.648488 m 2.6578,-2.611187 2.6585,-2.648494 m 2.6204,-2.648488 2.6584,-2.611187 m -74.6537,66.473374 1.9846,-1.93975 m 2.6204,-2.64848 2.6585,-2.61119 m 2.6578,-2.64849 1.9092,-1.93974"
       id="path4" />
    <path
       style="fill:none;stroke:#000000;stroke-width:0.0374391px;stroke-linecap:round;stroke-linejoin:round;stroke-miterlimit:4;stroke-dasharray:none;stroke-opacity:1"
       d="m 1280.0612,71.653242 2.6578,-2.648489 m 2.6211,-2.611186 2.6578,-2.648495 m -80.6058,72.441808 2.5831,-2.57389 m 4.7171,-4.70013 0.6371,-0.63415 m 2.6204,-2.64849 2.6584,-2.61119 m 2.6578,-2.64849 2.6211,-2.61119 m 44.9266,-44.800512 2.6584,-2.611187 m 2.6205,-2.648494 2.6584,-2.648488 m 2.621,-2.611187 1.1975,-1.193686 m -78.8465,70.688574 2.3589,-2.35006 m 2.6204,-2.6112 2.6584,-2.64848 m 2.6578,-2.61119 2.6211,-2.64849 m 44.9266,-44.763214 2.6584,-2.648494 m 2.6205,-2.648489 2.6584,-2.611186 m 2.621,-2.648495 2.5084,-2.499276 m -69.8619,61.773234 2.6211,-2.64849 m 2.6578,-2.61119 0.5978,-0.63414 m 42.9806,-42.823474 1.3102,-1.342898 m 2.6585,-2.611187 2.6577,-2.648494 m 2.6211,-2.648488 2.6578,-2.611187"
       id="path5" />
    <path
       style="fill:none;stroke:#000000;stroke-width:0.0374391px;stroke-linecap:round;stroke-linejoin:round;stroke-miterlimit:4;stroke-dasharray:none;stroke-opacity:1"
       d="m 1248.3507,71.653242 2.6578,-2.648489 m 2.6211,-2.611186 2.6578,-2.648495 m -17.1842,9.213766 2.6578,-2.611187 m 2.6211,-2.648494 2.6578,-2.648488 m 2.621,-2.611187 1.1981,-1.193686 m -21.0033,13.05594 2.6578,-2.648494 m 2.6211,-2.648489 2.6578,-2.611186 m 2.621,-2.648495 2.5084,-2.499276 m -21.0034,13.05594 1.3476,-1.342898 m 2.6211,-2.611187 2.6578,-2.648494 m 2.621,-2.648488 2.6578,-2.611187 m -19.8425,11.862254 h 0.062 m 2.6211,-2.648494 2.6578,-2.648489 m 2.6211,-2.611186 2.6584,-2.648495 m -17.1848,9.213766 2.6578,-2.611187 m 2.6211,-2.648494 2.6584,-2.648488 m 2.6204,-2.611187 1.1981,-1.193686 m -15.7244,7.758957 2.6584,-2.611186 m 2.6204,-2.648495 2.5084,-2.499276 m -17.0347,9.101855 2.6584,-2.648494 m 2.6204,-2.648488 2.6584,-2.611187 m -16.6977,8.728823 2.1714,-2.163552 m 2.6204,-2.611186 2.6585,-2.648495 m -15.3876,7.423233 0.8612,-0.820654 m 2.6204,-2.648494 2.6585,-2.648488 m 2.6578,-2.611187 1.1607,-1.193686 m -15.7244,7.758957 2.6584,-2.611186 m 2.6204,-2.648495 2.5083,-2.499276 m -80.4563,72.292594 1.7219,-1.67862 m 61.6998,-61.512119 2.6584,-2.648494 m 2.6204,-2.648488 2.6584,-2.611187 m -80.6063,72.441798 2.6578,-2.64849 m 2.6584,-2.64848 2.621,-2.6112 m 2.6578,-2.64848 0.3737,-0.37302 m 52.9392,-52.783292 2.1715,-2.163552 m 2.6204,-2.611187 2.6584,-2.648494 m -64.7324,56.625465 2.621,-2.61118 m 46.7238,-46.591052 0.8613,-0.820654 m 2.6204,-2.648495 2.6584,-2.648488 m 2.6584,-2.611187 1.1602,-1.193686 m -61.3249,53.230922 0.7112,-0.67145 m 2.621,-2.64849 2.6578,-2.64848 m 39.611,-39.503544 2.6578,-2.611187 m 2.6585,-2.648494 2.4709,-2.499277 m -80.4195,72.292592 2.621,-2.61119 m 18.495,-18.46483 2.6578,-2.61118 m 2.6211,-2.64849 2.6578,-2.61119 m 2.621,-2.64849 1.5724,-1.52941 m 30.1387,-30.065956 2.6578,-2.648495 m 2.6585,-2.648488 2.6204,-2.611187 m -80.569,72.441806 2.621,-2.64849 m 2.6578,-2.64849 2.5464,-2.53659 m 13.7024,-13.65278 2.2462,-2.23816 m 2.6205,-2.64848 2.583,-2.53659 m 4.942,-4.92396 0.411,-0.41031 m 29.539,-29.46912 2.1721,-2.163552 m 2.6584,-2.611187 2.6205,-2.648494 m -75.1781,67.032923 2.509,-2.49929 m 2.6584,-2.64848 2.6204,-2.61119 m 9.6591,-9.62409 0.936,-0.93257 m 2.621,-2.61119 2.6578,-2.64849 m 36.1288,-36.03439 0.8606,-0.820654 m 2.659,-2.648494 2.6205,-2.648488 m 2.6584,-2.611187 1.1607,-1.193687 m -68.551,60.46764 2.6578,-2.64848 m 2.6211,-2.6485 2.6572,-2.61119 m 2.621,-2.64848 2.6578,-2.64849 m 39.6484,-39.503542 2.6211,-2.611187 m 2.6578,-2.648494 2.5083,-2.499277 m -59.3409,51.21658 2.6585,-2.61119 m 2.621,-2.64849 1.2722,-1.23099 m 35.7172,-35.624054 2.6578,-2.648494 m 2.6584,-2.648488 2.621,-2.611187 m -52.7144,44.651303 1.1981,-1.19368 m 2.6578,-2.64849 2.6211,-2.61119 m 29.539,-29.46912 2.1715,-2.163552 m 2.6584,-2.611187 2.621,-2.648494 m -43.4669,35.437551 2.5083,-2.499283 m 2.6585,-2.648488 2.6204,-2.611187 m 20.2922,-20.25536 0.8612,-0.820654 m 2.6578,-2.648494 2.621,-2.648488 m 2.6578,-2.611187 1.1608,-1.193687 m -36.8399,28.834972 2.6578,-2.611187 m 2.6211,-2.648494 2.2835,-2.275463 m 13.5904,-13.54087 2.6211,-2.611187 m 2.6578,-2.648494 2.5083,-2.499277 m -27.6298,19.621212 2.6585,-2.648494 m 2.6204,-2.611187 0.9733,-0.969866 m 4.3429,-4.289809 2.6211,-2.648494 m 2.6578,-2.648488 2.621,-2.611187 m -21.0033,13.055934 1.1981,-1.19368 m 2.6578,-2.648495 2.6211,-2.648488 m 2.6578,-2.611187 2.621,-2.648494 m -11.7558,3.842181 2.5083,-2.536584 m 2.6585,-2.611187 1.1601,-1.193687"
       id="path6" />
  </g>
</svg>
