<?xml version="1.0" encoding="UTF-8" standalone="no"?>
<!-- Created with Inkscape (http://www.inkscape.org/) -->

<svg
   width="749.99988mm"
   height="152.12022mm"
   viewBox="0 0 749.99987 152.12022"
   version="1.1"
   id="svg1"
   xmlns="http://www.w3.org/2000/svg"
   xmlns:svg="http://www.w3.org/2000/svg">
  <defs
     id="defs1" />
  <g
     id="layer1"
     transform="translate(-1011.9889,225.06652)">
    <path
       style="fill:none;stroke:#000000;stroke-width:6.14043px;stroke-linecap:round;stroke-linejoin:round;stroke-miterlimit:4;stroke-dasharray:none;stroke-opacity:1"
       d="M 1753.3709,-221.98213 H 1020.845 m 0,0 -0.7436,0.0581 m 0,0 -0.7436,0.13477 m 0,0 -0.7203,0.26838 m 0,0 -0.6971,0.32183 m 0,0 -0.6158,0.42988 m 0,0 -0.5925,0.51004 m 0,0 -0.5112,0.56466 m 0,0 -0.4299,0.64481 m 0,0 -0.3253,0.67154 m 0,0 -0.244,0.72499 m 0,0 -0.1626,0.75287 m 0,0 v 0.7517 m 0,0 v 128.46573 m 0,0 v 0.752869 m 0,0 0.1626,0.752868 m 0,0 0.244,0.724985 m 0,0 0.3253,0.67154 m 0,0 0.4299,0.644818 m 0,0 0.5112,0.564651 m 0,0 0.5925,0.510045 m 0,0 0.6158,0.429879 m 0,0 0.6971,0.321828 m 0,0 0.7203,0.268383 m 0,0 0.7436,0.134773 m 0,0 0.7436,0.05809 m 0,0 h 44.1845 m 0,0 0.7436,-0.05809 m 0,0 0.7436,-0.134773 m 0,0 0.7203,-0.268383 m 0,0 0.6971,-0.321828 m 0,0 0.639,-0.429879 m 0,0 0.5577,-0.510045 m 0,0 0.5112,-0.564651 m 0,0 0.4299,-0.644818 m 0,0 0.3137,-0.67154 m 0,0 0.244,-0.724985 m 0,0 0.1626,-0.752868 m 0,0 v -0.752869 m 0,0 v -4.675336 m 0,0 v -0.77959 m 0,0 -0.1626,-0.724985 m 0,0 -0.244,-0.726146 m 0,0 -0.3137,-0.698262 m 0,0 -0.4299,-0.618096 m 0,0 -0.5112,-0.591373 m 0,0 -0.5577,-0.510046 m 0,0 -0.639,-0.403156 m 0,0 -0.6971,-0.349712 m 0,0 -0.7203,-0.241661 m 0,0 -0.7436,-0.161495 m 0,0 -0.7436,-0.02324 m 0,0 h -33.7199 m 0,0 v -60.726392 m 0,0 h 20.9316 m 0,0 0.3718,-0.0232 m 0,0 0.3486,-0.10457 m 0,0 0.3485,-0.13477 m 0,0 0.2905,-0.18822 m 0,0 0.2904,-0.24166 m 0,0 0.2092,-0.26838 m 0,0 0.2091,-0.32299 m 0,0 0.1394,-0.32183 m 0,0 0.1162,-0.37643 m 0,0 v -0.34972 m 0,0 v -11.68851 m 0,0 v -0.34971 m 0,0 -0.1162,-0.37644 m 0,0 -0.1394,-0.32299 m 0,0 -0.2091,-0.32183 m 0,0 -0.2092,-0.26838 m 0,0 -0.2904,-0.24166 m 0,0 -0.2905,-0.18822 m 0,0 -0.3485,-0.13477 m 0,0 -0.3486,-0.10457 m 0,0 -0.3718,-0.0232 m 0,0 h -20.9316 m 0,0 v -28.02541 m 0,0 h 167.1275 m 0,0 8.543,28.02541 m 0,0 h -28.006 m 0,0 -0.3486,0.0232 m 0,0 -0.3718,0.10457 m 0,0 -0.3253,0.13477 m 0,0 -0.3253,0.18822 m 0,0 -0.2672,0.24166 m 0,0 -0.244,0.26838 m 0,0 -0.1859,0.32183 m 0,0 -0.1626,0.32299 m 0,0 -0.1162,0.37644 m 0,0 v 0.34971 m 0,0 v 11.68851 m 0,0 v 0.34972 m 0,0 0.1162,0.37643 m 0,0 0.1626,0.32183 m 0,0 0.1859,0.32299 m 0,0 0.244,0.26838 m 0,0 0.2672,0.24166 m 0,0 0.3253,0.18822 m 0,0 0.3253,0.13477 m 0,0 0.3718,0.10457 m 0,0 0.3486,0.0232 m 0,0 h 20.9304 m 0,0 v 25.68781 m 0,0 h 19.8639 m 0,0 7.1279,23.35007 m 0,0 h -26.9918 m 0,0 v 11.688512 m 0,0 h -25.5754 m 0,0 -0.7436,0.02324 m 0,0 -0.7436,0.161495 m 0,0 -0.7203,0.241661 m 0,0 -0.6971,0.349712 m 0,0 -0.639,0.403156 m 0,0 -0.5577,0.510046 m 0,0 -0.5112,0.591373 m 0,0 -0.4299,0.618096 m 0,0 -0.3253,0.698262 m 0,0 -0.244,0.726146 m 0,0 -0.1626,0.724985 m 0,0 v 0.77959 m 0,0 v 4.675336 m 0,0 v 0.752869 m 0,0 0.1626,0.752868 m 0,0 0.244,0.724985 m 0,0 0.3253,0.67154 m 0,0 0.4299,0.644818 m 0,0 0.5112,0.564651 m 0,0 0.5577,0.510045 m 0,0 0.639,0.429879 m 0,0 0.6971,0.321828 m 0,0 0.7203,0.268383 m 0,0 0.7436,0.134773 m 0,0 0.7436,0.05809 m 0,0 h 117.2011 m 0,0 0.6971,-0.05809 m 0,0 0.7436,-0.134773 m 0,0 0.7204,-0.268383 m 0,0 0.6971,-0.321828 m 0,0 0.6157,-0.429879 m 0,0 0.5926,-0.510045 m 0,0 0.4763,-0.564651 m 0,0 0.4299,-0.644818 m 0,0 0.3485,-0.67154 m 0,0 0.244,-0.724985 m 0,0 0.1627,-0.752868 m 0,0 v -0.752869 m 0,0 v -0.591373 m 0,0 v -0.591374 m 0,0 v -0.752868 m 0,0 0.1626,-0.752868 m 0,0 0.244,-0.724985 m 0,0 0.3137,-0.67154 m 0,0 0.4299,-0.644818 m 0,0 0.5112,-0.564651 m 0,0 0.5577,-0.510045 m 0,0 0.639,-0.429879 m 0,0 0.6971,-0.349712 m 0,0 0.7203,-0.241661 m 0,0 0.7436,-0.134773 m 0,0 0.7436,-0.05809 m 0,0 h 159.6511 m 0,0 0.7435,0.05809 m 0,0 0.7436,0.134773 m 0,0 0.7204,0.241661 m 0,0 0.6971,0.349712 m 0,0 0.6157,0.429879 m 0,0 0.5926,0.510045 m 0,0 0.5112,0.564651 m 0,0 0.395,0.644818 m 0,0 0.3485,0.67154 m 0,0 0.244,0.724985 m 0,0 0.1627,0.752868 m 0,0 v 0.752868 m 0,0 v 7.013179 m 0,0 v 0.752868 m 0,0 0.1626,0.752869 m 0,0 0.244,0.724984 m 0,0 0.3486,0.698263 m 0,0 0.4299,0.618095 m 0,0 0.4763,0.591374 m 0,0 0.5925,0.483323 m 0,0 0.6158,0.429878 m 0,0 0.6971,0.349712 m 0,0 0.7204,0.241662 m 0,0 0.7435,0.134772 m 0,0 0.7436,0.05809 m 0,0 0.7784,-0.05809 m 0,0 0.7436,-0.134772 m 0,0 0.7203,-0.241662 m 0,0 0.6739,-0.349712 m 0,0 0.639,-0.429878 m 0,0 0.5577,-0.483323 m 0,0 0.5112,-0.591374 m 0,0 0.4299,-0.618095 m 0,0 0.3485,-0.698263 m 0,0 0.244,-0.724984 m 0,0 0.1278,-0.752869 m 0,0 v -0.752868 m 0,0 v -0.188217 m 0,0 v -29.207805 m 0,0 v -0.56466 m 0,0 -0.1278,-0.75286 m 0,0 -0.244,-0.72499 m 0,0 -0.3485,-0.67154 m 0,0 -0.4299,-0.64482 m 0,0 -0.5112,-0.56465 m 0,0 -0.5577,-0.51004 m 0,0 -0.639,-0.42988 m 0,0 -0.6739,-0.32183 m 0,0 -0.7203,-0.24166 m 0,0 -0.7436,-0.1615 m 0,0 -0.7784,-0.0581 m 0,0 h -65.8098 m 0,0 v -80.55645 m 0,0 h 71.6306 m 0,0 v -5.85762 m 0,0 h 262.7034 m 0,0 v 65.40172 m 0,0 h -54.1426 m 0,0 v -11.68851 m 0,0 h -13.9629 m 0,0 -0.3718,0.0232 m 0,0 -0.3485,0.10456 m 0,0 -0.3486,0.13477 m 0,0 -0.2905,0.18822 m 0,0 -0.2904,0.24166 m 0,0 -0.244,0.26839 m 0,0 -0.1859,0.32182 m 0,0 -0.1278,0.32183 m 0,0 -0.1162,0.37644 m 0,0 v 0.34971 m 0,0 v 59.570828 m 0,0 v 0.752869 m 0,0 0.1278,0.752868 m 0,0 0.244,0.724985 m 0,0 0.3486,0.67154 m 0,0 0.4298,0.644818 m 0,0 0.5112,0.564651 m 0,0 0.5577,0.510045 m 0,0 0.639,0.429879 m 0,0 0.6739,0.321828 m 0,0 0.7203,0.268383 m 0,0 0.7436,0.134773 m 0,0 0.7784,0.05809 m 0,0 h 11.0258 m 0,0 0.7785,-0.05809 m 0,0 0.7435,-0.134773 m 0,0 0.7204,-0.268383 m 0,0 0.6622,-0.321828 m 0,0 0.639,-0.429879 m 0,0 0.5577,-0.510045 m 0,0 0.5112,-0.564651 m 0,0 0.4299,-0.644818 m 0,0 0.3486,-0.67154 m 0,0 0.2439,-0.724985 m 0,0 0.1395,-0.752868 m 0,0 v -0.752869 m 0,0 v -4.675336 m 0,0 v -0.77959 m 0,0 -0.1395,-0.724985 m 0,0 -0.2439,-0.726146 m 0,0 -0.3486,-0.698262 m 0,0 -0.4299,-0.618096 m 0,0 -0.5112,-0.591374 m 0,0 -0.5577,-0.510045 m 0,0 -0.639,-0.403156 m 0,0 -0.6622,-0.349712 m 0,0 -0.7204,-0.241662 m 0,0 -0.7435,-0.161494 m 0,0 -0.7785,-0.02324 m 0,0 h -4.0582 m 0,0 -0.3718,-0.05809 m 0,0 -0.3486,-0.08133 m 0,0 -0.3485,-0.134773 m 0,0 -0.2905,-0.188217 m 0,0 -0.2904,-0.241662 m 0,0 -0.244,-0.268383 m 0,0 -0.1859,-0.321828 m 0,0 -0.1394,-0.349712 m 0,0 -0.1162,-0.349705 m 0,0 v -0.34972 m 0,0 v -17.51929 m 0,0 v -0.77959 m 0,0 0.1394,-0.72499 m 0,0 0.244,-0.72498 m 0,0 0.3485,-0.69826 m 0,0 0.4299,-0.64482 m 0,0 0.5112,-0.56465 m 0,0 0.5577,-0.51005 m 0,0 0.639,-0.40315 m 0,0 0.6622,-0.34972 m 0,0 0.7204,-0.24166 m 0,0 0.7436,-0.16149 m 0,0 0.7784,-0.0581 m 0,0 h 48.3485 m 0,0 0.7436,0.0581 m 0,0 0.7436,0.16149 m 0,0 0.7203,0.24166 m 0,0 0.6739,0.34972 m 0,0 0.639,0.40315 m 0,0 0.5925,0.51005 m 0,0 0.4764,0.56465 m 0,0 0.4299,0.64482 m 0,0 0.3485,0.69826 m 0,0 0.244,0.72498 m 0,0 0.1394,0.72499 m 0,0 v 0.77959 m 0,0 v 17.51929 m 0,0 v 0.34972 m 0,0 -0.1162,0.349705 m 0,0 -0.1394,0.349712 m 0,0 -0.1859,0.321828 m 0,0 -0.244,0.268383 m 0,0 -0.2904,0.241662 m 0,0 -0.2905,0.188217 m 0,0 -0.3485,0.134773 m 0,0 -0.3486,0.08133 m 0,0 -0.3718,0.05809 m 0,0 h -10.5448 m 0,0 -0.7784,0.02324 m 0,0 -0.7436,0.161494 m 0,0 -0.7203,0.241662 m 0,0 -0.6623,0.349712 m 0,0 -0.639,0.403156 m 0,0 -0.5576,0.510045 m 0,0 -0.5113,0.591374 m 0,0 -0.4298,0.618096 m 0,0 -0.3253,0.67154 m 0,0 -0.244,1.236075 m 0,0 v 0.295106 m 0,0 v 0.751706 m 0,0 v 4.836599 m 0,0 v 0.591374 m 0,0 0.1162,0.483322 m 0,0 v 0.241662 m 0,0 0.2439,0.724984 m 0,0 0.3486,0.67154 m 0,0 0.395,0.644818 m 0,0 0.5112,0.564652 m 0,0 0.5926,0.510045 m 0,0 0.6157,0.429878 m 0,0 0.6971,0.321828 m 0,0 0.7204,0.268384 m 0,0 0.7435,0.134773 m 0,0 0.7436,0.05809 m 0,0 h 0.1394 m 0,0 h 23.1728 m 0,0 0.7436,-0.05809 m 0,0 0.7436,-0.134773 m 0,0 0.7203,-0.268384 m 0,0 0.6971,-0.321828 m 0,0 0.6158,-0.429878 m 0,0 0.5925,-0.510045 m 0,0 0.5112,-0.564652 m 0,0 0.395,-0.644818 m 0,0 0.3486,-0.67154 m 0,0 0.244,-0.724984 m 0,0 0.1626,-0.752868 m 0,0 v -0.752869 m 0,0 V -216.16273 m 0,0 v -0.75171 m 0,0 -0.1626,-0.75287 m 0,0 -0.244,-0.72498 m 0,0 -0.3486,-0.67154 m 0,0 -0.395,-0.64482 m 0,0 -0.5112,-0.56465 m 0,0 -0.5925,-0.51005 m 0,0 -0.6158,-0.42987 m 0,0 -0.6971,-0.32183 m 0,0 -0.7203,-0.26839 m 0,0 -0.7436,-0.13477 m 0,0 -0.7436,-0.0581 m -364.6613,18.67474 h -153.9372 m 0,0 -0.7785,0.0581 m 0,0 -0.7203,0.1615 m 0,0 -0.7203,0.24166 m 0,0 -0.6971,0.32299 m 0,0 -0.639,0.42988 m 0,0 -0.5577,0.51004 m 0,0 -0.5112,0.56465 m 0,0 -0.4299,0.64482 m 0,0 -0.3253,0.67154 m 0,0 -0.244,0.72615 m 0,0 -0.1627,0.75286 m 0,0 v 0.77959 m 0,0 v 0.75287 m 0,0 0.1627,0.75287 m 0,0 v 0.18822 m 0,0 22.7464,74.72568 m 0,0 0.1859,0.53793 m 0,0 0.3485,0.69826 m 0,0 0.395,0.61809 m 0,0 0.5113,0.59138 m 0,0 0.5925,0.48332 m 0,0 0.6158,0.42988 m 0,0 0.6971,0.34971 m 0,0 0.7203,0.24166 m 0,0 0.7436,0.13477 m 0,0 0.7435,0.0581 m 0,0 h 131.1909 m 0,0 0.7784,-0.0581 m 0,0 0.7436,-0.13477 m 0,0 0.7203,-0.24166 m 0,0 0.6739,-0.34971 m 0,0 0.639,-0.42988 m 0,0 0.5576,-0.48332 m 0,0 0.5113,-0.59138 m 0,0 0.4298,-0.61809 m 0,0 0.3486,-0.69826 m 0,0 0.244,-0.72499 m 0,0 0.1278,-0.75287 m 0,0 v -0.7517 m 0,0 v -74.72568 m 0,0 v -0.77959 m 0,0 -0.1278,-0.75287 m 0,0 -0.244,-0.72615 m 0,0 -0.3486,-0.67154 m 0,0 -0.4298,-0.64481 m 0,0 -0.5113,-0.56466 m 0,0 -0.5576,-0.51004 m 0,0 -0.639,-0.42988 m 0,0 -0.6739,-0.32299 m 0,0 -0.7203,-0.24166 m 0,0 -0.7436,-0.1615 m 0,0 -0.7784,-0.0581"
       id="path1" />
    <path
       style="fill:none;stroke:#000000;stroke-width:0.0266975px;stroke-linecap:round;stroke-linejoin:round;stroke-miterlimit:4;stroke-dasharray:none;stroke-opacity:1"
       d="m 1757.349,-83.520675 0.6971,-0.698263 m -17.1673,2.364565 4.1385,-4.137988 m 4.9389,-4.971023 4.939,-4.944068 m -27.9258,13.166367 0.7784,-0.77959 m 4.9389,-4.944185 4.939,-4.970907 m 4.939,-4.944068 4.9122,-4.971025 m 4.9389,-4.94407 4.939,-4.94406 m -31.8238,17.089295 0.6739,-0.67154 m 18.8217,-18.916515 4.9389,-4.94419 m 4.939,-4.94406 4.2988,-4.32609 m -20.9583,6.18014 4.3255,-4.35293 m 4.9122,-4.94407 4.939,-4.94406 m 4.9389,-4.97103 1.8427,-1.8271 m -77.5036,62.956535 4.1384,-4.137988 m 4.9122,-4.971023 3.8178,-3.815579 m 28.9936,-29.127065 1.7358,-1.71974 m 4.9389,-4.97091 4.9123,-4.94407 m 7.689,-7.71179 2.1889,-2.2033 m 4.9389,-4.94407 4.939,-4.97102 m -81.4004,66.906416 4.9389,-4.970907 m 4.9123,-4.944068 0.3485,-0.349712 m 29.2596,-29.395799 4.939,-4.94406 m 24.9364,-25.04287 4.6451,-4.67545 m 4.9389,-4.97091 4.939,-4.94418 m -81.4004,66.87958 4.9389,-4.94407 m 14.7902,-14.85916 4.9389,-4.97091 m 4.939,-4.94407 2.3492,-2.36456 m 37.1101,-37.26885 4.939,-4.94407 m 4.939,-4.9709 4.2987,-4.32609 m -86.7936,72.30732 1.0921,-1.10142 m 4.939,-4.94419 4.9122,-4.9709 m 4.939,-4.94407 4.832,-4.8366 m 54.3564,-54.60004 4.939,-4.97091 m 4.9389,-4.94407 1.8427,-1.85405 m -86.7936,72.30732 3.5505,-3.57369 m 4.939,-4.94418 4.9389,-4.97091 m 56.9996,-57.26006 2.1889,-2.17646 m 4.939,-4.97102 4.9389,-4.94407 m -81.4004,66.87958 1.6277,-1.66595 m 57.5608,-57.79753 4.9389,-4.94407 m 4.939,-4.94406 4.6717,-4.7023 m -31.8238,17.08942 4.939,-4.97102 m 4.9401,-4.94407 4.939,-4.94407 m -31.2104,16.44448 4.0583,-4.08431 m 4.939,-4.94407 4.9389,-4.94406 m -28.7263,13.97244 1.6021,-1.58532 m 4.9123,-4.97102 4.9389,-4.94407 m 4.939,-4.94407 2.2156,-2.23026 m -29.3398,14.59043 4.939,-4.94407 m 4.9122,-4.94406 4.6717,-4.7023 m -31.797,17.08942 4.9401,-4.97102 m 4.9389,-4.94407 4.9123,-4.94407 m -31.1825,16.44448 4.0571,-4.08431 m 4.939,-4.94407 4.939,-4.94406 m -28.7264,13.97244 1.5755,-1.58532 m 4.9389,-4.97102 4.939,-4.94407 m 4.9389,-4.94407 2.1901,-2.23026 m -29.341,14.59043 4.939,-4.94407 m 4.9389,-4.94406 4.6718,-4.7023 m -158.53,144.345911 3.3914,-3.412422 m 4.939,-4.944069 1.4953,-1.504807 m 116.9084,-117.395193 4.9389,-4.97102 m 4.9122,-4.94407 4.939,-4.94407 m -140.5889,126.316103 4.939,-4.944068 m 104.4674,-104.927555 4.0572,-4.08431 m 4.9389,-4.94407 4.9134,-4.94406 m -136.8524,122.58115 1.2013,-1.209121 m 4.939,-4.944069 4.9401,-4.97102 m 4.9122,-4.94407 4.5649,-4.56787 m 87.5674,-87.97256 1.6022,-1.58532 m 4.9389,-4.97102 4.939,-4.94407 m 4.9122,-4.94407 2.2168,-2.23026 m -137.8667,123.602295 4.939,-4.971025 m 4.9389,-4.94407 4.9122,-4.94406 m 93.7357,-94.15271 4.9389,-4.94407 m 4.939,-4.94406 4.6717,-4.7023 m -140.3484,126.074329 4.939,-4.944069 m 4.9389,-4.97102 4.939,-4.94407 m 4.9122,-4.97091 1.1746,-1.15486 m 87.6221,-87.9994 4.9389,-4.97102 m 4.939,-4.94407 4.9389,-4.94407 m -139.3341,125.053191 3.6575,-3.681155 m 4.9389,-4.971026 4.939,-4.94407 m 4.939,-4.94406 3.604,-3.65432 m 86.0466,-86.41408 4.0571,-4.08431 m 4.9401,-4.94407 4.9389,-4.94406 m -136.8524,122.581151 1.2014,-1.209121 m 4.9401,-4.94407 4.9122,-4.97102 m 4.939,-4.94407 4.9389,-4.97091 m 87.1933,-87.56952 1.6022,-1.58532 m 4.939,-4.97102 4.9122,-4.94407 m 4.939,-4.94407 2.2167,-2.23025 m -137.8667,123.602286 4.939,-4.971026 m 4.9122,-4.94407 4.9401,-4.94406 m 4.939,-4.97091 1.3872,-1.39734 m 87.4083,-87.78446 4.9389,-4.94407 m 4.9123,-4.94406 4.6717,-4.70229 m -140.3217,126.07432 4.939,-4.94407 m 4.939,-4.97102 4.9122,-4.94407 m 4.9389,-4.97091 2.1901,-2.17646 m 1.4941,-1.50481 1.2548,-1.26291 m 4.939,-4.94407 4.9401,-4.97091 m 66.5835,-66.85274 2.4561,-2.49887 m 4.939,-4.94407 4.939,-4.97102 m 4.9389,-4.94407 4.9122,-4.94407 m -139.3073,125.053191 3.6574,-3.681155 m 4.939,-4.971026 4.9389,-4.94407 m 4.9123,-4.94406 3.6307,-3.65432 m 18.3419,-18.40601 2.6954,-2.71381 m 4.9401,-4.97102 4.939,-4.94407 m 49.3094,-49.52155 v -0.0232 m 4.9122,-4.94407 4.9401,-4.97103 m 4.939,-4.94406 4.939,-4.94407 m -136.878,122.581152 1.2013,-1.20912 m 4.939,-4.944072 4.9389,-4.97102 m 4.939,-4.94407 4.9389,-4.9709 m 34.5193,-34.66239 4.9389,-4.97103 m 4.9402,-4.94406 3.8433,-3.86926 m 35.6149,-35.76404 4.9122,-4.94407 m 4.939,-4.97102 4.9389,-4.94407 m 4.939,-4.94407 2.2167,-2.23025 m -137.8934,123.602287 4.939,-4.971027 m 4.9401,-4.94406 4.9389,-4.94407 m 54.2484,-54.51929 4.9401,-4.94419 m 4.939,-4.94407 1.3872,-1.39722 m 18.3419,-18.43284 4.9389,-4.94407 m 4.939,-4.97103 4.9122,-4.94406 m 4.939,-4.94407 4.6717,-4.70229 m -140.3216,126.074322 4.9389,-4.944072 m 4.9122,-4.97102 4.939,-4.94407 m 4.939,-4.9709 1.1502,-1.15487 m 62.7402,-63.01032 0.244,-0.21494 m 4.9389,-4.97091 4.9401,-4.94407 m 7.3684,-7.41621 2.4828,-2.49888 m 4.939,-4.94407 4.9389,-4.97102 m 4.9123,-4.94407 4.9389,-4.94407 m -150.4401,136.231198 4.9123,-4.944184 m 4.9389,-4.970907 4.939,-4.944069 m 4.9389,-4.971018 4.9123,-4.94407 m 4.9389,-4.94407 3.6308,-3.65432 m 77.5303,-77.86937 2.6955,-2.71392 m 4.9401,-4.94407 4.9389,-4.97102 m 4.939,-4.94407 4.9122,-4.94407 m -149.6395,135.425112 4.1373,-4.137988 m 4.9133,-4.971023 4.939,-4.944068 m 4.939,-4.944073 4.9389,-4.97102 m 4.9123,-4.94407 4.9389,-4.9709 m 87.1945,-87.56952 1.601,-1.58533 m 4.939,-4.97102 4.9389,-4.94407 m 4.9401,-4.94407 2.1889,-2.23025 m -154.3113,140.127402 1.6545,-1.665954 m 4.9389,-4.944184 4.9123,-4.970907 m 4.9389,-4.944069 4.9401,-4.971018 m 4.939,-4.94407 4.9389,-4.94407 m 93.7078,-94.1527 4.9389,-4.94407 m 4.939,-4.94407 4.6729,-4.70229 m -150.2008,135.989414 4.939,-4.971023 m 4.9122,-4.944068 4.939,-4.944073 m 4.9389,-4.97102 4.939,-4.94407 m 4.939,-4.9709 1.1502,-1.15487 m 87.6476,-87.99939 4.9122,-4.97103 m 4.939,-4.94407 4.9389,-4.94406 m -150.4668,136.231189 4.939,-4.944185 m 4.9389,-4.970906 4.939,-4.944069 m 4.9122,-4.971019 4.939,-4.94407 m 4.9389,-4.94407 3.6308,-3.65432 m 86.0198,-86.41407 4.085,-4.08431 m 4.9123,-4.94407 4.9389,-4.94407 m -149.6395,135.425113 4.1117,-4.137988 m 4.9389,-4.971023 4.939,-4.944068 m 4.939,-4.944064 4.9122,-4.97103 m 4.9389,-4.94407 4.939,-4.9709 m 4.939,-4.94419 4.0315,-4.05735 m 78.224,-78.56798 1.601,-1.58532 m 4.9389,-4.97103 4.9134,-4.94407 m 4.939,-4.94406 2.2156,-2.23026 m -154.338,140.127403 1.6812,-1.665954 m 4.9122,-4.944185 4.9389,-4.970906 m 4.9402,-4.944069 4.9389,-4.971019 m 4.9123,-4.94407 1.601,-1.58532 m 8.2769,-8.32966 4.9389,-4.94418 m 4.939,-4.97091 4.9122,-4.94407 m 74.0054,-74.32263 4.9389,-4.94407 m 4.9122,-4.94407 4.6997,-4.70229 m -150.2008,135.989415 4.9123,-4.971023 m 4.9389,-4.944068 2.2958,-2.283934 m 7.5821,-7.63116 4.0316,-4.05735 m 15.6987,-15.74588 4.939,-4.9709 m 4.9122,-4.94407 4.9389,-4.94419 m 4.939,-4.9709 2.0553,-2.04216 m 57.1332,-57.39436 4.9389,-4.97103 m 4.939,-4.94407 4.9389,-4.94406 m -147.2636,133.006751 1.7358,-1.719747 m 4.9122,-4.970906 4.7519,-4.755968 m 34.8934,-35.03859 4.7531,-4.78281 m 4.9389,-4.97102 4.939,-4.94407 m 4.9389,-4.94406 4.939,-4.97103 m 45.2523,-45.46407 4.0582,-4.08431 m 4.939,-4.94407 4.939,-4.94407 m -98.4876,84.04951 2.2958,-2.31077 m 4.9123,-4.94419 4.9401,-4.9709 m 4.9389,-4.94407 4.939,-4.97102 m 4.939,-4.94407 4.9122,-4.94407 m 4.9389,-4.97091 v -0.0581 m 32.8916,-33.02327 1.601,-1.58532 m 4.9134,-4.97103 4.9389,-4.94407 m 4.939,-4.94406 2.2156,-2.23026 m -88.5562,74.0539 4.939,-4.94406 m 4.9401,-4.97103 4.939,-4.94406 m 4.9122,-4.97091 4.939,-4.94419 m 4.9389,-4.94406 3.9781,-4.00357 m 25.6289,-25.74159 4.9123,-4.94407 m 4.9389,-4.94407 4.6729,-4.70229 m -77.5838,63.064 1.3884,-1.39722 m 4.939,-4.94407 4.9122,-4.97091 m 4.9401,-4.94418 4.939,-4.94407 m 4.939,-4.97091 4.9389,-4.94406 m 14.7902,-14.85916 4.9389,-4.97103 m 4.9122,-4.94407 4.939,-4.94406 m -71.5225,56.96449 4.939,-4.97091 m 4.9389,-4.94419 2.563,-2.5795 m 7.2882,-7.33547 4.9401,-4.94407 m 4.939,-4.94418 4.9122,-4.97091 m 4.939,-4.94407 4.9389,-4.97102 m 4.939,-4.94407 4.9389,-4.94407 m -61.6713,47.04951 4.939,-4.94418 m 18.6346,-18.72842 1.0922,-1.10141 m 4.9122,-4.94407 4.9401,-4.94407 m 4.939,-4.97102 4.9389,-4.94407 m 4.939,-4.94407 2.1889,-2.23026 m -29.341,14.59043 4.939,-4.94407 m 4.9401,-4.94407 4.6717,-4.70229 m -150.2007,135.989418 4.939,-4.971023 m 113.4647,-113.928975 4.9122,-4.97102 m 4.939,-4.94407 4.9389,-4.94407 m -150.4668,136.231193 4.939,-4.944185 m 4.9389,-4.970907 4.7519,-4.755967 m 104.6278,-105.115654 4.085,-4.08431 m 4.9123,-4.94407 4.9389,-4.94407 m -149.6396,135.425116 4.1118,-4.137988 m 4.9389,-4.971023 4.939,-4.944068 m 106.9236,-107.399587 1.6021,-1.58532 m 4.939,-4.97102 4.939,-4.94407 m 4.9122,-4.94407 2.2156,-2.23026 m -152.9496,138.757023 0.2904,-0.295106 m 4.9134,-4.944184 4.939,-4.970907 m 113.4635,-113.955936 4.939,-4.94406 m 4.9401,-4.94407 4.6717,-4.70229 m -140.2426,125.966852 4.8332,-4.836602 m 4.939,-4.97102 4.9389,-4.94407 m 93.7077,-94.12575 4.939,-4.97102 m 4.939,-4.94407 4.9389,-4.94407 m -120.8598,106.51288 4.9134,-4.97091 m 4.939,-4.94418 4.0571,-4.0842 m 75.7411,-76.0691 4.0583,-4.08432 m 4.939,-4.94406 4.9389,-4.94407 m -101.1295,86.68281 4.939,-4.94407 m 4.9389,-4.94419 1.5743,-1.61216 m 18.1548,-18.2179 4.9123,-4.94407 m 37.8839,-38.04797 1.6021,-1.58533 m 4.9123,-4.97102 4.9389,-4.94407 m 4.939,-4.94407 2.2156,-2.23025 m -95.8443,81.36253 2.3759,-2.36456 m 4.9134,-4.94407 4.939,-4.94407 m 6.0334,-6.04583 3.8445,-3.86926 m 4.939,-4.9709 4.9122,-4.94419 m 34.546,-34.68923 4.9134,-4.94406 m 4.9389,-4.94407 4.6717,-4.70229 m -81.0274,66.50338 4.8332,-4.8366 m 4.939,-4.94407 4.9389,-4.97091 m 4.9123,-4.94418 0.1161,-0.10457 m 29.5002,-29.61073 4.9389,-4.97102 m 4.939,-4.94407 4.9122,-4.94407 m -61.6446,47.0494 4.9134,-4.94407 m 4.939,-4.97091 4.0571,-4.05736 m 16.5527,-16.63258 4.0582,-4.08431 m 4.939,-4.94407 4.9389,-4.94407 m -41.941,27.24629 4.939,-4.97103 m 4.9389,-4.94406 1.5743,-1.58533 m 1.7625,-1.77342 1.5755,-1.58532 m 4.9389,-4.97102 4.939,-4.94407 m 4.9389,-4.94407 2.1889,-2.23026 m -36.6291,21.92602 2.3759,-2.36457 m 4.9134,-4.97102 4.939,-4.94407 m 4.9389,-4.94407 4.6718,-4.70229 m -21.839,7.06686 4.8332,-4.8366"
       id="path2" />
  </g>
</svg>
