<?xml version="1.0" encoding="UTF-8" standalone="no"?>
<!-- Created with Inkscape (http://www.inkscape.org/) -->

<svg
   width="1000mm"
   height="141.63329mm"
   viewBox="0 0 999.99999 141.63329"
   version="1.1"
   id="svg1"
   xmlns="http://www.w3.org/2000/svg"
   xmlns:svg="http://www.w3.org/2000/svg">
  <defs
     id="defs1" />
  <g
     id="layer1"
     transform="translate(-1004.809,213.94931)">
    <path
       style="fill:none;stroke:#000000;stroke-width:5.6782px;stroke-linecap:round;stroke-linejoin:round;stroke-miterlimit:4;stroke-dasharray:none;stroke-opacity:1"
       d="m 1657.1111,-193.70239 h -142.6627 m 0,0 -0.7138,0.0324 m 0,0 -0.6705,0.13627 m 0,0 -0.6706,0.23793 m 0,0 -0.638,0.30606 m 0,0 -0.5732,0.40773 m 0,0 -0.5408,0.44233 m 0,0 -0.4758,0.544 m 0,0 -0.3678,0.61212 m 0,0 -0.3352,0.61213 m 0,0 -0.2055,0.68027 m 0,0 -0.1406,0.71379 m 0,0 -0.1082,0.71379 m 0,0 0.1082,0.68026 m 0,0 0.1406,0.71379 m 0,0 v 0.16979 m 0,0 21.1584,69.63298 m 0,0 0.1731,0.47586 m 0,0 0.3028,0.64566 m 0,0 0.4002,0.61213 m 0,0 0.4758,0.51047 m 0,0 0.5408,0.47586 m 0,0 0.5732,0.40772 m 0,0 0.638,0.30607 m 0,0 0.6706,0.23793 m 0,0 0.6705,0.13626 m 0,0 0.7138,0.0325 m 0,0 h 121.5064 m 0,0 0.7138,-0.0325 m 0,0 0.7138,-0.13626 m 0,0 0.6706,-0.23793 m 0,0 0.6056,-0.30607 m 0,0 0.6056,-0.40772 m 0,0 0.5083,-0.47586 m 0,0 0.4759,-0.51047 m 0,0 0.4001,-0.61213 m 0,0 0.3029,-0.64566 m 0,0 0.2379,-0.64565 m 0,0 0.1298,-0.71379 m 0,0 v -0.71379 m 0,0 v -69.59902 m 0,0 v -0.71379 m 0,0 -0.1298,-0.71379 m 0,0 -0.2379,-0.68026 m 0,0 -0.3029,-0.61213 m 0,0 -0.4001,-0.61213 m 0,0 -0.4759,-0.544 m 0,0 -0.5083,-0.44233 m 0,0 -0.6056,-0.40772 m 0,0 -0.6056,-0.30607 m 0,0 -0.6706,-0.23793 m 0,0 -0.7138,-0.13627 m 0,0 -0.7138,-0.0324 m 329.6064,0 h 0.1082 m -973.8436,-17.40825 h 983.5781 m 0,0 0.7138,0.0324 m 0,0 0.6706,0.13627 m 0,0 0.6705,0.23793 m 0,0 0.6381,0.30606 m 0,0 0.5732,0.40773 m 0,0 0.5407,0.44233 m 0,0 0.4759,0.54399 m 0,0 0.3677,0.61213 m 0,0 0.3028,0.61213 m 0,0 0.2379,0.68026 m 0,0 0.1406,0.71379 m 0,0 0.1082,0.71379 m 0,0 v 119.647568 m 0,0 -0.1082,0.71379 m 0,0 -0.1406,0.680263 m 0,0 -0.2379,0.680263 m 0,0 -0.3028,0.645655 m 0,0 -0.3677,0.577521 m 0,0 -0.4759,0.543994 m 0,0 -0.5407,0.475859 m 0,0 -0.5732,0.407726 m 0,0 -0.6381,0.306064 m 0,0 -0.6705,0.23793 m 0,0 -0.6706,0.136269 m 0,0 -0.7138,0.03244 m 0,0 h -21.564 m 0,0 -0.8111,-0.03244 m 0,0 -0.6705,-0.136269 m 0,0 -0.6706,-0.23793 m 0,0 -0.638,-0.306064 m 0,0 -0.5732,-0.407726 m 0,0 -0.5408,-0.475859 m 0,0 -0.4758,-0.543994 m 0,0 -0.3678,-0.577521 m 0,0 -0.3352,-0.645655 m 0,0 -0.2055,-0.680263 m 0,0 -0.1082,-0.204404 m 0,0 -0.1081,-0.442333 m 0,0 -0.1082,-0.57752 m 0,0 v -4.488006 m 0,0 0.1082,-0.71379 m 0,0 v -0.272538 m 0,0 0.2055,-1.122055 m 0,0 0.3028,-0.645655 m 0,0 0.4002,-0.577521 m 0,0 0.4758,-0.543994 m 0,0 0.5083,-0.47586 m 0,0 0.6057,-0.374198 m 0,0 0.6056,-0.339591 m 0,0 0.6705,-0.204403 m 0,0 0.7138,-0.169796 m 0,0 0.7138,-0.03245 m 0,0 h 9.8016 m 0,0 0.5732,-0.06489 m 0,0 0.5083,-0.204403 m 0,0 0.4435,-0.374199 m 0,0 0.3352,-0.442333 m 0,0 0.2379,-0.510468 m 0,0 0.1082,-0.57752 m 0,0 v -16.320264 m 0,0 v -0.71379 m 0,0 -0.1406,-0.68026 m 0,0 -0.2379,-0.68026 m 0,0 -0.3028,-0.64566 m 0,0 -0.4002,-0.57752 m 0,0 -0.4759,-0.54399 m 0,0 -0.5407,-0.47586 m 0,0 -0.5732,-0.3742 m 0,0 -0.6381,-0.33959 m 0,0 -0.6381,-0.20441 m 0,0 -0.7138,-0.13627 m 0,0 -0.7138,-0.0649 m 0,0 h -44.9514 m 0,0 -0.6705,0.0649 m 0,0 -0.7138,0.13627 m 0,0 -0.6705,0.20441 m 0,0 -0.6381,0.33959 m 0,0 -0.5732,0.3742 m 0,0 -0.5408,0.47586 m 0,0 -0.4434,0.54399 m 0,0 -0.4001,0.57752 m 0,0 -0.3029,0.64566 m 0,0 -0.2379,0.68026 m 0,0 -0.1298,0.68026 m 0,0 v 0.71379 m 0,0 v 16.320264 m 0,0 0.1082,0.57752 m 0,0 0.2055,0.510468 m 0,0 0.3352,0.442333 m 0,0 0.4434,0.374199 m 0,0 0.5408,0.204403 m 0,0 0.5407,0.06489 m 0,0 h 3.7853 m 0,0 0.7138,0.03245 m 0,0 0.7138,0.169796 m 0,0 0.6705,0.204403 m 0,0 0.6056,0.339591 m 0,0 0.6057,0.374198 m 0,0 0.5083,0.47586 m 0,0 0.4758,0.543994 m 0,0 0.4002,0.577521 m 0,0 0.3028,0.645655 m 0,0 0.238,0.680263 m 0,0 0.1297,0.680263 m 0,0 v 0.71379 m 0,0 v 4.352061 m 0,0 v 0.713789 m 0,0 -0.1297,0.680264 m 0,0 -0.238,0.680263 m 0,0 -0.3028,0.645655 m 0,0 -0.4002,0.57752 m 0,0 -0.4758,0.543994 m 0,0 -0.5083,0.47586 m 0,0 -0.6057,0.407725 m 0,0 -0.6056,0.306065 m 0,0 -0.6705,0.23793 m 0,0 -0.7138,0.136268 m 0,0 -0.7138,0.03244 m 0,0 h -10.2407 m 0,0 -0.7138,-0.03244 m 0,0 -0.7138,-0.136268 m 0,0 -0.6705,-0.23793 m 0,0 -0.6057,-0.306065 m 0,0 -0.6056,-0.407725 m 0,0 -0.5083,-0.47586 m 0,0 -0.4759,-0.543994 m 0,0 -0.4001,-0.57752 m 0,0 -0.3028,-0.645655 m 0,0 -0.238,-0.680263 m 0,0 -0.1406,-0.680264 m 0,0 v -0.713789 m 0,0 v -55.488812 m 0,0 0.1082,-0.54399 m 0,0 0.2055,-0.544 m 0,0 0.3352,-0.44233 m 0,0 0.4759,-0.33959 m 0,0 0.5083,-0.23793 m 0,0 0.5732,-0.0649 m 0,0 h 12.9444 m 0,0 v 10.8801 m 0,0 h 50.3601 m 0,0 v -60.89479 m 0,0 h -244.1961 m 0,0 v 2.17608 m 0,0 v 0.50939 m 0,0 -0.1406,0.47586 m 0,0 -0.2055,0.47586 m 0,0 -0.2703,0.44233 m 0,0 -0.3029,0.3742 m 0,0 -0.4001,0.33959 m 0,0 -0.4434,0.27146 m 0,0 -0.4759,0.2044 m 0,0 -0.4759,0.0973 m 0,0 -0.5083,0.0649 m 0,0 h -63.7792 m 0,0 v 75.03907 m 0,0 h 61.6162 m 0,0 0.7138,0.0649 m 0,0 0.6706,0.13627 m 0,0 0.6705,0.2044 m 0,0 0.6381,0.33959 m 0,0 0.5732,0.3742 m 0,0 0.5407,0.47586 m 0,0 0.4759,0.54399 m 0,0 0.3677,0.57752 m 0,0 0.3353,0.64566 m 0,0 0.2054,0.68026 m 0,0 0.1406,0.68027 m 0,0 0.1082,0.71379 m 0,0 v 27.200243 m 0,0 -0.1082,0.71379 m 0,0 -0.1406,0.680263 m 0,0 -0.2054,0.680263 m 0,0 -0.3353,0.645655 m 0,0 -0.3677,0.577521 m 0,0 -0.4759,0.543994 m 0,0 -0.5407,0.475859 m 0,0 -0.5732,0.407726 m 0,0 -0.6381,0.306064 m 0,0 -0.6705,0.23793 m 0,0 -0.6706,0.136269 m 0,0 -0.7138,0.03244 m 0,0 -0.7137,-0.03244 m 0,0 -0.7138,-0.136269 m 0,0 -0.6381,-0.23793 m 0,0 -0.6381,-0.306064 m 0,0 -0.6056,-0.407726 m 0,0 -0.5083,-0.475859 m 0,0 -0.4759,-0.543994 m 0,0 -0.4002,-0.577521 m 0,0 -0.3028,-0.645655 m 0,0 -0.2379,-0.680263 m 0,0 -0.1406,-0.680263 m 0,0 v -0.71379 m 0,0 v -6.527929 m 0,0 v -0.71379 m 0,0 -0.173,-0.680263 m 0,0 -0.2055,-0.680263 m 0,0 -0.3029,-0.645655 m 0,0 -0.4001,-0.577521 m 0,0 -0.4759,-0.543994 m 0,0 -0.5407,-0.47586 m 0,0 -0.5732,-0.407725 m 0,0 -0.6381,-0.306064 m 0,0 -0.6705,-0.204404 m 0,0 -0.6814,-0.169795 m 0,0 -0.7138,-0.03245 m 0,0 h -148.0724 m 0,0 -0.7137,0.03245 m 0,0 -0.6706,0.169795 m 0,0 -0.6705,0.204404 m 0,0 -0.6381,0.306064 m 0,0 -0.5732,0.407725 m 0,0 -0.5407,0.47586 m 0,0 -0.4759,0.543994 m 0,0 -0.411,0.577521 m 0,0 -0.3028,0.645655 m 0,0 -0.2055,0.680263 m 0,0 -0.173,0.680263 m 0,0 v 0.71379 m 0,0 v 0.543994 m 0,0 v 0.543994 m 0,0 -0.1082,0.713789 m 0,0 -0.1405,0.680263 m 0,0 -0.238,0.680263 m 0,0 -0.3028,0.645656 m 0,0 -0.3677,0.57752 m 0,0 -0.4759,0.543994 m 0,0 -0.5407,0.47586 m 0,0 -0.5732,0.407725 m 0,0 -0.6381,0.306065 m 0,0 -0.6705,0.237929 m 0,0 -0.6706,0.136269 m 0,0 -0.6705,0.03244 m 0,0 H 1458.43 m 0,0 -0.7138,-0.03244 m 0,0 -0.6706,-0.136269 m 0,0 -0.6705,-0.237929 m 0,0 -0.6381,-0.306065 m 0,0 -0.5732,-0.407725 m 0,0 -0.5407,-0.47586 m 0,0 -0.4759,-0.543994 m 0,0 -0.3677,-0.57752 m 0,0 -0.3028,-0.645656 m 0,0 -0.2379,-0.680263 m 0,0 -0.1298,-0.680263 m 0,0 -0.1082,-0.713789 m 0,0 V -90.3849 m 0,0 0.1082,-0.713789 m 0,0 0.1298,-0.680263 m 0,0 0.2379,-0.680263 m 0,0 0.3028,-0.645655 m 0,0 0.3677,-0.577521 m 0,0 0.4759,-0.543994 m 0,0 0.5407,-0.47586 m 0,0 0.5732,-0.374198 m 0,0 0.6381,-0.339591 m 0,0 0.6705,-0.204404 m 0,0 0.6706,-0.169795 m 0,0 0.7138,-0.03244 m 0,0 h 24.8755 m 0,0 v -13.056187 m 0,0 v -0.51047 m 0,0 0.1298,-0.51047 m 0,0 0.1731,-0.44233 m 0,0 0.2703,-0.44233 m 0,0 0.3353,-0.40773 m 0,0 0.3677,-0.33959 m 0,0 0.4434,-0.23793 m 0,0 0.4759,-0.2044 m 0,0 0.5083,-0.13627 m 0,0 0.5083,-0.0325 m 0,0 h 15.2102 m 0,0 0.5083,-0.0324 m 0,0 0.4759,-0.13627 m 0,0 0.4758,-0.1698 m 0,0 0.4434,-0.27145 m 0,0 0.3677,-0.33959 m 0,0 0.3353,-0.3742 m 0,0 0.2704,-0.44234 m 0,0 0.2055,-0.47585 m 0,0 0.1081,-0.51047 m 0,0 0.1082,-0.50939 m 0,0 -0.1082,-0.51047 m 0,0 -0.1081,-0.44233 m 0,0 -4.631,-15.23216 m 0,0 -0.2055,-0.51047 m 0,0 -0.2704,-0.44233 m 0,0 -0.3028,-0.40773 m 0,0 -0.411,-0.30606 m 0,0 -0.4434,-0.27146 m 0,0 -0.4758,-0.2044 m 0,0 -0.4759,-0.13627 m 0,0 -0.5083,-0.0324 m 0,0 h -10.5792 m 0,0 -0.5083,-0.0325 m 0,0 -0.5083,-0.0973 m 0,0 -0.4759,-0.20441 m 0,0 -0.4434,-0.27254 m 0,0 -0.3677,-0.33958 m 0,0 -0.3353,-0.37419 m 0,0 -0.2704,-0.44234 m 0,0 -0.173,-0.47587 m 0,0 -0.1298,-0.51047 m 0,0 v -0.51046 m 0,0 v -15.23227 m 0,0 h -19.468 m 0,0 -0.5084,-0.0324 m 0,0 -0.4758,-0.0973 m 0,0 -0.4759,-0.20441 m 0,0 -0.4434,-0.27145 m 0,0 -0.411,-0.33959 m 0,0 -0.3028,-0.3742 m 0,0 -0.2704,-0.44233 m 0,0 -0.2054,-0.47586 m 0,0 -0.1406,-0.51047 m 0,0 v -0.51047 m 0,0 v -8.70412 m 0,0 v -0.51047 m 0,0 0.1406,-0.47586 m 0,0 0.2054,-0.47586 m 0,0 0.2704,-0.44233 m 0,0 0.3028,-0.3742 m 0,0 0.411,-0.33959 m 0,0 0.4434,-0.27146 m 0,0 0.4759,-0.2044 m 0,0 0.4758,-0.0973 m 0,0 0.5084,-0.0649 m 0,0 h 21.0567 m 0,0 0.5083,-0.0324 m 0,0 0.5084,-0.0973 m 0,0 0.4758,-0.2044 m 0,0 0.411,-0.27254 m 0,0 0.4001,-0.33959 m 0,0 0.3353,-0.3742 m 0,0 0.2379,-0.44233 m 0,0 0.2055,-0.47586 m 0,0 0.1406,-0.51047 m 0,0 v -0.51047 m 0,0 v -0.51046 m 0,0 -0.1081,-0.44234 m 0,0 -5.9483,-19.58422 m 0,0 -0.2055,-0.51047 m 0,0 -0.2703,-0.44233 m 0,0 -0.3353,-0.3742 m 0,0 -0.411,-0.33959 m 0,0 -0.4001,-0.27145 m 0,0 -0.4759,-0.20441 m 0,0 -0.5083,-0.0973 m 0,0 -0.5083,-0.0325 m 0,0 h -150.2019 m 0,0 -0.5083,0.0325 m 0,0 -0.5083,0.0973 m 0,0 -0.4758,0.20441 m 0,0 -0.4435,0.27145 m 0,0 -0.3677,0.33959 m 0,0 -0.3352,0.3742 m 0,0 -0.2704,0.44233 m 0,0 -0.173,0.47586 m 0,0 -0.1298,0.51047 m 0,0 v 0.51047 m 0,0 v 2.00607 m 0,0 0.4758,0.47586 m 0,0 0.7138,0.88359 m 0,0 0.6057,0.98632 m 0,0 0.5083,0.98633 m 0,0 0.4001,1.0881 m 0,0 0.3028,1.08799 m 0,0 0.1731,1.12205 m 0,0 0.1081,1.12195 m 0,0 -0.1081,1.15601 m 0,0 -0.1731,1.12206 m 0,0 -0.3028,1.08799 m 0,0 -0.4001,1.08809 m 0,0 -0.5083,0.98633 m 0,0 -0.6057,0.98633 m 0,0 -0.7138,0.88358 m 0,0 -0.4758,0.47586 m 0,0 v 2.00597 m 0,0 v 0.51047 m 0,0 0.1298,0.51046 m 0,0 0.173,0.47586 m 0,0 0.2704,0.44234 m 0,0 0.3352,0.3742 m 0,0 0.3677,0.33959 m 0,0 0.4435,0.27253 m 0,0 0.4758,0.20441 m 0,0 0.5083,0.0973 m 0,0 0.5083,0.0324 m 0,0 h 15.1421 m 0,0 0.5083,0.0649 m 0,0 0.4759,0.0973 m 0,0 0.4758,0.20441 m 0,0 0.4434,0.27145 m 0,0 0.3677,0.33959 m 0,0 0.3353,0.3742 m 0,0 0.2704,0.44233 m 0,0 0.2055,0.47586 m 0,0 0.1081,0.47586 m 0,0 0.1082,0.51047 m 0,0 v 8.70412 m 0,0 -0.1082,0.51047 m 0,0 -0.1081,0.51047 m 0,0 -0.2055,0.47586 m 0,0 -0.2704,0.44233 m 0,0 -0.3353,0.3742 m 0,0 -0.3677,0.33959 m 0,0 -0.4434,0.27146 m 0,0 -0.4758,0.2044 m 0,0 -0.4759,0.0973 m 0,0 -0.5083,0.0324 m 0,0 h -18.3866 m 0,0 v 56.576794 m 0,0 h 31.3311 m 0,0 0.7138,0.03244 m 0,0 0.7137,0.169796 m 0,0 0.6706,0.204403 m 0,0 0.6056,0.339591 m 0,0 0.6057,0.374198 m 0,0 0.5083,0.47586 m 0,0 0.4758,0.543994 m 0,0 0.4002,0.577521 m 0,0 0.3028,0.645655 m 0,0 0.2379,0.680263 m 0,0 0.1406,0.680263 m 0,0 v 0.71379 m 0,0 v 4.352061 m 0,0 v 0.713789 m 0,0 -0.1406,0.680264 m 0,0 -0.2379,0.680263 m 0,0 -0.3028,0.645655 m 0,0 -0.4002,0.57752 m 0,0 -0.4758,0.543994 m 0,0 -0.5083,0.47586 m 0,0 -0.6057,0.407725 m 0,0 -0.6056,0.306065 m 0,0 -0.6706,0.23793 m 0,0 -0.7137,0.136268 m 0,0 -0.7138,0.03245 m 0,0 h -41.0656 m 0,0 -0.7138,-0.03245 m 0,0 -0.6706,-0.136268 m 0,0 -0.6705,-0.23793 m 0,0 -0.6381,-0.306065 m 0,0 -0.5732,-0.407725 m 0,0 -0.5407,-0.47586 m 0,0 -0.4759,-0.543994 m 0,0 -0.3677,-0.57752 m 0,0 -0.3353,-0.645655 m 0,0 -0.2054,-0.680263 m 0,0 -0.1406,-0.680264 m 0,0 -0.1082,-0.713789 m 0,0 V -193.70564 m 0,0 H 1013.088 m 0,0 -0.7138,-0.0649 m 0,0 -0.6705,-0.13627 m 0,0 -0.6705,-0.23793 m 0,0 -0.6381,-0.30606 m 0,0 -0.5732,-0.40773 m 0,0 -0.5408,-0.44233 m 0,0 -0.4758,-0.54399 m 0,0 -0.3677,-0.57753 m 0,0 -0.3353,-0.64565 m 0,0 -0.2055,-0.68026 m 0,0 -0.1406,-0.71379 m 0,0 -0.1081,-0.68027 m 0,0 v -6.52793 m 0,0 0.1081,-0.71379 m 0,0 0.1406,-0.71378 m 0,0 0.2055,-0.68027 m 0,0 0.3353,-0.61213 m 0,0 0.3677,-0.61212 m 0,0 0.4758,-0.544 m 0,0 0.5408,-0.44233 m 0,0 0.5732,-0.40773 m 0,0 0.6381,-0.30606 m 0,0 0.6705,-0.23793 m 0,0 0.6705,-0.13627 m 0,0 0.7138,-0.0324"
       id="path1" />
    <path
       style="fill:none;stroke:#000000;stroke-width:0.0337988px;stroke-linecap:round;stroke-linejoin:round;stroke-miterlimit:4;stroke-dasharray:none;stroke-opacity:1"
       d="m 1986.5153,-80.582975 0.7462,-0.71379 m 4.5639,-4.624058 4.5953,-4.62395 m 4.5964,-4.624167 0.9084,-0.883585 m -26.1268,12.444164 4.5628,-4.62395 m 4.5975,-4.624059 4.5953,-4.590099 m 4.5639,-4.624171 4.5953,-4.62395 m -29.2016,15.538229 3.9875,-4.012146 m 13.7567,-13.838113 4.5628,-4.62405 m 4.5964,-4.5901 4.5964,-4.62406 m -17.3721,3.63805 1.3194,-1.32591 m 4.5953,-4.62417 4.5639,-4.62406 m 4.5953,-4.5901 3.212,-3.23 m -70.4358,57.018694 0.7462,-0.71379 m 4.5628,-4.624058 4.5964,-4.62395 m 32.1076,-32.300496 4.5628,-4.62405 m 4.5975,-4.62406 0.7138,-0.71379 m 3.3461,-3.36606 0.5408,-0.51047 m 4.5628,-4.62395 4.5964,-4.62416 m 4.5963,-4.62406 0.9085,-0.88359 m -80.4408,67.082916 3.8534,-3.875985 m 4.5952,-4.624058 2.9406,-2.958117 m 24.5717,-24.718206 4.5964,-4.62417 m 4.5628,-4.62406 3.0077,-3.02603 m 17.1028,-17.20428 2.8389,-2.82206 m 4.5629,-4.62395 4.5964,-4.62406 m -75.6747,62.322804 4.5964,-4.624054 m 15.2437,-15.36833 3.1082,-3.09395 m 4.5629,-4.62406 4.5963,-4.62406 m 32.1098,-32.30049 4.5628,-4.58999 m 4.5964,-4.62406 4.5963,-4.62405 m -75.6746,62.3228 4.5963,-4.62395 m 4.5975,-4.62417 4.5628,-4.62406 m 50.4606,-50.76265 4.5629,-4.62417 m 4.5964,-4.58988 3.2109,-3.23012 m -80.6766,67.35491 1.791,-1.83606 m 4.5964,-4.62406 4.5974,-4.59009 m 54.4827,-54.84262 0.5408,-0.54399 m 4.5628,-4.62406 4.5964,-4.62406 m 4.5963,-4.58999 0.8112,-0.81653 m -80.575,67.25282 4.0892,-4.1481 m 50.4606,-50.76265 4.5628,-4.62406 m 4.5975,-4.62406 4.5963,-4.58999 m -28.1882,14.51815 2.9406,-2.99207 m 4.5964,-4.62406 4.5964,-4.58999 m 4.5628,-4.62406 0.6057,-0.57752 m -31.0618,17.40825 0.6706,-0.68027 m 4.5628,-4.62406 4.5975,-4.62405 m 4.5963,-4.59 2.8725,-2.89009 m -28.119,14.41617 4.5964,-4.62406 m 4.5953,-4.58999 4.5628,-4.62405 m -29.8094,16.15013 4.5964,-4.62406 m 4.5964,-4.62405 4.5974,-4.59 m -28.1882,14.51816 2.9396,-2.99208 m 4.5974,-4.62406 4.5964,-4.58999 m 4.5628,-4.62405 0.6057,-0.57753 m -31.0618,17.40825 0.6381,-0.68026 m 4.5964,-4.62406 4.5964,-4.62406 m 4.5628,-4.58999 2.8736,-2.89009 m -28.0877,14.41617 4.5975,-4.62406 m 4.5964,-4.58999 4.5628,-4.62406 m -29.8104,16.15014 4.5963,-4.62406 m 4.5964,-4.62406 4.5628,-4.58999 m -145.1653,132.295698 0.7463,-0.781924 m 4.5628,-4.590099 2.9071,-2.92405 m 108.7977,-109.481365 2.9406,-2.99207 m 4.5975,-4.62406 4.5963,-4.58999 m 4.5629,-4.62406 0.5732,-0.57752 m -135.8374,122.877676 4.5974,-4.624058 m 4.5629,-4.590099 0.6056,-0.612129 m 95.0422,-95.64326 0.6381,-0.68026 m 4.5963,-4.62406 4.5964,-4.62406 m 4.5629,-4.58999 2.8735,-2.89009 m -128.9764,115.941486 4.5964,-4.589991 m 4.5964,-4.624055 4.5628,-4.62406 m 87.1332,-87.68721 4.5964,-4.62406 m 4.5974,-4.58999 4.5629,-4.62406 m -130.7003,117.675563 4.5974,-4.590099 m 4.5964,-4.624164 4.5629,-4.62395 m 4.5963,-4.62406 1.8927,-1.90409 m 80.643,-81.15906 4.5975,-4.62406 m 4.5964,-4.62406 4.5628,-4.58999 m -128.6714,115.66949 2.5686,-2.618094 m 4.5964,-4.589991 4.5963,-4.624055 m 4.5629,-4.62406 4.1919,-4.21612 m 80.0006,-80.47901 2.9406,-2.99208 m 4.5964,-4.62406 4.5628,-4.58999 m 4.5975,-4.62406 0.5732,-0.57752 m -131.5449,118.55958 0.2703,-0.306064 m 4.5964,-4.590099 4.5975,-4.624167 m 4.5628,-4.62395 4.5964,-4.62406 m 81.8944,-82.3831 0.638,-0.68026 m 4.5975,-4.62406 4.5964,-4.62406 m 4.5628,-4.58999 2.8725,-2.89009 m -128.9753,115.941482 4.5964,-4.589991 m 4.5963,-4.624061 4.5629,-4.62406 m 87.1342,-87.6872 4.5953,-4.62406 m 4.5629,-4.58999 4.5963,-4.62406 m -130.6992,117.67556 4.5964,-4.5901 m 4.5975,-4.62417 4.5628,-4.62395 m 4.5964,-4.62405 2.3652,-2.38006 m 80.1716,-80.68309 4.5963,-4.62406 m 4.5975,-4.62406 4.5628,-4.58999 m -128.6735,115.669486 2.5696,-2.618094 m 4.5964,-4.589991 4.5964,-4.624061 m 4.5628,-4.62406 4.5964,-4.62405 m 4.5974,-4.5901 4.5629,-4.62406 m 4.5964,-4.62406 0.1081,-0.0649 m 64.1167,-64.53285 4.5975,-4.62406 m 4.5963,-4.62405 4.5629,-4.58999 m 4.5963,-4.62406 0.5732,-0.57752 m -131.546,118.559573 0.2704,-0.306064 m 4.5964,-4.5901 4.5964,-4.624169 m 4.5628,-4.62395 4.5975,-4.62406 m 16.8995,-17.0003 1.4535,-1.46197 m 4.5628,-4.5901 4.5964,-4.62395 m 50.4282,-50.76266 4.5963,-4.62416 m 4.5964,-4.62406 4.5975,-4.62406 m 4.5628,-4.58999 2.8725,-2.89009 m -128.9775,115.941481 4.5975,-4.589991 m 4.5628,-4.62406 4.5964,-4.62406 m 32.9544,-33.15044 3.7517,-3.77411 m 4.5628,-4.62405 4.5964,-4.59 m 32.9198,-33.11659 3.7517,-3.80795 m 4.5974,-4.62406 4.5964,-4.62406 m 4.5628,-4.58999 4.5964,-4.62406 m -130.6992,117.675559 4.5953,-4.5901 m 4.5964,-4.624169 4.5628,-4.62395 m 4.5975,-4.62406 1.8926,-1.90408 m 43.9727,-44.23451 4.5628,-4.62406 m 4.5964,-4.62417 2.3653,-2.38005 m 19.0971,-19.17629 1.4535,-1.49582 m 4.5964,-4.62416 4.5963,-4.62406 m 4.5629,-4.62406 4.5974,-4.58999 m -128.7059,115.669485 2.602,-2.618094 m 4.5975,-4.589991 4.5628,-4.62406 m 4.5964,-4.62406 4.1897,-4.21611 m 60.0276,-60.38476 4.5628,-4.62406 m 4.5964,-4.62406 0.1081,-0.0649 m 9.0922,-9.14613 4.5975,-4.62406 m 4.5963,-4.62405 4.5629,-4.59 m 4.5964,-4.62405 0.5732,-0.57753 m -143.4415,130.52767 3.0077,-3.026036 m 4.5974,-4.62395 4.5629,-4.624058 m 4.5964,-4.590099 4.5963,-4.624167 m 4.5629,-4.62395 4.5963,-4.62406 m 71.9241,-72.38702 1.4535,-1.46208 m 4.5629,-4.58988 4.5963,-4.62417 m 4.5964,-4.62405 4.5628,-4.62406 m 4.5964,-4.58999 2.8736,-2.8901 m -143.4425,130.52767 0.7138,-0.71379 m 4.5963,-4.624058 4.5629,-4.623951 m 4.5963,-4.624166 4.5964,-4.589991 m 4.5629,-4.624054 4.5974,-4.62406 m 87.1321,-87.68721 4.5974,-4.62406 m 4.5629,-4.58999 4.5964,-4.62406 m -139.8595,126.923571 4.5963,-4.62395 m 4.564,-4.624059 4.5963,-4.590099 m 4.5964,-4.624163 4.5629,-4.62395 m 4.5963,-4.62406 1.8927,-1.90409 m 80.6441,-81.15906 4.5964,-4.62406 m 4.5628,-4.62406 4.5964,-4.58999 m -139.8584,126.92357 4.5964,-4.624058 m 4.5628,-4.623951 4.5964,-4.624166 m 4.5964,-4.589991 4.5628,-4.624054 m 4.5975,-4.62406 4.1908,-4.21612 m 79.9671,-80.47901 2.9741,-2.99208 m 4.5975,-4.62406 4.5628,-4.58999 m 4.5964,-4.62406 0.5732,-0.57752 m -143.4414,130.527667 3.0076,-3.026035 m 4.5629,-4.623951 4.5963,-4.624058 m 4.5975,-4.590099 4.5628,-4.624164 m 4.5964,-4.62395 4.5964,-4.62406 m 81.8608,-82.3831 0.6706,-0.68027 m 4.5963,-4.62405 4.5629,-4.62406 m 4.5964,-4.58999 2.8735,-2.89009 m -143.4425,130.52766 0.7138,-0.713789 m 4.5974,-4.624059 4.5629,-4.62395 m 4.5964,-4.624166 4.5963,-4.589992 m 4.5629,-4.624054 4.5974,-4.62406 m 4.5964,-4.62406 4.5628,-4.5901 m 77.9729,-78.47305 4.5629,-4.62406 m 4.5963,-4.58999 4.5975,-4.62406 m -139.8595,126.923572 4.5628,-4.623951 m 4.5964,-4.624058 4.5975,-4.590099 m 4.5628,-4.624164 4.5964,-4.62395 m 4.5963,-4.62406 4.5629,-4.5901 m 4.5964,-4.62395 4.5974,-4.62417 m 4.5629,-4.62406 0.173,-0.13627 m 64.0486,-64.46482 4.5974,-4.62405 m 4.5629,-4.62406 4.5952,-4.58999 m -139.8594,126.923564 4.5974,-4.624058 m 4.5629,-4.62395 4.5963,-4.624167 m 4.8668,-4.896059 4.2924,-4.31799 m 4.5964,-4.62406 3.1104,-3.12802 m 8.28,-8.33014 2.3663,-2.38005 m 4.5964,-4.62406 4.5628,-4.62406 m 4.5975,-4.5901 3.7852,-3.84203 m 52.8615,-53.17667 2.9742,-2.99207 m 4.5628,-4.62406 4.5964,-4.58999 m 4.5974,-4.62406 0.5732,-0.57752 m -135.872,122.877676 4.5964,-4.624059 m 41.2689,-41.514647 4.5964,-4.62395 m 4.5628,-4.62417 4.5964,-4.62406 m 45.1894,-45.45855 0.6705,-0.68026 m 4.5975,-4.62406 4.5628,-4.62406 m 4.5964,-4.58999 2.8724,-2.89009 m -90.5139,77.21494 2.8054,-2.788 m 4.5975,-4.62395 4.5628,-4.62416 m 4.5964,-4.62406 4.5964,-4.58999 m 4.5628,-4.62406 1.9608,-1.93805 m 34.7453,-34.9865 4.5628,-4.62406 m 4.5964,-4.58999 4.5964,-4.62406 m -82.2664,68.95283 1.9943,-2.04003 m 4.5963,-4.62406 4.5975,-4.5901 m 4.5628,-4.62395 4.5964,-4.62406 m 4.5964,-4.62417 4.5628,-4.5901 m 22.9494,-23.08622 4.5964,-4.62406 m 4.5639,-4.62406 4.5964,-4.58999 m -66.483,53.07469 4.5629,-4.62406 m 4.5963,-4.62417 4.5975,-4.58999 m 4.5628,-4.62406 4.5964,-4.62406 m 4.5964,-4.62405 0.1081,-0.0649 m 10.7144,-10.77812 2.9742,-2.99207 m 4.5628,-4.62406 4.5964,-4.58999 m 4.5963,-4.62406 0.5732,-0.57752 m -71.6547,58.2767 4.5629,-4.62396 m 4.5974,-4.62405 4.5964,-4.62417 m 6.7593,-6.80004 2.3999,-2.41401 m 4.5974,-4.62406 4.5629,-4.62416 m 4.5964,-4.58989 4.5963,-4.62416 m 4.5629,-4.62406 4.5964,-4.62406 m 4.5974,-4.58999 2.8725,-2.89009 m -64.2854,50.83068 4.0891,-4.11413 m 22.9159,-23.05227 4.5964,-4.62405 m 4.5974,-4.62406 4.5629,-4.62406 m 4.5964,-4.58999 4.5963,-4.62406 m -29.8104,16.15014 4.5628,-4.62406 m 4.5964,-4.62406 4.5974,-4.58999 m -139.8594,126.923566 4.5628,-4.624058 m 107.1074,-107.781358 2.9752,-2.99207 m 4.5628,-4.62406 4.5964,-4.58999 m 4.5964,-4.62406 0.5732,-0.57752 m -143.475,130.527663 3.0412,-3.026035 m 4.5628,-4.623951 4.5975,-4.624058 m 100.2128,-100.845379 0.6705,-0.68026 m 4.5629,-4.62406 4.5963,-4.62406 m 4.5964,-4.58999 2.8736,-2.89009 m -143.4761,130.527666 0.7463,-0.713789 m 4.5628,-4.624059 4.5964,-4.62395 m 4.5964,-4.624166 0.638,-0.645656 m 100.2464,-100.879336 4.5628,-4.62406 m 4.5975,-4.58999 4.5963,-4.62406 m -139.893,126.923572 4.5964,-4.62395 m 4.5975,-4.624059 2.9395,-2.958117 m 97.9503,-98.567306 4.5628,-4.62406 m 4.5953,-4.62406 4.5964,-4.58999 m -129.1105,116.077539 3.0077,-3.026143 m 4.5628,-4.589991 4.5964,-4.624055 m 88.7565,-89.31919 2.9406,-2.99208 m 4.5963,-4.62406 4.5975,-4.58999 m 4.5964,-4.62406 0.5732,-0.57752 m -117.519,104.41541 4.5629,-4.62406 m 4.5963,-4.5901 4.5975,-4.62395 m 72.7016,-73.16905 0.6705,-0.68026 m 4.5629,-4.62406 4.5964,-4.62406 m 4.5963,-4.58999 2.8736,-2.89009 m -101.4652,88.26516 4.5628,-4.62406 m 4.5964,-4.62406 2.9752,-2.99208 m 17.2034,-17.30626 2.7373,-2.75393 m 41.2689,-41.5486 4.5964,-4.62406 m 4.5964,-4.58999 4.5628,-4.62406 m -90.1073,76.84096 0.7138,-0.68027 m 4.5629,-4.62395 4.5963,-4.62416 m 4.5975,-4.62406 0.6705,-0.68027 m 3.4468,-3.46804 0.4758,-0.44233 m 4.5629,-4.62395 4.5963,-4.62406 m 4.5964,-4.62417 0.876,-0.88358 m 26.633,-26.79231 4.5629,-4.62406 m 4.5974,-4.62406 4.5964,-4.58999 m -74.087,60.69072 3.0076,-3.02604 m 4.5629,-4.58999 4.5963,-4.62406 m 4.5975,-4.62417 3.1764,-3.23 m 25.9581,-26.0783 2.9406,-2.99208 m 4.5964,-4.62406 4.5963,-4.58999 m 4.5629,-4.62406 0.6056,-0.57752 m -62.4944,49.02869 4.5628,-4.62416 m 4.5964,-4.5901 4.5975,-4.62395 m 17.676,-17.78223 0.6705,-0.68026 m 4.5629,-4.62406 4.5974,-4.62406 m 4.5964,-4.58999 2.8724,-2.89009 m -46.4395,32.87844 4.5628,-4.62406 m 4.5964,-4.5901 2.9752,-2.99196 m 6.1851,-6.25615 4.5964,-4.62406 m 4.5963,-4.58999 4.5629,-4.62406 m -35.0828,21.45424 0.7138,-0.68026 m 4.5629,-4.62417 4.5963,-4.62406 m 4.5975,-4.62406 4.5964,-4.58999 m -28.1882,14.51816 2.9406,-2.99208 m 4.5963,-4.62406 4.5964,-4.58999 m 4.5628,-4.62406 0.6057,-0.57752 m -31.0618,17.40825 0.6381,-0.68026 m 4.5964,-4.62406 4.5964,-4.62406 m 4.5628,-4.58999 2.8736,-2.89009 m -28.0877,14.41617 4.5975,-4.62406 m 4.5964,-4.58999 4.5628,-4.62406 m -29.8094,16.15014 4.5953,-4.62406 m 4.5964,-4.62406 4.5629,-4.58999 m -28.1536,14.51815 2.9406,-2.99207 m 4.5974,-4.62406 4.5964,-4.58999 m 4.5617,-4.62406 0.5732,-0.57752 m -31.026,17.40824 0.6381,-0.68026 m 4.5963,-4.62406 4.5964,-4.62406 m 4.5629,-4.58999 2.8735,-2.89009 m -28.0876,14.41617 4.5964,-4.62406 m 4.5974,-4.58999 4.5629,-4.62406 m -29.8105,16.15014 4.5964,-4.62406 m 4.5964,-4.62406 4.5628,-4.58999 m -28.1547,14.51816 2.9406,-2.99208 m 4.5964,-4.62406 4.5628,-4.58999 m 4.5975,-4.62406 0.5732,-0.57752 m -31.0271,17.40825 0.638,-0.68027 m 4.5975,-4.62405 4.5964,-4.62406 m 4.5628,-4.58999 2.8725,-2.89009 m -28.0866,14.41617 4.5964,-4.62406 m 4.5629,-4.58999 4.5974,-4.62406 m -29.8115,16.15013 4.5974,-4.62405 m 4.5964,-4.62406 4.5629,-4.58999 m -28.1547,14.51815 2.9406,-2.99207 m 4.5964,-4.62406 4.5628,-4.58999 m 4.5964,-4.62406 0.5732,-0.57752 m -31.0282,17.40824 0.638,-0.68026 m 4.5964,-4.62406 4.5975,-4.62406 m 4.5628,-4.58999 2.8725,-2.89009 m -28.0866,14.41617 4.5964,-4.62406 m 4.5629,-4.58999 4.5963,-4.62406 m -29.8104,16.15014 4.5963,-4.62406 m 4.5629,-4.62406 4.5974,-4.58999 m -28.1882,14.51816 2.9753,-2.99208 m 4.5963,-4.62406 4.5618,-4.58999 m 4.5964,-4.62406 0.5732,-0.57752 m -31.0596,17.40825 0.6705,-0.68027 m 4.5964,-4.62406 4.5628,-4.62405 m 4.5964,-4.58999 2.8735,-2.8901 m -28.0876,14.41617 4.5975,-4.62405 m 4.5628,-4.59 4.5964,-4.62405 m -29.8105,16.15013 4.5964,-4.62406 m 4.5629,-4.62405 4.5963,-4.58999 m -28.1882,14.51815 2.9742,-2.99208 m 4.5974,-4.62405 4.5629,-4.59 m 4.5963,-4.62405 0.5732,-0.57752 m -30.9936,17.34021 0.6057,-0.61212 m 4.5963,-4.62406 4.5629,-4.62406 m 4.5964,-4.58999 2.8735,-2.89009 m -18.9273,5.20212 4.5963,-4.62406"
       id="path2" />
  </g>
</svg>
