<?xml version="1.0" encoding="UTF-8" standalone="no"?>
<!-- Created with Inkscape (http://www.inkscape.org/) -->

<svg
   width="749.99988mm"
   height="150.92087mm"
   viewBox="0 0 749.99987 150.92087"
   version="1.1"
   id="svg1"
   xmlns="http://www.w3.org/2000/svg"
   xmlns:svg="http://www.w3.org/2000/svg">
  <defs
     id="defs1" />
  <g
     id="layer1"
     transform="translate(-1052.967,248.99831)">
    <path
       style="fill:none;stroke:#000000;stroke-width:6.12637px;stroke-linecap:round;stroke-linejoin:round;stroke-miterlimit:4;stroke-dasharray:none;stroke-opacity:1"
       d="m 1799.8724,-112.71489 v -127.43118 m 0,0 v -0.61193 m 0,0 -0.1163,-0.58632 m 0,0 -0.1745,-0.58633 m 0,0 -0.1978,-0.56074 m 0,0 -0.2792,-0.53514 m 0,0 -0.3258,-0.50955 m 0,0 -0.3839,-0.48512 m 0,0 -0.4304,-0.43393 m 0,0 -0.4537,-0.38274 m 0,0 -0.5119,-0.33155 m 0,0 -0.5584,-0.25478 m 0,0 -0.5584,-0.22918 m 0,0 -0.5933,-0.1524 m 0,0 -0.5933,-0.1047 m 0,0 -0.6166,-0.0233 m 0,0 H 1416.184 m 0,0 -0.6166,0.0233 m 0,0 -0.6166,0.1047 m 0,0 -0.5816,0.1524 m 0,0 -0.5584,0.22918 m 0,0 -0.5352,0.25478 m 0,0 -0.5119,0.33155 m 0,0 -0.4886,0.38274 m 0,0 -0.4071,0.43393 m 0,0 -0.384,0.48512 m 0,0 -0.3373,0.50955 m 0,0 -0.2792,0.53514 m 0,0 -0.2327,0.56074 m 0,0 -0.1512,0.58633 m 0,0 -0.1164,0.58632 m 0,0 v 0.61193 m 0,0 v 12.74823 m 0,0 v 0.61193 m 0,0 0.1164,0.58633 m 0,0 0.1512,0.58633 m 0,0 0.2327,0.56073 m 0,0 0.2792,0.53514 m 0,0 0.3373,0.50955 m 0,0 0.384,0.48395 m 0,0 0.4071,0.43394 m 0,0 0.4886,0.38274 m 0,0 0.5119,0.33155 m 0,0 0.5352,0.25478 m 0,0 0.5584,0.22918 m 0,0 0.5816,0.1524 m 0,0 0.6166,0.1047 m 0,0 0.6166,0.0233 m 0,0 h 21.5185 m 0,0 v 5.78768 m 0,0 h -2.3232 m 0,0 v 68.35597 m 0,0 h 2.3232 m 0,0 v 5.78767 m 0,0 h -98.7627 m 0,0 -23.1263,-99.7675 m 0,0 -0.1279,-0.48396 m 0,0 -0.2095,-0.56073 m 0,0 -0.2792,-0.53514 m 0,0 -0.3257,-0.50955 m 0,0 -0.3839,-0.48512 m 0,0 -0.4304,-0.43393 m 0,0 -0.4886,-0.38274 m 0,0 -0.5119,-0.33156 m 0,0 -0.5352,-0.25477 m 0,0 -0.5584,-0.22918 m 0,0 -0.5816,-0.1524 m 0,0 -0.6166,-0.1047 m 0,0 -0.5933,-0.0233 m 0,0 h -4.7733 m 0,0 -0.6165,0.0233 m 0,0 -0.6166,0.1047 m 0,0 -0.5933,0.1524 m 0,0 -0.5584,0.22918 m 0,0 -0.5352,0.25477 m 0,0 -0.5118,0.33156 m 0,0 -0.4887,0.38274 m 0,0 -0.4304,0.43393 m 0,0 -0.3839,0.48512 m 0,0 -0.3257,0.50955 m 0,0 -0.256,0.53514 m 0,0 -0.2326,0.56073 m 0,0 -0.1513,0.58633 m 0,0 -0.1163,0.58633 m 0,0 v 0.61192 m 0,0 v 0.61193 m 0,0 0.1163,0.58633 m 0,0 v 0.1047 m 0,0 19.7828,85.4385 m 0,0 v 0.1047 m 0,0 0.1163,0.58633 m 0,0 v 0.61192 m 0,0 v 0.61193 m 0,0 -0.1163,0.58633 m 0,0 -0.1512,0.58632 m 0,0 -0.2327,0.56074 m 0,0 -0.2792,0.53514 m 0,0 -0.3374,0.50955 m 0,0 -0.3839,0.48395 m 0,0 -0.4072,0.43393 m 0,0 -0.4886,0.38275 m 0,0 -0.5118,0.33155 m 0,0 -0.5352,0.25478 m 0,0 -0.5584,0.22918 m 0,0 -0.5933,0.15239 m 0,0 -0.6166,0.10471 m 0,0 -0.6166,0.0233 m 0,0 h -16.8476 m 0,0 -0.6166,-0.0233 m 0,0 -0.5933,-0.10471 m 0,0 -0.5817,-0.15239 m 0,0 -0.5584,-0.22918 m 0,0 -0.5584,-0.25478 m 0,0 -0.5119,-0.33155 m 0,0 -0.4653,-0.38275 m 0,0 -0.4304,-0.43393 m 0,0 -0.3839,-0.48395 m 0,0 -0.3374,-0.50955 m 0,0 -0.2792,-0.53514 m 0,0 -0.1978,-0.56074 m 0,0 v -0.1047 m 0,0 -28.0286,-91.40475 m 0,0 v -0.1047 m 0,0 -0.2327,-0.56073 m 0,0 -0.2792,-0.53515 m 0,0 -0.3257,-0.50954 m 0,0 -0.3839,-0.48512 m 0,0 -0.4305,-0.43393 m 0,0 -0.4537,-0.38274 m 0,0 -0.5119,-0.33156 m 0,0 -0.5351,-0.25477 m 0,0 -0.5817,-0.22918 m 0,0 -0.5933,-0.1524 m 0,0 -0.5933,-0.1047 m 0,0 -0.6166,-0.0233 m 0,0 h -195.9933 m 0,0 -0.6165,0.0233 m 0,0 -0.5933,0.1047 m 0,0 -0.5817,0.1524 m 0,0 -0.5817,0.22918 m 0,0 -0.5351,0.25477 m 0,0 -0.5119,0.33156 m 0,0 -0.4654,0.38274 m 0,0 -0.4304,0.43393 m 0,0 -0.3839,0.48512 m 0,0 -0.3374,0.50954 m 0,0 -0.2792,0.53515 m 0,0 -0.2327,0.56073 m 0,0 -0.1512,0.58633 m 0,0 -0.1163,0.58633 m 0,0 v 0.61192 m 0,0 v 127.43119 m 0,0 v 0.58632 m 0,0 0.1163,0.61193 m 0,0 0.1512,0.58633 m 0,0 0.2327,0.56073 m 0,0 0.2792,0.53514 m 0,0 0.3374,0.50955 m 0,0 0.3839,0.48396 m 0,0 0.4304,0.40833 m 0,0 0.4654,0.38274 m 0,0 0.5119,0.33156 m 0,0 0.5351,0.28037 m 0,0 0.5817,0.22918 m 0,0 0.5817,0.1524 m 0,0 0.5933,0.0814 m 0,0 0.6165,0.0465 m 0,0 h 44.1609 m 0,0 0.6165,-0.0465 m 0,0 0.5817,-0.0814 m 0,0 0.5817,-0.1524 m 0,0 0.5933,-0.22918 m 0,0 0.5351,-0.28037 m 0,0 0.5119,-0.33156 m 0,0 0.4653,-0.38274 m 0,0 0.4305,-0.40833 m 0,0 0.3839,-0.48396 m 0,0 0.3374,-0.50955 m 0,0 0.2792,-0.53514 m 0,0 0.2326,-0.56073 m 0,0 0.1513,-0.58633 m 0,0 0.1163,-0.61193 m 0,0 v -0.58632 m 0,0 v -4.64038 m 0,0 v -0.61192 m 0,0 -0.1163,-0.58633 m 0,0 -0.1513,-0.58633 m 0,0 -0.2326,-0.58633 m 0,0 -0.2792,-0.53514 m 0,0 -0.3374,-0.50955 m 0,0 -0.3839,-0.45836 m 0,0 -0.4305,-0.43393 m 0,0 -0.4653,-0.38274 m 0,0 -0.5119,-0.33156 m 0,0 -0.5351,-0.28037 m 0,0 -0.5933,-0.20358 m 0,0 -0.5817,-0.1524 m 0,0 -0.5817,-0.1047 m 0,0 -0.6165,-0.0233 m 0,0 h -33.6954 m 0,0 v -60.24811 m 0,0 h 20.9066 m 0,0 0.3607,-0.0233 m 0,0 0.3606,-0.0814 m 0,0 0.3606,-0.15356 m 0,0 0.3025,-0.17799 m 0,0 0.2792,-0.22918 m 0,0 0.2327,-0.28037 m 0,0 0.1745,-0.30596 m 0,0 0.1512,-0.35715 m 0,0 0.1164,-0.33156 m 0,0 v -0.38274 m 0,0 v -11.57535 m 0,0 v -0.35714 m 0,0 -0.1164,-0.35715 m 0,0 -0.1512,-0.33156 m 0,0 -0.1745,-0.30596 m 0,0 -0.2327,-0.28037 m 0,0 -0.2792,-0.22918 m 0,0 -0.3025,-0.20358 m 0,0 -0.3606,-0.12797 m 0,0 -0.3606,-0.10471 m 0,0 -0.3607,-0.0233 m 0,0 h -20.9066 m 0,0 v -27.79107 m 0,0 h 167.0468 m 0,0 8.5507,27.79107 m 0,0 h -28.0019 m 0,0 -0.3606,0.0233 m 0,0 -0.3607,0.10471 m 0,0 -0.3374,0.12797 m 0,0 -0.3024,0.20358 m 0,0 -0.2792,0.22918 m 0,0 -0.2327,0.28037 m 0,0 -0.2094,0.30596 m 0,0 -0.128,0.33156 m 0,0 -0.1163,0.35715 m 0,0 v 0.35714 m 0,0 v 11.57535 m 0,0 v 0.38274 m 0,0 0.1163,0.33156 m 0,0 0.128,0.35715 m 0,0 0.2094,0.30596 m 0,0 0.2327,0.28037 m 0,0 0.2792,0.22918 m 0,0 0.3024,0.17799 m 0,0 0.3374,0.15356 m 0,0 0.3607,0.0814 m 0,0 0.3606,0.0233 m 0,0 h 20.931 m 0,0 v 25.49648 m 0,0 h 19.8596 m 0,0 7.0964,23.15069 m 0,0 h -26.956 m 0,0 v 11.60094 m 0,0 h -25.5774 m 0,0 -0.6166,0.0233 m 0,0 -0.5817,0.1047 m 0,0 -0.5933,0.1524 m 0,0 -0.5933,0.20358 m 0,0 -0.5351,0.28037 m 0,0 -0.5119,0.33156 m 0,0 -0.4654,0.38274 m 0,0 -0.4304,0.43393 m 0,0 -0.3839,0.45836 m 0,0 -0.3374,0.50955 m 0,0 -0.2792,0.53514 m 0,0 -0.2094,0.58633 m 0,0 -0.1745,0.58633 m 0,0 -0.1163,0.58633 m 0,0 v 0.61192 m 0,0 v 4.64038 m 0,0 v 0.58632 m 0,0 0.1163,0.61193 m 0,0 0.1745,0.58633 m 0,0 0.2094,0.56073 m 0,0 0.2792,0.53514 m 0,0 0.3374,0.50955 m 0,0 0.3839,0.48396 m 0,0 0.4304,0.40833 m 0,0 0.4654,0.38274 m 0,0 0.5119,0.33156 m 0,0 0.5351,0.28037 m 0,0 0.5933,0.22918 m 0,0 0.5933,0.1524 m 0,0 0.5817,0.0814 m 0,0 0.6166,0.0465 m 0,0 h 117.1413 m 0,0 0.5584,-0.0465 m 0,0 0.6166,-0.0814 m 0,0 0.5817,-0.1524 m 0,0 0.5584,-0.22918 m 0,0 0.5351,-0.28037 m 0,0 0.5119,-0.33156 m 0,0 0.4886,-0.38274 m 0,0 0.4072,-0.40833 m 0,0 0.3839,-0.48396 m 0,0 0.3374,-0.50955 m 0,0 0.2792,-0.53514 m 0,0 0.2326,-0.56073 m 0,0 0.1513,-0.58633 m 0,0 0.1163,-0.61193 m 0,0 v -0.58632 m 0,0 v -0.58633 m 0,0 v -0.58633 m 0,0 v -0.61193 m 0,0 0.1163,-0.58633 m 0,0 0.1513,-0.58632 m 0,0 0.2094,-0.56074 m 0,0 0.2792,-0.53514 m 0,0 0.3374,-0.50955 m 0,0 0.3839,-0.48395 m 0,0 0.4304,-0.43393 m 0,0 0.4653,-0.38275 m 0,0 0.5119,-0.33155 m 0,0 0.5584,-0.25477 m 0,0 0.5584,-0.22919 m 0,0 0.5933,-0.15239 m 0,0 0.5817,-0.10471 m 0,0 0.6166,-0.0233 m 0,0 h 159.592 m 0,0 0.6166,0.0233 m 0,0 0.5817,0.10471 m 0,0 0.5933,0.15239 m 0,0 0.5933,0.22919 m 0,0 0.5351,0.25477 m 0,0 0.5119,0.33155 m 0,0 0.4654,0.38275 m 0,0 0.4304,0.43393 m 0,0 0.3839,0.48395 m 0,0 0.3374,0.50955 m 0,0 0.2792,0.53514 m 0,0 0.2094,0.56074 m 0,0 0.1745,0.58632 m 0,0 0.1163,0.58633 m 0,0 v 0.61193 m 0,0 v 6.96056 m 0,0 v 0.58633 m 0,0 0.1163,0.61192 m 0,0 0.1513,0.58633 m 0,0 0.2094,0.56074 m 0,0 0.2792,0.53514 m 0,0 0.3257,0.50955 m 0,0 0.3839,0.48511 m 0,0 0.4305,0.43393 m 0,0 0.4537,0.35715 m 0,0 0.5119,0.33156 m 0,0 0.5584,0.28037 m 0,0 0.5584,0.22918 m 0,0 0.5817,0.1524 m 0,0 0.5933,0.1047 m 0,0 0.6165,0.0233 m 0,0 0.6166,-0.0233 m 0,0 0.6166,-0.1047 m 0,0 0.5933,-0.1524 m 0,0 0.5584,-0.22918 m 0,0 0.5351,-0.28037 m 0,0 0.5119,-0.33156 m 0,0 0.4886,-0.35715 m 0,0 0.4072,-0.43393 m 0,0 0.3839,-0.48511 m 0,0 0.3257,-0.50955 m 0,0 0.2793,-0.53514 m 0,0 0.2326,-0.56074 m 0,0 0.1513,-0.58633 m 0,0 0.1163,-0.61192 m 0,0 v -0.58633 m 0,0 v -0.20359 m 0,0 v -28.96384 m 0,0 v -0.40833 m 0,0 -0.1163,-0.58633 m 0,0 -0.1513,-0.58633 m 0,0 -0.2326,-0.56074 m 0,0 -0.2793,-0.56073 m 0,0 -0.3257,-0.50955 m 0,0 -0.3839,-0.45836 m 0,0 -0.4072,-0.43393 m 0,0 -0.4886,-0.38274 m 0,0 -0.5119,-0.33156 m 0,0 -0.5351,-0.28037 m 0,0 -0.5584,-0.20358 m 0,0 -0.5933,-0.1524 m 0,0 -0.6166,-0.1047 m 0,0 -0.6166,-0.0233 m 0,0 h -65.7817 m 0,0 v -79.93132 m 0,0 h 71.602 m 0,0 v -5.78767 m 0,0 h 262.5917 m 0,0 v 64.86289 m 0,0 h -54.1424 m 0,0 v -11.57535 m 0,0 h -13.937 m 0,0 -0.3606,0.0233 m 0,0 -0.3606,0.0814 m 0,0 -0.3258,0.15356 m 0,0 -0.3025,0.17799 m 0,0 -0.2792,0.22918 m 0,0 -0.2559,0.28037 m 0,0 -0.1745,0.30596 m 0,0 -0.1512,0.35715 m 0,0 -0.1164,0.33155 m 0,0 v 0.38275 m 0,0 v 59.07521 m 0,0 v 0.58633 m 0,0 0.1164,0.61192 m 0,0 0.1512,0.58633 m 0,0 0.2327,0.56074 m 0,0 0.2559,0.53514 m 0,0 0.3374,0.50955 m 0,0 0.3839,0.48395 m 0,0 0.4304,0.40834 m 0,0 0.4886,0.38274 m 0,0 0.5119,0.33156 m 0,0 0.5352,0.28036 m 0,0 0.5584,0.22918 m 0,0 0.5816,0.1524 m 0,0 0.6166,0.0814 m 0,0 0.6166,0.0465 m 0,0 h 11.0274 m 0,0 0.6166,-0.0465 m 0,0 0.6165,-0.0814 m 0,0 0.5817,-0.1524 m 0,0 0.5584,-0.22918 m 0,0 0.5352,-0.28036 m 0,0 0.5118,-0.33156 m 0,0 0.4887,-0.38274 m 0,0 0.4071,-0.40834 m 0,0 0.3839,-0.48395 m 0,0 0.3374,-0.50955 m 0,0 0.2792,-0.53514 m 0,0 0.2327,-0.56074 m 0,0 0.1512,-0.58633 m 0,0 0.1164,-0.61192 m 0,0 v -0.58633 m 0,0 v -4.64037 m 0,0 v -0.61193 m 0,0 -0.1164,-0.58633 m 0,0 -0.1512,-0.58632 m 0,0 -0.2327,-0.58633 m 0,0 -0.2792,-0.53515 m 0,0 -0.3374,-0.50954 m 0,0 -0.3839,-0.45836 m 0,0 -0.4071,-0.43393 m 0,0 -0.4887,-0.38275 m 0,0 -0.5118,-0.33155 m 0,0 -0.5352,-0.28037 m 0,0 -0.5584,-0.20359 m 0,0 -0.5817,-0.15239 m 0,0 -0.6165,-0.10471 m 0,0 -0.6166,-0.0233 m 0,0 h -4.0589 m 0,0 -0.3607,-0.0233 m 0,0 -0.3606,-0.1047 m 0,0 -0.3607,-0.12797 m 0,0 -0.3024,-0.20359 m 0,0 -0.2792,-0.22918 m 0,0 -0.2327,-0.28037 m 0,0 -0.1745,-0.30596 m 0,0 -0.1512,-0.33155 m 0,0 -0.1164,-0.35715 m 0,0 v -0.35715 m 0,0 v -17.38861 m 0,0 v -0.58633 m 0,0 0.1164,-0.61192 m 0,0 0.1512,-0.58633 m 0,0 0.1978,-0.56074 m 0,0 0.2792,-0.53514 m 0,0 0.3373,-0.50955 m 0,0 0.3839,-0.48512 m 0,0 0.4305,-0.40833 m 0,0 0.4886,-0.38275 m 0,0 0.5119,-0.33155 m 0,0 0.5351,-0.28037 m 0,0 0.5584,-0.22918 m 0,0 0.5933,-0.1524 m 0,0 0.6166,-0.1047 m 0,0 0.5933,-0.0233 m 0,0 h 48.3477 m 0,0 0.6166,0.0233 m 0,0 0.5933,0.1047 m 0,0 0.5817,0.1524 m 0,0 0.5584,0.22918 m 0,0 0.5584,0.28037 m 0,0 0.5119,0.33155 m 0,0 0.4653,0.38275 m 0,0 0.4305,0.40833 m 0,0 0.3839,0.48512 m 0,0 0.3373,0.50955 m 0,0 0.2793,0.53514 m 0,0 0.1977,0.56074 m 0,0 0.1513,0.58633 m 0,0 0.1163,0.61192 m 0,0 v 0.58633 m 0,0 v 17.38861 m 0,0 v 0.35715 m 0,0 -0.1163,0.35715 m 0,0 -0.1513,0.33155 m 0,0 -0.1745,0.30596 m 0,0 -0.2327,0.28037 m 0,0 -0.2792,0.22918 m 0,0 -0.3024,0.20359 m 0,0 -0.3607,0.12797 m 0,0 -0.3257,0.1047 m 0,0 -0.3839,0.0233 m 0,0 h -10.5423 m 0,0 -0.6166,0.0233 m 0,0 -0.6166,0.10471 m 0,0 -0.5816,0.15239 m 0,0 -0.5584,0.20359 m 0,0 -0.5352,0.28037 m 0,0 -0.5119,0.33155 m 0,0 -0.4886,0.38275 m 0,0 -0.4071,0.43393 m 0,0 -0.3839,0.45836 m 0,0 -0.3258,0.50954 m 0,0 -0.2792,0.53515 m 0,0 v 0.1524 m 0,0 -0.2327,1.19825 m 0,0 -0.1163,0.43393 m 0,0 v 0.61192 m 0,0 v 4.46192 m 0,0 v 0.17799 m 0,0 v 0.58633 m 0,0 0.1163,0.63752 m 0,0 0.1513,0.53514 m 0,0 0.2327,0.56073 m 0,0 0.2559,0.53514 m 0,0 0.3374,0.50955 m 0,0 0.3839,0.48396 m 0,0 0.4304,0.40833 m 0,0 0.4886,0.38275 m 0,0 0.5119,0.33155 m 0,0 0.5351,0.28037 m 0,0 0.5584,0.22918 m 0,0 0.5817,0.1524 m 0,0 0.6166,0.1047 m 0,0 0.6166,0.0233 m 0,0 h 0.1163 m 0,0 h 23.1786 m 0,0 0.6166,-0.0465 m 0,0 0.5933,-0.0814 m 0,0 0.5933,-0.1524 m 0,0 0.5584,-0.22918 m 0,0 0.5584,-0.28037 m 0,0 0.5119,-0.33155 m 0,0 0.4537,-0.38275 m 0,0 0.4305,-0.40833 m 0,0 0.3839,-0.48396 m 0,0 0.3257,-0.50955 m 0,0 0.2792,-0.53514 m 0,0 0.1978,-0.56073 m 0,0 0.1745,-0.58633 m 0,0 0.1163,-0.61192 m 0,0 v -0.58633"
       id="path1" />
    <path
       style="fill:none;stroke:#000000;stroke-width:0.0255266px;stroke-linecap:round;stroke-linejoin:round;stroke-miterlimit:4;stroke-dasharray:none;stroke-opacity:1"
       d="m 1056.079,-111.92451 0.256,0.25478 m 2.4756,-12.2893 4.9268,4.92086 m 4.9268,4.89527 4.9268,4.92086 m -17.256,-31.94703 4.9256,4.92086 m 4.9268,4.92075 4.9524,4.89538 m 4.9268,4.92074 4.9268,4.92086 m 4.9268,4.92075 4.7732,4.7424 m -34.6655,-49.28457 2.7827,2.75354 m 4.9268,4.92086 4.9268,4.92074 m 24.6584,24.57859 4.9268,4.89527 m 4.9268,4.92086 2.2964,2.29471 m -49.4447,-64.02156 0.3024,0.30597 m 4.9257,4.92086 4.9267,4.89526 m 4.9524,4.92086 1.1739,1.17278 m 31.6792,31.59011 1.6589,1.63171 m 4.9268,4.92086 1.2506,1.24933 m -53.0186,-67.59107 4.9268,4.92086 m 4.9268,4.89527 3.6495,3.64606 m -15.9787,-30.67223 4.9257,4.92075 m 4.9267,4.92086 4.9524,4.92074 m -15.1119,-29.8053 2.7827,2.75366 m 4.9268,4.92086 4.9268,4.92074 m 4.9268,4.92086 4.9256,4.89527 m 4.9524,4.92086 4.4673,4.4618 m -31.9084,-46.53091 0.3025,0.30596 m 4.9256,4.92074 4.9268,4.89538 m 4.9524,4.92075 1.1738,1.17289 m 18.5334,18.48484 4.6964,4.69133 m -36.7328,-51.37523 4.9268,4.92086 m 4.9268,4.89527 4.6964,4.69133 m -3.803,-18.53591 1.5822,1.58076 m 4.9268,4.89538 4.9268,4.92075 m 4.9268,4.92086 2.2208,2.21816 m -3.8042,-18.53591 4.059,4.02845 m 4.9268,4.92086 4.9268,4.89527 m 113.4139,113.05111 4.9268,4.89527 m 4.9268,4.92086 2.2976,2.29471 m -123.0895,-137.42577 4.9268,4.89538 m 4.9268,4.92075 4.9267,4.92086 m 106.8283,106.47306 1.6589,1.63171 m 4.9268,4.92086 4.9268,4.92075 m -115.8651,-130.23568 4.9268,4.92086 m 4.9267,4.89527 4.6965,4.69133 m 104.6086,104.2549 4.1089,4.10488 m 4.9268,4.89527 4.9524,4.92086 m -122.3997,-136.71182 1.5822,1.58076 m 4.9268,4.89538 4.9267,4.92075 m 4.9268,4.92086 2.2465,2.21816 m 96.3883,96.07049 4.9268,4.89538 m 4.9256,4.92074 4.9268,4.92086 m 4.9268,4.92075 4.7732,4.7424 m -124.6717,-139.00653 4.0333,4.02845 m 4.9268,4.92086 4.9268,4.89527 m 97.6901,97.34529 0.9424,0.94347 m 4.9267,4.92086 4.9268,4.92075 m 4.9257,4.92086 4.9268,4.89526 m 4.9524,4.92086 2.272,2.29471 m -123.0896,-137.42576 4.9268,4.89538 m 4.9268,4.92074 4.9268,4.92086 m 44.39,44.23621 2.0172,1.98875 m 19.7572,19.7088 2.8852,2.85556 m 24.6584,24.57859 4.9267,4.92074 m 4.9268,4.89539 4.9257,4.92074 m 4.9268,4.92086 4.9523,4.92074 m -115.8907,-130.23567 4.9268,4.92086 m 4.9268,4.89526 4.6964,4.69133 m 27.9263,27.81655 1.8893,1.91232 m 4.9524,4.89526 4.9268,4.92086 m 9.444,9.40814 0.4072,0.43393 m 4.9268,4.89527 4.9524,4.92086 m 4.9268,4.92074 4.9268,4.92086 m 4.9268,4.89527 4.9256,4.92086 m 4.9268,4.92074 4.9524,4.92086 m 4.9268,4.89527 4.9268,4.92086 m 4.9268,4.92074 4.9256,4.92086 m 4.9268,4.89527 4.9524,4.92086 m -122.3997,-136.71182 1.5821,1.58076 m 4.9268,4.89538 4.9268,4.92075 m 4.9268,4.92086 2.2465,2.21816 m 27.875,27.79107 4.4161,4.38537 m 4.9268,4.92086 4.9268,4.92074 m 4.9256,4.89538 4.9268,4.92075 m 4.9268,4.92086 4.9524,4.92086 m 4.9268,4.89526 4.9268,4.92086 m 4.9256,4.92075 4.9268,4.92086 m 4.9524,4.89526 4.9268,4.92086 m 4.9268,4.92075 4.9268,4.89538 m 4.9268,4.92074 4.9256,4.92086 m 4.9524,4.92075 4.7476,4.7424 m -124.6705,-139.00653 4.0321,4.02845 m 4.9268,4.92086 4.9268,4.89527 m 34.5376,34.42019 4.9268,4.89527 m 4.9268,4.92086 4.9268,4.92074 m 4.9256,4.92086 4.9268,4.89527 m 4.9524,4.92086 4.9268,4.92074 m 17,16.95515 2.706,2.70258 m 4.9524,4.92086 4.9268,4.89527 m 4.9268,4.92086 4.9268,4.92074 m 4.9267,4.92086 4.9257,4.89527 m -115.8652,-130.2102 4.9268,4.89538 m 4.9268,4.92075 4.9268,4.92086 m 6.9685,6.93497 2.9107,2.88115 m 4.9268,4.92075 4.9256,4.92086 m 4.9268,4.92074 4.9268,4.89538 m 4.9524,4.92075 4.9268,4.92086 m 4.9268,4.92074 3.5738,3.54404 m 35.8638,35.77154 4.9524,4.89526 m 4.9268,4.92086 4.9268,4.92075 m 4.9268,4.89538 4.9267,4.92074 m -106.0127,-120.39407 4.9268,4.92086 m 4.9268,4.89527 4.9524,4.92086 m 4.9268,4.92074 4.9268,4.92086 m 4.9268,4.89527 4.9256,4.92086 m 46.9947,46.83687 2.3233,2.32019 m 4.9268,4.89527 4.9267,4.92086 m 4.9257,4.92074 4.9524,4.92086 m 4.9268,4.89527 4.9268,4.92086 m 4.9267,4.92074 4.3138,4.28346 m -111.9086,-126.25829 1.5833,1.58076 m 4.9256,4.89538 4.9268,4.92075 m 4.9268,4.92086 4.9524,4.92074 m 45.0031,44.84824 4.2881,4.28335 m 4.9524,4.92086 4.9268,4.92086 m 4.9268,4.89526 2.6291,2.62615 m 17.1025,17.03158 4.9268,4.92086 m 4.9267,4.92075 4.9268,4.89538 m 4.9268,4.92074 1.8381,1.83577 m -63.4596,-77.99352 4.9268,4.89527 m 4.9268,4.92086 4.9268,4.92074 m 4.9267,4.92086 0.6632,0.63752 m 38.8001,38.67806 4.9267,4.89527 m 4.9268,4.92086 4.9268,4.92074 m -76.4263,-90.92022 4.9268,4.92086 m 4.9256,4.92075 4.9524,4.89538 m 58.6352,58.46329 0.5352,0.50955 m 4.9267,4.92086 4.9268,4.92075 m 4.9268,4.89538 4.9268,4.92074 m -101.4431,-115.83024 0.3607,0.35715 m 4.9268,4.89526 4.9524,4.92086 m 4.9268,4.92075 4.9268,4.92086 m 75.9156,75.64785 2.9863,2.98307 m 4.9268,4.89526 4.9268,4.92086 m 4.9268,4.92075 4.3137,4.28346 m -111.9086,-126.2583 1.5834,1.58077 m 4.9267,4.89538 4.5941,4.5893 m 94.0395,93.69935 4.9268,4.92086 m 4.9268,4.92074 4.9268,4.89538 m 4.9268,4.92075 1.8381,1.83577 m -4.2893,-19.02033 4.9268,4.89526 m 4.9268,4.92086 4.9268,4.92075 m -5.7179,-20.44811 3.2679,3.23807 m 4.9256,4.92086 4.9268,4.92074 m 4.9268,4.89538 4.9268,4.92075 m -25.2971,-39.95286 3.1143,3.11057 m 4.9268,4.89526 4.9268,4.92086 m 6.8917,6.85854 2.9863,2.98307 m 4.9268,4.89526 4.9268,4.92086 m 4.9268,4.92075 4.3137,4.28346 m -41.94,-56.52562 0.6631,0.63752 m 4.9268,4.92086 4.9256,4.92086 m 24.6596,24.55299 4.9256,4.92086 m 4.9268,4.92075 4.9268,4.89538 m 4.9268,4.92074 1.8381,1.83577 m -53.6061,-68.17739 4.9268,4.92074 m 4.9268,4.92086 1.0005,0.96907 m 38.4686,38.34663 4.9256,4.89526 m 4.9268,4.92086 4.9268,4.92075 m 4.9524,4.92086 4.9267,4.89526 m 4.9268,4.92086 3.4203,3.41653 m -110.4532,-124.83051 1.0237,1.02026 m 4.9268,4.92074 3.1143,3.0851 m 16.6185,16.57263 4.9268,4.89539 m 4.9256,4.92074 3.447,3.41653 m 50.2614,50.12602 0.5352,0.50955 m 4.9268,4.92086 4.9256,4.92074 m 4.9268,4.89538 4.9524,4.92075 m -106.0372,-120.39407 4.9268,4.92086 m 4.9524,4.89526 4.9256,4.92086 m 4.9268,4.92075 0.6399,0.63751 m 3.497,3.49308 0.7911,0.78992 m 4.9268,4.89526 4.9268,4.92086 m 66.062,65.83173 2.9875,2.98307 m -92.7889,-107.23797 1.5566,1.58077 m 4.9268,4.89538 4.9524,4.92074 m 4.9268,4.92086 4.9256,4.92075 m -6.509,-21.2385 4.0334,4.02846 m 4.9268,4.92086 4.9524,4.89526 m 4.9256,4.92086 4.9268,4.92075 m -7.4024,-22.10542 4.9268,4.89538 m 4.9524,4.92074 4.9268,4.92086 m 4.9256,4.92075 3.1143,3.08509 m -5.5899,-20.29513 4.9524,4.92086 m 4.9267,4.89526 4.9268,4.92086 m 4.9257,4.92075 0.6398,0.63751 m -9.5976,-24.32358 1.5565,1.58076 m 4.9268,4.89538 4.9524,4.92075 m 4.9268,4.92086 4.9268,4.92074 m -6.5101,-21.23849 4.0333,4.02845 m 4.9524,4.92086 4.9268,4.89527 m 4.9268,4.92086 3.5482,3.54392 m -6.025,-20.7286 4.9524,4.89538 m 4.9268,4.92075 4.9268,4.92086 m 2.45,-12.2893 4.9524,4.92086 m 4.9268,4.89527 4.6964,4.69133 m -3.803,-18.53591 1.5566,1.58076 m 4.9524,4.89538 4.9268,4.92075 m 4.9268,4.92086 2.2208,2.21816 m -3.8041,-18.53591 4.0589,4.02845 m 4.9268,4.92086 4.9268,4.89527 m 2.45,-12.26382 4.9524,4.89538 m 4.9268,4.92075 4.9268,4.92086 m 2.4756,-12.2893 4.9268,4.92086 m 4.9268,4.89527 4.6964,4.69133 m 107.2122,106.85545 1.5053,1.50433 m 4.9268,4.89527 4.9268,4.92086 m -122.3741,-136.71182 1.5566,1.58076 m 4.9524,4.89538 4.9268,4.92075 m 4.9268,4.92086 2.2208,2.21816 m 96.3883,96.07049 4.9524,4.89538 m 4.9268,4.92074 4.9256,4.92086 m -114.9961,-129.34338 4.0578,4.02845 m 4.9268,4.92086 4.9268,4.89527 m 83.8287,83.55178 4.9268,4.92074 m -86.2799,-100.73634 4.9268,4.89538 m 4.9268,4.92075 4.9267,4.92086 m 65.0675,64.83741 3.9565,3.9519 m 4.9524,4.92086 4.9268,4.92075 m 38.009,37.88768 1.4286,1.42778 m -115.8651,-130.23568 4.9268,4.92086 m 4.9267,4.89527 4.6977,4.69133 m 54.4727,54.28186 4.9268,4.92086 m 5.6923,5.66017 4.1869,4.18143 m 4.9268,4.89527 4.8244,4.81883 m 25.6286,25.54743 4.059,4.05393 m 4.9256,4.89527 4.9268,4.92086 m -122.3741,-136.71182 1.5833,1.58076 m 4.9257,4.89538 4.9267,4.92075 m 4.9268,4.92086 2.2209,2.21816 m 66.8287,66.57115 4.9268,4.92086 m 4.9268,4.92075 2.3732,2.34566 m 27.212,27.12819 4.9268,4.92086 m 4.9256,4.92075 2.6047,2.57519 m -122.5276,-136.83932 4.0589,4.02845 m 4.9256,4.92086 4.9268,4.89527 m 73.9764,73.73565 4.9268,4.89527 m 14.7792,14.76246 4.9524,4.89527 m 4.9268,4.92086 4.9268,4.92074 m -106.0116,-120.39407 4.9256,4.89538 m 4.9268,4.92075 4.9268,4.92086 m 67.3139,67.08105 1.7357,1.70826 m 4.9268,4.92086 4.9268,4.92075 m 4.9268,4.92086 4.9256,4.89526 m -86.2788,-100.73634 4.9256,4.92086 m 4.9268,4.89527 4.6976,4.69133 m 59.2728,59.07522 0.128,0.12796 m 4.9523,4.92075 4.9268,4.92086 m 4.9268,4.89526 1.4042,1.42779 m -79.4139,-93.90328 1.5834,1.58076 m 4.9268,4.89538 4.9256,4.92074 m 4.9268,4.92086 2.2208,2.21817 m 47.0971,46.91342 4.9268,4.92074 m 4.9257,4.92086 3.8809,3.87548 m -64.6079,-79.16641 4.0334,4.02845 m 4.9267,4.92086 4.9257,4.89526 m 34.512,34.4202 4.9523,4.89526 m 4.9268,4.92086 4.9268,4.92075 m -46.8411,-61.42088 4.9267,4.89538 m 4.9268,4.92074 4.9257,4.92086 m 17.1292,17.05706 2.6035,2.60067 m 4.9268,4.92075 4.9257,4.89538 m -27.1085,-41.76315 4.9268,4.92086 m 4.9257,4.89526 4.6976,4.69134 m 0.1163,0.1047 0.128,0.12797 m 4.9524,4.92074 4.9268,4.92086 m 4.9268,4.89527 1.4041,1.42778 m -20.2435,-34.93009 1.5834,1.58076 m 4.9268,4.89538 4.9268,4.92074 m 4.9256,4.92086 3.8809,3.87548 m -5.4375,-20.19322 4.0334,4.02845"
       id="path2" />
  </g>
</svg>
