<?xml version="1.0" encoding="UTF-8" standalone="no"?>
<!-- Created with Inkscape (http://www.inkscape.org/) -->

<svg
   width="106.13049mm"
   height="40.001011mm"
   viewBox="0 0 106.13048 40.00101"
   version="1.1"
   id="svg1"
   inkscape:export-filename="GT Sprosse FB 105mm.svg"
   inkscape:export-xdpi="96"
   inkscape:export-ydpi="96"
   xmlns:inkscape="http://www.inkscape.org/namespaces/inkscape"
   xmlns:sodipodi="http://sodipodi.sourceforge.net/DTD/sodipodi-0.dtd"
   xmlns="http://www.w3.org/2000/svg"
   xmlns:svg="http://www.w3.org/2000/svg">
  <sodipodi:namedview
     id="namedview1"
     pagecolor="#ffffff"
     bordercolor="#999999"
     borderopacity="1"
     inkscape:showpageshadow="2"
     inkscape:pageopacity="0"
     inkscape:pagecheckerboard="0"
     inkscape:deskcolor="#d1d1d1"
     inkscape:document-units="mm"
     inkscape:lockguides="true">
    <inkscape:page
       x="0"
       y="0"
       width="106.13048"
       height="40.001011"
       id="page2"
       margin="0"
       bleed="0" />
  </sodipodi:namedview>
  <defs
     id="defs1" />
  <g
     inkscape:label="Ebene 1"
     inkscape:groupmode="layer"
     id="layer1"
     transform="translate(-0.15064638,-178.4875)">
    <path
       style="fill:none;stroke:#000000;stroke-width:1.46851px;stroke-linecap:round;stroke-linejoin:round;stroke-miterlimit:4;stroke-dasharray:none;stroke-opacity:1"
       d="M 103.96119,179.22488 H 2.4701406 m 0,0 -0.1635332,0.01 m 0,0 -0.1635334,0.0223 m 0,0 -0.1601893,0.0439 m 0,0 -0.1568773,0.0608 m 0,0 -0.1468455,0.0777 m 0,0 -0.1401896,0.0914 m 0,0 -0.1301579,0.10477 m 0,0 -0.116814,0.11847 m 0,0 -0.1034702,0.13185 m 0,0 -0.090127,0.13853 m 0,0 -0.076751,0.15223 m 0,0 -0.0600631,0.15573 m 0,0 -0.0400633,0.16242 m 0,0 -0.0267514,0.16593 m 0,0 -0.009873,0.1691 m 0,0 v 35.31911 m 0,0 0.009873,0.16911 m 0,0 0.0267514,0.16592 m 0,0 0.0400633,0.16242 m 0,0 0.0600631,0.15573 m 0,0 0.076751,0.14873 m 0,0 0.090127,0.14203 m 0,0 0.1034702,0.13185 m 0,0 0.116814,0.11847 m 0,0 0.1301579,0.10478 m 0,0 0.1401896,0.0914 m 0,0 0.1468455,0.0777 m 0,0 0.1568773,0.0576 m 0,0 0.1601893,0.0439 m 0,0 0.1635334,0.0255 m 0,0 0.1635332,0.01 m 0,0 H 14.521976 m 0,0 0.166878,-0.01 m 0,0 0.163533,-0.0255 m 0,0 0.160189,-0.0439 m 0,0 0.156877,-0.0576 m 0,0 0.146845,-0.0777 m 0,0 0.140191,-0.0914 m 0,0 0.126813,-0.10478 m 0,0 0.116814,-0.11847 m 0,0 0.106815,-0.13185 m 0,0 0.09013,-0.14203 m 0,0 0.07344,-0.14873 m 0,0 0.06006,-0.15573 m 0,0 0.04338,-0.16242 m 0,0 0.02675,-0.16592 m 0,0 0.0099,-0.16911 m 0,0 v -1.28543 m 0,0 -0.0099,-0.16592 m 0,0 -0.02675,-0.16561 m 0,0 -0.04338,-0.16241 m 0,0 -0.06006,-0.15892 m 0,0 -0.07344,-0.14873 m 0,0 -0.09013,-0.14203 m 0,0 -0.106815,-0.12867 m 0,0 -0.116814,-0.11846 m 0,0 -0.126813,-0.10828 m 0,0 -0.140191,-0.0914 m 0,0 -0.146845,-0.0745 m 0,0 -0.156877,-0.0608 m 0,0 -0.160189,-0.0439 m 0,0 -0.163533,-0.0255 m 0,0 -0.166878,-0.006 m 0,0 H 5.3270716 m 0,0 v -16.69718 m 0,0 h 5.3901144 m 0,0 0.100126,-0.006 m 0,0 0.09678,-0.0127 m 0,0 0.09678,-0.0255 m 0,0 0.09344,-0.0373 m 0,0 0.09013,-0.0439 m 0,0 0.08344,-0.0576 m 0,0 0.07675,-0.0608 m 0,0 0.0701,-0.071 m 0,0 0.06341,-0.0812 m 0,0 0.05341,-0.0844 m 0,0 0.04672,-0.0879 m 0,0 0.03338,-0.0946 m 0,0 0.02675,-0.0981 m 0,0 0.01656,-0.0981 m 0,0 0.0032,-0.10159 m 0,0 v -2.56749 m 0,0 -0.0032,-0.10159 m 0,0 -0.01656,-0.10159 m 0,0 -0.02675,-0.0949 m 0,0 -0.03338,-0.0946 m 0,0 -0.04672,-0.0914 m 0,0 -0.05341,-0.0844 m 0,0 -0.06341,-0.0777 m 0,0 -0.0701,-0.071 m 0,0 -0.07675,-0.0643 m 0,0 -0.08344,-0.0541 m 0,0 -0.09013,-0.0439 m 0,0 -0.09344,-0.0373 m 0,0 -0.09678,-0.0255 m 0,0 -0.09678,-0.0159 m 0,0 -0.100126,-0.003 m 0,0 H 5.3270716 m 0,0 v -7.70587 m 0,0 H 53.534403 m 0,0 v 1.55944 m 0,0 -0.02325,0.0223 m 0,0 -0.170221,0.1828 m 0,0 -0.153533,0.19968 m 0,0 -0.136847,0.20987 m 0,0 -0.123501,0.21975 m 0,0 -0.103471,0.22993 m 0,0 -0.08678,0.23693 m 0,0 -0.06675,0.24013 m 0,0 -0.05006,0.24681 m 0,0 -0.02675,0.25032 m 0,0 -0.0099,0.25382 m 0,0 0.0099,0.25032 m 0,0 0.02675,0.25032 m 0,0 0.05006,0.2468 m 0,0 0.06675,0.24363 m 0,0 0.08678,0.23694 m 0,0 0.103471,0.22994 m 0,0 0.123501,0.21974 m 0,0 0.136847,0.20987 m 0,0 0.153533,0.19618 m 0,0 0.170221,0.18598 m 0,0 0.02325,0.0223 m 0,0 v 1.55944 m 0,0 h -5.393455 m 0,0 -0.09678,0.003 m 0,0 -0.100127,0.0159 m 0,0 -0.09678,0.0255 m 0,0 -0.09344,0.0373 m 0,0 -0.08678,0.0439 m 0,0 -0.08344,0.0541 m 0,0 -0.07675,0.0643 m 0,0 -0.0701,0.071 m 0,0 -0.06341,0.0777 m 0,0 -0.05675,0.0844 m 0,0 -0.04338,0.0914 m 0,0 -0.03672,0.0946 m 0,0 -0.02325,0.0949 m 0,0 -0.01656,0.10159 m 0,0 -0.0067,0.1016 m 0,0 v 2.56749 m 0,0 0.0067,0.10159 m 0,0 0.01656,0.0981 m 0,0 0.02325,0.0981 m 0,0 0.03672,0.0946 m 0,0 0.04338,0.0879 m 0,0 0.05675,0.0844 m 0,0 0.06341,0.0812 m 0,0 0.0701,0.071 m 0,0 0.07675,0.0608 m 0,0 0.08344,0.0576 m 0,0 0.08678,0.044 m 0,0 0.09344,0.0373 m 0,0 0.09678,0.0255 m 0,0 0.100127,0.0127 m 0,0 0.09678,0.006 m 0,0 h 5.393455 m 0,0 v 16.69717 m 0,0 h -9.198242 m 0,0 -0.166877,0.006 m 0,0 -0.163533,0.0255 m 0,0 -0.160189,0.0439 m 0,0 -0.153535,0.0608 m 0,0 -0.150189,0.0745 m 0,0 -0.136845,0.0914 m 0,0 -0.130158,0.10828 m 0,0 -0.116814,0.11846 m 0,0 -0.10347,0.12866 m 0,0 -0.09013,0.14204 m 0,0 -0.07675,0.14873 m 0,0 -0.06006,0.15891 m 0,0 -0.04338,0.16242 m 0,0 -0.02675,0.16561 m 0,0 -0.0067,0.16592 m 0,0 v 1.28543 m 0,0 0.0067,0.1691 m 0,0 0.02675,0.16593 m 0,0 0.04338,0.16242 m 0,0 0.06006,0.15573 m 0,0 0.07675,0.14872 m 0,0 0.09013,0.14204 m 0,0 0.10347,0.13185 m 0,0 0.116814,0.11847 m 0,0 0.130158,0.10477 m 0,0 0.136845,0.0914 m 0,0 0.150189,0.0777 m 0,0 0.153535,0.0576 m 0,0 0.160189,0.0439 m 0,0 0.163533,0.0255 m 0,0 0.166877,0.01 m 0,0 h 12.051833 m 0,0 0.166877,-0.01 m 0,0 0.163533,-0.0255 m 0,0 0.160189,-0.0439 m 0,0 0.153533,-0.0576 m 0,0 0.150191,-0.0777 m 0,0 0.136845,-0.0914 m 0,0 0.130157,-0.10477 m 0,0 0.116815,-0.11847 m 0,0 0.10347,-0.13185 m 0,0 0.09344,-0.14204 m 0,0 0.07341,-0.14872 m 0,0 0.06006,-0.15573 m 0,0 0.04338,-0.16242 m 0,0 0.02675,-0.16593 m 0,0 0.0067,-0.1691 m 0,0 v -31.78756 m 0,0 h 43.134286 m 0,0 v 17.97923 m 0,0 H 86.519252 m 0,0 v -4.17428 m 0,0 -0.0067,-0.0981 m 0,0 -0.01338,-0.10159 m 0,0 -0.02675,-0.0981 m 0,0 -0.03672,-0.0914 m 0,0 -0.04341,-0.0914 m 0,0 -0.05672,-0.0847 m 0,0 -0.0601,-0.0777 m 0,0 -0.07344,-0.071 m 0,0 -0.07675,-0.0643 m 0,0 -0.08344,-0.0541 m 0,0 -0.08678,-0.0474 m 0,0 -0.09344,-0.0338 m 0,0 -0.09678,-0.0255 m 0,0 -0.100126,-0.0159 m 0,0 -0.09678,-0.003 m 0,0 h -2.856927 m 0,0 -0.09678,0.003 m 0,0 -0.100126,0.0159 m 0,0 -0.09678,0.0255 m 0,0 -0.09344,0.0338 m 0,0 -0.08678,0.0474 m 0,0 -0.08344,0.0541 m 0,0 -0.07675,0.0643 m 0,0 -0.0701,0.071 m 0,0 -0.06341,0.0777 m 0,0 -0.05341,0.0847 m 0,0 -0.04672,0.0914 m 0,0 -0.03672,0.0914 m 0,0 -0.02325,0.0981 m 0,0 -0.01656,0.10159 m 0,0 -0.0067,0.0981 m 0,0 v 17.98261 m 0,0 0.0099,0.1691 m 0,0 0.02675,0.16593 m 0,0 0.04338,0.16242 m 0,0 0.05675,0.15573 m 0,0 0.07675,0.14872 m 0,0 0.09013,0.14204 m 0,0 0.10347,0.13185 m 0,0 0.120159,0.11847 m 0,0 0.126813,0.10477 m 0,0 0.140158,0.0914 m 0,0 0.146846,0.0777 m 0,0 0.156877,0.0576 m 0,0 0.160189,0.0439 m 0,0 0.163533,0.0255 m 0,0 0.163534,0.01 m 0,0 h 3.491064 m 0,0 0.163533,-0.01 m 0,0 0.166877,-0.0255 m 0,0 0.16019,-0.0439 m 0,0 0.153533,-0.0576 m 0,0 0.146846,-0.0777 m 0,0 0.14019,-0.0914 m 0,0 0.130157,-0.10477 m 0,0 0.116815,-0.11847 m 0,0 0.103469,-0.13185 m 0,0 0.0901,-0.14204 m 0,0 0.07675,-0.14872 m 0,0 0.06009,-0.15573 m 0,0 0.04338,-0.16242 m 0,0 0.02325,-0.16593 m 0,0 0.0099,-0.1691 m 0,0 v -1.28543 m 0,0 -0.0099,-0.16592 m 0,0 -0.02325,-0.16561 m 0,0 -0.04338,-0.16242 m 0,0 -0.06009,-0.15891 m 0,0 -0.07675,-0.14873 m 0,0 -0.0901,-0.14204 m 0,0 -0.103469,-0.12866 m 0,0 -0.116815,-0.11846 m 0,0 -0.130157,-0.10828 m 0,0 -0.14019,-0.0914 m 0,0 -0.146846,-0.0745 m 0,0 -0.153533,-0.0608 m 0,0 -0.16019,-0.0439 m 0,0 -0.166877,-0.0255 m 0,0 -0.163533,-0.006 m 0,0 H 85.88525 m 0,0 -0.100127,-0.006 m 0,0 -0.100126,-0.0159 m 0,0 -0.09344,-0.0223 m 0,0 -0.09344,-0.0373 m 0,0 -0.0901,-0.0439 m 0,0 -0.08344,-0.0576 m 0,0 -0.07678,-0.0608 m 0,0 -0.07009,-0.0745 m 0,0 -0.06341,-0.0777 m 0,0 -0.05341,-0.0847 m 0,0 -0.04672,-0.0879 m 0,0 -0.03338,-0.0946 m 0,0 -0.02675,-0.0981 m 0,0 -0.01656,-0.0981 m 0,0 -0.0032,-0.10159 m 0,0 v -4.49565 m 0,0 0.0067,-0.16911 m 0,0 0.02675,-0.16592 m 0,0 0.04338,-0.16242 m 0,0 0.06006,-0.15573 m 0,0 0.07344,-0.14873 m 0,0 0.09013,-0.14203 m 0,0 0.106815,-0.13185 m 0,0 0.116813,-0.11847 m 0,0 0.126846,-0.10478 m 0,0 0.14019,-0.0914 m 0,0 0.146845,-0.0777 m 0,0 0.156846,-0.0576 m 0,0 0.160189,-0.0439 m 0,0 0.163533,-0.0255 m 0,0 0.166877,-0.01 m 0,0 H 99.52272 m 0,0 0.166877,0.01 m 0,0 0.163534,0.0255 m 0,0 0.160189,0.0439 m 0,0 0.15353,0.0576 m 0,0 0.14685,0.0777 m 0,0 0.14019,0.0914 m 0,0 0.13015,0.10478 m 0,0 0.11682,0.11847 m 0,0 0.10347,0.13185 m 0,0 0.0901,0.14203 m 0,0 0.0768,0.14873 m 0,0 0.0601,0.15573 m 0,0 0.0434,0.16242 m 0,0 0.0233,0.16592 m 0,0 0.01,0.16911 m 0,0 v 4.49565 m 0,0 -0.007,0.10159 m 0,0 -0.0134,0.0981 m 0,0 -0.0268,0.0981 m 0,0 -0.0367,0.0946 m 0,0 -0.0434,0.0879 m 0,0 -0.0534,0.0847 m 0,0 -0.0634,0.0777 m 0,0 -0.0701,0.0745 m 0,0 -0.0768,0.0608 m 0,0 -0.0868,0.0576 m 0,0 -0.0868,0.0439 m 0,0 -0.0934,0.0373 m 0,0 -0.0968,0.0223 m 0,0 -0.0968,0.0159 m 0,0 -0.10013,0.006 m 0,0 h -2.219454 m 0,0 -0.166878,0.006 m 0,0 -0.163534,0.0255 m 0,0 -0.160189,0.0439 m 0,0 -0.156877,0.0608 m 0,0 -0.146845,0.0745 m 0,0 -0.140191,0.0914 m 0,0 -0.126845,0.10828 m 0,0 -0.116814,0.11846 m 0,0 -0.106814,0.12866 m 0,0 -0.0901,0.14204 m 0,0 -0.07344,0.14873 m 0,0 -0.06006,0.15891 m 0,0 -0.04337,0.16242 m 0,0 -0.02675,0.16561 m 0,0 -0.0067,0.16592 m 0,0 v 1.28543 m 0,0 0.0067,0.1691 m 0,0 0.02675,0.16593 m 0,0 0.04337,0.16242 m 0,0 0.06006,0.15573 m 0,0 0.07344,0.14872 m 0,0 0.0901,0.14204 m 0,0 0.106814,0.13185 m 0,0 0.116814,0.11847 m 0,0 0.126845,0.10477 m 0,0 0.140191,0.0914 m 0,0 0.146845,0.0777 m 0,0 0.156877,0.0576 m 0,0 0.160189,0.0439 m 0,0 0.163534,0.0255 m 0,0 0.166878,0.01 m 0,0 h 6.024234 m 0,0 0.16688,-0.01 m 0,0 0.16354,-0.0255 m 0,0 0.16022,-0.0439 m 0,0 0.15684,-0.0576 m 0,0 0.14685,-0.0777 m 0,0 0.14019,-0.0914 m 0,0 0.12685,-0.10477 m 0,0 0.11681,-0.11847 m 0,0 0.10682,-0.13185 m 0,0 0.0901,-0.14204 m 0,0 0.0734,-0.14872 m 0,0 0.0601,-0.15573 m 0,0 0.0434,-0.16242 m 0,0 0.0268,-0.16593 m 0,0 0.007,-0.1691 m 0,0 V 180.827 m 0,0 -0.007,-0.16911 m 0,0 -0.0268,-0.16592 m 0,0 -0.0434,-0.16242 m 0,0 -0.0601,-0.15573 m 0,0 -0.0734,-0.15223 m 0,0 -0.0901,-0.13853 m 0,0 -0.10682,-0.13185 m 0,0 -0.11681,-0.11847 m 0,0 -0.12685,-0.10478 m 0,0 -0.14019,-0.0914 m 0,0 -0.14685,-0.0777 m 0,0 -0.15684,-0.0608 m 0,0 -0.16022,-0.044 m 0,0 -0.16354,-0.0223 m 0,0 -0.16688,-0.01"
       id="path1" />
  </g>
</svg>
