<?xml version="1.0" encoding="UTF-8" standalone="no"?>
<!-- Created with Inkscape (http://www.inkscape.org/) -->

<svg
   width="38.640579mm"
   height="249.99991mm"
   viewBox="0 0 38.640579 249.99991"
   version="1.1"
   id="svg1"
   xmlns="http://www.w3.org/2000/svg"
   xmlns:svg="http://www.w3.org/2000/svg">
  <defs
     id="defs1" />
  <g
     id="layer1"
     transform="translate(-1049.181,227.53585)">
    <path
       style="fill:none;stroke:#000000;stroke-width:4.52498px;stroke-linecap:round;stroke-linejoin:round;stroke-miterlimit:4;stroke-dasharray:none;stroke-opacity:1"
       d="m 1079.6468,20.201563 h 1.6424 m 0,0 0.4509,-0.02552 m 0,0 0.4423,-0.06805 m 0,0 0.4338,-0.11738 m 0,0 0.4082,-0.156507 m 0,0 0.3913,-0.20584 m 0,0 0.3828,-0.234759 m 0,0 0.3487,-0.283243 m 0,0 0.3147,-0.313013 m 0,0 0.2892,-0.342783 m 0,0 0.2382,-0.371703 m 0,0 0.2041,-0.400622 m 0,0 0.1616,-0.41083 m 0,0 0.1191,-0.430392 m 0,0 0.085,-0.43975 m 0,0 v -0.449956 m 0,0 V -153.07958 m 0,0 v -0.44995 m 0,0 -0.085,-0.43975 m 0,0 -0.1191,-0.43039 m 0,0 -0.1616,-0.41083 m 0,0 -0.2041,-0.39127 m 0,0 -0.2382,-0.38191 m 0,0 -0.2892,-0.34193 m 0,0 -0.3147,-0.31302 m 0,0 -0.3487,-0.28409 m 0,0 -0.3828,-0.23476 m 0,0 -0.3913,-0.20499 m 0,0 -0.4082,-0.1565 m 0,0 -0.4338,-0.11738 m 0,0 -0.4423,-0.068 m 0,0 -0.4509,-0.0255 m 0,0 h -10.2401 m 0,0 -0.4423,-0.017 m 0,0 -0.4423,-0.0681 m 0,0 -0.4338,-0.11738 m 0,0 -0.4253,-0.1565 m 0,0 -0.3912,-0.20499 m 0,0 -0.3743,-0.23476 m 0,0 -0.3572,-0.28324 m 0,0 -0.3147,-0.31302 m 0,0 -0.2722,-0.35214 m 0,0 -0.2467,-0.3717 m 0,0 -0.2041,-0.39126 m 0,0 -0.1616,-0.42104 m 0,0 -0.1191,-0.42104 m 0,0 -0.085,-0.43975 m 0,0 v -0.44995 m 0,0 v -56.0567 m 0,0 v -0.60646 m 0,0 -0.085,-0.59711 m 0,0 -0.1191,-0.5869 m 0,0 -0.1531,-0.57669 m 0,0 -0.2127,-0.55798 m 0,0 -0.2466,-0.54777 m 0,0 -0.2977,-0.52821 m 0,0 -0.3318,-0.49929 m 0,0 -0.3742,-0.46952 m 0,0 -0.4083,-0.43975 m 0,0 -0.4423,-0.41083 m 0,0 -0.4678,-0.3717 m 0,0 -0.5018,-0.33258 m 0,0 -0.5274,-0.29345 m 0,0 -0.5444,-0.24412 m 0,0 -0.5699,-0.21519 m 0,0 -0.5784,-0.15651 m 0,0 -0.5869,-0.11738 m 0,0 -0.6039,-0.0765 m 0,0 -0.6039,-0.017 m 0,0 -0.6124,0.017 m 0,0 -0.5869,0.0765 m 0,0 -0.6039,0.11738 m 0,0 -0.5784,0.15651 m 0,0 -0.5614,0.21519 m 0,0 -0.5529,0.24412 m 0,0 -0.5188,0.29345 m 0,0 -0.5019,0.33258 m 0,0 -0.4848,0.3717 m 0,0 -0.4423,0.41083 m 0,0 -0.3998,0.43975 m 0,0 -0.3742,0.46952 m 0,0 -0.3317,0.49929 m 0,0 -0.2977,0.52821 m 0,0 -0.2552,0.54777 m 0,0 -0.2041,0.55798 m 0,0 -0.1702,0.57669 m 0,0 -0.119,0.5869 m 0,0 -0.085,0.59711 m 0,0 v 0.60646 m 0,0 v 73.89775 m 0,0 v 0.43975 m 0,0 0.085,0.43975 m 0,0 0.119,0.43039 m 0,0 0.1616,0.42019 m 0,0 0.2042,0.39127 m 0,0 0.2381,0.3717 m 0,0 0.2892,0.34193 m 0,0 0.3148,0.32322 m 0,0 0.3487,0.27389 m 0,0 0.3828,0.24496 m 0,0 0.3912,0.20499 m 0,0 0.4168,0.15651 m 0,0 0.4338,0.11738 m 0,0 0.4423,0.068 m 0,0 0.4508,0.017 m 0,0 h 7.6824 m 0,0 0.4423,0.0255 m 0,0 0.4423,0.068 m 0,0 0.4338,0.10717 m 0,0 0.4168,0.16672 m 0,0 0.3998,0.19563 m 0,0 0.3742,0.24497 m 0,0 0.3403,0.28409 m 0,0 0.3147,0.31301 m 0,0 0.2892,0.34194 m 0,0 0.2467,0.3717 m 0,0 0.1956,0.40062 m 0,0 0.1531,0.41083 m 0,0 0.1191,0.43039 m 0,0 0.085,0.43975 m 0,0 v 0.43975 m 0,0 v 26.2139 m 0,0 -0.085,0.0595 m 0,0 -0.4593,0.48908 m 0,0 -0.4168,0.52821 m 0,0 -0.3743,0.55798 m 0,0 -0.3232,0.57669 m 0,0 -0.2892,0.60646 m 0,0 -0.2297,0.62603 m 0,0 -0.1871,0.64559 m 0,0 -0.1276,0.65494 m 0,0 -0.085,0.6558 m 0,0 v 0.66515 m 0,0 v 0.67536 m 0,0 0.085,0.6558 m 0,0 0.1276,0.65494 m 0,0 0.1871,0.64559 m 0,0 0.2297,0.626029 m 0,0 0.2892,0.606462 m 0,0 0.3232,0.577543 m 0,0 0.3743,0.557129 m 0,0 0.4168,0.518002 m 0,0 0.4593,0.489083 m 0,0 0.085,0.06805 m 0,0 v 75.824741 m 0,0 v 0.439749 m 0,0 0.085,0.421036 m 0,0 7.7419,37.032064 m 0,0 0.1191,0.449956 m 0,0 0.1531,0.41083 m 0,0 0.2042,0.400622 m 0,0 0.2466,0.371703 m 0,0 0.2722,0.342783 m 0,0 0.3147,0.313013 m 0,0 0.3573,0.283243 m 0,0 0.3742,0.234759 m 0,0 0.3913,0.20584 m 0,0 0.4253,0.156507 m 0,0 0.4253,0.11738 m 0,0 0.4423,0.06805 m 0,0 0.4508,0.02552"
       id="path1" />
  </g>
</svg>
