<?xml version="1.0" encoding="UTF-8" standalone="no"?>
<!-- Created with Inkscape (http://www.inkscape.org/) -->

<svg
   width="1000mm"
   height="153.20889mm"
   viewBox="0 0 999.99998 153.20889"
   version="1.1"
   id="svg1"
   xmlns="http://www.w3.org/2000/svg"
   xmlns:svg="http://www.w3.org/2000/svg">
  <defs
     id="defs1" />
  <g
     id="layer1"
     transform="translate(-1024.0709,245.03839)">
    <path
       style="fill:none;stroke:#000000;stroke-width:17.9483px;stroke-linecap:round;stroke-linejoin:round;stroke-miterlimit:4;stroke-dasharray:none;stroke-opacity:1"
       d="m 2014.8459,-212.62169 v -6.50911 m 0,0 v -1.78888 m 0,0 -0.3388,-1.75162 m 0,0 -0.4743,-1.71435 m 0,0 -0.6098,-1.63643 m 0,0 -0.847,-1.59916 m 0,0 -0.9487,-1.48396 m 0,0 -1.1181,-1.36877 m 0,0 -1.2535,-1.25696 m 0,0 -1.3552,-1.10451 m 0,0 -1.4908,-0.95204 m 0,0 -1.5924,-0.79957 m 0,0 -1.6601,-0.64712 m 0,0 -1.7279,-0.45739 m 0,0 -1.7618,-0.27104 m 0,0 -1.7957,-0.10164 m 0,0 h -676.0435 m 0,0 -1.7618,0.10164 m 0,0 -1.7618,0.27104 m 0,0 -1.7279,0.45739 m 0,0 -1.694,0.64712 m 0,0 -1.5585,0.79957 m 0,0 -1.4907,0.95204 m 0,0 -1.3891,1.10451 m 0,0 -1.2536,1.25696 m 0,0 -1.1519,1.36877 m 0,0 -0.9487,1.48396 m 0,0 -0.8131,1.59916 m 0,0 -0.6437,1.63643 m 0,0 -0.4405,1.71435 m 0,0 -0.3388,1.75162 m 0,0 v 1.78888 m 0,0 v 40.57827 m 0,0 v 1.75162 m 0,0 -0.3388,1.75161 m 0,0 -0.4743,1.71436 m 0,0 -0.6437,1.63642 m 0,0 -0.8132,1.59916 m 0,0 -0.9825,1.48396 m 0,0 -1.1181,1.36877 m 0,0 -1.2535,1.25696 m 0,0 -1.3891,1.10451 m 0,0 -1.4908,0.95204 m 0,0 -1.5585,0.79958 m 0,0 -1.694,0.64711 m 0,0 -1.7279,0.45739 m 0,0 -1.7618,0.27104 m 0,0 -1.7618,0.10164 m 0,0 h -224.2411 m 0,0 -2.4055,0.0678 m 0,0 -2.3716,0.30493 m 0,0 -2.3716,0.45738 m 0,0 -2.3039,0.64712 m 0,0 -2.27,0.83685 m 0,0 -2.1683,0.98931 m 0,0 -2.1006,1.17904 m 0,0 -1.999,1.29423 m 0,0 -1.8973,1.48396 m 0,0 -1.7618,1.63643 m 0,0 -1.6262,1.75162 m 0,0 -1.4908,1.86681 m 0,0 -1.2874,2.01588 m 0,0 -1.1858,2.05655 m 0,0 -0.9826,2.17173 m 0,0 -0.847,2.24628 m 0,0 -0.6437,2.32081 m 0,0 -0.5082,2.32081 m 0,0 -0.3388,2.39873 m 0,0 v 2.36147 m 0,0 v 2.39873 m 0,0 0.3388,2.36147 m 0,0 0.5082,2.36147 m 0,0 0.6437,2.28354 m 0,0 0.847,2.24627 m 0,0 0.9826,2.16835 m 0,0 1.1858,2.09381 m 0,0 1.2874,1.97862 m 0,0 1.4908,1.90408 m 0,0 1.6262,1.75162 m 0,0 1.7618,1.59916 m 0,0 1.8973,1.48396 m 0,0 1.999,1.3315 m 0,0 2.1006,1.17904 m 0,0 2.1683,0.98931 m 0,0 2.27,0.83684 m 0,0 2.3039,0.64712 m 0,0 2.3716,0.45739 m 0,0 2.3716,0.27104 m 0,0 2.4055,0.10164 m 0,0 h 295.5764 m 0,0 1.7618,-0.10164 m 0,0 1.7618,-0.27104 m 0,0 1.7279,-0.45739 m 0,0 1.694,-0.64712 m 0,0 1.5585,-0.79957 m 0,0 1.4907,-0.95204 m 0,0 1.3891,-1.10451 m 0,0 1.2536,-1.25696 m 0,0 1.1519,-1.36877 m 0,0 0.9487,-1.48396 m 0,0 0.8131,-1.59916 m 0,0 0.6437,-1.63643 m 0,0 0.4744,-1.71435 m 0,0 0.3388,-1.75161 m 0,0 v -1.75162 m 0,0 v -30.45276 m 0,0 v -1.75162 m 0,0 0.3388,-1.75162 m 0,0 0.4743,-1.71435 m 0,0 0.6437,-1.67369 m 0,0 0.8132,-1.56189 m 0,0 0.9825,-1.48396 m 0,0 1.1181,-1.36877 m 0,0 1.2535,-1.25697 m 0,0 1.3552,-1.1045 m 0,0 1.4908,-0.98931 m 0,0 1.5585,-0.79958 m 0,0 1.694,-0.60984 m 0,0 1.7279,-0.45739 m 0,0 1.7618,-0.30492 m 0,0 1.7618,-0.0678 m 0,0 h 104.8633 m 0,0 0.3388,0.23717 m 0,0 1.9651,1.82615 m 0,0 2.1006,1.63643 m 0,0 2.2022,1.44669 m 0,0 2.3378,1.3315 m 0,0 2.4055,1.10451 m 0,0 2.5071,0.91477 m 0,0 2.5749,0.72165 m 0,0 2.6427,0.49466 m 0,0 2.6427,0.34219 m 0,0 2.6765,0.0678 m 0,0 2.6766,-0.0678 m 0,0 2.6427,-0.34219 m 0,0 2.6426,-0.49466 m 0,0 2.575,-0.72165 m 0,0 2.4732,-0.91477 m 0,0 2.4394,-1.10451 m 0,0 2.3378,-1.3315 m 0,0 2.2022,-1.44669 m 0,0 2.1006,-1.63643 m 0,0 1.9312,-1.82615 m 0,0 0.3388,-0.23717 m 0,0 h 303.2503 m 0,0 1.7956,-0.10164 m 0,0 1.694,-0.23716 m 0,0 148.0914,-30.68111 m 0,0 1.7957,-0.45739 m 0,0 1.6601,-0.64711 m 0,0 1.5924,-0.79958 m 0,0 1.4908,-0.95204 m 0,0 1.3552,-1.14177 m 0,0 1.2536,-1.25697 m 0,0 1.118,-1.36877 m 0,0 0.9487,-1.48396 m 0,0 0.847,-1.56189 m 0,0 0.6098,-1.63642 m 0,0 0.4744,-1.71435 m 0,0 0.3388,-1.75162 m 0,0 v -1.78889"
       id="path1" />
  </g>
</svg>
