<?xml version="1.0" encoding="UTF-8" standalone="no"?>
<!-- Created with Inkscape (http://www.inkscape.org/) -->

<svg
   width="210mm"
   height="296.99997mm"
   viewBox="0 0 210 296.99998"
   version="1.1"
   id="svg1"
   xmlns:inkscape="http://www.inkscape.org/namespaces/inkscape"
   xmlns:sodipodi="http://sodipodi.sourceforge.net/DTD/sodipodi-0.dtd"
   xmlns="http://www.w3.org/2000/svg"
   xmlns:svg="http://www.w3.org/2000/svg">
  <sodipodi:namedview
     id="namedview1"
     pagecolor="#ffffff"
     bordercolor="#999999"
     borderopacity="1"
     inkscape:showpageshadow="2"
     inkscape:pageopacity="0"
     inkscape:pagecheckerboard="0"
     inkscape:deskcolor="#d1d1d1"
     inkscape:document-units="mm">
    <inkscape:page
       x="0"
       y="0"
       width="210"
       height="297"
       id="page2"
       margin="0"
       bleed="0" />
  </sodipodi:namedview>
  <defs
     id="defs1" />
  <g
     inkscape:label="Ebene 1"
     inkscape:groupmode="layer"
     id="layer1"
     transform="translate(-50.236034,-143.26626)">
    <path
       style="fill:none;stroke:#000000;stroke-width:0.4618px;stroke-linecap:round;stroke-linejoin:round;stroke-miterlimit:4;stroke-dasharray:none;stroke-opacity:1"
       d="M 67.458529,143.49824 H 50.966184 m 0,0 -0.05157,0.002 m 0,0 -0.05157,0.008 m 0,0 -0.0504,0.0141 m 0,0 -0.04923,0.0188 m 0,0 -0.04688,0.0235 m 0,0 -0.04337,0.0282 m 0,0 -0.04102,0.034 m 0,0 -0.03633,0.0364 m 0,0 -0.03282,0.0411 m 0,0 -0.0293,0.0434 m 0,0 -0.02344,0.0469 m 0,0 -0.01875,0.0493 m 0,0 -0.01407,0.0505 m 0,0 -0.007,0.0528 m 0,0 -0.0035,0.0517 m 0,0 v 11.03748 m 0,0 0.0035,0.0528 m 0,0 0.007,0.0516 m 0,0 0.01407,0.0505 m 0,0 0.01875,0.0493 m 0,0 0.02344,0.047 m 0,0 0.0293,0.0446 m 0,0 0.03282,0.0399 m 0,0 0.03633,0.0376 m 0,0 0.04102,0.0329 m 0,0 0.04337,0.0282 m 0,0 0.04688,0.0247 m 0,0 0.04923,0.0188 m 0,0 0.0504,0.0129 m 0,0 0.05157,0.008 m 0,0 0.05157,0.004 m 0,0 h 3.797541 m 0,0 0.05157,-0.004 m 0,0 0.05157,-0.008 m 0,0 0.0504,-0.0129 m 0,0 0.04923,-0.0188 m 0,0 0.04688,-0.0247 m 0,0 0.04337,-0.0282 m 0,0 0.04102,-0.0329 m 0,0 0.03633,-0.0376 m 0,0 0.03399,-0.0399 m 0,0 0.02813,-0.0446 m 0,0 0.02344,-0.047 m 0,0 0.01875,-0.0493 m 0,0 0.01407,-0.0505 m 0,0 0.0082,-0.0516 m 0,0 0.0023,-0.0528 m 0,0 v -0.4014 m 0,0 -0.0023,-0.0516 m 0,0 -0.0082,-0.0528 m 0,0 -0.01407,-0.0505 m 0,0 -0.01875,-0.0493 m 0,0 -0.02344,-0.0458 m 0,0 -0.02813,-0.0446 m 0,0 -0.03399,-0.0411 m 0,0 -0.03633,-0.0364 m 0,0 -0.04102,-0.0329 m 0,0 -0.04337,-0.0293 m 0,0 -0.04688,-0.0235 m 0,0 -0.04923,-0.0188 m 0,0 -0.0504,-0.0141 m 0,0 -0.05157,-0.008 m 0,0 -0.05157,-0.002 m 0,0 h -2.897383 m 0,0 v -5.21835 m 0,0 h 1.698344 m 0,0 0.03047,-10e-4 m 0,0 0.03165,-0.005 m 0,0 0.03047,-0.008 m 0,0 0.0293,-0.0117 m 0,0 0.02813,-0.0141 m 0,0 0.02579,-0.0176 m 0,0 0.02461,-0.0199 m 0,0 0.02227,-0.0223 m 0,0 0.01993,-0.0235 m 0,0 0.01641,-0.027 m 0,0 0.01407,-0.0282 m 0,0 0.01172,-0.0293 m 0,0 0.0082,-0.0305 m 0,0 0.0047,-0.0305 m 0,0 0.0012,-0.0317 m 0,0 v -0.80282 m 0,0 -0.0012,-0.0317 m 0,0 -0.0047,-0.0305 m 0,0 -0.0082,-0.0305 m 0,0 -0.01172,-0.0293 m 0,0 -0.01407,-0.0282 m 0,0 -0.01641,-0.027 m 0,0 -0.01993,-0.0246 m 0,0 -0.02227,-0.0223 m 0,0 -0.02461,-0.02 m 0,0 -0.02579,-0.0164 m 0,0 -0.02813,-0.0141 m 0,0 -0.0293,-0.0117 m 0,0 -0.03047,-0.008 m 0,0 -0.03165,-0.005 m 0,0 -0.03047,-0.002 m 0,0 h -1.399464 m 0,0 -0.03047,-0.001 m 0,0 -0.03165,-0.005 m 0,0 -0.03047,-0.008 m 0,0 -0.0293,-0.0117 m 0,0 -0.02813,-0.0141 m 0,0 -0.02579,-0.0176 m 0,0 -0.02461,-0.0188 m 0,0 -0.02227,-0.0223 m 0,0 -0.01993,-0.0246 m 0,0 -0.01641,-0.027 m 0,0 -0.01407,-0.0282 m 0,0 -0.01172,-0.0293 m 0,0 -0.0082,-0.0305 m 0,0 -0.0047,-0.0305 m 0,0 -0.0012,-0.0317 m 0,0 v -0.18663 m 0,0 0.007,-0.007 m 0,0 0.05274,-0.0575 m 0,0 0.04923,-0.0622 m 0,0 0.04337,-0.0657 m 0,0 0.03751,-0.0681 m 0,0 0.03282,-0.0716 m 0,0 0.02813,-0.0739 m 0,0 0.0211,-0.0763 m 0,0 0.01524,-0.0775 m 0,0 0.0094,-0.0775 m 0,0 0.0023,-0.0786 m 0,0 -0.0023,-0.0798 m 0,0 -0.0094,-0.0775 m 0,0 -0.01524,-0.0775 m 0,0 -0.0211,-0.0763 m 0,0 -0.02813,-0.0739 m 0,0 -0.03282,-0.0716 m 0,0 -0.03751,-0.0681 m 0,0 -0.04337,-0.0657 m 0,0 -0.04923,-0.0622 m 0,0 -0.05274,-0.0575 m 0,0 -0.007,-0.007 m 0,0 V 145.405 m 0,0 0.0012,-0.0317 m 0,0 0.0047,-0.0305 m 0,0 0.0082,-0.0305 m 0,0 0.01172,-0.0293 m 0,0 0.01407,-0.0282 m 0,0 0.01641,-0.027 m 0,0 0.01993,-0.0247 m 0,0 0.02227,-0.0223 m 0,0 0.02461,-0.0188 m 0,0 0.02579,-0.0176 m 0,0 0.02813,-0.0141 m 0,0 0.0293,-0.0117 m 0,0 0.03047,-0.008 m 0,0 0.03165,-0.005 m 0,0 0.03047,-0.001 m 0,0 h 13.848132 m 0,0 0.03165,0.001 m 0,0 0.03047,0.005 m 0,0 0.03047,0.008 m 0,0 0.0293,0.0117 m 0,0 0.02813,0.0141 m 0,0 0.02579,0.0176 m 0,0 0.02461,0.0188 m 0,0 0.02227,0.0223 m 0,0 0.01993,0.0247 m 0,0 0.01758,0.027 m 0,0 0.01406,0.0282 m 0,0 0.01172,0.0317 m 0,0 0.567287,1.80633 m 0,0 0.007,0.0282 m 0,0 0.0047,0.0305 m 0,0 0.0023,0.0317 m 0,0 -0.0023,0.0317 m 0,0 -0.0047,0.0305 m 0,0 -0.0082,0.0305 m 0,0 -0.01055,0.0293 m 0,0 -0.01524,0.0282 m 0,0 -0.01641,0.027 m 0,0 -0.01993,0.0247 m 0,0 -0.02227,0.0223 m 0,0 -0.02461,0.0188 m 0,0 -0.02579,0.0176 m 0,0 -0.02813,0.0141 m 0,0 -0.0293,0.0117 m 0,0 -0.03047,0.008 m 0,0 -0.03047,0.005 m 0,0 -0.03165,0.001 m 0,0 h -1.925728 m 0,0 -0.03165,0.002 m 0,0 -0.03048,0.005 m 0,0 -0.03047,0.008 m 0,0 -0.0293,0.0117 m 0,0 -0.02813,0.0141 m 0,0 -0.02578,0.0164 m 0,0 -0.02461,0.0199 m 0,0 -0.02227,0.0223 m 0,0 -0.01993,0.0246 m 0,0 -0.01758,0.027 m 0,0 -0.01406,0.0282 m 0,0 -0.01055,0.0294 m 0,0 -0.0082,0.0305 m 0,0 -0.0047,0.0305 m 0,0 -0.0023,0.0317 m 0,0 v 0.80281 m 0,0 0.0023,0.0317 m 0,0 0.0047,0.0305 m 0,0 0.0082,0.0305 m 0,0 0.01055,0.0293 m 0,0 0.01406,0.0282 m 0,0 0.01758,0.027 m 0,0 0.01993,0.0235 m 0,0 0.02227,0.0223 m 0,0 0.02461,0.02 m 0,0 0.02578,0.0176 m 0,0 0.02813,0.0141 m 0,0 0.0293,0.0117 m 0,0 0.03047,0.008 m 0,0 0.03048,0.005 m 0,0 0.03165,0.001 m 0,0 h 1.797971 m 0,0 v 1.40492 m 0,0 0.0023,0.0317 m 0,0 0.0047,0.0317 m 0,0 0.0082,0.0293 m 0,0 0.01055,0.0293 m 0,0 0.01524,0.0282 m 0,0 0.01641,0.027 m 0,0 0.01993,0.0247 m 0,0 0.02227,0.0223 m 0,0 0.02461,0.0199 m 0,0 0.02579,0.0164 m 0,0 0.02813,0.0141 m 0,0 0.0293,0.0117 m 0,0 0.03047,0.008 m 0,0 0.03047,0.005 m 0,0 0.03165,0.002 m 0,0 h 0.992752 m 0,0 0.03165,0.001 m 0,0 0.03165,0.005 m 0,0 0.0293,0.008 m 0,0 0.0293,0.0117 m 0,0 0.02813,0.0141 m 0,0 0.02696,0.0176 m 0,0 0.02461,0.02 m 0,0 0.0211,0.0223 m 0,0 0.01993,0.0235 m 0,0 0.01758,0.027 m 0,0 0.01406,0.0282 m 0,0 0.01172,0.0317 m 0,0 0.441874,1.40492 m 0,0 0.007,0.0282 m 0,0 0.0047,0.0305 m 0,0 0.0012,0.0317 m 0,0 -0.0012,0.0317 m 0,0 -0.0047,0.0305 m 0,0 -0.0082,0.0305 m 0,0 -0.01172,0.0293 m 0,0 -0.01407,0.0282 m 0,0 -0.01641,0.027 m 0,0 -0.01993,0.0247 m 0,0 -0.02227,0.0223 m 0,0 -0.02461,0.02 m 0,0 -0.02579,0.0164 m 0,0 -0.02813,0.0141 m 0,0 -0.0293,0.0117 m 0,0 -0.03047,0.008 m 0,0 -0.03165,0.005 m 0,0 -0.03047,0.001 m 0,0 h -1.434626 m 0,0 -0.03165,0.002 m 0,0 -0.03047,0.005 m 0,0 -0.03047,0.008 m 0,0 -0.0293,0.0117 m 0,0 -0.02813,0.0141 m 0,0 -0.02579,0.0164 m 0,0 -0.02461,0.0199 m 0,0 -0.02227,0.0223 m 0,0 -0.01993,0.0247 m 0,0 -0.01641,0.027 m 0,0 -0.01524,0.0282 m 0,0 -0.01055,0.0293 m 0,0 -0.0082,0.0305 m 0,0 -0.0047,0.0305 m 0,0 -0.0023,0.0317 m 0,0 v 1.20422 m 0,0 h -2.297278 m 0,0 -0.05274,0.002 m 0,0 -0.05157,0.008 m 0,0 -0.0504,0.0141 m 0,0 -0.04923,0.0188 m 0,0 -0.04571,0.0235 m 0,0 -0.04454,0.0293 m 0,0 -0.04102,0.0329 m 0,0 -0.03633,0.0364 m 0,0 -0.03282,0.0411 m 0,0 -0.02813,0.0446 m 0,0 -0.02461,0.0458 m 0,0 -0.01875,0.0493 m 0,0 -0.01289,0.0505 m 0,0 -0.0082,0.0528 m 0,0 -0.0035,0.0516 m 0,0 v 0.4014 m 0,0 0.0035,0.0528 m 0,0 0.0082,0.0516 m 0,0 0.01289,0.0505 m 0,0 0.01875,0.0493 m 0,0 0.02461,0.047 m 0,0 0.02813,0.0446 m 0,0 0.03282,0.0399 m 0,0 0.03633,0.0376 m 0,0 0.04102,0.0329 m 0,0 0.04454,0.0282 m 0,0 0.04571,0.0247 m 0,0 0.04923,0.0188 m 0,0 0.0504,0.0129 m 0,0 0.05157,0.008 m 0,0 0.05274,0.004 m 0,0 h 6.993805 m 0,0 0.05157,-0.004 m 0,0 0.05157,-0.008 m 0,0 0.0504,-0.0129 m 0,0 0.04923,-0.0188 m 0,0 0.04688,-0.0247 m 0,0 0.04337,-0.0282 m 0,0 0.04102,-0.0329 m 0,0 0.03751,-0.0376 m 0,0 0.03282,-0.0399 m 0,0 0.02813,-0.0446 m 0,0 0.02344,-0.047 m 0,0 0.01875,-0.0493 m 0,0 0.01406,-0.0505 m 0,0 0.0082,-0.0516 m 0,0 0.0023,-0.0528 m 0,0 v -0.0998 m 0,0 0.0023,-0.0528 m 0,0 0.0082,-0.0516 m 0,0 0.01406,-0.0505 m 0,0 0.01875,-0.0493 m 0,0 0.02344,-0.047 m 0,0 0.02813,-0.0434 m 0,0 0.03282,-0.0411 m 0,0 0.03751,-0.0376 m 0,0 0.04102,-0.0329 m 0,0 0.04337,-0.0282 m 0,0 0.04688,-0.0247 m 0,0 0.04805,-0.0188 m 0,0 0.05157,-0.0129 m 0,0 0.05157,-0.008 m 0,0 0.05157,-0.004 m 0,0 h 2.797756 m 0,0 0.05274,0.004 m 0,0 0.05157,0.008 m 0,0 0.0504,0.0129 m 0,0 0.04805,0.0188 m 0,0 0.04688,0.0247 m 0,0 0.04454,0.0282 m 0,0 0.03985,0.0329 m 0,0 0.03751,0.0376 m 0,0 0.03282,0.0411 m 0,0 0.02813,0.0434 m 0,0 0.02344,0.047 m 0,0 0.01875,0.0493 m 0,0 0.01406,0.0505 m 0,0 0.0082,0.0516 m 0,0 0.0023,0.0528 m 0,0 v 0.60211 m 0,0 0.0035,0.0516 m 0,0 0.0082,0.0528 m 0,0 0.01289,0.0505 m 0,0 0.01875,0.0493 m 0,0 0.02344,0.0458 m 0,0 0.0293,0.0446 m 0,0 0.03282,0.0411 m 0,0 0.03633,0.0364 m 0,0 0.04102,0.034 m 0,0 0.04337,0.0282 m 0,0 0.04688,0.0235 m 0,0 0.04923,0.0188 m 0,0 0.0504,0.0141 m 0,0 0.05157,0.008 m 0,0 0.05157,0.002 m 0,0 0.05274,-0.002 m 0,0 0.05157,-0.008 m 0,0 0.0504,-0.0141 m 0,0 0.04923,-0.0188 m 0,0 0.04688,-0.0235 m 0,0 0.04337,-0.0282 m 0,0 0.04102,-0.034 m 0,0 0.03633,-0.0364 m 0,0 0.03282,-0.0411 m 0,0 0.0293,-0.0446 m 0,0 0.02344,-0.0458 m 0,0 0.01875,-0.0493 m 0,0 0.01289,-0.0505 m 0,0 0.0082,-0.0528 m 0,0 0.0035,-0.0516 m 0,0 v -2.50937 m 0,0 -0.0035,-0.0516 m 0,0 -0.0082,-0.0516 m 0,0 -0.01289,-0.0516 m 0,0 -0.01875,-0.0481 m 0,0 -0.02344,-0.047 m 0,0 -0.0293,-0.0446 m 0,0 -0.03282,-0.0411 m 0,0 -0.03633,-0.0364 m 0,0 -0.04102,-0.0329 m 0,0 -0.04337,-0.0293 m 0,0 -0.04688,-0.0235 m 0,0 -0.04923,-0.0188 m 0,0 -0.0504,-0.0141 m 0,0 -0.05157,-0.008 m 0,0 -0.05274,-0.002 m 0,0 h -0.39968 m 0,0 -0.05157,-0.002 m 0,0 -0.05157,-0.008 m 0,0 -0.05157,-0.0141 m 0,0 -0.04806,-0.0188 m 0,0 -0.04688,-0.0235 m 0,0 -0.04337,-0.0294 m 0,0 -0.04102,-0.0329 m 0,0 -0.03751,-0.0364 m 0,0 -0.03282,-0.0411 m 0,0 -0.02813,-0.0446 m 0,0 -0.02344,-0.0469 m 0,0 -0.01875,-0.0481 m 0,0 -0.01172,-0.0422 m 0,0 -1.502607,-6.53517 m 0,0 h 5.686933 m 0,0 0.05392,0.001 m 0,0 0.05157,0.001 m 0,0 0.04922,0.004 m 0,0 0.04571,0.005 m 0,0 0.06446,0.007 m 0,0 0.05509,0.008 m 0,0 0.04806,0.008 m 0,0 0.03985,0.007 m 0,0 0.05392,0.0129 m 0,0 0.01758,0.005 m 0,0 0.03751,0.009 m 0,0 0.09963,0.0305 m 0,0 0.09963,0.0352 m 0,0 0.09611,0.0399 m 0,0 0.09494,0.0446 m 0,0 0.09143,0.0505 m 0,0 0.08908,0.0552 m 0,0 0.08673,0.0599 m 0,0 0.08205,0.0634 m 0,0 0.0797,0.0681 m 0,0 0.07619,0.0728 m 0,0 0.07267,0.0763 m 0,0 0.06681,0.0798 m 0,0 0.06446,0.0833 m 0,0 0.05861,0.0868 m 0,0 0.05509,0.0892 m 0,0 0.0504,0.0927 m 0,0 0.04454,0.0939 m 0,0 0.03985,0.0974 m 0,0 0.03516,0.0998 m 0,0 0.0293,0.0998 m 0,0 0.02461,0.10211 m 0,0 0.01875,0.10328 m 0,0 0.01406,0.10446 m 0,0 0.0082,0.10446 m 0,0 0.0023,0.10564 m 0,0 v 6.92366 m 0,0 0.0035,0.0786 m 0,0 0.0094,0.0786 m 0,0 0.01524,0.0763 m 0,0 0.0211,0.0763 m 0,0 0.02696,0.0739 m 0,0 0.03282,0.0716 m 0,0 0.03868,0.0693 m 0,0 0.04337,0.0645 m 0,0 0.04923,0.0622 m 0,0 0.05275,0.0575 m 0,0 0.05743,0.054 m 0,0 0.06212,0.0481 m 0,0 0.06447,0.0446 m 0,0 0.06915,0.0387 m 0,0 0.0715,0.0329 m 0,0 0.07267,0.027 m 0,0 0.07618,0.0211 m 0,0 0.07736,0.0153 m 0,0 0.07736,0.009 m 0,0 0.07853,0.004 m 0,0 h 0.09963 m 0,0 0.07853,-0.004 m 0,0 0.07736,-0.009 m 0,0 0.07736,-0.0153 m 0,0 0.07618,-0.0211 m 0,0 0.07267,-0.027 m 0,0 0.07149,-0.0329 m 0,0 0.06916,-0.0387 m 0,0 0.06446,-0.0446 m 0,0 0.06212,-0.0481 m 0,0 0.05743,-0.054 m 0,0 0.05274,-0.0575 m 0,0 0.04923,-0.0622 m 0,0 0.04337,-0.0645 m 0,0 0.03868,-0.0693 m 0,0 0.03282,-0.0716 m 0,0 0.02696,-0.0739 m 0,0 0.0211,-0.0763 m 0,0 0.01524,-0.0763 m 0,0 0.0094,-0.0786 m 0,0 0.0035,-0.0786 m 0,0 v -7.92709 m 0,0 0.0023,-0.0786 m 0,0 0.0094,-0.0786 m 0,0 0.01524,-0.0775 m 0,0 0.0211,-0.0751 m 0,0 0.02696,-0.0739 m 0,0 0.03282,-0.0716 m 0,0 0.03868,-0.0693 m 0,0 0.04337,-0.0657 m 0,0 0.04922,-0.061 m 0,0 0.05275,-0.0587 m 0,0 0.05743,-0.0528 m 0,0 0.06212,-0.0493 m 0,0 0.06564,-0.0434 m 0,0 0.06798,-0.0387 m 0,0 0.0715,-0.0329 m 0,0 0.07384,-0.027 m 0,0 0.07501,-0.0211 m 0,0 0.07736,-0.0153 m 0,0 0.07736,-0.009 m 0,0 0.07853,-0.004 m 0,0 0.07853,0.004 m 0,0 0.07736,0.009 m 0,0 0.07736,0.0153 m 0,0 0.07501,0.0211 m 0,0 0.07384,0.027 m 0,0 0.0715,0.0329 m 0,0 0.06798,0.0387 m 0,0 0.06564,0.0434 m 0,0 0.06212,0.0493 m 0,0 0.05743,0.0528 m 0,0 0.05274,0.0587 m 0,0 0.04923,0.061 m 0,0 0.04337,0.0657 m 0,0 0.03868,0.0693 m 0,0 0.03282,0.0716 m 0,0 0.02696,0.0739 m 0,0 0.0211,0.0751 m 0,0 0.01524,0.0775 m 0,0 0.0094,0.0786 m 0,0 0.0023,0.0786 m 0,0 v 4.01406 m 0,0 0.0035,0.0786 m 0,0 0.0094,0.0775 m 0,0 0.01524,0.0775 m 0,0 0.0211,0.0763 m 0,0 0.02696,0.0739 m 0,0 0.03282,0.0716 m 0,0 0.03868,0.0681 m 0,0 0.04336,0.0657 m 0,0 0.04923,0.0622 m 0,0 0.05274,0.0575 m 0,0 0.05743,0.054 m 0,0 0.06212,0.0481 m 0,0 0.06446,0.0446 m 0,0 0.06915,0.0376 m 0,0 0.0715,0.0329 m 0,0 0.07267,0.0282 m 0,0 0.07618,0.0211 m 0,0 0.07736,0.0153 m 0,0 0.07736,0.009 m 0,0 0.07853,0.004 m 0,0 h 0.598934 m 0,0 0.05274,-0.004 m 0,0 0.05157,-0.008 m 0,0 0.0504,-0.0129 m 0,0 0.04922,-0.0188 m 0,0 0.04571,-0.0247 m 0,0 0.04454,-0.0282 m 0,0 0.04102,-0.0329 m 0,0 0.03634,-0.0376 m 0,0 0.03282,-0.0411 m 0,0 0.02813,-0.0434 m 0,0 0.02461,-0.047 m 0,0 0.01875,-0.0493 m 0,0 0.01289,-0.0505 m 0,0 0.0082,-0.0516 m 0,0 0.0035,-0.0528 m 0,0 v -5.61851 m 0,0 -0.0035,-0.10563 m 0,0 -0.0082,-0.10446 m 0,0 -0.01289,-0.10446 m 0,0 -0.01993,-0.10328 m 0,0 -0.02461,-0.10211 m 0,0 -0.0293,-0.10094 m 0,0 -0.03516,-0.0986 m 0,0 -0.03985,-0.0974 m 0,0 -0.04454,-0.0951 m 0,0 -0.0504,-0.0916 m 0,0 -0.05392,-0.0904 m 0,0 -0.05977,-0.0857 m 0,0 -0.06329,-0.0833 m 0,0 -0.06798,-0.081 m 0,0 -0.07267,-0.0751 m 0,0 -0.07618,-0.0728 m 0,0 -0.07853,-0.0681 m 0,0 -0.08322,-0.0646 m 0,0 -0.08673,-0.0587 m 0,0 -0.08908,-0.0552 m 0,0 -0.09142,-0.0505 m 0,0 -0.09494,-0.0446 m 0,0 -0.09611,-0.0411 m 0,0 -0.09846,-0.0352 m 0,0 -0.100798,-0.0293 m 0,0 -0.101971,-0.0246 m 0,0 -0.103142,-0.0188 m 0,0 -0.103143,-0.0141 m 0,0 -0.104317,-0.008 m 0,0 -0.104315,-0.002 m 0,0 h -6.213199 m 0,0 h -6.15225 m 0,0 h -1.422906 m 0,0 -0.05274,0.002 m 0,0 -0.05157,0.008 m 0,0 -0.0504,0.0141 m 0,0 -0.04806,0.0188 m 0,0 -0.04688,0.0235 m 0,0 -0.04454,0.0282 m 0,0 -0.03985,0.034 m 0,0 -0.03751,0.0364 m 0,0 -0.03282,0.0411 m 0,0 -0.02813,0.0434 m 0,0 -0.02344,0.0469 m 0,0 -0.01875,0.0493 m 0,0 -0.01406,0.0505 m 0,0 -0.0082,0.0528 m 0,0 -0.0023,0.0517 m 0,0 0.0023,0.0528 m 0,0 0.0082,0.0516 m 0,0 0.0023,0.008 m 0,0 1.700689,7.40018 m 0,0 0.0023,0.009 m 0,0 0.0082,0.0516 m 0,0 0.0023,0.0528 m 0,0 -0.0023,0.0517 m 0,0 -0.0082,0.0516 m 0,0 -0.01406,0.0516 m 0,0 -0.01875,0.0481 m 0,0 -0.02344,0.0469 m 0,0 -0.02813,0.0446 m 0,0 -0.03282,0.0411 m 0,0 -0.03751,0.0364 m 0,0 -0.04102,0.0329 m 0,0 -0.04337,0.0293 m 0,0 -0.04688,0.0235 m 0,0 -0.04805,0.0188 m 0,0 -0.05157,0.0141 m 0,0 -0.05157,0.008 m 0,0 -0.05157,0.002 m 0,0 h -1.476821 m 0,0 -0.05157,-0.002 m 0,0 -0.05157,-0.008 m 0,0 -0.0504,-0.0141 m 0,0 -0.04923,-0.0188 m 0,0 -0.04688,-0.0235 m 0,0 -0.04337,-0.0293 m 0,0 -0.04102,-0.0329 m 0,0 -0.03751,-0.0364 m 0,0 -0.03282,-0.0411 m 0,0 -0.02813,-0.0446 m 0,0 -0.02344,-0.0469 m 0,0 -0.01875,-0.0481 m 0,0 -0.0012,-0.005 m 0,0 -2.489499,-7.92718 m 0,0 -0.0012,-0.005 m 0,0 -0.01875,-0.0493 m 0,0 -0.02344,-0.0469 m 0,0 -0.02813,-0.0434 m 0,0 -0.03399,-0.0411 m 0,0 -0.03634,-0.0364 m 0,0 -0.04102,-0.034 m 0,0 -0.04337,-0.0282 m 0,0 -0.04688,-0.0235 m 0,0 -0.04923,-0.0188 m 0,0 -0.0504,-0.0141 m 0,0 -0.05157,-0.008 m 0,0 -0.05157,-0.002 m 12.26348,2.16548 -0.01758,-0.005 m 0,0 -0.05392,-0.0129 m 0,0 -0.03985,-0.007 m 0,0 -0.04806,-0.008 m 0,0 -0.05509,-0.008 m 0,0 -0.06446,-0.007 m 0,0 -0.04571,-0.005 m 0,0 -0.04922,-0.004 m 0,0 -0.05157,-0.001 m 0,0 -0.05392,-0.001"
       id="path1" />
  </g>
</svg>
