<?xml version="1.0" encoding="UTF-8" standalone="no"?>
<!-- Created with Inkscape (http://www.inkscape.org/) -->

<svg
   width="749.99994mm"
   height="258.9086mm"
   viewBox="0 0 749.99994 258.9086"
   version="1.1"
   id="svg1"
   xmlns="http://www.w3.org/2000/svg"
   xmlns:svg="http://www.w3.org/2000/svg">
  <defs
     id="defs1" />
  <g
     id="layer1"
     transform="translate(-1030.3801,189.15945)">
    <path
       style="fill:none;stroke:#000000;stroke-width:10.5837px;stroke-linecap:round;stroke-linejoin:round;stroke-miterlimit:4;stroke-dasharray:none;stroke-opacity:1"
       d="m 1525.6115,32.66118 1.0579,0.05988 m 0,0 1.038,0.159684 m 0,0 1.018,0.263479 m 0,0 0.9581,0.36927 m 0,0 0.9381,0.475061 m 0,0 0.8783,0.554903 m 0,0 0.8184,0.660694 m 0,0 0.7385,0.73854 m 0,0 0.6387,0.818382 m 0,0 0.5789,0.87028 m 0,0 0.479,0.924173 m 0,0 0.3793,0.976071 m 0,0 0.2595,1.004015 m 0,0 0.1996,1.029964 m 0,0 v 1.029964 m 0,0 v 11.903469 m 0,0 v 1.055913 m 0,0 0.1996,1.029964 m 0,0 0.2994,1.002019 m 0,0 0.3792,0.950122 m 0,0 0.4591,0.950121 m 0,0 0.5789,0.87028 m 0,0 0.6587,0.792434 m 0,0 0.7186,0.73854 m 0,0 0.8184,0.660694 m 0,0 0.8782,0.554903 m 0,0 0.9382,0.475061 m 0,0 0.978,0.36927 m 0,0 1.018,0.289427 m 0,0 1.038,0.159685 m 0,0 1.0379,0.05988 m 0,0 1.038,-0.05988 m 0,0 1.0379,-0.159685 m 0,0 1.018,-0.289427 m 0,0 0.9781,-0.36927 m 0,0 0.9381,-0.475061 m 0,0 0.8783,-0.554903 m 0,0 0.7984,-0.660694 m 0,0 0.7385,-0.73854 m 0,0 0.6587,-0.792434 m 0,0 0.5589,-0.87028 m 0,0 0.4791,-0.950121 m 0,0 0.3792,-0.950122 m 0,0 0.2595,-1.002019 m 0,0 0.1996,-1.029964 m 0,0 v -1.055913 m 0,0 V 4.8527517 m 0,0 V 3.796839 m 0,0 -0.1996,-1.0040153 m 0,0 -0.2595,-1.0020192 m 0,0 -0.3792,-0.97607048 m 0,0 -0.4791,-0.9241731 m 0,0 -0.5589,-0.87027963 m 0,0 -0.6587,-0.81838219 m 0,0 -0.7385,-0.7385401 m 0,0 -0.7984,-0.6606939 m 0,0 -0.8783,-0.5549031 m 0,0 -0.9381,-0.4750609 m 0,0 -0.9781,-0.36927 m 0,0 -1.018,-0.2634792 m 0,0 -1.0379,-0.1596843 m 0,0 -1.038,-0.059882 m 0,0 h -8.0042 m 0,0 -1.0379,-0.079842 m 0,0 -1.038,-0.1596843 m 0,0 -1.0179,-0.2634792 m 0,0 -0.9781,-0.36927 m 0,0 -0.9382,-0.4750609 m 0,0 -0.8782,-0.5549031 m 0,0 -0.7984,-0.6606939 m 0,0 -0.7386,-0.7385401 m 0,0 -0.6587,-0.8183822 m 0,0 -0.5589,-0.8702799 m 0,0 -0.479,-0.924173 m 0,0 -0.3793,-0.97607 m 0,0 -0.2395,-0.818382 m 0,0 -30.0486,-129.380845 m 0,0 h 113.7072 m 0,0 2.1019,0.0599 m 0,0 2.0739,0.17964 m 0,0 2.0739,0.26348 m 0,0 2.0739,0.36927 m 0,0 2.022,0.50101 m 0,0 2.02,0.58085 m 0,0 1.9761,0.68664 m 0,0 1.9361,0.79244 m 0,0 1.8963,0.89822 m 0,0 1.8364,1.00402 m 0,0 1.7764,1.08186 m 0,0 1.7366,1.18765 m 0,0 1.6567,1.2675 m 0,0 1.5969,1.34534 m 0,0 1.517,1.42518 m 0,0 1.4371,1.50502 m 0,0 1.3574,1.58287 m 0,0 1.2774,1.66272 m 0,0 1.1977,1.71461 m 0,0 1.0978,1.7685 m 0,0 0.9781,1.8204 m 0,0 0.8982,1.8743 m 0,0 0.7984,1.92619 m 0,0 0.7186,1.95214 m 0,0 0.5788,2.00584 m 0,0 0.4791,2.03238 m 0,0 0.3992,2.03238 m 0,0 0.2595,2.05853 m 0,0 0.1996,2.08508 m 0,0 v 2.08508 m 0,0 V 34.641266 m 0,0 v 1.556922 m 0,0 0.1996,1.556922 m 0,0 0.3194,1.505025 m 0,0 0.4191,1.505025 m 0,0 0.539,1.47708 m 0,0 0.6587,1.399234 m 0,0 0.7784,1.373285 m 0,0 0.8783,1.293444 m 0,0 0.9581,1.241545 m 0,0 1.0579,1.133759 m 0,0 1.1777,1.055913 m 0,0 1.2176,0.97607 m 0,0 1.2974,0.87028 m 0,0 1.3573,0.73854 m 0,0 1.4372,0.660694 m 0,0 1.4571,0.554903 m 0,0 1.517,0.423163 m 0,0 1.537,0.289428 m 0,0 1.5769,0.179645 m 0,0 1.5768,0.05988 m 0,0 0.4192,0.05988 m 0,0 1.5769,0.05988 m 0,0 1.5769,-0.05988 m 0,0 1.5369,-0.179644 m 0,0 1.537,-0.317373 m 0,0 1.517,-0.423164 m 0,0 1.4571,-0.526958 m 0,0 1.4372,-0.660694 m 0,0 1.3573,-0.766485 m 0,0 1.2974,-0.870279 m 0,0 1.2576,-0.950122 m 0,0 1.1377,-1.055913 m 0,0 1.0579,-1.161703 m 0,0 0.9781,-1.213601 m 0,0 0.8583,-1.293443 m 0,0 0.7784,-1.373286 m 0,0 0.6587,-1.399234 m 0,0 0.539,-1.47708 m 0,0 0.4191,-1.505025 m 0,0 0.3194,-1.530973 m 0,0 0.1996,-1.530974 m 0,0 V 34.75903 m 0,0 v -0.0998 m 0,0 v -156.93557 m 0,0 v -1.55692 m 0,0 0.1996,-1.55692 m 0,0 0.3194,-1.53098 m 0,0 0.4192,-1.50502 m 0,0 0.5389,-1.45113 m 0,0 0.6587,-1.42519 m 0,0 0.7785,-1.34534 m 0,0 0.8782,-1.29344 m 0,0 0.9581,-1.23955 m 0,0 1.0579,-1.13575 m 0,0 1.1378,-1.05592 m 0,0 1.2575,-0.97607 m 0,0 1.2974,-0.87028 m 0,0 1.3574,-0.76648 m 0,0 1.4371,-0.63275 m 0,0 1.4571,-0.5549 m 0,0 1.517,-0.42317 m 0,0 1.537,-0.28943 m 0,0 1.537,-0.17964 m 0,0 1.5768,-0.0798 m 0,0 1.5769,0.0798 m 0,0 1.5769,0.17964 m 0,0 1.537,0.28943 m 0,0 1.517,0.42317 m 0,0 1.4571,0.5549 m 0,0 1.4371,0.63275 m 0,0 1.3574,0.76648 m 0,0 1.2974,0.87028 m 0,0 1.2176,0.97607 m 0,0 1.1777,1.05592 m 0,0 1.0579,1.13575 m 0,0 0.9581,1.23955 m 0,0 0.8782,1.29344 m 0,0 0.7785,1.34534 m 0,0 0.6587,1.42519 m 0,0 0.5389,1.45113 m 0,0 0.4192,1.50502 m 0,0 0.3194,1.53098 m 0,0 0.1996,1.55692 m 0,0 v 1.55692 m 0,0 v 79.470703 m 0,0 v 1.556922 m 0,0 0.1996,1.530974 m 0,0 0.3194,1.530973 m 0,0 0.4191,1.505025 m 0,0 0.539,1.47708 m 0,0 0.6587,1.399234 m 0,0 0.7385,1.373285 m 0,0 0.8783,1.293444 m 0,0 0.978,1.213601 m 0,0 1.0579,1.161703 m 0,0 1.1378,1.055913 m 0,0 1.2176,0.950122 m 0,0 1.3373,0.870279 m 0,0 1.3574,0.766485 m 0,0 1.4371,0.660694 m 0,0 1.4571,0.526958 m 0,0 1.517,0.423164 m 0,0 1.537,0.317372 m 0,0 1.537,0.179645 m 0,0 1.5768,0.05988 m 0,0 h 11.9923 m 0,0 1.038,-0.05988 m 0,0 1.0379,-0.159684 m 0,0 1.018,-0.263479 m 0,0 0.9781,-0.36927 m 0,0 0.9381,-0.475061 m 0,0 0.8783,-0.580852 m 0,0 0.7984,-0.660694 m 0,0 0.7386,-0.712591 m 0,0 0.6587,-0.818382 m 0,0 0.5589,-0.87028 m 0,0 0.479,-0.924173 m 0,0 0.3793,-0.976071 m 0,0 0.2594,-1.002019 m 0,0 0.1996,-1.029964 m 0,0 v -1.029964 m 0,0 V -144.13393 m 0,0 v -2.08508 m 0,0 -0.1996,-2.05853 m 0,0 -0.2594,-2.05873 m 0,0 -0.3793,-2.05873 m 0,0 -0.499,-2.03238 m 0,0 -0.5789,-1.98009 m 0,0 -0.6986,-1.95214 m 0,0 -0.7984,-1.92619 m 0,0 -0.8982,-1.8743 m 0,0 -1.018,-1.84834 m 0,0 -1.0978,-1.76851 m 0,0 -1.1777,-1.71461 m 0,0 -1.2775,-1.63676 m 0,0 -1.3573,-1.58287 m 0,0 -1.4372,-1.50503 m 0,0 -1.5369,-1.45113 m 0,0 -1.5769,-1.34534 m 0,0 -1.6767,-1.26749 m 0,0 -1.7366,-1.16171 m 0,0 -1.7765,-1.10781 m 0,0 -1.8363,-0.97607 m 0,0 -1.8963,-0.89822 m 0,0 -1.9362,-0.79244 m 0,0 -1.976,-0.71259 m 0,0 -1.9961,-0.58085 m 0,0 -2.0479,-0.47506 m 0,0 -2.048,-0.39522 m 0,0 -2.0739,-0.26348 m 0,0 -2.0739,-0.15968 m 0,0 -2.1018,-0.0599 m 0,0 h -275.733 m 0,0 -1.0379,0.0599 m 0,0 -1.038,0.15968 m 0,0 -1.018,0.26348 m 0,0 -0.978,0.36927 m 0,0 -0.9382,0.47506 m 0,0 -0.8782,0.58085 m 0,0 -0.7985,0.63275 m 0,0 -0.7385,0.73854 m 0,0 -0.6587,0.81838 m 0,0 -0.5589,0.87028 m 0,0 -0.479,0.92418 m 0,0 -0.3793,0.97607 m 0,0 -0.2994,1.00401 m 0,0 -0.1996,1.02997 m 0,0 v 1.02996 m 0,0 v 1.02996 m 0,0 0.1996,1.02997 m 0,0 v 0.17964 m 0,0 34.0108,146.483835 m 0,0 v 0.179644 m 0,0 0.1996,1.029964 m 0,0 v 1.029964 m 0,0 v 1.029964 m 0,0 -0.1996,1.029964 m 0,0 -0.2994,1.004016 m 0,0 -0.3793,0.97607 m 0,0 -0.4591,0.924173 m 0,0 -0.5788,0.87028 m 0,0 -0.6587,0.818382 m 0,0 -0.7186,0.73854 m 0,0 -0.8184,0.660694 m 0,0 -0.8783,0.554903 m 0,0 -0.9381,0.475061 m 0,0 -0.9781,0.36927 m 0,0 -1.018,0.263479 m 0,0 -1.0379,0.159685 m 0,0 -1.038,0.05988 m 0,0 h -29.5176 m 0,0 -1.038,-0.05988 m 0,0 -1.0379,-0.159685 m 0,0 -1.018,-0.263479 m 0,0 -0.9781,-0.36927 m 0,0 -0.9381,-0.475061 m 0,0 -0.8783,-0.554903 m 0,0 -0.7984,-0.660694 m 0,0 -0.7385,-0.73854 m 0,0 -0.6587,-0.818382 m 0,0 -0.5589,-0.87028 m 0,0 -0.4791,-0.924173 m 0,0 -0.3992,-1.055913 m 0,0 -49.7816,-156.935568 m 0,0 -0.3992,-1.05591 m 0,0 -0.479,-0.92418 m 0,0 -0.5589,-0.87028 m 0,0 -0.6587,-0.81838 m 0,0 -0.7386,-0.73854 m 0,0 -0.8184,-0.63275 m 0,0 -0.8782,-0.58085 m 0,0 -0.9382,-0.47506 m 0,0 -0.9581,-0.36927 m 0,0 -1.018,-0.26348 m 0,0 -1.0379,-0.15968 m 0,0 -1.038,-0.0599 m 0,0 h -329.824 m 0,0 -1.0379,0.0599 m 0,0 -1.038,0.15968 m 0,0 -1.0179,0.26348 m 0,0 -0.9582,0.36927 m 0,0 -0.9381,0.47506 m 0,0 -0.8783,0.58085 m 0,0 -0.8183,0.63275 m 0,0 -0.7386,0.73854 m 0,0 -0.6387,0.81838 m 0,0 -0.5789,0.87028 m 0,0 -0.479,0.92418 m 0,0 -0.3793,0.97607 m 0,0 -0.2595,1.00401 m 0,0 -0.1996,1.02997 m 0,0 v 1.02996 m 0,0 V 44.576426 m 0,0 v 1.029964 m 0,0 0.1996,1.029964 m 0,0 0.2595,1.002019 m 0,0 0.3793,0.976071 m 0,0 0.479,0.924173 m 0,0 0.5789,0.870279 m 0,0 0.6387,0.818383 m 0,0 0.7386,0.73854 m 0,0 0.8183,0.660694 m 0,0 0.8783,0.554903 m 0,0 0.9381,0.47506 m 0,0 0.9582,0.369271 m 0,0 1.0179,0.263479 m 0,0 1.038,0.159684 m 0,0 1.0379,0.05988 m 0,0 h 75.9479 m 0,0 1.0379,-0.05988 m 0,0 1.038,-0.159684 m 0,0 1.018,-0.263479 m 0,0 0.9581,-0.369271 m 0,0 0.9581,-0.47506 m 0,0 0.8783,-0.554903 m 0,0 0.7984,-0.660694 m 0,0 0.7385,-0.73854 m 0,0 0.6587,-0.818383 m 0,0 0.5589,-0.870279 m 0,0 0.4791,-0.924173 m 0,0 0.3792,-0.976071 m 0,0 0.2595,-1.002019 m 0,0 0.1996,-1.029964 m 0,0 v -1.029964 m 0,0 v -7.944495 m 0,0 v -1.029964 m 0,0 -0.1996,-1.029964 m 0,0 -0.2595,-1.00202 m 0,0 -0.3792,-0.97607 m 0,0 -0.4791,-0.924173 m 0,0 -0.5589,-0.87028 m 0,0 -0.6587,-0.818382 m 0,0 -0.7385,-0.73854 m 0,0 -0.7984,-0.632749 m 0,0 -0.8783,-0.580852 m 0,0 -0.9581,-0.475061 m 0,0 -0.9581,-0.36927 m 0,0 -1.018,-0.263479 m 0,0 -1.038,-0.159684 m 0,0 -1.0379,-0.05988 m 0,0 h -57.9435 m 0,0 V -76.602428 m 0,0 h 33.9569 m 0,0 0.6388,-0.01996 m 0,0 0.6187,-0.0998 m 0,0 0.6188,-0.159684 m 0,0 0.5789,-0.237531 m 0,0 0.5589,-0.263479 m 0,0 0.5389,-0.343321 m 0,0 0.479,-0.395219 m 0,0 0.4591,-0.449112 m 0,0 0.3793,-0.475061 m 0,0 0.3393,-0.526958 m 0,0 0.2994,-0.554903 m 0,0 0.2196,-0.580852 m 0,0 0.1996,-0.606801 m 0,0 v -0.6068 m 0,0 0.02,-0.632749 m 0,0 v -15.888791 m 0,0 -0.02,-0.606801 m 0,0 v -0.632749 m 0,0 -0.1996,-0.606801 m 0,0 -0.2196,-0.58085 m 0,0 -0.2994,-0.55491 m 0,0 -0.3393,-0.52696 m 0,0 -0.3793,-0.47506 m 0,0 -0.4591,-0.44911 m 0,0 -0.479,-0.39522 m 0,0 -0.5389,-0.31737 m 0,0 -0.5589,-0.28943 m 0,0 -0.5789,-0.23753 m 0,0 -0.6188,-0.15968 m 0,0 -0.6187,-0.0798 m 0,0 -0.6388,-0.0599 m 0,0 h -27.9747 m 0,0 -0.6188,-0.02 m 0,0 -0.6387,-0.0998 m 0,0 -0.6188,-0.15968 m 0,0 -0.5788,-0.21159 m 0,0 -0.5589,-0.28942 m 0,0 -0.499,-0.34333 m 0,0 -0.4991,-0.39521 m 0,0 -0.4191,-0.42317 m 0,0 -0.3992,-0.50101 m 0,0 -0.3394,-0.52696 m 0,0 -0.2994,-0.5549 m 0,0 -0.2195,-0.58085 m 0,0 -0.1996,-0.6068 m 0,0 -0.1996,-0.6068 m 0,0 -0.02,-0.6068 m 0,0 v -3.6951 m 0,0 0.1996,-0.15968 m 0,0 1.0579,-1.13376 m 0,0 0.9781,-1.2136 m 0,0 0.8583,-1.31939 m 0,0 0.7784,-1.34534 m 0,0 0.6587,-1.42519 m 0,0 0.539,-1.45113 m 0,0 0.4191,-1.50502 m 0,0 0.3194,-1.53098 m 0,0 0.1996,-1.55692 m 0,0 v -1.55692 m 0,0 v -1.55692 m 0,0 -0.1996,-1.55693 m 0,0 -0.3194,-1.53097 m 0,0 -0.4191,-1.47708 m 0,0 -0.539,-1.47708 m 0,0 -0.6587,-1.42518 m 0,0 -0.7784,-1.34534 m 0,0 -0.8583,-1.29345 m 0,0 -0.9781,-1.24154 m 0,0 -1.0579,-1.13576 m 0,0 -0.1996,-0.13972 m 0,0 v -3.6951 m 0,0 0.02,-0.63274 m 0,0 0.1996,-0.6068 m 0,0 0.1996,-0.60681 m 0,0 0.2195,-0.58085 m 0,0 0.2994,-0.5549 m 0,0 0.3394,-0.52895 m 0,0 0.3992,-0.47507 m 0,0 0.4191,-0.44911 m 0,0 0.4991,-0.39522 m 0,0 0.499,-0.34332 m 0,0 0.5589,-0.26348 m 0,0 0.5788,-0.23753 m 0,0 0.6188,-0.15968 m 0,0 0.6387,-0.0998 m 0,0 0.6188,-0.02 m 0,0 h 276.9306 m 0,0 0.6387,0.02 m 0,0 0.6188,0.0998 m 0,0 0.6188,0.15968 m 0,0 0.5788,0.23753 m 0,0 0.5589,0.26348 m 0,0 0.539,0.34332 m 0,0 0.479,0.39522 m 0,0 0.4591,0.44911 m 0,0 0.3793,0.47507 m 0,0 0.3393,0.52895 m 0,0 0.2994,0.5549 m 0,0 0.2395,0.63275 m 0,0 11.3536,35.76311 m 0,0 0.1996,0.5549 m 0,0 0.1996,0.6068 m 0,0 v 0.63275 m 0,0 v 0.6068 m 0,0 -0.1996,0.6068 m 0,0 -0.1996,0.6068 m 0,0 -0.2396,0.58085 m 0,0 -0.2594,0.5549 m 0,0 -0.3394,0.52696 m 0,0 -0.3992,0.50101 m 0,0 -0.4591,0.42317 m 0,0 -0.479,0.39521 m 0,0 -0.539,0.34333 m 0,0 -0.5589,0.28942 m 0,0 -0.5788,0.21159 m 0,0 -0.6188,0.15968 m 0,0 -0.6188,0.0998 m 0,0 -0.6187,0.02 m 0,0 h -38.5319 m 0,0 -0.6187,0.0599 m 0,0 -0.6388,0.0798 m 0,0 -0.5788,0.15968 m 0,0 -0.5789,0.23753 m 0,0 -0.5589,0.28943 m 0,0 -0.5389,0.31737 m 0,0 -0.499,0.39522 m 0,0 -0.4192,0.44911 m 0,0 -0.3992,0.47506 m 0,0 -0.3394,0.52696 m 0,0 -0.2994,0.55491 m 0,0 -0.2195,0.58085 m 0,0 -0.1996,0.606801 m 0,0 -0.1996,0.632749 m 0,0 v 0.6068 m 0,0 v 15.888791 m 0,0 v 0.63275 m 0,0 0.1996,0.6068 m 0,0 0.1996,0.606801 m 0,0 0.2195,0.580851 m 0,0 0.2994,0.554903 m 0,0 0.3394,0.526959 m 0,0 0.3992,0.475061 m 0,0 0.4192,0.449112 m 0,0 0.499,0.395219 m 0,0 0.5389,0.343321 m 0,0 0.5589,0.263479 m 0,0 0.5789,0.237531 m 0,0 0.5788,0.159684 m 0,0 0.6388,0.0998 m 0,0 0.6187,0.01996 m 0,0 h 35.9789 m 0,0 v 27.818608 m 0,0 v 0.606801 m 0,0 0.1996,0.632749 m 0,0 0.1996,0.580852 m 0,0 0.2196,0.6068 m 0,0 0.2994,0.554903 m 0,0 0.3393,0.50101 m 0,0 0.3992,0.501009 m 0,0 0.4192,0.449113 m 0,0 0.499,0.36927 m 0,0 0.499,0.343321 m 0,0 0.5589,0.289428 m 0,0 0.6188,0.211582 m 0,0 0.5789,0.179644 m 0,0 0.6387,0.07984 m 0,0 0.6188,0.05988 m 0,0 h 19.8627 m 0,0 0.6387,0.01996 m 0,0 0.6188,0.07984 m 0,0 0.6188,0.179645 m 0,0 0.5789,0.211582 m 0,0 0.5588,0.289427 m 0,0 0.539,0.343322 m 0,0 0.479,0.36927 m 0,0 0.4591,0.449112 m 0,0 0.3793,0.50101 m 0,0 0.3393,0.501009 m 0,0 0.2994,0.554903 m 0,0 0.2395,0.632749 m 0,0 8.8286,27.818609 m 0,0 0.1996,0.554903 m 0,0 0.1996,0.6068002 m 0,0 v 0.6327492 m 0,0 v 0.6327492 m 0,0 -0.1996,0.6068005 m 0,0 -0.1996,0.6068004 m 0,0 -0.2196,0.5808518 m 0,0 -0.2994,0.5549031 m 0,0 -0.3393,0.5269583 m 0,0 -0.3992,0.4750609 m 0,0 -0.4192,0.4491122 m 0,0 -0.499,0.3952187 m 0,0 -0.5389,0.3433213 m 0,0 -0.5589,0.2634792 m 0,0 -0.5789,0.2375304 m 0,0 -0.5789,0.1596844 m 0,0 -0.6387,0.099803 m 0,0 -0.6188,0.01996 m 0,0 h -28.6912 m 0,0 -0.6188,0.019961 m 0,0 -0.6388,0.099803 m 0,0 -0.5788,0.1596843 m 0,0 -0.6188,0.2115818 m 0,0 -0.5589,0.2894278 m 0,0 -0.499,0.3433213 m 0,0 -0.499,0.3952188 m 0,0 -0.4192,0.4231635 m 0,0 -0.3992,0.50100957 m 0,0 -0.3393,0.52695831 m 0,0 -0.2994,0.55490307 m 0,0 -0.2196,0.58085177 m 0,0 -0.1996,0.60680048 m 0,0 -0.1996,0.6068005 m 0,0 v 0.6327492 m 0,0 V 26.660043 m 0,0 h -45.9512 m 0,0 -1.0579,0.05988 m 0,0 -1.0379,0.159684 m 0,0 -0.9781,0.263479 m 0,0 -0.9781,0.36927 m 0,0 -0.9381,0.475061 m 0,0 -0.8783,0.580852 m 0,0 -0.8184,0.632749 m 0,0 -0.7385,0.73854 m 0,0 -0.6387,0.818382 m 0,0 -0.5789,0.87028 m 0,0 -0.479,0.924173 m 0,0 -0.3793,0.976071 m 0,0 -0.2595,1.002019 m 0,0 -0.1996,1.029964 m 0,0 v 1.029964 m 0,0 v 7.944495 m 0,0 v 1.029964 m 0,0 0.1996,1.029964 m 0,0 0.2595,1.002019 m 0,0 0.3793,0.976071 m 0,0 0.479,0.924173 m 0,0 0.5789,0.870279 m 0,0 0.6387,0.818383 m 0,0 0.7385,0.73854 m 0,0 0.8184,0.660694 m 0,0 0.8783,0.554903 m 0,0 0.9381,0.475061 m 0,0 0.9781,0.36927 m 0,0 0.9781,0.263479 m 0,0 1.0379,0.159684 m 0,0 1.0579,0.05988 m 0,0 h 139.8476 m 0,0 h 0.1996 m 0,0 1.0379,-0.05988 m 0,0 1.038,-0.159684 m 0,0 1.018,-0.263479 m 0,0 0.978,-0.36927 m 0,0 0.9382,-0.475061 m 0,0 0.8782,-0.554903 m 0,0 0.7985,-0.660694 m 0,0 0.7385,-0.73854 m 0,0 0.6587,-0.818383 m 0,0 0.5589,-0.870279 m 0,0 0.479,-0.924173 m 0,0 0.3793,-0.976071 m 0,0 0.2595,-1.002019 m 0,0 0.1996,-1.029964 m 0,0 v -1.029964 m 0,0 v -1.004015 m 0,0 V 42.55482 m 0,0 v -1.029964 m 0,0 0.1996,-1.029964 m 0,0 0.2595,-1.004015 m 0,0 0.3792,-0.97607 m 0,0 0.4791,-0.924174 m 0,0 0.5788,-0.870279 m 0,0 0.6388,-0.818382 m 0,0 0.7385,-0.73854 m 0,0 0.8184,-0.660694 m 0,0 0.8783,-0.554903 m 0,0 0.9381,-0.475061 m 0,0 0.9781,-0.36927 m 0,0 1.018,-0.26348 m 0,0 1.018,-0.159684 m 0,0 1.0579,-0.05988 m 0,0 h 55.9234"
       id="path1" />
  </g>
</svg>
