<?xml version="1.0" encoding="UTF-8" standalone="no"?>
<!-- Created with Inkscape (http://www.inkscape.org/) -->

<svg
   width="750.00006mm"
   height="114.69341mm"
   viewBox="0 0 750.00005 114.69339"
   version="1.1"
   id="svg1"
   xmlns="http://www.w3.org/2000/svg"
   xmlns:svg="http://www.w3.org/2000/svg">
  <defs
     id="defs1" />
  <g
     id="layer1"
     transform="translate(-1021.1611,219.57566)">
    <path
       style="fill:none;stroke:#000000;stroke-width:13.4115px;stroke-linecap:round;stroke-linejoin:round;stroke-miterlimit:4;stroke-dasharray:none;stroke-opacity:1"
       d="m 1764.3699,-195.30184 v -4.89302 m 0,0 v -0.99 m 0,0 -0.15,-0.99001 m 0,0 -0.21,-0.99 m 0,0 -0.285,-0.96 m 0,0 -0.33,-0.94501 m 0,0 -0.435,-0.915 m 0,0 -0.48,-0.87001 m 0,0 -0.555,-0.84 m 0,0 -0.63,-0.795 m 0,0 -0.66,-0.73501 m 0,0 -0.735,-0.69 m 0,0 -0.795,-0.615 m 0,0 -0.84,-0.555 m 0,0 -0.87,-0.48001 m 0,0 -0.915,-0.435 m 0,0 -0.945,-0.33 m 0,0 -0.96,-0.285 m 0,0 -0.99,-0.255 m 0,0 h -0.99 m 0,0 h -0.99 m 0,0 h -507.1566 m 0,0 h -1.02 m 0,0 h -0.99 m 0,0 -0.99,0.255 m 0,0 -0.96,0.285 m 0,0 -0.945,0.33 m 0,0 -0.885,0.435 m 0,0 -0.885,0.48001 m 0,0 -0.84,0.555 m 0,0 -0.7951,0.615 m 0,0 -0.705,0.69 m 0,0 -0.69,0.73501 m 0,0 -0.63,0.795 m 0,0 -0.555,0.84 m 0,0 -0.48,0.87001 m 0,0 -0.405,0.915 m 0,0 -0.36,0.94501 m 0,0 -0.285,0.96 m 0,0 -0.18,0.99 m 0,0 -0.15,0.99001 m 0,0 v 0.99 m 0,0 v 30.35413 m 0,0 v 1.02 m 0,0 -0.15,0.99 m 0,0 -0.18,0.99001 m 0,0 -0.285,0.96 m 0,0 -0.36,0.915 m 0,0 -0.405,0.91501 m 0,0 -0.51,0.885 m 0,0 -0.54,0.81001 m 0,0 -0.63,0.795 m 0,0 -0.69,0.735 m 0,0 -0.735,0.69 m 0,0 -0.765,0.61501 m 0,0 -0.84,0.555 m 0,0 -0.885,0.51 m 0,0 -0.885,0.405 m 0,0 -0.945,0.36 m 0,0 -0.96,0.25501 m 0,0 -0.99,0.255 m 0,0 h -0.99 m 0,0 h -1.02 m 0,0 H 1050.745 m 0,0 h -1.8015 m 0,0 -1.8015,0.255 m 0,0 -1.7505,0.36 m 0,0 -1.725,0.48 m 0,0 -1.6995,0.63 m 0,0 -1.623,0.76501 m 0,0 -1.5721,0.87 m 0,0 -1.5,1.02 m 0,0 -1.425,1.12501 m 0,0 -1.32,1.215 m 0,0 -1.215,1.32001 m 0,0 -1.11,1.42501 m 0,0 -1.02,1.47 m 0,0 -0.87,1.54951 m 0,0 -0.765,1.626 m 0,0 -0.63,1.65151 m 0,0 -0.48,1.72651 m 0,0 -0.36,1.72801 m 0,0 -0.21,1.779 m 0,0 v 1.77751 m 0,0 v 1.77901 m 0,0 0.21,1.7775 m 0,0 0.36,1.75351 m 0,0 0.48,1.72801 m 0,0 0.63,1.65001 m 0,0 0.765,1.6515 m 0,0 0.87,1.57501 m 0,0 1.02,1.47 m 0,0 1.11,1.39501 m 0,0 1.215,1.32001 m 0,0 1.32,1.215 m 0,0 1.425,1.125 m 0,0 1.5,1.02001 m 0,0 1.5721,0.87 m 0,0 1.623,0.76501 m 0,0 1.6995,0.63 m 0,0 1.725,0.48 m 0,0 1.7505,0.36 m 0,0 1.8015,0.255 m 0,0 h 1.8015 m 0,0 h 221.7144 m 0,0 h 1.02 m 0,0 h 0.99 m 0,0 0.96,-0.255 m 0,0 0.96,-0.285 m 0,0 0.945,-0.33 m 0,0 0.915,-0.435 m 0,0 0.87,-0.48 m 0,0 0.84,-0.55501 m 0,0 0.795,-0.615 m 0,0 0.735,-0.69 m 0,0 0.69,-0.73501 m 0,0 0.615,-0.795 m 0,0 0.555,-0.84 m 0,0 0.51,-0.87001 m 0,0 0.405,-0.915 m 0,0 0.36,-0.945 m 0,0 0.255,-0.96001 m 0,0 0.21,-0.96 m 0,0 0.15,-1.02 m 0,0 v -0.99001 m 0,0 v -22.76259 m 0,0 v -1.02001 m 0,0 0.1501,-0.99 m 0,0 0.21,-0.96 m 0,0 0.285,-0.96001 m 0,0 0.33,-0.945 m 0,0 0.435,-0.91501 m 0,0 0.48,-0.87 m 0,0 0.555,-0.84 m 0,0 0.63,-0.79501 m 0,0 0.66,-0.735 m 0,0 0.735,-0.69 m 0,0 0.795,-0.615 m 0,0 0.84,-0.55501 m 0,0 0.87,-0.48 m 0,0 0.915,-0.435 m 0,0 0.945,-0.36 m 0,0 0.96,-0.255 m 0,0 0.99,-0.255 m 0,0 h 0.99 m 0,0 h 0.99 m 0,0 h 78.6498 m 0,0 0.18,0.255 m 0,0 0.96,0.915 m 0,0 1.02,0.855 m 0,0 1.065,0.81001 m 0,0 1.095,0.765 m 0,0 1.14,0.72 m 0,0 1.17,0.63001 m 0,0 1.2151,0.555 m 0,0 1.215,0.51 m 0,0 1.275,0.465 m 0,0 1.275,0.375 m 0,0 1.29,0.30001 m 0,0 1.32,0.255 m 0,0 1.32,0.255 m 0,0 h 1.35 m 0,0 h 1.32 m 0,0 h 1.35 m 0,0 h 1.32 m 0,0 1.32,-0.255 m 0,0 1.32,-0.255 m 0,0 1.29,-0.30001 m 0,0 1.29,-0.375 m 0,0 1.245,-0.465 m 0,0 1.245,-0.51 m 0,0 1.2,-0.555 m 0,0 1.17,-0.63001 m 0,0 1.1401,-0.72 m 0,0 1.095,-0.765 m 0,0 1.065,-0.81001 m 0,0 1.02,-0.855 m 0,0 0.96,-0.915 m 0,0 0.18,-0.255 m 0,0 h 227.5014 m 0,0 h 1.02 m 0,0 h 0.99 m 0,0 0.615,-0.255 m 0,0 111.0845,-22.9396 m 0,0 h 0.375 m 0,0 0.96,-0.285 m 0,0 0.945,-0.33 m 0,0 0.915,-0.435 m 0,0 0.87,-0.48 m 0,0 0.84,-0.55501 m 0,0 0.795,-0.615 m 0,0 0.735,-0.69 m 0,0 0.66,-0.73501 m 0,0 0.63,-0.795 m 0,0 0.555,-0.84 m 0,0 0.48,-0.87001 m 0,0 0.435,-0.915 m 0,0 0.33,-0.945 m 0,0 0.285,-0.96001 m 0,0 0.21,-0.96 m 0,0 0.15,-1.02 m 0,0 v -0.99001"
       id="path1" />
  </g>
</svg>
