<?xml version="1.0" encoding="UTF-8" standalone="no"?>
<!-- Created with Inkscape (http://www.inkscape.org/) -->

<svg
   width="749.99988mm"
   height="136.70682mm"
   viewBox="0 0 749.99987 136.70682"
   version="1.1"
   id="svg1"
   xmlns="http://www.w3.org/2000/svg"
   xmlns:svg="http://www.w3.org/2000/svg">
  <defs
     id="defs1" />
  <g
     id="layer1"
     transform="translate(-1028.2742,214.40683)">
    <path
       style="fill:none;stroke:#000000;stroke-width:5.30465px;stroke-linecap:round;stroke-linejoin:round;stroke-miterlimit:4;stroke-dasharray:none;stroke-opacity:1"
       d="m 1063.0686,-211.73644 h 685.4669 m 0,0 0.6672,0.0505 m 0,0 0.6672,0.10615 m 0,0 0.6066,0.21331 m 0,0 0.6065,0.29216 m 0,0 0.5359,0.37203 m 0,0 0.5054,0.4519 m 0,0 0.4246,0.47919 m 0,0 0.3741,0.55905 m 0,0 0.2932,0.58534 m 0,0 0.101,0.21331 m 0,0 22.0418,60.63996 m 0,0 0.1314,0.42561 m 0,0 0.1314,0.63791 m 0,0 v 0.6652 m 0,0 v 0.6652 m 0,0 -0.1314,0.63791 m 0,0 -0.2123,0.63791 m 0,0 -0.2932,0.58534 m 0,0 -0.374,0.53176 m 0,0 -0.4246,0.50548 m 0,0 -0.5055,0.45189 m 0,0 -0.556,0.34574 m 0,0 -0.5864,0.29217 m 0,0 -0.6369,0.2123 m 0,0 -0.6369,0.13344 m 0,0 -0.6672,0.0505 m 0,0 h -131.1575 m 0,0 -1.0605,0.0506 m 0,0 -1.0342,0.15973 m 0,0 -1.0352,0.26588 m 0,0 -0.9806,0.39932 m 0,0 -0.9301,0.47818 m 0,0 -0.8997,0.55906 m 0,0 -0.8189,0.6652 m 0,0 -0.738,0.77135 m 0,0 -0.6571,0.79764 m 0,0 -0.5864,0.90379 m 0,0 -0.4751,0.93109 m 0,0 -0.3741,0.98365 m 0,0 -0.2628,1.03723 m 0,0 -0.1618,1.03734 m 0,0 -0.101,1.06382 m 0,0 v 48.512003 m 0,0 v 0.31946 m 0,0 -0.1011,0.292164 m 0,0 -0.1315,0.292164 m 0,0 -0.1617,0.26588 m 0,0 -0.2123,0.239595 m 0,0 -0.2426,0.21331 m 0,0 -0.2629,0.15973 m 0,0 -0.2932,0.133445 m 0,0 -0.3235,0.08088 m 0,0 -0.3235,0.03033 m 0,0 h -26.2311 m 0,0 -0.3235,-0.03033 m 0,0 -0.2931,-0.08088 m 0,0 -0.2932,-0.133445 m 0,0 -0.2629,-0.15973 m 0,0 -0.2426,-0.21331 m 0,0 -0.2123,-0.239595 m 0,0 -0.1617,-0.26588 m 0,0 -0.1315,-0.292164 m 0,0 -0.1011,-0.292164 m 0,0 v -0.31946 m 0,0 v -16.170634 m 0,0 v -0.31946 m 0,0 -0.1011,-0.31946 m 0,0 -0.1314,-0.292164 m 0,0 -0.1617,-0.26588 m 0,0 -0.2123,-0.239595 m 0,0 -0.2427,-0.21331 m 0,0 -0.2628,-0.15973 m 0,0 -0.2932,-0.13345 m 0,0 -0.3235,-0.0505 m 0,0 -0.3235,-0.0303 m 0,0 h -64.5572 m 0,0 -0.3134,0.0303 m 0,0 -0.3235,0.0505 m 0,0 -0.2931,0.13345 m 0,0 -0.2629,0.15973 m 0,0 -0.2426,0.21331 m 0,0 -0.2123,0.239595 m 0,0 -0.1618,0.26588 m 0,0 -0.1314,0.292164 m 0,0 -0.1011,0.31946 m 0,0 v 0.31946 m 0,0 v 16.170634 m 0,0 v 0.31946 m 0,0 -0.1011,0.292164 m 0,0 -0.1314,0.292164 m 0,0 -0.1618,0.26588 m 0,0 -0.2123,0.239595 m 0,0 -0.2426,0.21331 m 0,0 -0.2628,0.15973 m 0,0 -0.2932,0.133445 m 0,0 -0.3235,0.08088 m 0,0 -0.3134,0.03033 m 0,0 h -21.1662 m 0,0 -0.3235,-0.03033 m 0,0 -0.3134,-0.08088 m 0,0 -0.2932,-0.133445 m 0,0 -0.2629,-0.15973 m 0,0 -0.2426,-0.21331 m 0,0 -0.2123,-0.239595 m 0,0 -0.1617,-0.26588 m 0,0 -0.1315,-0.292164 m 0,0 -0.1011,-0.292164 m 0,0 v -0.31946 m 0,0 v -31.330723 m 0,0 v -0.66521 m 0,0 0.1315,-0.6379 m 0,0 0.2123,-0.63791 m 0,0 0.2931,-0.58534 m 0,0 0.3741,-0.55805 m 0,0 0.4246,-0.50547 m 0,0 0.5055,-0.42561 m 0,0 0.556,-0.37203 m 0,0 0.5863,-0.29216 m 0,0 0.6066,-0.21331 m 0,0 0.6672,-0.13244 m 0,0 0.6673,-0.0303 m 0,0 h 95.8551 m 0,0 0.6369,-0.0505 m 0,0 0.6672,-0.13244 m 0,0 0.6066,-0.21331 m 0,0 0.6066,-0.29216 m 0,0 0.5358,-0.34575 m 0,0 0.5054,-0.45189 m 0,0 0.4246,-0.50548 m 0,0 0.3741,-0.53176 m 0,0 0.2932,-0.61162 m 0,0 0.2123,-0.61162 m 0,0 0.1314,-0.63791 m 0,0 0.1011,-0.66521 m 0,0 v -15.15999 m 0,0 0.1011,-1.59578 m 0,0 0.182,-1.56919 m 0,0 0.3235,-1.5692 m 0,0 0.4246,-1.51592 m 0,0 0.556,-1.48943 m 0,0 0.6672,-1.43625 m 0,0 0.7683,-1.38298 m 0,0 0.8796,-1.3298 m 0,0 0.9806,-1.25004 m 0,0 1.0878,-1.17028 m 0,0 1.1403,-1.06382 m 0,0 1.2465,-0.98466 m 0,0 1.3264,-0.87751 m 0,0 1.3789,-0.77135 m 0,0 1.4325,-0.6652 m 0,0 1.5114,-0.55906 m 0,0 1.5114,-0.42561 m 0,0 1.5649,-0.31946 m 0,0 1.565,-0.18601 m 0,0 1.5922,-0.0506 m 0,0 h 113.2809 m 0,0 0.6672,-0.0505 m 0,0 0.6672,-0.13243 m 0,0 0.6066,-0.21331 m 0,0 0.5863,-0.29217 m 0,0 0.5561,-0.34574 m 0,0 0.5054,-0.4519 m 0,0 0.4246,-0.47818 m 0,0 0.3741,-0.55905 m 0,0 0.2932,-0.58534 m 0,0 0.2123,-0.63791 m 0,0 0.1314,-0.63791 m 0,0 0.1011,-0.6652 m 0,0 -0.1011,-0.66521 m 0,0 -0.1314,-0.6379 m 0,0 -0.1315,-0.42561 m 0,0 -8.8063,-24.25601 m 0,0 -0.1011,-0.21331 m 0,0 -0.2932,-0.58534 m 0,0 -0.3741,-0.55905 m 0,0 -0.4246,-0.47818 m 0,0 -0.5054,-0.45189 m 0,0 -0.556,-0.37203 m 0,0 -0.5864,-0.29217 m 0,0 -0.6369,-0.2123 m 0,0 -0.6369,-0.10615 m 0,0 -0.6672,-0.0505 m 0,0 h -660.0577 m 0,0 -0.6672,0.0505 m 0,0 -0.6369,0.10615 m 0,0 -0.6369,0.2123 m 0,0 -0.5864,0.29217 m 0,0 -0.556,0.37203 m 0,0 -0.4751,0.45189 m 0,0 -0.455,0.47818 m 0,0 -0.374,0.55905 m 0,0 -0.2932,0.58534 m 0,0 -0.1011,0.21331 m 0,0 -12.465,34.36267 m 0,0 -0.1314,0.4256 m 0,0 -0.1314,0.63791 m 0,0 -0.1011,0.66521 m 0,0 0.1011,0.6652 m 0,0 0.1314,0.63791 m 0,0 0.2123,0.63791 m 0,0 0.2932,0.58534 m 0,0 0.3437,0.55905 m 0,0 0.4549,0.47919 m 0,0 0.5055,0.4519 m 0,0 0.5358,0.34574 m 0,0 0.6065,0.29217 m 0,0 0.6066,0.21331 m 0,0 0.6672,0.13243 m 0,0 0.6369,0.0506 m 0,0 h 55.5133 m 0,0 0.6571,0.0303 m 0,0 0.6369,0.13344 m 0,0 0.6369,0.2123 m 0,0 0.5863,0.29217 m 0,0 0.5561,0.37203 m 0,0 0.4751,0.4256 m 0,0 0.4549,0.50548 m 0,0 0.3741,0.55804 m 0,0 0.2932,0.58534 m 0,0 0.2123,0.63791 m 0,0 0.1011,0.63791 m 0,0 0.101,0.6652 m 0,0 v 28.45832 m 0,0 v 0.31946 m 0,0 -0.101,0.31946 m 0,0 -0.1011,0.29216 m 0,0 -0.1618,0.26588 m 0,0 -0.2123,0.2396 m 0,0 -18.9907,19.016454 m 0,0 -0.2426,0.21331 m 0,0 -0.2932,0.15973 m 0,0 -0.2931,0.132434 m 0,0 -0.2932,0.08088 m 0,0 -0.3235,0.03033 m 0,0 h -37.5032 m 0,0 -0.3134,-0.03033 m 0,0 -0.3235,-0.08088 m 0,0 -0.2932,-0.132434 m 0,0 -0.2628,-0.15973 m 0,0 -0.2426,-0.21331 m 0,0 -0.2123,-0.239595 m 0,0 -0.1618,-0.26588 m 0,0 -0.1314,-0.292164 m 0,0 -0.1011,-0.292164 m 0,0 v -0.31946 m 0,0 v -10.106661 m 0,0 v -0.6652 m 0,0 0.1314,-0.63791 m 0,0 0.2123,-0.63791 m 0,0 0.2932,-0.58534 m 0,0 0.374,-0.55905 m 0,0 0.4246,-0.50548 m 0,0 0.5055,-0.42561 m 0,0 0.556,-0.37203 m 0,0 0.5864,-0.29216 m 0,0 0.6369,-0.21331 m 0,0 0.6369,-0.13244 m 0,0 0.6672,-0.0303 m 0,0 h 35.3023 m 0,0 0.3235,-0.0303 m 0,0 0.3134,-0.0809 m 0,0 0.2932,-0.13344 m 0,0 0.2629,-0.15973 m 0,0 0.2426,-0.21331 m 0,0 0.2123,-0.2396 m 0,0 0.1617,-0.26588 m 0,0 0.1315,-0.29216 m 0,0 0.1011,-0.29217 m 0,0 v -0.31946 m 0,0 v -15.15999 m 0,0 v -0.31946 m 0,0 -0.1011,-0.31946 m 0,0 -0.1315,-0.29216 m 0,0 -0.1617,-0.26588 m 0,0 -0.2123,-0.23959 m 0,0 -0.2426,-0.21332 m 0,0 -0.2629,-0.15972 m 0,0 -0.2932,-0.10615 m 0,0 -0.3134,-0.0809 m 0,0 -0.3235,-0.0303 m 0,0 h -70.6319 m 0,0 -0.2932,-0.0303 m 0,0 -0.3235,-0.0809 m 0,0 -0.2932,-0.10615 m 0,0 -0.2628,-0.18602 m 0,0 -0.2427,-0.18601 m 0,0 -0.2123,-0.26588 m 0,0 -0.1617,-0.26588 m 0,0 -0.1314,-0.29217 m 0,0 -0.1011,-0.29216 m 0,0 v -0.31946 m 0,0 v -0.31946 m 0,0 0.1011,-0.37203 m 0,0 27.1864,-74.81588 m 0,0 0.1011,-0.21332 m 0,0 0.2932,-0.58533 m 0,0 0.374,-0.55906 m 0,0 0.4246,-0.47919 m 0,0 0.5055,-0.45189 m 0,0 0.556,-0.37203 m 0,0 0.5864,-0.29217 m 0,0 0.6065,-0.21331 m 0,0 0.6673,-0.10615 m 0,0 0.6672,-0.0505"
       id="path1" />
    <path
       style="fill:none;stroke:#000000;stroke-width:0.0265233px;stroke-linecap:round;stroke-linejoin:round;stroke-miterlimit:4;stroke-dasharray:none;stroke-opacity:1"
       d="m 1752.2487,-206.52358 -4.2966,-4.30866 m 14.3495,27.23486 -3.6344,-3.64376 m -4.2965,-4.28198 -4.2703,-4.28208 m -4.2702,-4.30866 -4.2966,-4.28198 m -4.2702,-4.28207 -3.0501,-3.05853 m 35.4348,48.37897 -0.2932,-0.29217 m -4.2702,-4.28207 -4.2703,-4.30857 m -4.2975,-4.28207 -4.2702,-4.28198 m -4.2966,-4.28208 -4.2702,-4.30866 m -4.2703,-4.28198 -4.2965,-4.28207 m -4.2703,-4.28198 -4.2965,-4.28208 m -4.2702,-4.30866 -0.8998,-0.90379 m 54.0807,67.02309 -3.9518,-3.93623 m -4.2702,-4.28208 -4.2976,-4.28208 m -4.2702,-4.30856 -4.2965,-4.28208 m -4.2703,-4.28197 -3.4746,-3.48414 m -22.1995,-22.23471 -4.2975,-4.30866 m -4.2702,-4.28198 -4.2703,-4.28207 m 54.7176,67.68809 -1.2192,-1.22345 m -4.2702,-4.28208 -4.2976,-4.30856 m -4.2702,-4.28208 -4.2966,-4.28198 m -34.1084,-34.17654 -0.1314,-0.13244 m -4.2702,-4.28207 -4.2966,-4.28198 m -4.2702,-4.28208 -4.2703,-4.30866 m 56.8659,69.84242 -3.3685,-3.37778 m -4.2702,-4.28198 -4.2966,-4.28207 m -4.2702,-4.28208 -1.9633,-1.96812 m -34.2944,-34.36266 -2.2807,-2.26068 m -4.2702,-4.30867 -4.2703,-4.28197 m -4.2965,-4.28208 -3.0501,-3.05852 m 56.5738,69.52316 -4.2966,-4.28208 m -4.2702,-4.30856 -4.2965,-4.28208 m -38.5122,-38.59146 -4.2965,-4.28207 m -4.2702,-4.28198 -4.2703,-4.28208 m -4.2975,-4.30866 -0.8998,-0.90379 m 54.4265,67.36883 -4.2976,-4.28197 m -4.2702,-4.28208 -4.2703,-4.28208 m -38.5373,-38.59146 -4.2703,-4.30866 m -4.2975,-4.28198 -4.2703,-4.28207 m 54.7176,67.68809 -1.2202,-1.22345 m -4.2702,-4.28208 -4.2966,-4.30856 m -4.2702,-4.28208 -4.0842,-4.09586 m -34.3218,-34.36266 -0.1112,-0.13244 m -4.2965,-4.28207 -4.2702,-4.28198 m -4.2966,-4.28208 -4.2702,-4.30866 m 56.8659,69.84242 -3.3685,-3.37778 m -4.2703,-4.28198 -4.2702,-4.28207 m -4.2966,-4.28208 -1.9632,-1.96812 m -34.2944,-34.36266 -2.2545,-2.26068 m -4.2965,-4.30867 -4.2702,-4.28197 m -4.2966,-4.28208 -3.051,-3.05852 m 56.5747,69.52316 -4.2965,-4.28208 m -4.2703,-4.30856 -4.2702,-4.28208 m -38.5384,-38.59146 -4.2702,-4.28207 m -4.2976,-4.28198 -4.2702,-4.28208 m -4.2703,-4.30866 -0.9301,-0.90379 m 54.4265,67.36883 -4.2703,-4.28197 m -4.2975,-4.28208 -4.2702,-4.28208 m -38.5384,-38.59146 -4.2703,-4.30866 m -4.2965,-4.28198 -4.2703,-4.28207 m 54.7439,67.68809 -1.2202,-1.22345 m -4.2965,-4.28208 -4.2703,-4.30857 m -4.2965,-4.28207 -4.0842,-4.09586 m -34.2955,-34.36266 -0.1314,-0.13244 m -4.2965,-4.28207 -4.2703,-4.28198 m -4.2702,-4.28208 -4.2965,-4.30866 m 56.8658,69.84242 -3.3422,-3.37778 m -4.2965,-4.28198 -4.2702,-4.28207 m -4.2966,-4.28208 -1.937,-1.96812 m -34.3207,-34.36266 -2.2544,-2.26068 m -4.2702,-4.30867 -4.2966,-4.28197 m -4.2702,-4.28208 -3.05,-3.05852 m 56.5474,69.52316 -4.2703,-4.28208 m -4.2975,-4.30856 -4.2703,-4.28208 m -38.5373,-38.59146 -4.2703,-4.28207 m -4.2702,-4.28198 -4.2976,-4.28208 m -4.2702,-4.30866 -0.9301,-0.90379 m 62.9933,75.95947 -4.2703,-4.30856 m -4.2975,-4.28208 -4.2703,-4.28197 m -47.0789,-47.15562 -4.2965,-4.30866 m -4.2703,-4.28198 -4.2965,-4.28207 m 71.8785,84.84278 -1.2475,-1.22345 m -4.2703,-4.30857 -4.2702,-4.28207 m -4.2966,-4.28198 -3.8982,-3.90974 m -51.615,-51.70357 -0.1314,-0.13244 m -4.2703,-4.28207 -4.2965,-4.28198 m -4.2702,-4.28208 -4.2703,-4.30866 m 83.469,96.49205 -4.2975,-4.30857 m -4.2703,-4.28207 -4.2965,-4.28198 m -66.202,-66.3317 -2.2807,-2.26068 m -4.2703,-4.30867 -4.2965,-4.28197 m -4.2702,-4.28208 -3.0511,-3.05852 m 99.3561,112.396698 -4.2703,-4.282078 m -4.2702,-4.30856 -4.2965,-4.28208 m -4.2703,-4.28197 -2.7316,-2.73947 m -74.3179,-74.44356 -4.2975,-4.28207 m -4.2703,-4.28198 -4.2702,-4.28208 m -4.2965,-4.30866 -0.8998,-0.90379 m 113.4406,126.492869 -3.3685,-3.377782 m -4.2975,-4.282077 -4.2703,-4.308563 m -4.2965,-4.282077 -4.2702,-4.28198 m -4.2703,-4.28207 -4.2965,-4.28208 m -4.2703,-4.30856 -0.1314,-0.10615 m -76.918,-77.04998 -4.2966,-4.30867 m -4.2702,-4.28197 -4.2703,-4.28208 m 115.2704,128.328043 -1.8308,-1.835175 m -4.2965,-4.308564 -4.2703,-4.282076 m -4.2965,-4.281976 -4.2702,-4.282076 m -4.2703,-4.282076 -4.2965,-4.30856 m -4.2703,-4.28208 -4.2965,-4.28198 m -76.9181,-77.05008 -0.1314,-0.13243 m -4.2702,-4.28208 -4.2703,-4.28198 m -4.2965,-4.28207 -4.2703,-4.30867 m 117.3914,130.482379 -3.9518,-3.989407 m -4.2965,-4.282077 -1.2202,-1.22345 m -10.6888,-10.718385 -0.93,-0.93108 m -4.2703,-4.28198 -4.2975,-4.28208 m -4.2703,-4.28207 -4.2702,-4.30857 m -74.7951,-74.89575 -2.2807,-2.26068 m -4.2702,-4.30867 -4.2703,-4.28197 m -4.2975,-4.28208 -3.0501,-3.05852 m 98.1359,111.17325 -3.0501,-3.05863 m -4.2702,-4.30856 -4.2965,-4.28208 m -4.2703,-4.28197 -2.2544,-2.26079 m -74.7961,-74.92224 -4.2702,-4.28207 m -4.2966,-4.28198 -4.2702,-4.28208 m -4.2965,-4.30866 -0.8998,-0.90379 m 97.2341,110.24237 -4.2965,-4.28197 m -4.2703,-4.28208 -4.2702,-4.28208 m -4.2966,-4.30856 -0.1112,-0.10615 m -76.9443,-77.04998 -4.2703,-4.30867 m -4.2965,-4.28197 -4.2702,-4.28208 m 92.0357,105.0561 -4.2702,-4.30856 m -4.2965,-4.28208 -4.2703,-4.28198 m -76.9443,-77.05008 -0.1112,-0.13243 m -4.2966,-4.28208 -4.2702,-4.28198 m -4.2965,-4.28207 -4.2703,-4.30867 m 97.2341,110.26906 -0.9301,-0.93108 m -4.2702,-4.28198 -4.2703,-4.28207 m -4.2975,-4.28208 -4.2703,-4.30856 m -74.795,-74.89576 -2.2544,-2.26068 m -4.2976,-4.30866 -4.2702,-4.28198 m -4.2703,-4.28208 -3.0763,-3.05852 m 104.4755,117.476617 -0.8189,-0.797638 m -4.2702,-4.282077 -4.2703,-4.282072 m -4.2965,-4.30857 -4.2702,-4.28207 m -4.2966,-4.28198 -1.1403,-1.14369 m -75.9102,-76.03933 -4.2702,-4.28208 m -4.2965,-4.28198 -4.2703,-4.28207 m -4.2702,-4.30867 -0.9301,-0.90378 m 114.3686,127.397157 -4.2975,-4.282076 m -4.2702,-4.282077 -4.2966,-4.308563 m -4.2702,-4.282081 -4.2703,-4.28197 m -89.9138,-90.02915 -4.2702,-4.30867 m -4.2703,-4.28197 -4.2965,-4.28208 m 115.2694,128.328044 -1.8298,-1.835175 m -4.2703,-4.308564 -4.2965,-4.282077 m -102.5921,-102.768828 -0.1314,-0.13243 m -4.2703,-4.28208 -4.2965,-4.28198 m -4.2703,-4.28207 -4.2975,-4.30867 m 4.4037,17.28774 -2.2554,-2.26069 m -4.2693,-4.30866 -4.2975,-4.28198 m -4.2703,-4.28207 -3.05,-3.05853 m 5.1983,18.05899 -4.2965,-4.28208 m -4.2703,-4.28198 -4.2965,-4.28207 m -4.2703,-4.30867 -0.8997,-0.90378 m 3.05,15.93124 -4.2965,-4.30867 m -4.2703,-4.28197 -4.2702,-4.28208 m 2.2544,15.1334 -0.1314,-0.13243 m -4.2703,-4.28208 -4.2975,-4.28198 m -4.2703,-4.28207 -4.2702,-4.30867 m 4.4037,17.28774 -2.2817,-2.26069 m -4.2703,-4.30866 -4.2702,-4.28198 m -4.2965,-4.28207 -3.0501,-3.05853 m 5.1983,18.05899 -4.2965,-4.28208 m -4.2703,-4.28198 -4.2702,-4.28207 m -4.2965,-4.30867 -0.8998,-0.90379 m 3.05,15.93125 -4.2702,-4.30867 m -4.2965,-4.28197 -4.2703,-4.28208 m 2.2544,15.1334 -0.1314,-0.13243 m -4.2702,-4.28208 -4.2703,-4.28198 m -4.2975,-4.28207 -4.2703,-4.30867 m 4.4027,17.28774 -2.2544,-2.26069 m -4.2966,-4.30866 -4.2702,-4.28198 m -4.2965,-4.28207 -3.0501,-3.05853 m 5.1983,18.05899 -4.2702,-4.28208 m -4.2965,-4.28198 -4.2703,-4.28207 m -4.2702,-4.30867 -0.9301,-0.90379 m 3.05,15.93125 -4.2702,-4.30867 m -4.2976,-4.28197 -4.2702,-4.28208 m 2.2554,15.1334 -0.1011,-0.13243 m -4.2975,-4.28208 -4.2703,-4.28198 m -4.2702,-4.28207 -4.2966,-4.30867 m 4.4027,17.28774 -2.2544,-2.26069 m -4.2965,-4.30866 -4.2703,-4.28198 m -4.2702,-4.28207 -3.0501,-3.05853 m 5.172,18.05899 -4.2702,-4.28208 m -4.2702,-4.28198 -4.2966,-4.28207 m -4.2702,-4.30867 -0.9301,-0.90379 m 3.0773,15.93125 -4.2965,-4.30867 m -4.2703,-4.28197 -4.2975,-4.28208 m 2.2817,15.1334 -0.1314,-0.13243 m -4.2703,-4.28208 -4.2965,-4.28198 m -4.2702,-4.28207 -4.2966,-4.30867 m 4.429,17.28774 -2.2807,-2.26069 m -4.2703,-4.30866 -4.2965,-4.28198 m -4.2702,-4.28207 -3.0501,-3.05853 m 5.1983,18.05899 -4.2965,-4.28208 m -4.2703,-4.28198 -4.2702,-4.28207 m -4.2965,-4.30867 -0.8998,-0.90379 m 3.0511,15.93125 -4.2976,-4.30867 m -4.2702,-4.28197 -4.2703,-4.28208 m 2.2544,15.1334 -0.1314,-0.13243 m -4.2702,-4.28208 -4.2703,-4.28198 m -4.2965,-4.28207 -4.2703,-4.30867 m 4.4027,17.28774 -2.2807,-2.26069 m -4.2702,-4.30866 -4.2703,-4.28198 m -4.2965,-4.28208 -3.05,-3.05852 m 5.1983,18.05899 -4.2703,-4.28208 m -4.2965,-4.28198 -4.2703,-4.28207 m -4.2975,-4.30867 -0.8998,-0.90379 m 3.0501,15.93125 -4.2703,-4.30867 m -4.2965,-4.28197 -4.2703,-4.28208 m 2.2545,15.1334 -0.1112,-0.13243 m -4.2966,-4.28208 -4.2702,-4.28198 m -4.2966,-4.28207 -4.2702,-4.30867 m 4.4027,17.28774 -2.2544,-2.26069 m -4.2966,-4.30866 -4.2702,-4.28198 m -4.2703,-4.28208 -3.0773,-3.05852 m 56.5747,69.52316 -4.2702,-4.28207 m -47.1052,-47.1821 -4.2702,-4.28208 m -4.2976,-4.28198 -4.2702,-4.28207 m 65.0616,78.03414 -2.9964,-3.00545 m -4.2703,-4.28208 -4.2975,-4.30856 m -4.2703,-4.28208 -4.2702,-4.28197 m -38.5374,-38.59157 -4.2703,-4.28197 m -4.2975,-4.28208 -2.122,-2.12774 m 69.3319,82.28953 -0.8492,-0.85122 m -4.2702,-4.28208 -4.2966,-4.28208 m -4.2702,-4.30856 -4.2976,-4.28208 m -4.2702,-4.28197 -4.2703,-4.28208 m -4.2965,-4.28208 -2.5729,-2.57984 m -25.1968,-25.24006 -2.2019,-2.2075 m -4.2702,-4.28198 -4.2703,-4.28208 m 63.3643,76.33191 -1.2991,-1.30322 m -4.2975,-4.28207 -4.2703,-4.30857 m -12.837,-12.84612 -4.2703,-4.28208 m -4.2965,-4.30856 -4.2703,-4.28208 m -4.2965,-4.28198 -0.4246,-0.42561 m -16.6827,-16.72918 -4.2975,-4.28198 m -4.2703,-4.28207 -4.2702,-4.30867 m 63.3643,76.3586 -1.2991,-1.30332 m -4.2976,-4.30856 -3.7395,-3.75012 m -21.9345,-21.96873 -4.2703,-4.28197 m -4.2965,-4.28208 -4.2703,-4.28208 m -12.838,-12.87261 -4.2965,-4.28208 m -4.2703,-4.28207 -1.6974,-1.70214 m 60.7914,73.752065 -1.3,-1.329802 m -4.2966,-4.282073 -4.2702,-4.28198 m -4.2703,-4.28208 -1.6438,-1.62237 m -19.1504,-19.20267 -0.6066,-0.61162 m -4.2965,-4.28208 -4.2702,-4.30856 m -4.2976,-4.28208 -4.2702,-4.28198 m -4.2703,-4.28207 -4.2965,-4.28208 m 49.2271,62.156076 -4.2702,-4.282076 m -4.2965,-4.28208 -4.2703,-4.30856 m -22.9425,-22.95279 -2.7326,-2.76606 m -4.2965,-4.28197 -4.2702,-4.28208 m -4.2966,-4.28207 -4.2702,-4.28198 m 40.6603,53.565334 -4.2702,-4.282074 m -4.2703,-4.28198 -4.2965,-4.28207 m -21.4048,-21.43677 -4.2703,-4.28208 m -4.2965,-4.30856 -1.2728,-1.27663 m 33.9497,46.862945 -0.556,-0.558044"
       id="path2" />
  </g>
</svg>
