<?xml version="1.0" encoding="UTF-8" standalone="no"?>
<!-- Created with Inkscape (http://www.inkscape.org/) -->

<svg
   width="60.469543mm"
   height="24.49909mm"
   viewBox="0 0 60.469543 24.49909"
   version="1.1"
   id="svg1"
   xmlns:inkscape="http://www.inkscape.org/namespaces/inkscape"
   xmlns:sodipodi="http://sodipodi.sourceforge.net/DTD/sodipodi-0.dtd"
   xmlns="http://www.w3.org/2000/svg"
   xmlns:svg="http://www.w3.org/2000/svg">
  <sodipodi:namedview
     id="namedview1"
     pagecolor="#ffffff"
     bordercolor="#999999"
     borderopacity="1"
     inkscape:showpageshadow="2"
     inkscape:pageopacity="0"
     inkscape:pagecheckerboard="0"
     inkscape:deskcolor="#d1d1d1"
     inkscape:document-units="mm">
    <inkscape:page
       x="0"
       y="0"
       width="60.469543"
       height="24.49909"
       id="page2"
       margin="0"
       bleed="0" />
  </sodipodi:namedview>
  <defs
     id="defs1" />
  <g
     inkscape:label="Ebene 1"
     inkscape:groupmode="layer"
     id="layer1"
     transform="translate(-29.549797,-131.40018)">
    <path
       style="fill:none;stroke:#000000;stroke-width:0.46083px;stroke-linecap:round;stroke-linejoin:round;stroke-miterlimit:4;stroke-dasharray:none;stroke-opacity:1"
       d="M 89.290044,131.63112 H 30.279092 m 0,0 -0.05141,0.002 m 0,0 -0.05141,0.008 m 0,0 -0.05142,0.0152 m 0,0 -0.04951,0.0171 m 0,0 -0.0457,0.0247 m 0,0 -0.0438,0.0285 m 0,0 -0.03999,0.0324 m 0,0 -0.03808,0.0381 m 0,0 -0.03237,0.04 m 0,0 -0.02856,0.0438 m 0,0 -0.02476,0.0476 m 0,0 -0.01904,0.0476 m 0,0 -0.01333,0.0514 m 0,0 -0.0076,0.0514 m 0,0 -0.0019,0.0533 m 0,0 v 12.01586 m 0,0 0.0019,0.0514 m 0,0 0.0076,0.0533 m 0,0 0.01333,0.0495 m 0,0 0.01904,0.0495 m 0,0 0.02476,0.0476 m 0,0 0.02856,0.0438 m 0,0 0.03237,0.04 m 0,0 0.03808,0.0362 m 0,0 0.03999,0.0343 m 0,0 0.0438,0.0286 m 0,0 0.0457,0.0228 m 0,0 0.04951,0.019 m 0,0 0.05142,0.0133 m 0,0 0.05141,0.01 m 0,0 0.05141,0.002 m 0,0 h 5.301445 m 0,0 0.03047,0.002 m 0,0 0.03047,0.008 m 0,0 0.03047,0.0133 m 0,0 0.02666,0.0152 m 0,0 0.02285,0.0209 m 0,0 0.02095,0.0228 m 0,0 0.01714,0.0266 m 0,0 0.01143,0.0305 m 0,0 0.0076,0.0305 m 0,0 0.0019,0.0305 m 0,0 v 1.60262 m 0,0 -0.0019,0.0305 m 0,0 -0.0076,0.0324 m 0,0 -0.01143,0.0285 m 0,0 -0.01714,0.0266 m 0,0 -0.02095,0.0228 m 0,0 -0.02285,0.0209 m 0,0 -0.02666,0.0171 m 0,0 -0.03047,0.0114 m 0,0 -0.03047,0.008 m 0,0 -0.03047,0.002 m 0,0 h -5.301445 m 0,0 -0.05141,0.004 m 0,0 -0.05141,0.008 m 0,0 -0.05142,0.0133 m 0,0 -0.04951,0.019 m 0,0 -0.0457,0.0228 m 0,0 -0.0438,0.0285 m 0,0 -0.03999,0.0343 m 0,0 -0.03808,0.0362 m 0,0 -0.03237,0.0419 m 0,0 -0.02856,0.0438 m 0,0 -0.02476,0.0457 m 0,0 -0.01904,0.0495 m 0,0 -0.01333,0.0514 m 0,0 -0.0076,0.0514 m 0,0 -0.0019,0.0514 m 0,0 v 0.70234 m 0,0 0.0019,0.0514 m 0,0 0.0076,0.0514 m 0,0 0.01333,0.0514 m 0,0 0.01904,0.0495 m 0,0 0.02476,0.0457 m 0,0 0.02856,0.0438 m 0,0 0.03237,0.0419 m 0,0 0.03808,0.0362 m 0,0 0.03999,0.0324 m 0,0 0.0438,0.0285 m 0,0 0.0457,0.0247 m 0,0 0.04951,0.019 m 0,0 0.05142,0.0133 m 0,0 0.05141,0.008 m 0,0 0.05141,0.004 m 0,0 h 1.586244 m 0,0 0.0076,0.006 m 0,0 0.05713,0.0533 m 0,0 0.06284,0.0495 m 0,0 0.06474,0.0438 m 0,0 0.06855,0.0381 m 0,0 0.07046,0.0324 m 0,0 0.07427,0.0285 m 0,0 0.07617,0.0209 m 0,0 0.07617,0.0152 m 0,0 0.07807,0.009 m 0,0 0.07807,0.002 m 0,0 0.07807,-0.002 m 0,0 0.07808,-0.009 m 0,0 0.07807,-0.0152 m 0,0 0.07617,-0.0209 m 0,0 0.07236,-0.0285 m 0,0 0.07236,-0.0324 m 0,0 0.06855,-0.0381 m 0,0 0.06475,-0.0438 m 0,0 0.06094,-0.0495 m 0,0 0.06475,-0.059 m 0,0 h 2.304148 m 0,0 0.03047,-0.004 m 0,0 0.03047,-0.008 m 0,0 0.03047,-0.0114 m 0,0 0.02666,-0.0152 m 0,0 0.02285,-0.0209 m 0,0 2.296532,-2.29925 m 0,0 0.01714,-0.019 m 0,0 0.03237,-0.04 m 0,0 0.02856,-0.0438 m 0,0 0.02475,-0.0476 m 0,0 0.01904,-0.0476 m 0,0 0.01333,-0.0514 m 0,0 0.0076,-0.0514 m 0,0 0.0038,-0.0533 m 0,0 v -1.99471 m 0,0 -0.0038,-0.0533 m 0,0 -0.0076,-0.0514 m 0,0 -0.01333,-0.0495 m 0,0 -0.01904,-0.0495 m 0,0 -0.02475,-0.0476 m 0,0 -0.02856,-0.0438 m 0,0 -0.03237,-0.04 m 0,0 -0.03618,-0.0381 m 0,0 -0.04189,-0.0324 m 0,0 -0.0438,-0.0285 m 0,0 -0.0457,-0.0228 m 0,0 -0.04951,-0.019 m 0,0 -0.04951,-0.0133 m 0,0 -0.05332,-0.01 m 0,0 -0.05141,-0.002 m 0,0 H 32.08051 m 0,0 -0.05332,-0.004 m 0,0 -0.05141,-0.008 m 0,0 -0.04951,-0.0133 m 0,0 -0.04951,-0.019 m 0,0 -0.04761,-0.0228 m 0,0 -0.0438,-0.0285 m 0,0 -0.03999,-0.0343 m 0,0 -0.03618,-0.0362 m 0,0 -0.03428,-0.0419 m 0,0 -0.02856,-0.0438 m 0,0 -0.02285,-0.0457 m 0,0 -0.01904,-0.0495 m 0,0 -0.01333,-0.0495 m 0,0 -0.0095,-0.0533 m 0,0 -0.0019,-0.0514 m 0,0 v -8.71159 m 0,0 0.0019,-0.0533 m 0,0 0.0095,-0.0514 m 0,0 0.01333,-0.0514 m 0,0 0.01904,-0.0476 m 0,0 0.02285,-0.0476 m 0,0 0.02856,-0.0438 m 0,0 0.03428,-0.04 m 0,0 0.03618,-0.0381 m 0,0 0.03999,-0.0324 m 0,0 0.0438,-0.0285 m 0,0 0.04761,-0.0248 m 0,0 0.04951,-0.0171 m 0,0 0.04951,-0.0152 m 0,0 0.05141,-0.008 m 0,0 0.05332,-0.002 m 0,0 h 55.408101 m 0,0 0.05332,0.002 m 0,0 0.05141,0.008 m 0,0 0.04951,0.0152 m 0,0 0.04951,0.0171 m 0,0 0.04761,0.0248 m 0,0 0.0438,0.0285 m 0,0 0.03999,0.0324 m 0,0 0.03618,0.0381 m 0,0 0.03428,0.04 m 0,0 0.02856,0.0438 m 0,0 0.02285,0.0476 m 0,0 0.01904,0.0476 m 0,0 0.01333,0.0514 m 0,0 0.0076,0.0514 m 0,0 0.0038,0.0533 m 0,0 v 4.40626 m 0,0 -0.0038,0.0514 m 0,0 -0.0076,0.0514 m 0,0 -0.01333,0.0514 m 0,0 -0.01904,0.0495 m 0,0 -0.02285,0.0457 m 0,0 -0.02856,0.0438 m 0,0 -0.03428,0.0419 m 0,0 -0.03618,0.0362 m 0,0 -0.03999,0.0324 m 0,0 -0.0438,0.0285 m 0,0 -0.04761,0.0247 m 0,0 -0.04951,0.019 m 0,0 -0.04951,0.0133 m 0,0 -0.05141,0.008 m 0,0 -0.05332,0.004 m 0,0 h -4.699702 m 0,0 -0.05332,0.002 m 0,0 -0.05141,0.008 m 0,0 -0.04951,0.0152 m 0,0 -0.04951,0.0171 m 0,0 -0.04761,0.0248 m 0,0 -0.0438,0.0285 m 0,0 -0.03999,0.0324 m 0,0 -0.03618,0.0381 m 0,0 -0.03428,0.04 m 0,0 -0.02856,0.0438 m 0,0 -0.02285,0.0476 m 0,0 -0.01904,0.0476 m 0,0 -0.01333,0.0514 m 0,0 -0.0076,0.0514 m 0,0 -0.0038,0.0533 m 0,0 v 2.00233 m 0,0 -0.0019,0.0514 m 0,0 -0.0095,0.0533 m 0,0 -0.01333,0.0495 m 0,0 -0.01904,0.0495 m 0,0 -0.02285,0.0457 m 0,0 -0.02857,0.0457 m 0,0 -0.03237,0.04 m 0,0 -0.03808,0.0362 m 0,0 -0.03999,0.0343 m 0,0 -0.0438,0.0286 m 0,0 -0.04761,0.0228 m 0,0 -0.04761,0.019 m 0,0 -0.05141,0.0133 m 0,0 -0.05142,0.01 m 0,0 -0.05141,0.002 m 0,0 h -4.602583 m 0,0 -0.104735,0.002 m 0,0 -0.102828,0.01 m 0,0 -0.104735,0.0133 m 0,0 -0.102831,0.019 m 0,0 -0.100925,0.0247 m 0,0 -0.100925,0.0285 m 0,0 -0.09902,0.0362 m 0,0 -0.09712,0.04 m 0,0 -0.09331,0.0457 m 0,0 -0.09331,0.0495 m 0,0 -0.0895,0.0552 m 0,0 -0.08569,0.059 m 0,0 -0.08379,0.0628 m 0,0 -0.07807,0.0685 m 0,0 -0.07617,0.0723 m 0,0 -0.07236,0.0761 m 0,0 -0.06855,0.0799 m 0,0 -0.06284,0.0838 m 0,0 -0.06094,0.0856 m 0,0 -0.05332,0.0895 m 0,0 -0.05142,0.0914 m 0,0 -0.0438,0.0952 m 0,0 -0.03999,0.0971 m 0,0 -0.03618,0.099 m 0,0 -0.02856,0.10088 m 0,0 -0.02475,0.10088 m 0,0 -0.01904,0.10468 m 0,0 -0.01333,0.10278 m 0,0 -0.0095,0.10469 m 0,0 -0.0019,0.10468 m 0,0 v 7.51063 m 0,0 -0.0019,0.0514 m 0,0 -0.0095,0.0533 m 0,0 -0.01333,0.0495 m 0,0 -0.01904,0.0495 m 0,0 -0.02285,0.0457 m 0,0 -0.02856,0.0457 m 0,0 -0.03237,0.04 m 0,0 -0.03809,0.0362 m 0,0 -0.03999,0.0343 m 0,0 -0.0438,0.0285 m 0,0 -0.0476,0.0228 m 0,0 -0.04761,0.019 m 0,0 -0.05142,0.0133 m 0,0 -0.05141,0.01 m 0,0 -0.05332,0.002 m 0,0 H 64.285273 m 0,0 -0.05141,0.002 m 0,0 -0.05332,0.01 m 0,0 -0.04951,0.0133 m 0,0 -0.04951,0.019 m 0,0 -0.0457,0.0228 m 0,0 -0.0438,0.0285 m 0,0 -0.04189,0.0343 m 0,0 -0.03618,0.0362 m 0,0 -0.03237,0.04 m 0,0 -0.02857,0.0457 m 0,0 -0.02475,0.0457 m 0,0 -0.01904,0.0495 m 0,0 -0.01333,0.0495 m 0,0 -0.0076,0.0533 m 0,0 -0.0038,0.0514 m 0,0 v 3.10436 m 0,0 0.0038,0.0305 m 0,0 0.0076,0.0305 m 0,0 0.01143,0.0305 m 0,0 0.01523,0.0266 m 0,0 0.02094,0.0228 m 0,0 0.02476,0.0209 m 0,0 0.02666,0.0171 m 0,0 0.02856,0.0114 m 0,0 0.03047,0.008 m 0,0 0.03047,0.002 m 0,0 h 2.100392 m 0,0 0.03237,-0.002 m 0,0 0.03047,-0.008 m 0,0 0.02856,-0.0114 m 0,0 0.02666,-0.0171 m 0,0 0.02476,-0.0209 m 0,0 0.01904,-0.0228 m 0,0 0.01714,-0.0266 m 0,0 0.01143,-0.0305 m 0,0 0.0076,-0.0305 m 0,0 0.0019,-0.0305 m 0,0 v -1.60262 m 0,0 0.0038,-0.0305 m 0,0 0.0076,-0.0305 m 0,0 0.01143,-0.0305 m 0,0 0.01714,-0.0266 m 0,0 0.01904,-0.0228 m 0,0 0.02475,-0.0209 m 0,0 0.02666,-0.0171 m 0,0 0.02856,-0.0114 m 0,0 0.03047,-0.008 m 0,0 0.03237,-0.002 m 0,0 h 6.4002 m 0,0 0.03047,0.002 m 0,0 0.03047,0.008 m 0,0 0.03047,0.0114 m 0,0 0.02666,0.0171 m 0,0 0.02285,0.0209 m 0,0 0.02095,0.0228 m 0,0 0.01714,0.0266 m 0,0 0.01143,0.0305 m 0,0 0.0076,0.0305 m 0,0 0.0019,0.0305 m 0,0 v 1.60262 m 0,0 0.0019,0.0305 m 0,0 0.0076,0.0305 m 0,0 0.01142,0.0305 m 0,0 0.01714,0.0266 m 0,0 0.02095,0.0228 m 0,0 0.02285,0.0209 m 0,0 0.02666,0.0171 m 0,0 0.03047,0.0114 m 0,0 0.03047,0.008 m 0,0 0.03047,0.002 m 0,0 h 2.500287 m 0,0 0.03237,-0.002 m 0,0 0.03047,-0.008 m 0,0 0.02856,-0.0114 m 0,0 0.02666,-0.0171 m 0,0 0.02285,-0.0209 m 0,0 0.02095,-0.0228 m 0,0 0.01714,-0.0266 m 0,0 0.01143,-0.0305 m 0,0 0.0076,-0.0305 m 0,0 0.0019,-0.0305 m 0,0 v -1.30189 m 0,0 0.0038,-0.0514 m 0,0 0.0076,-0.0533 m 0,0 0.01333,-0.0495 m 0,0 0.01904,-0.0495 m 0,0 0.02285,-0.0476 m 0,0 0.02856,-0.0438 m 0,0 0.03428,-0.04 m 0,0 0.03618,-0.0362 m 0,0 0.03999,-0.0343 m 0,0 0.0438,-0.0285 m 0,0 0.04761,-0.0228 m 0,0 0.04951,-0.019 m 0,0 0.04951,-0.0133 m 0,0 0.05141,-0.01 m 0,0 0.05332,-0.002 m 0,0 0.05142,-0.002 m 0,0 0.05141,-0.01 m 0,0 0.05141,-0.0133 m 0,0 0.04951,-0.019 m 0,0 0.0457,-0.0228 m 0,0 0.0438,-0.0285 m 0,0 0.04189,-0.0343 m 0,0 0.03618,-0.0362 m 0,0 0.03237,-0.04 m 0,0 0.02856,-0.0457 m 0,0 0.02476,-0.0457 m 0,0 0.01904,-0.0495 m 0,0 0.01333,-0.0495 m 0,0 0.0076,-0.0533 m 0,0 0.0019,-0.0514 m 0,0 v -8.51179 m 0,0 0.0038,-0.078 m 0,0 0.0095,-0.078 m 0,0 0.01523,-0.078 m 0,0 0.02095,-0.0761 m 0,0 0.02666,-0.0723 m 0,0 0.03428,-0.0723 m 0,0 0.03808,-0.0685 m 0,0 0.0438,-0.0647 m 0,0 0.04761,-0.0628 m 0,0 0.05332,-0.0571 m 0,0 0.05903,-0.0533 m 0,0 0.06094,-0.0495 m 0,0 0.06475,-0.0438 m 0,0 0.06855,-0.0381 m 0,0 0.07236,-0.0324 m 0,0 0.07236,-0.0266 m 0,0 0.07617,-0.0228 m 0,0 0.07617,-0.0152 m 0,0 0.07807,-0.008 m 0,0 0.07998,-0.004 m 0,0 h 5.899383 m 0,0 0.05332,-0.004 m 0,0 0.05141,-0.008 m 0,0 0.05142,-0.0133 m 0,0 0.0476,-0.019 m 0,0 0.04761,-0.0228 m 0,0 0.0438,-0.0285 m 0,0 0.03999,-0.0343 m 0,0 0.03808,-0.0362 m 0,0 0.03237,-0.04 m 0,0 0.02856,-0.0457 m 0,0 0.02285,-0.0457 m 0,0 0.01904,-0.0495 m 0,0 0.01333,-0.0495 m 0,0 0.0095,-0.0533 m 0,0 0.0019,-0.0514 m 0,0 v -0.40157 m 0,0 -0.0019,-0.0514 m 0,0 -0.0095,-0.0514 m 0,0 -0.01333,-0.0514 m 0,0 -0.01904,-0.0495 m 0,0 -0.02285,-0.0457 m 0,0 -0.02856,-0.0438 m 0,0 -0.03237,-0.0419 m 0,0 -0.03808,-0.0362 m 0,0 -0.03999,-0.0324 m 0,0 -0.0438,-0.0286 m 0,0 -0.04761,-0.0247 m 0,0 -0.0476,-0.019 m 0,0 -0.05142,-0.0133 m 0,0 -0.05141,-0.008 m 0,0 -0.05332,-0.004 m 0,0 h -0.298969 m 0,0 -0.03999,-0.002 m 0,0 -0.03809,-0.008 m 0,0 -0.03618,-0.0133 m 0,0 -0.03618,-0.0171 m 0,0 -0.03237,-0.0209 m 0,0 -0.03047,-0.0266 m 0,0 -0.02475,-0.0285 m 0,0 -0.02285,-0.0343 m 0,0 -0.01714,-0.0343 m 0,0 -0.01143,-0.0381 m 0,0 -0.0076,-0.0381 m 0,0 -0.0038,-0.0381 m 0,0 v -1.40281 m 0,0 0.0038,-0.0514 m 0,0 0.0076,-0.0533 m 0,0 0.01333,-0.0495 m 0,0 0.01904,-0.0495 m 0,0 0.02475,-0.0476 m 0,0 0.02857,-0.0438 m 0,0 0.03237,-0.04 m 0,0 0.03618,-0.0362 m 0,0 0.04189,-0.0343 m 0,0 0.0438,-0.0285 m 0,0 0.0457,-0.0228 m 0,0 0.04951,-0.019 m 0,0 0.04951,-0.0133 m 0,0 0.05332,-0.01 m 0,0 0.05141,-0.002 m 0,0 h 3.699968 m 0,0 0.05332,0.002 m 0,0 0.05141,0.01 m 0,0 0.04951,0.0133 m 0,0 0.04951,0.019 m 0,0 0.04761,0.0228 m 0,0 0.0438,0.0285 m 0,0 0.03999,0.0343 m 0,0 0.03618,0.0362 m 0,0 0.03428,0.04 m 0,0 0.02856,0.0438 m 0,0 0.02285,0.0476 m 0,0 0.01904,0.0495 m 0,0 0.01333,0.0495 m 0,0 0.0076,0.0533 m 0,0 0.0038,0.0514 m 0,0 v 1.40277 m 0,0 -0.0019,0.0381 m 0,0 -0.0076,0.0381 m 0,0 -0.01333,0.0381 m 0,0 -0.01714,0.0343 m 0,0 -0.02285,0.0343 m 0,0 -0.02475,0.0285 m 0,0 -0.03047,0.0267 m 0,0 -0.03237,0.0209 m 0,0 -0.03428,0.0171 m 0,0 -0.03808,0.0133 m 0,0 -0.03809,0.008 m 0,0 -0.03999,0.002 m 0,0 h -0.298777 m 0,0 -0.05332,0.004 m 0,0 -0.05142,0.008 m 0,0 -0.04951,0.0133 m 0,0 -0.04951,0.019 m 0,0 -0.04761,0.0247 m 0,0 -0.0438,0.0285 m 0,0 -0.03999,0.0324 m 0,0 -0.03618,0.0362 m 0,0 -0.03428,0.0419 m 0,0 -0.02856,0.0438 m 0,0 -0.02285,0.0457 m 0,0 -0.01904,0.0495 m 0,0 -0.01333,0.0514 m 0,0 -0.0076,0.0514 m 0,0 -0.0038,0.0514 m 0,0 v 0.40161 m 0,0 0.0038,0.0514 m 0,0 0.0076,0.0533 m 0,0 0.01333,0.0495 m 0,0 0.01904,0.0495 m 0,0 0.02285,0.0457 m 0,0 0.02856,0.0457 m 0,0 0.03428,0.04 m 0,0 0.03618,0.0362 m 0,0 0.03999,0.0343 m 0,0 0.0438,0.0285 m 0,0 0.04761,0.0228 m 0,0 0.04951,0.019 m 0,0 0.04951,0.0133 m 0,0 0.05142,0.008 m 0,0 0.05332,0.004 m 0,0 h 1.900447 m 0,0 0.05141,-0.004 m 0,0 0.05141,-0.008 m 0,0 0.05142,-0.0133 m 0,0 0.04951,-0.019 m 0,0 0.0457,-0.0228 m 0,0 0.0438,-0.0285 m 0,0 0.03999,-0.0343 m 0,0 0.03809,-0.0362 m 0,0 0.03237,-0.04 m 0,0 0.02856,-0.0457 m 0,0 0.02475,-0.0457 m 0,0 0.01714,-0.0495 m 0,0 0.01523,-0.0495 m 0,0 0.0076,-0.0533 m 0,0 0.0019,-0.0514 m 0,0 V 132.1317 m 0,0 -0.0019,-0.0533 m 0,0 -0.0076,-0.0514 m 0,0 -0.01523,-0.0514 m 0,0 -0.01714,-0.0476 m 0,0 -0.02475,-0.0476 m 0,0 -0.02856,-0.0438 m 0,0 -0.03237,-0.04 m 0,0 -0.03809,-0.0381 m 0,0 -0.03999,-0.0324 m 0,0 -0.0438,-0.0285 m 0,0 -0.0457,-0.0247 m 0,0 -0.04951,-0.0171 m 0,0 -0.05142,-0.0152 m 0,0 -0.05141,-0.008 m 0,0 -0.05141,-0.002"
       id="path1" />
  </g>
</svg>
