<?xml version="1.0" encoding="UTF-8" standalone="no"?>
<!-- Created with Inkscape (http://www.inkscape.org/) -->

<svg
   width="50.365929mm"
   height="24.565195mm"
   viewBox="0 0 50.365929 24.565195"
   version="1.1"
   id="svg1"
   xmlns:inkscape="http://www.inkscape.org/namespaces/inkscape"
   xmlns:sodipodi="http://sodipodi.sourceforge.net/DTD/sodipodi-0.dtd"
   xmlns="http://www.w3.org/2000/svg"
   xmlns:svg="http://www.w3.org/2000/svg">
  <sodipodi:namedview
     id="namedview1"
     pagecolor="#ffffff"
     bordercolor="#999999"
     borderopacity="1"
     inkscape:showpageshadow="2"
     inkscape:pageopacity="0"
     inkscape:pagecheckerboard="0"
     inkscape:deskcolor="#d1d1d1"
     inkscape:document-units="mm">
    <inkscape:page
       x="0"
       y="0"
       width="50.365929"
       height="24.565195"
       id="page2"
       margin="0"
       bleed="0" />
  </sodipodi:namedview>
  <defs
     id="defs1" />
  <g
     inkscape:label="Ebene 1"
     inkscape:groupmode="layer"
     id="layer1"
     transform="translate(-80.243349,-126.22349)">
    <path
       style="fill:none;stroke:#000000;stroke-width:0.461696px;stroke-linecap:round;stroke-linejoin:round;stroke-miterlimit:4;stroke-dasharray:none;stroke-opacity:1"
       d="M 129.87726,126.45625 H 80.974627 m 0,0 -0.05327,0.003 m 0,0 -0.05166,0.008 m 0,0 -0.05004,0.0146 m 0,0 -0.04843,0.0178 m 0,0 -0.04681,0.0243 m 0,0 -0.04359,0.0276 m 0,0 -0.04036,0.0341 m 0,0 -0.03713,0.0373 m 0,0 -0.0339,0.0406 m 0,0 -0.02744,0.0438 m 0,0 -0.02421,0.0471 m 0,0 -0.01776,0.0487 m 0,0 -0.01453,0.0503 m 0,0 -0.0081,0.052 m 0,0 -0.0032,0.0536 m 0,0 v 12.05116 m 0,0 0.0032,0.0519 m 0,0 0.0081,0.0519 m 0,0 0.01453,0.0519 m 0,0 0.01776,0.0487 m 0,0 0.02421,0.0471 m 0,0 0.02744,0.0438 m 0,0 0.0339,0.0406 m 0,0 0.03713,0.0373 m 0,0 0.04036,0.0325 m 0,0 0.04359,0.0292 m 0,0 0.04681,0.0243 m 0,0 0.04843,0.0179 m 0,0 0.05004,0.013 m 0,0 0.05166,0.01 m 0,0 0.05327,0.002 m 0,0 h 5.288517 m 0,0 0.03067,0.003 m 0,0 0.03067,0.007 m 0,0 0.02906,0.013 m 0,0 0.02744,0.0162 m 0,0 0.02421,0.0195 m 0,0 0.01937,0.0243 m 0,0 0.01614,0.0276 m 0,0 0.01292,0.0292 m 0,0 0.0065,0.0308 m 0,0 0.0032,0.0308 m 0,0 v 1.60704 m 0,0 -0.0032,0.0308 m 0,0 -0.0065,0.0308 m 0,0 -0.01292,0.0292 m 0,0 -0.01614,0.0276 m 0,0 -0.01937,0.0227 m 0,0 -0.02421,0.0211 m 0,0 -0.02744,0.0162 m 0,0 -0.02906,0.013 m 0,0 -0.03067,0.006 m 0,0 -0.03067,0.003 m 0,0 h -5.288517 m 0,0 -0.05327,0.002 m 0,0 -0.05166,0.008 m 0,0 -0.05004,0.0146 m 0,0 -0.04843,0.0179 m 0,0 -0.04681,0.0243 m 0,0 -0.04359,0.0292 m 0,0 -0.04036,0.0325 m 0,0 -0.03713,0.0373 m 0,0 -0.0339,0.0406 m 0,0 -0.02744,0.0438 m 0,0 -0.02421,0.0471 m 0,0 -0.01776,0.0487 m 0,0 -0.01453,0.0519 m 0,0 -0.0081,0.0519 m 0,0 -0.0032,0.0519 m 0,0 v 0.70287 m 0,0 0.0032,0.0519 m 0,0 0.0081,0.0519 m 0,0 0.01453,0.0519 m 0,0 0.01776,0.0487 m 0,0 0.02421,0.0471 m 0,0 0.02744,0.0438 m 0,0 0.0339,0.0406 m 0,0 0.03713,0.0373 m 0,0 0.04036,0.0325 m 0,0 0.04359,0.0292 m 0,0 0.04681,0.0243 m 0,0 0.04843,0.0179 m 0,0 0.05004,0.0146 m 0,0 0.05166,0.008 m 0,0 0.05327,0.002 m 0,0 h 1.582035 m 0,0 0.0065,0.008 m 0,0 0.05812,0.0536 m 0,0 0.06134,0.0487 m 0,0 0.06457,0.0438 m 0,0 0.06942,0.039 m 0,0 0.07103,0.0325 m 0,0 0.07264,0.0276 m 0,0 0.07587,0.0211 m 0,0 0.07749,0.0146 m 0,0 0.07749,0.01 m 0,0 0.07749,0.003 m 0,0 0.0791,-0.003 m 0,0 0.07749,-0.01 m 0,0 0.07749,-0.0146 m 0,0 0.07587,-0.0211 m 0,0 0.07264,-0.0276 m 0,0 0.07103,-0.0325 m 0,0 0.0678,-0.039 m 0,0 0.06619,-0.0438 m 0,0 0.06134,-0.0487 m 0,0 0.05812,-0.0536 m 0,0 0.0065,-0.008 m 0,0 h 2.298794 m 0,0 0.03067,-0.002 m 0,0 0.03067,-0.008 m 0,0 0.02906,-0.0114 m 0,0 0.02583,-0.0162 m 0,0 0.02421,-0.0211 m 0,0 2.290722,-2.30504 m 0,0 0.01776,-0.0179 m 0,0 0.03229,-0.0422 m 0,0 0.02906,-0.0438 m 0,0 0.02421,-0.0471 m 0,0 0.01776,-0.0487 m 0,0 0.01453,-0.0503 m 0,0 0.0081,-0.0519 m 0,0 0.0032,-0.0519 m 0,0 v -2.00149 m 0,0 -0.0032,-0.0536 m 0,0 -0.0081,-0.0519 m 0,0 -0.01453,-0.0503 m 0,0 -0.01776,-0.0487 m 0,0 -0.02421,-0.0471 m 0,0 -0.02906,-0.0438 m 0,0 -0.03229,-0.0406 m 0,0 -0.03713,-0.0373 m 0,0 -0.04036,-0.0341 m 0,0 -0.04359,-0.0276 m 0,0 -0.04682,-0.0243 m 0,0 -0.04843,-0.0195 m 0,0 -0.05004,-0.013 m 0,0 -0.05166,-0.008 m 0,0 -0.05327,-0.003 m 0,0 h -5.588787 m 0,0 -0.05166,-0.002 m 0,0 -0.05166,-0.01 m 0,0 -0.05004,-0.013 m 0,0 -0.04843,-0.0195 m 0,0 -0.04681,-0.0227 m 0,0 -0.04359,-0.0292 m 0,0 -0.04036,-0.0325 m 0,0 -0.03713,-0.0373 m 0,0 -0.0339,-0.0406 m 0,0 -0.02744,-0.0438 m 0,0 -0.02421,-0.0471 m 0,0 -0.01937,-0.0503 m 0,0 -0.01291,-0.0503 m 0,0 -0.0081,-0.0519 m 0,0 -0.0032,-0.0519 m 0,0 v -8.73802 m 0,0 0.0032,-0.0519 m 0,0 0.0081,-0.0519 m 0,0 0.01291,-0.0503 m 0,0 0.01937,-0.0487 m 0,0 0.02421,-0.0471 m 0,0 0.02744,-0.0438 m 0,0 0.0339,-0.0422 m 0,0 0.03713,-0.0373 m 0,0 0.04036,-0.0325 m 0,0 0.04359,-0.0292 m 0,0 0.04681,-0.0227 m 0,0 0.04843,-0.0195 m 0,0 0.05004,-0.013 m 0,0 0.05166,-0.008 m 0,0 0.05166,-0.003 m 0,0 h 45.310769 m 0,0 0.0517,0.003 m 0,0 0.0517,0.008 m 0,0 0.05,0.013 m 0,0 0.0484,0.0195 m 0,0 0.0468,0.0227 m 0,0 0.0436,0.0292 m 0,0 0.042,0.0325 m 0,0 0.0355,0.0373 m 0,0 0.0339,0.0422 m 0,0 0.0274,0.0438 m 0,0 0.0242,0.0471 m 0,0 0.0194,0.0487 m 0,0 0.0129,0.0503 m 0,0 0.008,0.0519 m 0,0 0.003,0.0519 m 0,0 v 4.42016 m 0,0 -0.003,0.052 m 0,0 -0.008,0.0519 m 0,0 -0.0129,0.0503 m 0,0 -0.0194,0.0487 m 0,0 -0.0242,0.0471 m 0,0 -0.0274,0.0438 m 0,0 -0.0339,0.0422 m 0,0 -0.0355,0.0357 m 0,0 -0.042,0.0341 m 0,0 -0.0436,0.0276 m 0,0 -0.0468,0.0243 m 0,0 -0.0484,0.0195 m 0,0 -0.05,0.013 m 0,0 -0.0517,0.008 m 0,0 -0.0517,0.003 m 0,0 h -4.69121 m 0,0 -0.0517,0.003 m 0,0 -0.0517,0.008 m 0,0 -0.05,0.013 m 0,0 -0.05,0.0195 m 0,0 -0.0452,0.0227 m 0,0 -0.0452,0.0292 m 0,0 -0.0404,0.0325 m 0,0 -0.0371,0.0373 m 0,0 -0.0323,0.0406 m 0,0 -0.0291,0.0455 m 0,0 -0.0226,0.0455 m 0,0 -0.0194,0.0503 m 0,0 -0.0129,0.0503 m 0,0 -0.008,0.0519 m 0,0 -0.003,0.0519 m 0,0 v 2.00961 m 0,0 -0.003,0.0519 m 0,0 -0.008,0.0519 m 0,0 -0.0129,0.0503 m 0,0 -0.0194,0.0487 m 0,0 -0.0226,0.0471 m 0,0 -0.0291,0.0438 m 0,0 -0.0323,0.0422 m 0,0 -0.0371,0.0357 m 0,0 -0.0404,0.0341 m 0,0 -0.0452,0.0292 m 0,0 -0.0452,0.0227 m 0,0 -0.05,0.0195 m 0,0 -0.05,0.013 m 0,0 -0.0517,0.008 m 0,0 -0.0517,0.003 m 0,0 h -4.59113 m 0,0 -0.10494,0.003 m 0,0 -0.10331,0.008 m 0,0 -0.10332,0.013 m 0,0 -0.10331,0.0195 m 0,0 -0.10171,0.0243 m 0,0 -0.10009,0.0308 m 0,0 -0.0985,0.0341 m 0,0 -0.0969,0.0406 m 0,0 -0.0936,0.0454 m 0,0 -0.092,0.0503 m 0,0 -0.0888,0.0552 m 0,0 -0.0872,0.0584 m 0,0 -0.0823,0.0649 m 0,0 -0.0791,0.0682 m 0,0 -0.0759,0.0714 m 0,0 -0.0726,0.0763 m 0,0 -0.0678,0.0812 m 0,0 -0.063,0.0828 m 0,0 -0.0597,0.086 m 0,0 -0.0549,0.0909 m 0,0 -0.05,0.0925 m 0,0 -0.0452,0.0941 m 0,0 -0.0387,0.0974 m 0,0 -0.0355,0.099 m 0,0 -0.0291,0.10064 m 0,0 -0.0242,0.10227 m 0,0 -0.0194,0.10389 m 0,0 -0.0145,0.10389 m 0,0 -0.008,0.10551 m 0,0 -0.002,0.10389 m 0,0 v 7.53197 m 0,0 -0.003,0.0536 m 0,0 -0.008,0.0519 m 0,0 -0.0145,0.0503 m 0,0 -0.0178,0.0487 m 0,0 -0.0242,0.0471 m 0,0 -0.0274,0.0438 m 0,0 -0.0339,0.0406 m 0,0 -0.0371,0.0373 m 0,0 -0.0404,0.0341 m 0,0 -0.0436,0.0276 m 0,0 -0.0468,0.0243 m 0,0 -0.0484,0.0195 m 0,0 -0.05,0.013 m 0,0 -0.0517,0.008 m 0,0 -0.0533,0.003 m 0,0 H 104.9269 m 0,0 -0.0517,0.002 m 0,0 -0.0517,0.01 m 0,0 -0.0517,0.013 m 0,0 -0.0484,0.0195 m 0,0 -0.0468,0.0227 m 0,0 -0.0436,0.0292 m 0,0 -0.0404,0.0325 m 0,0 -0.0371,0.0373 m 0,0 -0.0323,0.0406 m 0,0 -0.0291,0.0438 m 0,0 -0.0226,0.0471 m 0,0 -0.0194,0.0503 m 0,0 -0.0129,0.0503 m 0,0 -0.008,0.0519 m 0,0 -0.003,0.0519 m 0,0 v 3.11344 m 0,0 0.002,0.0308 m 0,0 0.008,0.0308 m 0,0 0.0113,0.0292 m 0,0 0.0161,0.0276 m 0,0 0.021,0.0243 m 0,0 0.0242,0.0195 m 0,0 0.0258,0.0162 m 0,0 0.0291,0.013 m 0,0 0.0307,0.007 m 0,0 0.0307,0.003 m 0,0 h 2.097 m 0,0 0.0307,-0.003 m 0,0 0.0307,-0.007 m 0,0 0.0291,-0.013 m 0,0 0.0258,-0.0162 m 0,0 0.0242,-0.0195 m 0,0 0.021,-0.0243 m 0,0 0.0161,-0.0276 m 0,0 0.0113,-0.0292 m 0,0 0.008,-0.0308 m 0,0 0.002,-0.0308 m 0,0 v -1.60704 m 0,0 0.003,-0.0308 m 0,0 0.007,-0.0308 m 0,0 0.0129,-0.0292 m 0,0 0.0161,-0.0276 m 0,0 0.021,-0.0227 m 0,0 0.0226,-0.0211 m 0,0 0.0275,-0.0162 m 0,0 0.0291,-0.013 m 0,0 0.0307,-0.006 m 0,0 0.0307,-0.003 m 0,0 h 6.38787 m 0,0 0.0307,0.003 m 0,0 0.0307,0.006 m 0,0 0.0291,0.013 m 0,0 0.0258,0.0162 m 0,0 0.0242,0.0211 m 0,0 0.021,0.0227 m 0,0 0.0161,0.0276 m 0,0 0.0113,0.0292 m 0,0 0.008,0.0308 m 0,0 0.002,0.0308 m 0,0 v 1.60704 m 0,0 0.003,0.0308 m 0,0 0.007,0.0308 m 0,0 0.0129,0.0292 m 0,0 0.0161,0.0276 m 0,0 0.021,0.0243 m 0,0 0.0226,0.0195 m 0,0 0.0274,0.0162 m 0,0 0.0291,0.013 m 0,0 0.0307,0.007 m 0,0 0.0307,0.003 m 0,0 h 2.49413 m 0,0 0.0323,-0.003 m 0,0 0.0307,-0.007 m 0,0 0.0291,-0.013 m 0,0 0.0258,-0.0162 m 0,0 0.0242,-0.0195 m 0,0 0.021,-0.0243 m 0,0 0.0161,-0.0276 m 0,0 0.0113,-0.0292 m 0,0 0.008,-0.0308 m 0,0 0.002,-0.0308 m 0,0 v -1.30511 m 0,0 0.003,-0.0536 m 0,0 0.008,-0.0519 m 0,0 0.0129,-0.0503 m 0,0 0.0194,-0.0487 m 0,0 0.0242,-0.0471 m 0,0 0.0274,-0.0438 m 0,0 0.0339,-0.0406 m 0,0 0.0355,-0.0373 m 0,0 0.042,-0.0341 m 0,0 0.0436,-0.0276 m 0,0 0.0468,-0.0243 m 0,0 0.0484,-0.0179 m 0,0 0.05,-0.0146 m 0,0 0.0517,-0.008 m 0,0 0.0517,-0.003 m 0,0 0.0533,-0.002 m 0,0 0.0517,-0.008 m 0,0 0.05,-0.0146 m 0,0 0.0484,-0.0179 m 0,0 0.0468,-0.0243 m 0,0 0.0436,-0.0292 m 0,0 0.0404,-0.0325 m 0,0 0.0371,-0.0373 m 0,0 0.0323,-0.0406 m 0,0 0.0291,-0.0438 m 0,0 0.0242,-0.0471 m 0,0 0.0178,-0.0487 m 0,0 0.0145,-0.0519 m 0,0 0.008,-0.0519 m 0,0 0.002,-0.0519 m 0,0 v -8.53678 m 0,0 0.003,-0.0779 m 0,0 0.01,-0.0795 m 0,0 0.0145,-0.0763 m 0,0 0.0226,-0.0763 m 0,0 0.0258,-0.0747 m 0,0 0.0339,-0.0714 m 0,0 0.0371,-0.0682 m 0,0 0.0436,-0.0649 m 0,0 0.0484,-0.0633 m 0,0 0.0533,-0.0568 m 0,0 0.0581,-0.0536 m 0,0 0.0613,-0.0487 m 0,0 0.0662,-0.0438 m 0,0 0.0678,-0.039 m 0,0 0.071,-0.0325 m 0,0 0.0743,-0.0276 m 0,0 0.0743,-0.0211 m 0,0 0.0775,-0.0162 m 0,0 0.0775,-0.01 m 0,0 0.0791,-0.002 m 0,0 h 5.88743 m 0,0 0.0517,-0.003 m 0,0 0.0517,-0.008 m 0,0 0.0517,-0.0146 m 0,0 0.0484,-0.0179 m 0,0 0.0468,-0.0243 m 0,0 0.0436,-0.0292 m 0,0 0.0404,-0.0325 m 0,0 0.0371,-0.0373 m 0,0 0.0323,-0.0406 m 0,0 0.0291,-0.0438 m 0,0 0.0226,-0.0471 m 0,0 0.0194,-0.0487 m 0,0 0.0129,-0.0503 m 0,0 0.01,-0.0519 m 0,0 0.002,-0.0536 m 0,0 v -0.40095 m 0,0 -0.002,-0.0536 m 0,0 -0.01,-0.0519 m 0,0 -0.0129,-0.0503 m 0,0 -0.0194,-0.0487 m 0,0 -0.0226,-0.0471 m 0,0 -0.0291,-0.0438 m 0,0 -0.0323,-0.0406 m 0,0 -0.0371,-0.0373 m 0,0 -0.0404,-0.0341 m 0,0 -0.0436,-0.0276 m 0,0 -0.0468,-0.0243 m 0,0 -0.0484,-0.0179 m 0,0 -0.0517,-0.0146 m 0,0 -0.0517,-0.008 m 0,0 -0.0517,-0.003 m 0,0 h -0.29865 m 0,0 -0.0404,-0.002 m 0,0 -0.0371,-0.008 m 0,0 -0.0371,-0.013 m 0,0 -0.0355,-0.0162 m 0,0 -0.0323,-0.0227 m 0,0 -0.0307,-0.026 m 0,0 -0.0242,-0.0292 m 0,0 -0.0226,-0.0325 m 0,0 -0.0178,-0.0357 m 0,0 -0.0129,-0.0373 m 0,0 -0.007,-0.039 m 0,0 -0.003,-0.039 m 0,0 v -1.40578 m 0,0 0.003,-0.0536 m 0,0 0.008,-0.052 m 0,0 0.0129,-0.0503 m 0,0 0.0194,-0.0487 m 0,0 0.0242,-0.0471 m 0,0 0.0274,-0.0438 m 0,0 0.0339,-0.0406 m 0,0 0.0355,-0.0373 m 0,0 0.042,-0.0341 m 0,0 0.0436,-0.0276 m 0,0 0.0468,-0.0243 m 0,0 0.0484,-0.0195 m 0,0 0.05,-0.013 m 0,0 0.0517,-0.008 m 0,0 0.0517,-0.003 m 0,0 h 3.69357 m 0,0 0.0517,0.003 m 0,0 0.0517,0.008 m 0,0 0.05,0.013 m 0,0 0.0484,0.0195 m 0,0 0.0468,0.0243 m 0,0 0.0436,0.0276 m 0,0 0.042,0.0341 m 0,0 0.0355,0.0373 m 0,0 0.0339,0.0406 m 0,0 0.0274,0.0438 m 0,0 0.0242,0.0471 m 0,0 0.0194,0.0487 m 0,0 0.0129,0.0503 m 0,0 0.008,0.052 m 0,0 0.003,0.0536 m 0,0 v 1.40575 m 0,0 -0.003,0.039 m 0,0 -0.006,0.039 m 0,0 -0.0129,0.0373 m 0,0 -0.0178,0.0357 m 0,0 -0.021,0.0325 m 0,0 -0.0258,0.0292 m 0,0 -0.0307,0.026 m 0,0 -0.0323,0.0227 m 0,0 -0.0355,0.0162 m 0,0 -0.0371,0.013 m 0,0 -0.0371,0.008 m 0,0 -0.0404,0.002 m 0,0 H 127.983 m 0,0 -0.0517,0.003 m 0,0 -0.0517,0.008 m 0,0 -0.0517,0.0146 m 0,0 -0.0484,0.0179 m 0,0 -0.0468,0.0243 m 0,0 -0.0436,0.0276 m 0,0 -0.0404,0.0341 m 0,0 -0.0371,0.0373 m 0,0 -0.0323,0.0406 m 0,0 -0.0291,0.0438 m 0,0 -0.0226,0.0471 m 0,0 -0.0194,0.0487 m 0,0 -0.0129,0.0503 m 0,0 -0.01,0.0519 m 0,0 -0.002,0.0536 m 0,0 v 0.40095 m 0,0 0.002,0.0536 m 0,0 0.01,0.0519 m 0,0 0.0129,0.0503 m 0,0 0.0194,0.0487 m 0,0 0.0226,0.0471 m 0,0 0.0291,0.0438 m 0,0 0.0323,0.0406 m 0,0 0.0371,0.0373 m 0,0 0.0404,0.0325 m 0,0 0.0436,0.0292 m 0,0 0.0468,0.0243 m 0,0 0.0484,0.0179 m 0,0 0.0517,0.0146 m 0,0 0.0517,0.008 m 0,0 0.0517,0.003 m 0,0 h 1.89683 m 0,0 0.0517,-0.003 m 0,0 0.0517,-0.008 m 0,0 0.05,-0.0146 m 0,0 0.0484,-0.0179 m 0,0 0.0468,-0.0243 m 0,0 0.0436,-0.0292 m 0,0 0.0404,-0.0325 m 0,0 0.0371,-0.0373 m 0,0 0.0339,-0.0406 m 0,0 0.0275,-0.0438 m 0,0 0.0242,-0.0471 m 0,0 0.0194,-0.0487 m 0,0 0.0129,-0.0503 m 0,0 0.008,-0.0519 m 0,0 0.003,-0.0536 m 0,0 v -11.04628 m 0,0 -0.003,-0.0536 m 0,0 -0.008,-0.052 m 0,0 -0.0129,-0.0503 m 0,0 -0.0194,-0.0487 m 0,0 -0.0242,-0.0471 m 0,0 -0.0275,-0.0438 m 0,0 -0.0339,-0.0406 m 0,0 -0.0371,-0.0373 m 0,0 -0.0404,-0.0341 m 0,0 -0.0436,-0.0276 m 0,0 -0.0468,-0.0243 m 0,0 -0.0484,-0.0178 m 0,0 -0.05,-0.0146 m 0,0 -0.0517,-0.008 m 0,0 -0.0517,-0.003"
       id="path1" />
  </g>
</svg>
