<?xml version="1.0" encoding="UTF-8" standalone="no"?>
<!-- Created with Inkscape (http://www.inkscape.org/) -->

<svg
   width="999.99982mm"
   height="107.93214mm"
   viewBox="0 0 999.99982 107.93214"
   version="1.1"
   id="svg1"
   xmlns="http://www.w3.org/2000/svg"
   xmlns:svg="http://www.w3.org/2000/svg">
  <defs
     id="defs1" />
  <g
     id="layer1"
     transform="translate(-11.135354,-16.033077)">
    <path
       style="fill:none;stroke:#000000;stroke-width:4.36772px;stroke-linecap:round;stroke-linejoin:round;stroke-miterlimit:4;stroke-dasharray:none;stroke-opacity:1"
       d="M 1004.7908,18.216937 H 17.462313 m 0,0 -0.642303,0.0639 m 0,0 -0.642303,0.160243 m 0,0 -0.610188,0.256424 m 0,0 -0.545957,0.32057 m 0,0 -0.481727,0.416667 m 0,0 -0.449612,0.512847 m 0,0 -0.321152,0.544878 m 0,0 -0.256921,0.609026 m 0,0 -0.160576,0.609026 m 0,0 -0.03236,0.67309 m 0,0 v 91.127442 m 0,0 0.03236,0.64106 m 0,0 0.160576,0.64106 m 0,0 0.256921,0.57699 m 0,0 0.321152,0.577 m 0,0 0.449612,0.48081 m 0,0 0.481727,0.41667 m 0,0 0.545957,0.3526 m 0,0 0.610188,0.25643 m 0,0 0.642303,0.12821 m 0,0 0.642303,0.0639 m 0,0 h 16.70009 m 0,0 0.578072,-0.0324 m 0,0 0.610188,-0.16024 m 0,0 0.610188,-0.25643 m 0,0 0.545957,-0.3526 m 0,0 0.513842,-0.41667 m 0,0 0.417497,-0.48081 m 0,0 0.353267,-0.54488 m 0,0 0.224806,-0.60902 m 0,0 0.12846,-0.38464 m 0,0 0.03236,-0.22439 m 0,0 0.0639,-0.76927 m 0,0 v -3.58997 m 0,0 -0.224806,-1.21802 m 0,0 -0.160576,-0.28846 m 0,0 -0.321151,-0.57699 m 0,0 -0.417497,-0.48082 m 0,0 -0.513843,-0.41666 m 0,0 -0.545957,-0.35261 m 0,0 -0.610188,-0.22439 m 0,0 -0.642303,-0.16024 m 0,0 -0.642302,-0.0639 m 0,0 h -7.515043 m 0,0 -0.449612,-0.0639 m 0,0 -0.385382,-0.16024 m 0,0 -0.353267,-0.25642 m 0,0 -0.256921,-0.35261 m 0,0 -0.160575,-0.38463 m 0,0 -0.0639,-0.41667 m 0,0 V 91.971254 m 0,0 0.0639,-0.641058 m 0,0 0.12846,-0.641058 m 0,0 0.256921,-0.609026 m 0,0 0.353267,-0.544878 m 0,0 0.417497,-0.512847 m 0,0 0.481727,-0.416667 m 0,0 0.545957,-0.32057 m 0,0 0.610188,-0.256424 m 0,0 0.642303,-0.160243 m 0,0 0.642303,-0.03236 m 0,0 h 34.492111 m 0,0 0.674418,0.03236 m 0,0 0.610188,0.160243 m 0,0 0.610187,0.256424 m 0,0 0.545958,0.32057 m 0,0 0.513842,0.416667 m 0,0 0.417497,0.512847 m 0,0 0.321151,0.544878 m 0,0 0.256921,0.609026 m 0,0 0.160576,0.641058 m 0,0 0.0639,0.641058 m 0,0 v 12.436676 m 0,0 -0.0639,0.41667 m 0,0 -0.160576,0.38463 m 0,0 -0.289036,0.35261 m 0,0 -0.321151,0.25642 m 0,0 -0.417497,0.16024 m 0,0 -0.417497,0.0639 m 0,0 h -2.922536 m 0,0 -0.642303,0.0639 m 0,0 -0.610188,0.16024 m 0,0 -0.610187,0.22439 m 0,0 -0.545958,0.35261 m 0,0 -0.513842,0.41666 m 0,0 -0.417497,0.48082 m 0,0 -0.353266,0.57699 m 0,0 -0.224806,0.60903 m 0,0 -0.160576,0.60902 m 0,0 -0.0639,0.64106 m 0,0 v 3.33354 m 0,0 0.0639,0.64106 m 0,0 0.160576,0.64106 m 0,0 0.224806,0.57699 m 0,0 0.353266,0.577 m 0,0 0.417497,0.48081 m 0,0 0.513842,0.41667 m 0,0 0.545958,0.3526 m 0,0 0.610187,0.25643 m 0,0 0.610188,0.12821 m 0,0 0.642303,0.0639 m 0,0 h 7.900425 m 0,0 0.642302,-0.0639 m 0,0 0.642303,-0.12821 m 0,0 0.610188,-0.25643 m 0,0 0.545957,-0.3526 m 0,0 0.481728,-0.41667 m 0,0 0.417496,-0.48081 m 0,0 0.353267,-0.577 m 0,0 0.256921,-0.57699 m 0,0 0.128461,-0.64106 m 0,0 0.0639,-0.64106 m 0,0 V 71.264431 m 0,0 -0.0639,-0.448782 m 0,0 -0.160576,-0.384635 m 0,0 -0.256921,-0.352603 m 0,0 -0.353267,-0.256423 m 0,0 -0.385381,-0.160244 m 0,0 -0.449612,-0.0639 m 0,0 h -9.955836 m 0,0 v 8.269749 m 0,0 H 24.977148 m 0,0 V 31.48669 m 0,0 H 212.43583 m 0,0 v 4.134879 m 0,0 h 99.55819 m 0,0 V 92.80463 m 0,0 h -95.41529 m 0,0 -0.6423,0.03236 m 0,0 -0.64231,0.160244 m 0,0 -0.57807,0.256423 m 0,0 -0.57807,0.320488 m 0,0 -0.48173,0.448782 m 0,0 -0.4175,0.480814 m 0,0 -0.35326,0.544879 m 0,0 -0.25692,0.609026 m 0,0 -0.12847,0.641058 m 0,0 -0.0639,0.641058 m 0,0 v 0.128211 m 0,0 V 117.7744 m 0,0 0.0639,0.51285 m 0,0 0.12847,0.64106 m 0,0 0.25692,0.60902 m 0,0 0.35326,0.54488 m 0,0 0.4175,0.48082 m 0,0 0.48173,0.44878 m 0,0 0.57807,0.32049 m 0,0 0.57807,0.25642 m 0,0 0.64231,0.16024 m 0,0 0.6423,0.0324 m 0,0 0.6423,-0.0324 m 0,0 0.6423,-0.16024 m 0,0 0.61019,-0.25642 m 0,0 0.54596,-0.32049 m 0,0 0.51384,-0.44878 m 0,0 0.4175,-0.48082 m 0,0 0.32115,-0.54488 m 0,0 0.25692,-0.60902 m 0,0 0.16058,-0.64106 m 0,0 0.0324,-0.64106 m 0,0 v -4.96825 m 0,0 0.0639,-0.64106 m 0,0 0.16057,-0.64106 m 0,0 0.22481,-0.60903 m 0,0 0.35327,-0.54487 m 0,0 0.41749,-0.48082 m 0,0 0.51385,-0.44878 m 0,0 0.54595,-0.32049 m 0,0 0.61019,-0.25642 m 0,0 0.61019,-0.16025 m 0,0 0.67442,-0.0324 m 0,0 h 72.4206 m 0,0 0.6423,0.0324 m 0,0 0.6423,0.16025 m 0,0 0.60994,0.25642 m 0,0 0.54604,0.32049 m 0,0 0.48131,0.44878 m 0,0 0.41742,0.48082 m 0,0 0.35351,0.54487 m 0,0 0.25726,0.60903 m 0,0 0.16099,0.64106 m 0,0 0.0332,0.64106 m 0,0 v 0.41666 m 0,0 -0.0332,0.41667 m 0,0 0.0332,0.64106 m 0,0 0.16099,0.64106 m 0,0 0.25726,0.60902 m 0,0 0.35351,0.54488 m 0,0 0.41742,0.48082 m 0,0 0.48214,0.41666 m 0,0 0.54604,0.35261 m 0,0 0.60994,0.25642 m 0,0 0.6423,0.12821 m 0,0 0.67467,0.0639 m 0,0 h 42.07133 m 0,0 0.6423,-0.0639 m 0,0 0.64231,-0.12821 m 0,0 0.60994,-0.25642 m 0,0 0.54604,-0.35261 m 0,0 0.48214,-0.41666 m 0,0 0.44978,-0.48082 m 0,0 0.32115,-0.54488 m 0,0 0.25725,-0.60902 m 0,0 0.16016,-0.64106 m 0,0 0.0332,-0.64106 m 0,0 v -3.33354 m 0,0 -0.0332,-0.64106 m 0,0 -0.16016,-0.60903 m 0,0 -0.25725,-0.60902 m 0,0 -0.32115,-0.577 m 0,0 -0.44978,-0.48081 m 0,0 -0.48214,-0.41667 m 0,0 -0.54604,-0.3526 m 0,0 -0.60994,-0.22439 m 0,0 -0.64231,-0.16025 m 0,0 -0.6423,-0.0639 m 0,0 h -24.05449 m 0,0 V 62.963389 m 0,0 h 14.93371 m 0,0 0.41741,-0.0639 m 0,0 0.41742,-0.160243 m 0,0 0.32115,-0.256424 m 0,0 0.28878,-0.352602 m 0,0 0.16099,-0.384635 m 0,0 0.0664,-0.448782 m 0,0 v -8.270305 m 0,0 -0.0664,-0.416667 m 0,0 -0.16099,-0.416667 m 0,0 -0.28878,-0.352603 m 0,0 -0.32115,-0.256423 m 0,0 -0.41742,-0.160244 m 0,0 -0.41741,-0.0639 m 0,0 h -14.93371 m 0,0 v -19.873 m 0,0 h 126.11774 m 0,0 v 19.873041 m 0,0 h -14.93371 m 0,0 -0.44977,0.0639 m 0,0 -0.38505,0.160243 m 0,0 -0.35352,0.256424 m 0,0 -0.25725,0.352602 m 0,0 -0.16099,0.416667 m 0,0 -0.0664,0.416667 m 0,0 v 8.269741 m 0,0 0.0664,0.448782 m 0,0 0.16099,0.384635 m 0,0 0.25725,0.352603 m 0,0 0.35352,0.256423 m 0,0 0.38505,0.160244 m 0,0 0.44977,0.0639 m 0,0 h 14.93379 m 0,0 v 43.079614 m 0,0 h -24.08668 m 0,0 -0.64231,0.0639 m 0,0 -0.60994,0.16025 m 0,0 -0.60993,0.22439 m 0,0 -0.54604,0.3526 m 0,0 -0.51368,0.41667 m 0,0 -0.41741,0.48081 m 0,0 -0.35352,0.57699 m 0,0 -0.22489,0.60903 m 0,0 -0.16016,0.60903 m 0,0 -0.0664,0.64105 m 0,0 v 3.33355 m 0,0 0.0664,0.64106 m 0,0 0.16016,0.64105 m 0,0 0.22489,0.577 m 0,0 0.35352,0.57699 m 0,0 0.41741,0.48082 m 0,0 0.51368,0.41666 m 0,0 0.54604,0.35261 m 0,0 0.60993,0.25642 m 0,0 0.60994,0.12821 m 0,0 0.64231,0.0639 m 0,0 h 31.53748 m 0,0 0.6423,-0.0639 m 0,0 0.64231,-0.12821 m 0,0 0.60994,-0.25642 m 0,0 0.54604,-0.35261 m 0,0 0.48131,-0.41666 m 0,0 0.44978,-0.48082 m 0,0 0.32115,-0.57699 m 0,0 0.25725,-0.577 m 0,0 0.16099,-0.64105 m 0,0 0.0332,-0.64106 m 0,0 V 31.48669 m 0,0 h 99.5903 m 0,0 v 82.02436 m 0,0 0.0332,0.64106 m 0,0 0.16099,0.64106 m 0,0 0.25725,0.57699 m 0,0 0.32116,0.577 m 0,0 0.41741,0.48081 m 0,0 0.51368,0.41667 m 0,0 0.54604,0.3526 m 0,0 0.60994,0.25643 m 0,0 0.6423,0.12821 m 0,0 0.6423,0.0639 m 0,0 h 31.50537 m 0,0 0.67467,-0.0639 m 0,0 0.60994,-0.12821 m 0,0 0.60994,-0.25643 m 0,0 0.54604,-0.3526 m 0,0 0.51367,-0.41667 m 0,0 0.41742,-0.48081 m 0,0 0.35351,-0.577 m 0,0 0.22489,-0.57699 m 0,0 0.16099,-0.64106 m 0,0 0.0664,-0.64106 m 0,0 v -3.33354 m 0,0 -0.0664,-0.64106 m 0,0 -0.16099,-0.60902 m 0,0 -0.22489,-0.60903 m 0,0 -0.35351,-0.57699 m 0,0 -0.41742,-0.48082 m 0,0 -0.51367,-0.41666 m 0,0 -0.54604,-0.35261 m 0,0 -0.60994,-0.22439 m 0,0 -0.60994,-0.16024 m 0,0 -0.67467,-0.0639 m 0,0 h -24.05457 m 0,0 V 62.963173 m 0,0 h 14.93379 m 0,0 0.44978,-0.0639 m 0,0 0.38505,-0.160244 m 0,0 0.35351,-0.256423 m 0,0 0.25725,-0.352603 m 0,0 0.16099,-0.384635 m 0,0 0.0664,-0.448782 m 0,0 v -8.270089 m 0,0 -0.0664,-0.416667 m 0,0 -0.16099,-0.416667 m 0,0 -0.25725,-0.352603 m 0,0 -0.35351,-0.256423 m 0,0 -0.38505,-0.160244 m 0,0 -0.44978,-0.0639 m 0,0 h -14.93379 m 0,0 v -19.873 m 0,0 h 126.11782 m 0,0 v 19.873041 m 0,0 H 683.7048 m 0,0 -0.41741,0.0639 m 0,0 -0.41741,0.160243 m 0,0 -0.32115,0.256424 m 0,0 -0.28879,0.352602 m 0,0 -0.16099,0.416667 m 0,0 -0.0664,0.416667 m 0,0 v 8.269741 m 0,0 0.0664,0.448782 m 0,0 0.16099,0.384635 m 0,0 0.28879,0.352603 m 0,0 0.32115,0.256423 m 0,0 0.41741,0.160244 m 0,0 0.41741,0.0639 m 0,0 h 14.93371 m 0,0 v 43.079615 m 0,0 h -24.05457 m 0,0 -0.6423,0.0639 m 0,0 -0.64231,0.16025 m 0,0 -0.60994,0.22439 m 0,0 -0.54604,0.3526 m 0,0 -0.48131,0.41667 m 0,0 -0.44978,0.48081 m 0,0 -0.32115,0.57699 m 0,0 -0.25725,0.60903 m 0,0 -0.16099,0.60903 m 0,0 -0.0332,0.64105 m 0,0 v 3.33355 m 0,0 0.0332,0.64106 m 0,0 0.16099,0.64105 m 0,0 0.25725,0.577 m 0,0 0.32115,0.57699 m 0,0 0.44978,0.48082 m 0,0 0.48131,0.41666 m 0,0 0.54604,0.35261 m 0,0 0.60994,0.25642 m 0,0 0.64231,0.12821 m 0,0 0.6423,0.0639 m 0,0 h 42.13565 m 0,0 0.60994,-0.0639 m 0,0 0.6423,-0.12821 m 0,0 0.60994,-0.25642 m 0,0 0.54604,-0.35261 m 0,0 0.48214,-0.41666 m 0,0 0.41741,-0.48082 m 0,0 0.35352,-0.54488 m 0,0 0.25725,-0.60902 m 0,0 0.12863,-0.64106 m 0,0 0.0664,-0.64106 m 0,0 -0.0332,-0.41667 m 0,0 v -0.41666 m 0,0 0.0332,-0.64106 m 0,0 0.16099,-0.64106 m 0,0 0.25725,-0.60903 m 0,0 0.32115,-0.54487 m 0,0 0.44978,-0.48082 m 0,0 0.48214,-0.44878 m 0,0 0.54604,-0.32049 m 0,0 0.60994,-0.25642 m 0,0 0.6423,-0.16024 m 0,0 0.64231,-0.0324 m 0,0 h 72.4206 m 0,0 0.67466,0.0324 m 0,0 0.60994,0.16024 m 0,0 0.60994,0.25642 m 0,0 0.54604,0.32049 m 0,0 0.51368,0.44878 m 0,0 0.41741,0.48082 m 0,0 0.32115,0.54487 m 0,0 0.25726,0.60903 m 0,0 0.16099,0.64106 m 0,0 0.0664,0.64106 m 0,0 v 4.96825 m 0,0 0.0332,0.64106 m 0,0 0.16099,0.64106 m 0,0 0.25725,0.60902 m 0,0 0.32115,0.54488 m 0,0 0.41742,0.48082 m 0,0 0.51367,0.44878 m 0,0 0.54604,0.32049 m 0,0 0.60994,0.25642 m 0,0 0.64231,0.16024 m 0,0 0.6423,0.0324 m 0,0 0.6423,-0.0324 m 0,0 0.64231,-0.16024 m 0,0 0.5784,-0.25642 m 0,0 0.5784,-0.32049 m 0,0 0.48132,-0.44878 m 0,0 0.41741,-0.48082 m 0,0 0.35352,-0.54488 m 0,0 0.25725,-0.60902 m 0,0 0.12863,-0.64106 m 0,0 0.0664,-0.64106 m 0,0 v -0.12821 m 0,0 V 96.779066 m 0,0 -0.0664,-0.480815 m 0,0 -0.12863,-0.641058 m 0,0 -0.25725,-0.609026 m 0,0 -0.35352,-0.544878 m 0,0 -0.41741,-0.480815 m 0,0 -0.48132,-0.448782 m 0,0 -0.5784,-0.320487 m 0,0 -0.5784,-0.256424 m 0,0 -0.64231,-0.160243 m 0,0 -0.6423,-0.03236 m 0,0 h -95.41513 m 0,0 V 35.621569 m 0,0 h 99.55823 m 0,0 V 31.48669 m 0,0 H 997.289 m 0,0 v 46.381112 m 0,0 h -38.63502 m 0,0 v -8.269748 m 0,0 h -9.95586 m 0,0 -0.44978,0.0639 m 0,0 -0.38505,0.160244 m 0,0 -0.35351,0.256423 m 0,0 -0.25726,0.352603 m 0,0 -0.16016,0.384634 m 0,0 -0.0664,0.448783 m 0,0 v 42.246229 m 0,0 0.0332,0.64106 m 0,0 0.16099,0.64106 m 0,0 0.25725,0.57699 m 0,0 0.35352,0.577 m 0,0 0.41741,0.48081 m 0,0 0.48132,0.41667 m 0,0 0.54604,0.3526 m 0,0 0.60993,0.25642 m 0,0 0.64231,0.12821 m 0,0 0.6423,0.0639 m 0,0 h 7.86829 m 0,0 0.67467,-0.0639 m 0,0 0.60994,-0.12821 m 0,0 0.60994,-0.25642 m 0,0 0.54604,-0.3526 m 0,0 0.51367,-0.41667 m 0,0 0.41742,-0.48081 m 0,0 0.35351,-0.577 m 0,0 0.22489,-0.57699 m 0,0 0.16099,-0.64106 m 0,0 0.0664,-0.64106 m 0,0 v -3.33354 m 0,0 -0.0664,-0.64106 m 0,0 -0.16099,-0.60903 m 0,0 -0.22489,-0.60902 m 0,0 -0.35351,-0.57699 m 0,0 -0.41742,-0.48082 m 0,0 -0.51367,-0.41667 m 0,0 -0.54604,-0.3526 m 0,0 -0.60994,-0.22439 m 0,0 -0.60994,-0.16024 m 0,0 -0.67467,-0.0639 m 0,0 h -2.89044 m 0,0 -0.41742,-0.0639 m 0,0 -0.41741,-0.16024 m 0,0 -0.35352,-0.25643 m 0,0 -0.25725,-0.3526 m 0,0 -0.16099,-0.38464 m 0,0 -0.0664,-0.41666 m 0,0 V 91.971462 m 0,0 0.0664,-0.641058 m 0,0 0.16099,-0.641058 m 0,0 0.22489,-0.609026 m 0,0 0.35352,-0.544879 m 0,0 0.41741,-0.512846 m 0,0 0.51368,-0.416667 m 0,0 0.54604,-0.320571 m 0,0 0.60993,-0.256423 m 0,0 0.60994,-0.160244 m 0,0 0.67467,-0.03236 m 0,0 h 34.49208 m 0,0 0.6423,0.03236 m 0,0 0.6423,0.160244 m 0,0 0.57841,0.256423 m 0,0 0.5784,0.320571 m 0,0 0.48132,0.416667 m 0,0 0.41741,0.512846 m 0,0 0.35351,0.544879 m 0,0 0.25726,0.609026 m 0,0 0.12862,0.641058 m 0,0 0.0664,0.641058 m 0,0 v 12.436678 m 0,0 -0.0664,0.41666 m 0,0 -0.16016,0.38464 m 0,0 -0.25725,0.3526 m 0,0 -0.35351,0.25643 m 0,0 -0.38505,0.16024 m 0,0 -0.44978,0.0639 m 0,0 h -7.51503 m 0,0 -0.67467,0.0639 m 0,0 -0.60993,0.16024 m 0,0 -0.60994,0.22439 m 0,0 -0.54604,0.3526 m 0,0 -0.51368,0.41667 m 0,0 -0.41741,0.48082 m 0,0 -0.32116,0.57699 m 0,0 -0.16099,0.28845 m 0,0 -0.22488,1.21803 m 0,0 v 3.81434 m 0,0 0.0664,0.54488 m 0,0 0.0332,0.22439 m 0,0 0.12862,0.38464 m 0,0 0.22489,0.60902 m 0,0 0.35352,0.54488 m 0,0 0.41741,0.48082 m 0,0 0.48131,0.41666 m 0,0 0.57841,0.35261 m 0,0 0.5784,0.25642 m 0,0 0.64231,0.16024 m 0,0 0.73856,0.0324 m 0,0 h 16.53948 m 0,0 0.6423,-0.0639 m 0,0 0.6423,-0.12821 m 0,0 0.61,-0.25643 m 0,0 0.546,-0.3526 m 0,0 0.4813,-0.41667 m 0,0 0.4174,-0.48081 m 0,0 0.3536,-0.57699 m 0,0 0.2572,-0.577 m 0,0 0.161,-0.64106 m 0,0 0.033,-0.64105 m 0,0 V 22.383865 m 0,0 -0.033,-0.673091 m 0,0 -0.161,-0.609026 m 0,0 -0.2572,-0.609025 m 0,0 -0.3536,-0.544879 m 0,0 -0.4174,-0.512847 m 0,0 -0.4813,-0.416667 m 0,0 -0.546,-0.32057 m 0,0 -0.61,-0.256423 m 0,0 -0.6423,-0.160244 m 0,0 -0.6423,-0.0639"
       id="path1" />
    <path
       style="fill:none;stroke:#000000;stroke-width:0.0321156px;stroke-linecap:round;stroke-linejoin:round;stroke-miterlimit:4;stroke-dasharray:none;stroke-opacity:1"
       d="m 997.91807,117.64623 1.18826,-1.18597 m 3.53277,-3.52586 3.5005,-3.4938 m -15.8329,5.25673 3.53267,-3.4938 m 3.50063,-3.52586 3.5327,-3.52586 m 3.5327,-3.49382 3.5006,-3.525857 m -22.86626,12.308467 3.37209,-3.39765 m 10.6945,-10.673748 3.53277,-3.493812 m 3.5005,-3.525861 2.7941,-2.788631 m -13.52069,2.9489 1.92699,-1.923199 m 3.5327,-3.525861 3.5327,-3.493804 m 3.5006,-3.525861 1.0277,-1.025709 m -53.24762,42.630866 1.18826,-1.18597 m 3.53275,-3.52586 2.79402,-2.78863 m 25.33918,-25.322102 3.53275,-3.493803 m 5.20273,-5.192637 1.83056,-1.859094 m 3.53277,-3.493804 3.5005,-3.52586 m -58.06489,47.43886 3.53275,-3.4938 m 3.50055,-3.52586 1.63787,-1.63472 m 19.49422,-19.456351 3.50055,-3.525861 m 3.53275,-3.493804 1.66999,-1.698825 m 12.39661,-12.37257 3.5327,-3.525861 m 3.5327,-3.493812 3.5006,-3.525861 m -58.06496,47.470915 3.50064,-3.525857 m 11.07989,-11.05838 3.01882,-3.013015 m 3.50063,-3.493803 3.46844,-3.461756 m 24.69687,-24.681034 3.53277,-3.493804 m 3.5005,-3.525869 2.7941,-2.788632 m -61.91879,51.28526 1.0598,-1.057758 m 3.53275,-3.493812 3.50055,-3.525861 m 3.53275,-3.525861 3.50055,-3.493804 m 35.13446,-35.0663 0.0664,-0.09618 m 3.53263,-3.52586 3.5328,-3.493804 m 3.5005,-3.52587 1.0277,-1.025701 m -61.91872,51.317318 2.82613,-2.820689 m 3.50063,-3.525861 3.53267,-3.525869 m 40.40143,-40.323035 1.83056,-1.859093 m 3.5327,-3.493804 3.5006,-3.525861 m -58.06492,47.438862 2.92256,-2.916843 m 39.30943,-39.265285 3.53267,-3.493803 m 3.50063,-3.525861 3.53263,-3.493813 m -22.25601,11.667399 2.89036,-2.884795 m 3.53275,-3.525861 3.50055,-3.525861 m -20.48971,9.936517 1.15615,-1.153922 m 3.50063,-3.493803 3.53275,-3.525861 m 3.50055,-3.493813 1.57364,-1.602661 m -20.9072,10.385265 3.50055,-3.525861 m 3.53275,-3.525861 3.34005,-3.333543 m -22.70573,12.116138 3.53275,-3.493803 m 3.50055,-3.525861 3.53274,-3.493813 m -22.25612,11.667399 2.89044,-2.884795 m 3.53267,-3.525861 3.50063,-3.525861 m -20.48971,9.936517 1.12403,-1.153922 m 3.53267,-3.493803 3.53275,-3.525861 m 3.50055,-3.493813 1.57372,-1.602661 m -20.93932,10.385265 3.53267,-3.525861 m 3.53275,-3.525861 3.30786,-3.333543 m -22.67354,12.116138 3.50055,-3.493803 m 3.53059,-3.525861 3.53266,-3.493804 m -112.37229,101.640979 1.4773,-1.47446 m 3.53274,-3.52586 0.77093,-0.76927 m 84.30333,-84.203999 2.92248,-2.884795 m 3.50063,-3.525861 3.53267,-3.525861 m -100.32895,89.653046 3.53275,-3.52586 m 76.30649,-76.190669 1.12403,-1.153913 m 3.53275,-3.493812 3.50055,-3.525861 m 3.53275,-3.493804 1.57364,-1.60267 m -98.36993,87.697799 3.50064,-3.49381 m 3.53266,-3.525863 3.53275,-3.525861 m 66.86456,-66.767 3.53266,-3.525861 m 3.50064,-3.525861 3.34005,-3.333543 m -100.13626,89.460729 3.53267,-3.52586 m 3.50063,-3.49381 3.53267,-3.525864 m 3.53275,-3.525861 0.80329,-0.801301 m 62.52893,-62.471853 3.53275,-3.493812 m 3.53267,-3.525861 3.50063,-3.493804 m -99.39761,88.723456 2.60132,-2.62836 m 3.53275,-3.49381 3.50055,-3.525863 m 3.53275,-3.525861 2.56921,-2.564266 m 61.4049,-61.317939 2.89045,-2.884795 m 3.53266,-3.525861 3.53275,-3.525861 m -97.66339,86.992616 0.83499,-0.86543 m 3.53275,-3.52586 3.53267,-3.49381 m 3.50063,-3.525864 3.53267,-3.525861 m 62.20786,-62.119274 1.15614,-1.153913 m 3.50055,-3.493812 3.53275,-3.525861 m 3.53267,-3.493804 1.57372,-1.60267 m -98.40204,87.697799 3.53267,-3.49381 m 3.53275,-3.525863 3.50055,-3.525861 m 66.89675,-66.767 3.50055,-3.525861 m 3.53275,-3.525861 3.33997,-3.333543 m -100.1363,89.460729 3.50064,-3.52586 m 3.5327,-3.49381 3.53275,-3.525864 m 3.50055,-3.525861 0.835,-0.801301 m 62.52901,-62.471853 3.53267,-3.493812 m 3.50063,-3.525861 3.53267,-3.493804 m -99.42977,88.723456 2.63352,-2.62836 m 3.50055,-3.49381 3.53275,-3.525863 m 3.53267,-3.525861 2.56929,-2.564266"
       id="path2" />
    <path
       style="fill:none;stroke:#000000;stroke-width:0.0321156px;stroke-linecap:round;stroke-linejoin:round;stroke-miterlimit:4;stroke-dasharray:none;stroke-opacity:1"
       d="m 809.04651,32.096015 3.50064,-3.493812 m 3.53266,-3.525861 3.50064,-3.525861 m -106.78431,96.095749 2.95468,-2.9489 m 3.53267,-3.4938 3.50063,-3.52586 m 3.53267,-3.52586 3.50063,-3.49382 m 3.53267,-3.525857 3.53274,-3.525861 m 59.8313,-59.747327 3.53275,-3.525861 m 3.50055,-3.493812 3.53275,-3.525861 m 3.50055,-3.493804 1.57373,-1.60267 m -110.12428,99.429293 1.18826,-1.18597 m 3.53267,-3.52586 3.53274,-3.4938 m 3.50056,-3.52586 3.53274,-3.49382 m 3.50064,-3.525857 3.53266,-3.525861 m 59.8313,-59.747326 3.53275,-3.525861 m 3.53267,-3.493812 3.50063,-3.525861 m 3.53267,-3.525861 3.34005,-3.333544 m -107.20171,96.480393 3.53266,-3.4938 m 3.53275,-3.52586 3.50055,-3.52586 m 3.53275,-3.49382 3.50055,-3.525857 m 3.53275,-3.525861 0.83499,-0.801302 m 57.22998,-57.183094 1.76633,-1.762931 m 3.53267,-3.525861 3.50063,-3.493812 m 3.53275,-3.525861 3.53266,-3.493804 m -107.36237,96.640653 3.50063,-3.52586 m 3.53267,-3.4938 3.40429,-3.39765 m 5.87715,-5.86575 1.28461,-1.282137 m 3.50063,-3.525861 3.53267,-3.493812 m 56.29863,-56.253514 h 0.0332 m 3.5003,-3.525861 3.53275,-3.493812 m 3.50064,-3.525861 3.53266,-3.525861 m -105.62807,94.941839 1.79845,-1.79499 m 3.50063,-3.4938 3.53267,-3.52586 m 18.08107,-18.046008 3.05102,-3.045063 m 3.50055,-3.525861 3.53275,-3.493804 m 45.7647,-45.707989 3.50055,-3.525861 m 3.53275,-3.493812 3.50055,-3.525861 m 3.53275,-3.493804 1.57364,-1.60267 m -70.20465,59.587067 3.50063,-3.52587 m 3.53267,-3.493804 3.30794,-3.301486 m 31.89075,-31.860968 3.53267,-3.525861 m 3.50067,-3.493812 3.53267,-3.525861 m 3.50063,-3.525861 3.34006,-3.333544 m -57.87228,47.278602 3.50055,-3.525861 m 3.53275,-3.493812 1.54153,-1.538556 m 21.3247,-21.315434 1.76634,-1.762931 m 3.53274,-3.525861 3.50055,-3.493812 m 3.53275,-3.525861 3.50064,-3.493804 m -51.03163,40.419189 3.53267,-3.52586 m 3.50063,-3.525861 3.53267,-3.493804"
       id="path3" />
    <path
       style="fill:none;stroke:#000000;stroke-width:0.0321156px;stroke-linecap:round;stroke-linejoin:round;stroke-miterlimit:4;stroke-dasharray:none;stroke-opacity:1"
       d="m 724.55045,32.096015 3.53275,-3.493812 m 3.50055,-3.525861 3.53275,-3.525861 m -51.03162,40.419197 3.50055,-3.493812 m 3.53274,-3.525861 3.50064,-3.525861 m 4.01439,-3.97461 3.05102,-3.045063 m 3.50055,-3.525861 3.53275,-3.493804 m 3.50055,-3.525861 3.53275,-3.525861 m 3.53267,-3.493812 3.50063,-3.525861 m 3.53267,-3.493804 1.57372,-1.60267 m -45.861,35.258618 0.28878,-0.288455 m 17.59927,-17.565199 3.50063,-3.525861 m 3.53267,-3.493812 3.53275,-3.525861 m 3.50055,-3.525861 3.34005,-3.333544 m -22.70565,12.116147 3.53267,-3.493812 m 3.53274,-3.525861 3.50055,-3.493804 m -107.36233,96.640658 2.92256,-2.8848 m 82.18373,-82.088468 2.89036,-2.884794 m 3.53267,-3.525861 3.53275,-3.525861 m -106.81629,96.095754 2.95459,-2.9489 m 3.53275,-3.49381 3.50055,-3.52586 m 76.30657,-76.190668 1.15615,-1.153913 m 3.50063,-3.493812 3.53267,-3.525861 m 3.53275,-3.493804 1.57364,-1.60267 m -110.12424,99.429298 1.18826,-1.18597 m 3.50064,-3.52586 3.53266,-3.49381 m 80.96336,-80.838392 3.50055,-3.525861 m 3.53275,-3.525861 3.33997,-3.333544 m -107.16956,96.480398 3.50055,-3.49381 m 3.53275,-3.52586 1.63787,-1.63472 m 75.79274,-75.709861 3.53266,-3.493812 m 3.50064,-3.525861 3.53266,-3.493804 m -100.32895,89.620988 3.53275,-3.52586 m 3.50055,-3.49381 2.85833,-2.852747 m 68.18128,-68.081181 2.89044,-2.884794 m 3.53267,-3.525861 3.50063,-3.525861 m -86.23032,75.581652 3.53275,-3.525861 m 3.50055,-3.493812 1.092,-1.089807 m 57.61523,-57.535656 1.12411,-1.153913 m 3.53267,-3.493812 3.53275,-3.525861 m 3.50055,-3.493804 1.57372,-1.60267 m -82.47276,71.831417 1.7021,-1.698825 m 3.53275,-3.525861 3.50055,-3.493804 m 18.5628,-18.558859 0.7062,-0.67309 m 33.52863,-33.495712 3.53274,-3.525861 m 3.53267,-3.525861 3.34006,-3.333544 m -71.93883,61.285891 3.46843,-3.461755 m 3.53275,-3.525869 3.50055,-3.493804 m 6.06985,-6.058069 0.96353,-0.993653 m 3.53267,-3.493812 3.53275,-3.525861 m 24.63256,-24.616921 3.50063,-3.493812 m 3.53275,-3.525861 3.53267,-3.493804 m -58.09704,47.438862 3.53275,-3.52586 m 3.50055,-3.493813 3.53275,-3.525861 m 3.53266,-3.52586 1.79853,-1.827037 m 19.94376,-19.873041 2.89036,-2.884794 m 3.50063,-3.525861 3.53267,-3.525861 m -43.99833,33.399524 3.53275,-3.525861 m 3.50055,-3.493812 1.092,-1.089807 m 15.38332,-15.353528 1.12403,-1.153913 m 3.53275,-3.493812 3.50055,-3.525861 m 3.53275,-3.493804 1.57364,-1.60267 m -40.24077,29.681346 1.7021,-1.730882 m 3.53275,-3.525861 3.50055,-3.493803 m 10.56605,-10.545534 3.53266,-3.525861 m 3.50063,-3.525861 3.33998,-3.333544 m -29.67472,19.135812 3.46843,-3.493804 m 3.53275,-3.525861 3.50055,-3.493812 m 3.53275,-3.525861 3.50063,-3.493804 m -22.25612,11.66739 2.92256,-2.884794 m 3.50055,-3.525861 3.53275,-3.525861 m -20.52191,9.936516 1.15614,-1.153913 m 3.53275,-3.493812 3.50064,-3.525861 m 3.53266,-3.493804 1.57373,-1.60267 m -110.12432,99.429298 1.18834,-1.18597 m 3.50055,-3.52586 3.53275,-3.49381 m 3.53267,-3.52586 0.77093,-0.8013 m 76.65984,-76.511232 3.50063,-3.525861 m 3.53267,-3.525861 3.34006,-3.333544 m -107.16965,96.480398 3.50064,-3.49381 m 3.53266,-3.52586 3.53275,-3.52586 m 3.50055,-3.49381 3.53275,-3.525862 m 66.86456,-66.799049 3.53275,-3.493812 m 3.50055,-3.525861 3.53275,-3.493804 m -107.36234,96.640658 3.53275,-3.52586 m 3.50063,-3.49381 3.40421,-3.39765 m 10.69451,-10.673743 3.50055,-3.493812 m 3.53275,-3.525861 3.53266,-3.525861 m 53.40815,-53.336671 2.89045,-2.884794 m 3.53266,-3.525861 3.50063,-3.525861 m -100.29683,89.653044 3.50055,-3.52586 m 24.66476,-24.616927 3.50055,-3.493804 m 3.53275,-3.525861 2.53718,-2.564265 m 42.07133,-41.989811 1.15615,-1.153913 m 3.50063,-3.493812 3.53267,-3.525861 m 3.50063,-3.493804 1.60576,-1.60267 m -66.9609,56.317629 0.25725,-0.256423 m 3.50055,-3.493804 3.53275,-3.525861 m 3.53267,-3.525861 0.77092,-0.801302 m 34.42794,-34.329071 3.50055,-3.525861 m 3.53274,-3.525861 3.33998,-3.333543 m -56.39485,45.772094 2.02325,-2.019353 m 3.50055,-3.493854 3.53275,-3.525861 m 24.63264,-24.616921 3.53267,-3.493812 m 3.50063,-3.525861 3.53267,-3.493804 m -51.03154,40.419189 3.50055,-3.525861 m 3.53275,-3.52586 3.50055,-3.493804 m 3.53275,-3.52587 3.53266,-3.525861 m 11.17624,-11.154543 2.89044,-2.884794 m 3.53267,-3.525861 3.50063,-3.525861 m -48.52664,37.919037 1.02768,-0.993652 m 3.50064,-3.525861 3.53266,-3.525861 m 10.56605,-10.545534 3.50055,-3.493804 m 3.53275,-3.525861 3.50063,-3.525861 m 3.53267,-3.493812 3.53275,-3.525861 m 3.50055,-3.493804 1.57372,-1.60267 m -24.69687,14.135501 0.25725,-0.256423 m 3.50055,-3.493812 3.53275,-3.525861 m 3.53266,-3.525861 3.30795,-3.333544 m -22.67363,12.116147 3.50064,-3.493812 m 3.53266,-3.525861 3.53275,-3.493804 m -107.36233,96.640658 3.50063,-3.52586 m 3.53267,-3.49381 0.25725,-0.28845 m 77.78387,-77.665148 2.92256,-2.884794 m 3.50064,-3.525861 3.53266,-3.525861 m -106.78417,96.095754 2.95459,-2.9489 m 3.50063,-3.49381 3.53267,-3.52586 m 76.30657,-76.190668 1.12403,-1.153913 m 3.53275,-3.493812 3.50055,-3.525861 m 3.53275,-3.493804 1.57364,-1.60267 m -110.12423,99.429298 1.18826,-1.18597 m 3.53275,-3.52586 3.50055,-3.49381 m 80.96335,-80.838392 3.53267,-3.525861 m 3.50063,-3.525861 3.33997,-3.333544 m -107.16955,96.480398 3.53266,-3.49381 m 3.50064,-3.52586 2.11959,-2.11552 m 75.31101,-75.229061 3.53267,-3.493812 m 3.53274,-3.525861 3.50064,-3.493804 m -107.0733,96.384228 3.24363,-3.26943 m 3.53275,-3.49381 3.50055,-3.52586 m 3.53275,-3.49381 3.50063,-3.525862 m 3.53267,-3.525861 0.35351,-0.352602 m 63.62093,-63.529603 2.89036,-2.884794 m 3.53275,-3.525861 3.53275,-3.525861 m -98.08097,87.409314 1.25257,-1.28213 m 3.53267,-3.52586 3.53275,-3.49381 m 3.50055,-3.525862 3.53274,-3.525861 m 3.53267,-3.493812 3.50063,-3.525861 m 55.17448,-55.099602 1.15615,-1.153913 m 3.50063,-3.493812 3.53275,-3.525861 m 3.53267,-3.493804 1.57372,-1.60267 m -98.40212,87.697798 3.53274,-3.49381 m 3.53267,-3.525862 3.50063,-3.525861 m 10.56597,-10.545534 3.53275,-3.493804 m 3.50063,-3.52586 3.53267,-3.52587 m 11.33681,-11.314803 2.72979,-2.724535 m 31.69806,-31.636593 3.50063,-3.525861 m 3.53267,-3.525861 3.34005,-3.333544 m -100.13634,89.460728 3.50063,-3.52586 m 3.53267,-3.49381 3.53275,-3.525862 m 3.50063,-3.525861 0.835,-0.801302 m 20.29701,-20.289733 3.53267,-3.493804 m 3.50063,-3.525861 2.1196,-2.115516 m 0.41742,-0.416667 0.99557,-0.993653 m 3.50063,-3.493812 3.53267,-3.525861 m 3.53274,-3.525861 0.0664,-0.0639 m 21.036,-21.026971 3.53275,-3.493812 m 3.50055,-3.525861 3.53275,-3.493804 m -99.42973,88.723491 2.63345,-2.62836 m 3.50063,-3.49381 3.53266,-3.525865 m 3.53275,-3.525861 2.56921,-2.564265 m 28.39012,-28.367156 0.7062,-0.705206 m 3.53275,-3.493812 3.50064,-3.525861 m 3.53266,-3.525861 1.83056,-1.827036 m 19.91164,-19.873041 2.89045,-2.884795 m 3.53266,-3.525827 3.50064,-3.525861 m -97.6634,86.992617 0.86711,-0.86543 m 3.53275,-3.52586 3.50055,-3.49381 m 3.53275,-3.525865 3.53267,-3.525861 m 39.75904,-39.714025 2.47295,-2.468103 m 3.53267,-3.493812 3.50063,-3.525861 m 12.94257,-12.917474 1.15614,-1.153913 m 3.50064,-3.493812 3.53266,-3.525861 m 3.50063,-3.493804 1.57365,-1.60267 m -98.36993,87.697801 3.53267,-3.49381 m 3.50063,-3.525865 3.53267,-3.525861 m 52.79795,-52.727662 3.53275,-3.493803 m 3.50064,-3.525861 3.53266,-3.525861 m 3.53275,-3.493812 3.50055,-3.525861 m 3.53275,-3.525861 3.33997,-3.333544 m -100.13626,89.460731 3.50064,-3.52586 m 3.53266,-3.49381 3.50064,-3.525865 m 3.53266,-3.525861 0.835,-0.801302 m 57.22993,-57.183094 1.76633,-1.762931 m 3.53275,-3.525861 3.53267,-3.493812 m 3.50063,-3.525861 3.53266,-3.493804 m -111.44093,100.711431 0.54596,-0.54488 m 3.5327,-3.52586 3.05097,-3.07711 m 4.88158,-4.84005 2.63346,-2.62837 m 3.50061,-3.49381 3.53267,-3.525862 m 3.50063,-3.525861 2.60141,-2.564265 m 57.22985,-57.183061 h 0.0332 m 3.50039,-3.525894 3.53266,-3.493812 m 3.53275,-3.525861 3.50055,-3.525861 m -100.26862,89.588667 3.46849,-3.46175 m 3.5327,-3.52586 3.5006,-3.49382 m 3.53271,-3.525859 3.50062,-3.525861 m 59.86337,-59.747327 3.50064,-3.525861 m 3.53266,-3.493812 3.50064,-3.525861 m 3.53266,-3.493804 1.57373,-1.60267 m -91.33668,80.678126 3.5327,-3.525861 m 59.83127,-59.747326 3.53275,-3.525861 m 3.50055,-3.493812 3.53275,-3.525861 m 3.50055,-3.525861 3.34006,-3.333544 m -27.97262,17.404939 1.76633,-1.762931 m 3.53267,-3.525861 3.50063,-3.493812 m 3.53266,-3.525861 3.50064,-3.493804"
       id="path4" />
    <path
       style="fill:none;stroke:#000000;stroke-width:0.0321156px;stroke-linecap:round;stroke-linejoin:round;stroke-miterlimit:4;stroke-dasharray:none;stroke-opacity:1"
       d="m 259.90259,32.096015 3.53275,-3.493812 m 3.50064,-3.525861 3.53266,-3.525861 m -22.89834,12.308464 3.53266,-3.525861 m 3.53275,-3.493812 3.50055,-3.525861 m 3.53275,-3.493804 1.57364,-1.60267 m -27.9727,17.404939 3.50063,-3.525861 m 3.53275,-3.493812 3.53267,-3.525861 m 3.50063,-3.525861 3.33997,-3.333544 m -27.97262,17.404939 1.76635,-1.762931 m 3.50062,-3.525861 3.53267,-3.493812 m 3.53274,-3.525861 3.50064,-3.493804"
       id="path5" />
    <path
       style="fill:none;stroke:#000000;stroke-width:0.0321156px;stroke-linecap:round;stroke-linejoin:round;stroke-miterlimit:4;stroke-dasharray:none;stroke-opacity:1"
       d="m 217.67067,32.096015 3.5006,-3.493812 m 3.53271,-3.525861 3.5327,-3.525861 m -20.52183,9.936516 1.15616,-1.153913 m 3.50059,-3.493812 3.53272,-3.525861 m 3.5327,-3.493804 1.57366,-1.60267 m -20.93933,10.385266 3.5006,-3.525861 m 3.5327,-3.525861 3.34002,-3.333544 m -22.7057,12.116147 3.53272,-3.493812 m 3.50059,-3.525861 3.53272,-3.493804 m -22.25609,11.66739 2.89041,-2.884794 m 3.5327,-3.525861 3.5006,-3.525861 m -20.48972,9.936516 1.12404,-1.153913 m 3.53271,-3.493812 3.53272,-3.525861 m 3.50059,-3.493804 1.57366,-1.60267 m -110.12423,99.429293 1.188277,-1.18597 m 3.532707,-3.52586 1.894819,-1.89114 m 82.569087,-82.441057 3.53271,-3.525861 m 3.53271,-3.525861 3.34002,-3.333544 m -107.201718,96.480393 3.532716,-3.4938 m 3.532707,-3.52586 3.5006,-3.52586 m 3.532707,-3.49382 0.128461,-0.16024 m 70.268827,-70.164666 3.50059,-3.493812 m 3.53272,-3.525861 3.53271,-3.493804 M 69.810667,95.369202 73.343374,91.87539 m 60.473586,-60.388393 2.8904,-2.884794 m 3.5006,-3.525861 3.5327,-3.525861 m -77.687514,67.05548 2.023279,-2.019362 m 3.5006,-3.525861 3.532707,-3.493804 m 48.141218,-48.079937 1.12404,-1.153913 m 3.53271,-3.493812 3.50059,-3.525861 m 3.53272,-3.493804 1.57365,-1.60267 m -110.124222,99.429293 1.188277,-1.18597 m 3.532708,-3.52586 3.500592,-3.4938 M 59.244653,84.823668 62.77736,81.329865 m 3.532715,-3.525861 3.500592,-3.52587 m 3.532707,-3.493804 0.995587,-0.993652 m 41.236369,-41.188475 3.53271,-3.525861 m 3.50059,-3.525861 3.34002,-3.333544 m -107.1696,96.480393 3.532716,-3.4938 m 3.500592,-3.52586 1.637897,-1.63472 m 19.494132,-19.456351 3.5006,-3.525861 m 3.532708,-3.493804 1.670012,-1.698825 m 7.964655,-7.949219 0.353266,-0.320488 m 39.309432,-39.265318 3.5006,-3.493812 m 3.53271,-3.525861 3.50059,-3.493804 M 13.512092,109.4406 l 3.500592,-3.52586 m 3.532716,-3.49382 3.500592,-3.525857 m 11.111988,-11.05838 2.986742,-3.013015 m 3.500592,-3.493803 3.468485,-3.461756 m 46.439085,-46.381112 2.922512,-2.884794 m 3.5006,-3.525861 3.532704,-3.525861 m -86.262365,75.581652 3.532707,-3.525861 m 3.532715,-3.493812 3.500592,-3.525861 m 3.532707,-3.525861 3.500601,-3.493804 M 80.98687,31.486997 82.143023,30.333084 m 3.532716,-3.493812 3.500592,-3.525861 m 3.532715,-3.493804 1.573659,-1.60267 m -80.963304,70.324918 0.192691,-0.192359 m 3.500592,-3.525861 3.532707,-3.493804 m 3.500601,-3.525827 0.931355,-0.929547 m 48.366019,-48.272254 3.532707,-3.525861 m 3.500601,-3.525861 3.340016,-3.333544 m -70.397289,59.779384 1.926934,-1.955248 m 3.532707,-3.525869 3.532715,-3.493804 m 38.699237,-38.688316 3.532715,-3.493812 m 3.532707,-3.525861 3.500601,-3.493804 M 13.512092,67.25847 17.012684,63.732609 m 3.532716,-3.493813 3.500592,-3.52586 m 25.27494,-25.225939 2.890405,-2.884794 m 3.532707,-3.525861 3.5006,-3.525861 m -43.998309,33.399524 3.532707,-3.525861 m 3.532715,-3.493812 2.66559,-2.692469 m 13.777571,-13.750866 1.156161,-1.153913 m 3.500593,-3.493812 3.532707,-3.525861 m 3.5006,-3.493804 1.605774,-1.60267 m -38.731352,28.14279 0.192691,-0.192359 m 3.500592,-3.525869 3.532716,-3.493804 m 3.500592,-3.525861 0.931355,-0.929546 m 6.134067,-6.090127 3.500592,-3.525861 m 3.532716,-3.525861 3.340016,-3.333543 m -28.165337,17.597256 1.926934,-1.955248 m 3.532707,-3.525861 3.532715,-3.493812 m 3.500592,-3.525861 3.532707,-3.493804 M 13.512092,25.0763 17.012684,21.550439"
       id="path6" />
  </g>
</svg>
