<?xml version="1.0" encoding="UTF-8" standalone="no"?>
<!-- Created with Inkscape (http://www.inkscape.org/) -->

<svg
   width="999.99988mm"
   height="80.853523mm"
   viewBox="0 0 999.99988 80.853523"
   version="1.1"
   id="svg1"
   xmlns="http://www.w3.org/2000/svg"
   xmlns:svg="http://www.w3.org/2000/svg">
  <defs
     id="defs1" />
  <g
     id="layer1"
     transform="translate(-17.487226,-16.141995)">
    <path
       style="fill:none;stroke:#000000;stroke-width:3.23562px;stroke-linecap:round;stroke-linejoin:round;stroke-miterlimit:4;stroke-dasharray:none;stroke-opacity:1"
       d="M 1012.7278,17.760196 H 22.19704 m 0,0 -0.467394,0.03612 m 0,0 -0.503333,0.107444 m 0,0 -0.431392,0.179072 m 0,0 -0.431393,0.250701 m 0,0 -0.359514,0.322392 m 0,0 -0.323576,0.358206 m 0,0 -0.251635,0.429836 m 0,0 -0.179758,0.429835 m 0,0 -0.107879,0.501465 m 0,0 -0.03613,0.465649 m 0,0 v 68.304701 m 0,0 0.03613,0.501465 m 0,0 0.107879,0.465649 m 0,0 0.179758,0.46565 m 0,0 0.251635,0.394021 m 0,0 0.323576,0.394021 m 0,0 0.359514,0.286516 m 0,0 0.431393,0.286577 m 0,0 0.431392,0.179072 m 0,0 0.503333,0.107444 m 0,0 0.467394,0.03613 m 0,0 h 12.547014 m 0,0 0.431393,-0.03613 m 0,0 0.467394,-0.107444 m 0,0 0.467394,-0.179072 m 0,0 0.395453,-0.286577 m 0,0 0.395454,-0.286516 m 0,0 0.287636,-0.394021 m 0,0 0.287637,-0.394021 m 0,0 0.179757,-0.46565 m 0,0 0.07188,-0.286515 m 0,0 0.03613,-0.179072 m 0,0 0.03613,-0.573093 m 0,0 v -2.686344 m 0,0 -0.179758,-0.895448 m 0,0 -0.107879,-0.214886 m 0,0 -0.251697,-0.429836 m 0,0 -0.323576,-0.358206 m 0,0 -0.359515,-0.322392 m 0,0 -0.395453,-0.250701 m 0,0 -0.467394,-0.179072 m 0,0 -0.467394,-0.143258 m 0,0 -0.503333,-0.03613 m 0,0 h -5.644359 m 0,0 -0.323576,-0.0355 m 0,0 -0.287637,-0.107443 m 0,0 -0.287636,-0.214887 m 0,0 -0.179757,-0.250701 m 0,0 -0.143819,-0.286577 m 0,0 -0.03612,-0.32233 m 0,0 v -9.313159 m 0,0 0.03612,-0.501464 m 0,0 0.10788,-0.46565 m 0,0 0.215696,-0.46565 m 0,0 0.251635,-0.394021 m 0,0 0.323576,-0.394021 m 0,0 0.359514,-0.322392 m 0,0 0.395454,-0.250701 m 0,0 0.467394,-0.179072 m 0,0 0.467394,-0.107443 m 0,0 0.503332,-0.0355 m 0,0 h 25.884942 m 0,0 0.503271,0.0355 m 0,0 0.467145,0.107443 m 0,0 0.467144,0.179072 m 0,0 0.395516,0.250701 m 0,0 0.395516,0.322392 m 0,0 0.287761,0.394021 m 0,0 0.287761,0.394021 m 0,0 0.180007,0.46565 m 0,0 0.107754,0.46565 m 0,0 0.03737,0.501464 m 0,0 v 9.312654 m 0,0 -0.03737,0.32233 m 0,0 -0.14388,0.286578 m 0,0 -0.180007,0.250701 m 0,0 -0.251635,0.214886 m 0,0 -0.323887,0.107444 m 0,0 -0.323264,0.0355 m 0,0 h -2.157106 m 0,0 -0.50327,0.03612 m 0,0 -0.467145,0.143258 m 0,0 -0.467145,0.179072 m 0,0 -0.395516,0.250701 m 0,0 -0.395516,0.322392 m 0,0 -0.287761,0.358207 m 0,0 -0.251635,0.429835 m 0,0 -0.215509,0.429836 m 0,0 -0.107755,0.465649 m 0,0 -0.03737,0.501465 m 0,0 v 2.471438 m 0,0 0.03737,0.501464 m 0,0 0.107755,0.46565 m 0,0 0.215509,0.46565 m 0,0 0.251635,0.394021 m 0,0 0.287761,0.394021 m 0,0 0.395516,0.286515 m 0,0 0.395516,0.286578 m 0,0 0.467145,0.179072 m 0,0 0.467145,0.107443 m 0,0 0.50327,0.03613 m 0,0 h 5.896001 m 0,0 0.503271,-0.03613 m 0,0 0.467145,-0.107443 m 0,0 0.467144,-0.179072 m 0,0 0.395516,-0.286578 m 0,0 0.395516,-0.286515 m 0,0 0.287761,-0.394021 m 0,0 0.287761,-0.394021 m 0,0 0.180007,-0.46565 m 0,0 0.107754,-0.46565 m 0,0 0.03737,-0.501464 m 0,0 V 57.48225 m 0,0 -0.03737,-0.32233 m 0,0 -0.14388,-0.286578 m 0,0 -0.180007,-0.250701 m 0,0 -0.251635,-0.214886 m 0,0 -0.323887,-0.107443 m 0,0 -0.323887,-0.07163 m 0,0 h -7.477878 m 0,0 v 6.232308 m 0,0 H 27.840416 m 0,0 V 27.681832 m 0,0 H 168.58982 m 0,0 v 3.116154 m 0,0 h 74.77878 m 0,0 v 42.838183 m 0,0 h -71.651 m 0,0 -0.50327,0.03613 m 0,0 -0.46714,0.107444 m 0,0 -0.43164,0.179072 m 0,0 -0.43164,0.250701 m 0,0 -0.35939,0.32233 m 0,0 -0.32327,0.39402 m 0,0 -0.25163,0.394021 m 0,0 -0.18001,0.46565 m 0,0 -0.14388,0.46565 m 0,0 -0.0374,0.608908 m 0,0 v 15.509141 m 0,0 0.0374,0.394021 m 0,0 0.14388,0.46565 m 0,0 0.18001,0.429835 m 0,0 0.25163,0.429836 m 0,0 0.32327,0.358206 m 0,0 0.35939,0.32233 m 0,0 0.43164,0.250763 m 0,0 0.43164,0.179073 m 0,0 0.46714,0.143257 m 0,0 0.50327,0.0355 m 0,0 0.50328,-0.0355 m 0,0 0.46714,-0.143257 m 0,0 0.43164,-0.179073 m 0,0 0.43164,-0.250763 m 0,0 0.35939,-0.32233 m 0,0 0.32389,-0.358206 m 0,0 0.25164,-0.429836 m 0,0 0.18,-0.429835 m 0,0 0.14388,-0.46565 m 0,0 0.0374,-0.501464 m 0,0 v -3.725062 m 0,0 0.0374,-0.501464 m 0,0 0.10775,-0.46565 m 0,0 0.18001,-0.429835 m 0,0 0.25163,-0.429836 m 0,0 0.32389,-0.358206 m 0,0 0.35939,-0.32233 m 0,0 0.43164,-0.250701 m 0,0 0.43164,-0.179072 m 0,0 0.50327,-0.143258 m 0,0 0.46715,-0.0355 m 0,0 h 54.39433 m 0,0 0.50327,0.0355 m 0,0 0.46714,0.143258 m 0,0 0.43164,0.179072 m 0,0 0.43164,0.250701 m 0,0 0.35939,0.32233 m 0,0 0.32389,0.358206 m 0,0 0.25164,0.429836 m 0,0 0.18,0.429835 m 0,0 0.14388,0.46565 m 0,0 0.0374,0.501464 m 0,0 -0.0374,0.32233 m 0,0 v 0.286516 m 0,0 0.0374,0.501464 m 0,0 0.10775,0.46565 m 0,0 0.18001,0.465649 m 0,0 0.25163,0.394021 m 0,0 0.32389,0.394021 m 0,0 0.39551,0.286516 m 0,0 0.39552,0.286577 m 0,0 0.46715,0.179073 m 0,0 0.46714,0.107443 m 0,0 0.50327,0.03613 m 0,0 h 31.60124 m 0,0 0.46714,-0.03613 m 0,0 0.50327,-0.107443 m 0,0 0.43164,-0.179073 m 0,0 0.43164,-0.286577 m 0,0 0.35939,-0.286516 m 0,0 0.32389,-0.394021 m 0,0 0.25164,-0.394021 m 0,0 0.18,-0.465649 m 0,0 0.10776,-0.46565 m 0,0 0.0374,-0.501464 m 0,0 v -2.471439 m 0,0 -0.0374,-0.501464 m 0,0 -0.10776,-0.46565 m 0,0 -0.18,-0.429835 m 0,0 -0.25164,-0.429836 m 0,0 -0.32389,-0.358206 m 0,0 -0.35939,-0.322392 m 0,0 -0.43164,-0.250701 m 0,0 -0.43164,-0.179073 m 0,0 -0.50327,-0.143257 m 0,0 -0.46714,-0.03613 m 0,0 h -18.0835 m 0,0 V 51.285681 m 0,0 h 11.21678 m 0,0 0.32389,-0.03612 m 0,0 0.32388,-0.143258 m 0,0 0.25164,-0.179072 m 0,0 0.18001,-0.286516 m 0,0 0.14388,-0.286577 m 0,0 0.0374,-0.32233 m 0,0 v -6.196494 m 0,0 -0.0374,-0.322392 m 0,0 -0.14388,-0.32233 m 0,0 -0.18001,-0.250763 m 0,0 -0.25164,-0.179072 m 0,0 -0.32388,-0.143258 m 0,0 -0.32389,-0.03613 m 0,0 H 252.0751 m 0,0 V 27.681134 m 0,0 h 94.69577 m 0,0 v 14.900234 m 0,0 h -11.21696 m 0,0 -0.32389,0.03613 m 0,0 -0.28776,0.143258 m 0,0 -0.25164,0.179072 m 0,0 -0.21551,0.250763 m 0,0 -0.10775,0.32233 m 0,0 -0.0374,0.322392 m 0,0 v 6.196494 m 0,0 0.0374,0.32233 m 0,0 0.10775,0.286577 m 0,0 0.21551,0.286516 m 0,0 0.25164,0.179072 m 0,0 0.28776,0.143258 m 0,0 0.32389,0.03612 m 0,0 h 11.21685 m 0,0 v 32.271913 m 0,0 h -18.04757 m 0,0 -0.50327,0.03613 m 0,0 -0.46714,0.143257 m 0,0 -0.46715,0.179073 m 0,0 -0.39551,0.250701 m 0,0 -0.39552,0.322392 m 0,0 -0.28776,0.358206 m 0,0 -0.28776,0.429836 m 0,0 -0.18001,0.429835 m 0,0 -0.10775,0.46565 m 0,0 -0.0374,0.501464 m 0,0 v 2.471439 m 0,0 0.0374,0.501464 m 0,0 0.10775,0.46565 m 0,0 0.18001,0.465649 m 0,0 0.28776,0.394021 m 0,0 0.28776,0.394021 m 0,0 0.39552,0.286516 m 0,0 0.39551,0.286577 m 0,0 0.46715,0.179073 m 0,0 0.46714,0.107443 m 0,0 0.50327,0.03613 m 0,0 h 23.65593 m 0,0 0.50327,-0.03613 m 0,0 0.46715,-0.107443 m 0,0 0.43101,-0.179073 m 0,0 0.43165,-0.286577 m 0,0 0.35939,-0.286516 m 0,0 0.32388,-0.394021 m 0,0 0.25164,-0.394021 m 0,0 0.21551,-0.465649 m 0,0 0.10775,-0.46565 m 0,0 0.0374,-0.501464 m 0,0 V 27.682087 m 0,0 h 323.92134 m 0,0 v 61.463486 m 0,0 0.0716,0.501464 m 0,0 0.10775,0.46565 m 0,0 0.18001,0.465649 m 0,0 0.25164,0.394021 m 0,0 0.32388,0.394021 m 0,0 0.35939,0.286516 m 0,0 0.43165,0.286577 m 0,0 0.43164,0.179073 m 0,0 0.50327,0.107443 m 0,0 0.46714,0.03613 m 0,0 h 23.69196 m 0,0 0.46715,-0.03613 m 0,0 0.46714,-0.107443 m 0,0 0.46715,-0.179073 m 0,0 0.43164,-0.286577 m 0,0 0.35939,-0.286516 m 0,0 0.32388,-0.394021 m 0,0 0.25164,-0.394021 m 0,0 0.18001,-0.465649 m 0,0 0.10775,-0.46565 m 0,0 0.0374,-0.501464 m 0,0 v -2.471439 m 0,0 -0.0374,-0.501464 m 0,0 -0.10775,-0.46565 m 0,0 -0.18001,-0.429835 m 0,0 -0.25164,-0.429836 m 0,0 -0.32388,-0.358206 m 0,0 -0.35939,-0.322392 m 0,0 -0.43164,-0.250701 m 0,0 -0.46715,-0.179073 m 0,0 -0.46714,-0.143257 m 0,0 -0.46715,-0.03613 m 0,0 h -18.08361 m 0,0 V 51.285681 m 0,0 h 11.2169 m 0,0 0.32326,-0.03612 m 0,0 0.28776,-0.143258 m 0,0 0.28776,-0.179072 m 0,0 0.18001,-0.286516 m 0,0 0.10775,-0.286577 m 0,0 0.0716,-0.32233 m 0,0 v -6.196494 m 0,0 -0.0716,-0.322392 m 0,0 -0.10775,-0.32233 m 0,0 -0.18001,-0.250763 m 0,0 -0.28776,-0.179072 m 0,0 -0.28776,-0.143258 m 0,0 -0.32326,-0.03613 m 0,0 h -11.2169 m 0,0 V 27.681134 m 0,0 h 94.69584 m 0,0 v 14.900234 m 0,0 h -11.21683 m 0,0 -0.32389,0.03613 m 0,0 -0.28776,0.143258 m 0,0 -0.25163,0.179072 m 0,0 -0.21551,0.250763 m 0,0 -0.10776,0.32233 m 0,0 -0.0716,0.322392 m 0,0 v 6.196494 m 0,0 0.0716,0.32233 m 0,0 0.10776,0.286577 m 0,0 0.21551,0.286516 m 0,0 0.25163,0.179072 m 0,0 0.28776,0.143258 m 0,0 0.32389,0.03612 m 0,0 h 11.21683 m 0,0 v 32.271913 m 0,0 h -18.08355 m 0,0 -0.46714,0.03613 m 0,0 -0.46714,0.143257 m 0,0 -0.46715,0.179073 m 0,0 -0.39552,0.250701 m 0,0 -0.39551,0.322392 m 0,0 -0.32389,0.358206 m 0,0 -0.25163,0.429836 m 0,0 -0.18001,0.429835 m 0,0 -0.10775,0.46565 m 0,0 -0.0374,0.501464 m 0,0 v 2.471439 m 0,0 0.0374,0.501464 m 0,0 0.10775,0.46565 m 0,0 0.18001,0.465649 m 0,0 0.25163,0.394021 m 0,0 0.32389,0.394021 m 0,0 0.39551,0.286516 m 0,0 0.39552,0.286577 m 0,0 0.46715,0.179073 m 0,0 0.46714,0.107443 m 0,0 0.46714,0.03613 m 0,0 h 31.6731 m 0,0 0.43164,-0.03613 m 0,0 0.50327,-0.107443 m 0,0 0.43164,-0.179073 m 0,0 0.43165,-0.286577 m 0,0 0.35939,-0.286516 m 0,0 0.32326,-0.394021 m 0,0 0.25164,-0.394021 m 0,0 0.18,-0.465649 m 0,0 0.10776,-0.46565 m 0,0 0.0374,-0.501464 m 0,0 V 88.85906 m 0,0 v -0.32233 m 0,0 0.0374,-0.501464 m 0,0 0.10775,-0.46565 m 0,0 0.18001,-0.429835 m 0,0 0.25164,-0.429836 m 0,0 0.32388,-0.358206 m 0,0 0.35939,-0.32233 m 0,0 0.43164,-0.250701 m 0,0 0.43165,-0.179072 m 0,0 0.50327,-0.143258 m 0,0 0.46714,-0.0355 m 0,0 h 54.39433 m 0,0 0.50327,0.0355 m 0,0 0.46714,0.143258 m 0,0 0.43165,0.179072 m 0,0 0.43164,0.250701 m 0,0 0.35939,0.32233 m 0,0 0.32388,0.358206 m 0,0 0.25164,0.429836 m 0,0 0.18001,0.429835 m 0,0 0.14388,0.46565 m 0,0 0.0374,0.501464 m 0,0 v 3.725062 m 0,0 0.0374,0.501464 m 0,0 0.10775,0.46565 m 0,0 0.18001,0.429835 m 0,0 0.25164,0.429836 m 0,0 0.32388,0.358206 m 0,0 0.35939,0.32233 m 0,0 0.43165,0.250763 m 0,0 0.46714,0.179073 m 0,0 0.46714,0.143257 m 0,0 0.46715,0.0355 m 0,0 0.50327,-0.0355 m 0,0 0.46714,-0.143257 m 0,0 0.46715,-0.179073 m 0,0 0.39552,-0.250763 m 0,0 0.39551,-0.32233 m 0,0 0.28776,-0.358206 m 0,0 0.25164,-0.429836 m 0,0 0.21551,-0.429835 m 0,0 0.10775,-0.46565 m 0,0 0.0374,-0.608907 m 0,0 V 76.645204 m 0,0 -0.0374,-0.394021 m 0,0 -0.10775,-0.46565 m 0,0 -0.21551,-0.46565 m 0,0 -0.25164,-0.394021 m 0,0 -0.28776,-0.39402 m 0,0 -0.39551,-0.32233 m 0,0 -0.39552,-0.250701 m 0,0 -0.46715,-0.179072 m 0,0 -0.46714,-0.107444 m 0,0 -0.50327,-0.03613 m 0,0 h -71.61509 m 0,0 V 30.797986 m 0,0 h 74.74278 m 0,0 v -3.116154 m 0,0 h 140.74949 m 0,0 v 34.779159 m 0,0 h -29.01272 m 0,0 v -6.232308 m 0,0 h -7.47792 m 0,0 -0.32389,0.07163 m 0,0 -0.28776,0.107443 m 0,0 -0.28776,0.214886 m 0,0 -0.18001,0.250701 m 0,0 -0.14388,0.286578 m 0,0 -0.0374,0.32233 m 0,0 v 31.663011 m 0,0 0.0374,0.501464 m 0,0 0.14388,0.46565 m 0,0 0.18001,0.46565 m 0,0 0.25163,0.394021 m 0,0 0.32327,0.394021 m 0,0 0.35939,0.286515 m 0,0 0.43164,0.286578 m 0,0 0.43164,0.179072 m 0,0 0.46714,0.107443 m 0,0 0.50327,0.03613 m 0,0 h 5.932 m 0,0 0.46714,-0.03613 m 0,0 0.46714,-0.107443 m 0,0 0.46715,-0.179072 m 0,0 0.39551,-0.286578 m 0,0 0.39552,-0.286515 m 0,0 0.32389,-0.394021 m 0,0 0.25163,-0.394021 m 0,0 0.18001,-0.46565 m 0,0 0.10775,-0.46565 m 0,0 0.0374,-0.501464 m 0,0 v -2.471438 m 0,0 -0.0374,-0.501465 m 0,0 -0.10775,-0.465649 m 0,0 -0.18001,-0.429836 m 0,0 -0.25163,-0.429835 m 0,0 -0.32389,-0.358207 m 0,0 -0.39552,-0.322392 m 0,0 -0.39551,-0.250701 m 0,0 -0.46715,-0.179072 m 0,0 -0.46714,-0.143258 m 0,0 -0.46714,-0.03612 m 0,0 h -2.19303 m 0,0 -0.32389,-0.0355 m 0,0 -0.28776,-0.107444 m 0,0 -0.28776,-0.214886 m 0,0 -0.18001,-0.250701 m 0,0 -0.14388,-0.286578 m 0,0 -0.0374,-0.32233 m 0,0 v -9.312654 m 0,0 0.0374,-0.501464 m 0,0 0.14388,-0.46565 m 0,0 0.18001,-0.46565 m 0,0 0.25163,-0.394021 m 0,0 0.32327,-0.394021 m 0,0 0.35939,-0.322392 m 0,0 0.43164,-0.250701 m 0,0 0.43164,-0.179072 m 0,0 0.46715,-0.107443 m 0,0 0.50327,-0.0355 m 0,0 h 25.88492 m 0,0 0.5033,0.0355 m 0,0 0.4671,0.107443 m 0,0 0.4672,0.179072 m 0,0 0.3955,0.250701 m 0,0 0.3955,0.322392 m 0,0 0.3239,0.394021 m 0,0 0.2516,0.394021 m 0,0 0.18,0.46565 m 0,0 0.1078,0.46565 m 0,0 0.037,0.501464 m 0,0 v 9.312654 m 0,0 -0.037,0.32233 m 0,0 -0.1439,0.286578 m 0,0 -0.18,0.250701 m 0,0 -0.2516,0.214886 m 0,0 -0.3239,0.107444 m 0,0 -0.3239,0.0355 m 0,0 h -5.6444 m 0,0 -0.50331,0.03612 m 0,0 -0.46714,0.143258 m 0,0 -0.43164,0.179072 m 0,0 -0.43164,0.250701 m 0,0 -0.35939,0.322392 m 0,0 -0.32389,0.358207 m 0,0 -0.25164,0.429835 m 0,0 -0.10775,0.214887 m 0,0 -0.18001,0.895448 m 0,0 v 2.865428 m 0,0 0.0374,0.394021 m 0,0 0.0374,0.179072 m 0,0 0.0716,0.286515 m 0,0 0.21551,0.46565 m 0,0 0.25164,0.394021 m 0,0 0.32389,0.394021 m 0,0 0.35939,0.286516 m 0,0 0.43164,0.286577 m 0,0 0.43164,0.179072 m 0,0 0.46714,0.107444 m 0,0 0.57486,0.03613 m 0,0 h 12.4033 m 0,0 0.5032,-0.03613 m 0,0 0.4672,-0.107444 m 0,0 0.4316,-0.179072 m 0,0 0.4317,-0.286577 m 0,0 0.3594,-0.286516 m 0,0 0.3232,-0.394021 m 0,0 0.2517,-0.394021 m 0,0 0.18,-0.46565 m 0,0 0.1439,-0.465649 m 0,0 0.037,-0.501465 m 0,0 V 20.840535 m 0,0 -0.037,-0.46565 m 0,0 -0.1439,-0.501464 m 0,0 -0.18,-0.429835 m 0,0 -0.2517,-0.429836 m 0,0 -0.3232,-0.358206 m 0,0 -0.3594,-0.322392 m 0,0 -0.4317,-0.250701 m 0,0 -0.4316,-0.179073 m 0,0 -0.4672,-0.107443 m 0,0 -0.5032,-0.03613"
       id="path1" />
    <path
       style="fill:none;stroke:#000000;stroke-width:0.0359516px;stroke-linecap:round;stroke-linejoin:round;stroke-miterlimit:4;stroke-dasharray:none;stroke-opacity:1"
       d="m 1007.5959,92.262088 0.8988,-0.895454 m 2.6244,-2.614734 2.6604,-2.650548 m -11.8999,3.940005 2.6244,-2.614727 m 2.6605,-2.650548 2.6244,-2.614727 m 2.6605,-2.650548 2.6244,-2.614734 m -17.18484,9.205279 2.55254,-2.543092 m 8.0532,-7.987458 2.6244,-2.650547 m 2.6604,-2.614734 2.0853,-2.077455 m -10.1743,2.184911 1.474,-1.432727 m 2.6244,-2.650547 2.6605,-2.614728 m 2.6244,-2.650547 0.791,-0.752184 m -39.97829,31.949844 0.86284,-0.895454 m 2.66042,-2.614734 2.08521,-2.113275 m 19.05442,-18.983652 2.6244,-2.614727 m 3.9188,-3.904183 1.4021,-1.361092 m 2.6244,-2.650548 2.6604,-2.650548 m -43.60929,35.567482 2.62448,-2.614727 m 2.66042,-2.650548 1.22237,-1.217822 m 14.63228,-14.57801 2.62448,-2.650547 m 2.66042,-2.614728 1.2583,-1.253642 m 9.31154,-9.276914 2.6244,-2.650548 m 2.6605,-2.614727 2.6244,-2.650548 m -43.60935,35.567481 2.66042,-2.650547 m 8.30484,-8.274005 2.26497,-2.256552 m 2.62448,-2.614727 2.58854,-2.578913 m 18.587,-18.518014 2.6244,-2.614727 m 2.6604,-2.650548 2.0853,-2.077455 m -46.52149,38.432941 0.8269,-0.788005 m 2.62448,-2.614727 2.66042,-2.650548 m 2.62449,-2.650547 2.66042,-2.614728 m 26.35258,-26.290567 0.072,-0.07163 m 2.6245,-2.614728 2.6604,-2.650547 m 2.6245,-2.614734 0.7909,-0.787998 m -46.52144,38.468755 2.12114,-2.113276 m 2.66042,-2.650547 2.62449,-2.614728 m 30.34319,-30.266385 1.4022,-1.361092 m 2.6244,-2.650548 2.6604,-2.614733 m -43.60934,35.567488 2.19303,-2.220732 m 29.51631,-29.406752 2.6245,-2.614727 m 2.6604,-2.650548 2.6245,-2.614727 m -16.71756,8.739642 2.19309,-2.184911 m 2.62448,-2.614733 2.66039,-2.650548 m -15.38728,7.450192 0.86285,-0.85964 m 2.62442,-2.614727 2.66042,-2.650548 m 2.62448,-2.614727 1.18642,-1.182007 m -15.71088,7.736738 2.62448,-2.614733 m 2.66042,-2.650548 2.5166,-2.471457 m -17.04107,9.062009 2.62449,-2.614727 m 2.66042,-2.650548 2.62448,-2.614727 m -16.71755,8.739642 2.19308,-2.184911 m 2.62442,-2.614733 2.66042,-2.650548 m -15.38724,7.450192 0.82684,-0.85964 m 2.66042,-2.614727 2.62448,-2.650548 m 2.66042,-2.614727 1.18643,-1.182007 m -15.71089,7.736738 2.62448,-2.614733 m 2.66042,-2.650548 2.48066,-2.471457 m -17.04106,9.062009 2.66042,-2.614727 m 2.62442,-2.650548 2.66042,-2.614727 m -84.37848,76.185326 1.11448,-1.110365 m 2.66042,-2.650542 0.5749,-0.573093 m 63.31088,-63.111684 2.19302,-2.184911 m 2.62449,-2.614733 2.66042,-2.650548 m -75.35468,67.194965 2.66042,-2.650548 m 57.27101,-57.094225 0.86284,-0.85964 m 2.66042,-2.614727 2.62449,-2.650548 m 2.66042,-2.614727 1.18642,-1.182007 m -73.88068,65.726418 2.66042,-2.650548 m 2.62448,-2.650548 2.66042,-2.614727 m 50.18853,-50.073857 2.66042,-2.614733 m 2.62442,-2.650548 2.51667,-2.471457 m -75.17492,67.015874 2.62448,-2.614727 m 2.66042,-2.650548 2.62448,-2.614734 m 2.66042,-2.650547 0.61103,-0.608908 m 46.95284,-46.814401 2.66042,-2.614727 m 2.62448,-2.650548 2.66042,-2.614727 m -74.67159,66.478595 1.9774,-1.934184 m 2.62441,-2.650548 2.66042,-2.650548 m 2.66042,-2.614727 1.90546,-1.934185 m 46.12599,-45.954761 2.15709,-2.184911 m 2.66042,-2.614733 2.62448,-2.650548 m -73.30541,65.189145 0.64709,-0.644728 m 2.62448,-2.614727 2.66042,-2.650548 m 2.62448,-2.614734 2.66042,-2.650547 m 46.70121,-46.563669 0.86284,-0.85964 m 2.66042,-2.614727 2.62449,-2.650548 m 2.66042,-2.614727 1.15042,-1.182007 m -73.84468,65.726418 2.62448,-2.650548 m 2.66042,-2.650548 2.62448,-2.614727 m 50.22441,-50.073857 2.66042,-2.614733 m 2.62448,-2.650548 2.51667,-2.471457 m -75.17492,67.015874 2.62448,-2.614727 m 2.66042,-2.650548 2.62448,-2.614734 m 2.66042,-2.650547 0.61103,-0.608908 m 46.95284,-46.814401 2.62448,-2.614727 m 2.66042,-2.650548 2.62448,-2.614727 m -74.63565,66.478595 1.9774,-1.934184 m 2.62441,-2.650548 2.66042,-2.650548 m 2.62449,-2.614727 1.94139,-1.934185"
       id="path2" />
    <path
       style="fill:none;stroke:#000000;stroke-width:0.0359516px;stroke-linecap:round;stroke-linejoin:round;stroke-miterlimit:4;stroke-dasharray:none;stroke-opacity:1"
       d="m 865.76661,28.147494 2.62448,-2.650548 m 2.66043,-2.614733 2.62448,-2.650548 m -80.17219,72.030423 2.19303,-2.220731 m 2.66042,-2.614727 2.62448,-2.650548 m 2.66042,-2.614727 2.62448,-2.650548 m 2.66042,-2.614734 2.66042,-2.650548 m 44.90363,-44.77276 2.66042,-2.650548 m 2.62442,-2.614727 2.66042,-2.650548 m 2.62448,-2.614727 1.18643,-1.182007 m -82.68879,74.50188 0.89879,-0.895454 m 2.66042,-2.614734 2.62448,-2.650548 m 2.66042,-2.614727 2.62448,-2.650548 m 2.66042,-2.650547 2.62448,-2.614728 m 44.93951,-44.77276 2.66042,-2.650548 m 2.62448,-2.650548 2.66042,-2.614733 m 2.62448,-2.650548 2.5166,-2.471457 m -80.49569,72.281149 2.66042,-2.614727 m 2.62448,-2.650548 2.66042,-2.614727 m 2.62442,-2.650548 2.66042,-2.614734 m 2.62448,-2.650548 0.64715,-0.608907 m 42.96224,-42.838576 1.33018,-1.325277 m 2.66042,-2.650548 2.62448,-2.614727 m 2.66042,-2.650548 2.62448,-2.614727 M 770.60258,91.366634 773.263,88.7519 m 2.62448,-2.650548 2.5526,-2.543092 m 4.42205,-4.405641 0.97067,-0.967089 m 2.62448,-2.614728 2.66042,-2.650547"
       id="path3" />
    <path
       style="fill:none;stroke:#000000;stroke-width:0.0359516px;stroke-linecap:round;stroke-linejoin:round;stroke-miterlimit:4;stroke-dasharray:none;stroke-opacity:1"
       d="m 834.02133,28.147494 2.66042,-2.650548 m 2.62448,-2.614733 2.66042,-2.650548 m -79.30933,71.170783 1.33018,-1.361091 m 2.66042,-2.614727 2.62448,-2.650548 m 13.58973,-13.539286 2.26497,-2.256546 m 2.66042,-2.650547 2.62442,-2.614728 m 34.36983,-34.24221 2.66042,-2.650548 m 2.62442,-2.614727 2.66042,-2.650548 m 2.62448,-2.614727 1.18642,-1.182007 m -52.70513,44.62949 2.62448,-2.614727 m 2.66042,-2.650548 2.48066,-2.471457 m 23.94378,-23.854924 2.62449,-2.650548 m 2.66042,-2.650548 2.62448,-2.614733 m 2.66042,-2.650548 2.5166,-2.471457 m -43.50145,35.424211 2.66042,-2.650548 m 2.62442,-2.614727 1.18642,-1.182001 m 15.99852,-15.939101 1.33018,-1.325277 m 2.66042,-2.650548 2.62448,-2.614727 m 2.66043,-2.650548 2.62448,-2.614727 M 781.17238,49.2086 783.8328,46.593867 m 2.62448,-2.650548 2.66042,-2.614727"
       id="path4" />
    <path
       style="fill:none;stroke:#000000;stroke-width:0.0359516px;stroke-linecap:round;stroke-linejoin:round;stroke-miterlimit:4;stroke-dasharray:none;stroke-opacity:1"
       d="m 802.31198,28.147494 2.66042,-2.650548 m 2.62448,-2.614733 2.66042,-2.650548 m -38.32448,30.302206 2.62448,-2.614727 m 2.66042,-2.650548 2.62448,-2.650548 m 3.01993,-2.972908 2.26497,-2.292367 m 2.66042,-2.614727 2.62442,-2.650548 m 2.66042,-2.614733 2.62448,-2.650548 m 2.66042,-2.614727 2.62448,-2.650548 m 2.66042,-2.614727 1.18643,-1.182007 m -34.44171,26.398023 0.21551,-0.214887 m 13.23022,-13.145277 2.62448,-2.650548 m 2.66042,-2.650548 2.62448,-2.614733 m 2.66042,-2.650548 2.48067,-2.471457 m -17.04107,9.062009 2.66042,-2.614727 m 2.62448,-2.650548 2.66042,-2.614727 m -80.60363,72.424419 2.15708,-2.149096 m 61.729,-61.535681 2.19303,-2.184911 m 2.62448,-2.614733 2.66042,-2.650548 m -80.20812,72.030423 2.22903,-2.220731 m 2.62442,-2.614728 2.66048,-2.650547 m 57.27094,-57.094225 0.86285,-0.85964 m 2.66042,-2.614727 2.62448,-2.650548 m 2.66042,-2.614727 1.18642,-1.182007 m -82.68884,74.50188 0.86284,-0.895454 m 2.66042,-2.614734 2.66042,-2.650548 m 60.75834,-60.604406 2.66042,-2.614733 m 2.62448,-2.650548 2.5166,-2.471457 m -80.45982,72.281149 2.62448,-2.614728 m 2.66042,-2.650547 1.22237,-1.217822 m 56.91142,-56.736043 2.66042,-2.614727 m 2.62449,-2.650548 2.66042,-2.614727 m -75.35462,67.159137 2.66042,-2.614727 m 2.62442,-2.650548 2.15709,-2.149089 m 51.1952,-51.005131 2.15708,-2.184911 m 2.66042,-2.614733 2.62449,-2.650548 m -64.74894,56.664408 2.66042,-2.650548 m 2.62448,-2.614727 0.82685,-0.823819 m 43.24988,-43.125122 0.86284,-0.85964 m 2.66042,-2.614727 2.62448,-2.650548 m 2.66042,-2.614727 1.15043,-1.182007 m -61.9447,53.834769 1.2943,-1.289456 m 2.66042,-2.650548 2.62442,-2.614727 m 13.94925,-13.897461 0.5394,-0.537279 m 25.16614,-25.10856 2.66042,-2.614733 m 2.62449,-2.650548 2.51666,-2.471457 m -54.03537,45.918947 2.62448,-2.614728 m 2.66042,-2.614727 2.62448,-2.650548 m 4.56587,-4.513097 0.71903,-0.752184 m 2.66042,-2.614727 2.62448,-2.650548 m 18.51506,-18.446379 2.62448,-2.614727 m 2.66042,-2.650548 2.62449,-2.614727 m -43.60933,35.53166 2.66042,-2.614727 m 2.62442,-2.650548 2.66042,-2.614733 m 2.62448,-2.650548 1.40212,-1.361091 m 14.95592,-14.900371 2.15708,-2.184911 m 2.66042,-2.614733 2.62448,-2.650548 m -33.03958,25.036931 2.66042,-2.650548 m 2.62448,-2.614727 0.82684,-0.823819 m 11.54053,-11.497645 0.86285,-0.85964 m 2.62442,-2.614727 2.66048,-2.650548 m 2.62442,-2.614727 1.18642,-1.182007 m -30.23534,22.207292 1.2943,-1.289456 m 2.66042,-2.614727 2.62442,-2.650548 m 7.94532,-7.915823 2.66042,-2.614733 m 2.62448,-2.650548 2.5166,-2.471457 m -22.32596,14.29147 2.62448,-2.578913 m 2.66042,-2.650548 2.62448,-2.614727 m 2.66042,-2.650548 2.62448,-2.614727 m -16.71755,8.739642 2.19309,-2.184911 m 2.62448,-2.614733 2.66042,-2.650548 m -15.38731,7.450192 0.86278,-0.85964 m 2.62448,-2.614727 2.66042,-2.650548 m 2.62449,-2.614727 1.18642,-1.182007 m -15.71089,7.736738 2.62448,-2.614733 m 2.66042,-2.650548 2.48067,-2.471457 m -17.04107,9.062009 2.66042,-2.614727 m 2.66042,-2.650548 2.62448,-2.614727 m -16.71755,8.739642 2.19303,-2.184911 m 2.62448,-2.614733 2.66042,-2.650548 m -15.38731,7.450192 0.82691,-0.85964 m 2.66042,-2.614727 2.62448,-2.650548 m 2.66042,-2.614727 1.18642,-1.182007 m -15.71088,7.736738 2.62448,-2.614733 m 2.66042,-2.650548 2.48066,-2.471457 m -17.04113,9.062009 2.66049,-2.614727 m 2.62442,-2.650548 2.66042,-2.614727 m -16.71749,8.739642 2.15708,-2.184911 m 2.66042,-2.614733 2.66042,-2.650548 m -15.42324,7.450192 0.86284,-0.85964 m 2.66042,-2.614727 2.62448,-2.650548 m 2.66042,-2.614727 1.18643,-1.182007 m -15.74683,7.736738 2.66042,-2.614733 m 2.62442,-2.650548 2.51667,-2.471457 m -17.04107,9.062009 2.66042,-2.614727 m 2.62442,-2.650548 2.66042,-2.614727 m -16.71749,8.739642 2.15709,-2.184911 m 2.66042,-2.614733 2.62448,-2.650548 m -15.38731,7.450192 0.86285,-0.85964 m 2.62448,-2.614727 2.66042,-2.650548 m 2.66042,-2.614727 1.15042,-1.182007 m -15.71082,7.736738 2.66042,-2.614733 m 2.62442,-2.650548 2.51666,-2.471457 m -17.04113,9.062009 2.62448,-2.614727 m 2.66042,-2.650548 2.62449,-2.614727 m -16.68155,8.739642 2.15708,-2.184911 m 2.66042,-2.614733 2.62448,-2.650548 m -15.38731,7.450192 0.86285,-0.85964 m 2.62448,-2.614727 2.66042,-2.650548 m 2.62442,-2.614727 1.18642,-1.182007 m -15.71088,7.736738 2.62448,-2.614733 m 2.66042,-2.650548 2.51666,-2.471457 m -17.04113,9.062009 2.62448,-2.614727 m 2.66042,-2.650548 2.62449,-2.614727 m -16.7175,8.739642 2.19302,-2.184911 m 2.62449,-2.614733 2.66042,-2.650548 m -15.38731,7.450192 0.86284,-0.85964 m 2.62442,-2.614727 2.66042,-2.650548 m 2.62448,-2.614727 1.18643,-1.182007 m -15.71089,7.736738 2.62448,-2.614733 m 2.66042,-2.650548 2.48067,-2.471457 m -17.04107,9.062009 2.66042,-2.614727 m 2.62448,-2.650548 2.66042,-2.614727 m -16.71755,8.739642 2.19309,-2.184911 m 2.62442,-2.614733 2.66042,-2.650548 m -15.38725,7.450192 0.82685,-0.85964 m 2.66042,-2.614727 2.62448,-2.650548 m 2.66042,-2.614727 1.18642,-1.182007 m -15.71088,7.736738 2.62448,-2.614733 m 2.66042,-2.650548 2.48066,-2.471457 m -17.04107,9.062009 2.66042,-2.614727 m 2.62442,-2.650548 2.66042,-2.614727 m -16.71749,8.739642 2.15709,-2.184911 m 2.66042,-2.614733 2.62448,-2.650548 m -15.38731,7.450192 0.86285,-0.85964 m 2.66042,-2.614727 2.62448,-2.650548 m 2.66042,-2.614727 1.18643,-1.182007 m -15.74683,7.736738 2.66042,-2.614733 m 2.62442,-2.650548 2.51666,-2.471457 m -17.04112,9.062009 2.66042,-2.614727 m 2.62448,-2.650548 2.66042,-2.614727 m -16.71749,8.739642 2.15709,-2.184911 m 2.66042,-2.614733 2.62448,-2.650548 m -80.17218,72.030423 2.22896,-2.220731 m 2.62448,-2.614728 1.18643,-1.182 m 58.745,-58.562772 0.86284,-0.85964 m 2.62449,-2.614727 2.66042,-2.650548 m 2.62442,-2.614727 1.18642,-1.182007 m -82.68879,74.50188 0.89879,-0.895454 m 2.66042,-2.614734 2.62448,-2.650548 m 2.66042,-2.614727 2.62448,-2.650548 m 55.50931,-55.339131 2.66042,-2.614733 m 2.62448,-2.650548 2.51667,-2.471457 m -80.49576,72.281149 2.66042,-2.614728 m 2.62448,-2.650547 1.2583,-1.217822 m 4.42206,-4.405641 2.2649,-2.256546 m 2.66042,-2.650548 2.62448,-2.614727 m 44.93957,-44.808581 2.62448,-2.614727 m 2.66042,-2.650548 2.62448,-2.614727 m -80.60357,72.424419 2.66042,-2.614734 m 2.62442,-2.650548 2.5526,-2.543092 m 13.3021,-13.252739 2.66042,-2.650548 m 2.62448,-2.614727 2.51661,-2.507271 m 34.94497,-34.851118 2.19309,-2.184911 m 2.66042,-2.614733 2.62448,-2.650548 m -48.89429,40.832762 2.66042,-2.614727 m 2.62448,-2.650548 1.18643,-1.146186 m 27.03565,-26.971109 0.86285,-0.85964 m 2.62442,-2.614727 2.66042,-2.650548 m 2.62448,-2.614727 1.18642,-1.182007 m -45.73047,37.680757 0.93472,-0.96709 m 2.66042,-2.614727 2.62448,-2.650548 m 23.79997,-23.711654 2.62448,-2.614733 m 2.66042,-2.650548 2.5166,-2.471457 m -41.59606,33.525847 0.75503,-0.752184 m 2.66042,-2.614727 2.62442,-2.650548 m 2.66042,-2.650548 2.62448,-2.614727 m 13.23023,-13.181104 2.62448,-2.614727 m 2.66042,-2.650548 2.62448,-2.614727 m -38.32449,30.266385 2.66042,-2.614733 m 2.62448,-2.650548 1.36618,-1.361091 m 3.91872,-3.904184 2.66042,-2.614727 m 2.62448,-2.650548 2.51661,-2.471457 m 3.23563,-3.259455 2.19308,-2.184911 m 2.62442,-2.614733 2.66042,-2.650548 m -31.8891,23.890745 1.47406,-1.504362 m 13.23016,-13.145283 2.66042,-2.650548 m 2.62448,-2.614727 2.66042,-2.650548 m 2.62448,-2.614727 1.18643,-1.182007 m -15.71089,7.736738 2.62448,-2.614733 m 2.66042,-2.650548 2.48067,-2.471457 m -80.45982,72.281149 0.86284,-0.85964 m 62.55591,-62.3595 2.66042,-2.614727 m 2.62448,-2.650548 2.66042,-2.614727 m -80.60357,72.424394 2.62448,-2.614734 m 2.66042,-2.650548 2.44472,-2.435636 m 56.15646,-55.983859 2.19309,-2.184911 m 2.62442,-2.614733 2.66042,-2.650548 m -80.20812,72.030423 2.22903,-2.220731 m 2.62448,-2.614727 2.66042,-2.650548 m 57.30688,-57.094225 0.82691,-0.85964 m 2.66042,-2.614727 2.62448,-2.650548 m 2.66042,-2.614727 1.18642,-1.182007 m -82.68878,74.50188 0.89879,-0.895454 m 2.62448,-2.614734 2.66042,-2.650548 m 60.79421,-60.604406 2.62448,-2.614733 m 2.66042,-2.650548 2.48066,-2.471457 m -80.45982,72.281149 2.62448,-2.614727 m 2.66042,-2.650548 2.62449,-2.614727 m 2.66042,-2.650548 0.8269,-0.823819 M 304.094,26.822217 306.75442,24.20749 m 2.62448,-2.650548 2.66042,-2.614727 m -75.31874,67.159137 2.62448,-2.614727 m 2.66042,-2.650548 2.62449,-2.650547 m 2.66042,-2.614728 2.62448,-2.650547 m 45.4069,-45.238398 2.15708,-2.184911 m 2.66042,-2.614733 2.62449,-2.650548 m -73.30541,65.189145 0.64715,-0.644728 m 2.62442,-2.614727 2.66042,-2.650548 m 2.62448,-2.614734 2.66042,-2.650548 m 2.69642,-2.686362 2.58848,-2.578913 m 2.62449,-2.650547 2.66042,-2.614728 m 36.1314,-36.033118 0.86284,-0.85964 m 2.66042,-2.614727 2.62448,-2.650548 m 2.66042,-2.614727 1.18643,-1.182007 m -73.88068,65.726417 2.62448,-2.650548 m 2.66042,-2.650547 2.66042,-2.614728 m 13.19429,-13.181104 2.66042,-2.614727 m 2.62448,-2.650548 2.15708,-2.14909 m 3.70303,-3.689278 2.08515,-2.077455 m 2.62448,-2.614733 2.66042,-2.650548 m 18.47918,-18.446373 2.66042,-2.614733 m 2.62448,-2.650548 2.51661,-2.471457 m -75.17492,67.015874 2.62448,-2.614727 m 2.66042,-2.650548 2.62448,-2.614734 m 2.66042,-2.650548 0.61103,-0.608907 m 20.52833,-20.452199 2.62448,-2.650548 m 2.66042,-2.614727 2.62448,-2.650548 m 2.66042,-2.650548 0.0374,-0.03612 m 15.81877,-15.760011 2.66042,-2.614727 m 2.62448,-2.650548 2.66042,-2.614727 m -74.67183,66.4789 1.97739,-1.934185 m 2.62442,-2.650548 2.66042,-2.650547 m 2.62448,-2.614728 1.94139,-1.934184 m 25.88523,-25.789109 1.2583,-1.253642 m 2.66042,-2.650548 2.62449,-2.614727 m 13.69755,-13.646735 2.15709,-2.184911 m 2.66042,-2.614733 2.62448,-2.650548 m -73.3054,65.189145 0.64708,-0.644728 m 2.62449,-2.614727 2.66042,-2.650548 m 2.62448,-2.614734 2.66042,-2.650548 m 34.40576,-34.278024 2.58848,-2.614728 m 2.62448,-2.614727 2.66042,-2.650548 m 4.42206,-4.405641 0.86285,-0.85964 m 2.62448,-2.614727 2.66042,-2.650548 m 2.62448,-2.614727 1.18636,-1.182007 m -73.84468,65.726417 2.62448,-2.650548 m 2.66042,-2.650547 2.62449,-2.614728 m 44.93956,-44.77276 2.66042,-2.650548 m 2.62449,-2.650548 2.66042,-2.614733 m 2.62442,-2.650548 2.51666,-2.471457 m -85.78066,77.582244 2.66042,-2.650547 m 7.90938,-7.915823 2.66042,-2.614727 m 2.62442,-2.650548 2.66042,-2.614734 m 2.66042,-2.650548 0.61103,-0.608907 m 42.96224,-42.838576 1.33024,-1.325277 m 2.66042,-2.650548 2.62442,-2.614727 m 2.66042,-2.650548 2.62448,-2.614727 m -79.99243,71.815505 2.04927,-2.00582 m 2.62442,-2.650548 2.66042,-2.614727 m 2.62448,-2.650548 2.66042,-2.650547 m 2.62449,-2.614728 1.94139,-1.934184"
       id="path5" />
    <path
       style="fill:none;stroke:#000000;stroke-width:0.0359516px;stroke-linecap:round;stroke-linejoin:round;stroke-miterlimit:4;stroke-dasharray:none;stroke-opacity:1"
       d="m 231.43568,28.147494 2.62448,-2.650548 m 2.66042,-2.614733 2.62448,-2.650548 m -70.03383,61.92969 2.62448,-2.650548 m 2.66042,-2.614734 2.62448,-2.650548 m 44.93957,-44.77276 2.66042,-2.650548 m 2.62448,-2.614727 2.66042,-2.650548 m 2.62442,-2.614727 1.18642,-1.182007 m -20.99578,13.037834 2.62448,-2.650548 m 2.66042,-2.650548 2.62448,-2.614733 m 2.66042,-2.650548 2.5166,-2.471457 m -21.03166,13.037834 1.33018,-1.325277 m 2.66042,-2.650548 2.62448,-2.614727 m 2.66042,-2.650548 2.62448,-2.614727"
       id="path6" />
    <path
       style="fill:none;stroke:#000000;stroke-width:0.0359516px;stroke-linecap:round;stroke-linejoin:round;stroke-miterlimit:4;stroke-dasharray:none;stroke-opacity:1"
       d="m 199.6904,28.147494 2.66042,-2.650548 m 2.62448,-2.614733 2.66042,-2.650548 m -17.18495,9.2411 2.66042,-2.650548 m 2.62448,-2.614727 2.66043,-2.650548 m 2.62448,-2.614727 1.18642,-1.182007 m -20.99579,13.037834 2.62448,-2.650548 m 2.66042,-2.650548 2.62448,-2.614733 m 2.66042,-2.650548 2.48067,-2.471457 m -20.99579,13.037834 1.33024,-1.325277 m 2.62448,-2.650548 2.66042,-2.614727 m 2.62448,-2.650548 2.66042,-2.614727 m -16.71755,8.739642 2.19309,-2.184911 m 2.62442,-2.614733 2.66042,-2.650548 m -15.38725,7.450192 0.82685,-0.85964 m 2.66042,-2.614727 2.62448,-2.650548 m 2.66042,-2.614727 1.18642,-1.182007 m -15.71088,7.736738 2.62448,-2.614733 m 2.66042,-2.650548 2.48066,-2.471457 m -17.04112,9.062009 2.66048,-2.614727 m 2.62442,-2.650548 2.66042,-2.614727 m -16.71749,8.739642 2.15708,-2.184911 m 2.66042,-2.614733 2.62449,-2.650548 m -15.38731,7.450192 0.86284,-0.85964 m 2.66042,-2.614727 2.62448,-2.650548 m 2.66042,-2.614727 1.18643,-1.182007 m -82.688848,74.466059 0.862847,-0.859633 m 2.66042,-2.614734 2.624481,-2.650548 m 2.660421,-2.614727 0.68309,-0.680549 m 57.450759,-57.30913 2.66042,-2.614733 m 2.62442,-2.650548 2.51667,-2.471457 M 55.668069,84.776082 56.890431,83.55826 m 4.06254,-4.047453 2.624481,-2.614734 m 50.224408,-50.073856 2.66042,-2.614727 m 2.62448,-2.650548 2.66042,-2.614727 m -59.49997,51.363306 2.660421,-2.650548 m 40.122059,-39.973116 2.15709,-2.184911 m 2.66042,-2.614733 2.62448,-2.650548 M 32.299499,92.262088 34.49255,90.041357 m 2.66042,-2.614727 0.647132,-0.644729 M 54.733344,69.911525 55.668069,68.98025 m 2.624481,-2.650547 2.660421,-2.614728 m 2.624481,-2.650547 2.013269,-1.970006 m 31.493649,-31.412565 0.862848,-0.85964 m 2.624482,-2.614727 2.66042,-2.650548 m 2.62448,-2.614727 1.18636,-1.182007 m -82.688777,74.50188 0.898793,-0.895454 m 2.66042,-2.614734 2.624469,-2.650548 M 49.05297,67.654973 51.677408,65.040246 m 5.177084,-5.157819 0.107755,-0.107443 m 2.66042,-2.650548 0.862847,-0.895454 m 30.846499,-30.732023 2.66042,-2.614734 m 2.624481,-2.650548 2.516602,-2.471457 M 19.105121,89.575719 21.298166,87.42663 m 2.624475,-2.650548 2.66042,-2.614727 M 39.813266,68.98025 42.437741,66.329703 m 2.66042,-2.614728 1.258307,-1.253642 M 82.092389,26.822217 84.71687,24.20749 m 2.66042,-2.650548 2.624482,-2.614727 M 19.967956,80.836077 22.628383,78.18553 m 2.624468,-2.614728 2.588518,-2.578912 m 3.091843,-3.080365 2.264955,-2.256552 m 2.624468,-2.614727 2.588518,-2.578913 m 34.873129,-34.779476 2.193027,-2.184911 m 2.66042,-2.614733 2.624481,-2.650548 M 21.298166,71.630798 23.922641,68.98025 m 2.66042,-2.650547 2.624469,-2.614728 m 36.16737,-36.033118 0.862847,-0.85964 m 2.624481,-2.614727 2.660421,-2.650548 m 2.624419,-2.614727 1.186422,-1.182007 m -56.228369,48.139678 0.862835,-0.85964 m 2.660427,-2.650548 2.624468,-2.614727 m 34.369754,-34.278025 2.624481,-2.614733 m 2.66042,-2.650548 2.516602,-2.471457 m -48.318987,40.259669 2.193045,-2.220725 m 2.624475,-2.614733 2.66042,-2.650548 M 50.383043,26.822217 53.007524,24.20749 m 2.660421,-2.650548 2.624481,-2.614727 M 19.967956,49.2086 22.628383,46.593867 m 2.624468,-2.650548 2.588518,-2.578906 m 13.73353,-13.682556 2.193052,-2.184911 m 2.624468,-2.614733 2.660427,-2.650548 m -27.75468,19.771656 2.624475,-2.650548 m 2.66042,-2.614727 1.258308,-1.253642 m 5.824167,-5.802547 0.826889,-0.85964 m 2.66042,-2.614727 2.660421,-2.650548 m 2.624599,-2.614727 1.186404,-1.182007 m -24.519023,16.548015 0.862835,-0.895454 m 2.660426,-2.614727 2.624469,-2.650548 m 2.66042,-2.650548 2.624469,-2.614733 m 2.660426,-2.650548 2.480663,-2.471457 M 19.105246,26.3924 21.298291,24.20749 m 2.624475,-2.650548 2.66042,-2.614727"
       id="path7" />
  </g>
</svg>
