<?xml version="1.0" encoding="UTF-8" standalone="no"?>
<!-- Created with Inkscape (http://www.inkscape.org/) -->

<svg
   width="1000.0005mm"
   height="92.758736mm"
   viewBox="0 0 1000.0005 92.758739"
   version="1.1"
   id="svg1"
   xmlns="http://www.w3.org/2000/svg"
   xmlns:svg="http://www.w3.org/2000/svg">
  <defs
     id="defs1" />
  <g
     id="layer1"
     transform="translate(-13.685099,-17.566895)">
    <path
       style="fill:none;stroke:#000000;stroke-width:3.72418px;stroke-linecap:round;stroke-linejoin:round;stroke-miterlimit:4;stroke-dasharray:none;stroke-opacity:1"
       d="M 1008.2635,19.429223 H 19.084859 m 0,0 -0.558655,0.0377 m 0,0 -0.521378,0.149605 m 0,0 -0.521378,0.187025 m 0,0 -0.484172,0.299281 m 0,0 -0.409619,0.374121 m 0,0 -0.372412,0.411468 m 0,0 -0.297931,0.486306 m 0,0 -0.18617,0.523725 m 0,0 -0.148965,0.523726 m 0,0 -0.03699,0.561145 m 0,0 v 78.372115 m 0,0 0.03699,0.56114 m 0,0 0.148965,0.52373 m 0,0 0.18617,0.52372 m 0,0 0.297931,0.48631 m 0,0 0.372412,0.41147 m 0,0 0.409619,0.37412 m 0,0 0.484172,0.29928 m 0,0 0.521378,0.18702 m 0,0 0.521378,0.14961 m 0,0 0.558655,0.0377 m 0,0 h 14.338083 m 0,0 0.484172,-0.0377 m 0,0 0.558655,-0.14961 m 0,0 0.521378,-0.18702 m 0,0 0.446895,-0.29928 m 0,0 0.446896,-0.37412 m 0,0 0.372412,-0.41147 m 0,0 0.260725,-0.48631 m 0,0 0.223448,-0.52372 m 0,0 0.111688,-0.29929 m 0,0 0.03699,-0.22444 m 0,0 0.03699,-0.63598 m 0,0 v -3.104961 m 0,0 -0.223447,-1.047458 m 0,0 -0.11176,-0.261862 m 0,0 -0.260724,-0.448888 m 0,0 -0.372413,-0.448887 m 0,0 -0.446895,-0.336701 m 0,0 -0.446896,-0.299282 m 0,0 -0.521377,-0.224443 m 0,0 -0.558655,-0.112258 m 0,0 -0.558655,-0.07484 m 0,0 h -6.442826 m 0,0 -0.372413,-0.0377 m 0,0 -0.335207,-0.149606 m 0,0 -0.29793,-0.224443 m 0,0 -0.223448,-0.299282 m 0,0 -0.148965,-0.336701 m 0,0 -0.03699,-0.37412 m 0,0 V 82.837566 m 0,0 0.03699,-0.561145 m 0,0 0.111759,-0.561144 m 0,0 0.223448,-0.523726 m 0,0 0.29793,-0.448887 m 0,0 0.372413,-0.448887 m 0,0 0.40969,-0.336701 m 0,0 0.484172,-0.299282 m 0,0 0.521378,-0.224444 m 0,0 0.521378,-0.112186 m 0,0 0.558654,-0.0377 m 0,0 h 29.6072 m 0,0 0.558654,0.0377 m 0,0 0.521378,0.112186 m 0,0 0.521378,0.224444 m 0,0 0.484172,0.299282 m 0,0 0.40969,0.336701 m 0,0 0.372413,0.448887 m 0,0 0.29793,0.448887 m 0,0 0.186242,0.523726 m 0,0 0.148965,0.561144 m 0,0 0.03699,0.561145 m 0,0 v 10.661605 m 0,0 -0.03699,0.37412 m 0,0 -0.148965,0.336701 m 0,0 -0.223448,0.299282 m 0,0 -0.29793,0.224443 m 0,0 -0.335207,0.149606 m 0,0 -0.372413,0.0377 m 0,0 h -2.495194 m 0,0 -0.558655,0.07484 m 0,0 -0.521377,0.112258 m 0,0 -0.521378,0.224443 m 0,0 -0.484173,0.299282 m 0,0 -0.409689,0.336701 m 0,0 -0.372413,0.448887 m 0,0 -0.29793,0.448888 m 0,0 -0.223448,0.523725 m 0,0 -0.111688,0.561145 m 0,0 -0.03699,0.561144 m 0,0 v 2.843094 m 0,0 0.03699,0.56114 m 0,0 0.111688,0.52373 m 0,0 0.223448,0.52373 m 0,0 0.29793,0.4863 m 0,0 0.372413,0.41147 m 0,0 0.409689,0.37412 m 0,0 0.484173,0.29928 m 0,0 0.521378,0.18703 m 0,0 0.521377,0.1496 m 0,0 0.558655,0.0377 m 0,0 h 6.777998 m 0,0 0.558655,-0.0377 m 0,0 0.521377,-0.1496 m 0,0 0.521378,-0.18703 m 0,0 0.484173,-0.29928 m 0,0 0.409689,-0.37412 m 0,0 0.372413,-0.41147 m 0,0 0.29793,-0.4863 m 0,0 0.186171,-0.52373 m 0,0 0.148965,-0.52373 m 0,0 0.03699,-0.56114 m 0,0 V 65.031177 m 0,0 -0.03699,-0.37412 m 0,0 -0.148965,-0.336701 m 0,0 -0.223448,-0.299282 m 0,0 -0.29793,-0.224443 m 0,0 -0.335207,-0.149606 m 0,0 -0.372413,-0.0377 m 0,0 h -8.528366 m 0,0 v 7.107734 m 0,0 h -33.14517 m 0,0 V 30.838933 m 0,0 H 186.33722 m 0,0 v 3.553864 m 0,0 h 85.39538 m 0,0 v 49.15559 m 0,0 h -81.857 m 0,0 -0.55859,0.0377 m 0,0 -0.52138,0.112258 m 0,0 -0.52137,0.224443 m 0,0 -0.48418,0.299282 m 0,0 -0.40969,0.37412 m 0,0 -0.37241,0.41154 m 0,0 -0.29793,0.486306 m 0,0 -0.18624,0.523725 m 0,0 -0.14897,0.523726 m 0,0 -0.037,0.673402 m 0,0 v 17.806741 m 0,0 0.037,0.44889 m 0,0 0.14897,0.52372 m 0,0 0.18624,0.52373 m 0,0 0.29793,0.4863 m 0,0 0.37241,0.41147 m 0,0 0.40969,0.37412 m 0,0 0.48418,0.29928 m 0,0 0.52137,0.22445 m 0,0 0.52138,0.11225 m 0,0 0.55859,0.0377 m 0,0 0.55865,-0.0377 m 0,0 0.55865,-0.11225 m 0,0 0.52138,-0.22445 m 0,0 0.48417,-0.29928 m 0,0 0.40969,-0.37412 m 0,0 0.37242,-0.41147 m 0,0 0.29793,-0.4863 m 0,0 0.18624,-0.52373 m 0,0 0.14896,-0.52372 m 0,0 0.037,-0.56115 m 0,0 v -4.26464 m 0,0 0.037,-0.56115 m 0,0 0.14896,-0.561143 m 0,0 0.18617,-0.486306 m 0,0 0.29794,-0.486306 m 0,0 0.37241,-0.448888 m 0,0 0.40962,-0.336701 m 0,0 0.48417,-0.299281 m 0,0 0.52138,-0.224444 m 0,0 0.55858,-0.112257 m 0,0 0.52138,-0.0377 m 0,0 h 62.15649 m 0,0 0.55865,0.0377 m 0,0 0.52138,0.112257 m 0,0 0.52138,0.224444 m 0,0 0.48417,0.299281 m 0,0 0.40962,0.336701 m 0,0 0.37241,0.448888 m 0,0 0.29793,0.486306 m 0,0 0.22345,0.486306 m 0,0 0.11176,0.561143 m 0,0 0.037,0.56115 m 0,0 v 0.3367 m 0,0 -0.037,0.37412 m 0,0 0.037,0.56115 m 0,0 0.14896,0.52372 m 0,0 0.22345,0.52373 m 0,0 0.29793,0.4863 m 0,0 0.33521,0.41147 m 0,0 0.44689,0.37412 m 0,0 0.4469,0.29928 m 0,0 0.52138,0.18703 m 0,0 0.55858,0.1496 m 0,0 0.59586,0.0377 m 0,0 h 36.08728 m 0,0 0.52137,-0.0377 m 0,0 0.55866,-0.1496 m 0,0 0.52138,-0.18703 m 0,0 0.48417,-0.29928 m 0,0 0.40962,-0.37412 m 0,0 0.37241,-0.41147 m 0,0 0.29793,-0.4863 m 0,0 0.18624,-0.52373 m 0,0 0.14897,-0.52372 m 0,0 0.037,-0.56115 m 0,0 v -2.843095 m 0,0 -0.037,-0.561144 m 0,0 -0.14897,-0.561145 m 0,0 -0.18624,-0.523725 m 0,0 -0.29793,-0.448888 m 0,0 -0.37241,-0.448887 m 0,0 -0.40962,-0.336701 m 0,0 -0.48417,-0.299282 m 0,0 -0.52138,-0.224443 m 0,0 -0.55866,-0.112258 m 0,0 -0.52137,-0.07484 m 0,0 H 281.6758 m 0,0 V 57.886116 m 0,0 h 12.81115 m 0,0 0.37242,-0.0377 m 0,0 0.3352,-0.149606 m 0,0 0.29793,-0.224443 m 0,0 0.22345,-0.299282 m 0,0 0.14897,-0.336701 m 0,0 0.0745,-0.37412 m 0,0 V 49.35653 m 0,0 -0.0745,-0.37412 m 0,0 -0.14897,-0.336701 m 0,0 -0.22345,-0.299282 m 0,0 -0.29793,-0.224444 m 0,0 -0.3352,-0.149605 m 0,0 -0.37242,-0.0377 m 0,0 H 281.6758 m 0,0 V 30.838705 m 0,0 h 108.1873 m 0,0 v 17.095966 m 0,0 h -12.81116 m 0,0 -0.37241,0.0377 m 0,0 -0.33521,0.149605 m 0,0 -0.29793,0.224444 m 0,0 -0.22345,0.299282 m 0,0 -0.14896,0.336701 m 0,0 -0.037,0.37412 m 0,0 v 7.107734 m 0,0 0.037,0.37412 m 0,0 0.14896,0.336701 m 0,0 0.22345,0.299282 m 0,0 0.29793,0.224443 m 0,0 0.33521,0.149606 m 0,0 0.37241,0.0377 m 0,0 h 12.81116 m 0,0 V 94.92114 m 0,0 h -20.63194 m 0,0 -0.55858,0.07484 m 0,0 -0.55865,0.112258 m 0,0 -0.52138,0.224443 m 0,0 -0.4469,0.299282 m 0,0 -0.44689,0.336701 m 0,0 -0.37242,0.448887 m 0,0 -0.26065,0.448888 m 0,0 -0.22345,0.523725 m 0,0 -0.14896,0.561145 m 0,0 -0.037,0.561144 m 0,0 v 2.843087 m 0,0 0.037,0.56115 m 0,0 0.14896,0.52372 m 0,0 0.22345,0.52373 m 0,0 0.26065,0.4863 m 0,0 0.37242,0.41147 m 0,0 0.44689,0.37412 m 0,0 0.4469,0.29928 m 0,0 0.52138,0.18703 m 0,0 0.55865,0.1496 m 0,0 0.55858,0.0377 m 0,0 h 27.03753 m 0,0 0.55859,-0.0377 m 0,0 0.52138,-0.1496 m 0,0 0.52137,-0.18703 m 0,0 0.48418,-0.29928 m 0,0 0.40969,-0.37412 m 0,0 0.37241,-0.41147 m 0,0 0.29793,-0.4863 m 0,0 0.22345,-0.52373 m 0,0 0.11168,-0.52372 m 0,0 0.037,-0.56115 m 0,0 V 30.83936 m 0,0 h 227.7334 m 0,0 v 70.51619 m 0,0 0.0356,0.56115 m 0,0 0.14868,0.52372 m 0,0 0.22338,0.52373 m 0,0 0.26036,0.4863 m 0,0 0.37277,0.41147 m 0,0 0.40976,0.37412 m 0,0 0.48446,0.29928 m 0,0 0.52145,0.18703 m 0,0 0.55844,0.1496 m 0,0 0.55844,0.0377 m 0,0 h 27.03753 m 0,0 0.55844,-0.0377 m 0,0 0.52145,-0.1496 m 0,0 0.52144,-0.18703 m 0,0 0.48375,-0.29928 m 0,0 0.40976,-0.37412 m 0,0 0.37277,-0.41147 m 0,0 0.29807,-0.4863 m 0,0 0.22338,-0.52373 m 0,0 0.11169,-0.52372 m 0,0 0.0356,-0.56115 m 0,0 v -2.843092 m 0,0 -0.0356,-0.561144 m 0,0 -0.11169,-0.561145 m 0,0 -0.22338,-0.523725 m 0,0 -0.29807,-0.448888 m 0,0 -0.37277,-0.448887 m 0,0 -0.40976,-0.336701 m 0,0 -0.48375,-0.299282 m 0,0 -0.52144,-0.224443 m 0,0 -0.52145,-0.112258 m 0,0 -0.55844,-0.07484 m 0,0 h -20.63196 m 0,0 V 57.886116 m 0,0 h 12.81122 m 0,0 0.33506,-0.0377 m 0,0 0.37277,-0.149606 m 0,0 0.29807,-0.224443 m 0,0 0.22338,-0.299282 m 0,0 0.11169,-0.336701 m 0,0 0.0747,-0.37412 m 0,0 V 49.35653 m 0,0 -0.0747,-0.37412 m 0,0 -0.11169,-0.336701 m 0,0 -0.22338,-0.299282 m 0,0 -0.29807,-0.224444 m 0,0 -0.37277,-0.149605 m 0,0 -0.33506,-0.0377 m 0,0 h -12.81122 m 0,0 V 30.838705 m 0,0 h 108.15009 m 0,0 v 17.095966 m 0,0 H 732.8576 m 0,0 -0.37277,0.0377 m 0,0 -0.33506,0.149605 m 0,0 -0.29807,0.224444 m 0,0 -0.22338,0.299282 m 0,0 -0.14868,0.336701 m 0,0 -0.0356,0.37412 m 0,0 v 7.107734 m 0,0 0.0356,0.37412 m 0,0 0.14868,0.336701 m 0,0 0.22338,0.299282 m 0,0 0.29807,0.224443 m 0,0 0.33506,0.149606 m 0,0 0.37277,0.0377 m 0,0 h 12.81114 m 0,0 V 94.92114 m 0,0 h -20.63195 m 0,0 -0.55844,0.07484 m 0,0 -0.55844,0.112258 m 0,0 -0.48446,0.224443 m 0,0 -0.48374,0.299282 m 0,0 -0.44676,0.336701 m 0,0 -0.33506,0.448887 m 0,0 -0.29807,0.448888 m 0,0 -0.22338,0.523725 m 0,0 -0.11169,0.561145 m 0,0 -0.0747,0.561144 m 0,0 v 2.843087 m 0,0 0.0747,0.56115 m 0,0 0.11169,0.52372 m 0,0 0.22338,0.52373 m 0,0 0.29807,0.4863 m 0,0 0.33506,0.41147 m 0,0 0.44676,0.37412 m 0,0 0.48374,0.29928 m 0,0 0.48446,0.18703 m 0,0 0.55844,0.1496 m 0,0 0.55844,0.0377 m 0,0 h 36.16182 m 0,0 0.52144,-0.0377 m 0,0 0.52145,-0.1496 m 0,0 0.52145,-0.18703 m 0,0 0.48375,-0.29928 m 0,0 0.40976,-0.37412 m 0,0 0.37206,-0.41147 m 0,0 0.29807,-0.4863 m 0,0 0.18638,-0.52373 m 0,0 0.14868,-0.52372 m 0,0 0.0356,-0.56115 m 0,0 v -0.37412 m 0,0 -0.0356,-0.3367 m 0,0 0.0356,-0.56115 m 0,0 0.14868,-0.561135 m 0,0 0.22338,-0.486306 m 0,0 0.26108,-0.486306 m 0,0 0.37206,-0.448888 m 0,0 0.44675,-0.336701 m 0,0 0.44675,-0.299281 m 0,0 0.52145,-0.224444 m 0,0 0.55844,-0.112257 m 0,0 0.55844,-0.0377 m 0,0 h 62.11931 m 0,0 0.55844,0.0377 m 0,0 0.52145,0.112257 m 0,0 0.52145,0.224444 m 0,0 0.48445,0.299281 m 0,0 0.44676,0.336701 m 0,0 0.33506,0.448888 m 0,0 0.29807,0.486306 m 0,0 0.22338,0.486306 m 0,0 0.11169,0.561135 m 0,0 0.0356,0.56115 m 0,0 v 4.26464 m 0,0 0.0747,0.56115 m 0,0 0.11169,0.52372 m 0,0 0.22338,0.52373 m 0,0 0.29807,0.4863 m 0,0 0.33507,0.41147 m 0,0 0.44675,0.37412 m 0,0 0.48446,0.29928 m 0,0 0.52145,0.22445 m 0,0 0.52144,0.11225 m 0,0 0.55845,0.0377 m 0,0 0.55844,-0.0377 m 0,0 0.55844,-0.11225 m 0,0 0.48446,-0.22445 m 0,0 0.48445,-0.29928 m 0,0 0.44676,-0.37412 m 0,0 0.33506,-0.41147 m 0,0 0.29807,-0.4863 m 0,0 0.22338,-0.52373 m 0,0 0.11169,-0.52372 m 0,0 0.0747,-0.67333 m 0,0 V 86.990441 m 0,0 -0.0747,-0.448887 m 0,0 -0.11169,-0.523726 m 0,0 -0.22338,-0.523725 m 0,0 -0.29807,-0.486306 m 0,0 -0.33506,-0.41154 m 0,0 -0.44676,-0.37412 m 0,0 -0.48445,-0.299282 m 0,0 -0.48446,-0.224443 m 0,0 -0.55844,-0.112258 m 0,0 -0.55844,-0.0377 m 0,0 h -81.82012 m 0,0 v -49.15559 m 0,0 h 85.39535 m 0,0 V 30.839 m 0,0 h 160.77277 m 0,0 v 39.87812 m 0,0 h -33.14524 m 0,0 v -7.107734 m 0,0 h -8.52836 m 0,0 -0.37206,0.0377 m 0,0 -0.37277,0.149606 m 0,0 -0.29807,0.224443 m 0,0 -0.22338,0.299282 m 0,0 -0.11168,0.336701 m 0,0 -0.0747,0.37412 m 0,0 v 36.324252 m 0,0 0.0356,0.56115 m 0,0 0.14868,0.52372 m 0,0 0.22338,0.52373 m 0,0 0.29807,0.48631 m 0,0 0.33506,0.41146 m 0,0 0.44676,0.37412 m 0,0 0.44675,0.29929 m 0,0 0.52145,0.18702 m 0,0 0.55844,0.14961 m 0,0 0.55844,0.0377 m 0,0 h 6.74078 m 0,0 0.55844,-0.0377 m 0,0 0.55844,-0.14961 m 0,0 0.52145,-0.18702 m 0,0 0.48446,-0.29929 m 0,0 0.40976,-0.37412 m 0,0 0.37206,-0.41146 m 0,0 0.26108,-0.48631 m 0,0 0.22337,-0.52373 m 0,0 0.14868,-0.52372 m 0,0 0.0356,-0.56115 m 0,0 v -2.843092 m 0,0 -0.0356,-0.561144 m 0,0 -0.14868,-0.561145 m 0,0 -0.22337,-0.523725 m 0,0 -0.26108,-0.448888 m 0,0 -0.37206,-0.448887 m 0,0 -0.40976,-0.336701 m 0,0 -0.48446,-0.299282 m 0,0 -0.52145,-0.224443 m 0,0 -0.55844,-0.112258 m 0,0 -0.55844,-0.07484 m 0,0 h -2.4952 m 0,0 -0.33507,-0.0377 m 0,0 -0.37277,-0.149606 m 0,0 -0.29807,-0.224443 m 0,0 -0.22337,-0.299282 m 0,0 -0.11169,-0.336701 m 0,0 -0.0747,-0.37412 m 0,0 V 82.83763 m 0,0 0.0356,-0.561145 m 0,0 0.14868,-0.561144 m 0,0 0.22338,-0.523726 m 0,0 0.29807,-0.448887 m 0,0 0.33507,-0.448887 m 0,0 0.44675,-0.336701 m 0,0 0.44675,-0.299282 m 0,0 0.52145,-0.224444 m 0,0 0.55844,-0.112186 m 0,0 0.55844,-0.0377 m 0,0 h 29.57 m 0,0 0.55844,0.0377 m 0,0 0.55845,0.112186 m 0,0 0.52145,0.224444 m 0,0 0.48445,0.299282 m 0,0 0.4097,0.336701 m 0,0 0.3728,0.448887 m 0,0 0.2981,0.448887 m 0,0 0.1864,0.523726 m 0,0 0.1486,0.561144 m 0,0 0.036,0.561145 m 0,0 v 10.661605 m 0,0 -0.036,0.37412 m 0,0 -0.1486,0.336701 m 0,0 -0.2234,0.299282 m 0,0 -0.2981,0.224443 m 0,0 -0.3351,0.149606 m 0,0 -0.372,0.0377 m 0,0 h -6.48004 m 0,0 -0.55844,0.07484 m 0,0 -0.52145,0.112258 m 0,0 -0.52145,0.224443 m 0,0 -0.48445,0.299282 m 0,0 -0.40976,0.336701 m 0,0 -0.37206,0.448887 m 0,0 -0.29807,0.448888 m 0,0 -0.11169,0.261862 m 0,0 -0.18639,1.047458 m 0,0 v 3.292004 m 0,0 0.0356,0.44889 m 0,0 0.0356,0.22444 m 0,0 0.0747,0.29928 m 0,0 0.22338,0.52373 m 0,0 0.29807,0.4863 m 0,0 0.37206,0.41147 m 0,0 0.40976,0.37412 m 0,0 0.48374,0.29928 m 0,0 0.52145,0.18703 m 0,0 0.52145,0.1496 m 0,0 0.63314,0.0377 m 0,0 h 14.18915 m 0,0 0.5584,-0.0377 m 0,0 0.5584,-0.1496 m 0,0 0.4845,-0.18703 m 0,0 0.4845,-0.29928 m 0,0 0.4467,-0.37412 m 0,0 0.3351,-0.41147 m 0,0 0.298,-0.4863 m 0,0 0.2234,-0.52373 m 0,0 0.1117,-0.52372 m 0,0 0.075,-0.56115 m 0,0 V 22.983087 m 0,0 -0.075,-0.561145 m 0,0 -0.1117,-0.523725 m 0,0 -0.2234,-0.523726 m 0,0 -0.298,-0.486306 m 0,0 -0.3351,-0.411468 m 0,0 -0.4467,-0.37412 m 0,0 -0.4845,-0.299282 m 0,0 -0.4845,-0.187025 m 0,0 -0.5584,-0.149605 m 0,0 -0.5584,-0.0377"
       id="path1" />
    <path
       style="fill:none;stroke:#000000;stroke-width:0.0372418px;stroke-linecap:round;stroke-linejoin:round;stroke-miterlimit:4;stroke-dasharray:none;stroke-opacity:1"
       d="m 1002.3793,104.90907 1.0055,-1.01005 m 3.0166,-3.03014 3.0166,-3.030144 m -13.55606,4.526504 3.01665,-2.992725 m 3.01661,-3.030138 3.0165,-3.030138 m 3.0166,-3.030139 3.0166,-3.030145 m -19.6264,10.586781 2.90482,-2.917909 m 9.16148,-9.165231 3.0166,-3.030138 m 3.0166,-2.992733 2.4207,-2.394184 m -11.6194,2.506412 1.6759,-1.646 m 3.0165,-3.030138 3.0166,-2.992733 m 3.0166,-3.030138 0.8938,-0.897817 m -45.69566,36.660943 1.00555,-1.01005 m 3.05379,-3.03014 2.38351,-2.394182 m 21.74912,-21.772112 3.01665,-3.030138 m 4.46904,-4.451687 1.5641,-1.608589 m 3.0166,-2.992733 3.0166,-3.030138 m -49.79229,40.775939 3.01658,-2.992725 m 3.01658,-3.030138 1.37796,-1.42155 m 16.72159,-16.721874 3.01658,-3.030138 m 3.01657,-2.992733 1.45245,-1.458955 m 10.65118,-10.661598 3.0165,-2.992733 m 3.0166,-3.030138 3.0166,-3.030138 m -49.82954,40.813352 3.01665,-3.030138 m 9.53384,-9.501918 2.56969,-2.58123 m 3.01658,-3.030138 2.94209,-2.955321 m 21.19059,-21.210974 3.0166,-3.030138 m 3.0166,-3.030138 2.4207,-2.394184 m -53.14398,44.105353 0.93099,-0.897817 m 3.01658,-3.030138 3.01658,-3.030138 m 3.01658,-3.030138 3.01658,-2.992733 m 30.12867,-30.189159 0.075,-0.0377 m 3.0165,-3.030138 3.0166,-3.030138 m 3.0166,-3.030138 0.8938,-0.860413 m -53.14397,44.10536 2.42065,-2.431595 m 3.01665,-3.030138 3.01658,-3.030139 m 34.67209,-34.678258 1.5641,-1.571184 m 3.0166,-3.030138 3.0166,-3.030138 m -49.79227,40.813352 2.4952,-2.506413 m 33.74102,-33.780434 3.01665,-2.992727 m 3.0166,-3.030145 3.0165,-3.030138 m -19.10496,10.063056 2.4952,-2.506413 m 3.01658,-3.030138 3.0165,-3.030138 m -17.57809,8.566689 0.96834,-1.010046 m 3.01658,-2.992727 3.01658,-3.030145 m 3.01658,-3.030138 1.37789,-1.346726 m -17.95051,8.903369 3.01658,-3.030138 m 3.01658,-3.030138 2.83041,-2.843093 m -19.44023,10.399736 3.01658,-2.992727 m 3.01657,-3.030145 3.01658,-3.030138 m -19.10502,10.063056 2.4952,-2.506413 m 3.01658,-3.030138 3.01658,-3.030138 m -17.5781,8.566689 0.96828,-1.010046 m 3.01657,-2.992727 3.05386,-3.030145 m 3.01658,-3.030138 1.34069,-1.346726 m -17.95051,8.903369 3.01658,-3.030138 m 3.01657,-3.030138 2.86762,-2.843093 M 923.39,29.828671 l 3.01658,-2.992727 m 3.01658,-3.030145 3.01658,-3.030138 m -96.38171,87.425109 1.26628,-1.2719 m 3.05378,-3.03014 0.67013,-0.6734 m 72.32356,-72.386649 2.45792,-2.506413 m 3.01658,-3.030138 3.01658,-3.030138 m -86.02849,77.1002 3.01658,-3.030139 m 65.43381,-65.503372 1.00555,-1.010046 m 3.01658,-2.992726 3.01658,-3.030145 m 3.01658,-3.030138 1.34069,-1.346726 m -84.38987,75.379375 3.01665,-2.992726 m 3.01657,-3.030138 3.05379,-3.030138 m 57.35235,-57.423005 3.01658,-3.030138 m 3.01658,-3.030138 2.86761,-2.843092 m -85.87952,76.913153 3.01658,-3.030138 m 3.01658,-3.030138 3.01657,-3.030145 m 3.01658,-2.992726 0.70784,-0.71075 m 53.62815,-53.7195 3.01658,-2.992726 m 3.01658,-3.030145 3.01657,-3.030138 m -85.24638,76.314611 2.23448,-2.281962 m 3.01657,-2.992726 3.01658,-3.030138 m 3.01658,-3.030138 2.23455,-2.207138 m 52.65981,-52.709454 2.45799,-2.506412 m 3.05379,-3.030138 3.01657,-3.030139 m -83.79394,74.818245 0.74483,-0.748183 m 3.01658,-3.030138 3.01658,-3.030138 m 3.01658,-3.030146 3.01658,-2.992726 m 53.36749,-53.420225 1.00555,-1.010046 m 3.01651,-2.992726 3.01658,-3.030145 m 3.01658,-3.030138 1.34076,-1.346726 m -84.3526,75.379375 3.01658,-2.992726 m 3.01658,-3.030138 3.01658,-3.030138 m 57.35235,-57.423004 3.01651,-3.030138 m 3.01665,-3.030139 2.86761,-2.843092 m -85.87952,76.913154 3.01658,-3.030138 m 3.01657,-3.030138 3.01658,-3.030146 m 3.01658,-2.992726 0.70784,-0.71075 m 53.62815,-53.719499 3.0165,-2.992726 m 3.01665,-3.030146 3.05379,-3.030138 m -85.28359,76.314611 2.23447,-2.281961 m 3.01658,-2.992727 3.01658,-3.030138 m 3.01658,-3.030138 2.23455,-2.207138"
       id="path2" />
    <path
       style="fill:none;stroke:#000000;stroke-width:0.0372418px;stroke-linecap:round;stroke-linejoin:round;stroke-miterlimit:4;stroke-dasharray:none;stroke-opacity:1"
       d="m 840.37758,31.36273 3.01658,-3.030138 m 3.01658,-3.030139 3.01658,-3.030138 m -91.61475,82.636755 2.53247,-2.54383 m 3.01658,-2.992725 3.01658,-3.030138 m 3.01658,-3.030138 3.01658,-3.030139 m 3.05386,-3.030145 3.01657,-2.992726 m 51.31912,-51.400133 3.01658,-3.030138 m 3.01658,-2.992726 3.01658,-3.030145 m 3.01658,-3.030138 1.34076,-1.346726 m -94.44516,85.479847 1.00555,-1.01005 m 3.05378,-3.03014 3.01658,-3.030144 m 3.01658,-3.030138 3.01665,-2.992726 m 3.01658,-3.030138 3.01658,-3.030138 m 51.31912,-51.362728 3.01658,-3.030138 m 3.01658,-3.030138 3.01658,-3.030139 m 3.01658,-3.030138 2.86761,-2.843092 m -91.91268,82.936017 3.01658,-2.992725 m 3.01658,-3.030138 3.01665,-3.030138 m 3.01658,-3.030139 3.01658,-3.030145 m 3.01657,-2.992726 0.70784,-0.71075 m 49.12192,-49.15559 1.48965,-1.533771 m 3.01658,-3.030138 3.05385,-2.992727 m 3.01658,-3.030145 3.01658,-3.030138 m -92.09892,83.12307 3.01658,-3.03014 m 3.01665,-3.030142 2.90482,-2.91791 m 5.06488,-5.05023 1.08003,-1.084863 m 3.01658,-3.030138 3.05379,-3.030138 m 48.26533,-48.33259 h 0.0356 m 3.01658,-3.030138 3.01658,-3.030138 m 3.01658,-3.030138 3.01658,-3.030138 m -90.6092,81.664113 1.52686,-1.57119 m 3.01665,-2.992724 3.05378,-3.030138 m 15.49258,-15.524789 2.60689,-2.618635 m 3.01665,-3.030138 3.01658,-2.992733 m 39.25281,-39.316985 3.01658,-3.030138 m 3.01658,-2.992727 3.01657,-3.030145 m 3.01658,-3.030138 1.37797,-1.346726 m -60.25717,51.213088 3.01658,-3.030139 m 3.05378,-2.992733 2.83041,-2.843092 m 27.33545,-27.383479 3.01658,-3.030138 m 3.01658,-3.030138 3.01658,-3.030138 m 3.05386,-3.030138 2.83033,-2.843093 m -49.6433,40.626307 3.01665,-2.992734 m 3.01658,-3.030138 1.34069,-1.346725 m 18.28572,-18.293065 1.52692,-1.533771 m 3.01658,-3.030138 3.01658,-2.992727 m 3.01658,-3.030145 3.01658,-3.030138 m -43.79631,34.753076 3.01658,-3.030138 m 3.01658,-2.992733 3.05378,-3.030138"
       id="path3" />
    <path
       style="fill:none;stroke:#000000;stroke-width:0.0372418px;stroke-linecap:round;stroke-linejoin:round;stroke-miterlimit:4;stroke-dasharray:none;stroke-opacity:1"
       d="m 767.90513,31.36273 3.01658,-3.030138 m 3.01658,-3.030139 3.01658,-3.030138 m -43.75911,34.790481 3.01658,-3.030138 m 3.01658,-3.030138 3.01658,-3.030138 m 3.42627,-3.441642 2.60689,-2.581229 m 3.01665,-3.030139 3.01658,-3.030138 m 3.01658,-3.030138 3.01657,-3.030138 m 3.01658,-2.992726 3.01658,-3.030145 m 3.01658,-3.030138 1.37796,-1.346726 m -39.32735,30.301388 0.22337,-0.224443 m 15.08297,-15.113286 3.01658,-3.030138 m 3.05378,-3.030138 3.01658,-3.030138 m 3.01658,-3.030138 2.83041,-2.843093 m -19.44023,10.399735 3.01658,-2.992726 m 3.01658,-3.030145 3.01665,-3.030138 m -92.09893,83.123067 2.4952,-2.50641 m 70.49863,-70.553602 2.4952,-2.506412 m 3.01665,-3.030138 3.01658,-3.030138 m -91.57754,82.63675 2.53247,-2.54382 m 3.01658,-2.992731 3.01658,-3.030138 m 65.43381,-65.503373 0.96821,-1.010046 m 3.01665,-2.992726 3.05378,-3.030145 m 3.01658,-3.030138 1.34076,-1.346726 m -94.44516,85.479843 1.00555,-1.01005 m 3.01658,-3.03013 3.01658,-3.03015 m 69.45587,-69.506144 3.01658,-3.030138 m 3.01658,-3.030138 2.86761,-2.843093 m -91.94989,82.936023 3.01658,-2.992731 m 3.01658,-3.030138 1.41517,-1.42155 m 65.02412,-65.091869 3.01658,-2.992726 m 3.01658,-3.030145 3.01658,-3.030138 m -86.02849,77.062787 3.01665,-3.030138 m 3.01658,-2.992726 2.45793,-2.469 m 58.46958,-58.507868 2.45793,-2.506412 m 3.01658,-3.030138 3.01665,-3.030138 m -73.96218,64.97964 3.01658,-2.992727 m 3.01658,-3.030138 0.96828,-0.935229 m 49.38257,-49.454858 1.00555,-1.010046 m 3.01658,-2.992726 3.01658,-3.030145 m 3.01658,-3.030138 1.34068,-1.346726 m -70.75938,61.762456 1.48968,-1.458954 m 3.01665,-3.030138 3.01658,-3.030138 m 15.9022,-15.936286 0.59615,-0.598564 m 28.7879,-28.805021 3.01658,-3.030139 m 3.01658,-3.030138 2.86761,-2.843092 m -61.70965,52.709454 2.97941,-2.992733 m 3.01658,-3.030138 3.01658,-3.030139 m 5.21385,-5.199871 0.85651,-0.823 m 3.01665,-3.030138 3.01658,-3.030138 m 21.11605,-21.173562 3.01658,-2.992726 m 3.01658,-3.030145 3.01658,-3.030138 m -49.79226,40.813352 3.01665,-3.030138 m 3.01658,-3.030138 3.01657,-3.030138 m 3.01658,-2.992734 1.56414,-1.571183 m 17.09399,-17.095966 2.45793,-2.506412 m 3.05385,-3.030139 3.01658,-3.030138 m -37.76315,28.730205 3.01658,-3.030138 m 3.01658,-3.030138 0.96827,-0.935229 m 13.14635,-13.168011 1.00555,-1.010046 m 3.01658,-2.992726 3.01658,-3.030145 m 3.01658,-3.030138 1.34068,-1.346726 m -34.52316,25.475609 1.48969,-1.458955 m 3.01665,-3.030138 3.01658,-3.030138 m 9.04973,-9.053009 3.01658,-3.030139 m 3.01658,-3.030138 2.86761,-2.843092 m -25.47342,16.422606 2.97941,-2.992733 m 3.01658,-3.030138 3.01658,-2.992726 m 3.01658,-3.030145 3.05378,-3.030138 m -19.10506,10.063055 2.4952,-2.506412 m 3.01662,-3.030139 3.01665,-3.030138 m -17.57821,8.566689 0.96828,-1.010046 m 3.01658,-2.992726 3.01665,-3.030145 m 3.01658,-3.030138 1.34068,-1.346726 m -17.95051,8.903369 3.01658,-3.030139 m 3.01658,-3.030138 2.86761,-2.843092 m -19.47743,10.399735 3.05378,-2.992726 m 3.01658,-3.030145 3.01658,-3.030138 m -19.10502,10.063055 2.4952,-2.506412 m 3.01658,-3.030139 3.01658,-3.030138 m -17.5781,8.566689 0.96827,-1.010046 m 3.01658,-2.992726 3.01658,-3.030145 m 3.01658,-3.030138 1.37796,-1.346726 m -17.98778,8.903369 3.01665,-3.030139 m 3.05378,-3.030138 2.83041,-2.843092 m -19.44023,10.399735 3.01658,-2.992726 m 3.01658,-3.030145 3.01658,-3.030138 m -19.10503,10.063055 2.4952,-2.506412 m 3.01658,-3.030139 3.01658,-3.030138 m -17.5781,8.566689 0.96828,-1.010046 m 3.01658,-2.992726 3.01658,-3.030145 m 3.01657,-3.030138 1.37797,-1.346726 m -17.95053,8.903369 3.0166,-3.030139 m 3.01658,-3.030138 2.83033,-2.843092 m -19.44017,10.399735 3.01658,-2.992726 m 3.01657,-3.030145 3.0166,-3.030138 m -19.10504,10.063055 2.4952,-2.506412 m 3.01658,-3.030139 3.0166,-3.030138 m -17.57814,8.566689 0.9683,-1.010046 m 3.01659,-2.992726 3.05381,-3.030145 m 3.0166,-3.030138 1.34071,-1.346726 m -17.95055,8.903369 3.01659,-3.030139 m 3.01658,-3.030138 2.86762,-2.843092 m -19.47745,10.399735 3.01659,-2.992726 m 3.01658,-3.030145 3.01658,-3.030138 m -19.06778,10.063055 2.45795,-2.506412 m 3.01658,-3.030139 3.01658,-3.030138 m -91.57749,82.636755 2.53243,-2.54383 m 71.46695,-71.526236 1.00554,-1.010046 m 3.01658,-2.992726 3.01658,-3.030145 m 3.0166,-3.030138 1.34068,-1.346726 m -94.44511,85.479847 1.00552,-1.01005 m 3.01658,-3.03014 3.0166,-3.030144 m 3.01657,-3.030138 3.01658,-2.992726 m 63.42273,-63.48328 3.01658,-3.030139 m 3.0166,-3.030138 2.86762,-2.843092 m -91.95014,82.936017 3.05381,-2.992725 m 3.0166,-3.030138 1.37793,-1.42155 m 4.65522,-4.638727 3.0166,-3.030145 m 3.01657,-2.992726 1.75037,-1.795641 m 52.58537,-52.63463 3.01657,-2.992726 m 3.0166,-3.030145 3.01657,-3.030138 m -92.06164,83.123071 3.01659,-3.03014 m 3.01658,-3.030144 2.90485,-2.917909 m 11.54495,-11.52201 0.63307,-0.673331 m 3.0166,-2.992733 3.01657,-3.030138 m 3.01658,-3.030138 0.26072,-0.261863 m 42.56732,-42.571581 2.45798,-2.506413 m 3.0538,-3.030138 3.0166,-3.030138 m -85.24642,76.277199 2.19727,-2.207138 m 22.00989,-22.033974 2.16002,-2.132321 m 3.0166,-3.030138 3.01657,-3.030138 m 35.23072,-35.276801 1.00552,-1.010046 m 3.01659,-2.992726 3.01658,-3.030146 m 3.01658,-3.030138 1.3407,-1.346725 m -54.18678,45.190215 3.0166,-3.030138 m 3.01657,-3.030138 3.01658,-3.030138 m 27.18651,-27.196433 3.01657,-3.030138 m 3.01658,-3.030138 2.86762,-2.843092 m -47.48325,38.456573 0.85656,-0.823 m 3.01658,-3.030139 3.0166,-3.030138 m 3.01657,-3.030138 1.75037,-1.758229 m 16.34913,-16.385194 3.01658,-2.992726 m 3.01658,-3.030146 3.05383,-3.030138 m -43.79631,34.753076 3.01658,-3.030138 m 3.01657,-2.992733 1.56416,-1.571184 m 0.81932,-0.823 0.63307,-0.635983 m 3.0166,-3.030138 3.01657,-3.030138 m 3.01658,-3.030138 0.26072,-0.261863 m 6.33109,-6.284734 2.4952,-2.506412 m 3.01658,-3.030139 3.01659,-3.030138 m -37.76316,28.730205 3.0166,-3.030138 m 9.94354,-9.913415 2.16001,-2.169733 m 3.0166,-3.030138 3.01658,-3.030138 m 3.01658,-2.992726 3.0166,-3.030145 m 3.01657,-3.030138 1.3407,-1.346726 m -17.95054,8.903369 3.0166,-3.030139 m 3.01657,-3.030138 2.86762,-2.843092 m -19.47743,10.399735 3.0538,-2.992726 m 3.0166,-3.030145 3.01658,-3.030138 m -92.09888,83.123071 3.01657,-3.03014 m 3.01658,-3.030144 1.89933,-1.870451 m 65.06138,-65.129281 2.4952,-2.506412 m 3.01658,-3.030139 3.01657,-3.030138 m -91.5775,82.636755 2.4952,-2.54383 m 3.01658,-2.992725 3.05382,-3.030138 m 65.4338,-65.503373 0.96828,-1.010046 m 3.01658,-2.992726 3.01658,-3.030145 m 3.0166,-3.030138 1.37793,-1.346726 m -94.48236,85.479847 1.04277,-1.01005 m 3.01658,-3.03014 3.01658,-3.030144 m 69.41866,-69.506144 3.01658,-3.030139 m 3.05382,-3.030138 2.83039,-2.843092 m -91.91269,82.936017 3.01659,-2.992725 m 3.01658,-3.030138 3.01658,-3.030138 m 63.42273,-63.483281 3.01658,-2.992726 m 3.01658,-3.030145 3.01659,-3.030138 m -90.08784,81.102981 1.00554,-1.01005 m 3.01657,-3.030144 3.01658,-3.030138 m 3.0166,-2.992726 3.05382,-3.030138 m 3.01658,-3.030138 2.86762,-2.880504 m 51.98951,-52.036088 2.49519,-2.506412 m 3.01659,-3.030139 3.01658,-3.030138 m -83.75674,74.818245 0.74484,-0.748183 m 3.01658,-3.030138 3.01659,-3.030139 m 3.01658,-3.030145 3.01658,-2.992726 m 3.01659,-3.030138 3.01658,-3.030138 m 3.01658,-3.030138 1.37795,-1.384138 m 42.93976,-42.945673 0.96827,-1.010046 m 3.0166,-2.992726 3.01657,-3.030145 m 3.01658,-3.030138 1.37796,-1.346726 m -84.38984,75.379375 3.01657,-2.992726 m 3.01658,-3.030138 3.01658,-3.030138 m 11.06081,-11.073102 1.00554,-1.010046 m 3.05382,-3.030138 3.01658,-3.030138 m 9.7201,-9.726376 2.34623,-2.356771 m 3.01658,-3.030138 2.04831,-2.020093 m 22.12159,-22.146202 3.0166,-3.030139 m 3.01658,-3.030138 2.86762,-2.843092 m -85.91675,76.913154 3.01658,-3.030138 m 3.01657,-3.030139 3.0166,-3.030145 m 3.0538,-2.992726 0.70762,-0.71075 m 17.87605,-17.918973 2.53245,-2.543817 m 3.01658,-3.030138 3.01658,-2.992734 m 3.01659,-3.030138 3.01658,-3.030138 m 3.01658,-3.030138 0.0745,-0.0377 m 18.06228,-18.106012 3.01658,-2.992726 m 3.01657,-3.030145 3.0166,-3.030139 m -85.28365,76.314612 2.27175,-2.281962 m 3.01658,-2.992726 3.01657,-3.030138 m 3.0166,-3.030139 2.19726,-2.207137 m 27.96856,-28.019434 3.05383,-3.030138 m 3.01658,-2.992733 2.86762,-2.917909 m 15.75326,-15.74924 2.4952,-2.506413 m 3.01657,-3.030138 3.0166,-3.030138 m -83.75673,74.818245 0.74483,-0.748184 m 3.01658,-3.030138 3.01657,-3.030138 m 3.0166,-3.030145 3.01658,-2.992726 m 39.25283,-39.316986 3.01658,-2.992733 m 3.01658,-3.030138 1.37795,-1.384138 m 6.70351,-6.69623 0.96829,-1.010046 m 3.01658,-2.992726 3.05382,-3.030145 m 3.0166,-3.030139 1.3407,-1.346725 m -84.38985,75.379375 3.01659,-2.992726 m 3.01658,-3.030138 3.01658,-3.030139 m 47.29704,-47.322536 1.00553,-1.047458 m 3.05383,-2.992734 3.01658,-3.030138 m 3.01658,-3.030138 3.01658,-3.030138 m 3.01659,-3.030138 2.86762,-2.843092 m -85.91675,76.913424 3.05382,-3.030138 m 3.0166,-3.030139 3.01658,-3.030145 m 3.01658,-2.992726 0.70761,-0.71075 m 49.08465,-49.15559 1.52691,-1.533771 m 3.01658,-3.030138 3.01659,-2.992727 m 3.01658,-3.030145 3.01658,-3.030138 m -92.06167,83.123047 3.01659,-3.03014 m 3.01658,-3.030141 3.01658,-3.030138 m 3.01659,-2.992726 3.01658,-3.030138 m 3.01658,-3.030138 2.23451,-2.207138"
       id="path4" />
    <path
       style="fill:none;stroke:#000000;stroke-width:0.0372418px;stroke-linecap:round;stroke-linejoin:round;stroke-miterlimit:4;stroke-dasharray:none;stroke-opacity:1"
       d="m 260.67219,31.36273 3.0166,-3.030138 m 3.01658,-3.030139 3.01658,-3.030138 m -83.38433,74.444153 0.37242,-0.37412 m 3.01657,-3.030138 3.01658,-3.030138 m 3.01658,-3.030145 3.01659,-2.992726 m 51.31916,-51.400133 3.05381,-3.030138 m 3.01659,-2.992726 3.01658,-3.030146 m 3.01658,-3.030138 1.34071,-1.346725 m -77.20219,68.234235 1.89933,-1.907863 m 51.31915,-51.362728 3.01661,-3.030138 m 3.01657,-3.030138 3.01658,-3.030138 m 3.0166,-3.030138 2.8676,-2.843092 m -24.02093,14.963644 1.52691,-1.533771 m 3.01658,-3.030138 3.01657,-2.992726 m 3.0166,-3.030146 3.01658,-3.030138"
       id="path5" />
    <path
       style="fill:none;stroke:#000000;stroke-width:0.0372418px;stroke-linecap:round;stroke-linejoin:round;stroke-miterlimit:4;stroke-dasharray:none;stroke-opacity:1"
       d="m 224.43596,31.36273 3.01657,-3.030138 m 3.05383,-3.030139 3.0166,-3.030138 m -19.62641,10.586781 3.01658,-3.030138 m 3.01657,-2.992726 3.0166,-3.030145 m 3.01658,-3.030138 1.3407,-1.346726 m -23.9837,14.963645 3.01658,-3.030138 m 3.01659,-3.030138 3.01658,-3.030139 m 3.01658,-3.030138 2.86762,-2.843092 m -23.9837,14.963645 1.48967,-1.533772 m 3.01659,-3.030138 3.01658,-2.992726 m 3.01658,-3.030145 3.05382,-3.030138 m -19.62641,10.586781 3.01659,-3.030138 m 3.01658,-3.030139 3.01658,-3.030138 m -17.57811,8.566689 0.96829,-1.010046 m 3.01658,-2.992726 3.0166,-3.030145 m 3.01657,-3.030138 1.3407,-1.346726 m -17.95054,8.903369 3.0166,-3.030139 m 3.01657,-3.030138 2.86762,-2.843092 m -19.47745,10.399735 3.05382,-2.992726 m 3.0166,-3.030145 3.01657,-3.030138 m -19.10501,10.063055 2.49518,-2.506412 m 3.0166,-3.030139 3.01658,-3.030138 m -17.57811,8.566689 0.96828,-1.010046 m 3.01658,-2.992726 3.01658,-3.030145 m 3.0166,-3.030138 1.37793,-1.346726 m -94.482365,85.479847 1.042777,-1.01005 m 3.016579,-3.03014 3.016587,-3.030144 m 69.418652,-69.506144 3.01658,-3.030139 m 3.05382,-3.030138 2.83039,-2.843092 m -90.981647,82.038197 2.08554,-2.094905 m 3.016586,-3.030138 1.526913,-1.533779 m 0.670343,-0.673331 0.819316,-0.823 m 3.016586,-3.030138 2.718648,-2.693459 m 57.687495,-57.759683 3.01658,-2.992726 m 3.01658,-3.030146 3.0166,-3.030138 m -73.142832,64.156619 2.197263,-2.207138 m 3.016587,-2.992733 1.191735,-1.234497 m 47.632207,-47.659224 2.49521,-2.506412 m 3.01659,-3.030139 3.01658,-3.030138 m -91.577511,82.636755 2.532442,-2.54383 m 23.089898,-23.081424 1.04277,-1.084863 m 3.016579,-3.030138 3.016586,-2.992733 m 41.301106,-41.337078 0.96829,-1.010046 m 3.0166,-2.992726 3.01657,-3.030145 m 3.01658,-3.030138 1.37796,-1.346726 m -94.445132,85.479847 1.005528,-1.01005 m 3.016586,-3.03014 3.016586,-3.030144 m 21.116082,-21.13615 3.05382,-3.030138 m 3.314516,-3.329413 2.718656,-2.730863 m 3.016579,-2.992733 1.005529,-1.010046 m 35.2307,-35.276801 3.0166,-3.030139 m 3.01658,-3.030138 2.86762,-2.843092 m -91.949933,82.936017 3.016587,-2.992725 m 3.016586,-3.030138 2.085532,-2.094916 m 16.051204,-16.048508 3.016586,-3.030138 m 3.016579,-2.992733 1.452432,-1.458955 m 40.81698,-40.888169 3.016586,-2.992726 m 3.016572,-3.030145 3.016579,-3.030138 m -83.607755,74.631199 0.59586,-0.598564 m 3.016579,-2.992726 3.016586,-3.030138 m 3.016579,-3.030138 0.372413,-0.374121 m 6.107648,-6.097688 2.569683,-2.581229 m 3.016586,-3.030138 2.942097,-2.955322 M 80.049618,30.838962 82.54482,28.332549 m 3.016579,-3.030138 3.016586,-3.030138 M 15.54688,86.354095 17.632413,84.259187 m 3.016586,-3.030139 3.016586,-3.030138 m 3.016579,-3.030138 3.016587,-2.992733 m 41.301116,-41.337077 0.968288,-1.010047 m 3.016579,-2.992726 3.053827,-3.030145 m 3.016586,-3.030138 1.3407,-1.346726 m -66.253099,57.273364 3.016579,-3.030138 m 3.016586,-3.030138 3.016579,-3.030139 m 39.252825,-39.27958 3.016586,-3.030138 m 3.016579,-3.030138 2.867621,-2.843093 m -55.71369,46.686583 3.016586,-3.030138 m 3.016586,-3.030138 1.899327,-1.870459 m 28.30374,-28.356113 3.016586,-2.992726 m 3.016586,-3.030145 3.016579,-3.030138 M 15.54688,59.15767 16.142741,58.559106 m 3.016579,-3.030138 3.016586,-3.030138 m 3.016579,-2.992734 0.372413,-0.37412 m 18.285708,-18.293057 2.457953,-2.506413 m 3.016586,-3.030138 3.016586,-3.030138 m -36.794865,27.794975 2.085533,-2.094909 m 3.016586,-3.030138 3.016586,-2.992733 m 11.098043,-11.110506 1.005529,-1.010046 m 3.016586,-2.992726 3.016579,-3.030145 m 3.016586,-3.030139 1.3407,-1.346725 m -30.01686,20.986516 3.016579,-3.030138 m 3.016586,-2.992734 3.016579,-3.030138 m 3.016586,-3.030138 3.016586,-3.030138 m 3.016579,-3.030138 2.867621,-2.843092 m -19.477451,10.399735 3.016586,-2.992726 m 3.016586,-3.030145 3.016579,-3.030139 m -11.135284,2.094917 0.595861,-0.598564"
       id="path6" />
  </g>
</svg>
