<?xml version="1.0" encoding="UTF-8" standalone="no"?>
<!-- Created with Inkscape (http://www.inkscape.org/) -->

<svg
   width="65.505753mm"
   height="22.50898mm"
   viewBox="0 0 65.505753 22.50898"
   version="1.1"
   id="svg1"
   xmlns="http://www.w3.org/2000/svg"
   xmlns:svg="http://www.w3.org/2000/svg">
  <defs
     id="defs1" />
  <g
     id="layer1"
     transform="translate(-17.919445,-42.916457)">
    <path
       style="fill:none;stroke:#000000;stroke-width:0.526011px;stroke-linecap:round;stroke-linejoin:round;stroke-miterlimit:4;stroke-dasharray:none;stroke-opacity:1"
       d="m 75.177748,46.261846 0.325035,0.18846 m 0,0 0.03722,0.01736 m 0,0 0.02977,0.0074 m 0,0 0.03226,0.0025 m 0,0 0.02977,-0.0025 m 0,0 0.03226,-0.0074 m 0,0 0.02729,-0.0124 m 0,0 0.02729,-0.01736 m 0,0 0.02481,-0.01984 m 0,0 0.01985,-0.0248 m 2.451406,0.04463 -0.02977,-0.04215 m 0,0 -0.07195,-0.09423 m 0,0 -0.0794,-0.08679 m 0,0 -0.08684,-0.07935 m 0,0 -0.0918,-0.07191 m 0,0 -0.09925,-0.06447 m 0,0 -0.10173,-0.05951 m 0,0 -0.10669,-0.04959 m 0,0 -0.111652,-0.03968 m 0,0 -0.111654,-0.03224 m 0,0 -0.116615,-0.02232 m 0,0 -0.116615,-0.01488 m 0,0 -0.116618,-0.005 m 0,0 -0.116615,0.005 m 0,0 -0.119097,0.01488 m 0,0 -0.114133,0.02232 m 0,0 -0.114134,0.03224 m 0,0 -0.109172,0.03968 m 0,0 -0.106691,0.04959 m 0,0 -0.101729,0.05951 m 0,0 -0.09925,0.06447 m 0,0 -0.0918,0.07191 m 0,0 -0.08684,0.07935 m 0,0 -0.0794,0.08679 m 0,0 -0.07195,0.09175 m 2.451406,0.04463 0.02481,0.02976 m 0,0 0.02481,0.01984 m 0,0 0.02729,0.01736 m 0,0 0.02729,0.0124 m 0,0 0.02977,0.0074 m 0,0 0.03226,0.0025 m 0,0 H 78.572 m 0.198496,0.198379 -0.0025,-0.02976 m 0,0 -0.0074,-0.03224 m 0,0 -0.01241,-0.02728 m 0,0 -0.01489,-0.02728 m 0,0 -0.02233,-0.0248 m 0,0 -0.02233,-0.01984 m 0,0 -0.02729,-0.01736 m 0,0 -0.02977,-0.0099 m 0,0 -0.02978,-0.0074 m 0,0 -0.02977,-0.0025 m 0.198496,0.198379 v 1.101003 m -0.198496,0.198379 0.02977,-0.0025 m 0,0 0.02978,-0.0074 m 0,0 0.02977,-0.0124 m 0,0 0.02729,-0.01488 m 0,0 0.02233,-0.01984 m 0,0 0.02233,-0.0248 m 0,0 0.01489,-0.02728 m 0,0 0.01241,-0.02976 m 0,0 0.0074,-0.02976 m 0,0 0.0025,-0.02976 M 78.572,48.024935 h -0.19105 m 0,0 -0.03226,0.0025 m 0,0 -0.02977,0.0074 m 0,0 -0.02729,0.0124 m 0,0 -0.02729,0.01736 m 0,0 -0.02481,0.01984 m 0,0 -0.02481,0.02976 m -2.451406,0.04215 0.07195,0.09175 m 0,0 0.0794,0.08679 m 0,0 0.08684,0.08183 m 0,0 0.0918,0.07191 m 0,0 0.09925,0.06447 m 0,0 0.101729,0.05703 m 0,0 0.106691,0.0496 m 0,0 0.109172,0.04216 m 0,0 0.114134,0.03224 m 0,0 0.114133,0.02232 m 0,0 0.119097,0.01488 m 0,0 0.116615,0.0025 m 0,0 0.116618,-0.0025 m 0,0 0.116615,-0.01488 m 0,0 0.116615,-0.02232 m 0,0 0.111654,-0.03224 m 0,0 0.111652,-0.04216 m 0,0 0.10669,-0.0496 m 0,0 0.10173,-0.05703 m 0,0 0.09925,-0.06447 m 0,0 0.0918,-0.07191 m 0,0 0.08684,-0.08183 m 0,0 0.0794,-0.08679 m 0,0 0.07195,-0.09175 m 0,0 0.02977,-0.04215 m -2.451406,0.04215 -0.01985,-0.02232 m 0,0 -0.02481,-0.01984 m 0,0 -0.02729,-0.01736 m 0,0 -0.02729,-0.0124 m 0,0 -0.03226,-0.0074 m 0,0 -0.02977,-0.0025 m 0,0 -0.03226,0.0025 m 0,0 -0.02977,0.0074 m 0,0 -0.03722,0.01736 m 0,0 -0.823754,0.47611 m 0,0 -0.01737,0.0124 m 0,0 -0.02481,0.01984 m 0,0 -0.01985,0.0248 m 0,0 -0.01737,0.0248 m 0,0 -0.01241,0.02976 m 0,0 -0.0074,0.02976 m 0,0 -0.0025,0.03224 m 0,0 v 5.919134 m 0,0 0.005,0.06447 m 0,0 0.01241,0.06447 m 0,0 0.02233,0.06199 m 0,0 0.0273,0.05951 m 0,0 0.03722,0.05455 m 0,0 0.04218,0.04711 m 0,0 0.04962,0.04463 m 0,0 0.05459,0.03472 m 0,0 0.05955,0.02976 m 0,0 0.05955,0.02232 m 0,0 0.06451,0.0124 m 0,0 0.06699,0.0025 m 0,0 h 1.19593 m 0,0 0.104211,-0.005 m 0,0 0.104209,-0.01488 m 0,0 0.101729,-0.02728 m 0,0 0.09677,-0.0372 m 0,0 0.0918,-0.04959 m 0,0 0.08932,-0.05703 m 0,0 0.0794,-0.06447 m 0,0 0.07444,-0.07439 m 0,0 0.06699,-0.08183 m 0,0 0.05707,-0.08679 m 0,0 0.04714,-0.09423 m 0,0 0.03722,-0.09671 m 0,0 0.02729,-0.101669 m 0,0 0.01489,-0.101669 m 0,0 0.0074,-0.106629 m 0,0 v -0.198379 m 0,0 -0.005,-0.04711 m 0,0 -0.0099,-0.04463 m 0,0 -0.01985,-0.04464 m 0,0 -0.02233,-0.03968 m 0,0 -0.03225,-0.0372 m 0,0 -0.03474,-0.02976 m 0,0 -0.0397,-0.0248 m 0,0 -0.04466,-0.01736 m 0,0 -0.04466,-0.0124 m 0,0 -0.04714,-0.0025 m 0,0 h -0.498716 m -0.300223,-0.300048 0.005,0.04712 m 0,0 0.0099,0.04463 m 0,0 0.01737,0.04463 m 0,0 0.02481,0.03968 m 0,0 0.02978,0.0372 m 0,0 0.03722,0.02976 m 0,0 0.0397,0.0248 m 0,0 0.04218,0.01736 m 0,0 0.04714,0.0099 m 0,0 0.04714,0.005 M 76.175226,53.371217 V 51.0725 m 0.498716,-0.498427 -0.06451,0.0025 m 0,0 -0.06451,0.01488 m 0,0 -0.06203,0.01984 m 0,0 -0.05707,0.02976 m 0,0 -0.05459,0.03472 m 0,0 -0.04962,0.04463 m 0,0 -0.04218,0.0496 m 0,0 -0.03722,0.05207 m 0,0 -0.02977,0.05951 m 0,0 -0.01985,0.06199 m 0,0 -0.01241,0.06447 m 0,0 -0.005,0.06447 m 0.498716,-0.498427 h 0.300223 m 0,0 0.171204,-0.005 m 0,0 0.17368,-0.01488 m 0,0 0.171204,-0.02232 m 0,0 0.16872,-0.02976 m 0,0 0.166237,-0.04216 m 0,0 0.166241,-0.04711 m 0,0 0.163758,-0.05951 m 0,0 0.158795,-0.06447 m 0,0 0.156316,-0.07439 m 0,0 0.151352,-0.08183 m 0,0 0.146389,-0.09175 m 0,0 0.141428,-0.09671 m 0,0 0.136464,-0.106628 m 0,0 0.133985,-0.114068 m 0.803902,0.200858 -0.0074,-0.01984 m 0,0 -0.02977,-0.05951 m 0,0 -0.03722,-0.05456 m 0,0 -0.04218,-0.04711 m 0,0 -0.04962,-0.04464 m 0,0 -0.05459,-0.03472 m 0,0 -0.05707,-0.02976 m 0,0 -0.06203,-0.02232 m 0,0 -0.06451,-0.0124 m 0,0 -0.06451,-0.0025 m 0,0 -0.06451,0.0025 m 0,0 -0.06451,0.0124 m 0,0 -0.06203,0.02232 m 0,0 -0.05955,0.02976 m 0,0 -0.05459,0.03472 m 0,0 -0.02977,0.0248 m 0.803902,0.200858 1.215779,3.345167 m -0.282856,0.401717 0.04714,-0.005 m 0,0 0.04714,-0.0099 m 0,0 0.04218,-0.01736 m 0,0 0.0397,-0.0248 m 0,0 0.03722,-0.02976 m 0,0 0.02977,-0.0372 m 0,0 0.02481,-0.03968 m 0,0 0.01737,-0.04463 m 0,0 0.01241,-0.04463 m 0,0 0.0025,-0.04712 m 0,0 -0.0025,-0.04711 m 0,0 -0.01241,-0.04464 m 0,0 -0.0025,-0.0099 m -0.282856,0.401717 H 80.56689 m 0,0 -0.04714,0.0025 m 0,0 -0.04466,0.0124 m 0,0 -0.04466,0.01736 m 0,0 -0.0397,0.0248 m 0,0 -0.03473,0.02976 m 0,0 -0.02978,0.0372 m 0,0 -0.02481,0.03968 m 0,0 -0.01985,0.04464 m 0,0 -0.0099,0.04463 m 0,0 -0.005,0.04711 m 0,0 v 0.198379 m 0,0 0.0074,0.106629 m 0,0 0.01489,0.101669 m 0,0 0.02729,0.101669 m 0,0 0.03722,0.09671 m 0,0 0.04714,0.09423 m 0,0 0.05707,0.08679 m 0,0 0.06699,0.08183 m 0,0 0.07443,0.07439 m 0,0 0.0794,0.06447 m 0,0 0.08932,0.05703 m 0,0 0.0918,0.04959 m 0,0 0.09677,0.0372 m 0,0 0.101727,0.02728 m 0,0 0.104212,0.01488 m 0,0 0.104208,0.005 m 0,0 h 0.898189 m 0,0 0.104209,-0.005 m 0,0 0.10173,-0.01488 m 0,0 0.101727,-0.02728 m 0,0 0.09677,-0.0372 m 0,0 0.09428,-0.04959 m 0,0 0.08684,-0.05703 m 0,0 0.08188,-0.06447 m 0,0 0.07444,-0.07439 m 0,0 0.06451,-0.08183 m 0,0 0.05707,-0.08679 m 0,0 0.04714,-0.09423 m 0,0 0.03722,-0.09671 m 0,0 0.02729,-0.101669 m 0,0 0.01737,-0.101669 m 0,0 0.005,-0.106629 m 0,0 -0.005,-0.104149 m 0,0 -0.01737,-0.101669 m 0,0 -0.02729,-0.101669 m 0,0 -0.0099,-0.03224 m 0,0 -3.75403,-10.323147 m 0,0 -0.0074,-0.01984 m 0,0 -0.02729,-0.05951 m 0,0 -0.03722,-0.05207 m 0,0 -0.04218,-0.04959 m 0,0 -0.04962,-0.04464 m 0,0 -0.05459,-0.03472 m 0,0 -0.05955,-0.02976 m 0,0 -0.06203,-0.01984 m 0,0 -0.06203,-0.01488 m 0,0 -0.06699,-0.0025 m 0,0 H 19.619114 m 0,0 -0.03225,0.0025 m 0,0 -0.02977,0.0074 m 0,0 -0.02977,0.0099 m 0,0 -0.02481,0.01736 m 0,0 -0.02481,0.01984 m 0,0 -0.01985,0.0248 m 0,0 -0.01737,0.02728 m 0,0 -0.01241,0.02728 m 0,0 -0.0074,0.03224 m 0,0 -0.0025,0.02976 m 0,0 0.0025,0.03224 m 0,0 0.0074,0.02976 m 0,0 0.0099,0.02232 m 0,0 0.605409,1.299382 m 0,0 0.01985,0.03472 m 0,0 0.01985,0.02232 m 0,0 0.02481,0.01984 m 0,0 0.02481,0.01736 m 0,0 0.02977,0.0124 m 0,0 0.02977,0.0074 m 0,0 0.03225,0.0025 m 0,0 h 3.247867 m 0.198495,0.198379 -0.0025,-0.02976 m 0,0 -0.0074,-0.03224 m 0,0 -0.0099,-0.02728 m 0,0 -0.01737,-0.02728 m 0,0 -0.01985,-0.0248 m 0,0 -0.02481,-0.01984 m 0,0 -0.02729,-0.01488 m 0,0 -0.02729,-0.0124 m 0,0 -0.03226,-0.0074 m 0,0 -0.02977,-0.0025 m 0.198495,0.198379 v 1.634147 m 0,0 0.0025,0.03224 m 0,0 0.0074,0.02976 m 0,0 0.01241,0.02976 m 0,0 0.01737,0.0248 m 0,0 0.01985,0.0248 m 0,0 0.282855,0.282691 m 0,0.28269 0.01985,-0.0248 m 0,0 0.01489,-0.02728 m 0,0 0.01241,-0.02728 m 0,0 0.0074,-0.02976 m 0,0 0.0025,-0.03224 m 0,0 -0.0025,-0.03224 m 0,0 -0.0074,-0.02976 m 0,0 -0.01241,-0.02976 m 0,0 -0.01489,-0.0248 m 0,0 -0.01985,-0.0248 m 0,0.28269 -0.282855,0.28269 m 0,0 -0.01985,0.02232 m 0,0 -0.01737,0.02728 m 0,0 -0.01241,0.02976 m 0,0 -0.0074,0.02976 m 0,0 -0.0025,0.03224 m 0,0 v 7.129245 m -0.198495,0.198379 0.02977,-0.0025 m 0,0 0.03226,-0.0074 m 0,0 0.02729,-0.0099 m 0,0 0.02729,-0.01736 m 0,0 0.02481,-0.01984 m 0,0 0.01985,-0.0248 m 0,0 0.01737,-0.02728 m 0,0 0.0099,-0.02728 m 0,0 0.0074,-0.03224 m 0,0 0.0025,-0.02976 m -0.198491,0.198405 H 18.92932 m 0,0 -0.07692,0.005 m 0,0 -0.07692,0.0124 m 0,0 -0.07692,0.01984 m 0,0 -0.07196,0.02976 m 0,0 -0.06947,0.03472 m 0,0 -0.06699,0.04215 m 0,0 -0.06203,0.0496 m 0,0 -0.05459,0.05455 m 0,0 -0.04962,0.06199 m 0,0 -0.04218,0.06695 m 0,0 -0.03474,0.06943 m 0,0 -0.02977,0.07191 m 0,0 -0.01985,0.07687 m 0,0 -0.01241,0.07687 m 0,0 -0.0025,0.07935 m 0,0 0.0025,0.07687 m 0,0 0.01241,0.07935 m 0,0 0.01985,0.07439 m 0,0 0.02977,0.07439 m 0,0 0.03474,0.06943 m 0,0 0.04218,0.06447 m 0,0 0.04962,0.06199 m 0,0 0.05459,0.05455 m 0,0 0.06203,0.0496 m 0,0 0.06699,0.04216 m 0,0 0.06947,0.0372 m 0,0 0.07196,0.02728 m 0,0 0.07692,0.01984 m 0,0 0.07692,0.0124 m 0,0 0.07692,0.005 m 0,0 h 4.543044 m 0.198495,0.198379 -0.0025,-0.02976 m 0,0 -0.0074,-0.02976 m 0,0 -0.0099,-0.02976 m 0,0 -0.01737,-0.02728 m 0,0 -0.01985,-0.02232 m 0,0 -0.02481,-0.02232 m 0,0 -0.02729,-0.01488 m 0,0 -0.02729,-0.0124 m 0,0 -0.03226,-0.0074 m 0,0 -0.02977,-0.0025 m 0.198495,0.198379 v 8.096343 m 0,0 0.0025,0.02976 m 0,0 0.0074,0.03224 m 0,0 0.01241,0.02728 m 0,0 0.01737,0.02728 m 0,0 0.01985,0.0248 m 0,0 0.02233,0.01984 m 0,0 0.02729,0.01488 m 0,0 0.02977,0.0124 m 0,0 0.02977,0.0074 m 0,0 0.03226,0.0025 m 0,0 h 1.096682 m 0,0 0.03226,-0.0025 m 0,0 0.02977,-0.0074 m 0,0 0.02977,-0.0124 m 0,0 0.02729,-0.01488 m 0,0 0.02233,-0.01984 m 0,0 0.01985,-0.0248 m 0,0 0.01737,-0.02728 m 0,0 0.01241,-0.02728 m 0,0 0.0074,-0.03224 m 0,0 0.0025,-0.02976 m 0,0 V 49.500383 m 0.352328,-0.126466 -0.01241,-0.01488 m 0,0 -0.02481,-0.01984 m 0,0 -0.02481,-0.01488 m 0,0 -0.02977,-0.0124 m 0,0 -0.02977,-0.0074 m 0,0 -0.03226,-0.0025 m 0,0 -0.02977,0.0025 m 0,0 -0.03226,0.0074 m 0,0 -0.02729,0.0124 m 0,0 -0.02729,0.01488 m 0,0 -0.02481,0.01984 m 0,0 -0.01985,0.0248 m 0,0 -0.01737,0.02728 m 0,0 -0.0099,0.02728 m 0,0 -0.0074,0.03224 m 0,0 -0.0025,0.02976 m 0.352328,-0.126466 0.09428,0.109108 m 0,0 0.119097,0.123987 m 0,0 0.124059,0.119027 m 0,0 0.131503,0.111589 m 0,0 0.136465,0.106628 m 0,0 0.141428,0.09671 m 0,0 0.148871,0.09175 m 0,0 0.151352,0.08183 m 0,0 0.153833,0.07439 m 0,0 0.161277,0.06447 m 0,0 0.161277,0.05951 m 0,0 0.166239,0.04711 m 0,0 0.166239,0.04216 m 0,0 0.171201,0.02976 m 0,0 0.171202,0.02232 m 0,0 0.171202,0.01488 m 0,0 0.171201,0.005 m 0,0 0.173683,-0.005 m 0,0 0.171202,-0.01488 m 0,0 0.171201,-0.02232 m 0,0 0.168721,-0.02976 m 0,0 0.16872,-0.04216 m 0,0 0.166239,-0.04711 m 0,0 0.161277,-0.05951 m 0,0 0.109172,-0.04216 m 0,0 0.01489,-0.0074 m 0,0 0.09428,-0.04711 m 0,0 0.08684,-0.05703 m 0,0 0.08188,-0.06695 m 0,0 0.07195,-0.07439 m 0,0 0.06699,-0.07935 m 0,0 0.05707,-0.08927 m 0,0 0.04714,-0.09175 m 0,0 0.03722,-0.09919 m 0,0 0.02729,-0.09919 m 0,0 0.01737,-0.104149 m 0,0 0.005,-0.104149 m 0,0 v -0.927479 m 0,0 -0.0025,-0.03224 m 0,0 -0.0074,-0.02976 m 0,0 -0.01241,-0.02976 m 0,0 -0.01737,-0.02728 m 0,0 -0.01985,-0.02232 m 0,0 -0.02233,-0.02232 m 0,0 -0.01737,-0.0099 m 0,0 -0.325035,-0.18846 m 0,0 -0.0099,-0.005 m 0,0 -0.02977,-0.0124 m 0,0 -0.02978,-0.0074 m 0,0 -0.03225,-0.0025 m 0,0 -0.02977,0.0025 m 0,0 -0.02977,0.0074 m 0,0 -0.02977,0.0124 m 0,0 -0.02729,0.01736 m 0,0 -0.02233,0.01984 m 0,0 -0.02233,0.02232 m -2.451408,-0.04215 0.02977,0.04215 m 0,0 0.07444,0.09175 m 0,0 0.0794,0.08679 m 0,0 0.08436,0.08183 m 0,0 0.09429,0.07191 m 0,0 0.09677,0.06447 m 0,0 0.101728,0.05703 m 0,0 0.106691,0.0496 m 0,0 0.111653,0.04216 m 0,0 0.114135,0.03224 m 0,0 0.114134,0.02232 m 0,0 0.116616,0.01488 m 0,0 0.116615,0.0025 m 0,0 0.119097,-0.0025 m 0,0 0.116616,-0.01488 m 0,0 0.114134,-0.02232 m 0,0 0.114134,-0.03224 m 0,0 0.109173,-0.04216 m 0,0 0.10669,-0.0496 m 0,0 0.10421,-0.05703 m 0,0 0.09677,-0.06447 m 0,0 0.0918,-0.07191 m 0,0 0.08684,-0.08183 m 0,0 0.0794,-0.08679 m 0,0 0.07195,-0.09175 m -2.451408,-0.04215 -0.02481,-0.02976 m 0,0 -0.02233,-0.01984 m 0,0 -0.02729,-0.01736 m 0,0 -0.02977,-0.0124 m 0,0 -0.02978,-0.0074 m 0,0 -0.03225,-0.0025 m 0,0 h -0.18857 m -0.200976,-0.198379 0.0025,0.02976 m 0,0 0.0074,0.02976 m 0,0 0.01241,0.02976 m 0,0 0.01737,0.02728 m 0,0 0.01985,0.0248 m 0,0 0.02233,0.01984 m 0,0 0.02729,0.01488 m 0,0 0.02977,0.0124 m 0,0 0.02977,0.0074 m 0,0 0.03226,0.0025 m -0.200976,-0.198379 v -1.101003 m 0.200976,-0.198379 -0.03226,0.0025 m 0,0 -0.02977,0.0074 m 0,0 -0.02977,0.0099 m 0,0 -0.02729,0.01736 m 0,0 -0.02233,0.01984 m 0,0 -0.01985,0.0248 m 0,0 -0.01737,0.02728 m 0,0 -0.01241,0.02728 m 0,0 -0.0074,0.03224 m 0,0 -0.0025,0.02976 m 0.200976,-0.198379 h 0.18857 m 0,0 0.03225,-0.0025 m 0,0 0.02978,-0.0074 m 0,0 0.02977,-0.0124 m 0,0 0.02729,-0.01736 m 0,0 0.02233,-0.01984 m 0,0 0.02481,-0.02976 m 2.451408,-0.04463 -0.07195,-0.09175 m 0,0 -0.0794,-0.08679 m 0,0 -0.08684,-0.07935 m 0,0 -0.0918,-0.07191 m 0,0 -0.09677,-0.06447 m 0,0 -0.10421,-0.05951 m 0,0 -0.10669,-0.04959 m 0,0 -0.109173,-0.03968 m 0,0 -0.114134,-0.03224 m 0,0 -0.114134,-0.02232 m 0,0 -0.116616,-0.01488 m 0,0 -0.119097,-0.005 m 0,0 -0.116615,0.005 m 0,0 -0.116616,0.01488 m 0,0 -0.114134,0.02232 m 0,0 -0.114135,0.03224 m 0,0 -0.111653,0.03968 m 0,0 -0.106691,0.04959 m 0,0 -0.101728,0.05951 m 0,0 -0.09677,0.06447 m 0,0 -0.09429,0.07191 m 0,0 -0.08436,0.07935 m 0,0 -0.0794,0.08679 m 0,0 -0.07444,0.09423 m 0,0 -0.02977,0.04215 m 2.451408,-0.04463 0.02233,0.0248 m 0,0 0.02233,0.01984 m 0,0 0.02729,0.01736 m 0,0 0.02977,0.0124 m 0,0 0.02977,0.0074 m 0,0 0.02977,0.0025 m 0,0 0.03225,-0.0025 m 0,0 0.02978,-0.0074 m 0,0 0.02977,-0.0124 m 0,0 0.0099,-0.005 m 0,0 0.325035,-0.18846 m 0,0 0.01737,-0.0124 m 0,0 0.02233,-0.01984 m 0,0 0.01985,-0.02232 m 0,0 0.01737,-0.02728 m 0,0 0.01241,-0.02976 m 0,0 0.0074,-0.02976 m 0,0 0.0025,-0.03224 m 0,0 V 45.37658 m 0.498717,-0.498428 -0.06451,0.0025 m 0,0 -0.06451,0.01488 m 0,0 -0.06203,0.01984 m 0,0 -0.05955,0.02976 m 0,0 -0.05459,0.03472 m 0,0 -0.04714,0.04463 m 0,0 -0.04466,0.04959 m 0,0 -0.03474,0.05455 m 0,0 -0.02978,0.05703 m 0,0 -0.01985,0.06199 m 0,0 -0.01489,0.06447 m 0,0 -0.0025,0.06447 m 0.498663,-0.498428 h 11.788098 m 0.431726,0.748881 0.02729,-0.05951 m 0,0 0.02233,-0.06199 m 0,0 0.01241,-0.06199 m 0,0 0.005,-0.06695 m 0,0 -0.005,-0.06447 m 0,0 -0.01241,-0.06447 m 0,0 -0.02233,-0.06199 m 0,0 -0.02729,-0.05703 m 0,0 -0.03722,-0.05455 m 0,0 -0.04218,-0.04959 m 0,0 -0.04962,-0.04463 m 0,0 -0.05459,-0.03472 m 0,0 -0.05707,-0.02976 m 0,0 -0.06203,-0.01984 m 0,0 -0.06451,-0.01488 m 0,0 -0.06451,-0.0025 m 0.43173,0.748881 -0.08188,0.151264 m 0,0 -0.07444,0.156224 m 0,0 -0.06699,0.158703 m 0,0 -0.05707,0.163662 m 0,0 -0.04963,0.166143 m 0,0 -0.0397,0.166142 m 0,0 -0.03226,0.171102 m 0,0 -0.02233,0.171102 m 0,0 -0.01241,0.171102 m 0,0 -0.005,0.173581 m 0,0 0.005,0.173582 m 0,0 0.01241,0.171102 m 0,0 0.02233,0.171102 m 0,0 0.03226,0.168622 m 0,0 0.0397,0.168622 m 0,0 0.04963,0.166143 m 0,0 0.05707,0.161183 m 0,0 0.04466,0.109108 m 0,0 0.0074,0.01488 m 0,0 0.04714,0.09423 m 0,0 0.05707,0.08679 m 0,0 0.06451,0.08183 m 0,0 0.07444,0.07439 m 0,0 0.08188,0.06695 m 0,0 0.08684,0.05703 m 0,0 0.09181,0.04711 m 0,0 0.09925,0.0372 m 0,0 0.09925,0.02728 m 0,0 0.104208,0.01488 m 0,0 0.104209,0.0074 m 0,0 h 0.927963 m 0,0 0.02977,-0.0025 m 0,0 0.03226,-0.0074 m 0,0 0.02729,-0.0124 m 0,0 0.02729,-0.01736 m 0,0 0.02481,-0.01984 m 0,0 0.01985,-0.0248 m 0,0 0.0099,-0.01736 m 0,0 0.188571,-0.324845 m 0,0 0.01737,-0.0372 m 0,0 0.0074,-0.02976 m 0,0 0.0025,-0.03224 m 0,0 -0.0025,-0.03224 m 0,0 -0.0074,-0.02976 m 0,0 -0.01241,-0.02976 m 0,0 -0.01737,-0.0248 m 0,0 -0.01985,-0.0248 m 0,0 -0.02233,-0.01984 m 0.04218,-2.45494 -0.04218,0.02976 m 0,0 -0.09181,0.07191 m 0,0 -0.08684,0.07935 m 0,0 -0.0794,0.08679 m 0,0 -0.07444,0.09423 m 0,0 -0.06451,0.09671 m 0,0 -0.05707,0.10167 m 0,0 -0.04962,0.109108 m 0,0 -0.0397,0.109109 m 0,0 -0.03225,0.114068 m 0,0 -0.02233,0.114067 m 0,0 -0.01489,0.116548 m 0,0 -0.005,0.119027 m 0,0 0.005,0.116548 m 0,0 0.01489,0.116548 m 0,0 0.02233,0.116548 m 0,0 0.03225,0.114067 m 0,0 0.0397,0.109109 m 0,0 0.04962,0.106629 m 0,0 0.05707,0.104149 m 0,0 0.06451,0.09671 m 0,0 0.07444,0.09175 m 0,0 0.0794,0.08679 m 0,0 0.08684,0.08183 m 0,0 0.09181,0.07191 m 0.04218,-2.45494 0.02977,-0.0248 m 0,0 0.01985,-0.0248 m 0,0 0.01737,-0.02728 m 0,0 0.0124,-0.02728 m 0,0 0.0074,-0.03224 m 0,0 0.0025,-0.02976 m 0,0 v -0.19094 m 0.198495,-0.198379 -0.02977,0.0025 m 0,0 -0.03226,0.005 m 0,0 -0.02729,0.0124 m 0,0 -0.02729,0.01736 m 0,0 -0.02481,0.01984 m 0,0 -0.01985,0.0248 m 0,0 -0.01489,0.02728 m 0,0 -0.0124,0.02728 m 0,0 -0.0074,0.03224 m 0,0 -0.0025,0.02976 m 0.198494,-0.198379 h 1.099164 m 0.198496,0.198379 -0.0025,-0.02976 m 0,0 -0.0074,-0.03224 m 0,0 -0.0099,-0.02728 m 0,0 -0.01737,-0.02728 m 0,0 -0.01985,-0.0248 m 0,0 -0.02481,-0.01984 m 0,0 -0.02729,-0.01736 m 0,0 -0.02729,-0.0124 m 0,0 -0.03226,-0.005 m 0,0 -0.02977,-0.0025 m 0.198496,0.198379 v 0.19094 m 0,0 0.0025,0.02976 m 0,0 0.0074,0.03224 m 0,0 0.01241,0.02728 m 0,0 0.01737,0.02728 m 0,0 0.01985,0.0248 m 0,0 0.02977,0.0248 m 0.04466,2.45494 0.08932,-0.07191 m 0,0 0.08684,-0.08183 m 0,0 0.0794,-0.08679 m 0,0 0.07444,-0.09175 m 0,0 0.06451,-0.09671 m 0,0 0.05707,-0.104149 m 0,0 0.04962,-0.106629 m 0,0 0.0397,-0.109109 m 0,0 0.03226,-0.114067 m 0,0 0.02481,-0.116548 m 0,0 0.01241,-0.116548 m 0,0 0.005,-0.116548 m 0,0 -0.005,-0.119027 m 0,0 -0.01241,-0.116548 m 0,0 -0.02481,-0.114067 m 0,0 -0.03226,-0.114068 m 0,0 -0.0397,-0.109109 m 0,0 -0.04962,-0.109108 m 0,0 -0.05707,-0.10167 m 0,0 -0.06451,-0.09671 m 0,0 -0.07444,-0.09423 m 0,0 -0.0794,-0.08679 m 0,0 -0.08684,-0.07935 m 0,0 -0.09181,-0.07191 m 0,0 -0.04218,-0.02976 m 0.04466,2.45494 -0.02481,0.01984 m 0,0 -0.01985,0.0248 m 0,0 -0.01737,0.0248 m 0,0 -0.01241,0.02976 m 0,0 -0.0074,0.02976 m 0,0 -0.0025,0.03224 m 0,0 0.0025,0.03224 m 0,0 0.0074,0.02976 m 0,0 0.01737,0.0372 m 0,0 0.188571,0.324845 m 0,0 0.0099,0.01736 m 0,0 0.01985,0.0248 m 0,0 0.02481,0.01984 m 0,0 0.02729,0.01736 m 0,0 0.02978,0.0124 m 0,0 0.02977,0.0074 m 0,0 0.02977,0.0025 m 0,0 h 0.927962 m 0,0 0.104209,-0.0074 m 0,0 0.104211,-0.01488 m 0,0 0.09925,-0.02728 m 0,0 0.09925,-0.0372 m 0,0 0.09181,-0.04711 m 0,0 0.08932,-0.05703 m 0,0 0.0794,-0.06695 m 0,0 0.07444,-0.07439 m 0,0 0.06699,-0.08183 m 0,0 0.05459,-0.08679 m 0,0 0.04962,-0.09423 m 0,0 0.005,-0.01488 m 0,0 0.04466,-0.109108 m 0,0 0.05707,-0.161183 m 0,0 0.04962,-0.166143 m 0,0 0.0397,-0.168622 m 0,0 0.03226,-0.168622 m 0,0 0.02233,-0.171102 m 0,0 0.01241,-0.171102 m 0,0 0.005,-0.173582 m 0,0 -0.005,-0.173581 m 0,0 -0.01241,-0.171102 m 0,0 -0.02233,-0.171102 m 0,0 -0.03226,-0.171102 m 0,0 -0.0397,-0.166142 m 0,0 -0.04962,-0.166143 m 0,0 -0.05707,-0.163662 m 0,0 -0.06699,-0.158703 m 0,0 -0.07444,-0.156224 m 0,0 -0.08185,-0.151264 m 0.431725,-0.748881 -0.06451,0.0025 m 0,0 -0.06451,0.01488 m 0,0 -0.06203,0.01984 m 0,0 -0.05707,0.02976 m 0,0 -0.05459,0.03472 m 0,0 -0.04962,0.04463 m 0,0 -0.04218,0.04959 m 0,0 -0.03722,0.05455 m 0,0 -0.02729,0.05703 m 0,0 -0.02233,0.06199 m 0,0 -0.01241,0.06447 m 0,0 -0.005,0.06447 m 0,0 0.005,0.06695 m 0,0 0.01241,0.06199 m 0,0 0.02233,0.06199 m 0,0 0.02729,0.05951 m 0.431725,-0.74888 h 8.294593 m 0.498718,0.498427 -0.0025,-0.06447 m 0,0 -0.01488,-0.06447 m 0,0 -0.01985,-0.06199 m 0,0 -0.02977,-0.05703 m 0,0 -0.03474,-0.05455 m 0,0 -0.04466,-0.04959 m 0,0 -0.04714,-0.04463 m 0,0 -0.05459,-0.03472 m 0,0 -0.05955,-0.02976 m 0,0 -0.06203,-0.01984 m 0,0 -0.06451,-0.01488 m 0,0 -0.06451,-0.0025 m 0.498718,0.498427 v 0.711685 m 0,0 0.0025,0.03224 m 0,0 0.0074,0.02976 m 0,0 0.01241,0.02976 m 0,0 0.01737,0.02728 m 0,0 0.01985,0.02232 m 0,0 0.02481,0.01984 m 0,0 0.01737,0.0124 m 0,0 0.322553,0.18846 m 0,0 0.0099,0.005 m 0,0 0.02977,0.0124 m 0,0 0.02977,0.0074 m 0,0 0.03225,0.0025 m 0,0 0.02977,-0.0025 m 0,0 0.02978,-0.0074 m 0,0 0.02977,-0.0124 m 0,0 0.02729,-0.01736 m 0,0 0.02481,-0.01984 m 0,0 0.01985,-0.0248 m 2.45141,0.04463 -0.02978,-0.04215 m 0,0 -0.07195,-0.09423 m 0,0 -0.08188,-0.08679 m 0,0 -0.08436,-0.07935 m 0,0 -0.09429,-0.07191 m 0,0 -0.09677,-0.06447 m 0,0 -0.101727,-0.05951 m 0,0 -0.10669,-0.04959 m 0,0 -0.111654,-0.03968 m 0,0 -0.111655,-0.03224 m 0,0 -0.116615,-0.02232 m 0,0 -0.116615,-0.01488 m 0,0 -0.116615,-0.005 m 0,0 -0.119097,0.005 m 0,0 -0.116615,0.01488 m 0,0 -0.114136,0.02232 m 0,0 -0.114133,0.03224 m 0,0 -0.109173,0.03968 m 0,0 -0.10669,0.04959 m 0,0 -0.104209,0.05951 m 0,0 -0.09677,0.06447 m 0,0 -0.09181,0.07191 m 0,0 -0.08684,0.07935 m 0,0 -0.0794,0.08679 m 0,0 -0.07196,0.09175 m 2.45141,0.04463 0.02481,0.02976 m 0,0 0.02481,0.01984 m 0,0 0.02481,0.01736 m 0,0 0.02977,0.0124 m 0,0 0.02977,0.0074 m 0,0 0.03225,0.0025 m 0,0 h 0.188572 m 0.200974,0.198379 -0.0025,-0.02976 m 0,0 -0.0074,-0.03224 m 0,0 -0.01241,-0.02728 m 0,0 -0.01737,-0.02728 m 0,0 -0.01985,-0.0248 m 0,0 -0.02233,-0.01984 m 0,0 -0.02729,-0.01736 m 0,0 -0.02977,-0.0099 m 0,0 -0.02977,-0.0074 m 0,0 -0.03225,-0.0025 m 0.200974,0.198379 v 1.101003 m -0.200974,0.198379 0.03225,-0.0025 m 0,0 0.02977,-0.0074 m 0,0 0.02977,-0.0124 m 0,0 0.02729,-0.01488 m 0,0 0.02233,-0.01984 m 0,0 0.01985,-0.0248 m 0,0 0.01737,-0.02728 m 0,0 0.01241,-0.02976 m 0,0 0.0074,-0.02976 m 0,0 0.0025,-0.02976 m -0.200974,0.198379 h -0.188572 m 0,0 -0.03225,0.0025 m 0,0 -0.02977,0.0074 m 0,0 -0.02977,0.0124 m 0,0 -0.02481,0.01736 m 0,0 -0.02481,0.01984 m 0,0 -0.02481,0.02976 m -2.45141,0.04215 0.07196,0.09175 m 0,0 0.0794,0.08679 m 0,0 0.08684,0.08183 m 0,0 0.09181,0.07191 m 0,0 0.09677,0.06447 m 0,0 0.104209,0.05703 m 0,0 0.10669,0.0496 m 0,0 0.109173,0.04216 m 0,0 0.114133,0.03224 m 0,0 0.114136,0.02232 m 0,0 0.116615,0.01488 m 0,0 0.119097,0.0025 m 0,0 0.116615,-0.0025 m 0,0 0.116615,-0.01488 m 0,0 0.116615,-0.02232 m 0,0 0.111655,-0.03224 m 0,0 0.111654,-0.04216 m 0,0 0.10669,-0.0496 m 0,0 0.101727,-0.05703 m 0,0 0.09677,-0.06447 m 0,0 0.09429,-0.07191 m 0,0 0.08436,-0.08183 m 0,0 0.08188,-0.08679 m 0,0 0.07195,-0.09175 m 0,0 0.02978,-0.04215 m -2.45141,0.04215 -0.01985,-0.02232 m 0,0 -0.02481,-0.01984 m 0,0 -0.02729,-0.01736 m 0,0 -0.02977,-0.0124 m 0,0 -0.02978,-0.0074 m 0,0 -0.02977,-0.0025 m 0,0 -0.03225,0.0025 m 0,0 -0.02977,0.0074 m 0,0 -0.02977,0.0124 m 0,0 -0.0099,0.005 m 0,0 -0.322553,0.18846 m 0,0 -0.01737,0.0099 m 0,0 -0.02481,0.02232 m 0,0 -0.01985,0.02232 m 0,0 -0.01737,0.02728 m 0,0 -0.01241,0.02976 m 0,0 -0.0074,0.02976 m 0,0 -0.0025,0.03224 m 0,0 v 0.927422 m 0,0 0.0074,0.104149 m 0,0 0.01489,0.104149 m 0,0 0.02729,0.09919 m 0,0 0.03722,0.09919 m 0,0 0.04714,0.09175 m 0,0 0.05707,0.08927 m 0,0 0.06699,0.07935 m 0,0 0.07195,0.07439 m 0,0 0.08188,0.06695 m 0,0 0.08684,0.05703 m 0,0 0.09428,0.04711 m 0,0 0.01489,0.0074 m 0,0 0.10917,0.04216 m 0,0 0.161276,0.05951 m 0,0 0.166241,0.04711 m 0,0 0.168719,0.04216 m 0,0 0.168722,0.02976 m 0,0 0.171202,0.02232 m 0,0 0.171201,0.01488 m 0,0 0.173683,0.005 m 0,0 0.171201,-0.005 m 0,0 0.171202,-0.01488 m 0,0 0.171201,-0.02232 m 0,0 0.171201,-0.02976 m 0,0 0.166241,-0.04216 m 0,0 0.166237,-0.04711 m 0,0 0.161277,-0.05951 m 0,0 0.161277,-0.06447 m 0,0 0.153834,-0.07439 m 0,0 0.151352,-0.08183 m 0,0 0.141428,-0.08679 m 0.310147,0.166142 -0.0025,-0.02976 m 0,0 -0.0074,-0.02976 m 0,0 -0.01241,-0.02976 m 0,0 -0.01737,-0.02728 m 0,0 -0.01985,-0.0248 m 0,0 -0.02481,-0.01984 m 0,0 -0.02481,-0.01488 m 0,0 -0.02977,-0.0124 m 0,0 -0.02977,-0.0074 m 0,0 -0.03226,-0.0025 m 0,0 -0.03225,0.0025 m 0,0 -0.02977,0.0074 m 0,0 -0.02729,0.0124 m 0,0 -0.01985,0.0099 m 0.310147,0.166142 v 1.497762 m -0.06699,0.250453 0.02729,-0.05951 m 0,0 0.02233,-0.06199 m 0,0 0.01241,-0.06447 m 0,0 0.005,-0.06447 m -0.06699,0.250453 -3.694481,6.402683 m 0,0 -0.04714,0.09175 m 0,0 -0.03722,0.09919 m 0,0 -0.02729,0.09919 m 0,0 -0.01489,0.104149 m 0,0 -0.005,0.104149 m 0,0 v 3.803918 m 0,0 0.0025,0.06447 m 0,0 0.01241,0.06447 m 0,0 0.02233,0.06199 m 0,0 0.02977,0.05951 m 0,0 0.03474,0.05207 m 0,0 0.04218,0.0496 m 0,0 0.04962,0.04463 m 0,0 0.05459,0.03472 m 0,0 0.05955,0.02976 m 0,0 0.06203,0.01984 m 0,0 0.06203,0.01488 m 0,0 0.06699,0.0025 m 0,0 h 0.09925 m 0,0 0.09428,-0.005 m 0,0 0.09181,-0.01488 m 0,0 0.0918,-0.02232 m 0,0 0.08684,-0.03472 m 0,0 0.08436,-0.04216 m 0,0 0.0794,-0.05207 m 0,0 0.07195,-0.05951 m 0,0 0.06699,-0.06695 m 0,0 0.05955,-0.07191 m 0,0 0.0521,-0.07935 m 0,0 0.04218,-0.08431 m 0,0 0.03226,-0.08679 m 0,0 0.02481,-0.09175 m 0,0 0.01489,-0.09423 m 0,0 0.005,-0.09175 m 0,0 v -3.136868 m 0.06699,-0.250454 -0.02977,0.05951 m 0,0 -0.01985,0.06199 m 0,0 -0.01241,0.06447 m 0,0 -0.005,0.06447 m 0.06699,-0.250454 3.791249,-6.573784 m 0,0 0.04714,-0.09423 m 0,0 0.0397,-0.09671 m 0,0 0.02481,-0.101669 m 0,0 0.01737,-0.104148 m 0,0 0.005,-0.104149 m 0,0 v -0.731523 m 0.498718,-0.498427 -0.06451,0.0025 m 0,0 -0.06451,0.01488 m 0,0 -0.06203,0.01984 m 0,0 -0.05707,0.02976 m 0,0 -0.05459,0.03472 m 0,0 -0.04962,0.04463 m 0,0 -0.04218,0.0496 m 0,0 -0.03722,0.05207 m 0,0 -0.02729,0.05951 m 0,0 -0.02233,0.06199 m 0,0 -0.01241,0.06447 m 0,0 -0.005,0.06447 m 0.498718,-0.498427 h 2.496069 m 0.498718,0.498427 -0.0025,-0.06447 m 0,0 -0.01489,-0.06447 m 0,0 -0.01985,-0.06199 m 0,0 -0.02977,-0.05951 m 0,0 -0.03474,-0.05207 m 0,0 -0.04466,-0.0496 m 0,0 -0.04714,-0.04463 m 0,0 -0.05459,-0.03472 m 0,0 -0.05955,-0.02976 m 0,0 -0.06203,-0.01984 m 0,0 -0.06451,-0.01488 m 0,0 -0.06451,-0.0025 m 0.498718,0.498427 v 3.097192 m -0.498718,0.500907 0.06451,-0.005 m 0,0 0.06451,-0.0124 m 0,0 0.06203,-0.01984 m 0,0 0.05955,-0.02976 m 0,0 0.05459,-0.0372 m 0,0 0.04714,-0.04216 m 0,0 0.04466,-0.0496 m 0,0 0.03474,-0.05455 m 0,0 0.02977,-0.05703 m 0,0 0.01985,-0.06199 m 0,0 0.01489,-0.06447 m 0,0 0.0025,-0.06695 m -0.498718,0.500907 h -0.798942 m 0,0 -0.02977,0.0025 m 0,0 -0.03225,0.0074 m 0,0 -0.02729,0.0124 m 0,0 -0.0273,0.01488 m 0,0 -0.02481,0.02232 m 0,0 -0.01985,0.02232 m 0,0 -0.01489,0.02728 m 0,0 -0.01241,0.02976 m 0,0 -0.0074,0.02976 m 0,0 -0.0025,0.03224 m 0,0 0.0025,0.02976 m 0,0 0.0074,0.02976 m 0,0 0.01241,0.02976 m 0,0 0.322554,0.637293 m 0,0 0.01241,0.02232 m 0,0 0.03722,0.05455 m 0,0 0.04218,0.0496 m 0,0 0.04962,0.04215 m 0,0 0.05459,0.0372 m 0,0 0.05707,0.02728 m 0,0 0.06203,0.02232 m 0,0 0.06451,0.0124 m 0,0 0.06451,0.005 m 0,0 h 0.908114 m 0,0 0.12406,-0.0074 m 0,0 0.124058,-0.01984 m 0,0 0.121579,-0.03224 m 0,0 0.116615,-0.04464 m 0,0 0.111654,-0.05703 m 0,0 0.104209,-0.06943 m 0,0 0.09925,-0.07935 m 0,0 0.08684,-0.08679 m 0,0 0.0794,-0.09919 m 0,0 0.06947,-0.104149 m 0,0 0.05707,-0.111589 m 0,0 0.04466,-0.119027 m 0,0 0.03225,-0.121507 m 0,0 0.01985,-0.123987 m 0,0 0.005,-0.123987 m 0,0 v -4.396575 m 0,0 -0.005,-0.126466 m 0,0 -0.01985,-0.123987 m 0,0 -0.03225,-0.121507 m 0,0 -0.04466,-0.116548 m 0,0 -0.05707,-0.111588 m 0,0 -0.06947,-0.104149 m 0,0 -0.0794,-0.09919 m 0,0 -0.08684,-0.08927 m 0,0 -0.09925,-0.07687 m 0,0 -0.104209,-0.06943 m 0,0 -0.111654,-0.05703 m 0,0 -0.116615,-0.04464 m 0,0 -0.121579,-0.03224 m 0,0 -0.124058,-0.01984 m 0,0 -0.12406,-0.0074 m 0,0 h -3.69448 m 0,0 v -0.885266 m 0,0 0.04466,-0.04463 m 0,0 0.06451,-0.08183 m 0,0 0.05707,-0.08679 m 0,0 0.04714,-0.09423 m 0,0 0.03722,-0.09671 m 0,0 0.02729,-0.10167 m 0,0 0.01737,-0.101669 m 0,0 0.005,-0.104149 m 0,0 -0.005,-0.106629 m 0,0 -0.01737,-0.101669 m 0,0 -0.02729,-0.101669 m 0,0 -0.03722,-0.09671 m 0,0 -0.04714,-0.09423 m 0,0 -0.05707,-0.08679 m 0,0 -0.06451,-0.08183 m 0,0 -0.04466,-0.04463 m 0,0 v -0.88534 m 0.997436,-0.999335 -0.104211,0.005 m 0,0 -0.101727,0.01736 m 0,0 -0.10173,0.0248 m 0,0 -0.09677,0.03968 m 0,0 -0.09428,0.04712 m 0,0 -0.08684,0.05703 m 0,0 -0.08188,0.06447 m 0,0 -0.07195,0.07439 m 0,0 -0.06699,0.08183 m 0,0 -0.05707,0.08679 m 0,0 -0.04714,0.09423 m 0,0 -0.03722,0.09671 m 0,0 -0.0273,0.10167 m 0,0 -0.01737,0.104149 m 0,0 -0.005,0.104149 m 0.997436,-0.999335 h 9.882548 m 0.999916,0.999335 -0.0074,-0.104149 m 0,0 -0.01489,-0.104149 m 0,0 -0.02729,-0.10167 m 0,0 -0.03722,-0.09671 m 0,0 -0.04714,-0.09423 m 0,0 -0.05707,-0.08679 m 0,0 -0.06699,-0.08183 m 0,0 -0.07444,-0.07439 m 0,0 -0.0794,-0.06447 m 0,0 -0.08932,-0.05703 m 0,0 -0.09181,-0.04712 m 0,0 -0.09677,-0.03968 m 0,0 -0.101727,-0.0248 m 0,0 -0.104209,-0.01736 m 0,0 -0.104211,-0.005 m 0.999916,0.999335 v 0.210777 m 0,0 0.0025,0.03224 m 0,0 0.005,0.02976 m 0,0 0.01241,0.02976 m 0,0 0.01737,0.02728 m 0,0 0.01985,0.02232 m 0,0 0.02481,0.01984 m 0,0 0.01737,0.0124"
       id="path1" />
  </g>
</svg>
