<?xml version="1.0" encoding="UTF-8" standalone="no"?>
<!-- Created with Inkscape (http://www.inkscape.org/) -->

<svg
   width="500.00034mm"
   height="173.2386mm"
   viewBox="0 0 500.00034 173.2386"
   version="1.1"
   id="svg1"
   xmlns="http://www.w3.org/2000/svg"
   xmlns:svg="http://www.w3.org/2000/svg">
  <defs
     id="defs1" />
  <g
     id="layer1"
     transform="translate(-1079.8922,-27.384741)">
    <path
       style="fill:none;stroke:#000000;stroke-width:4.05643px;stroke-linecap:round;stroke-linejoin:round;stroke-miterlimit:4;stroke-dasharray:none;stroke-opacity:1"
       d="m 1091.8455,29.412956 h 456.4706 m 3.6192,2.528744 -0.1079,-0.244128 m 0,0 -0.1773,-0.366231 m 0,0 -0.2236,-0.331389 m 0,0 -0.2467,-0.31389 m 0,0 -0.3006,-0.296469 m 0,0 -0.316,-0.244128 m 0,0 -0.3315,-0.226707 m 0,0 -0.37,-0.174367 m 0,0 -0.37,-0.139524 m 0,0 -0.4009,-0.104604 m 0,0 -0.3854,-0.06938 m 0,0 -0.4008,-0.01773 m 3.6191,2.528744 25.8428,70.770043 m -1.4515,2.05788 0.2466,-0.0177 m 0,0 0.2236,-0.0524 m 0,0 0.2312,-0.0872 m 0,0 0.2082,-0.1221 m 0,0 0.1773,-0.15695 m 0,0 0.1541,-0.19186 m 0,0 0.1234,-0.20929 m 0,0 0.1079,-0.22671 m 0,0 0.077,-0.2267 m 0,0 v -0.24413 m 0,0 v -0.24413 m 0,0 -0.077,-0.27905 m -1.4515,2.05788 h -12.3444 m 0,0 -0.2467,0.0347 m 0,0 -0.2313,0.0524 m 0,0 -0.2235,0.0872 m 0,0 -0.2081,0.1221 m 0,0 -0.1927,0.15695 m 0,0 -0.1542,0.19186 m 0,0 -0.1233,0.20929 m 0,0 -0.085,0.20928 m 0,0 -0.077,0.24413 m 0,0 v 0.24413 m 0,0 v 6.13875 m -1.5556,1.55213 0.2467,-0.0177 m 0,0 0.2466,-0.0694 m 0,0 0.2082,-0.0872 m 0,0 0.2081,-0.1221 m 0,0 0.1927,-0.15694 m 0,0 0.1542,-0.19187 m 0,0 0.1233,-0.20929 m 0,0 0.085,-0.20928 m 0,0 0.077,-0.24413 m 0,0 v -0.24413 m -1.5556,1.55213 h -16.1909 m -1.5386,-1.55213 v 0.24413 m 0,0 0.077,0.24413 m 0,0 0.085,0.20928 m 0,0 0.1234,0.20929 m 0,0 0.1541,0.19187 m 0,0 0.1928,0.15694 m 0,0 0.2081,0.1221 m 0,0 0.2312,0.0872 m 0,0 0.2313,0.0694 m 0,0 0.2467,0.0177 m -1.5386,-1.55213 v -3.83671 m 3.8465,-3.85416 -0.4008,0.0347 m 0,0 -0.4009,0.0524 m 0,0 -0.3854,0.10461 m 0,0 -0.3854,0.13952 m 0,0 -0.3469,0.19187 m 0,0 -0.3315,0.2267 m 0,0 -0.316,0.24413 m 0,0 -0.3007,0.27905 m 0,0 -0.2466,0.31389 m 0,0 -0.2236,0.34881 m 0,0 -0.1773,0.34881 m 0,0 -0.1541,0.38365 m 0,0 -0.108,0.38365 m 0,0 -0.077,0.40115 m 0,0 v 0.40116 m 3.8466,-3.85416 h 2.3079 m 0,0 0.4009,-0.0177 m 0,0 0.4008,-0.0524 m 0,0 0.4008,-0.10461 m 0,0 0.3701,-0.15694 m 0,0 0.37,-0.17437 m 0,0 0.3314,-0.2267 m 0,0 0.3161,-0.24413 m 0,0 0.2775,-0.29647 m 0,0 0.2621,-0.29647 m 0,0 0.2081,-0.34881 m 0,0 0.1927,-0.34881 m 0,0 0.1388,-0.38365 m 0,0 0.1079,-0.38366 m 0,0 0.077,-0.40115 m 0,0 v -0.40115 m 0,0 v -1.534686 m 3.8635,-3.85416 -0.4009,0.01773 m 0,0 -0.4008,0.06938 m 0,0 -0.4009,0.104605 m 0,0 -0.37,0.139524 m 0,0 -0.37,0.191864 m 0,0 -0.3314,0.209286 m 0,0 -0.3161,0.261627 m 0,0 -0.2775,0.279048 m 0,0 -0.2621,0.31389 m 0,0 -0.2081,0.331311 m 0,0 -0.1927,0.366231 m 0,0 -0.1388,0.383653 m 0,0 -0.1079,0.383652 m 0,0 -0.077,0.40115 m 0,0 v 0.401151 m 3.8635,-3.85416 h 2.5007 m 0,0 0.3468,-0.01773 m 0,0 0.3701,-0.08718 m 0,0 0.3314,-0.139524 m 0,0 0.3161,-0.191865 m 0,0 0.2621,-0.244128 m 0,0 0.2466,-0.261627 m 0,0 0.1927,-0.31389 m 0,0 0.1388,-0.331312 m 0,0 0.085,-0.348809 m 0,0 V 93.24112 m 0,0 v -0.366231 m 0,0 -0.085,-0.34881 m 0,0 v -0.07015 m 0,0 -3.6369,-9.95803 m 0,0 -0.085,-0.244129 m 0,0 -0.1927,-0.366231 m 0,0 -0.2235,-0.331311 m 0,0 -0.2467,-0.31389 m 0,0 -0.2775,-0.279048 m 0,0 -0.3161,-0.261627 m 0,0 -0.3468,-0.226707 m 0,0 -0.3469,-0.174366 m 0,0 -0.3854,-0.139524 m 0,0 -0.3855,-0.104605 m 0,0 -0.4008,-0.07015 m 0,0 -0.4009,-0.01773 m 0,0 -0.4008,0.01773 m 0,0 -0.4008,0.07015 m 0,0 -0.3855,0.104605 m 0,0 -0.3854,0.139524 m 0,0 -0.3469,0.174366 m 0,0 -0.3469,0.226707 m 0,0 -0.1233,0.104605 m -15.8587,5.510925 1.3467,-0.03469 m 0,0 1.3289,-0.104604 m 0,0 1.3112,-0.174366 m 0,0 1.3113,-0.244129 m 0,0 1.2934,-0.31389 m 0,0 1.2766,-0.366231 m 0,0 1.2588,-0.453414 m 0,0 1.2418,-0.505755 m 0,0 1.1887,-0.575517 m 0,0 1.1717,-0.627858 m 0,0 1.1362,-0.697619 m 0,0 1.1015,-0.749884 m 0,0 0.8919,-0.6627 m -15.8587,5.510926 h -23.901 m -3.8643,-3.836723 v 0.40115 m 0,0 0.077,0.383652 m 0,0 0.1079,0.401151 m 0,0 0.1388,0.366231 m 0,0 0.1927,0.366231 m 0,0 0.2081,0.331389 m 0,0 0.2621,0.31389 m 0,0 0.2775,0.279048 m 0,0 0.3161,0.261626 m 0,0 0.3314,0.226707 m 0,0 0.3701,0.174367 m 0,0 0.3854,0.139524 m 0,0 0.3854,0.104604 m 0,0 0.4008,0.06938 m 0,0 0.4009,0.01773 m -3.8643,-3.836723 v -1.552122 m 3.8643,-3.836723 -0.4009,0.01773 m 0,0 -0.4008,0.06938 m 0,0 -0.3854,0.104681 m 0,0 -0.3854,0.139524 m 0,0 -0.3701,0.174367 m 0,0 -0.3314,0.226707 m 0,0 -0.3161,0.261549 m 0,0 -0.2775,0.279048 m 0,0 -0.2621,0.31389 m 0,0 -0.2081,0.331389 m 0,0 -0.1927,0.366231 m 0,0 -0.1388,0.366231 m 0,0 -0.1079,0.401074 m 0,0 -0.077,0.383652 m 0,0 v 0.40115 m 3.8643,-3.836723 h 5.4021 m 0,0 0.4009,-0.01773 m 0,0 0.3854,-0.06938 m 0,0 0.4008,-0.104604 m 0,0 0.37,-0.139524 m 0,0 0.3701,-0.191865 m 0,0 0.3314,-0.209286 m 0,0 0.3161,-0.261626 m 0,0 0.2775,-0.279048 m 0,0 0.2621,-0.31389 m 0,0 0.2312,-0.331389 m 0,0 0.1773,-0.366231 m 0,0 0.1388,-0.366231 m 0,0 0.1079,-0.401151 m 0,0 0.077,-0.40115 m 0,0 v -0.401151 m 0,0 v -2.528744 m 1.1547,-2.00556 -0.1927,0.139524 m 0,0 -0.2775,0.226707 m 0,0 -0.2467,0.279048 m 0,0 -0.1773,0.313891 m 0,0 -0.1387,0.331311 m 0,0 -0.085,0.34881 m 0,0 V 70.7086 m 1.1547,-2.00556 2.2201,-1.27309 m 2.0111,0.418571 -0.1387,-0.174366 m 0,0 -0.1928,-0.156945 m 0,0 -0.1927,-0.122103 m 0,0 -0.2235,-0.08718 m 0,0 -0.2467,-0.06938 m 0,0 -0.2312,-0.01773 m 0,0 -0.2467,0.01773 m 0,0 -0.2467,0.06938 m 0,0 -0.2235,0.08718 m 0,0 -0.077,0.03469 m 2.0111,0.418572 0.4702,0.575517 m 0,0 0.609,0.680121 m 0,0 0.6784,0.61036 m 0,0 0.7014,0.558095 m 0,0 0.7709,0.505755 m 0,0 0.787,0.435993 m 0,0 0.8218,0.383653 m 0,0 0.8564,0.31389 m 0,0 0.8741,0.244128 m 0,0 0.8919,0.174367 m 0,0 0.9088,0.104604 m 0,0 0.8919,0.03469 m 0,0 0.9096,-0.03469 m 0,0 0.9088,-0.104604 m 0,0 0.8919,-0.174367 m 0,0 0.8741,-0.244128 m 0,0 0.8565,-0.31389 m 0,0 0.8225,-0.383653 m 0,0 0.7862,-0.435993 m 0,0 0.7555,-0.505755 m 0,0 0.7169,-0.558095 m 0,0 0.6629,-0.61036 m 0,0 0.6321,-0.680121 m 0,0 0.5627,-0.69762 m 0,0 0.2235,-0.331311 m 1.2766,-0.680121 -0.2236,0.01773 m 0,0 -0.2466,0.05242 m 0,0 -0.2313,0.08718 m 0,0 -0.1927,0.122103 m 0,0 -0.1927,0.156945 m 0,0 -0.1927,0.244128 m 1.2765,-0.680121 h 3.0248 m 0,0 0.2236,-0.01773 m 0,0 0.2466,-0.06938 m 0,0 0.2313,-0.08718 m 0,0 0.2081,-0.122103 m 0,0 0.1773,-0.156945 m 0,0 0.1542,-0.191865 m 0,0 0.1233,-0.209286 m 0,0 0.1079,-0.209286 m 0,0 0.077,-0.244128 m 0,0 v -0.244128 m 0,0 v -8.458226 m 0,0 v -0.226707 m 0,0 -0.077,-0.244128 m 0,0 -0.1079,-0.226707 m 0,0 -0.1233,-0.209286 m 0,0 -0.1542,-0.174366 m 0,0 -0.1773,-0.156946 m 0,0 -0.2081,-0.122102 m 0,0 -0.2313,-0.104605 m 0,0 -0.2466,-0.05242 m 0,0 -0.2236,-0.01773 m 0,0 h -3.0248 m -1.2765,-0.680121 0.1927,0.226707 m 0,0 0.1927,0.156945 m 0,0 0.1927,0.139524 m 0,0 0.2313,0.08718 m 0,0 0.2466,0.05242 m 0,0 0.2236,0.01773 m -1.2766,-0.680121 -0.2235,-0.331311 m 0,0 -0.5627,-0.715041 m 0,0 -0.6321,-0.6627 m 0,0 -0.6629,-0.61036 m 0,0 -0.7169,-0.558095 m 0,0 -0.7555,-0.505755 m 0,0 -0.7862,-0.435993 m 0,0 -0.8225,-0.383653 m 0,0 -0.8565,-0.31389 m 0,0 -0.8741,-0.244128 m 0,0 -0.8919,-0.174367 m 0,0 -0.9088,-0.122102 m 0,0 -0.9096,-0.03469 m 0,0 -0.8919,0.03469 m 0,0 -0.9088,0.122102 m 0,0 -0.8919,0.174367 m 0,0 -0.8741,0.244128 m 0,0 -0.8564,0.31389 m 0,0 -0.8218,0.383653 m 0,0 -0.787,0.435993 m 0,0 -0.7709,0.505755 m 0,0 -0.7014,0.558095 m 0,0 -0.6784,0.61036 m 0,0 -0.609,0.6627 m 0,0 -0.4702,0.592938 m -2.0111,0.418572 0.077,0.03469 m 0,0 0.2235,0.08718 m 0,0 0.2467,0.05242 m 0,0 0.2467,0.01773 m 0,0 0.2312,-0.01773 m 0,0 0.2467,-0.05242 m 0,0 0.2235,-0.08718 m 0,0 0.1927,-0.122103 m 0,0 0.1928,-0.156945 m 0,0 0.1387,-0.174366 m -2.0111,0.418571 -2.2201,-1.290526 m -1.1547,-1.988124 v 0.34881 m 0,0 0.085,0.366231 m 0,0 0.1387,0.331389 m 0,0 0.1773,0.31389 m 0,0 0.2467,0.261626 m 0,0 0.2775,0.244129 m 0,0 0.1927,0.122102 m -1.1547,-1.988123 v -1.010523 m 0,0 v -0.802216 m 0,0 -0.1234,-0.784788 m 0,0 -0.2081,-0.78478 m 0,0 -0.3006,-0.749883 m 0,0 -0.37,-0.715041 m 0,0 -0.4394,-0.680121 m 0,0 -0.5088,-0.627858 m 0,0 -0.5781,-0.558095 m 0,0 -0.6321,-0.505755 m 0,0 -0.6629,-0.435993 m 0,0 -0.7324,-0.366231 m 0,0 -0.7554,-0.296469 m 0,0 -0.7708,-0.209286 m 0,0 -0.804,-0.122103 m 0,0 -0.804,-0.05242 m 0,0 h -76.3728 m 0,0 -0.8048,0.05242 m 0,0 -0.804,0.122103 m 0,0 -0.7708,0.209286 m 0,0 -0.7709,0.296469 m 0,0 -0.7169,0.366231 m 0,0 -0.6629,0.435993 m 0,0 -0.6321,0.505755 m 0,0 -0.5781,0.558095 m 0,0 -0.5088,0.627858 m 0,0 -0.4394,0.680121 m 0,0 -0.37,0.715041 m 0,0 -0.3006,0.749883 m 0,0 -0.2081,0.78478 m 0,0 -0.1234,0.784788 m 0,0 v 0.802216 m 0,0 v 20.77061 m 0,0 v 0.401151 m 0,0 0.077,0.40115 m 0,0 0.1079,0.383653 m 0,0 0.1542,0.383652 m 0,0 0.1773,0.34881 m 0,0 0.2235,0.34881 m 0,0 0.2467,0.31389 m 0,0 0.3006,0.279048 m 0,0 0.3161,0.244128 m 0,0 0.3315,0.226707 m 0,0 0.37,0.191865 m 0,0 0.37,0.139524 m 0,0 0.3854,0.104604 m 0,0 0.4008,0.05242 m 0,0 0.4009,0.03469 m 0,0 h 30.8602 m 3.8643,3.836723 V 78.2264 m 0,0 -0.077,-0.401151 m 0,0 -0.1079,-0.383652 m 0,0 -0.1388,-0.383652 m 0,0 -0.1927,-0.34881 m 0,0 -0.2081,-0.34881 m 0,0 -0.2621,-0.296469 m 0,0 -0.2775,-0.296469 m 0,0 -0.3161,-0.244129 m 0,0 -0.3468,-0.226707 m 0,0 -0.3469,-0.174366 m 0,0 -0.3855,-0.156945 m 0,0 -0.3854,-0.104605 m 0,0 -0.4008,-0.05242 m 0,0 -0.4009,-0.01773 m 3.8643,3.836723 v 43.075902 m -7.7108,7.69087 0.804,-0.0524 m 0,0 0.787,-0.1221 m 0,0 0.7871,-0.20929 m 0,0 0.7554,-0.29646 m 0,0 0.7169,-0.36624 m 0,0 0.686,-0.43599 m 0,0 0.6321,-0.50575 m 0,0 0.5628,-0.5581 m 0,0 0.5087,-0.62786 m 0,0 0.4548,-0.68012 m 0,0 0.37,-0.71504 m 0,0 0.2775,-0.74988 m 0,0 0.2082,-0.78479 m 0,0 0.1233,-0.78478 m 0,0 0.077,-0.80222 m -7.7108,7.69087 h -9.564 m -1.3813,-0.85454 0.1233,0.20929 m 0,0 0.1542,0.19186 m 0,0 0.1927,0.15695 m 0,0 0.2081,0.1221 m 0,0 0.2081,0.0872 m 0,0 0.2467,0.0524 m 0,0 0.2467,0.0347 m -1.3814,-0.85454 -4.319,-8.45823 m 1.3644,-2.23227 -0.2313,0.0177 m 0,0 -0.2467,0.0524 m 0,0 -0.2312,0.10461 m 0,0 -0.2082,0.1221 m 0,0 -0.1772,0.15694 m 0,0 -0.1542,0.17437 m 0,0 -0.1234,0.20929 m 0,0 -0.1079,0.2267 m 0,0 -0.077,0.22671 m 0,0 v 0.24413 m 0,0 v 0.24413 m 0,0 0.077,0.24412 m 0,0 0.1079,0.20929 m 1.3645,-2.23227 h 8.497 m 0,0 0.2236,-0.0177 m 0,0 0.2467,-0.0524 m 0,0 0.2235,-0.10461 m 0,0 0.2081,-0.1221 m 0,0 0.1773,-0.15695 m 0,0 0.1542,-0.17436 m 0,0 0.1233,-0.20929 m 0,0 0.108,-0.22671 m 0,0 0.077,-0.2267 m 0,0 V 116.314 m 0,0 V 89.387199 m 0,0 v -0.226707 m 0,0 -0.077,-0.244128 m 0,0 -0.108,-0.226707 m 0,0 -0.1233,-0.191865 m 0,0 -0.1542,-0.191864 m 0,0 -0.1773,-0.156946 m 0,0 -0.2081,-0.122102 m 0,0 -0.2235,-0.08718 m 0,0 -0.2467,-0.06938 m 0,0 -0.2236,-0.01773 m 0,0 h -23.9187 m 0,0 -0.2467,0.01773 m 0,0 -0.2312,0.06938 m 0,0 -0.2236,0.08718 m 0,0 -0.2081,0.122102 m 0,0 -0.1927,0.156946 m 0,0 -0.1542,0.191864 m 0,0 -0.1233,0.191865 m 0,0 -0.085,0.226707 m 0,0 -0.077,0.244128 m 0,0 v 0.226707 m 0,0 v 6.068991 m -1.0314,3.836722 0.3469,-0.71504 m 0,0 0.3006,-0.749884 m 0,0 0.2082,-0.784779 m 0,0 0.1233,-0.784788 m 0,0 0.077,-0.802224 m -1.0314,3.836723 -29.3224,50.60982 m 0,0 -0.1773,0.36623 m 0,0 -0.1387,0.36623 m 0,0 -0.108,0.38366 m 0,0 -0.077,0.40115 m 0,0 v 0.40115 m 0,0 v 24.48524 m -6.9416,6.9061 0.7169,-0.0347 m 0,0 0.7169,-0.1046 m 0,0 0.7015,-0.19187 m 0,0 0.6861,-0.26163 m 0,0 0.6475,-0.33138 m 0,0 0.6089,-0.38366 m 0,0 0.5628,-0.47091 m 0,0 0.5241,-0.50575 m 0,0 0.4548,-0.5581 m 0,0 0.4009,-0.61036 m 0,0 0.316,-0.64528 m 0,0 0.2621,-0.68012 m 0,0 0.1927,-0.69762 m 0,0 0.1234,-0.71504 m 0,0 v -0.71504 m -6.9415,6.90609 h -2.3257 m -3.8465,-3.83672 v 0.40115 m 0,0 0.077,0.40108 m 0,0 0.085,0.38365 m 0,0 0.1542,0.38365 m 0,0 0.1773,0.34881 m 0,0 0.2313,0.34881 m 0,0 0.2466,0.29647 m 0,0 0.3007,0.29647 m 0,0 0.316,0.24413 m 0,0 0.3315,0.2267 m 0,0 0.37,0.17437 m 0,0 0.37,0.15694 m 0,0 0.3854,0.10469 m 0,0 0.4009,0.0524 m 0,0 0.4008,0.0177 m -3.8465,-3.83672 v -30.03105 m 1.0314,-3.83672 -0.37,0.71504 m 0,0 -0.3007,0.74989 m 0,0 -0.2081,0.78478 m 0,0 -0.1233,0.78479 m 0,0 v 0.80222 m 1.0314,-3.83672 29.3046,-50.609818 m 0,0 0.1773,-0.34881 m 0,0 0.1619,-0.383652 m 0,0 0.1079,-0.383653 m 0,0 0.077,-0.40115 m 0,0 v -0.401151 m 0,0 V 50.166115 m 0,0 -0.077,-0.802216 m 0,0 -0.1233,-0.784788 m 0,0 -0.2082,-0.78478 m 0,0 -0.2929,-0.749883 m 0,0 -0.37,-0.715041 m 0,0 -0.4394,-0.680121 m 0,0 -0.5087,-0.627858 m 0,0 -0.5551,-0.558095 m 0,0 -0.6321,-0.505755 m 0,0 -0.686,-0.435993 m 0,0 -0.7169,-0.366231 m 0,0 -0.7477,-0.296469 m 0,0 -0.7871,-0.209286 m 0,0 -0.804,-0.122103 m 0,0 -0.804,-0.05242 m 0,0 h -94.1902 m 0,0 -0.4008,0.03469 m 0,0 -0.3854,0.05242 m 0,0 -0.4009,0.104605 m 0,0 -0.37,0.156945 m 0,0 -0.37,0.174366 m 0,0 -0.3315,0.226707 m 0,0 -0.316,0.244129 m 0,0 -0.2775,0.279048 m 0,0 -0.2621,0.31389 m 0,0 -0.2235,0.34881 m 0,0 -0.1773,0.348809 m 0,0 -0.1388,0.383653 m 0,0 -0.1079,0.383652 m 0,0 -0.077,0.40115 m 0,0 v 0.401151 m 0,0 v 0.401151 m 0,0 0.077,0.40115 m 0,0 0.1079,0.383652 m 0,0 0.1388,0.383653 m 0,0 0.1773,0.348809 m 1.3813,22.619203 0.3469,-0.837098 m 0,0 0.4394,-1.238217 m 0,0 0.3854,-1.290534 m 0,0 0.3161,-1.290527 m 0,0 0.2466,-1.307979 m 0,0 0.1542,-1.307971 m 0,0 0.1079,-1.325408 m 0,0 v -1.325416 m 0,0 v -1.325415 m 0,0 -0.1079,-1.325408 m 0,0 -0.1542,-1.325416 m 0,0 -0.2466,-1.307971 m 0,0 -0.3161,-1.290535 m 0,0 -0.3854,-1.27309 m 0,0 -0.4394,-1.255654 m 0,0 -0.5088,-1.220772 m 0,0 -0.5781,-1.203337 m 0,0 -0.6475,-1.168455 m -5.7174,27.310467 0.804,-0.05242 m 0,0 0.8048,-0.122102 m 0,0 0.7862,-0.209286 m 0,0 0.7555,-0.279048 m 0,0 0.7168,-0.366231 m 0,0 0.6784,-0.453414 m 0,0 0.6321,-0.505755 m 0,0 0.5627,-0.558096 m 0,0 0.5088,-0.627858 m 0,0 0.4394,-0.680121 m 0,0 0.37,-0.715041 m 0,0 0.077,-0.122102 m -7.0987,4.691264 h -6.5214 m -2.0112,-1.151011 0.1388,0.191865 m 0,0 0.2235,0.279048 m 0,0 0.2775,0.226707 m 0,0 0.3161,0.191865 m 0,0 0.3315,0.139524 m 0,0 0.3468,0.08718 m 0,0 0.3701,0.03469 m -2.0112,-1.151011 -1.2765,-2.214838 m 0.4008,-2.00556 -0.1542,0.139524 m 0,0 -0.1541,0.191865 m 0,0 -0.1234,0.191864 m 0,0 -0.1079,0.226707 m 0,0 -0.077,0.244129 m 0,0 v 0.226707 m 0,0 v 0.244128 m 0,0 0.077,0.244129 m 0,0 0.1079,0.209285 m 0,0 v 0.08718 m 0.4009,-2.00556 0.5935,-0.470836 m 0,0 0.663,-0.610359 m 0,0 0.6321,-0.680122 m 0,0 0.555,-0.697619 m 0,0 0.5087,-0.767305 m 0,0 0.4394,-0.784779 m 0,0 0.3855,-0.819669 m 0,0 0.316,-0.854541 m 0,0 0.2467,-0.871979 m 0,0 0.1773,-0.889422 m 0,0 0.1079,-0.889423 m 0,0 v -0.906859 m 0,0 v -0.906859 m 0,0 -0.1079,-0.90686 m 0,0 -0.1773,-0.889422 m 0,0 -0.2467,-0.871986 m 0,0 -0.316,-0.837097 m 0,0 -0.3855,-0.819669 m 0,0 -0.4394,-0.802224 m 0,0 -0.5087,-0.749883 m 0,0 -0.555,-0.715041 m 0,0 -0.6321,-0.6627 m 0,0 -0.663,-0.610359 m 0,0 -0.7169,-0.558096 m 0,0 -0.3314,-0.244128 m -0.6784,-1.273091 v 0.244129 m 0,0 0.077,0.226707 m 0,0 0.085,0.226707 m 0,0 0.1234,0.209286 m 0,0 0.1541,0.191864 m 0,0 0.2313,0.174367 m -0.6784,-1.273091 v -2.999093 m 0,0 v -0.244129 m 0,0 -0.077,-0.226707 m 0,0 -0.085,-0.226707 m 0,0 -0.1233,-0.209286 m 0,0 -0.1542,-0.174366 m 0,0 -0.1927,-0.156945 m 0,0 -0.2081,-0.139524 m 0,0 -0.2313,-0.08718 m 0,0 -0.2235,-0.05242 m 0,0 -0.2467,-0.01773 m 0,0 h -8.4801 m 0,0 -0.2467,0.01773 m 0,0 -0.2312,0.05242 m 0,0 -0.2236,0.08718 m 0,0 -0.2081,0.139524 m 0,0 -0.1927,0.156945 m 0,0 -0.1542,0.174366 m 0,0 -0.1233,0.209286 m 0,0 -0.085,0.226707 m 0,0 -0.077,0.226707 m 0,0 v 0.244129 m 0,0 v 2.999618 m -0.6861,1.27309 0.2313,-0.174366 m 0,0 0.1542,-0.191865 m 0,0 0.1233,-0.209286 m 0,0 0.085,-0.226707 m 0,0 0.077,-0.226707 m 0,0 v -0.244129 m -0.6861,1.273091 -0.3469,0.244128 m 0,0 -0.7014,0.558096 m 0,0 -0.6784,0.610359 m 0,0 -0.609,0.6627 m 0,0 -0.5627,0.715041 m 0,0 -0.5087,0.749883 m 0,0 -0.4394,0.802224 m 0,0 -0.3854,0.819669 m 0,0 -0.3161,0.837097 m 0,0 -0.2467,0.871986 m 0,0 -0.1773,0.889423 m 0,0 -0.1079,0.906859 m 0,0 v 0.906859 m 0,0 v 0.906859 m 0,0 0.1079,0.889423 m 0,0 0.1773,0.889423 m 0,0 0.2467,0.871978 m 0,0 0.3161,0.854541 m 0,0 0.3854,0.819669 m 0,0 0.4394,0.78478 m 0,0 0.5087,0.767304 m 0,0 0.5627,0.69762 m 0,0 0.609,0.680121 m 0,0 0.6784,0.610359 m 0,0 0.5781,0.470836 m 0.4163,2.00556 v -0.08718 m 0,0 0.1079,-0.209286 m 0,0 0.077,-0.244129 m 0,0 v -0.244128 m 0,0 v -0.226707 m 0,0 -0.077,-0.244128 m 0,0 -0.1079,-0.226707 m 0,0 -0.1234,-0.191865 m 0,0 -0.1618,-0.191865 m 0,0 -0.1773,-0.139524 m 0.4162,2.00556 -1.2765,2.214839 m -2.0104,1.15101 0.37,-0.03469 m 0,0 0.3469,-0.08718 m 0,0 0.3315,-0.139524 m 0,0 0.316,-0.191865 m 0,0 0.2775,-0.226707 m 0,0 0.2313,-0.279048 m 0,0 0.1387,-0.191864 m -2.0103,1.15101 h -6.5222 m -7.0988,-4.691264 v 0.122102 m 0,0 0.37,0.715041 m 0,0 0.4548,0.680122 m 0,0 0.5088,0.627857 m 0,0 0.555,0.558096 m 0,0 0.6321,0.505755 m 0,0 0.6784,0.453414 m 0,0 0.7168,0.366231 m 0,0 0.7555,0.279048 m 0,0 0.787,0.209286 m 0,0 0.7863,0.122103 m 0,0 0.8217,0.05242 m -5.7343,-27.310466 -0.6321,1.168455 m 0,0 -0.5782,1.203336 m 0,0 -0.5087,1.220772 m 0,0 -0.4394,1.255654 m 0,0 -0.3855,1.27309 m 0,0 -0.316,1.290535 m 0,0 -0.2467,1.307971 m 0,0 -0.1773,1.325416 m 0,0 -0.1079,1.325408 m 0,0 v 1.325415 m 0,0 v 1.325416 m 0,0 0.1079,1.325408 m 0,0 0.1773,1.307971 m 0,0 0.2467,1.307979 m 0,0 0.316,1.290527 m 0,0 0.3855,1.290535 m 0,0 0.4394,1.238217 m 0,0 0.3468,0.837097 m 1.3644,-22.619202 0.1928,-0.34881 m 0,0 0.1387,-0.383652 m 0,0 0.1079,-0.383653 m 0,0 0.077,-0.40115 m 0,0 v -0.401151 m 0,0 v -0.40115 m 0,0 -0.077,-0.401151 m 0,0 -0.1079,-0.383652 m 0,0 -0.1387,-0.383652 m 0,0 -0.1928,-0.34881 m 0,0 -0.2081,-0.34881 m 0,0 -0.2621,-0.31389 m 0,0 -0.2775,-0.279048 m 0,0 -0.316,-0.244128 m 0,0 -0.3315,-0.226708 m 0,0 -0.37,-0.174366 m 0,0 -0.37,-0.156945 m 0,0 -0.4009,-0.104604 m 0,0 -0.3854,-0.05242 m 0,0 -0.4162,-0.03469 m 0,0 h -126.5883 m 0,0 -0.2236,0.03469 m 0,0 -0.2466,0.05242 m 0,0 -0.2236,0.08718 m 0,0 -0.1927,0.122102 m 0,0 -0.1927,0.156946 m 0,0 -0.1619,0.191864 m 0,0 -0.1233,0.209286 m 0,0 -0.085,0.209286 m 0,0 -0.077,0.244128 m 0,0 v 0.244129 m 0,0 V 197.06043 m -1.5386,1.5347 0.2467,-0.0177 m 0,0 0.2235,-0.0524 m 0,0 0.2313,-0.0872 m 0,0 0.2081,-0.12211 m 0,0 0.1773,-0.15694 m 0,0 0.1541,-0.19187 m 0,0 0.1388,-0.20928 m 0,0 0.085,-0.22671 m 0,0 0.077,-0.22671 m 0,0 v -0.24413 m -1.5386,1.5347 h -8.4802 m -1.5563,-1.5347 v 0.24413 m 0,0 0.077,0.22671 m 0,0 0.085,0.22671 m 0,0 0.1233,0.20928 m 0,0 0.1542,0.19187 m 0,0 0.1927,0.15694 m 0,0 0.2081,0.12211 m 0,0 0.2081,0.0872 m 0,0 0.2467,0.0524 m 0,0 0.2467,0.0177 m -1.5564,-1.5347 v -69.98525 m 0,0 v -0.24413 m 0,0 -0.077,-0.22671 m 0,0 -0.085,-0.2267 m 0,0 -0.1234,-0.20929 m 0,0 -0.1541,-0.17437 m 0,0 -0.1928,-0.15694 m 0,0 -0.2081,-0.1221 m 0,0 -0.2235,-0.10461 m 0,0 -0.2236,-0.0524 m 0,0 -0.2466,-0.0177 m 0,0 h -35.0915 m 0,-11.52759 -0.6089,0.0177 m 0,0 -0.5936,0.1046 m 0,0 -0.5936,0.15695 m 0,0 -0.5627,0.20928 m 0,0 -0.5396,0.27905 m 0,0 -0.5087,0.33139 m 0,0 -0.4702,0.38365 m 0,0 -0.4163,0.41857 m 0,0 -0.3854,0.47084 m 0,0 -0.3315,0.50575 m 0,0 -0.2775,0.54068 m 0,0 -0.2081,0.55809 m 0,0 -0.1542,0.59294 m 0,0 -0.085,0.59294 m 0,0 v 0.59294 m 0,0 v 0.61036 m 0,0 0.085,0.59293 m 0,0 0.1542,0.59294 m 0,0 0.2081,0.5581 m 0,0 0.2775,0.5406 m 0,0 0.3315,0.50575 m 0,0 0.3854,0.47091 m 0,0 0.4163,0.41857 m 0,0 0.4702,0.38366 m 0,0 0.5087,0.33131 m 0,0 0.5396,0.26162 m 0,0 0.5627,0.22671 m 0,0 0.5936,0.15695 m 0,0 0.5936,0.0872 m 0,0 0.6089,0.0347 m 0,-11.5276 h 35.0915 m 0,0 0.2466,-0.0177 m 0,0 0.2236,-0.0694 m 0,0 0.2235,-0.0872 m 0,0 0.2081,-0.1221 m 0,0 0.1928,-0.15695 m 0,0 0.1541,-0.19186 m 0,0 0.1234,-0.20929 m 0,0 0.085,-0.20928 m 0,0 0.077,-0.24413 m 0,0 v -0.24413 m 0,0 V 65.28643 m 0.4548,-1.081256 -0.1541,0.174366 m 0,0 -0.1234,0.209286 m 0,0 -0.085,0.226707 m 0,0 -0.077,0.226707 m 0,0 v 0.244129 m 0.4548,-1.081257 2.1853,-2.179957 m 0,0 0.1542,-0.174366 m 0,0 0.1233,-0.209286 m 0,0 0.1079,-0.226707 m 0,0 0.077,-0.226707 m 0,0 V 60.94396 m 0,0 v -0.244128 m 0,0 -0.077,-0.226707 m 0,0 -0.1079,-0.226707 m 0,0 -0.1233,-0.209286 m 0,0 -0.1542,-0.191865 m 0,0 -2.1853,-2.162513 m -0.4548,-1.098693 v 0.244129 m 0,0 0.077,0.244128 m 0,0 0.085,0.209286 m 0,0 0.1234,0.209286 m 0,0 0.1541,0.191864 m -0.4548,-1.098693 V 44.027525 m 0,0 v -0.244129 m 0,0 -0.077,-0.244128 m 0,0 -0.085,-0.209286 m 0,0 -0.1234,-0.209286 m 0,0 -0.1541,-0.191864 m 0,0 -0.1928,-0.156946 m 0,0 -0.2081,-0.122102 m 0,0 -0.2235,-0.08718 m 0,0 -0.2236,-0.05242 m 0,0 -0.2466,-0.03469 m 0,0 h -26.1743 m -1.3991,-0.871985 0.1388,0.244128 m 0,0 0.1542,0.191864 m 0,0 0.1927,0.156946 m 0,0 0.2081,0.122102 m 0,0 0.2235,0.08718 m 0,0 0.2313,0.05242 m 0,0 0.2467,0.01773 m -1.3991,-0.871986 -4.686,-10.010348 m 1.3991,-2.17995 -0.2313,0.01773 m 0,0 -0.2467,0.05242 m 0,0 -0.2235,0.08718 m 0,0 -0.2081,0.139524 m 0,0 -0.1773,0.156945 m 0,0 -0.1542,0.174366 m 0,0 -0.1233,0.209286 m 0,0 -0.108,0.226707 m 0,0 -0.077,0.226707 m 0,0 v 0.244129 m 0,0 v 0.244128 m 0,0 0.077,0.226707 m 0,0 0.077,0.174366"
       id="path1" />
    <path
       style="fill:none;stroke:#000000;stroke-width:0.0174846px;stroke-linecap:round;stroke-linejoin:round;stroke-miterlimit:4;stroke-dasharray:none;stroke-opacity:1"
       d="m 1560.9226,113.5592 1.5209,-1.49981 m 7.3084,-7.28977 0.9968,-0.99406 m 3.2699,-3.26121 2.1676,-2.162515 m -25.5097,15.660785 2.0635,-2.07531 m 3.2869,-3.26121 3.2692,-3.26122 m 3.27,-3.2612 3.2699,-3.261217 m 3.2692,-3.27865 3.2699,-3.261214 m -27.8184,17.945381 3.2877,-3.26121 m 5.2279,-5.21445 1.3112,-1.30797 m 3.2692,-3.261216 1.7136,-1.709083 m 4.8432,-4.813336 3.27,-3.261214 m 3.2692,-3.261214 0.1927,-0.209286 m -11.6453,1.831156 3.27,-3.261214 m 3.2699,-3.261206 2.4822,-2.476426 m -13.0428,3.226332 2.3773,-2.389235 m 3.2699,-3.261206 3.2869,-3.261214 m -24.8453,14.980645 0.293,-0.296469 m 3.2699,-3.261213 3.2692,-3.261206 m 3.2699,-3.261214 3.27,-3.261214 m 3.2869,-3.261214 3.2692,-3.261206 m 3.2699,-3.261213 0.5242,-0.523176 m -31.6126,21.729787 3.27,-3.261214 m 3.2691,-3.27865 3.27,-3.261206 m 3.2692,-3.261214 3.2876,-3.261213 m 3.7942,-3.784406 2.745,-2.738022 m 3.2691,-3.261206 2.8152,-2.807784 m -40.4596,30.5368 3.2876,-3.261214 m 3.2692,-3.261206 3.27,-3.261214 m 3.2691,-3.261213 0.5936,-0.575517 m 19.0408,-19.00921 3.2869,-3.261206 m -45.7577,35.82101 1.5563,-1.55213 m 3.287,-3.261214 3.2699,-3.27865 m 3.27,-3.261206 3.2691,-3.261214 m 18.936,-18.869686 0.7014,-0.697619 m 3.2877,-3.261214 3.2692,-3.261206 m 3.2699,-3.278658 0.8387,-0.837098 m -97.3892,87.302815 3.2699,-3.26121 m 3.27,-3.26121 3.2692,-3.26122 m 69.2562,-69.026076 2.7628,-2.755459 m 3.2699,-3.261213 3.2692,-3.261214 m 3.2699,-3.261206 3.1297,-3.121697 m -158.6025,148.306665 3.2869,-3.26122 m 51.7195,-51.569 0.6475,-0.62785 m 3.2699,-3.26121 3.2692,-3.26121 m 3.27,-3.26122 3.2869,-3.27865 m 3.2699,-3.26121 2.3079,-2.30203 m 56.5974,-56.417223 3.27,-3.261213 m 3.2869,-3.261206 3.2699,-3.278658 m 3.2692,-3.261206 3.2699,-3.261214 m 3.2692,-3.261214 2.6055,-2.581061 m -158.0606,147.783475 3.2692,-3.26122 m 3.2699,-3.26121 3.2523,-3.24377 m 49.1139,-48.9705 0.609,-0.61036 m 8.1302,-8.092 1.0838,-1.08125 m 3.2699,-3.26122 3.27,-3.2612 m 3.2691,-3.261215 0.6861,-0.680121 m 52.1388,-51.970118 2.8329,-2.825221 m 3.2691,-3.261214 3.27,-3.261206 m 3.2692,-3.261213 3.2699,-3.261214 m -150.5949,140.336752 1.6782,-1.67421 m 3.2699,-3.26121 3.27,-3.26121 m 3.2869,-3.26121 1.6087,-1.60445 m 57.8562,-57.69032 2.7103,-2.703141 m 3.2869,-3.261214 3.27,-3.261206 m 49.0962,-48.953063 3.27,-3.261206 m 3.2699,-3.261214 3.2692,-3.261213 m -139.1077,128.878907 3.2877,-3.26121 m 3.2692,-3.26121 3.2699,-3.26122 m 3.2692,-3.2612 3.2699,-3.26122 m 55.6531,-55.47548 3.27,-3.261213 m 3.2699,-3.261214 3.2692,-3.261206 m 36.9453,-36.832512 2.3426,-2.319474 m 3.27,-3.261206 3.2692,-3.261213 m 3.2699,-3.261214 0.9613,-0.959177 m -130.2429,120.054449 3.2699,-3.27865 m 3.27,-3.26122 3.2869,-3.26121 m 3.2691,-3.26121 3.27,-3.26121 m 3.2699,-3.26121 3.2692,-3.26122 m 3.2869,-3.2612 2.6756,-2.68571 m 32.9231,-32.821397 0.4008,-0.383652 m 3.27,-3.261214 3.2691,-3.261213 m 3.27,-3.278651 2.9022,-2.877538 m 32.3989,-32.315645 0.7014,-0.69762 m 3.287,-3.261206 3.2691,-3.261213 m 3.27,-3.261214 2.5877,-2.581061 m -112.2335,102.109064 3.2692,-3.27865 m 3.2699,-3.26121 3.2869,-3.26122 m 3.27,-3.26121 3.2692,-3.26121 m 3.2699,-3.26121 3.2692,-3.26121 m 3.2877,-3.26122 3.2691,-3.2612 m 3.27,-3.261217 0.9612,-0.976622 m 12.1348,-12.08567 3.2692,-3.261214 m 3.2699,-3.261206 3.2699,-3.261213 m 36.0003,-35.890772 3.2877,-3.261206 m 3.2692,-3.261214 3.2699,-3.261214 m -86.7415,76.664638 3.2869,-3.26121 m 3.27,-3.26121 3.2699,-3.261216 m 3.2692,-3.261214 3.2699,-3.261206 m 3.2869,-3.261214 3.27,-3.261214 m 3.2692,-3.261213 3.2699,-3.278651 m 36.0003,-35.890772 3.2699,-3.261206 m 3.2869,-3.261213 3.27,-3.261214 m -67.1064,57.097368 3.2877,-3.261214 m 3.2691,-3.261214 3.27,-3.261206 m 3.2692,-3.261213 1.3289,-1.307972 m 32.3464,-32.263327 2.3257,-2.319473 m 3.2699,-3.261206 3.287,-3.261214 m 3.2699,-3.261214 0.9613,-0.959176 m -61.7906,51.813157 0.2775,-0.279048 m 3.2699,-3.27865 3.2692,-3.261206 m 3.2699,-3.261214 3.0248,-2.999618 m 25.7372,-25.671145 0.7015,-0.69762 m 3.2699,-3.261206 3.2869,-3.261214 m 3.27,-3.261213 2.5877,-2.581062 m -51.9645,42.029516 1.9055,-1.918361 m 3.2877,-3.261206 3.2691,-3.261214 m 3.27,-3.27865 1.3814,-1.360289 m 18.2537,-18.206986 3.2699,-3.261206 m 3.287,-3.261213 3.2691,-3.261214 m -40.9136,30.990229 3.2699,-3.261206 m 3.2692,-3.261214 3.2699,-3.261213 m 9.8261,-9.801078 3.2699,-3.261206 m 3.2692,-3.261214 3.2877,-3.261213 m -27.8362,17.945389 3.2877,-3.261213 m 3.2691,-3.261214 3.27,-3.261214 m 3.2692,-3.261206 3.2699,-3.261213 m 3.2869,-3.261214 0.9443,-0.959177 m -24.9856,15.120161 2.7628,-2.755466 m 3.2699,-3.261206 3.2692,-3.261214 m 3.2699,-3.261213 2.6047,-2.581062 m -20.5963,10.74281 3.2692,-3.261206 m 3.2699,-3.261213 3.2692,-3.261214 m -21.2608,11.405518 3.2691,-3.261206 m 3.27,-3.261214 3.2699,-3.261213 m -20.335,10.481222 2.3434,-2.319474 m 3.2692,-3.261206 3.2699,-3.261213 m 3.2692,-3.261214 0.962,-0.959177 m -22.9397,13.062284 0.7015,-0.69762 m 3.2869,-3.261206 3.2699,-3.261214 m 3.2692,-3.261213 2.6055,-2.581062 m -20.5972,10.74281 3.27,-3.261206 m 3.2699,-3.261213 3.2692,-3.261214 m -21.2785,11.405518 3.2869,-3.261206 m 3.2699,-3.261214 3.2692,-3.261213 m -20.3343,10.481222 2.3257,-2.319474 m 3.2869,-3.261206 3.2692,-3.261213 m 3.2699,-3.261214 0.962,-0.959177 m -56.1086,46.145272 1.137,-1.151011 m 3.2691,-3.261214 3.287,-3.261213 m 25.475,-25.40955 0.7015,-0.69762 m 3.2692,-3.261206 3.2876,-3.261213 m 3.2692,-3.261214 2.5878,-2.581062 m -53.3282,43.372369 3.2699,-3.261214 m 3.2869,-3.261206 3.27,-3.261214 m 3.2691,-3.27865 3.27,-3.261214 m 16.3651,-16.30606 3.27,-3.261206 m 3.2869,-3.261214 3.2699,-3.261214 m -39.1653,29.246265 1.5209,-1.517242 m 3.2699,-3.261213 3.2692,-3.261214 m 9.8268,-9.801078 3.2692,-3.261206 m 3.2699,-3.261213 3.2869,-3.261214 m -53.5201,43.56421 2.7797,-2.772903 m 3.2699,-3.261214 0.2621,-0.261549 m 19.373,-19.323116 3.2869,-3.261213 m 3.27,-3.261214 3.2691,-3.261214 m 3.27,-3.261206 3.2692,-3.261214 m 3.2876,-3.261213 0.9443,-0.959177 m -51.6847,41.733047 3.2699,-3.261214 m 3.2869,-3.261213 1.7483,-1.743965 m 17.8868,-17.823302 3.2692,-3.278658 m 3.27,-3.261206 3.2699,-3.261214 m 3.2692,-3.261214 2.6055,-2.581061 m -177.6965,167.350746 2.0112,-2.00556 m 128.8962,-128.495237 3.2869,-3.261214 m 3.2699,-3.27865 3.27,-3.261214 m 3.2692,-3.261214 3.2699,-3.261206 m 4.4062,-4.377351 2.1507,-2.145076 m 3.2691,-3.261214 3.27,-3.261206 m 3.2692,-3.261214 3.2699,-3.261213 m -176.4723,166.129979 1.3813,-1.3603 m 3.27,-3.26121 3.2692,-3.26121 m 3.2699,-3.26122 0.3854,-0.38365 m 130.5397,-130.134557 3.27,-3.261213 m 3.2699,-3.261214 3.2869,-3.261206 m 3.2692,-3.278658 3.2699,-3.261206 m 3.27,-3.261214 3.2692,-3.261213 m -165.0198,154.724451 3.0078,-2.99962 m 3.2692,-3.26121 3.2869,-3.26121 m 134.1943,-133.779449 3.2699,-3.261214 m 3.27,-3.261206 3.2691,-3.261213 m 3.27,-3.261214 0.9612,-0.959177 m -156.4171,146.144143 3.27,-3.26121 m 3.2691,-3.26121 3.27,-3.26121 m 123.686,-123.298229 0.7015,-0.69762 m 3.2699,-3.261206 3.2692,-3.261214 m 3.27,-3.261213 2.6054,-2.581062 m -144.9823,134.721184 3.2692,-3.26121 m 3.2869,-3.26121 2.0112,-2.00556 m 115.8179,-115.450394 3.2692,-3.261206 m 3.2699,-3.261213 3.27,-3.261214 m -137.2021,126.977987 1.3813,-1.36029 m 3.27,-3.26121 3.2692,-3.26122 m 3.2699,-3.27865 0.3854,-0.38365 m 104.3477,-104.027426 3.2877,-3.261206 m 3.2692,-3.261213 3.2699,-3.261214 m -125.7496,115.572469 3.0079,-2.99962 m 3.2692,-3.26121 3.2869,-3.26122 m 95.8506,-95.569197 2.3257,-2.319473 m 3.2869,-3.261206 3.2699,-3.261214 m 3.2692,-3.261214 0.962,-0.959177 m -117.1469,106.992161 3.27,-3.26121 m 3.2691,-3.26121 3.27,-3.26122 m 84.3981,-84.146237 0.7014,-0.69762 m 3.27,-3.261206 3.2869,-3.261213 m 3.2699,-3.261214 2.5878,-2.581062 m -105.6944,95.569202 3.2692,-3.26121 m 3.2869,-3.26122 2.0111,-2.00555 m 76.5301,-76.298411 3.2699,-3.261206 m 3.2869,-3.261214 3.2692,-3.261214 m -105.292,95.168085 2.1854,-2.17995 m 3.2699,-3.26121 3.2869,-3.26121 m 3.27,-3.27865 3.2691,-3.26122 m 3.27,-3.26121 0.3854,-0.38365 m 65.0775,-64.875451 3.27,-3.261206 m 3.2691,-3.261214 3.2869,-3.261214 m -103.6655,93.546205 0.5551,-0.5581 m 3.2699,-3.26121 3.2699,-3.26121 m 3.287,-3.26121 1.1886,-1.1859 m 5.6126,-5.59812 3.0078,-2.99962 m 3.2692,-3.26121 3.2869,-3.26121 m 56.5627,-56.417223 2.3434,-2.319474 m 3.2692,-3.261206 3.2699,-3.261213 m 3.2869,-3.261214 0.962,-0.959177 m -104.0686,93.947317 3.2699,-3.26121 m 3.2692,-3.26122 2.8498,-2.82522 m 16.803,-16.759489 3.27,-3.261214 m 3.2692,-3.261206 3.2699,-3.261213 m 45.1279,-44.994261 0.7015,-0.69762 m 3.2699,-3.261206 3.2692,-3.261214 m 3.2699,-3.261213 2.6047,-2.581062 m -105.6943,95.569198 3.2699,-3.26121 m 3.2692,-3.26121 3.2699,-3.26121 m 29.4619,-29.368352 3.2692,-3.261214 m 3.2869,-3.261206 2.0112,-2.00556 m 37.2598,-37.146426 3.2692,-3.261206 m 3.2699,-3.261213 3.2869,-3.261214 m -99.8367,89.726931 3.2692,-3.26122 m 37.9066,-37.791688 1.3813,-1.377733 m 3.27,-3.261206 3.2692,-3.261214 m 3.2699,-3.261213 0.3854,-0.383653 m 25.8073,-25.723463 3.2692,-3.261206 m 3.27,-3.261213 3.2699,-3.261214 m -47.1914,37.251061 3.0078,-2.982174 m 3.2692,-3.261214 3.2869,-3.27865 m 17.2925,-17.247801 2.3426,-2.319473 m 3.2699,-3.261206 3.27,-3.261214 m 3.2692,-3.261214 0.962,-0.959177 m -38.5888,28.6882 3.27,-3.261213 m 3.2691,-3.261214 3.27,-3.261214 m 5.8569,-5.842275 0.7015,-0.69762 m 3.2692,-3.261206 3.2699,-3.261213 m 3.2692,-3.261214 2.6055,-2.581061 m -27.1532,17.265237 3.2691,-3.261214 m 3.2869,-3.261213 3.27,-3.261206 m 3.2699,-3.261214 3.2692,-3.261214 m -21.2785,11.405518 3.2869,-3.261206 m 3.2699,-3.261213 3.2692,-3.261214 m -20.3343,10.481222 2.3257,-2.319473 m 3.2869,-3.261206 3.2692,-3.261214 m 3.2699,-3.261214 0.9613,-0.959176 m -22.9398,13.062283 0.7015,-0.697619 m 3.2692,-3.261206 3.2876,-3.261214 m 3.2692,-3.261214 2.5878,-2.581061 m -20.5972,10.74281 3.27,-3.261206 m 3.2869,-3.261214 3.2699,-3.261213 m -12.9911,3.15657 1.5386,-1.534686"
       id="path2" />
  </g>
</svg>
