<?xml version="1.0" encoding="UTF-8" standalone="no"?>
<!-- Created with Inkscape (http://www.inkscape.org/) -->

<svg
   width="61.86972mm"
   height="20.405979mm"
   viewBox="0 0 61.86972 20.405979"
   version="1.1"
   id="svg1"
   xmlns="http://www.w3.org/2000/svg"
   xmlns:svg="http://www.w3.org/2000/svg">
  <defs
     id="defs1" />
  <g
     id="layer1"
     transform="translate(-53.980903,-138.40807)">
    <path
       style="fill:none;stroke:#000000;stroke-width:0.45997px;stroke-linecap:round;stroke-linejoin:round;stroke-miterlimit:4;stroke-dasharray:none;stroke-opacity:1"
       d="m 96.616533,140.33308 -0.07863,0.004 m 0,0 -0.07666,0.01 m 0,0 -0.07666,0.0137 m 0,0 -0.07666,0.0215 m 0,0 -0.07273,0.0274 m 0,0 -0.07273,0.0333 m 0,0 -0.06683,0.0372 m 0,0 -0.06683,0.045 m 0,0 -0.06094,0.047 m 0,0 -0.057,0.0548 m 0,0 -0.05504,0.0567 m 0,0 -0.04718,0.0607 m 0,0 -0.04325,0.0665 m 0,0 -0.03931,0.0685 m 0,0 -0.03342,0.0704 m 0,0 -0.02752,0.0724 m 0,0 -0.01966,0.0763 m 0,0 -0.01573,0.0763 m 0,0 -0.0098,0.0783 m 0,0 -0.002,0.0783 m 0.99858,-0.99797 h 9.903107 m 0.99857,0.99798 -0.002,-0.0783 m 0,0 -0.01,-0.0783 m 0,0 -0.0157,-0.0763 m 0,0 -0.0197,-0.0763 m 0,0 -0.0275,-0.0724 m 0,0 -0.0334,-0.0704 m 0,0 -0.0393,-0.0685 m 0,0 -0.0433,-0.0665 m 0,0 -0.0472,-0.0607 m 0,0 -0.055,-0.0567 m 0,0 -0.057,-0.0548 m 0,0 -0.0609,-0.047 m 0,0 -0.0649,-0.045 m 0,0 -0.0688,-0.0372 m 0,0 -0.0727,-0.0333 m 0,0 -0.0727,-0.0274 m 0,0 -0.0767,-0.0215 m 0,0 -0.0767,-0.0137 m 0,0 -0.0767,-0.01 m 0,0 -0.0786,-0.004 m 0.99857,0.99798 v 0.15459 m 0,0 0.004,0.0391 m 0,0 0.008,0.0372 m 0,0 0.0118,0.0372 m 0,0 0.0177,0.0352 m 0,0 0.0216,0.0333 m 0,0 0.0255,0.0293 m 0,0 0.0295,0.0254 m 0,0 0.0334,0.0215 m 0,0 0.27519,0.1585 m 0,0 0.01,0.006 m 0,0 0.0275,0.0117 m 0,0 0.0314,0.006 m 0,0 0.0315,0.004 m 0,0 0.0314,-0.004 m 0,0 0.0295,-0.006 m 0,0 0.0295,-0.0117 m 0,0 0.0275,-0.0176 m 0,0 0.0236,-0.0196 m 0,0 0.0197,-0.0235 m 2.4571,0.043 -0.0295,-0.043 m 0,0 -0.0727,-0.092 m 0,0 -0.0806,-0.0861 m 0,0 -0.0865,-0.0802 m 0,0 -0.0924,-0.0724 m 0,0 -0.0983,-0.0646 m 0,0 -0.10221,-0.0587 m 0,0 -0.10811,-0.0489 m 0,0 -0.11008,-0.0411 m 0,0 -0.11401,-0.0313 m 0,0 -0.11401,-0.0235 m 0,0 -0.11794,-0.0137 m 0,0 -0.11794,-0.004 m 0,0 -0.11794,0.004 m 0,0 -0.11598,0.0137 m 0,0 -0.11597,0.0235 m 0,0 -0.11401,0.0313 m 0,0 -0.11008,0.0411 m 0,0 -0.10615,0.0489 m 0,0 -0.10418,0.0587 m 0,0 -0.0963,0.0646 m 0,0 -0.0924,0.0724 m 0,0 -0.0865,0.0802 m 0,0 -0.0806,0.0861 m 0,0 -0.0727,0.092 m 2.4571,0.043 0.0256,0.0294 m 0,0 0.0236,0.0215 m 0,0 0.0255,0.0156 m 0,0 0.0295,0.0117 m 0,0 0.0315,0.008 m 0,0 0.0315,0.002 m 0,0 h 0.18871 m 0.2005,0.1996 -0.002,-0.0313 m 0,0 -0.008,-0.0294 m 0,0 -0.0118,-0.0293 m 0,0 -0.0157,-0.0274 m 0,0 -0.0216,-0.0235 m 0,0 -0.0236,-0.0196 m 0,0 -0.0256,-0.0176 m 0,0 -0.0295,-0.0117 m 0,0 -0.0314,-0.008 m 0,0 -0.0315,-0.002 m 0.2005,0.19959 v 1.09778 m -0.2005,0.1996 0.0315,-0.004 m 0,0 0.0314,-0.006 m 0,0 0.0295,-0.0117 m 0,0 0.0256,-0.0176 m 0,0 0.0236,-0.0196 m 0,0 0.0216,-0.0235 m 0,0 0.0157,-0.0274 m 0,0 0.0118,-0.0294 m 0,0 0.008,-0.0294 m 0,0 0.002,-0.0313 m -0.20046,0.19958 h -0.18871 m 0,0 -0.0315,0.002 m 0,0 -0.0314,0.008 m 0,0 -0.0295,0.0117 m 0,0 -0.0255,0.0157 m 0,0 -0.0236,0.0215 m 0,0 -0.0255,0.0293 m -2.4571,0.0431 0.0727,0.092 m 0,0 0.0806,0.0861 m 0,0 0.0865,0.0802 m 0,0 0.0924,0.0724 m 0,0 0.0963,0.0646 m 0,0 0.10418,0.0587 m 0,0 0.10615,0.0489 m 0,0 0.11008,0.0411 m 0,0 0.11401,0.0313 m 0,0 0.11597,0.0235 m 0,0 0.11598,0.0137 m 0,0 0.11794,0.004 m 0,0 0.11794,-0.004 m 0,0 0.11794,-0.0137 m 0,0 0.11401,-0.0235 m 0,0 0.11401,-0.0313 m 0,0 0.11008,-0.0411 m 0,0 0.10811,-0.0489 m 0,0 0.10221,-0.0587 m 0,0 0.0983,-0.0646 m 0,0 0.0924,-0.0724 m 0,0 0.0865,-0.0802 m 0,0 0.0806,-0.0861 m 0,0 0.0727,-0.092 m 0,0 0.0295,-0.0431 m -2.4571,0.0431 -0.0197,-0.0235 m 0,0 -0.0236,-0.0196 m 0,0 -0.0275,-0.0176 m 0,0 -0.0295,-0.0117 m 0,0 -0.0295,-0.008 m 0,0 -0.0314,-0.002 m 0,0 -0.0315,0.002 m 0,0 -0.0314,0.008 m 0,0 -0.0275,0.0117 m 0,0 -0.01,0.006 m 0,0 -0.77644,0.44616 m 0,0 -0.0315,0.0215 m 0,0 -0.0295,0.0254 m 0,0 -0.0255,0.0294 m 0,0 -0.0216,0.0333 m 0,0 -0.0177,0.0352 m 0,0 -0.0138,0.0372 m 0,0 -0.008,0.0372 m 0,0 -0.002,0.0391 m 0,0 v 5.8509 m 0,0 0.002,0.0528 m 0,0 0.01,0.0509 m 0,0 0.0138,0.0509 m 0,0 0.0177,0.0489 m 0,0 0.0236,0.045 m 0,0 0.0295,0.045 m 0,0 0.0315,0.0391 m 0,0 0.0373,0.0372 m 0,0 0.0413,0.0333 m 0,0 0.0432,0.0294 m 0,0 0.0472,0.0235 m 0,0 0.0491,0.0176 m 0,0 0.0511,0.0137 m 0,0 0.0511,0.008 m 0,0 0.0511,0.004 m 0,0 h 1.20103 m 0,0 0.0786,-0.004 m 0,0 0.0786,-0.008 m 0,0 0.0767,-0.0157 m 0,0 0.0747,-0.0215 m 0,0 0.0747,-0.0274 m 0,0 0.0708,-0.0333 m 0,0 0.0688,-0.0372 m 0,0 0.0649,-0.045 m 0,0 0.0609,-0.047 m 0,0 0.059,-0.0528 m 0,0 0.0531,-0.0587 m 0,0 0.0491,-0.0607 m 0,0 0.0432,-0.0665 m 0,0 0.0374,-0.0665 m 0,0 0.0334,-0.0724 m 0,0 0.0275,-0.0724 m 0,0 0.0216,-0.0763 m 0,0 0.0157,-0.0763 m 0,0 0.008,-0.0783 m 0,0 0.004,-0.0783 m 0,0 v -0.19961 m 0,0 -0.002,-0.0391 m 0,0 -0.008,-0.0372 m 0,0 -0.0138,-0.0372 m 0,0 -0.0177,-0.0352 m 0,0 -0.0216,-0.0333 m 0,0 -0.0256,-0.0294 m 0,0 -0.0295,-0.0254 m 0,0 -0.0315,-0.0215 m 0,0 -0.0354,-0.0176 m 0,0 -0.0374,-0.0117 m 0,0 -0.0393,-0.008 m 0,0 -0.0393,-0.004 m 0,0 h -0.49928 m -0.30075,-0.2994 0.002,0.0391 m 0,0 0.008,0.0391 m 0,0 0.0138,0.0372 m 0,0 0.0177,0.0352 m 0,0 0.0216,0.0313 m 0,0 0.0255,0.0313 m 0,0 0.0295,0.0254 m 0,0 0.0314,0.0215 m 0,0 0.0354,0.0176 m 0,0 0.0374,0.0117 m 0,0 0.0393,0.008 m 0,0 0.0393,0.002 m -0.30072,-0.29945 v -2.30514 m 0.54056,-0.49703 -0.0393,-0.002 m 0,0 -0.0531,0.004 m 0,0 -0.0511,0.008 m 0,0 -0.0511,0.0137 m 0,0 -0.0491,0.0176 m 0,0 -0.0472,0.0235 m 0,0 -0.0432,0.0293 m 0,0 -0.0413,0.0333 m 0,0 -0.0354,0.0372 m 0,0 -0.0334,0.0391 m 0,0 -0.0295,0.045 m 0,0 -0.0236,0.045 m 0,0 -0.0177,0.0489 m 0,0 -0.0138,0.0509 m 0,0 -0.008,0.0528 m 0,0 -0.004,0.0509 m 0.54057,-0.49704 0.0865,0.006 m 0,0 0.17297,0.004 m 0,0 0.17299,-0.004 m 0,0 0.17298,-0.0137 m 0,0 0.17101,-0.0215 m 0,0 0.16905,-0.0313 m 0,0 0.16905,-0.0411 m 0,0 0.16512,-0.0489 m 0,0 0.16315,-0.0567 m 0,0 0.15922,-0.0665 m 0,0 0.15725,-0.0744 m 0,0 0.15136,-0.0822 m 0,0 0.14742,-0.09 m 0,0 0.14153,-0.0978 m 0,0 0.1376,-0.10371 m 0,0 0.13367,-0.11546 m 0.80396,0.1996 -0.0118,-0.0313 m 0,0 -0.0236,-0.047 m 0,0 -0.0295,-0.0431 m 0,0 -0.0334,-0.0411 m 0,0 -0.0374,-0.0372 m 0,0 -0.0393,-0.0333 m 0,0 -0.0452,-0.0274 m 0,0 -0.0452,-0.0235 m 0,0 -0.0491,-0.0196 m 0,0 -0.0511,-0.0137 m 0,0 -0.0511,-0.008 m 0,0 -0.0531,-0.002 m 0,0 -0.0511,0.002 m 0,0 -0.0531,0.008 m 0,0 -0.0491,0.0137 m 0,0 -0.0491,0.0196 m 0,0 -0.0472,0.0235 m 0,0 -0.0432,0.0274 m 0,0 -0.0413,0.0333 m 0.80397,0.1996 1.21872,3.33834 m -0.28109,0.40115 0.0393,-0.002 m 0,0 0.0374,-0.008 m 0,0 0.0373,-0.0117 m 0,0 0.0354,-0.0176 m 0,0 0.0334,-0.0215 m 0,0 0.0295,-0.0254 m 0,0 0.0255,-0.0313 m 0,0 0.0216,-0.0313 m 0,0 0.0177,-0.0352 m 0,0 0.0118,-0.0372 m 0,0 0.008,-0.0391 m 0,0 0.002,-0.0391 m 0,0 -0.002,-0.0391 m 0,0 -0.008,-0.0372 m 0,0 -0.008,-0.0254 m -0.28109,0.40115 h -0.35186 m 0,0 -0.0393,0.004 m 0,0 -0.0393,0.008 m 0,0 -0.0354,0.0117 m 0,0 -0.0354,0.0176 m 0,0 -0.0334,0.0215 m 0,0 -0.0295,0.0254 m 0,0 -0.0256,0.0293 m 0,0 -0.0216,0.0333 m 0,0 -0.0177,0.0352 m 0,0 -0.0118,0.0372 m 0,0 -0.008,0.0372 m 0,0 -0.004,0.0391 m 0,0 v 0.19959 m 0,0 0.004,0.0783 m 0,0 0.01,0.0783 m 0,0 0.0138,0.0763 m 0,0 0.0216,0.0763 m 0,0 0.0275,0.0724 m 0,0 0.0334,0.0724 m 0,0 0.0373,0.0665 m 0,0 0.0433,0.0665 m 0,0 0.0491,0.0607 m 0,0 0.0531,0.0587 m 0,0 0.059,0.0528 m 0,0 0.0609,0.047 m 0,0 0.0649,0.045 m 0,0 0.0688,0.0372 m 0,0 0.0708,0.0333 m 0,0 0.0747,0.0274 m 0,0 0.0747,0.0215 m 0,0 0.0786,0.0157 m 0,0 0.0767,0.008 m 0,0 0.0786,0.004 m 0,0 h 0.90028 m 0,0 0.0786,-0.004 m 0,0 0.0786,-0.008 m 0,0 0.0767,-0.0157 m 0,0 0.0747,-0.0215 m 0,0 0.0747,-0.0274 m 0,0 0.0708,-0.0333 m 0,0 0.0688,-0.0372 m 0,0 0.0649,-0.045 m 0,0 0.0629,-0.047 m 0,0 0.057,-0.0528 m 0,0 0.0531,-0.0587 m 0,0 0.0491,-0.0607 m 0,0 0.0432,-0.0665 m 0,0 0.0373,-0.0665 m 0,0 0.0334,-0.0724 m 0,0 0.0275,-0.0724 m 0,0 0.0216,-0.0763 m 0,0 0.0157,-0.0763 m 0,0 0.008,-0.0783 m 0,0 0.004,-0.0783 m 0,0 -0.004,-0.0783 m 0,0 -0.008,-0.0783 m 0,0 -0.0157,-0.0763 m 0,0 -0.0216,-0.0744 m 0,0 -0.0118,-0.0333 m 0,0 -3.76035,-10.30071 m 0,0 -0.0118,-0.0333 m 0,0 -0.0236,-0.047 m 0,0 -0.0295,-0.043 m 0,0 -0.0334,-0.0411 m 0,0 -0.0374,-0.0372 m 0,0 -0.0393,-0.0313 m 0,0 -0.0452,-0.0294 m 0,0 -0.0452,-0.0235 m 0,0 -0.0491,-0.0196 m 0,0 -0.0511,-0.0137 m 0,0 -0.0511,-0.008 m 0,0 -0.0531,-0.002 m 0,0 H 58.499988 m 0,0 -0.05111,0.002 m 0,0 -0.05307,0.008 m 0,0 -0.04914,0.0137 m 0,0 -0.04914,0.0196 m 0,0 -0.04718,0.0235 m 0,0 -0.04324,0.0294 m 0,0 -0.04128,0.0313 m 0,0 -0.03735,0.0372 m 0,0 -0.03342,0.0411 m 0,0 -0.02752,0.043 m 0,0 -0.02359,0.047 m 0,0 -0.01376,0.0333 m 0,0 -3.76035,10.30071 m 0,0 -0.0098,0.0333 m 0,0 -0.02162,0.0744 m 0,0 -0.01573,0.0763 m 0,0 -0.0098,0.0783 m 0,0 -0.002,0.0783 m 0,0 0.002,0.0783 m 0,0 0.0098,0.0783 m 0,0 0.01573,0.0763 m 0,0 0.02162,0.0763 m 0,0 0.02555,0.0724 m 0,0 0.03342,0.0724 m 0,0 0.03931,0.0665 m 0,0 0.04324,0.0665 m 0,0 0.04914,0.0607 m 0,0 0.05307,0.0587 m 0,0 0.05701,0.0528 m 0,0 0.06094,0.047 m 0,0 0.06683,0.045 m 0,0 0.06683,0.0372 m 0,0 0.07273,0.0333 m 0,0 0.07273,0.0274 m 0,0 0.07666,0.0215 m 0,0 0.07666,0.0157 m 0,0 0.07863,0.008 m 0,0 0.07666,0.004 m 0,0 h 0.900283 m 0,0 0.07863,-0.004 m 0,0 0.07863,-0.008 m 0,0 0.07666,-0.0157 m 0,0 0.07666,-0.0215 m 0,0 0.07273,-0.0274 m 0,0 0.07076,-0.0333 m 0,0 0.0688,-0.0372 m 0,0 0.06487,-0.045 m 0,0 0.0629,-0.047 m 0,0 0.05701,-0.0528 m 0,0 0.05307,-0.0587 m 0,0 0.04914,-0.0607 m 0,0 0.04325,-0.0665 m 0,0 0.03931,-0.0665 m 0,0 0.03145,-0.0724 m 0,0 0.02752,-0.0724 m 0,0 0.02162,-0.0763 m 0,0 0.01573,-0.0763 m 0,0 0.0098,-0.0783 m 0,0 0.002,-0.0783 m 0,0 v -0.19952 m 0,0 -0.002,-0.0391 m 0,0 -0.0079,-0.0372 m 0,0 -0.01179,-0.0372 m 0,0 -0.01769,-0.0352 m 0,0 -0.02162,-0.0333 m 0,0 -0.02752,-0.0294 m 0,0 -0.02949,-0.0254 m 0,0 -0.03145,-0.0215 m 0,0 -0.03538,-0.0176 m 0,0 -0.03735,-0.0117 m 0,0 -0.03931,-0.008 m 0,0 -0.03735,-0.004 m 0,0 H 56.45961 m -0.283058,-0.40115 -0.0079,0.0254 m 0,0 -0.0059,0.0372 m 0,0 -0.0039,0.0391 m 0,0 0.0039,0.0391 m 0,0 0.0059,0.0391 m 0,0 0.01376,0.0372 m 0,0 0.01769,0.0352 m 0,0 0.02162,0.0313 m 0,0 0.02555,0.0313 m 0,0 0.02949,0.0254 m 0,0 0.03342,0.0215 m 0,0 0.03538,0.0176 m 0,0 0.03538,0.0117 m 0,0 0.03931,0.008 m 0,0 0.03931,0.002 m -0.283061,-0.40122 1.218723,-3.33834 m 0.805929,-0.19959 -0.04128,-0.0333 m 0,0 -0.04324,-0.0274 m 0,0 -0.04718,-0.0235 m 0,0 -0.04914,-0.0196 m 0,0 -0.05111,-0.0137 m 0,0 -0.05111,-0.008 m 0,0 -0.05307,-0.002 m 0,0 -0.05111,0.002 m 0,0 -0.05307,0.008 m 0,0 -0.04914,0.0137 m 0,0 -0.04914,0.0196 m 0,0 -0.04718,0.0235 m 0,0 -0.04324,0.0274 m 0,0 -0.04128,0.0333 m 0,0 -0.03735,0.0372 m 0,0 -0.03145,0.0411 m 0,0 -0.02949,0.0431 m 0,0 -0.02359,0.047 m 0,0 -0.01376,0.0313 m 0.805928,-0.19959 0.133667,0.11545 m 0,0 0.135632,0.10371 m 0,0 0.143495,0.0978 m 0,0 0.147426,0.09 m 0,0 0.151357,0.0822 m 0,0 0.155289,0.0744 m 0,0 0.161186,0.0665 m 0,0 0.161186,0.0567 m 0,0 0.167083,0.0489 m 0,0 0.167083,0.0411 m 0,0 0.171015,0.0313 m 0,0 0.171014,0.0215 m 0,0 0.171015,0.0137 m 0,0 0.172979,0.004 m 0,0 0.17298,-0.004 m 0,0 0.08846,-0.006 m 0.538597,0.49703 -0.002,-0.0509 m 0,0 -0.0079,-0.0528 m 0,0 -0.01376,-0.0509 m 0,0 -0.01966,-0.0489 m 0,0 -0.02359,-0.045 m 0,0 -0.02752,-0.045 m 0,0 -0.03342,-0.0391 m 0,0 -0.03735,-0.0372 m 0,0 -0.04128,-0.0333 m 0,0 -0.04324,-0.0294 m 0,0 -0.04718,-0.0235 m 0,0 -0.04718,-0.0176 m 0,0 -0.05111,-0.0137 m 0,0 -0.05111,-0.008 m 0,0 -0.05307,-0.004 m 0,0 -0.03931,0.002 m 0.538597,0.49704 v 2.30513 m -0.298783,0.2994 0.03931,-0.002 m 0,0 0.03735,-0.008 m 0,0 0.03735,-0.0117 m 0,0 0.03538,-0.0176 m 0,0 0.03342,-0.0215 m 0,0 0.02949,-0.0254 m 0,0 0.02555,-0.0313 m 0,0 0.02162,-0.0313 m 0,0 0.01769,-0.0352 m 0,0 0.01179,-0.0372 m 0,0 0.0079,-0.0391 m 0,0 0.002,-0.0391 m -0.298783,0.29941 h -0.50125 m 0,0 -0.03931,0.004 m 0,0 -0.03735,0.008 m 0,0 -0.03735,0.0117 m 0,0 -0.03538,0.0176 m 0,0 -0.03342,0.0215 m 0,0 -0.02949,0.0254 m 0,0 -0.02555,0.0293 m 0,0 -0.02162,0.0333 m 0,0 -0.01769,0.0352 m 0,0 -0.01179,0.0372 m 0,0 -0.0079,0.0372 m 0,0 -0.002,0.0391 m 0,0 v 0.1996 m 0,0 0.002,0.0783 m 0,0 0.0098,0.0783 m 0,0 0.01573,0.0763 m 0,0 0.02162,0.0763 m 0,0 0.02555,0.0724 m 0,0 0.03342,0.0724 m 0,0 0.03931,0.0665 m 0,0 0.04324,0.0665 m 0,0 0.04914,0.0607 m 0,0 0.05307,0.0587 m 0,0 0.05701,0.0528 m 0,0 0.06094,0.047 m 0,0 0.06683,0.045 m 0,0 0.06683,0.0372 m 0,0 0.07273,0.0333 m 0,0 0.07273,0.0274 m 0,0 0.07666,0.0215 m 0,0 0.07666,0.0156 m 0,0 0.07863,0.008 m 0,0 0.07666,0.004 m 0,0 h 1.201032 m 0,0 0.05307,-0.004 m 0,0 0.05111,-0.008 m 0,0 0.05111,-0.0137 m 0,0 0.04914,-0.0176 m 0,0 0.04521,-0.0235 m 0,0 0.04521,-0.0293 m 0,0 0.03931,-0.0333 m 0,0 0.03735,-0.0372 m 0,0 0.03342,-0.0391 m 0,0 0.02752,-0.045 m 0,0 0.02359,-0.045 m 0,0 0.01966,-0.0489 m 0,0 0.01376,-0.0509 m 0,0 0.0079,-0.0509 m 0,0 0.002,-0.0528 m 0,0 v -5.85086 m 0,0 -0.002,-0.0391 m 0,0 -0.0079,-0.0372 m 0,0 -0.01179,-0.0372 m 0,0 -0.01769,-0.0352 m 0,0 -0.02162,-0.0333 m 0,0 -0.02555,-0.0294 m 0,0 -0.02948,-0.0254 m 0,0 -0.03342,-0.0215 m 0,0 -0.774478,-0.44615 m 0,0 -0.0098,-0.006 m 0,0 -0.02949,-0.0118 m 0,0 -0.02949,-0.008 m 0,0 -0.03145,-0.002 m 0,0 -0.03145,0.002 m 0,0 -0.03145,0.008 m 0,0 -0.02752,0.0118 m 0,0 -0.02752,0.0176 m 0,0 -0.02359,0.0196 m 0,0 -0.01966,0.0235 m -2.459069,-0.0431 0.03145,0.0431 m 0,0 0.07273,0.092 m 0,0 0.08059,0.0861 m 0,0 0.08649,0.0802 m 0,0 0.09239,0.0724 m 0,0 0.09828,0.0646 m 0,0 0.102215,0.0587 m 0,0 0.106147,0.0489 m 0,0 0.110079,0.0411 m 0,0 0.114009,0.0313 m 0,0 0.115975,0.0235 m 0,0 0.115976,0.0137 m 0,0 0.11794,0.004 m 0,0 0.117941,-0.004 m 0,0 0.117941,-0.0137 m 0,0 0.11401,-0.0235 m 0,0 0.11401,-0.0313 m 0,0 0.110078,-0.0411 m 0,0 0.108112,-0.0489 m 0,0 0.102216,-0.0587 m 0,0 0.09828,-0.0646 m 0,0 0.09239,-0.0724 m 0,0 0.08649,-0.0802 m 0,0 0.08059,-0.0861 m 0,0 0.07273,-0.092 m -2.459069,-0.0431 -0.02359,-0.0294 m 0,0 -0.02359,-0.0215 m 0,0 -0.02752,-0.0157 m 0,0 -0.02949,-0.0117 m 0,0 -0.02948,-0.008 m 0,0 -0.03145,-0.002 m 0,0 h -0.190698 m -0.2005,-0.19959 0.0039,0.0313 m 0,0 0.0059,0.0294 m 0,0 0.01376,0.0294 m 0,0 0.01572,0.0274 m 0,0 0.01966,0.0235 m 0,0 0.02359,0.0196 m 0,0 0.02752,0.0176 m 0,0 0.02949,0.0117 m 0,0 0.02949,0.006 m 0,0 0.03145,0.004 m -0.200501,-0.19959 v -1.09777 m 0.2005,-0.1996 -0.03145,0.002 m 0,0 -0.02948,0.008 m 0,0 -0.02949,0.0117 m 0,0 -0.02752,0.0176 m 0,0 -0.02359,0.0196 m 0,0 -0.01966,0.0235 m 0,0 -0.01573,0.0274 m 0,0 -0.01376,0.0293 m 0,0 -0.0059,0.0294 m 0,0 -0.0039,0.0313 m 0.200501,-0.1996 h 0.190671 m 0,0 0.03145,-0.002 m 0,0 0.02949,-0.008 m 0,0 0.02949,-0.0117 m 0,0 0.02752,-0.0157 m 0,0 0.02359,-0.0215 m 0,0 0.02359,-0.0293 m 2.459069,-0.0431 -0.07273,-0.092 m 0,0 -0.08059,-0.0861 m 0,0 -0.08649,-0.0802 m 0,0 -0.09239,-0.0724 m 0,0 -0.09828,-0.0646 m 0,0 -0.102216,-0.0587 m 0,0 -0.108112,-0.0489 m 0,0 -0.110078,-0.0411 m 0,0 -0.11401,-0.0313 m 0,0 -0.11401,-0.0235 m 0,0 -0.117941,-0.0137 m 0,0 -0.117941,-0.004 m 0,0 -0.11794,0.004 m 0,0 -0.115976,0.0137 m 0,0 -0.115975,0.0235 m 0,0 -0.114009,0.0313 m 0,0 -0.110079,0.0411 m 0,0 -0.106147,0.0489 m 0,0 -0.102215,0.0587 m 0,0 -0.09828,0.0646 m 0,0 -0.09239,0.0724 m 0,0 -0.08649,0.0802 m 0,0 -0.08059,0.0861 m 0,0 -0.07273,0.092 m 0,0 -0.03145,0.0431 m 2.459069,-0.0431 0.01966,0.0235 m 0,0 0.02359,0.0196 m 0,0 0.02752,0.0176 m 0,0 0.02752,0.0117 m 0,0 0.03145,0.006 m 0,0 0.03145,0.004 m 0,0 0.03145,-0.004 m 0,0 0.02949,-0.006 m 0,0 0.02949,-0.0117 m 0,0 0.0098,-0.006 m 0,0 0.275195,-0.1585 m 0,0 0.03145,-0.0215 m 0,0 0.02949,-0.0254 m 0,0 0.02555,-0.0293 m 0,0 0.02359,-0.0333 m 0,0 0.01573,-0.0352 m 0,0 0.01376,-0.0372 m 0,0 0.0079,-0.0372 m 0,0 0.002,-0.0391 m 0,0 v -0.15458 m 1.000532,-0.99798 -0.07863,0.004 m 0,0 -0.07863,0.01 m 0,0 -0.07666,0.0137 m 0,0 -0.0747,0.0215 m 0,0 -0.0747,0.0274 m 0,0 -0.07076,0.0333 m 0,0 -0.0688,0.0372 m 0,0 -0.06487,0.045 m 0,0 -0.0629,0.047 m 0,0 -0.057,0.0548 m 0,0 -0.05307,0.0567 m 0,0 -0.04914,0.0607 m 0,0 -0.04324,0.0665 m 0,0 -0.03931,0.0685 m 0,0 -0.03145,0.0704 m 0,0 -0.02752,0.0724 m 0,0 -0.02162,0.0763 m 0,0 -0.01573,0.0763 m 0,0 -0.0079,0.0783 m 0,0 -0.0039,0.0783 m 1.000533,-0.99797 h 9.901142 m 1.000532,0.99798 -0.0039,-0.0783 m 0,0 -0.0079,-0.0783 m 0,0 -0.01572,-0.0763 m 0,0 -0.02162,-0.0763 m 0,0 -0.02752,-0.0724 m 0,0 -0.03342,-0.0704 m 0,0 -0.03735,-0.0685 m 0,0 -0.04324,-0.0665 m 0,0 -0.04914,-0.0607 m 0,0 -0.05307,-0.0567 m 0,0 -0.05701,-0.0548 m 0,0 -0.0629,-0.047 m 0,0 -0.06487,-0.045 m 0,0 -0.0688,-0.0372 m 0,0 -0.07077,-0.0333 m 0,0 -0.0747,-0.0274 m 0,0 -0.0747,-0.0215 m 0,0 -0.07666,-0.0137 m 0,0 -0.07863,-0.01 m 0,0 -0.07863,-0.004 m 1.000532,0.99798 v 3.19158 m 0,0 h -3.701361 m 0,0 -0.09435,0.004 m 0,0 -0.09239,0.01 m 0,0 -0.09239,0.0196 m 0,0 -0.09042,0.0254 m 0,0 -0.08845,0.0313 m 0,0 -0.08649,0.0411 m 0,0 -0.08256,0.045 m 0,0 -0.07863,0.0528 m 0,0 -0.07273,0.0567 m 0,0 -0.0688,0.0646 m 0,0 -0.06487,0.0685 m 0,0 -0.05897,0.0744 m 0,0 -0.05111,0.0783 m 0,0 -0.04718,0.0822 m 0,0 -0.03931,0.0841 m 0,0 -0.03145,0.0881 m 0,0 -0.02555,0.092 m 0,0 -0.01966,0.092 m 0,0 -0.0098,0.092 m 0,0 -0.0039,0.0939 m 0,0 v 4.38915 m 0,0 0.0039,0.0939 m 0,0 0.0098,0.0939 m 0,0 0.01966,0.092 m 0,0 0.02555,0.09 m 0,0 0.03145,0.0881 m 0,0 0.03931,0.0861 m 0,0 0.04718,0.0822 m 0,0 0.05111,0.0763 m 0,0 0.05897,0.0744 m 0,0 0.06487,0.0685 m 0,0 0.0688,0.0646 m 0,0 0.07273,0.0587 m 0,0 0.07863,0.0509 m 0,0 0.08256,0.047 m 0,0 0.08649,0.0391 m 0,0 0.08845,0.0333 m 0,0 0.09042,0.0254 m 0,0 0.09239,0.0176 m 0,0 0.09239,0.0117 m 0,0 0.09435,0.004 m 0,0 h 0.91011 m 0,0 0.05111,-0.004 m 0,0 0.05111,-0.008 m 0,0 0.05111,-0.0137 m 0,0 0.04914,-0.0176 m 0,0 0.04718,-0.0254 m 0,0 0.04324,-0.0274 m 0,0 0.04128,-0.0333 m 0,0 0.03735,-0.0372 m 0,0 0.03145,-0.0391 m 0,0 0.02949,-0.045 m 0,0 0.01179,-0.0235 m 0,0 0.324337,-0.63401 m 0,0 0.01179,-0.0293 m 0,0 0.0079,-0.0294 m 0,0 0.002,-0.0313 m 0,0 -0.002,-0.0313 m 0,0 -0.0079,-0.0313 m 0,0 -0.01179,-0.0274 m 0,0 -0.01572,-0.0274 m 0,0 -0.01966,-0.0235 m 0,0 -0.02555,-0.0215 m 0,0 -0.02555,-0.0156 m 0,0 -0.02949,-0.0117 m 0,0 -0.03145,-0.008 m 0,0 -0.02949,-0.002 m 0,0 h -0.801999 m -0.499283,-0.49899 0.002,0.0528 m 0,0 0.0098,0.0509 m 0,0 0.01376,0.0509 m 0,0 0.01769,0.0489 m 0,0 0.02359,0.047 m 0,0 0.02949,0.043 m 0,0 0.03145,0.0411 m 0,0 0.03735,0.0372 m 0,0 0.04128,0.0313 m 0,0 0.04325,0.0293 m 0,0 0.04718,0.0235 m 0,0 0.04914,0.0176 m 0,0 0.05111,0.0137 m 0,0 0.05111,0.01 m 0,0 0.05111,0.002 m -0.499316,-0.49905 v -3.09178 m 0.499283,-0.49899 -0.05111,0.004 m 0,0 -0.05111,0.008 m 0,0 -0.05111,0.0137 m 0,0 -0.04914,0.0176 m 0,0 -0.04718,0.0235 m 0,0 -0.04325,0.0294 m 0,0 -0.04128,0.0333 m 0,0 -0.03735,0.0372 m 0,0 -0.03145,0.0391 m 0,0 -0.02949,0.045 m 0,0 -0.02359,0.047 m 0,0 -0.01769,0.047 m 0,0 -0.01376,0.0509 m 0,0 -0.0098,0.0528 m 0,0 -0.002,0.0509 m 0.499283,-0.49899 h 2.502314 m 0.499283,0.49899 -0.002,-0.0509 m 0,0 -0.0098,-0.0528 m 0,0 -0.01376,-0.0509 m 0,0 -0.01769,-0.047 m 0,0 -0.02359,-0.047 m 0,0 -0.02949,-0.045 m 0,0 -0.03145,-0.0391 m 0,0 -0.03735,-0.0372 m 0,0 -0.04128,-0.0333 m 0,0 -0.04324,-0.0294 m 0,0 -0.04718,-0.0235 m 0,0 -0.04914,-0.0176 m 0,0 -0.05111,-0.0137 m 0,0 -0.05111,-0.008 m 0,0 -0.05111,-0.004 m 0.499283,0.49899 v 0.7299 m 0,0 0.0039,0.0783 m 0,0 0.0079,0.0783 m 0,0 0.01572,0.0763 m 0,0 0.02162,0.0763 m 0,0 0.02752,0.0724 m 0,0 0.03145,0.0724 m 0,0 0.02555,0.045 m 0,0 3.799664,6.56318 m 0.06683,0.24852 -0.002,-0.0509 m 0,0 -0.0079,-0.0528 m 0,0 -0.01376,-0.0509 m 0,0 -0.01966,-0.047 m 0,0 -0.02359,-0.047 m 0.06683,0.24851 v 3.12896 m 0,0 0.0059,0.0939 m 0,0 0.01376,0.0939 m 0,0 0.02555,0.09 m 0,0 0.03342,0.0881 m 0,0 0.04324,0.0841 m 0,0 0.05111,0.0783 m 0,0 0.05897,0.0724 m 0,0 0.06683,0.0665 m 0,0 0.07273,0.0587 m 0,0 0.07863,0.0528 m 0,0 0.08452,0.0411 m 0,0 0.08846,0.0352 m 0,0 0.09042,0.0235 m 0,0 0.09239,0.0156 m 0,0 0.09435,0.004 m 0,0 h 0.100248 m 0,0 0.05308,-0.002 m 0,0 0.05111,-0.008 m 0,0 0.05111,-0.0137 m 0,0 0.04718,-0.0196 m 0,0 0.04718,-0.0235 m 0,0 0.04521,-0.0293 m 0,0 0.03931,-0.0313 m 0,0 0.03735,-0.0372 m 0,0 0.03342,-0.0411 m 0,0 0.02752,-0.043 m 0,0 0.02359,-0.047 m 0,0 0.01966,-0.0489 m 0,0 0.01376,-0.0509 m 0,0 0.0079,-0.0509 m 0,0 0.002,-0.0528 m 0,0 v -3.79428 m 0,0 -0.002,-0.0783 m 0,0 -0.0098,-0.0783 m 0,0 -0.01572,-0.0763 m 0,0 -0.01966,-0.0763 m 0,0 -0.02752,-0.0724 m 0,0 -0.03342,-0.0724 m 0,0 -0.02555,-0.045 m 0,0 -3.699413,-6.39098 m -0.06683,-0.24852 0.002,0.0528 m 0,0 0.0098,0.0509 m 0,0 0.01179,0.0509 m 0,0 0.01966,0.0489 m 0,0 0.02359,0.045 m -0.0668,-0.24847 v -1.49306 m 0.308612,-0.16828 -0.01769,-0.01 m 0,0 -0.02949,-0.0117 m 0,0 -0.02948,-0.008 m 0,0 -0.03145,-0.002 m 0,0 -0.03145,0.002 m 0,0 -0.03145,0.008 m 0,0 -0.02752,0.0117 m 0,0 -0.02752,0.0156 m 0,0 -0.02359,0.0196 m 0,0 -0.02162,0.0254 m 0,0 -0.01573,0.0254 m 0,0 -0.01179,0.0293 m 0,0 -0.0079,0.0313 m 0,0 -0.002,0.0313 m 0.308612,-0.16829 0.141529,0.0861 m 0,0 0.151358,0.0822 m 0,0 0.157254,0.0744 m 0,0 0.159221,0.0665 m 0,0 0.163151,0.0567 m 0,0 0.165117,0.0489 m 0,0 0.167083,0.0411 m 0,0 0.171015,0.0313 m 0,0 0.171014,0.0215 m 0,0 0.17298,0.0137 m 0,0 0.17298,0.004 m 0,0 0.171015,-0.004 m 0,0 0.17298,-0.0137 m 0,0 0.171014,-0.0215 m 0,0 0.171014,-0.0313 m 0,0 0.167083,-0.0411 m 0,0 0.165118,-0.0489 m 0,0 0.163151,-0.0567 m 0,0 0.11008,-0.045 m 0,0 0.06094,-0.0293 m 0,0 0.0688,-0.0372 m 0,0 0.06683,-0.043 m 0,0 0.06094,-0.0489 m 0,0 0.057,-0.0528 m 0,0 0.05307,-0.0587 m 0,0 0.04914,-0.0607 m 0,0 0.04324,-0.0646 m 0,0 0.03931,-0.0685 m 0,0 0.03342,-0.0724 m 0,0 0.02555,-0.0724 m 0,0 0.02162,-0.0763 m 0,0 0.01573,-0.0763 m 0,0 0.0098,-0.0783 m 0,0 0.002,-0.0783 m 0,0 v -0.86883 m 0,0 -0.002,-0.0391 m 0,0 -0.0079,-0.0372 m 0,0 -0.01179,-0.0372 m 0,0 -0.01769,-0.0352 m 0,0 -0.02162,-0.0333 m 0,0 -0.02556,-0.0293 m 0,0 -0.02948,-0.0254 m 0,0 -0.03342,-0.0215 m 0,0 -0.275193,-0.1585 m 0,0 -0.0098,-0.006 m 0,0 -0.02752,-0.0118 m 0,0 -0.03145,-0.008 m 0,0 -0.03145,-0.002 m 0,0 -0.03145,0.002 m 0,0 -0.02948,0.008 m 0,0 -0.02949,0.0118 m 0,0 -0.02752,0.0176 m 0,0 -0.02359,0.0196 m 0,0 -0.01966,0.0235 m -2.457103,-0.0431 0.02949,0.0431 m 0,0 0.07273,0.092 m 0,0 0.08059,0.0861 m 0,0 0.08649,0.0802 m 0,0 0.09239,0.0724 m 0,0 0.09828,0.0646 m 0,0 0.102215,0.0587 m 0,0 0.106147,0.0489 m 0,0 0.112044,0.0411 m 0,0 0.112044,0.0313 m 0,0 0.115975,0.0235 m 0,0 0.117941,0.0137 m 0,0 0.117941,0.004 m 0,0 0.115975,-0.004 m 0,0 0.117941,-0.0137 m 0,0 0.115976,-0.0235 m 0,0 0.112044,-0.0313 m 0,0 0.112043,-0.0411 m 0,0 0.106147,-0.0489 m 0,0 0.102216,-0.0587 m 0,0 0.09828,-0.0646 m 0,0 0.09239,-0.0724 m 0,0 0.08649,-0.0802 m 0,0 0.08059,-0.0861 m 0,0 0.07273,-0.092 m -2.457103,-0.0431 -0.02555,-0.0294 m 0,0 -0.02359,-0.0215 m 0,0 -0.02752,-0.0157 m 0,0 -0.02752,-0.0117 m 0,0 -0.03145,-0.008 m 0,0 -0.03145,-0.002 m 0,0 h -0.190671 m -0.198534,-0.19959 0.002,0.0313 m 0,0 0.0079,0.0294 m 0,0 0.01179,0.0293 m 0,0 0.01573,0.0274 m 0,0 0.01966,0.0235 m 0,0 0.02555,0.0196 m 0,0 0.02555,0.0176 m 0,0 0.02949,0.0117 m 0,0 0.03145,0.006 m 0,0 0.02948,0.004 m -0.198486,-0.19959 v -1.09777 m 0.198534,-0.1996 -0.02948,0.002 m 0,0 -0.03145,0.008 m 0,0 -0.02949,0.0117 m 0,0 -0.02555,0.0176 m 0,0 -0.02555,0.0196 m 0,0 -0.01966,0.0235 m 0,0 -0.01573,0.0274 m 0,0 -0.01179,0.0293 m 0,0 -0.0079,0.0294 m 0,0 -0.002,0.0313 m 0.198534,-0.1996 h 0.190671 m 0,0 0.03145,-0.002 m 0,0 0.03145,-0.008 m 0,0 0.02752,-0.0117 m 0,0 0.02752,-0.0157 m 0,0 0.02359,-0.0215 m 0,0 0.02555,-0.0293 m 2.457103,-0.0431 -0.07273,-0.092 m 0,0 -0.08059,-0.0861 m 0,0 -0.08649,-0.0802 m 0,0 -0.09239,-0.0724 m 0,0 -0.09828,-0.0646 m 0,0 -0.102216,-0.0587 m 0,0 -0.106147,-0.0489 m 0,0 -0.112043,-0.0411 m 0,0 -0.112044,-0.0313 m 0,0 -0.115976,-0.0235 m 0,0 -0.117941,-0.0137 m 0,0 -0.115975,-0.004 m 0,0 -0.117941,0.004 m 0,0 -0.117941,0.0137 m 0,0 -0.115975,0.0235 m 0,0 -0.112044,0.0313 m 0,0 -0.112044,0.0411 m 0,0 -0.106147,0.0489 m 0,0 -0.102215,0.0587 m 0,0 -0.09828,0.0646 m 0,0 -0.09239,0.0724 m 0,0 -0.08649,0.0802 m 0,0 -0.08059,0.0861 m 0,0 -0.07273,0.092 m 0,0 -0.02949,0.0431 m 2.457103,-0.0431 0.01966,0.0235 m 0,0 0.02359,0.0196 m 0,0 0.02752,0.0176 m 0,0 0.02949,0.0117 m 0,0 0.02948,0.006 m 0,0 0.03145,0.004 m 0,0 0.03145,-0.004 m 0,0 0.03145,-0.006 m 0,0 0.02752,-0.0117 m 0,0 0.0098,-0.006 m 0,0 0.275193,-0.1585 m 0,0 0.03342,-0.0215 m 0,0 0.02948,-0.0254 m 0,0 0.02556,-0.0294 m 0,0 0.02162,-0.0333 m 0,0 0.01769,-0.0352 m 0,0 0.01179,-0.0372 m 0,0 0.0079,-0.0372 m 0,0 0.002,-0.0391 m 0,0 v -0.65358 m 0.501247,-0.49899 -0.05307,0.004 m 0,0 -0.05111,0.008 m 0,0 -0.05111,0.0137 m 0,0 -0.04914,0.0176 m 0,0 -0.04521,0.0235 m 0,0 -0.04521,0.0293 m 0,0 -0.04128,0.0333 m 0,0 -0.03538,0.0372 m 0,0 -0.03342,0.0391 m 0,0 -0.02949,0.045 m 0,0 -0.02359,0.045 m 0,0 -0.01769,0.0489 m 0,0 -0.01376,0.0509 m 0,0 -0.0079,0.0509 m 0,0 -0.0039,0.0528 m 0.501247,-0.49899 h 9.201359 m 0.499282,0.49899 -0.002,-0.0528 m 0,0 -0.0079,-0.0509 m 0,0 -0.01376,-0.0509 m 0,0 -0.01966,-0.0489 m 0,0 -0.02359,-0.045 m 0,0 -0.02752,-0.045 m 0,0 -0.03342,-0.0391 m 0,0 -0.03735,-0.0372 m 0,0 -0.04128,-0.0333 m 0,0 -0.04324,-0.0293 m 0,0 -0.04718,-0.0235 m 0,0 -0.04914,-0.0176 m 0,0 -0.04914,-0.0137 m 0,0 -0.05307,-0.008 m 0,0 -0.05111,-0.004 m 0.499282,0.49899 v 0.65358 m 0,0 0.0039,0.0391 m 0,0 0.0059,0.0372 m 0,0 0.01376,0.0372 m 0,0 0.01769,0.0352 m 0,0 0.02162,0.0333 m 0,0 0.02555,0.0293 m 0,0 0.02949,0.0254 m 0,0 0.03341,0.0215 m 0,0 0.275196,0.1585 m 0,0 0.0079,0.006 m 0,0 0.02949,0.0118 m 0,0 0.03145,0.006 m 0,0 0.02949,0.004 m 0,0 0.03145,-0.004 m 0,0 0.03145,-0.006 m 0,0 0.02949,-0.0118 m 0,0 0.02555,-0.0176 m 0,0 0.02359,-0.0196 m 0,0 0.02162,-0.0235 m 2.457101,0.0431 -0.03145,-0.0431 m 0,0 -0.07273,-0.092 m 0,0 -0.07863,-0.0861 m 0,0 -0.08649,-0.0802 m 0,0 -0.09239,-0.0724 m 0,0 -0.09828,-0.0646 m 0,0 -0.104182,-0.0587 m 0,0 -0.106146,-0.0489 m 0,0 -0.110079,-0.0411 m 0,0 -0.114009,-0.0313 m 0,0 -0.115975,-0.0235 m 0,0 -0.115975,-0.0137 m 0,0 -0.117941,-0.004 m 0,0 -0.11794,0.004 m 0,0 -0.115978,0.0137 m 0,0 -0.115975,0.0235 m 0,0 -0.114009,0.0313 m 0,0 -0.110077,0.0411 m 0,0 -0.108114,0.0489 m 0,0 -0.102214,0.0587 m 0,0 -0.09828,0.0646 m 0,0 -0.09239,0.0724 m 0,0 -0.08649,0.0802 m 0,0 -0.07863,0.0861 m 0,0 -0.07273,0.092 m 2.457101,0.0431 0.02359,0.0293 m 0,0 0.02359,0.0215 m 0,0 0.02752,0.0157 m 0,0 0.02949,0.0117 m 0,0 0.02948,0.008 m 0,0 0.03145,0.002 m 0,0 h 0.190672 m 0.200499,0.19959 -0.002,-0.0313 m 0,0 -0.0079,-0.0294 m 0,0 -0.01179,-0.0293 m 0,0 -0.01769,-0.0274 m 0,0 -0.01966,-0.0235 m 0,0 -0.02359,-0.0196 m 0,0 -0.02752,-0.0176 m 0,0 -0.02752,-0.0117 m 0,0 -0.03145,-0.008 m 0,0 -0.03145,-0.002 m 0.200499,0.1996 v 1.09777 m -0.200499,0.1996 0.03145,-0.004 m 0,0 0.03145,-0.006 m 0,0 0.02752,-0.0117 m 0,0 0.02752,-0.0176 m 0,0 0.02359,-0.0196 m 0,0 0.01966,-0.0235 m 0,0 0.01769,-0.0274 m 0,0 0.01179,-0.0293 m 0,0 0.0079,-0.0294 m 0,0 0.002,-0.0313 m -0.200385,0.19959 h -0.190672 m 0,0 -0.03145,0.002 m 0,0 -0.02948,0.008 m 0,0 -0.02949,0.0117 m 0,0 -0.02752,0.0157 m 0,0 -0.02359,0.0215 m 0,0 -0.02359,0.0293 m -2.457101,0.0431 0.07273,0.092 m 0,0 0.07863,0.0861 m 0,0 0.08649,0.0802 m 0,0 0.09239,0.0724 m 0,0 0.09828,0.0646 m 0,0 0.102214,0.0587 m 0,0 0.108114,0.0489 m 0,0 0.110077,0.0411 m 0,0 0.114009,0.0313 m 0,0 0.115975,0.0235 m 0,0 0.115978,0.0137 m 0,0 0.11794,0.004 m 0,0 0.117941,-0.004 m 0,0 0.115975,-0.0137 m 0,0 0.115975,-0.0235 m 0,0 0.114009,-0.0313 m 0,0 0.110079,-0.0411 m 0,0 0.106146,-0.0489 m 0,0 0.104182,-0.0587 m 0,0 0.09828,-0.0646 m 0,0 0.09239,-0.0724 m 0,0 0.08649,-0.0802 m 0,0 0.07863,-0.0861 m 0,0 0.07273,-0.092 m 0,0 0.03145,-0.0431 m -2.457101,0.0431 -0.02162,-0.0235 m 0,0 -0.02359,-0.0196 m 0,0 -0.02555,-0.0176 m 0,0 -0.02949,-0.0117 m 0,0 -0.03145,-0.008 m 0,0 -0.03145,-0.002 m 0,0 -0.02949,0.002 m 0,0 -0.03145,0.008 m 0,0 -0.02949,0.0117 m 0,0 -0.0079,0.006 m 0,0 -0.275196,0.1585 m 0,0 -0.03341,0.0215 m 0,0 -0.02949,0.0254 m 0,0 -0.02555,0.0293 m 0,0 -0.02162,0.0333 m 0,0 -0.01769,0.0352 m 0,0 -0.01376,0.0372 m 0,0 -0.0059,0.0372 m 0,0 -0.0039,0.0391 m 0,0 v 0.86883 m 0,0 0.0039,0.0783 m 0,0 0.0079,0.0783 m 0,0 0.01573,0.0763 m 0,0 0.02162,0.0763 m 0,0 0.02752,0.0724 m 0,0 0.03342,0.0724 m 0,0 0.03735,0.0685 m 0,0 0.04324,0.0646 m 0,0 0.04914,0.0607 m 0,0 0.05308,0.0587 m 0,0 0.05897,0.0528 m 0,0 0.06094,0.0489 m 0,0 0.06487,0.043 m 0,0 0.0688,0.0372 m 0,0 0.0629,0.0293 m 0,0 0.108114,0.045 m 0,0 0.16315,0.0567 m 0,0 0.165119,0.0489 m 0,0 0.169047,0.0411 m 0,0 0.169051,0.0313 m 0,0 0.171013,0.0215 m 0,0 0.172979,0.0137 m 0,0 0.172982,0.004 m 0,0 0.17298,-0.004 m 0,0 0.171013,-0.0137 m 0,0 0.172982,-0.0215 m 0,0 0.169048,-0.0313 m 0,0 0.169047,-0.0411 m 0,0 0.165119,-0.0489 m 0,0 0.163152,-0.0567 m 0,0 0.159219,-0.0665 m 0,0 0.155289,-0.0744 m 0,0 0.153323,-0.0822 m 0,0 0.139563,-0.0861 m 0.308612,0.16829 -0.002,-0.0313 m 0,0 -0.0079,-0.0313 m 0,0 -0.01179,-0.0293 m 0,0 -0.01573,-0.0254 m 0,0 -0.01966,-0.0254 m 0,0 -0.02359,-0.0196 m 0,0 -0.02752,-0.0156 m 0,0 -0.02949,-0.0117 m 0,0 -0.02949,-0.008 m 0,0 -0.03145,-0.002 m 0,0 -0.03145,0.002 m 0,0 -0.03145,0.008 m 0,0 -0.02752,0.0117 m 0,0 -0.01966,0.01 m 0.308612,0.16828 v 1.49306 m -0.06683,0.24852 0.02359,-0.045 m 0,0 0.01966,-0.0489 m 0,0 0.01376,-0.0509 m 0,0 0.0079,-0.0509 m 0,0 0.002,-0.0528 m -0.06683,0.24852 -3.699412,6.39098 m 0,0 -0.02359,0.045 m 0,0 -0.03341,0.0724 m 0,0 -0.02752,0.0724 m 0,0 -0.02162,0.0763 m 0,0 -0.01572,0.0763 m 0,0 -0.0079,0.0783 m 0,0 -0.0039,0.0783 m 0,0 v 3.79428 m 0,0 0.002,0.0528 m 0,0 0.0098,0.0509 m 0,0 0.01376,0.0509 m 0,0 0.01769,0.0489 m 0,0 0.02359,0.047 m 0,0 0.02948,0.043 m 0,0 0.03145,0.0411 m 0,0 0.03735,0.0372 m 0,0 0.04128,0.0313 m 0,0 0.04325,0.0293 m 0,0 0.04718,0.0235 m 0,0 0.04914,0.0196 m 0,0 0.05111,0.0137 m 0,0 0.05111,0.008 m 0,0 0.05307,0.002 m 0,0 h 0.09828 m 0,0 0.09435,-0.004 m 0,0 0.09435,-0.0156 m 0,0 0.09042,-0.0235 m 0,0 0.08846,-0.0352 m 0,0 0.08256,-0.0411 m 0,0 0.08059,-0.0528 m 0,0 0.07273,-0.0587 m 0,0 0.06683,-0.0665 m 0,0 0.05897,-0.0724 m 0,0 0.05111,-0.0783 m 0,0 0.04324,-0.0841 m 0,0 0.03342,-0.0881 m 0,0 0.02359,-0.09 m 0,0 0.01573,-0.0939 m 0,0 0.0039,-0.0939 m 0,0 v -3.12896 m 0.06683,-0.24852 -0.02359,0.047 m 0,0 -0.01769,0.047 m 0,0 -0.01376,0.0509 m 0,0 -0.0079,0.0528 m 0,0 -0.0039,0.0509 m 0.06683,-0.24851 3.799666,-6.56319 m 0,0 0.02555,-0.045 m 0,0 0.03342,-0.0724 m 0,0 0.02752,-0.0724 m 0,0 0.02162,-0.0763 m 0,0 0.01376,-0.0763 m 0,0 0.0098,-0.0783 m 0,0 0.0039,-0.0783 m 0,0 v -0.72994 m 0.499285,-0.49899 -0.05307,0.004 m 0,0 -0.05111,0.008 m 0,0 -0.05111,0.0137 m 0,0 -0.04718,0.0176 m 0,0 -0.04718,0.0235 m 0,0 -0.04521,0.0294 m 0,0 -0.03931,0.0333 m 0,0 -0.03735,0.0372 m 0,0 -0.03342,0.0391 m 0,0 -0.02752,0.045 m 0,0 -0.02359,0.047 m 0,0 -0.01966,0.047 m 0,0 -0.01376,0.0509 m 0,0 -0.0079,0.0528 m 0,0 -0.002,0.0509 m 0.499285,-0.49899 h 2.500347 m 0.499284,0.49899 -0.002,-0.0509 m 0,0 -0.0079,-0.0528 m 0,0 -0.01376,-0.0509 m 0,0 -0.01966,-0.047 m 0,0 -0.02359,-0.047 m 0,0 -0.02752,-0.045 m 0,0 -0.03342,-0.0391 m 0,0 -0.03735,-0.0372 m 0,0 -0.03932,-0.0333 m 0,0 -0.04521,-0.0294 m 0,0 -0.04717,-0.0235 m 0,0 -0.04718,-0.0176 m 0,0 -0.05111,-0.0137 m 0,0 -0.05111,-0.008 m 0,0 -0.05307,-0.004 m 0.499284,0.49899 v 3.09178 m -0.499284,0.49899 0.05307,-0.002 m 0,0 0.05111,-0.01 m 0,0 0.05111,-0.0137 m 0,0 0.04718,-0.0176 m 0,0 0.04717,-0.0235 m 0,0 0.04521,-0.0293 m 0,0 0.03932,-0.0313 m 0,0 0.03735,-0.0372 m 0,0 0.03342,-0.0411 m 0,0 0.02752,-0.0431 m 0,0 0.02359,-0.047 m 0,0 0.01966,-0.0489 m 0,0 0.01376,-0.0509 m 0,0 0.0079,-0.0509 m 0,0 0.002,-0.0528 m -0.499284,0.49899 h -0.800031 m 0,0 -0.03145,0.002 m 0,0 -0.02949,0.008 m 0,0 -0.02948,0.0117 m 0,0 -0.02752,0.0157 m 0,0 -0.02359,0.0215 m 0,0 -0.01966,0.0235 m 0,0 -0.01769,0.0274 m 0,0 -0.01179,0.0274 m 0,0 -0.0079,0.0313 m 0,0 -0.002,0.0313 m 0,0 0.002,0.0313 m 0,0 0.0079,0.0293 m 0,0 0.01179,0.0294 m 0,0 0.324337,0.63401 m 0,0 0.01376,0.0235 m 0,0 0.02752,0.045 m 0,0 0.03342,0.0391 m 0,0 0.03735,0.0372 m 0,0 0.03931,0.0333 m 0,0 0.04521,0.0274 m 0,0 0.04521,0.0254 m 0,0 0.04914,0.0176 m 0,0 0.05111,0.0137 m 0,0 0.05111,0.008 m 0,0 0.05307,0.004 m 0,0 h 0.908145 m 0,0 0.09435,-0.004 m 0,0 0.09435,-0.0117 m 0,0 0.09239,-0.0176 m 0,0 0.09042,-0.0254 m 0,0 0.08845,-0.0333 m 0,0 0.08452,-0.0391 m 0,0 0.08256,-0.047 m 0,0 0.07863,-0.0509 m 0,0 0.0747,-0.0587 m 0,0 0.0688,-0.0646 m 0,0 0.0629,-0.0685 m 0,0 0.059,-0.0744 m 0,0 0.0531,-0.0763 m 0,0 0.0452,-0.0822 m 0,0 0.0393,-0.0861 m 0,0 0.0334,-0.0881 m 0,0 0.0256,-0.09 m 0,0 0.0177,-0.092 m 0,0 0.0118,-0.0939 m 0,0 0.004,-0.0939 m 0,0 v -4.38909 m 0,0 -0.004,-0.0939 m 0,0 -0.0118,-0.092 m 0,0 -0.0177,-0.092 m 0,0 -0.0256,-0.092 m 0,0 -0.0334,-0.0881 m 0,0 -0.0393,-0.0841 m 0,0 -0.0452,-0.0822 m 0,0 -0.0531,-0.0783 m 0,0 -0.059,-0.0744 m 0,0 -0.0629,-0.0685 m 0,0 -0.0688,-0.0646 m 0,0 -0.0747,-0.0567 m 0,0 -0.07863,-0.0528 m 0,0 -0.08256,-0.045 m 0,0 -0.08452,-0.0411 m 0,0 -0.08845,-0.0313 m 0,0 -0.09042,-0.0254 m 0,0 -0.09239,-0.0196 m 0,0 -0.09435,-0.01 m 0,0 -0.09435,-0.004 m 0,0 h -3.699415 m 0,0 v -0.88449 m 0,0 0.05897,-0.0646 m 0,0 0.04914,-0.0607 m 0,0 0.04324,-0.0646 m 0,0 0.03931,-0.0685 m 0,0 0.03145,-0.0724 m 0,0 0.02752,-0.0724 m 0,0 0.02162,-0.0763 m 0,0 0.01573,-0.0763 m 0,0 0.0098,-0.0783 m 0,0 0.002,-0.0783 m 0,0 -0.002,-0.0783 m 0,0 -0.0098,-0.0763 m 0,0 -0.01573,-0.0783 m 0,0 -0.02162,-0.0744 m 0,0 -0.02752,-0.0744 m 0,0 -0.03145,-0.0704 m 0,0 -0.03931,-0.0685 m 0,0 -0.04324,-0.0646 m 0,0 -0.04914,-0.0626 m 0,0 -0.05307,-0.0567 m 0,0 -0.0059,-0.008 m 0,0 v -0.88253"
       id="path1" />
  </g>
</svg>
