<?xml version="1.0" encoding="UTF-8" standalone="no"?>
<!-- Created with Inkscape (http://www.inkscape.org/) -->

<svg
   width="499.99973mm"
   height="262.44168mm"
   viewBox="0 0 499.99972 262.44168"
   version="1.1"
   id="svg1"
   xmlns="http://www.w3.org/2000/svg"
   xmlns:svg="http://www.w3.org/2000/svg">
  <defs
     id="defs1" />
  <g
     id="layer1"
     transform="translate(-1031.3879,171.08633)">
    <path
       style="fill:none;stroke:#000000;stroke-width:0.0215307px;stroke-linecap:round;stroke-linejoin:round;stroke-miterlimit:4;stroke-dasharray:none;stroke-opacity:1"
       d="m 1281.47,65.450583 v 25.893982 m -12.9603,-12.946869 h 25.9229"
       id="path1" />
    <path
       style="fill:none;stroke:#000000;stroke-width:12.8754px;stroke-linecap:round;stroke-linejoin:round;stroke-miterlimit:4;stroke-dasharray:none;stroke-opacity:1"
       d="m 1133.0585,-164.64863 h 296.823 m 0,0 0.9465,0.0485 m 0,0 0.9465,0.0971 m 0,0 0.9466,0.19416 m 0,0 0.9222,0.25726 m 0,0 0.8737,0.32279 m 0,0 0.8738,0.40774 m 0,0 0.8251,0.45142 m 0,0 0.801,0.5388 m 0,0 0.7523,0.60189 m 0,0 0.7039,0.64559 m 0,0 0.6553,0.68927 m 0,0 0.5824,0.75237 m 0,0 0.534,0.79606 m 0,0 0.4854,0.83974 m 0,0 0.3883,0.85916 m 0,0 0.2427,0.49511 m 0,0 83.324,228.529181 m 0,0 v 0.14562 m 0,0 0.2427,0.49511 m 0,0 v 0.516952 m 0,0 0.022,0.49511 m 0,0 -0.022,0.516952 m 0,0 v 0.49511 m 0,0 -0.2427,0.495109 m 0,0 -0.2427,0.473267 m 0,0 -0.2427,0.451423 m 0,0 -0.2912,0.42958 m 0,0 -0.3155,0.388322 m 0,0 -0.3641,0.366478 m 0,0 -0.3883,0.322792 m 0,0 -0.4369,0.279105 m 0,0 -0.4611,0.242701 m 0,0 -0.4854,0.169891 m 0,0 -0.4854,0.12135 m 0,0 -0.5097,0.09708 m 0,0 -0.4854,0.0216 m 0,0 h -477.2054 m 0,0 -0.5097,-0.0216 m 0,0 -0.4854,-0.09708 m 0,0 -0.4854,-0.12135 m 0,0 -0.4854,-0.169891 m 0,0 -0.4611,-0.242701 m 0,0 -0.4369,-0.279105 m 0,0 -0.3883,-0.322792 m 0,0 -0.3641,-0.366478 m 0,0 -0.3155,-0.388322 m 0,0 -0.2669,-0.42958 m 0,0 -0.2427,-0.451423 m 0,0 -0.2427,-0.473267 m 0,0 -0.2427,-0.495109 m 0,0 v -0.49511 m 0,0 -0.019,-0.516952 m 0,0 0.019,-0.49511 m 0,0 v -0.516952 m 0,0 0.2427,-0.49511 m 0,0 v -0.14562 m 0,0 83.324,-228.529181 m 0,0 0.2427,-0.49511 m 0,0 0.4126,-0.85916 m 0,0 0.4611,-0.83974 m 0,0 0.5097,-0.79606 m 0,0 0.6067,-0.75237 m 0,0 0.6553,-0.68927 m 0,0 0.7038,-0.64559 m 0,0 0.7281,-0.60189 m 0,0 0.801,-0.5388 m 0,0 0.8494,-0.45142 m 0,0 0.8495,-0.40774 m 0,0 0.898,-0.32279 m 0,0 0.9222,-0.25726 m 0,0 0.9223,-0.19416 m 0,0 0.9465,-0.0971 m 0,0 0.9708,-0.0485 m -49.5619,204.936489 29.6459,-81.31639 m 0,0 0.2427,-0.473266 m 0,0 0.3398,-0.68927 m 0,0 0.4126,-0.645584 m 0,0 0.4854,-0.580055 m 0,0 0.5339,-0.538795 m 0,0 0.5825,-0.49511 m 0,0 0.6553,-0.407737 m 0,0 0.6795,-0.344635 m 0,0 0.7039,-0.279106 m 0,0 0.7281,-0.19416 m 0,0 0.7524,-0.121351 m 0,0 0.7766,-0.04854 m 0,0 0.7524,0.04854 m 0,0 0.7523,0.121351 m 0,0 0.7524,0.19416 m 0,0 0.7038,0.279106 m 0,0 0.6553,0.344635 m 0,0 0.6553,0.407737 m 0,0 0.2427,0.145621 m 0,0 2.1358,1.592116 m 0,0 0.364,0.242701 m 0,0 0.4854,0.242701 m 0,0 0.4612,0.19416 m 0,0 0.4854,0.121351 m 0,0 0.4854,0.07281 m 0,0 0.5097,0.04854 m 0,0 0.4854,-0.04854 m 0,0 0.5096,-0.07281 m 0,0 0.4612,-0.121351 m 0,0 0.4854,-0.19416 m 0,0 0.4611,-0.242701 m 0,0 0.4126,-0.279106 m 0,0 0.4126,-0.300949 m 0,0 0.364,-0.366478 m 0,0 0.3155,-0.407737 m 0,0 0.267,-0.407737 m 0,0 11.0453,-19.097877 m 0,0 0.2427,-0.451423 m 0,0 0.2427,-0.473266 m 0,0 0.2427,-0.49511 m 0,0 v -0.495109 m 0,0 0.022,-0.516953 m 0,0 -0.022,-0.495109 m 0,0 v -0.516953 m 0,0 -0.2427,-0.495109 m 0,0 -0.2427,-0.473267 m 0,0 -0.2427,-0.451423 m 0,0 -0.2912,-0.42958 m 0,0 -0.3155,-0.388321 m 0,0 -0.3398,-0.366478 m 0,0 -0.2427,-0.145621 m 0,0 -0.9466,-0.817901 m 0,0 -0.9708,-0.902847 m 0,0 -0.9222,-0.968376 m 0,0 -0.8495,-1.031478 m 0,0 -0.8252,-1.053321 m 0,0 -0.7523,-1.097007 m 0,0 -0.7039,-1.140694 m 0,0 -0.631,-1.181952 m 0,0 -0.5825,-1.203796 m 0,0 -0.5096,-1.225638 m 0,0 -0.4369,-1.269325 m 0,0 -0.3883,-1.269325 m 0,0 -0.3155,-1.310584 m 0,0 -0.2427,-1.31301 m 0,0 -0.2427,-1.313011 m 0,0 v -1.332427 m 0,0 v -1.332427 m 0,0 v -1.35427 m 0,0 v -1.310584 m 0,0 0.2427,-1.334854 m 0,0 0.2427,-1.310584 m 0,0 0.3155,-1.310584 m 0,0 0.3883,-1.269324 m 0,0 0.4369,-1.269325 m 0,0 0.5096,-1.225639 m 0,0 0.5825,-1.203798 m 0,0 0.631,-1.18195 m 0,0 0.7039,-1.14069 m 0,0 0.7523,-1.09701 m 0,0 0.8252,-1.05332 m 0,0 0.8495,-1.01206 m 0,0 0.9222,-0.96838 m 0,0 0.9708,-0.92469 m 0,0 1.0437,-0.881 m 0,0 1.0436,-0.79606 m 0,0 1.0921,-0.77422 m 0,0 1.1407,-0.68684 m 0,0 1.1893,-0.64558 m 0,0 1.2135,-0.55821 m 0,0 1.2377,-0.51696 m 0,0 1.2621,-0.45142 m 0,0 1.262,-0.38832 m 0,0 1.3106,-0.30095 m 0,0 1.3106,-0.2427 m 0,0 1.3348,-0.19416 m 0,0 1.3349,-0.0971 m 0,0 1.3348,-0.0485 m 0,0 1.3349,0.0485 m 0,0 1.3349,0.0971 m 0,0 1.3348,0.19416 m 0,0 1.3106,0.2427 m 0,0 1.2863,0.30095 m 0,0 1.2863,0.38832 m 0,0 1.2378,0.45142 m 0,0 1.262,0.51696 m 0,0 1.2135,0.55821 m 0,0 1.165,0.64558 m 0,0 1.1407,0.68684 m 0,0 1.1164,0.77422 m 0,0 1.0436,0.79606 m 0,0 1.0194,0.881 m 0,0 0.9708,0.92469 m 0,0 0.9222,0.96838 m 0,0 0.8738,1.01206 m 0,0 0.8009,1.05332 m 0,0 0.7766,1.09701 m 0,0 0.6796,1.14069 m 0,0 0.6553,1.18195 m 0,0 0.5582,1.203798 m 0,0 0.5097,1.225639 m 0,0 0.4611,1.269325 m 0,0 0.3883,1.269324 m 0,0 0.3155,1.310584 m 0,0 0.267,1.310584 m 0,0 0.2427,1.334854 m 0,0 v 1.310584 m 0,0 v 1.35427 m 0,0 v 1.332427 m 0,0 v 1.332427 m 0,0 -0.2427,1.313011 m 0,0 -0.267,1.31301 m 0,0 -0.3155,1.310584 m 0,0 -0.3883,1.269325 m 0,0 -0.4611,1.269325 m 0,0 -0.5097,1.225638 m 0,0 -0.5582,1.203796 m 0,0 -0.6553,1.181952 m 0,0 -0.6796,1.140694 m 0,0 -0.7766,1.097007 m 0,0 -0.8009,1.053321 m 0,0 -0.8738,1.031478 m 0,0 -0.9222,0.968376 m 0,0 -0.9708,0.902847 m 0,0 -0.9466,0.817901 m 0,0 -0.2427,0.145621 m 0,0 -0.364,0.366478 m 0,0 -0.3155,0.388321 m 0,0 -0.2913,0.42958 m 0,0 -0.2427,0.451423 m 0,0 -0.2427,0.473267 m 0,0 -0.2427,0.495109 m 0,0 v 0.516953 m 0,0 -0.022,0.495109 m 0,0 0.022,0.516953 m 0,0 v 0.495109 m 0,0 0.2427,0.49511 m 0,0 0.2427,0.473266 m 0,0 0.2427,0.451423 m 0,0 9.6692,16.710673 m 0,0 0.4369,0.645584 m 0,0 0.4611,0.601897 m 0,0 0.534,0.538796 m 0,0 0.6067,0.473266 m 0,0 0.6553,0.407738 m 0,0 0.6796,0.366478 m 0,0 0.7038,0.257262 m 0,0 0.7524,0.194161 m 0,0 0.7524,0.12135 m 0,0 0.7523,0.04854 m 0,0 0.7767,-0.04854 m 0,0 0.7523,-0.12135 m 0,0 0.7281,-0.194161 m 0,0 0.7039,-0.257262 m 0,0 0.6795,-0.366478 m 0,0 0.6553,-0.407738 m 0,0 0.2427,-0.19416 m 0,0 0.4612,-0.366478 m 0,0 1.1649,-0.946533 m 0,0 1.1164,-0.990219 m 0,0 1.0922,-1.009635 m 0,0 1.0679,-1.053321 m 0,0 1.0436,-1.053321 m 0,0 1.0436,-1.097007 m 0,0 0.9708,-1.140694 m 0,0 0.9708,-1.140693 m 0,0 0.9223,-1.181953 m 0,0 0.898,-1.181952 m 0,0 0.8737,-1.225639 m 0,0 0.8252,-1.247481 m 0,0 0.4126,-0.623741 m 0,0 0.2912,-0.407737 m 0,0 0.4854,-0.580055 m 0,0 0.534,-0.538796 m 0,0 0.6067,-0.495109 m 0,0 0.6553,-0.407737 m 0,0 0.6553,-0.344635 m 0,0 0.7038,-0.279106 m 0,0 0.7524,-0.194161 m 0,0 0.7524,-0.12135 m 0,0 0.7523,-0.04854 m 0,0 0.7767,0.04854 m 0,0 0.7524,0.12135 m 0,0 0.7281,0.194161 m 0,0 0.7038,0.279106 m 0,0 0.6795,0.344635 m 0,0 0.6553,0.407737 m 0,0 0.5825,0.495109 m 0,0 0.534,0.538796 m 0,0 0.5096,0.580055 m 0,0 0.4126,0.645583 m 0,0 0.2427,0.322792 m 0,0 0.7524,1.4198 m 0,0 0.8737,1.570273 m 0,0 0.898,1.526588 m 0,0 0.9465,1.504744 m 0,0 0.9951,1.482902 m 0,0 1.0436,1.441642 m 0,0 1.0679,1.441642 m 0,0 1.0922,1.397956 m 0,0 0.6067,0.730529 m 0,0 0.2427,0.194161 m 0,0 0.5582,0.558212 m 0,0 0.5825,0.473266 m 0,0 0.6553,0.407737 m 0,0 0.6796,0.344635 m 0,0 0.7038,0.279106 m 0,0 0.7281,0.194161 m 0,0 0.7524,0.12135 m 0,0 0.7766,0.04854 m 0,0 h 15.8459 m 0,0 0.7524,-0.04854 m 0,0 0.7524,-0.12135 m 0,0 0.7281,-0.194161 m 0,0 0.7281,-0.279106 m 0,0 0.6553,-0.344635 m 0,0 0.6553,-0.407737 m 0,0 0.6067,-0.473266 m 0,0 0.534,-0.558212 m 0,0 0.4611,-0.580055 m 0,0 0.4126,-0.645584 m 0,0 4.0482,-6.98978 m 0,0 0.2427,-0.451424 m 0,0 0.2427,-0.473266 m 0,0 0.2427,-0.495109 m 0,0 v -0.516953 m 0,0 v -0.495109 m 0,0 v -0.516953 m 0,0 v -0.495109 m 0,0 -0.2427,-0.49511 m 0,0 -0.2427,-0.473266 m 0,0 -0.2427,-0.451424 m 0,0 -0.2912,-0.42958 m 0,0 -0.2912,-0.388321 m 0,0 -0.3641,-0.366478 m 0,0 -0.3398,-0.279106 m 0,0 -1.1407,-0.881004 m 0,0 -1.4319,-1.247481 m 0,0 -1.4077,-1.310584 m 0,0 -1.3105,-1.376113 m 0,0 -1.2378,-1.463485 m 0,0 -1.165,-1.504745 m 0,0 -1.0921,-1.570274 m 0,0 -0.9951,-1.635802 m 0,0 -0.898,-1.677062 m 0,0 -0.8495,-1.720748 m 0,0 -0.7281,-1.764435 m 0,0 -0.631,-1.805693 m 0,0 -0.5582,-1.827536 m 0,0 -0.4369,-1.84938 m 0,0 -0.3397,-1.871222 m 0,0 -0.267,-1.893066 m 0,0 -0.2427,-1.914908 m 0,0 v -1.893066 m 0,0 v -1.914909 m 0,0 0.2427,-1.914908 m 0,0 0.267,-1.893066 m 0,0 0.3397,-1.871222 m 0,0 0.4369,-1.84938 m 0,0 0.5582,-1.827541 m 0,0 0.631,-1.80569 m 0,0 0.7281,-1.76443 m 0,0 0.8495,-1.72075 m 0,0 0.898,-1.67706 m 0,0 0.9951,-1.63338 m 0,0 1.0921,-1.57027 m 0,0 1.165,-1.50475 m 0,0 1.2378,-1.46348 m 0,0 1.3105,-1.37612 m 0,0 1.4077,-1.31301 m 0,0 1.4319,-1.24748 m 0,0 1.5291,-1.16253 m 0,0 1.0436,-0.73053 m 0,0 0.2427,-0.0971 m 0,0 0.3883,-0.3228 m 0,0 0.364,-0.34463 m 0,0 0.3155,-0.40774 m 0,0 0.267,-0.42958 m 0,0 0.2427,-0.45142 m 0,0 0.2427,-0.47327 m 0,0 0.2427,-0.49511 m 0,0 v -0.49511 m 0,0 0.022,-0.51695 m 0,0 v -9.48426 m 0,0 0.019,-0.49511 m 0,0 v -0.51695 m 0,0 0.2427,-0.47327 m 0,0 0.2427,-0.49511 m 0,0 0.2427,-0.45142 m 0,0 0.2912,-0.40774 m 0,0 0.3155,-0.40773 m 0,0 0.3641,-0.36648 m 0,0 0.3883,-0.30095 m 0,0 0.4369,-0.27911 m 0,0 0.4611,-0.2427 m 0,0 0.4611,-0.19416 m 0,0 0.5097,-0.12135 m 0,0 0.4854,-0.0728 m 0,0 0.5097,-0.0485 m 0,0 h 26.7844 m 0,0 0.4854,0.0485 m 0,0 0.5097,0.0728 m 0,0 0.4854,0.12135 m 0,0 0.4854,0.19416 m 0,0 0.4611,0.2427 m 0,0 0.4369,0.27911 m 0,0 0.3883,0.30095 m 0,0 0.3641,0.36648 m 0,0 0.3155,0.40773 m 0,0 0.2669,0.40774 m 0,0 0.2427,0.45142 m 0,0 0.2427,0.49511 m 0,0 0.2428,0.47327 m 0,0 v 0.51695 m 0,0 0.022,0.49511 m 0,0 v 9.48426 m 0,0 0.022,0.51695 m 0,0 v 0.49511 m 0,0 0.2427,0.49511 m 0,0 0.2427,0.47327 m 0,0 0.2427,0.45142 m 0,0 0.2913,0.42958 m 0,0 0.3155,0.40774 m 0,0 0.364,0.34463 m 0,0 0.3884,0.3228 m 0,0 0.2427,0.0971 m 0,0 1.0436,0.73053 m 0,0 1.5047,1.16253 m 0,0 1.4562,1.24748 m 0,0 1.3834,1.31301 m 0,0 1.3106,1.37612 m 0,0 1.262,1.46348 m 0,0 1.165,1.50475 m 0,0 1.0679,1.57027 m 0,0 1.0193,1.63338 m 0,0 0.898,1.67706 m 0,0 0.8252,1.72075 m 0,0 0.7281,1.76443 m 0,0 0.6553,1.80569 m 0,0 0.5339,1.827541 m 0,0 0.4612,1.84938 m 0,0 0.3398,1.871222 m 0,0 0.2669,1.893066 m 0,0 0.2427,1.914908 m 0,0 v 1.914909 m 0,0 v 1.893066 m 0,0 -0.2427,1.914908 m 0,0 -0.2669,1.893066 m 0,0 -0.3398,1.871222 m 0,0 -0.4612,1.84938 m 0,0 -0.5339,1.827536 m 0,0 -0.6553,1.805693 m 0,0 -0.7281,1.764435 m 0,0 -0.8252,1.720748 m 0,0 -0.898,1.677062 m 0,0 -1.0193,1.635802 m 0,0 -1.0679,1.570274 m 0,0 -1.165,1.504745 m 0,0 -1.262,1.463485 m 0,0 -1.3106,1.376113 m 0,0 -1.3834,1.310584 m 0,0 -1.4562,1.247481 m 0,0 -1.1164,0.881004 m 0,0 -0.3398,0.279106 m 0,0 -0.364,0.366478 m 0,0 -0.3155,0.388321 m 0,0 -0.267,0.42958 m 0,0 -0.2427,0.451424 m 0,0 -0.2427,0.473266 m 0,0 -0.2427,0.49511 m 0,0 v 0.495109 m 0,0 -0.019,0.516953 m 0,0 0.019,0.495109 m 0,0 v 0.516953 m 0,0 0.2427,0.495109 m 0,0 0.2427,0.473266 m 0,0 0.2427,0.451424 m 0,0 4.0458,6.98978 m 0,0 0.4369,0.645584 m 0,0 0.4854,0.580055 m 0,0 0.5339,0.558212 m 0,0 0.6068,0.473266 m 0,0 0.6553,0.407737 m 0,0 0.6552,0.344635 m 0,0 0.7039,0.279106 m 0,0 0.7523,0.194161 m 0,0 0.7524,0.12135 m 0,0 0.7524,0.04854 m 0,0 h 15.8459 m 0,0 0.7767,-0.04854 m 0,0 0.7523,-0.12135 m 0,0 0.7281,-0.194161 m 0,0 0.7039,-0.279106 m 0,0 0.6795,-0.344635 m 0,0 0.6553,-0.407737 m 0,0 0.5825,-0.473266 m 0,0 0.5339,-0.558212 m 0,0 0.2427,-0.194161 m 0,0 0.6068,-0.730529 m 0,0 1.0922,-1.397956 m 0,0 1.0436,-1.441642 m 0,0 1.0436,-1.441642 m 0,0 0.9951,-1.482902 m 0,0 0.9708,-1.504744 m 0,0 0.8979,-1.526588 m 0,0 0.8495,-1.570273 m 0,0 0.7766,-1.4198 m 0,0 0.2427,-0.322792 m 0,0 0.4126,-0.645583 m 0,0 0.4612,-0.580055 m 0,0 0.5582,-0.538796 m 0,0 0.5825,-0.495109 m 0,0 0.6553,-0.407737 m 0,0 0.6795,-0.344635 m 0,0 0.7038,-0.279106 m 0,0 0.7281,-0.194161 m 0,0 0.7524,-0.12135 m 0,0 0.7767,-0.04854 m 0,0 0.7523,0.04854 m 0,0 0.7524,0.12135 m 0,0 0.7281,0.194161 m 0,0 0.7281,0.279106 m 0,0 0.6553,0.344635 m 0,0 0.6553,0.407737 m 0,0 0.6067,0.495109 m 0,0 0.534,0.538796 m 0,0 0.4854,0.580055 m 0,0 0.267,0.407737 m 0,0 0.4126,0.623741 m 0,0 0.8494,1.247481 m 0,0 0.8495,1.225639 m 0,0 0.898,1.181952 m 0,0 0.9222,1.181953 m 0,0 0.9465,1.140693 m 0,0 0.9951,1.140694 m 0,0 1.0194,1.097007 m 0,0 1.0436,1.053321 m 0,0 1.0679,1.053321 m 0,0 1.0921,1.009635 m 0,0 1.1164,0.990219 m 0,0 1.165,0.946533 m 0,0 0.4611,0.366478 m 0,0 0.2427,0.19416 m 0,0 0.6553,0.407738 m 0,0 0.6796,0.366478 m 0,0 0.7038,0.257262 m 0,0 0.7281,0.194161 m 0,0 0.7524,0.12135 m 0,0 0.7766,0.04854 m 0,0 0.7524,-0.04854 m 0,0 0.7524,-0.12135 m 0,0 0.7281,-0.194161 m 0,0 0.7281,-0.257262 m 0,0 0.6795,-0.366478 m 0,0 0.6553,-0.407738 m 0,0 0.6068,-0.473266 m 0,0 0.5339,-0.538796 m 0,0 0.4854,-0.601897 m 0,0 0.4126,-0.645584 m 0,0 9.6692,-16.710673 m 0,0 0.2427,-0.451423 m 0,0 0.2427,-0.473266 m 0,0 0.2427,-0.49511 m 0,0 v -0.495109 m 0,0 v -0.516953 m 0,0 v -0.495109 m 0,0 v -0.516953 m 0,0 -0.2427,-0.495109 m 0,0 -0.2427,-0.473267 m 0,0 -0.2427,-0.451423 m 0,0 -0.2912,-0.42958 m 0,0 -0.2913,-0.388321 m 0,0 -0.364,-0.366478 m 0,0 -0.2427,-0.145621 m 0,0 -0.9465,-0.817901 m 0,0 -0.9709,-0.902847 m 0,0 -0.8979,-0.968376 m 0,0 -0.8738,-1.031478 m 0,0 -0.8251,-1.053321 m 0,0 -0.7524,-1.097007 m 0,0 -0.6796,-1.140694 m 0,0 -0.6553,-1.181952 m 0,0 -0.5825,-1.203796 m 0,0 -0.5096,-1.225638 m 0,0 -0.4369,-1.269325 m 0,0 -0.3883,-1.269325 m 0,0 -0.2913,-1.310584 m 0,0 -0.2669,-1.31301 m 0,0 -0.2427,-1.313011 m 0,0 v -1.332427 m 0,0 -0.019,-1.332427 m 0,0 0.019,-1.35427 m 0,0 v -1.310584 m 0,0 0.2427,-1.334854 m 0,0 0.2669,-1.310584 m 0,0 0.2913,-1.310584 m 0,0 0.3883,-1.269324 m 0,0 0.4369,-1.269325 m 0,0 0.5096,-1.225639 m 0,0 0.5825,-1.203798 m 0,0 0.6553,-1.18195 m 0,0 0.6796,-1.14069 m 0,0 0.7524,-1.09701 m 0,0 0.8251,-1.05332 m 0,0 0.8738,-1.01206 m 0,0 0.8979,-0.96838 m 0,0 0.9709,-0.92469 m 0,0 1.0436,-0.881 m 0,0 1.0436,-0.79606 m 0,0 1.0921,-0.77422 m 0,0 1.1407,-0.68684 m 0,0 1.1893,-0.64558 m 0,0 1.2135,-0.55821 m 0,0 1.2377,-0.51696 m 0,0 1.2621,-0.45142 m 0,0 1.2863,-0.38832 m 0,0 1.2863,-0.30095 m 0,0 1.3106,-0.2427 m 0,0 1.3348,-0.19416 m 0,0 1.3349,-0.0971 m 0,0 1.3349,-0.0485 m 0,0 1.3348,0.0485 m 0,0 1.3349,0.0971 m 0,0 1.3348,0.19416 m 0,0 1.3106,0.2427 m 0,0 1.2863,0.30095 m 0,0 1.2863,0.38832 m 0,0 1.2621,0.45142 m 0,0 1.2377,0.51696 m 0,0 1.2135,0.55821 m 0,0 1.1893,0.64558 m 0,0 1.1407,0.68684 m 0,0 1.0921,0.77422 m 0,0 1.0436,0.79606 m 0,0 1.0194,0.881 m 0,0 0.9951,0.92469 m 0,0 0.8979,0.96838 m 0,0 0.8738,1.01206 m 0,0 0.8252,1.05332 m 0,0 0.7523,1.09701 m 0,0 0.6796,1.14069 m 0,0 0.6553,1.18195 m 0,0 0.5825,1.203798 m 0,0 0.4854,1.225639 m 0,0 0.4611,1.269325 m 0,0 0.3883,1.269324 m 0,0 0.2913,1.310584 m 0,0 0.2669,1.310584 m 0,0 0.2427,1.334854 m 0,0 v 1.310584 m 0,0 0.022,1.35427 m 0,0 -0.022,1.332427 m 0,0 v 1.332427 m 0,0 -0.2427,1.313011 m 0,0 -0.2669,1.31301 m 0,0 -0.2913,1.310584 m 0,0 -0.3883,1.269325 m 0,0 -0.4611,1.269325 m 0,0 -0.4854,1.225638 m 0,0 -0.5825,1.203796 m 0,0 -0.6553,1.181952 m 0,0 -0.6796,1.140694 m 0,0 -0.7523,1.097007 m 0,0 -0.8252,1.053321 m 0,0 -0.8738,1.031478 m 0,0 -0.8979,0.968376 m 0,0 -0.9951,0.902847 m 0,0 -0.9223,0.817901 m 0,0 -0.2427,0.145621 m 0,0 -0.364,0.366478 m 0,0 -0.3155,0.388321 m 0,0 -0.2913,0.42958 m 0,0 -0.2427,0.451423 m 0,0 -0.2427,0.473267 m 0,0 -0.2427,0.495109 m 0,0 v 0.516953 m 0,0 v 0.495109 m 0,0 v 0.516953 m 0,0 v 0.495109 m 0,0 0.2427,0.49511 m 0,0 0.2427,0.473266 m 0,0 0.2427,0.451423 m 0,0 11.0235,19.097877 m 0,0 0.267,0.407737 m 0,0 0.3155,0.407737 m 0,0 0.364,0.366478 m 0,0 0.3883,0.300949 m 0,0 0.4369,0.279106 m 0,0 0.4611,0.242701 m 0,0 0.4612,0.19416 m 0,0 0.4854,0.121351 m 0,0 0.5096,0.07281 m 0,0 0.4854,0.04854 m 0,0 0.5097,-0.04854 m 0,0 0.4854,-0.07281 m 0,0 0.4854,-0.121351 m 0,0 0.4854,-0.19416 m 0,0 0.4611,-0.242701 m 0,0 0.3884,-0.242701 m 0,0 2.1357,-1.592116 m 0,0 0.2427,-0.145621 m 0,0 0.6311,-0.407737 m 0,0 0.6795,-0.344635 m 0,0 0.7038,-0.279106 m 0,0 0.7281,-0.19416 m 0,0 0.7524,-0.121351 m 0,0 0.7767,-0.04854 m 0,0 0.7523,0.04854 m 0,0 0.7524,0.121351 m 0,0 0.7524,0.19416 m 0,0 0.7038,0.279106 m 0,0 0.6796,0.344635 m 0,0 0.631,0.407737 m 0,0 0.6067,0.49511 m 0,0 0.534,0.538795 m 0,0 0.4854,0.580055 m 0,0 0.4369,0.645584 m 0,0 0.3397,0.68927 m 0,0 0.2427,0.473266 m 0,0 29.6484,81.31639 m 0,0 v 0.14562 m 0,0 0.2427,0.49511 m 0,0 v 0.495109 m 0,0 0.019,0.516953 m 0,0 -0.019,0.516952 m 0,0 v 0.49511 m 0,0 -0.2427,0.495109 m 0,0 -0.2427,0.473266 m 0,0 -0.2427,0.451424 m 0,0 -0.2913,0.42958 m 0,0 -0.3155,0.388321 m 0,0 -0.3398,0.366478 m 0,0 -0.4126,0.322792 m 0,0 -0.4368,0.279106 m 0,0 -0.4612,0.218431 m 0,0 -0.4611,0.19416 m 0,0 -0.4854,0.121351 m 0,0 -0.4854,0.09708 m 0,0 -0.5097,0.0216 m 0,0 h -387.0761 m 0,0 -0.4854,-0.0216 m 0,0 -0.5096,-0.09708 m 0,0 -0.4612,-0.121351 m 0,0 -0.4854,-0.19416 m 0,0 -0.4611,-0.218431 m 0,0 -0.4369,-0.279106 m 0,0 -0.3883,-0.322792 m 0,0 -0.364,-0.366478 m 0,0 -0.3155,-0.388321 m 0,0 -0.267,-0.42958 m 0,0 -0.2427,-0.451424 m 0,0 -0.2427,-0.473266 m 0,0 -0.2427,-0.495109 m 0,0 v -0.49511 m 0,0 v -0.516952 m 0,0 v -0.516953 m 0,0 v -0.495109 m 0,0 0.2427,-0.49511 m 0,0 v -0.14562"
       id="path2" />
    <path
       style="fill:none;stroke:#000000;stroke-width:0.0215307px;stroke-linecap:round;stroke-linejoin:round;stroke-miterlimit:4;stroke-dasharray:none;stroke-opacity:1"
       d="m 1446.1812,-127.78627 -10.3342,-10.30167 m -10.3147,-10.32304 -10.3342,-10.30167 m 56.7992,87.639227 -10.3148,-10.301675 m -10.3342,-10.323032 -10.3342,-10.30167 m -10.3342,-10.32328 -10.3147,-10.30167 m -10.3342,-10.32304 -10.3342,-10.30167 m -10.3342,-10.32328 -10.3148,-10.30167 m 111.5088,142.244705 -3.058,-3.032303 m -10.3342,-10.323275 -10.3148,-10.301674 m -10.3342,-10.323033 -10.3342,-10.301674 m -10.3342,-10.323275 -7.6645,-7.634879 m -33.6528,-33.614782 -10.3367,-10.30167 m -10.3123,-10.30167 -10.3342,-10.32304 m -10.3342,-10.30167 -5.9437,-5.93598 M 1502.9999,21.727807 1492.6657,11.426132 M 1482.3315,1.1028574 1471.9973,-9.1988172 m -10.3148,-10.3232748 -6.3514,-6.322839 m -17.8046,-17.764479 -6.8466,-6.839063 m -10.3147,-10.323275 -1.5291,-1.526588 m -39.7883,-39.701224 -10.3342,-10.32328 m -10.3342,-10.30167 -10.3342,-10.32303 m -10.3366,-10.30168 -10.3124,-10.32327 m -10.3342,-10.30168 -0.7766,-0.77421 m 208.5697,239.132041 -6.3733,-6.344439 M 1508.167,57.815947 1497.8328,47.514272 M 1487.4986,37.19124 1477.1644,26.889566 m -92.9714,-92.800987 -10.3123,-10.323275 m -10.3342,-10.301675 -10.3342,-10.323032 m -10.3366,-10.301677 -10.3124,-10.32327 m -10.3342,-10.30168 -10.3342,-10.30167 m -10.3366,-10.32303 -10.3123,-10.30168 m 201.4197,231.99179 -10.3342,-10.301674 m -10.3342,-10.301675 -5.8564,-5.871415 m -97.4273,-97.252847 -10.3342,-10.323275 m -10.3342,-10.301674 -10.3366,-10.301675 m -10.3124,-10.323032 -10.3342,-10.301673 m -35.9561,-35.91607 -5.3612,-5.33359 m -10.3367,-10.32327 -10.3342,-10.30168 m 201.4416,232.013392 -10.3342,-10.323275 m -10.3342,-10.301675 -0.7038,-0.708686 m -102.5726,-102.414362 -10.3342,-10.301675 m -59.0151,-58.928219 -2.9731,-2.94639 m -10.3342,-10.30167 -10.3123,-10.32303 m -10.3367,-10.30168 -5.9413,-5.93597 m 212.4869,243.046319 -5.1234,-5.118558 m -10.3148,-10.301674 -10.3342,-10.301675 m -95.9614,-95.790574 -7.3441,-7.333688 m -56.991,-56.90652 -4.9729,-4.96809 m -10.3342,-10.30167 -10.3367,-10.32303 m -10.3342,-10.30168 -10.3123,-10.32327 m -10.3342,-10.30168 -0.7766,-0.77421 M 1404.8275,78.398909 1394.5369,68.140193 M 1384.2003,57.816918 1373.888,47.515243 M 1239.6017,-86.5354 1229.265,-96.858432 m -10.3342,-10.301678 -10.3342,-10.32327 m -10.3123,-10.30168 -10.3366,-10.30167 m -10.3342,-10.32303 -10.3342,-10.30168 m 201.4416,231.991791 -10.3342,-10.301674 m -10.3342,-10.301675 -5.8564,-5.871416 m -97.4273,-97.252846 -10.3342,-10.323275 m -10.3367,-10.301674 -10.3342,-10.301675 m -10.3123,-10.323032 -10.3342,-10.301674 m -10.3366,-10.32328 -10.3342,-10.30167 m -10.3342,-10.32303 -10.3148,-10.30168 m -10.3342,-10.32327 -10.3342,-10.30168 m 201.4416,232.013393 -10.3342,-10.323275 m -10.3342,-10.301675 -0.7038,-0.708686 m -104.1453,-103.962793 -8.7615,-8.753244 m -10.3366,-10.323275 -4.24,-4.215226 m -37.0774,-37.034429 -10.3342,-10.30168 m -10.3342,-10.30167 -8.1378,-8.15086 m 194.0344,224.6365 -5.1258,-5.118558 m -10.3342,-10.301675 -10.3124,-10.301674 m -95.8328,-95.661458 -7.4727,-7.462804 m -51.6516,-51.551331 -10.3342,-10.32327 m -10.3148,-10.30168 -0.9223,-0.92469 M 1280.8851,78.39988 1270.5945,68.141164 M 1260.2579,57.817889 1249.9237,47.516214 M 1136.3058,-65.90948 1125.9716,-76.232755 m -10.3342,-10.301674 -10.3148,-10.323033 m 139.4559,170.138784 -10.3342,-10.301675 m -10.3366,-10.301674 -5.8783,-5.871416 m -97.4249,-97.252846 -10.3148,-10.323275 m -10.3342,-10.301675 -7.1257,-7.118654 M 1208.6064,68.141164 1198.294,57.817889 m -10.3366,-10.301675 -0.7039,-0.708686 m -81.926,-81.789656 -10.3342,-10.301674 m 92.9277,123.684653 -5.1259,-5.118558 m -10.3342,-10.301675 -10.3342,-10.301674 m -60.9324,-60.8637576 -1.0436,-1.012062 m -10.3342,-10.3232754 -10.3342,-10.301674 m 77.424,108.221462 -10.2711,-10.258716 M 1136.301,57.817646 1125.9668,47.515971 m -33.0704,-33.012636 -8.247,-8.2370199 m -10.3342,-10.3016746 -6.0942,-6.1078065 m 52.5787,83.424245 -10.3148,-10.301674 m -10.3342,-10.301675 -5.8782,-5.871416 m -14.7902,-14.753533 -10.3148,-10.323033 m 15.4819,46.411173 -10.3342,-10.323275 m -10.3148,-10.301675 -10.3342,-10.323032 m 10.293,41.206698 -5.1259,-5.118558 m -10.3342,-10.301674 -5.104,-5.097201"
       id="path3" />
    <path
       style="fill:none;stroke:#ffffff;stroke-width:0.0215307px;stroke-linecap:round;stroke-linejoin:round;stroke-miterlimit:4;stroke-dasharray:none;stroke-opacity:1"
       d="m 1126.6002,41.599899 h 103.0677 m -103.0677,-0.344635 h 103.0677 m -103.0677,-0.344635 h 103.0677 m -103.0677,-0.344635 h 103.0677 m -103.0677,-0.344635 h 103.0677 m -103.0677,-0.344635 h 103.0677 m -103.0677,-0.344635 h 103.0677 m -103.0677,-0.344635 h 103.0677 m -103.0677,-0.344635 h 103.0677 m -103.0677,-0.344635 h 103.0677 m -103.0677,-0.344635 h 103.0677 m -103.0677,-0.344635 h 103.0677 m -103.0677,-0.344635 h 103.0677 m -103.0677,-0.344635 h 103.0677 m -103.0677,-0.344635 h 103.0677 m -103.0677,-0.344636 h 103.0677 m -103.0677,-0.344635 h 103.0677 m -103.0677,-0.344635 h 103.0677 m -103.0677,-0.344635 h 103.0677 m -103.0677,-0.344635 h 103.0677 m -103.0677,-0.344635 h 103.0677 m -103.0677,-0.344635 h 103.0677 m -103.0677,-0.344635 h 103.0677 m -103.0677,-0.344635 h 103.0677 m -103.0677,-0.344635 h 103.0677 m -103.0677,-0.344635 h 103.0677 m -103.0677,-0.344635 h 103.0677 m -103.0677,-0.344635 h 103.0677 m -103.0677,-0.344635 h 103.0677 m -103.0677,-0.344635 h 103.0677 m -103.0677,-0.344635 h 103.0677 m -103.0677,-0.344635 h 103.0677 m -103.0677,-0.344635 h 103.0677 m -103.0677,-0.344635 h 103.0677 m -103.0677,-0.344635 h 103.0677 m -103.0677,-0.344635 h 103.0677 m -103.0677,-0.344635 h 103.0677 m -103.0677,-0.344635 h 103.0677 m -103.0677,-0.344635 h 103.0677 m -103.0677,-0.344635 h 103.0677 m -103.0677,-0.344635 h 103.0677 m -103.0677,-0.344635 h 103.0677 m -103.0677,-0.344635 h 103.0677 m -103.0677,-0.344635 h 103.0677 m -103.0677,-0.344635 h 103.0677 m -103.0677,-0.344635 h 103.0677 m -103.0677,-0.344635 h 103.0677 m -103.0677,-0.344635 h 103.0677 m -103.0677,-0.344635 h 103.0677 m -103.0677,-0.344635 h 103.0677 m -103.0677,-0.344635 h 103.0677 m -103.0677,-0.344635 h 103.0677 m -103.0677,-0.344635 h 103.0677 m -103.0677,-0.344635 h 103.0677 m -103.0677,-0.344635 h 103.0677 m -103.0677,-0.344635 h 103.0677 m -103.0677,-0.344635 h 103.0677 m -103.0677,-0.344635 h 103.0677 m -103.0677,-0.344635 h 103.0677 m -103.0677,-0.344635 h 103.0677 m -103.0677,-0.344635 h 103.0677 m -103.0677,-0.344635 h 103.0677 m -103.0677,-0.344635 h 103.0677 m -103.0677,-0.344635 h 103.0677 m -103.0677,-0.344635 h 103.0677 m -103.0677,-0.344635 h 103.0677 m -103.0677,-0.344635 h 103.0677 m -103.0677,-0.344635 h 103.0677 m -103.0677,23.055111 h 103.0677 m 0,0 V 18.229761 m 0,0 h -103.0677 m 0,0 v 23.334703"
       id="path4" />
    <text
       xml:space="preserve"
       style="font-style:normal;font-variant:normal;font-weight:400;font-size:23.2778px;line-height:125%;font-family:Arial;text-align:start;letter-spacing:0px;word-spacing:0px;text-anchor:start;fill:#000000;fill-opacity:1;stroke:none;stroke-width:6.42145"
       x="1126.5984"
       y="33.452145"
       id="text11"><tspan
         x="1126.5984"
         y="33.452145"
         id="tspan11"
         style="stroke-width:6.42145"><tspan
           dx="0"
           dy="0"
           style="font-style:normal;font-variant:normal;font-weight:400;font-size:23.2778px;font-family:Arial;fill:#000000;stroke-width:6.42145"
           id="tspan4">M</tspan><tspan
           dx="0"
           dy="0"
           style="font-style:normal;font-variant:normal;font-weight:400;font-size:23.2778px;font-family:Arial;fill:#000000;stroke-width:6.42145"
           id="tspan5">3</tspan><tspan
           dx="0"
           dy="0"
           style="font-style:normal;font-variant:normal;font-weight:400;font-size:23.2778px;font-family:Arial;fill:#000000;stroke-width:6.42145"
           id="tspan6">0</tspan><tspan
           dx="0"
           dy="0"
           style="font-style:normal;font-variant:normal;font-weight:400;font-size:23.2778px;font-family:Arial;fill:#000000;stroke-width:6.42145"
           id="tspan7">2</tspan><tspan
           dx="0"
           dy="0"
           style="font-style:normal;font-variant:normal;font-weight:400;font-size:23.2778px;font-family:Arial;fill:#000000;stroke-width:6.42145"
           id="tspan8">0</tspan><tspan
           dx="0"
           dy="0"
           style="font-style:normal;font-variant:normal;font-weight:400;font-size:23.2778px;font-family:Arial;fill:#000000;stroke-width:6.42145"
           id="tspan9">6</tspan><tspan
           dx="0"
           dy="0"
           style="font-style:normal;font-variant:normal;font-weight:400;font-size:23.2778px;font-family:Arial;fill:#000000;stroke-width:6.42145"
           id="tspan10">8</tspan></tspan></text>
  </g>
</svg>
