<?xml version="1.0" encoding="UTF-8" standalone="no"?>
<!-- Created with Inkscape (http://www.inkscape.org/) -->

<svg
   width="999.99994mm"
   height="183.10953mm"
   viewBox="0 0 999.99994 183.10953"
   version="1.1"
   id="svg1"
   xmlns="http://www.w3.org/2000/svg"
   xmlns:svg="http://www.w3.org/2000/svg">
  <defs
     id="defs1" />
  <g
     id="layer1"
     transform="translate(-992.96199,193.62675)">
    <path
       style="fill:none;stroke:#000000;stroke-width:4.16462px;stroke-linecap:round;stroke-linejoin:round;stroke-miterlimit:4;stroke-dasharray:none;stroke-opacity:1"
       d="M 1146.6284,167.42919 V 16.620615 m 0,0 v -0.518258 m 0,0 -0.1102,-0.518258 m 0,0 -0.1652,-0.481195 m 0,0 -0.2204,-0.462703 m 0,0 -0.2911,-0.425718 m 0,0 -0.3305,-0.388654 m 0,0 -0.3856,-0.35167 m 0,0 -0.4249,-0.277621 m 0,0 -0.4564,-0.222066 m 0,0 -0.4958,-0.166589 m 0,0 -0.4957,-0.111033 m 0,0 -0.5194,-0.03698 m 0,0 h -28.2854 m 0,-14.1961481 -0.7397,0.036985 m 0,0 -0.7161,0.1110329 m 0,0 -0.7161,0.185081 m 0,0 -0.7004,0.27762158 m 0,0 -0.661,0.33317733 m 0,0 -0.6059,0.40722548 m 0,0 -0.5744,0.46270256 m 0,0 -0.5351,0.53675072 m 0,0 -0.4564,0.57373543 m 0,0 -0.4092,0.6107989 m 0,0 -0.3305,0.6662759 m 0,0 -0.2755,0.7033394 m 0,0 -0.1809,0.7218318 m 0,0 -0.1102,0.7218317 m 0,0 v 0.7403241 m 0,0 v 0.7588952 m 0,0 0.1102,0.7218317 m 0,0 0.1809,0.7218318 m 0,0 0.2755,0.7033394 m 0,0 0.3305,0.6477836 m 0,0 0.4092,0.6292912 m 0,0 0.4564,0.5737354 m 0,0 0.5351,0.53675 m 0,0 0.5744,0.462703 m 0,0 0.6059,0.407226 m 0,0 0.661,0.333177 m 0,0 0.7004,0.277621 m 0,0 0.7161,0.185081 m 0,0 0.7161,0.111033 m 0,0 0.7397,0.03698 m 0,-14.1961473 h 14.926 m 0,0 0.2597,-0.036985 m 0,0 0.2361,-0.055871 m 0,0 0.2203,-0.09254 m 0,0 0.2204,-0.1295252 m 0,0 0.181,-0.1480963 m 0,0 0.1495,-0.2035734 m 0,0 0.1259,-0.2035734 m 0,0 0.1101,-0.2220658 m 0,0 0.079,-0.2406368 m 0,0 v -0.2591292 m 0,0 v -5.5155798 m 3.9251,-3.9608518 -0.5115,0.03698 m 0,0 -0.4957,0.111033 m 0,0 -0.4958,0.166589 m 0,0 -0.4564,0.222144 m 0,0 -0.4249,0.277622 m 0,0 -0.3856,0.35167 m 0,0 -0.3305,0.388654 m 0,0 -0.2911,0.425718 m 0,0 -0.2204,0.462702 m 0,0 -0.1652,0.4811954 m 0,0 -0.094,0.5182584 m 0,0 v 0.5182584 m 3.9251,-3.9608522 H 1599.29 m 3.9251,3.9608522 v -0.5182584 m 0,0 -0.094,-0.5182584 m 0,0 -0.1653,-0.4811954 m 0,0 -0.2203,-0.462702 m 0,0 -0.2912,-0.425718 m 0,0 -0.3305,-0.388654 m 0,0 -0.3855,-0.35167 m 0,0 -0.425,-0.277622 m 0,0 -0.4643,-0.222144 m 0,0 -0.4957,-0.166589 m 0,0 -0.4958,-0.111033 m 0,0 -0.5193,-0.03698 m 3.9251,3.9608518 v 3.1464719 m -3.9251,3.960852 0.5193,-0.036985 m 0,0 0.4958,-0.1110329 m 0,0 0.4957,-0.1665887 m 0,0 0.4643,-0.2220657 m 0,0 0.425,-0.2961139 m 0,0 0.3855,-0.3331774 m 0,0 0.3305,-0.3886544 m 0,0 0.2912,-0.4257178 m 0,0 0.2203,-0.4627026 m 0,0 0.1653,-0.499766 m 0,0 0.094,-0.499766 m 0,0 V -5.497513 m -3.9251,3.960852 h -63.6483 m 0,0 -0.4958,0.018886 m 0,0 -0.5115,0.1110329 m 0,0 -0.48,0.1665887 m 0,0 -0.4643,0.2220657 m 0,0 -0.4249,0.29611391 m 0,0 -0.3856,0.33317733 m 0,0 -0.3462,0.38865442001 m 0,0 -0.2755,0.42571783999 m 0,0 -0.236,0.46270257 m 0,0 -0.1653,0.49976603 m 0,0 -0.094,0.4997659 m 0,0 v 0.5182584 m 0,0 V 82.085858 m 0,0 v 0.518258 m 0,0 0.094,0.518258 m 0,0 0.1653,0.481195 m 0,0 0.236,0.462703 m 0,0 0.2755,0.425718 m 0,0 0.3462,0.388654 m 0,0 26.4803,26.633966 m 0.4643,1.11051 v -0.24063 m 0,0 -0.079,-0.25913 m 0,0 -0.094,-0.22215 m 0,0 -0.1259,-0.20357 m 0,0 -0.1652,-0.18508 m 0.4643,1.11052 v 3.16498 m 0,0 v 0.24063 m 0,0 0.079,0.24064 m 0,0 0.1102,0.22207 m 0,0 0.1259,0.22206 m 0,0 0.1495,0.18508 m 0,0 0.181,0.16659 m 0,0 0.2204,0.12953 m 0,0 0.2203,0.0925 m 0,0 0.2439,0.0559 m 0,0 0.2597,0.0189 m 0,0 h 3.1327 m 1.1064,0.46271 -0.1889,-0.16659 m 0,0 -0.2046,-0.12953 m 0,0 -0.236,-0.0925 m 0,0 -0.2361,-0.0559 m 0,0 -0.2361,-0.0189 m 1.1064,0.4627 36.4308,36.59162 m 1.1426,2.79481 v -0.51826 m 0,0 -0.094,-0.49977 m 0,0 -0.1652,-0.48119 m 0,0 -0.2204,-0.48119 m 0,0 -0.2911,-0.42572 m 0,0 -0.3305,-0.38866 m 1.1426,2.79481 v 10.21679 m -1.566,1.57322 0.2361,-0.0189 m 0,0 0.2361,-0.0559 m 0,0 0.236,-0.0925 m 0,0 0.2046,-0.1296 m 0,0 0.1889,-0.16659 m 0,0 0.1652,-0.18508 m 0,0 0.1259,-0.22207 m 0,0 0.094,-0.22214 m 0,0 0.079,-0.24064 m 0,0 v -0.24056 m -1.566,1.57323 h -11.0018 m -1.5659,-1.57323 v 0.24056 m 0,0 0.079,0.24064 m 0,0 0.094,0.22214 m 0,0 0.1259,0.22207 m 0,0 0.1653,0.18508 m 0,0 0.181,0.16659 m 0,0 0.2046,0.1296 m 0,0 0.236,0.0925 m 0,0 0.2361,0.0559 m 0,0 0.2361,0.0189 m -1.566,-1.57322 v -4.33105 m 0,0 v -0.51825 m 0,0 -0.094,-0.49969 m 0,0 -0.1653,-0.4812 m 0,0 -0.236,-0.4627 m 0,0 -0.2754,-0.44421 m 0,0 -0.3463,-0.38865 m 0,0 -60.9028,-61.208156 m 0,0 -0.3856,-0.333177 m 0,0 -0.4249,-0.296114 m 0,0 -0.4643,-0.222066 m 0,0 -0.4958,-0.166589 m 0,0 -0.4957,-0.111033 m 0,0 -0.5194,-0.01889 m 0,0 H 1164.878 m 0,0 -0.5193,0.01889 m 0,0 -0.4958,0.111033 m 0,0 -0.48,0.166589 m 0,0 -0.4564,0.222066 m 0,0 -0.4407,0.296114 m 0,0 -0.3856,0.333177 m 0,0 -0.3305,0.388654 m 0,0 -0.2754,0.425718 m 0,0 -0.2361,0.462704 m 0,0 -0.1652,0.49976 m 0,0 -0.094,0.49977 m 0,0 v 0.51826 m 0,0 v 65.53917 m -1.5668,1.57322 0.244,-0.0189 m 0,0 0.236,-0.0559 m 0,0 0.2204,-0.0925 m 0,0 0.2203,-0.12961 m 0,0 0.1889,-0.16659 m 0,0 0.1652,-0.18508 m 0,0 0.1259,-0.22206 m 0,0 0.094,-0.22215 m 0,0 0.079,-0.24063 m 0,0 v -0.24056 m -1.5667,1.57322 h -11.001 m -1.5848,-1.57322 v 0.24056 m 0,0 0.079,0.24063 m 0,0 0.094,0.22215 m 0,0 0.1259,0.22206 m 0,0 0.1495,0.18508 m 0,0 0.2046,0.16659 m 0,0 0.2046,0.12961 m 0,0 0.2203,0.0925 m 0,0 0.2361,0.0559 m 0,0 0.2597,0.0189 M 1160.9934,20.563093 V 3.1834572 m 0,0 h 356.7201 m 0,0 V 20.563093 m 0,0 h -14.1518 m 0,0 -0.2439,0.01889 m 0,0 -0.2361,0.05587 m 0,0 -0.2203,0.09254 m 0,0 -0.2204,0.129525 m 0,0 -0.1809,0.166589 m 0,0 -0.1653,0.185081 m 0,0 -0.1259,0.222066 m 0,0 -0.094,0.222065 m 0,0 -0.079,0.240637 m 0,0 v 0.240637 m 0,0 v 11.068181 m 0,0 v 0.240637 m 0,0 0.079,0.240637 m 0,0 0.094,0.222066 m 0,0 0.1259,0.222066 m 0,0 0.1653,0.185081 m 0,0 0.1809,0.166588 m 0,0 0.2204,0.129604 m 0,0 0.2203,0.09254 m 0,0 0.2361,0.05587 m 0,0 0.2439,0.01889 m 0,0 h 12.567 m 1.5848,1.573236 v -0.240637 m 0,0 -0.079,-0.240637 m 0,0 -0.1102,-0.240636 m 0,0 -0.1259,-0.203574 m 0,0 -0.1495,-0.185081 m 0,0 -0.181,-0.166589 m 0,0 -0.2203,-0.129603 m 0,0 -0.2203,-0.09254 m 0,0 -0.244,-0.05587 m 0,0 -0.2597,-0.01888 m 1.5849,1.573236 v 45.789707 m -3.9251,3.960852 0.4957,-0.03699 m 0,0 0.5194,-0.111033 m 0,0 0.48,-0.148096 m 0,0 0.4643,-0.240637 m 0,0 0.4249,-0.277621 m 0,0 0.3856,-0.35167 m 0,0 0.3541,-0.388655 m 0,0 0.2754,-0.425717 m 0,0 0.244,-0.462703 m 0,0 0.1495,-0.481195 m 0,0 0.1101,-0.518258 m 0,0 v -0.518259 m -3.9251,3.960852 h -348.8698 m -3.9251,-3.960852 v 0.518259 m 0,0 0.094,0.518258 m 0,0 0.1653,0.481195 m 0,0 0.236,0.462703 m 0,0 0.2754,0.425717 m 0,0 0.3305,0.388655 m 0,0 0.3856,0.35167 m 0,0 0.4407,0.277621 m 0,0 0.4564,0.240637 m 0,0 0.48,0.148096 m 0,0 0.4958,0.111033 m 0,0 0.5193,0.03699 m -3.9251,-3.960852 V 36.350848 m 1.566,-1.573235 -0.2361,0.01888 m 0,0 -0.2361,0.05587 m 0,0 -0.2203,0.09254 m 0,0 -0.2203,0.129604 m 0,0 -0.1889,0.166589 m 0,0 -0.1652,0.185081 m 0,0 -0.1259,0.203573 m 0,0 -0.094,0.240637 m 0,0 -0.079,0.240637 m 0,0 v 0.240637 m 1.566,-1.573236 h 12.5677 m 0,0 0.2597,-0.01889 m 0,0 0.2439,-0.05587 m 0,0 0.2204,-0.09254 m 0,0 0.2203,-0.129604 m 0,0 0.181,-0.166589 m 0,0 0.1495,-0.185081 m 0,0 0.1259,-0.222065 m 0,0 0.1102,-0.222066 m 0,0 0.079,-0.240637 m 0,0 v -0.240637 m 0,0 V 22.136274 m 0,0 v -0.240637 m 0,0 -0.079,-0.240637 m 0,0 -0.1102,-0.222066 m 0,0 -0.1259,-0.222065 m 0,0 -0.1495,-0.185081 m 0,0 -0.181,-0.166589 m 0,0 -0.2203,-0.129525 m 0,0 -0.2204,-0.09254 m 0,0 -0.2439,-0.05587 m 0,0 -0.2597,-0.01889 m 0,0 h -14.1337"
       id="path1" />
    <path
       style="fill:none;stroke:#000000;stroke-width:0.0184275px;stroke-linecap:round;stroke-linejoin:round;stroke-miterlimit:4;stroke-dasharray:none;stroke-opacity:1"
       d="m 1602.0466,-2.7579585 -1.2347,-1.2400744 m -3.3349,-3.3500689 -3.3357,-3.3500692 m -1.6581,8.3844227 -3.3357,-3.3500689 m -3.3357,-3.350061 -3.3349,-3.3500688 m -1.6588,8.3659141 -3.3349,-3.3500689 m -3.3357,-3.3500692 -1.898,-1.906389 m 0.9954,11.0681756 -0.7554,-0.7773875 m -3.3357,-3.3500689 -3.3358,-3.350061 m -3.3349,-3.3500692 -0.2203,-0.240637 m 0.9946,11.0681764 -2.4504,-2.4616485 m -3.3357,-3.3500689 -3.3168,-3.350069 m -1.6769,8.3844225 -3.3357,-3.3500689 m -3.335,-3.3500611 -3.3357,-3.3500685 m -1.658,8.3659139 -3.3357,-3.3500689 m -3.3357,-3.350069 -1.898,-1.90639 m 1.4746,11.5308947 -1.2346,-1.2400822 m -3.3357,-3.3500689 -3.3349,-3.3500611 m -3.3358,-3.3500685 -0.2203,-0.240637 m 8.5506,18.6567261 -3.3357,-3.350061 m -3.335,-3.3500689 -3.3176,-3.3500689 m -3.3349,-3.3500689 -3.3357,-3.3500684 m 17.4883,27.633431 -2.4882,-2.517181 m -3.335,-3.350061 -3.3357,-3.3500685 m -3.3357,-3.3315608 -3.3349,-3.3500689 m -3.3357,-3.3500689 -3.3349,-3.3500689 m -3.3168,-3.3500611 -3.3358,-3.3500689 m 29.1527,39.349412 -0.8294,-0.832896 m -3.3357,-3.350061 -3.335,-3.350066 m -3.3176,-3.350069 -3.3168,-3.331561 m -10.0244,-10.0687069 -3.3349,-3.3500689 m -3.3358,-3.3500689 -3.3357,-3.3500689 m -3.3349,-3.3500684 -1.8799,-1.90639 m 36.8919,47.123051 -3.335,-3.350068 m -3.3357,-3.350069 -3.3357,-3.350069 m -3.3349,-3.350067 -0.5508,-0.555243 m -19.4406,-19.5266385 -3.3357,-3.3500689 m -3.3349,-3.3500689 -3.3358,-3.350061 m -3.3357,-3.3500687 -0.2203,-0.240637 m 48.557,58.857535 -3.3357,-3.350061 m -3.3349,-3.350069 -3.3176,-3.350069 m -3.3349,-3.350069 -3.3357,-3.350069 m -3.335,-3.350069 -3.3357,-3.350061 m -19.5145,-19.6191842 -0.4801,-0.481195 m -3.3357,-3.35006887 -3.3349,-3.35006893 m -3.3357,-3.3500689 -3.3349,-3.3500691 m 57.4939,67.83424 -2.4882,-2.51718 m -3.3349,-3.350061 -3.3357,-3.350069 m -3.3357,-3.350069 -1.6399,-1.647268 m -8.1076,-8.14381 -0.2596,-0.259129 m -3.3169,-3.350069 -3.3357,-3.350069 m -24.5271,-24.6350295 -2.1562,-2.1470029 m -3.3168,-3.3500689 -3.3357,-3.3500689 m -3.3349,-3.350061 -3.3357,-3.3500688 m 69.1591,79.550223 -0.8294,-0.832888 m -3.3358,-3.350069 -3.3349,-3.350069 m -3.3176,-3.350069 -3.3168,-3.33156 m -50.0309,-50.269516 -3.3349,-3.35006893 m -3.3357,-3.35006887 -3.3169,-3.3500689 m -3.3349,-3.3500693 -1.898,-1.906389 m 76.8976,87.323862 -3.335,-3.350069 m -3.3357,-3.350068 -3.3357,-3.350069 m -63.3352,-63.6327754 -3.3349,-3.3500689 m -3.3357,-3.3500689 -3.3357,-3.350061 m -3.3349,-3.3500688 -0.2203,-0.240637 m 160.8906,171.741857 -2.3222,-2.33208 m -3.3349,-3.35007 -3.3357,-3.35007 m -3.3349,-3.35007 -3.3176,-3.35007 m -3.3349,-3.35006 -3.3357,-3.35007 m -3.335,-3.35006 -3.3357,-3.35007 m -3.3349,-3.35007 -3.3357,-3.35007 m -3.3357,-3.35007 -2.5614,-2.59121 m -4.1092,-4.10893 -3.3169,-3.35006 m -3.3357,-3.35007 -3.3349,-3.35007 m -3.3357,-3.350066 -3.3349,-3.350068 m -3.3357,-3.350061 -3.3357,-3.350069 m -3.335,-3.350069 -3.3357,-3.350069 m -3.3349,-3.350069 -3.3176,-3.350069 m -72.8623,-73.2202631 -0.48,-0.4811949 m -3.3349,-3.35006893 -3.3357,-3.35006887 m -3.3349,-3.3500689 -3.3357,-3.3500693 m 168.4457,179.330424 -0.094,-0.11104 m -3.3349,-3.35007 -3.3357,-3.35007 m -3.335,-3.35006 -3.3357,-3.35007 m -3.3357,-3.35006 -3.3349,-3.35007 m -3.3357,-3.35006 -3.3349,-3.35007 m -3.3168,-3.35007 -3.3357,-3.35007 m -3.3358,-3.35007 -3.3349,-3.35007 m -3.3357,-3.35007 -3.3349,-3.35006 m -3.3357,-3.35007 -3.3357,-3.35007 m -3.3349,-3.35006 -3.3358,-3.35007 m -3.3168,-3.35007 -3.3357,-3.35006 m -3.3349,-3.350073 -3.3357,-3.350069 m -3.3349,-3.350068 -3.3357,-3.350069 m -3.3357,-3.350069 -1.7501,-1.739809 M 1437.9681,3.1832841 1435.812,1.0362812 m -3.3357,-3.3500689 -3.3349,-3.3500689 m -3.3357,-3.350061 -3.335,-3.3500684 m 170.491,181.366356 -2.1554,-2.14699 m -69.9884,-70.351427 -3.335,-3.350061 m -3.3357,-3.350069 -3.3349,-3.350069 m -83.3478,-83.7516884 -3.3169,-3.35006893 m -3.3357,-3.35006887 -3.3357,-3.3500689 m -3.3349,-3.3500689 -1.898,-1.90639 m 96.8921,107.424268 -3.3168,-3.350068 m -3.3357,-3.350069 -2.0271,-2.017447 m -84.6565,-85.0657634 -3.3349,-3.3500689 m -3.3357,-3.3500689 -3.3168,-3.350061 m -3.3349,-3.3500688 -0.244,-0.240637 m 100.0067,110.552232 -1.4377,-1.443679 m -3.3357,-3.350062 -3.3349,-3.350068 m -3.3357,-3.350069 -0.3462,-0.35167 m -82.4996,-82.9188002 -0.48,-0.4811949 m -3.3357,-3.35006888 -3.3349,-3.35006892 m -3.3357,-3.3500689 -3.3358,-3.3500692 m 98.1087,108.645842 -3.0957,-3.127963 m -3.3357,-3.350069 -3.3357,-3.350069 m -84.5085,-84.9362465 -2.1561,-2.1470029 m -3.335,-3.3500689 -3.3357,-3.3500689 m -3.3349,-3.350061 -3.3357,-3.3500688 m 98.3479,108.867939 -3.3357,-3.350061 m -3.3349,-3.350069 -3.3357,-3.350068 m -83.329,-83.7516891 -3.3357,-3.35006888 m -3.3357,-3.35006892 -3.3349,-3.3500689 m -3.3357,-3.3500692 -1.8981,-1.906389 m 96.9103,107.424268 -3.335,-3.350069 m -3.3357,-3.350069 -2.0271,-2.017446 m -84.6556,-85.0658034 -3.3169,-3.3500689 m -3.3357,-3.3500689 -3.3357,-3.350061 m -3.3349,-3.3500688 -0.2203,-0.240637 m 99.9878,110.552232 -1.4377,-1.443679 m -3.3168,-3.350062 -3.3349,-3.350068 m -3.3357,-3.350069 -0.3463,-0.35167 m -82.5003,-82.9188002 -0.4958,-0.4811949 m -3.3357,-3.35006888 -3.3349,-3.35006892 m -3.3168,-3.3500689 -3.3357,-3.3500692 m 98.1087,108.645842 -3.1146,-3.127963 m -3.3357,-3.350069 -3.335,-3.350069 m -84.5085,-84.9362465 -2.1561,-2.1470029 m -3.3357,-3.3500689 -3.3357,-3.3500689 m -3.335,-3.350061 -3.3357,-3.3500688 m 98.3479,108.867939 -3.3349,-3.350061 m -3.3357,-3.350069 -3.3357,-3.350068 m -83.329,-83.7516891 -3.3357,-3.35006888 m -3.3349,-3.35006892 -3.3357,-3.3500689 m -3.3349,-3.3500692 -1.8807,-1.906389 m 96.8929,107.424268 -3.3357,-3.350069 m -3.335,-3.350069 -2.0089,-2.017446 m -84.6565,-85.0658034 -3.3357,-3.3500689 m -3.3357,-3.3500689 -3.3349,-3.350061 m -3.3357,-3.3500688 -0.2204,-0.240637 m 99.9878,110.552232 -1.4188,-1.443679 m -3.3357,-3.350062 -3.3349,-3.350068 m -3.3357,-3.350069 -0.3462,-0.35167 m -82.4996,-82.9188002 -0.4957,-0.4811949 m -3.3169,-3.35006888 -3.3349,-3.35006892 m -3.3357,-3.3500689 -3.3357,-3.3500692 m 98.1087,108.645842 -3.1146,-3.127963 m -3.3168,-3.350069 -3.3349,-3.350069 m -84.5275,-84.9362465 -2.1561,-2.1470029 m -3.3357,-3.3500689 -3.3168,-3.3500689 m -3.3349,-3.350061 -3.3358,-3.3500688 m 98.3299,108.867939 -3.3358,-3.350061 m -3.3357,-3.350069 -3.3168,-3.350068 m -83.347,-83.7516891 -3.335,-3.35006888 m -3.3357,-3.35006892 -3.3357,-3.3500689 m -3.3357,-3.3500692 -1.8799,-1.906389 m 96.8929,107.424268 -3.3357,-3.350069 m -3.3357,-3.350069 -2.009,-2.017446 m -84.6557,-85.0658034 -3.3357,-3.3500689 m -3.3349,-3.3500689 -3.3357,-3.350061 m -3.3349,-3.3500688 -0.2204,-0.240637 m 100.006,110.552232 -1.4377,-1.443679 m -3.335,-3.350062 -3.3357,-3.350068 m -3.3349,-3.350069 -0.3462,-0.35167 m -82.5004,-82.9188002 -0.48,-0.4811949 m -3.3349,-3.35006888 -3.3357,-3.35006892 m -3.3357,-3.3500689 -3.3349,-3.3500692 m 98.1079,108.645842 -3.0957,-3.127963 m -3.3357,-3.350069 -3.335,-3.350069 m -84.5274,-84.9362465 -2.1372,-2.1470029 m -3.3357,-3.3500689 -3.335,-3.3500689 m -3.3357,-3.350061 -3.3357,-3.3500688 m 98.3298,108.867939 -3.3168,-3.350061 m -3.3357,-3.350069 -3.3357,-3.350068 m -83.3471,-83.7516891 -3.3357,-3.35006888 m -3.3357,-3.35006892 -3.3168,-3.3500689 m -3.3349,-3.3500692 -1.898,-1.906389 m 96.8913,107.424268 -3.3349,-3.350069 m -3.3357,-3.350069 -2.0082,-2.017446 m -84.6565,-85.0658034 -3.3349,-3.3500689 m -3.3357,-3.3500689 -3.3357,-3.350061 m -3.3169,-3.3500688 -0.236,-0.240637 m 100.0059,110.552232 -1.4369,-1.443679 m -3.3357,-3.350062 -3.3349,-3.350068 m -3.3357,-3.350069 -0.3463,-0.35167 m -82.5003,-82.9188002 -0.48,-0.4811949 m -3.335,-3.35006888 -3.3357,-3.35006892 m -3.3349,-3.3500689 -3.3357,-3.3500692 m 98.1087,108.645842 -3.0965,-3.127963 m -3.3349,-3.350069 -3.3357,-3.350069 m -84.5086,-84.9362465 -2.1561,-2.1470029 m -3.3349,-3.3500689 -3.3357,-3.3500689 m -3.3357,-3.350061 -3.335,-3.3500688 m 98.3479,108.867939 -3.3357,-3.350061 m -3.3357,-3.350069 -3.3349,-3.350068 m -83.3478,-83.7516891 -3.3169,-3.35006888 m -3.3357,-3.35006892 -3.3349,-3.3500689 m -3.3357,-3.3500692 -1.898,-1.906389 m 96.9102,107.424268 -3.3349,-3.350069 m -3.3357,-3.350069 -2.0271,-2.017446 m -84.6557,-85.0658034 -3.3357,-3.3500689 m -3.3168,-3.3500689 -3.3357,-3.350061 m -3.3349,-3.3500688 -0.244,-0.240637 m 100.0067,110.552232 -1.4377,-1.443679 m -3.3357,-3.350062 -3.3349,-3.350068 m -3.3168,-3.350069 -0.3462,-0.35167 m -82.5004,-82.9188002 -0.4957,-0.4811949 m -3.3357,-3.35006888 -3.335,-3.35006892 m -3.3357,-3.3500689 -3.3357,-3.3500692 m 98.1087,108.645842 -3.0957,-3.127963 m -3.3357,-3.350069 -3.3349,-3.350069 m -84.5094,-84.9362465 -2.1561,-2.1470029 m -3.3349,-3.3500689 -3.3357,-3.3500689 m -3.3349,-3.350061 -3.3357,-3.3500688 m 98.3479,108.867939 -3.3357,-3.350061 m -3.335,-3.350069 -3.3357,-3.350068 m -83.3289,-83.7516891 -3.3357,-3.35006888 m -3.3357,-3.35006892 -3.335,-3.3500689 m -3.3357,-3.3500692 -1.898,-1.906389 m 96.911,107.424268 -3.3357,-3.350069 m -3.3357,-3.350069 -2.0271,-2.017446 m -84.6368,-85.0658034 -3.3349,-3.3500689 m -3.3357,-3.3500689 -3.3349,-3.350061 m -3.3357,-3.3500688 -0.2204,-0.240637 m 99.9878,110.552232 -1.4376,-1.443679 m -3.3169,-3.350062 -3.3349,-3.350068 m -3.3357,-3.350069 -0.3462,-0.35167 m -82.4996,-82.9188002 -0.4957,-0.4811949 m -3.335,-3.35006888 -3.3357,-3.35006892 m -3.3168,-3.3500689 -3.3357,-3.3500692 m 98.1087,108.645842 -3.1146,-3.127963 m -3.3357,-3.350069 -3.316,-3.350069 m -66.0083,-66.316529 -0.661,-0.684847 M 1159.156,4.3863659 1155.8211,1.036297 m -3.3357,-3.3500689 -3.335,-3.3500689 m -3.3357,-3.350061 -3.3168,-3.3500692 m 98.329,108.86794 -3.3349,-3.350062 m -3.3357,-3.350068 -3.3349,-3.350069 m -56.6653,-56.951156 -3.335,-3.350069 m -3.3357,-3.350061 -2.2293,-2.239548 m -4.4413,-4.479095 -3.3168,-3.331561 m -3.3357,-3.3500688 -3.335,-3.3500689 m -3.3357,-3.350061 -3.3357,-3.35006889 m -3.3349,-3.35006891 -3.3357,-3.3500689 m -3.3349,-3.3500686 -1.3086,-1.314115 m 96.3208,106.831993 -3.3357,-3.350069 m -3.335,-3.350069 -2.0089,-2.017446 m -51.3207,-51.583632 -3.3349,-3.350069 m -3.3357,-3.350069 -3.3357,-3.350069 m -3.3349,-3.350067 -3.3357,-3.350069 m -3.335,-3.350068 -3.3357,-3.350061 m -3.3168,-3.3500693 -3.3357,-3.3315608 m -3.3349,-3.3500689 -3.3357,-3.3500689 m 89.7792,100.2614199 -1.4377,-1.443679 m -3.3349,-3.350062 -3.3357,-3.350068 m -3.3357,-3.350069 -0.3462,-0.35167 m -52.9976,-53.249417 -3.3168,-3.350069 m -3.3349,-3.350069 -3.3357,-3.350061 m -10.0795,-10.142744 -3.2618,-3.2575288 m -3.3357,-3.3500689 -3.3168,-3.350061 m -3.3357,-3.35006889 -0.9026,-0.88842041 m 89.0049,99.484056 -3.0957,-3.127964 m -3.3357,-3.350069 -3.3349,-3.350069 m -43.3422,-43.55088 -3.3349,-3.350068 m -3.3357,-3.350069 -3.3349,-3.350061 m -23.3295,-23.450472 -3.3357,-3.3500693 m -3.3349,-3.3315608 -3.3358,-3.3500689 m 85.0067,95.467672 -3.3357,-3.350062 m -3.3357,-3.350068 -3.3168,-3.350069 m -30.0183,-30.16912 -3.3168,-3.331561 m -3.3357,-3.350069 -3.3349,-3.350069 m -3.3357,-3.350061 -0.8294,-0.832896 m -32.5057,-32.6677828 -3.3357,-3.3500689 m 78.3353,88.7675417 -3.335,-3.350069 m -3.3357,-3.350069 -2.0082,-2.017446 m -19.6625,-19.767252 -1.6588,-1.665776 m -3.3349,-3.350069 -3.3357,-3.350069 m -3.3349,-3.350069 -2.4882,-2.498664 m 35.6021,45.827447 -1.4377,-1.443679 m -3.3349,-3.350062 -3.3357,-3.350068 m -3.3349,-3.350069 -0.3463,-0.35167 m -12.973,-13.048606 -3.3357,-3.350069 m -3.3349,-3.350061 -3.3357,-3.350068 m 24.7664,34.944352 -3.0957,-3.127964 m -3.3349,-3.350069 -3.3357,-3.350069 m -3.3357,-3.350069 -3.335,-3.350068 m -3.3357,-3.350061 -3.3349,-3.350069 m 11.6644,21.78469 -3.3169,-3.350062 m -3.3357,-3.350068 -3.3349,-3.350069 m -3.3357,-3.350069 -0.8294,-0.832888 m 14.1526,24.264857 -1.6588,-1.66579 m -3.335,-3.35006 -3.3357,-3.350067 m -3.3349,-3.350069 -2.4882,-2.498672 m 10.8357,20.933298 -3.3357,-3.35007 m -3.3349,-3.35006 -3.3357,-3.35007 m 11.6644,21.76618 -3.335,-3.35006 m -3.3357,-3.35007 -3.3349,-3.35007 m 11.6644,21.76618 -3.3169,-3.33155 m -3.3357,-3.35007 -3.3349,-3.35007 m -3.3357,-3.35007 -0.8294,-0.83289 m 14.1526,24.26486 -1.6588,-1.66578 m -3.335,-3.35007 -3.3357,-3.35007 m -3.3349,-3.35006 -2.4882,-2.49868 m 10.8357,20.9333 -3.3357,-3.35006 m -3.3349,-3.35007 -3.3357,-3.35007 m 11.6644,21.76618 -3.335,-3.35007 m -3.3357,-3.35006 -3.3349,-3.35007 m 3.8142,13.88149 -2.1373,-2.14699 m -3.3357,-3.35007 -0.8294,-0.8329"
       id="path2" />
    <path
       style="fill:none;stroke:#000000;stroke-width:4.69627px;stroke-linecap:round;stroke-linejoin:round;stroke-miterlimit:4;stroke-dasharray:none;stroke-opacity:1"
       d="m 995.41671,-106.27323 29.76739,-82.10534 m 4.1901,-2.89999 -0.7203,0.0356 m 0,0 -0.6491,0.1814 m 0,0 -0.6492,0.25343 m 0,0 -0.6136,0.36282 m 0,0 -0.5068,0.47129 m 0,0 -0.4713,0.50776 m 0,0 -0.3646,0.61625 m 0,0 -0.2134,0.47129 m 4.1901,-2.8999 h 927.1531 m 4.1901,2.8999 -0.2134,-0.47129 m 0,0 -0.3646,-0.61625 m 0,0 -0.4713,-0.50776 m 0,0 -0.5069,-0.47129 m 0,0 -0.6136,-0.36282 m 0,0 -0.6491,-0.25343 m 0,0 -0.6492,-0.1814 m 0,0 -0.7203,-0.0356 m 4.1902,2.89999 29.7673,82.10534 m -1.662,2.3925 0.4358,-0.0356 m 0,0 0.4357,-0.1814 m 0,0 0.4002,-0.2899 m 0,0 0.2489,-0.36281 m 0,0 0.1779,-0.43484 m 0,0 0.089,-0.47129 m 0,0 -0.089,-0.4713 m 0,0 v -0.14495 m -1.662,2.39251 h -14.2332 m 0,0 -0.4713,0.0711 m 0,0 -0.4002,0.1814 m 0,0 -0.4001,0.28989 m 0,0 -0.2579,0.36282 m 0,0 -0.1779,0.43483 m 0,0 -0.089,0.4713 m 0,0 v 7.141241 m -1.7705,1.776172 0.4713,-0.07114 m 0,0 0.4002,-0.181406 m 0,0 0.4002,-0.289893 m 0,0 0.2489,-0.362811 m 0,0 0.1779,-0.434839 m 0,0 0.089,-0.434839 m -1.7705,1.776261 h -18.6767 m -1.7696,-1.776261 0.089,0.434839 m 0,0 0.1779,0.434839 m 0,0 0.249,0.362811 m 0,0 0.4001,0.289893 m 0,0 0.4002,0.181406 m 0,0 0.4713,0.07114 m -1.8176,-1.776172 v -4.494942 m 4.4426,-4.458749 -0.6847,0.0711 m 0,0 -0.6847,0.14495 m 0,0 -0.6492,0.28989 m 0,0 -0.578,0.36281 m 0,0 -0.5424,0.43484 m 0,0 -0.4713,0.54333 m 0,0 -0.3646,0.61624 m 0,0 -0.249,0.61625 m 0,0 -0.1423,0.68827 m 0,0 -0.089,0.688272 m 4.4427,-4.458662 h 2.6739 m 0,0 0.6847,-0.0356 m 0,0 0.6847,-0.1814 m 0,0 0.6492,-0.25344 m 0,0 0.578,-0.36281 m 0,0 0.5424,-0.4713 m 0,0 0.4358,-0.50775 m 0,0 0.3646,-0.61625 m 0,0 0.2934,-0.6527 m 0,0 0.1423,-0.65271 m 0,0 0.089,-0.72473 m 0,0 v -1.77617 m 4.4436,-4.45875 -0.7203,0.0711 m 0,0 -0.6492,0.14495 m 0,0 -0.6491,0.28989 m 0,0 -0.6136,0.36281 m 0,0 -0.5069,0.43484 m 0,0 -0.4713,0.54333 m 0,0 -0.3646,0.57978 m 0,0 -0.2489,0.65271 m 0,0 -0.1779,0.68827 m 0,0 v 0.68916 m 4.4435,-4.45875 h 2.8901 m 0,0 0.4001,-0.0356 m 0,0 0.4002,-0.10848 m 0,0 0.4002,-0.14495 m 0,0 0.3646,-0.21787 m 0,0 0.329,-0.28989 m 0,0 0.249,-0.28989 m 0,0 0.2134,-0.36281 m 0,0 0.1778,-0.39838 m 0,0 0.089,-0.39838 m 0,0 v -0.43484 m 0,0 v -0.39838 m 0,0 -0.1067,-0.50776 m 0,0 -4.1536,-11.45495 m 0,0 -0.2134,-0.50776 m 0,0 -0.3646,-0.61624 m 0,0 -0.4713,-0.50776 m 0,0 -0.5069,-0.4713 m 0,0 -0.6136,-0.36281 m 0,0 -0.6491,-0.25343 m 0,0 -0.6847,-0.18141 m 0,0 -0.6847,-0.0356 m 0,0 -0.6848,0.0356 m 0,0 -0.6847,0.18141 m 0,0 -0.6491,0.25343 m 0,0 -0.578,0.36281 m 0,0 -0.1423,0.10849 m -29.8394,3.91498 0.4713,0.1814 m 0,0 2.1315,0.79765 m 0,0 2.2391,0.61625 m 0,0 2.24,0.47129 m 0,0 2.312,0.25344 m 0,0 2.2756,0.10849 m 0,0 2.312,-0.10849 m 0,0 2.2765,-0.25344 m 0,0 2.2756,-0.47129 m 0,0 2.2035,-0.61625 m 0,0 2.168,-0.79765 m 0,0 2.095,-0.97879 m 0,0 1.9866,-1.12373 m 0,0 1.9145,-1.26869 m 0,0 0.94,-0.72473 m -35.1865,-4.27743 0.089,0.94242 m 0,0 0.1422,0.90631 m 0,0 0.2135,0.90623 m 0,0 0.329,0.86968 m 0,0 0.4357,0.83411 m 0,0 0.5069,0.79765 m 0,0 0.578,0.72473 m 0,0 0.6847,0.65271 m 0,0 0.7203,0.57978 m 0,0 0.7559,0.50776 m 0,0 0.9034,0.4713 m -5.347,-8.19241 v -7.50361 m 1.3365,-2.32003 -0.2134,0.14495 m 0,0 -0.329,0.28989 m 0,0 -0.2934,0.32635 m 0,0 -0.2135,0.36281 m 0,0 -0.1422,0.36281 m 0,0 -0.1068,0.43484 m 0,0 v 0.39838 m 1.3366,-2.32003 2.5654,-1.48619 m 2.3121,0.50776 -0.1779,-0.21787 m 0,0 -0.3646,-0.28989 m 0,0 -0.4357,-0.18141 m 0,0 -0.4357,-0.0356 m 0,0 -0.4713,0.0356 m 0,0 -0.4358,0.18141 m 2.3121,0.50776 0.7558,0.9425 m 0,0 1.0111,0.9787 m 0,0 1.084,0.86968 m 0,0 1.156,0.76119 m 0,0 1.2645,0.65271 m 0,0 1.3001,0.50776 m 0,0 1.3365,0.36281 m 0,0 1.373,0.21786 m 0,0 1.4086,0.0711 m 0,0 1.3729,-0.0711 m 0,0 1.373,-0.21786 m 0,0 1.373,-0.36281 m 0,0 1.3001,-0.50776 m 0,0 1.228,-0.65271 m 0,0 1.1561,-0.76119 m 0,0 1.0839,-0.86968 m 0,0 1.012,-0.9787 m 0,0 0.8715,-1.08754 m 0,0 0.2934,-0.39838 m 1.445,-0.79765 -0.4357,0.0711 m 0,0 -0.4357,0.18141 m 0,0 -0.3646,0.28989 m 0,0 -0.2134,0.25343 m 1.445,-0.79765 h 3.468 m 0,0 0.4713,-0.0356 m 0,0 0.4358,-0.1814 m 0,0 0.3645,-0.2899 m 0,0 0.2935,-0.36281 m 0,0 0.1778,-0.43484 m 0,0 0.089,-0.47129 m 0,0 v -9.82364 m 0,0 -0.089,-0.43484 m 0,0 -0.1778,-0.43484 m 0,0 -0.2935,-0.39838 m 0,0 -0.3645,-0.25343 m 0,0 -0.4358,-0.18141 m 0,0 -0.4713,-0.0711 m 0,0 h -3.468 m -1.445,-0.79765 0.2134,0.28989 m 0,0 0.3646,0.25344 m 0,0 0.4357,0.1814 m 0,0 0.4357,0.0711 m -1.445,-0.79765 -0.2934,-0.36281 m 0,0 -0.8715,-1.08745 m 0,0 -1.012,-1.01498 m 0,0 -1.0839,-0.86968 m 0,0 -1.1561,-0.76119 m 0,0 -1.228,-0.65271 m 0,0 -1.3001,-0.4713 m 0,0 -1.373,-0.36281 m 0,0 -1.373,-0.25343 m 0,0 -1.3729,-0.0711 m 0,0 -1.4086,0.0711 m 0,0 -1.373,0.25343 m 0,0 -1.3365,0.36281 m 0,0 -1.3001,0.4713 m 0,0 -1.2645,0.65271 m 0,0 -1.156,0.76119 m 0,0 -1.084,0.86968 m 0,0 -1.0111,1.01498 m 0,0 -0.7558,0.9425 m -2.3121,0.4713 0.4358,0.18141 m 0,0 0.4713,0.0356 m 0,0 0.4357,-0.0356 m 0,0 0.4357,-0.18141 m 0,0 0.3646,-0.28989 m 0,0 0.1779,-0.18141 m -2.3121,0.4713 -2.5654,-1.48619 m -1.3366,-2.32003 v 0.43484 m 0,0 0.1068,0.39838 m 0,0 0.1422,0.39838 m 0,0 0.2135,0.32635 m 0,0 0.2934,0.32635 m 0,0 0.329,0.2899 m 0,0 0.2134,0.14494 m -1.3365,-2.32003 v -1.15993 m 0,0 v -0.94251 m 0,0 -0.1423,-0.90622 m 0,0 -0.249,-0.90632 m 0,0 -0.329,-0.86968 m 0,0 -0.4357,-0.83411 m 0,0 -0.5069,-0.79765 m 0,0 -0.578,-0.72473 m 0,0 -0.6491,-0.6527 m 0,0 -0.7203,-0.57979 m 0,0 -0.7914,-0.50776 m 0,0 -0.827,-0.43483 m 0,0 -0.8715,-0.32636 m 0,0 -0.9035,-0.25343 m 0,0 -0.9025,-0.14495 m 0,0 -0.94,-0.0356 m 0,0 h -87.9647 m 0,0 -0.939,0.0356 m 0,0 -0.9035,0.14495 m 0,0 -0.9026,0.25343 m 0,0 -0.8715,0.32636 m 0,0 -0.8269,0.43483 m 0,0 -0.7915,0.50776 m 0,0 -0.7203,0.57979 m 0,0 -0.6491,0.6527 m 0,0 -0.578,0.72473 m 0,0 -0.5069,0.79765 m 0,0 -0.4357,0.83411 m 0,0 -0.329,0.86968 m 0,0 -0.249,0.90632 m 0,0 -0.1423,0.90622 m 0,0 v 0.94251 m 0,0 v 24.10594 m 0,0 v 0.68916 m 0,0 0.1779,0.68827 m 0,0 0.2489,0.61625 m 0,0 0.3646,0.61624 m 0,0 0.4713,0.54333 m 0,0 0.5425,0.43484 m 0,0 0.578,0.36281 m 0,0 0.6491,0.28989 m 0,0 0.6847,0.14495 m 0,0 0.6848,0.0711 m 0,0 h 35.5474 m 4.4436,4.45866 -0.089,-0.72473 m 0,0 -0.1422,-0.65271 m 0,0 -0.2935,-0.6527 m 0,0 -0.3646,-0.61625 m 0,0 -0.4357,-0.50775 m 0,0 -0.5425,-0.4713 m 0,0 -0.578,-0.36281 m 0,0 -0.6491,-0.25344 m 0,0 -0.6847,-0.1814 m 0,0 -0.6847,-0.0356 m 4.4435,4.45866 v 49.952023 m -8.8871,8.91741 0.9399,-0.03557 m 0,0 0.9026,-0.144947 m 0,0 0.9035,-0.253434 m 0,0 0.8715,-0.326352 m 0,0 0.8269,-0.434839 m 0,0 0.7559,-0.507758 m 0,0 0.7203,-0.579786 m 0,0 0.6847,-0.652703 m 0,0 0.578,-0.724733 m 0,0 0.5069,-0.79765 m 0,0 0.4357,-0.834109 m 0,0 0.329,-0.869679 m 0,0 0.249,-0.906227 m 0,0 0.1423,-0.906226 m 0,0 v -0.942508 m -8.8871,8.917409 h -11.0177 m -1.59,-0.9787 0.3291,0.471299 m 0,0 0.3645,0.253434 m 0,0 0.4358,0.181405 m 0,0 0.4713,0.07114 m -1.59,-0.978789 -4.9851,-9.823637 m 1.59,-2.573733 -0.4713,0.03557 m 0,0 -0.4002,0.181406 m 0,0 -0.4001,0.289893 m 0,0 -0.2935,0.36281 m 0,0 -0.1423,0.43484 m 0,0 -0.089,0.471298 m 0,0 0.089,0.471299 m 0,0 0.1067,0.326352 m 1.59,-2.573734 h 9.7897 m 0,0 0.4357,-0.07114 m 0,0 0.4357,-0.181405 m 0,0 0.3646,-0.289893 m 0,0 0.2935,-0.362811 m 0,0 0.1778,-0.434839 m 0,0 0.089,-0.43484 m 0,0 v -31.247166 m 0,0 -0.089,-0.4713 m 0,0 -0.1778,-0.39838 m 0,0 -0.2935,-0.39838 m 0,0 -0.3646,-0.25344 m 0,0 -0.4357,-0.1814 m 0,0 -0.4357,-0.0711 m 0,0 h -27.5639 m 0,0 -0.4713,0.0711 m 0,0 -0.4001,0.1814 m 0,0 -0.4002,0.25344 m 0,0 -0.249,0.39838 m 0,0 -0.1778,0.39838 m 0,0 -0.089,0.4713 m 0,0 v 7.03239 m -1.1925,4.45875 0.4357,-0.83411 m 0,0 0.3201,-0.86968 m 0,0 0.2579,-0.90623 m 0,0 0.1423,-0.90631 m 0,0 V -114.69 m -1.1925,4.45866 -33.777,58.724399 m 0,0 -0.1067,0.181406 m 0,0 -0.2489,0.652704 m 0,0 -0.1779,0.688273 m 0,0 v 0.688274 m 0,0 v 28.383455 m -7.9836,8.047464 0.827,-0.03557 m 0,0 0.827,-0.144946 m 0,0 0.7914,-0.217865 m 0,0 0.7914,-0.289893 m 0,0 0.7203,-0.39838 m 0,0 0.7203,-0.471298 m 0,0 0.6491,-0.507758 m 0,0 0.5781,-0.616245 m 0,0 0.5424,-0.652703 m 0,0 0.4357,-0.688274 m 0,0 0.4002,-0.761191 m 0,0 0.2934,-0.761192 m 0,0 0.2134,-0.834109 m 0,0 0.1423,-0.834109 m 0,0 v -0.834109 m -7.9836,8.047375 h -2.6731 m -4.4435,-4.45866 v 0.688273 m 0,0 0.1779,0.688274 m 0,0 0.2489,0.652703 m 0,0 0.3646,0.579786 m 0,0 0.4713,0.543327 m 0,0 0.5069,0.43484 m 0,0 0.6136,0.362811 m 0,0 0.6491,0.289893 m 0,0 0.6847,0.144946 m 0,0 0.6848,0.07114 m -4.4436,-4.458749 v -34.836063 m 1.1916,-4.458661 -0.4357,0.83322 m 0,0 -0.3291,0.869679 m 0,0 -0.2489,0.906227 m 0,0 -0.1423,0.906226 m 0,0 v 0.942508 m 1.1916,-4.45866 33.7414,-58.724398 m 0,0 0.1067,-0.18141 m 0,0 0.2934,-0.6527 m 0,0 0.1423,-0.68828 m 0,0 0.089,-0.68916 m 0,0 v -49.66195 m 0,0 -0.089,-0.94251 m 0,0 -0.1423,-0.90623 m 0,0 -0.2134,-0.90622 m 0,0 -0.3646,-0.86968 m 0,0 -0.4001,-0.83411 m 0,0 -0.5069,-0.79765 m 0,0 -0.578,-0.72473 m 0,0 -0.6847,-0.65271 m 0,0 -0.7203,-0.57978 m 0,0 -0.7559,-0.50776 m 0,0 -0.827,-0.43484 m 0,0 -0.8714,-0.32635 m 0,0 -0.9026,-0.25344 m 0,0 -0.9399,-0.14494 m 0,0 -0.9026,-0.0356 m 0,0 h -606.0728 m 0,0 -0.9026,0.0356 m 0,0 -0.9399,0.14494 m 0,0 -0.9026,0.25344 m 0,0 -0.8715,0.32635 m 0,0 -0.827,0.43484 m 0,0 -0.7558,0.50776 m 0,0 -0.7203,0.57978 m 0,0 -0.6847,0.65271 m 0,0 -0.578,0.72473 m 0,0 -0.5069,0.79765 m 0,0 -0.4357,0.83411 m 0,0 -0.329,0.86968 m 0,0 -0.2135,0.90622 m 0,0 -0.1422,0.90623 m 0,0 -0.089,0.94251 m 0,0 v 49.66195 m 0,0 0.089,0.68916 m 0,0 0.1422,0.68828 m 0,0 0.2935,0.6527 m 0,0 0.1067,0.18141 m 0,0 33.7414,58.724398 m 1.1916,4.45866 v -0.942508 m 0,0 -0.1423,-0.906226 m 0,0 -0.249,-0.906227 m 0,0 -0.329,-0.869679 m 0,0 -0.4357,-0.83322 m 1.1916,4.458661 v 34.835885 m -4.4436,4.45875 0.6847,-0.07114 m 0,0 0.6847,-0.144946 m 0,0 0.6492,-0.289893 m 0,0 0.578,-0.362811 m 0,0 0.5424,-0.43484 m 0,0 0.4713,-0.543327 m 0,0 0.3646,-0.579785 m 0,0 0.2579,-0.652704 m 0,0 0.1779,-0.688274 m 0,0 v -0.688273 m -4.4436,4.45866 h -2.6731 m -7.9836,-8.047464 v 0.834109 m 0,0 0.1423,0.83411 m 0,0 0.2134,0.834109 m 0,0 0.2935,0.761191 m 0,0 0.4001,0.761191 m 0,0 0.4358,0.688274 m 0,0 0.5424,0.652704 m 0,0 0.578,0.616244 m 0,0 0.6492,0.507758 m 0,0 0.7202,0.471298 m 0,0 0.7203,0.398381 m 0,0 0.7915,0.289893 m 0,0 0.7914,0.217864 m 0,0 0.827,0.144946 m 0,0 0.827,0.03557 m -7.9836,-8.047375 v -28.383277 m 0,0 -0.089,-0.688274 m 0,0 -0.1422,-0.688273 m 0,0 -0.249,-0.652704 m 0,0 -0.1067,-0.181406 m 0,0 -33.777,-58.7244 m -1.1925,-4.45866 v 0.94242 m 0,0 0.1423,0.90631 m 0,0 0.249,0.90623 m 0,0 0.329,0.86968 m 0,0 0.4357,0.83411 m -1.1925,-4.45866 v -7.03248 m 0,0 -0.089,-0.4713 m 0,0 -0.1778,-0.39838 m 0,0 -0.249,-0.39838 m 0,0 -0.4002,-0.25344 m 0,0 -0.4001,-0.1814 m 0,0 -0.4713,-0.0711 m 0,0 h -27.5639 m 0,0 -0.4357,0.0711 m 0,0 -0.4357,0.1814 m 0,0 -0.4002,0.25344 m 0,0 -0.249,0.39838 m 0,0 -0.1778,0.39838 m 0,0 -0.089,0.4713 m 0,0 v 31.247167 m 0,0 0.089,0.43484 m 0,0 0.1778,0.434839 m 0,0 0.249,0.362811 m 0,0 0.4002,0.289893 m 0,0 0.4357,0.181405 m 0,0 0.4357,0.07114 m 0,0 h 9.7897 m 1.59,2.573645 0.1067,-0.326352 m 0,0 0.089,-0.471299 m 0,0 -0.089,-0.471298 m 0,0 -0.1779,-0.434839 m 0,0 -0.2579,-0.362811 m 0,0 -0.4001,-0.289893 m 0,0 -0.4002,-0.181406 m 0,0 -0.4713,-0.03557 m 1.59,2.573733 -4.9851,9.823637 m -1.59,0.978789 0.4713,-0.07114 m 0,0 0.4358,-0.181405 m 0,0 0.3645,-0.253434 m 0,0 0.3291,-0.471298 m -1.59,0.9787 h -11.0177 m -8.8871,-8.91741 v 0.942508 m 0,0 0.1423,0.906226 m 0,0 0.249,0.906227 m 0,0 0.3201,0.869679 m 0,0 0.4357,0.83322 m 0,0 0.5069,0.79765 m 0,0 0.578,0.724733 m 0,0 0.6492,0.652703 m 0,0 0.7202,0.579786 m 0,0 0.7915,0.507758 m 0,0 0.827,0.434839 m 0,0 0.8714,0.326352 m 0,0 0.9035,0.253434 m 0,0 0.9026,0.144946 m 0,0 0.9399,0.03557 m -8.8871,-8.91741 v -49.951935 m 4.4436,-4.45875 -0.6848,0.0356 m 0,0 -0.6847,0.18141 m 0,0 -0.6491,0.25343 m 0,0 -0.578,0.36281 m 0,0 -0.5425,0.4713 m 0,0 -0.4357,0.50776 m 0,0 -0.3646,0.61624 m 0,0 -0.2934,0.6527 m 0,0 -0.1423,0.65271 m 0,0 -0.089,0.72473 m 4.4435,-4.45875 h 35.5475 m 0,0 0.6847,-0.0711 m 0,0 0.6847,-0.14494 m 0,0 0.6491,-0.2899 m 0,0 0.578,-0.36281 m 0,0 0.5425,-0.43484 m 0,0 0.4713,-0.54333 m 0,0 0.3646,-0.61624 m 0,0 0.2579,-0.61624 m 0,0 0.1778,-0.68828 m 0,0 v -0.68827 m 0,0 v -24.10602 m 0,0 v -0.94251 m 0,0 -0.1423,-0.90623 m 0,0 -0.249,-0.90623 m 0,0 -0.329,-0.86967 m 0,0 -0.4357,-0.83411 m 0,0 -0.5069,-0.79765 m 0,0 -0.578,-0.72474 m 0,0 -0.6491,-0.6527 m 0,0 -0.7203,-0.57979 m 0,0 -0.7915,-0.50775 m 0,0 -0.8269,-0.43484 m 0,0 -0.8715,-0.32635 m 0,0 -0.9026,-0.25344 m 0,0 -0.9035,-0.14494 m 0,0 -0.939,-0.0356 m 0,0 h -87.9647 m 0,0 -0.94,0.0356 m 0,0 -0.9025,0.14494 m 0,0 -0.9035,0.25344 m 0,0 -0.8715,0.32635 m 0,0 -0.827,0.43484 m 0,0 -0.7914,0.50775 m 0,0 -0.7203,0.57979 m 0,0 -0.6491,0.6527 m 0,0 -0.578,0.72474 m 0,0 -0.5069,0.79765 m 0,0 -0.4357,0.83411 m 0,0 -0.329,0.86967 m 0,0 -0.249,0.90623 m 0,0 -0.1423,0.90623 m 0,0 v 0.94251 m 0,0 v 1.16001 m -1.3365,2.31995 0.2134,-0.14495 m 0,0 0.329,-0.28989 m 0,0 0.2846,-0.32635 m 0,0 0.2134,-0.32636 m 0,0 0.1423,-0.39838 m 0,0 0.1067,-0.39838 m 0,0 v -0.43484 m -1.3366,2.31995 -2.5654,1.48628 m -2.3119,-0.4713 0.1779,0.1814 m 0,0 0.3646,0.2899 m 0,0 0.4357,0.1814 m 0,0 0.4357,0.0356 m 0,0 0.4713,-0.0356 m 0,0 0.4357,-0.1814 m -2.3118,-0.4713 -0.7559,-0.94251 m 0,0 -1.011,-1.01498 m 0,0 -1.084,-0.86968 m 0,0 -1.156,-0.76119 m 0,0 -1.2645,-0.65271 m 0,0 -1.3001,-0.47129 m 0,0 -1.3365,-0.36281 m 0,0 -1.373,-0.25344 m 0,0 -1.4086,-0.0711 m 0,0 -1.373,0.0711 m 0,0 -1.373,0.25344 m 0,0 -1.373,0.36281 m 0,0 -1.3,0.47129 m 0,0 -1.2281,0.65271 m 0,0 -1.1924,0.76119 m 0,0 -1.084,0.86968 m 0,0 -0.9755,1.01498 m 0,0 -0.8626,1.08754 m 0,0 -0.2934,0.36281 m -1.4451,0.79765 0.4358,-0.0711 m 0,0 0.4357,-0.1814 m 0,0 0.3646,-0.25343 m 0,0 0.2134,-0.2899 m -1.445,0.79765 h -3.4681 m 0,0 -0.4713,0.0711 m 0,0 -0.4357,0.18141 m 0,0 -0.3646,0.25343 m 0,0 -0.2934,0.39838 m 0,0 -0.1779,0.43484 m 0,0 -0.089,0.43484 m 0,0 v 9.82364 m 0,0 0.089,0.4713 m 0,0 0.1779,0.43484 m 0,0 0.2934,0.36281 m 0,0 0.3646,0.28989 m 0,0 0.4357,0.1814 m 0,0 0.4713,0.0356 m 0,0 h 3.4681 m 1.445,0.79765 -0.2134,-0.25343 m 0,0 -0.3646,-0.28989 m 0,0 -0.4357,-0.18141 m 0,0 -0.4358,-0.0711 m 1.4451,0.79765 0.2934,0.39838 m 0,0 0.8626,1.08746 m 0,0 0.9755,0.97879 m 0,0 1.084,0.86968 m 0,0 1.1924,0.76119 m 0,0 1.2281,0.6527 m 0,0 1.3,0.50776 m 0,0 1.373,0.36281 m 0,0 1.373,0.21786 m 0,0 1.373,0.0711 m 0,0 1.4086,-0.0711 m 0,0 1.373,-0.21786 m 0,0 1.3365,-0.36281 m 0,0 1.3001,-0.50776 m 0,0 1.2645,-0.6527 m 0,0 1.156,-0.76119 m 0,0 1.084,-0.86968 m 0,0 1.011,-0.97879 m 0,0 0.7559,-0.94251 m 2.3118,-0.50776 -0.4357,-0.1814 m 0,0 -0.4713,-0.0356 m 0,0 -0.4357,0.0356 m 0,0 -0.4357,0.1814 m 0,0 -0.3646,0.2899 m 0,0 -0.1779,0.21786 m 2.3119,-0.50776 2.5654,1.48628 m 1.3366,2.31995 v -0.39838 m 0,0 -0.1067,-0.43484 m 0,0 -0.1423,-0.36281 m 0,0 -0.2134,-0.36282 m 0,0 -0.2846,-0.32635 m 0,0 -0.329,-0.28989 m 0,0 -0.2134,-0.14495 m 1.3365,2.31995 v 7.50369 m -5.3468,8.19241 0.9033,-0.4713 m 0,0 0.7558,-0.50776 m 0,0 0.7203,-0.57978 m 0,0 0.6847,-0.65271 m 0,0 0.578,-0.72473 m 0,0 0.5069,-0.79765 m 0,0 0.4001,-0.83411 m 0,0 0.3646,-0.86968 m 0,0 0.2135,-0.90622 m 0,0 0.1422,-0.90623 m 0,0 0.089,-0.94251 m -35.1863,4.27744 0.9399,0.72473 m 0,0 1.9146,1.26877 m 0,0 1.9865,1.12373 m 0,0 2.0951,0.9787 m 0,0 2.168,0.79765 m 0,0 2.2035,0.61625 m 0,0 2.2756,0.4713 m 0,0 2.2764,0.25343 m 0,0 2.3121,0.10849 m 0,0 2.2755,-0.10849 m 0,0 2.3121,-0.25343 m 0,0 2.24,-0.4713 m 0,0 2.2391,-0.61625 m 0,0 2.1315,-0.79765 m 0,0 0.4713,-0.1814 m -29.8394,-3.91498 -0.1423,-0.10849 m 0,0 -0.578,-0.36281 m 0,0 -0.6491,-0.25343 m 0,0 -0.6848,-0.18141 m 0,0 -0.6847,-0.0356 m 0,0 -0.6847,0.0356 m 0,0 -0.6847,0.18141 m 0,0 -0.6492,0.25343 m 0,0 -0.6135,0.36281 m 0,0 -0.5069,0.4713 m 0,0 -0.4713,0.50776 m 0,0 -0.3646,0.61624 m 0,0 -0.2134,0.50776 m 0,0 -4.1545,11.45486 m 0,0 -0.1068,0.50776 m 0,0 v 0.39838 m 0,0 v 0.43484 m 0,0 0.089,0.39838 m 0,0 0.1778,0.39838 m 0,0 0.2134,0.36281 m 0,0 0.249,0.2899 m 0,0 0.329,0.28989 m 0,0 0.3646,0.21786 m 0,0 0.4002,0.14495 m 0,0 0.4001,0.10849 m 0,0 0.4002,0.0356 m 0,0 h 2.89 m 4.4436,4.45875 v -0.68828 m 0,0 -0.1779,-0.68916 m 0,0 -0.2489,-0.6527 m 0,0 -0.3646,-0.57979 m 0,0 -0.4713,-0.54333 m 0,0 -0.5069,-0.43484 m 0,0 -0.6136,-0.36281 m 0,0 -0.6491,-0.28989 m 0,0 -0.6492,-0.14495 m 0,0 -0.7203,-0.0711 m 4.4436,4.45866 v 1.77627 m 0,0 0.089,0.72473 m 0,0 0.1423,0.6527 m 0,0 0.2934,0.65271 m 0,0 0.3646,0.61624 m 0,0 0.4358,0.50776 m 0,0 0.5424,0.4713 m 0,0 0.578,0.36281 m 0,0 0.6491,0.25343 m 0,0 0.6848,0.18141 m 0,0 0.6847,0.0356 m 0,0 h 2.6739 m 4.4436,4.458657 -0.089,-0.688277 m 0,0 -0.1422,-0.68916 m 0,0 -0.249,-0.61624 m 0,0 -0.4002,-0.61625 m 0,0 -0.4357,-0.54333 m 0,0 -0.5424,-0.43484 m 0,0 -0.5781,-0.36281 m 0,0 -0.6491,-0.28989 m 0,0 -0.6847,-0.14495 m 0,0 -0.6847,-0.0711 m 4.4435,4.458665 v 4.494853 m -1.7705,1.776172 0.4713,-0.07114 m 0,0 0.4002,-0.181406 m 0,0 0.4001,-0.289893 m 0,0 0.249,-0.36281 m 0,0 0.1779,-0.43484 m 0,0 0.089,-0.434839 m -1.7705,1.776261 h -18.6767 m -1.7705,-1.776261 0.089,0.434839 m 0,0 0.1779,0.43484 m 0,0 0.249,0.36281 m 0,0 0.4001,0.289893 m 0,0 0.4002,0.181406 m 0,0 0.4713,0.07114 m -1.7883,-1.776172 v -7.141238 m 0,0 -0.089,-0.4713 m 0,0 -0.1779,-0.43484 m 0,0 -0.249,-0.36281 m 0,0 -0.4001,-0.28989 m 0,0 -0.4002,-0.18141 m 0,0 -0.4713,-0.0711 m 0,0 h -14.23319 m -1.66199,-2.39241 v 0.14494 m 0,0 -0.0889,0.4713 m 0,0 0.0889,0.4713 m 0,0 0.17785,0.43484 m 0,0 0.24899,0.36281 m 0,0 0.40016,0.28989 m 0,0 0.40016,0.18141 m 0,0 0.47129,0.0356"
       id="path1-1" />
    <path
       style="fill:none;stroke:#000000;stroke-width:0.0361252px;stroke-linecap:round;stroke-linejoin:round;stroke-miterlimit:4;stroke-dasharray:none;stroke-opacity:1"
       d="m 1960.7539,-188.26981 -0.5069,-0.50776 m 5.6716,17.03726 -3.7926,-3.76994 m -3.7571,-3.80623 -3.757,-3.76994 m -3.7935,-3.80622 -3.7571,-3.76995 m 26.6248,38.09834 -2.1315,-2.13872 m -3.7571,-3.76994 -3.7935,-3.80622 m -3.757,-3.76994 -3.7571,-3.80623 m -3.7926,-3.76994 -3.757,-3.80622 m -3.7571,-3.76994 -3.7935,-3.76995 m -3.757,-3.80622 -2.5281,-2.50126 m 42.1216,53.61321 -3.7935,-3.80622 m -3.7571,-3.76994 -3.757,-3.76995 m -3.7926,-3.80622 -1.7341,-1.77626 m -13.3306,-13.37607 -3.7926,-3.77003 m -3.7571,-3.76994 -3.757,-3.80623 m -3.7935,-3.76994 -3.7571,-3.80622 m -3.757,-3.76995 -0.6492,-0.61624 m 62.8579,74.4205 -3.7935,-3.76994 m -3.7571,-3.80622 -3.757,-3.77004 m -3.7926,-3.80613 -3.7571,-3.77003 m -3.7935,-3.76994 -3.757,-3.80623 m -3.7571,-3.76994 -0.9025,-0.90623 m -21.7118,-21.82227 -3.7926,-3.76994 m -3.7571,-3.80622 -3.7935,-3.76994 m -3.757,-3.76995 -3.7571,-3.80622 m 73.262,84.89658 -3.54,-3.51625 m -3.7571,-3.76994 -3.757,-3.80622 m -3.7935,-3.76994 -2.6366,-2.64621 m -12.4272,-12.50613 -3.757,-3.76994 m -3.7936,-3.80622 -1.6255,-1.63123 m -20.9888,-21.06108 -2.4925,-2.50117 m -12.5712,-12.65116 -3.7935,-3.76994 m -3.7571,-3.80622 -3.7926,-3.76995 m 73.5501,85.15037 -3.7926,-3.76994 m -3.7571,-3.76995 -1.4814,-1.52256 m -13.6188,-13.62986 -3.757,-3.80613 m -3.7571,-3.77003 -3.7935,-3.76994 m -36.4136,-36.57587 -1.2645,-1.30496 m -3.7935,-3.76994 -3.757,-3.76995 m -3.7571,-3.80622 -2.529,-2.50126 m 79.8006,91.45776 -3.757,-3.76994 m -3.7927,-3.80623 -0.089,-0.0711 m -17.7741,-17.83481 -1.0111,-1.01499 m -3.7571,-3.76994 -3.757,-3.80622 m -3.7935,-3.76994 -3.7571,-3.80623 m -34.5355,-34.65457 -3.179,-3.18998 m -3.7571,-3.77003 -3.757,-3.80613 m -3.7926,-3.77003 -0.6136,-0.61625 m 85.4357,97.149003 -3.757,-3.806224 m -3.7571,-3.769939 -2.095,-2.10244"
       id="path2-4" />
    <path
       style="fill:none;stroke:#000000;stroke-width:0.0361252px;stroke-linecap:round;stroke-linejoin:round;stroke-miterlimit:4;stroke-dasharray:none;stroke-opacity:1"
       d="m 1881.0617,-177.4312 -3.757,-3.76994 m -3.757,-3.76994 -3.7936,-3.80622 m 81.0651,92.726528 -0.2134,-0.217865 m -82.7271,-83.047933 -3.757,-3.76994 m -3.7935,-3.80622 -3.7571,-3.76995 m 3.1791,14.53609 -1.3001,-1.30496 m -3.757,-3.76994 -3.7571,-3.76995 m -3.7935,-3.80622 -2.4926,-2.50126 m 3.7936,15.15233 -3.1791,-3.18998 m -3.757,-3.76994 -3.7935,-3.80622 m -3.7571,-3.76995 -0.6491,-0.61624 m 2.529,13.84737 -3.7571,-3.76994 m -3.7935,-3.77003 -3.757,-3.80614 m -1.8781,9.46109 -3.7935,-3.76994 m -3.7571,-3.80622 -3.757,-3.76995 m 50.9011,62.45807 -3.7935,-3.80614 m -3.7571,-3.77003 -2.89,-2.86372 m -34.8245,-34.98083 -3.757,-3.80622 m -3.7936,-3.76994 -3.757,-3.77003 m -3.7571,-3.80614 -2.5281,-2.50126 m 64.736,76.30543 -3.7935,-3.76994 m -3.7571,-3.80623 -3.757,-3.76994 m -3.7926,-3.76994 -3.7571,-3.80622 m -3.757,-3.76995 -1.012,-0.97879 m -21.6388,-21.7497 -3.7571,-3.77004 m -3.757,-3.80613 -3.7926,-3.77003 m -3.7571,-3.76994 -3.757,-3.80623 m -3.7935,-3.76994 -3.7571,-3.80622 m -3.7926,-3.76995 -0.6136,-0.61624 m 76.3326,87.9778 -2.1671,-2.21119 m -3.7935,-3.76994 -3.7571,-3.77003 m -11.3076,-11.3823 -3.7926,-3.77003 m -3.757,-3.80614 -3.7571,-3.77003 m -12.1017,-12.14358 -2.9985,-3.00875 m -3.7571,-3.76994 -3.7935,-3.76995 m -3.757,-3.80622 -0.7914,-0.79765 m -14.2697,-14.35486 -3.7935,-3.76994 m -3.7571,-3.77003 -3.757,-3.80614 m 85.1111,96.822739 -0.2934,-0.289892 m -3.7935,-3.806135 -3.7571,-3.770031 m -3.757,-3.769941 -1.734,-1.73998 m -20.8803,-20.98852 -3.7927,-3.76994 m -3.757,-3.80622 -3.7935,-3.76995 m -3.7571,-3.80622 -3.757,-3.76994 m -3.7926,-3.77003 -2.6731,-2.71868 m -27.4918,-27.58599 -3.757,-3.76994 m -3.7571,-3.80622 -3.7926,-3.76995 m 96.1653,107.878868 -3.7935,-3.806224 m -3.757,-3.769942 -3.613,-3.624996 m -29.4055,-29.507186 -0.9035,-0.94242 m -3.7926,-3.77003 -3.757,-3.80623 m -3.7935,-3.76994 -3.7571,-3.76994 m -36.4136,-36.57587 -1.3009,-1.30496 m -3.7571,-3.76994 -3.757,-3.77003 m -3.7926,-3.80614 -2.4935,-2.50126 m 102.4149,114.150066 -3.757,-3.769942 m -3.7926,-3.770032 -3.7571,-3.806134 m -26.4078,-26.498528 -3.7571,-3.76994 m -3.757,-3.80623 -3.7926,-3.76994 m -49.6002,-49.80699 -3.179,-3.18998 m -3.7571,-3.76994 -3.7935,-3.80622 m -3.7561,-3.76995 -0.6136,-0.61624 m 100.5359,112.26505 -3.757,-3.733661 m -26.4069,-26.534719 -3.7936,-3.77003 m -3.757,-3.80614 -0.7914,-0.79765 m -59.5348,-59.77557 -3.757,-3.76994 m -3.7571,-3.77003 -3.7935,-3.80614 m 78.248,89.89901 -0.9399,-0.942508 m -3.7927,-3.769942 -3.757,-3.80622 m -71.6365,-71.91925 -3.757,-3.76994 m -3.7935,-3.80622 -3.7571,-3.76994 m 87.2791,98.961449 -2.4569,-2.428698 m -3.7571,-3.806224 -3.7926,-3.769937 m -74.0934,-74.42051 -1.3001,-1.30496 m -3.7571,-3.76994 -3.7935,-3.77003 m -3.757,-3.80614 -2.5281,-2.50126 m 94.9008,106.610093 -3.7571,-3.806134 m -3.7935,-3.770031 -3.3231,-3.334925 m -80.2345,-80.546673 -3.1426,-3.18998 m -3.7935,-3.76994 -3.7571,-3.80622 m -3.757,-3.76994 -0.6491,-0.61625 m 100.5368,112.265051 -3.7571,-3.769942 m -3.757,-3.806223 -1.8061,-1.812454 m -88.6876,-89.029062 -3.7571,-3.76994 m -3.7935,-3.77003 -3.757,-3.80623 m 103.6794,115.45512 -3.7926,-3.806223 m -3.7571,-3.769942 -0.2934,-0.289893 m -97.7189,-98.127702 -3.7935,-3.76994 m -3.757,-3.80622 -3.7571,-3.76995 m 115.9625,127.77993 -0.9755,-0.978789 m -3.7935,-3.769943 -3.757,-3.806223 m -104.293,-104.688885 -1.2645,-1.30496 m -3.7935,-3.76994 -3.7571,-3.77004 m -3.757,-3.80622 -2.5281,-2.50117 m 123.7647,135.573599 -2.4925,-2.464979 m -3.7571,-3.806224 -3.7935,-3.769942 m -109.929,-110.380124 -3.1791,-3.18998 m -3.757,-3.76994 -3.757,-3.80622 m -3.7927,-3.76995 -0.6135,-0.61624 m 130.7008,142.569712 -3.7571,-3.806223 m -3.7926,-3.769943 -3.2875,-3.298732 m -117.3346,-117.847444 -3.7935,-3.77003 m -3.7571,-3.76995 -3.7926,-3.80622 m 140.888,152.792175 -3.2511,-3.262451 m -3.7935,-3.806224 -3.7571,-3.769942 m -3.757,-3.806224 -0.5424,-0.543327 m -127.6668,-128.142377 -3.757,-3.76995 m -3.7571,-3.80622 -3.7926,-3.76994 m 154.0737,166.023208 -1.373,-1.377436 m -3.7571,-3.769942 -3.7926,-3.806224 m -3.757,-3.770031 -2.4205,-2.428698 m -135.7944,-136.334787 -1.301,-1.30497 m -3.7571,-3.77003 -3.757,-3.76994 m -3.7926,-3.80622 -2.4935,-2.50118 m 162.7447,174.723203 -3.7935,-3.770031 m -3.757,-3.806223 -3.7571,-3.769943 m -147.6435,-148.224666 -3.1791,-3.18998 m -3.757,-3.76995 -3.7935,-3.80622 m -3.7562,-3.76994 -0.6136,-0.61625 m 166.3924,178.420583 -1.7696,-1.812453 m -162.1302,-162.76076 -3.7571,-3.77003 m -3.7935,-3.76994 -3.757,-3.80622 m -1.8781,9.46118 -3.7571,-3.76995 m -3.7935,-3.80622 -3.757,-3.76994 m 3.1435,14.53609 -1.2646,-1.30497 m -3.757,-3.77003 -3.7935,-3.76994 m -3.7571,-3.80622 -2.5281,-2.50118 m 3.7926,15.15234 -3.1425,-3.18998 m -3.7935,-3.76995 -3.7571,-3.80622 m -3.757,-3.76994 -0.6492,-0.61625 m 2.529,13.84737 -3.7935,-3.77003 m -3.757,-3.76994 -3.7571,-3.80622 m -1.8781,9.46118 -3.7935,-3.76995 m -3.757,-3.80622 -3.7926,-3.76994 m 3.179,14.53609 -1.2645,-1.30497 m -3.7935,-3.77003 -3.7571,-3.76994 m -3.757,-3.80622 -2.5281,-2.50118 m 3.7926,15.15234 -3.179,-3.18998 m -3.7571,-3.76995 -3.757,-3.80622 m -3.7927,-3.76994 -0.6135,-0.61625 m 2.4925,13.84737 -3.757,-3.77003 m -3.7571,-3.76994 -3.7926,-3.80622 m -1.879,9.46118 -3.757,-3.76995 m -3.7926,-3.80622 -3.7571,-3.76994 m 3.1791,14.53609 -1.301,-1.30497 m -3.7571,-3.77003 -3.7926,-3.76994 m -3.757,-3.80622 -2.4935,-2.50118 m 3.7936,15.15234 -3.1791,-3.18998 m -3.757,-3.76995 -3.7935,-3.80622 m -3.7562,-3.76994 -0.6492,-0.61625 m 2.5291,13.84737 -3.7571,-3.77003 m -3.7935,-3.76994 -3.7571,-3.80622 m -1.878,9.46118 -3.7935,-3.76995 m -3.7571,-3.80622 -3.757,-3.76994 m 3.1434,14.53609 -1.2645,-1.30497 m -3.7935,-3.77003 -3.757,-3.76994 m -3.7571,-3.80622 -2.5281,-2.50118 m 3.7926,15.15234 -3.1425,-3.18998 m -3.7936,-3.76995 -3.757,-3.80622 m -3.7926,-3.76994 -0.6136,-0.61625 m 2.529,13.84728 -3.7935,-3.76994 m -3.7571,-3.76994 -3.757,-3.80622 m -1.9145,9.46118 -3.7571,-3.76995 m -3.757,-3.80622 -3.7927,-3.76994 m 3.1791,14.53609 -1.301,-1.30506 m -3.757,-3.76994 -3.7571,-3.76994 m -3.7926,-3.80622 -2.4925,-2.50118 m 3.7926,15.15234 -3.1791,-3.18998 m -3.757,-3.76995 -3.7926,-3.80622 m -3.7571,-3.76994 -0.6135,-0.61625 m 2.4925,13.84728 -3.757,-3.76994 m -3.7571,-3.76994 -3.7926,-3.80622 m -1.879,9.46118 -3.757,-3.76995 m -3.7927,-3.80622 -3.757,-3.76994 m 3.179,14.53609 -1.3009,-1.30506 m -3.7571,-3.76994 -3.7926,-3.76994 m -3.757,-3.80622 -2.529,-2.50118 m 3.7926,15.15234 -3.1426,-3.18998 m -3.7935,-3.76995 -3.7571,-3.80622 m -3.7561,-3.76994 -0.6492,-0.61625 m 2.529,13.84728 -3.757,-3.76994 m -3.7935,-3.76994 -3.7571,-3.80622 m -1.878,9.46118 -3.7936,-3.76995 m -3.757,-3.80622 -3.757,-3.76994 m 3.1434,14.53609 -1.2645,-1.30506 m -3.7935,-3.76994 -3.757,-3.76994 m -3.7571,-3.80622 -2.5281,-2.50118 m 3.7926,15.15234 -3.179,-3.18998 m -3.7571,-3.76995 -3.757,-3.80622 m -3.7926,-3.76994 -0.6136,-0.61625 m 2.529,13.84728 -3.7935,-3.76994 m -3.7571,-3.76994 -3.7926,-3.80622 m -1.879,9.46118 -3.757,-3.76995 m -3.757,-3.80622 -3.7927,-3.77003 m 3.1791,14.53618 -1.301,-1.30506 m -3.757,-3.76994 -3.7571,-3.76994 m -3.7926,-3.80622 -2.4925,-2.50118 m 3.7926,15.15234 -3.1791,-3.18998 m -3.757,-3.76995 -3.7926,-3.80622 m -3.7571,-3.77003 -0.6136,-0.61625 m 2.4926,13.84737 -3.7571,-3.76994 m -3.7926,-3.76994 -3.757,-3.80622 m -1.879,9.46118 -3.757,-3.77003 m -3.7927,-3.80614 -3.757,-3.77003 m 3.1426,14.53618 -1.2645,-1.30506 m -3.7571,-3.76994 -3.7926,-3.76994 m -3.757,-3.80622 -2.5291,-2.50127 m 3.7927,15.15243 -3.1426,-3.18998 m -3.7935,-3.77003 -3.7571,-3.80614 m -3.7561,-3.77003 -0.6492,-0.61625 m 2.529,13.84737 -3.7935,-3.76994 m -3.757,-3.76994 -3.7571,-3.80622 m -1.9145,9.46118 -3.7571,-3.77003 m -3.757,-3.80614 -3.7926,-3.77003 m 5.6716,17.03735 -3.7571,-3.80623 m -3.7935,-3.76994 -3.757,-3.76994 m -3.7927,-3.80622 -2.4925,-2.50127 m 11.9212,23.30855 -3.7571,-3.76994 m -3.757,-3.76994 -3.7935,-3.80622 m -3.7571,-3.77003 -3.757,-3.80614 m -3.7926,-3.77003 -0.6136,-0.61625 m 25.1433,36.57587 -3.7935,-3.76994 m -3.7571,-3.80623 -3.7926,-3.76994 m -11.3076,-11.38239 -3.757,-3.76994 m -3.7571,-3.76994 -3.7926,-3.80622 m 35.15,46.65329 -3.107,-3.11751 m -3.7571,-3.76994 -3.757,-3.80622 m -3.7935,-3.76995 -0.6848,-0.72473 m -21.9278,-22.0035 -3.757,-3.77003 m -3.7927,-3.80613 -3.757,-3.77003 m 48.3356,59.88441 -1.1924,-1.23249 m -3.7935,-3.76994 -3.7571,-3.76994 m -3.7926,-3.80623 -2.5655,-2.57373 m -30.0555,-30.19591 -1.3009,-1.30505 m -3.7571,-3.76994 -3.7926,-3.76994 m -3.757,-3.80623 -2.529,-2.50126 m 57.1862,68.72935 -3.757,-3.77003 m -3.7571,-3.76994 -3.7935,-3.80622 m -3.757,-3.76995 -1.0111,-1.01498 m -37.2815,-37.44581 -3.179,-3.18998 m -3.7571,-3.77003 -3.7926,-3.80613 m -3.757,-3.77003 -0.6492,-0.61625 m 82.9076,94.539075 -1.1924,-1.196297 m -3.7926,-3.769938 -3.7571,-3.80623 m -3.757,-3.76994 -3.7936,-3.76994 m -3.757,-3.80623 -3.7926,-3.76994 m -3.7571,-3.80622 -3.757,-3.76994 m -3.7935,-3.80623 -3.7571,-3.76994 m -41.4716,-41.65086 -3.757,-3.76994 m -3.7926,-3.76994 -3.7571,-3.80623 m 103.6786,115.455031 -3.7562,-3.806224 m -3.7935,-3.769942 -3.7571,-3.769942 m -3.7935,-3.806224 -3.757,-3.769942 m -3.7571,-3.806224 -3.7926,-3.769942 m -3.757,-3.769941 -3.7571,-3.80622 m -18.8573,-18.92237 -3.7935,-3.76994 m -3.757,-3.80622 -3.7571,-3.76995 m -41.4715,-41.65077 -3.7927,-3.77003 m -3.757,-3.80613 -3.7571,-3.77003 m 126.2938,138.14733 -3.7935,-3.769942 m -3.7571,-3.806224 -3.757,-3.769942 m -3.7935,-3.769942 -3.7571,-3.806224 m -3.757,-3.770031 -3.7926,-3.806134 m -3.7571,-3.770032 -1.662,-1.667418 m -38.8705,-39.040841 -0.9391,-0.94251 m -3.757,-3.76994 -3.7935,-3.80623 m -3.7571,-3.76994 -2.89,-2.86372 m -37.3171,-37.48218 -1.2645,-1.30496 m -3.7935,-3.76994 -3.7561,-3.76994 m -3.7571,-3.80623 -2.529,-2.50126 m 140.1295,152.030985 -3.7571,-3.806223 m -3.7935,-3.770032 -3.757,-3.806134 m -3.7562,-3.770031 -3.179,-3.18989 m -64.7004,-64.959325 -3.7571,-3.77003 m -3.7935,-3.76994 -3.6485,-3.69747 m -42.1946,-42.33958 -3.1426,-3.18989 m -3.7935,-3.77003 -3.757,-3.80613 m -3.7926,-3.77003 -0.6136,-0.61625 m 152.3761,164.319601 -2.8171,-2.827524 m -3.7935,-3.806223 -3.7571,-3.769942 m -3.757,-3.806224 -0.9755,-0.942508 m -66.904,-67.17051 -3.757,-3.76994 m -3.7926,-3.80623 -3.7571,-3.76994 m -56.5362,-56.80319 -3.7935,-3.76994 m -3.7571,-3.76994 -3.7568,-3.80623 m 160.9019,172.910659 -0.6847,-0.688273 m -3.757,-3.769943 -3.7935,-3.806223 m -3.7571,-3.769942 -2.8536,-2.863716 m -57.4752,-57.709418 -0.2135,-0.217865 m -8.9582,-8.989883 -2.1315,-2.138716 m -3.757,-3.76994 -3.7936,-3.80623 m -64.0859,-64.34307 -3.757,-3.77003 m -3.7933,-3.80614 -3.7571,-3.77003 m -3.757,-3.80613 -3.7927,-3.77003 m 164.0081,175.991966 -3.757,-3.770032 m -58.8483,-59.086854 -1.4806,-1.486191 m -3.757,-3.770031 -3.7935,-3.806134 m -3.7571,-3.770032 -3.7926,-3.769942 m -3.757,-3.806223 -1.7705,-1.776173 m -66.0732,-66.336844 -3.7926,-3.80623 m -3.7571,-3.76994 -3.7935,-3.80622 m -3.757,-3.76994 -3.7571,-3.76995 m -3.7926,-3.80622 -2.4925,-2.50126 m 102.4147,114.150066 -3.757,-3.769942 m -3.7936,-3.769943 -3.6485,-3.697469 m -79.3665,-79.676632 -3.685,-3.69747 m -3.757,-3.77003 -3.7936,-3.80614 m -3.757,-3.77003 -2.8171,-2.82743 m 34.8599,46.36331 -3.7569,-3.80623 m -21.1328,-21.20602 -1.5171,-1.48628 m -3.757,-3.80623 -3.7571,-3.76994 m -3.7935,-3.80622 -0.1778,-0.18141 m 36.4143,47.92198 -0.4002,-0.39838 m -3.7933,-3.80623 -3.7571,-3.76994 m -3.757,-3.80622 -0.1423,-0.10849 m -22.5058,-22.58346 -3.7571,-3.80622 m 28.2859,39.76584 -3.7935,-3.80622 m -3.757,-3.76995 -3.7571,-3.76994 m -3.7926,-3.80622 -3.7571,-3.76994 m -3.757,-3.80623 -3.7935,-3.77003 m -3.7571,-3.76994 -2.456,-2.50117 m 23.9508,35.41585 -0.7559,-0.76119 m -3.757,-3.76995 -3.7935,-3.80622 m -3.7571,-3.76994 -3.7926,-3.80623 m -3.757,-3.76994 -3.7571,-3.76994 m 5.2377,16.60233 -3.3596,-3.37121 m -3.757,-3.76994 -3.7927,-3.80622 m 5.6716,17.03726 -3.7935,-3.76995 m -3.757,-3.80622 -2.0951,-2.10244 m 26.5884,38.06206 -3.7571,-3.76994 m -4.9495,-4.96615 -2.601,-2.61002 m -3.7571,-3.76994 -1.517,-1.52247 m -6.062,-6.05361 -3.7571,-3.80622 m 19.8328,31.283363 -2.89,-2.899908 m -3.7571,-3.770031 -3.757,-3.769944 m -3.7935,-3.80622 -3.7571,-3.76994 m -3.757,-3.80623 -3.7926,-3.76994 m 13.2212,24.613513 -0.8626,-0.869679 m -8.8506,-8.881124 -1.6255,-1.63123 m -3.75706,-3.76994 -1.69757,-1.73998"
       id="path3" />
  </g>
</svg>
