<?xml version="1.0" encoding="UTF-8" standalone="no"?>
<!-- Created with Inkscape (http://www.inkscape.org/) -->

<svg
   width="112.43591mm"
   height="40.000023mm"
   viewBox="0 0 112.43591 40.000022"
   version="1.1"
   id="svg1"
   inkscape:export-filename="GT Sprosse FB 105mm.svg"
   inkscape:export-xdpi="96"
   inkscape:export-ydpi="96"
   xmlns:inkscape="http://www.inkscape.org/namespaces/inkscape"
   xmlns:sodipodi="http://sodipodi.sourceforge.net/DTD/sodipodi-0.dtd"
   xmlns="http://www.w3.org/2000/svg"
   xmlns:svg="http://www.w3.org/2000/svg">
  <sodipodi:namedview
     id="namedview1"
     pagecolor="#ffffff"
     bordercolor="#999999"
     borderopacity="1"
     inkscape:showpageshadow="2"
     inkscape:pageopacity="0"
     inkscape:pagecheckerboard="0"
     inkscape:deskcolor="#d1d1d1"
     inkscape:document-units="mm"
     inkscape:lockguides="true">
    <inkscape:page
       x="0"
       y="0"
       width="112.43591"
       height="40.000023"
       id="page2"
       margin="0"
       bleed="0" />
  </sodipodi:namedview>
  <defs
     id="defs1" />
  <g
     inkscape:label="Ebene 1"
     inkscape:groupmode="layer"
     id="layer1"
     transform="translate(-34.243767,-147.70435)">
    <path
       style="fill:none;stroke:#000000;stroke-width:2.54352px;stroke-linecap:round;stroke-linejoin:round;stroke-miterlimit:4;stroke-dasharray:none;stroke-opacity:1"
       d="m 38.254858,148.97611 -0.213671,0.001 m 0,0 -0.213649,0.0295 m 0,0 -0.210033,0.0398 m 0,0 -0.210043,0.0547 m 0,0 -0.200094,0.0763 m 0,0 -0.196508,0.0875 m 0,0 -0.189981,0.10924 m 0,0 -0.177816,0.11971 m 0,0 -0.167351,0.13511 m 0,0 -0.160292,0.14862 m 0,0 -0.148504,0.15877 m 0,0 -0.131277,0.16772 m 0,0 -0.120341,0.1786 m 0,0 -0.104881,0.19206 m 0,0 -0.09146,0.1951 m 0,0 -0.07243,0.20393 m 0,0 -0.06141,0.20752 m 0,0 -0.03975,0.21112 m 0,0 -0.02884,0.21449 m 0,0 -0.001,0.21404 m 0,0 v 31.96686 m 0,0 0.001,0.2186 m 0,0 0.02884,0.21087 m 0,0 0.03975,0.21422 m 0,0 0.06141,0.20391 m 0,0 0.07243,0.20393 m 0,0 0.09146,0.19704 m 0,0 0.104881,0.18864 m 0,0 0.120341,0.17919 m 0,0 0.131277,0.1712 m 0,0 0.148504,0.1586 m 0,0 0.160292,0.14881 m 0,0 0.167351,0.13125 m 0,0 0.177816,0.1197 m 0,0 0.189981,0.10925 m 0,0 0.196508,0.0875 m 0,0 0.200094,0.0763 m 0,0 0.210043,0.0546 m 0,0 0.210033,0.0398 m 0,0 0.213649,0.0294 m 0,0 0.213671,0.002 m 0,0 H 142.67254 m 0,0 0.21538,-0.002 m 0,0 0.21363,-0.0294 m 0,0 0.21006,-0.0398 m 0,0 0.20712,-0.0546 m 0,0 0.20341,-0.0763 m 0,0 0.19316,-0.0875 m 0,0 0.18999,-0.10925 m 0,0 0.17762,-0.1197 m 0,0 0.17095,-0.13125 m 0,0 0.15666,-0.14881 m 0,0 0.14852,-0.1586 m 0,0 0.13378,-0.1712 m 0,0 0.11766,-0.17919 m 0,0 0.10914,-0.18864 m 0,0 0.0874,-0.19704 m 0,0 0.0762,-0.20393 m 0,0 0.0545,-0.20391 m 0,0 0.0398,-0.21422 m 0,0 0.0294,-0.21087 m 0,0 10e-4,-0.2186 m 0,0 v -31.96686 m 0,0 -10e-4,-0.21404 m 0,0 -0.0294,-0.21449 m 0,0 -0.0398,-0.21112 m 0,0 -0.0545,-0.20752 m 0,0 -0.0762,-0.20393 m 0,0 -0.0874,-0.1951 m 0,0 -0.10914,-0.19206 m 0,0 -0.11766,-0.1786 m 0,0 -0.13378,-0.16772 m 0,0 -0.14852,-0.15877 m 0,0 -0.15666,-0.14862 m 0,0 -0.17095,-0.13511 m 0,0 -0.17762,-0.11971 m 0,0 -0.18999,-0.10924 m 0,0 -0.19316,-0.0875 m 0,0 -0.20341,-0.0763 m 0,0 -0.20712,-0.0547 m 0,0 -0.21006,-0.0398 m 0,0 -0.21363,-0.0295 m 0,0 -0.21538,-0.001 m 0,0 H 38.254858 m 34.072334,7.16438 h -9.895179 m 0,0 -0.213402,0.002 m 0,0 -0.213698,0.0295 m 0,0 -0.210033,0.036 m 0,0 -0.207073,0.063 m 0,0 -0.203481,0.0763 m 0,0 -0.196508,0.0875 m 0,0 -0.189979,0.10603 m 0,0 -0.177638,0.12231 m 0,0 -0.167373,0.13139 m 0,0 -0.160271,0.14867 m 0,0 -0.148513,0.15941 m 0,0 -0.131267,0.16769 m 0,0 -0.117675,0.18107 m 0,0 -0.108598,0.19204 m 0,0 -0.08774,0.19695 m 0,0 -0.07603,0.20051 m 0,0 -0.05914,0.20752 m 0,0 -0.03581,0.21105 m 0,0 -0.02908,0.21437 m 0,0 -10e-4,0.11279 m 0,0 -0.001,0.0728 m 0,0 -0.0034,0.11612 m 0,0 -0.02897,0.1128 m 0,0 -0.03975,0.10925 m 0,0 -0.04394,0.10153 m 0,0 -0.06546,0.0944 m 0,0 -0.07243,0.0875 m 0,0 -0.08245,0.0833 m 0,0 -0.08774,0.0728 m 0,0 -0.09505,0.0666 m 0,0 -4.065318,2.35341 m 0,0 -0.09913,0.0437 m 0,0 -0.108599,0.0398 m 0,0 -0.112192,0.0295 m 0,0 -0.115902,0.003 m 0,0 -0.115908,0.001 m 0,0 -0.117552,-0.001 m 0,0 -0.112308,-0.003 m 0,0 -0.112307,-0.0295 m 0,0 -0.112195,-0.0398 m 0,0 -0.101263,-0.0437 m 0,0 -0.09505,-0.0666 m 0,0 -0.08774,-0.0728 m 0,0 -0.08217,-0.0833 m 0,0 -0.02908,-0.0326 m 0,0 -0.1485,-0.16773 m 0,0 -0.207064,-0.21863 m 0,0 -0.217265,-0.20751 m 0,0 -0.229388,-0.1969 m 0,0 -0.243043,-0.18508 m 0,0 -0.246574,-0.17115 m 0,0 -0.255867,-0.15872 m 0,0 -0.26918,-0.14511 m 0,0 -0.272402,-0.12773 m 0,0 -0.279159,-0.1197 m 0,0 -0.286234,-0.10122 m 0,0 -0.28798,-0.086 m 0,0 -0.291528,-0.0728 m 0,0 -0.294714,-0.0532 m 0,0 -0.30084,-0.036 m 0,0 -0.301474,-0.0294 m 0,0 -0.305321,-0.001 m 0,0 -0.305304,0.001 m 0,0 -0.300871,0.0294 m 0,0 -0.30114,0.036 m 0,0 -0.294715,0.0532 m 0,0 -0.291552,0.0728 m 0,0 -0.287933,0.086 m 0,0 -0.284765,0.10122 m 0,0 -0.279181,0.1197 m 0,0 -0.272389,0.12773 m 0,0 -0.269181,0.14511 m 0,0 -0.255053,0.15872 m 0,0 -0.246621,0.17115 m 0,0 -0.243068,0.18508 m 0,0 -0.229376,0.1969 m 0,0 -0.217428,0.20751 m 0,0 -0.207096,0.21863 m 0,0 -0.196499,0.23009 m 0,0 -0.188296,0.24034 m 0,0 -0.170978,0.25073 m 0,0 -0.156591,0.25773 m 0,0 -0.144851,0.26701 m 0,0 -0.131264,0.2733 m 0,0 -0.115906,0.28004 m 0,0 -0.100815,0.28358 m 0,0 -0.08413,0.29036 m 0,0 -0.07243,0.29383 m 0,0 -0.05364,0.29765 m 0,0 -0.03975,0.30209 m 0,0 -0.02701,0.30214 m 0,0 -10e-4,0.3024 m 0,0 10e-4,0.30246 m 0,0 0.02701,0.30213 m 0,0 0.03975,0.30143 m 0,0 0.05364,0.29826 m 0,0 0.07243,0.29391 m 0,0 0.08413,0.29031 m 0,0 0.100815,0.28359 m 0,0 0.115906,0.28005 m 0,0 0.131264,0.2733 m 0,0 0.144851,0.26807 m 0,0 0.156591,0.258 m 0,0 0.170978,0.2507 m 0,0 0.188296,0.24037 m 0,0 0.196499,0.23004 m 0,0 0.207096,0.21892 m 0,0 0.217428,0.20751 m 0,0 0.229376,0.19731 m 0,0 0.243068,0.18509 m 0,0 0.246621,0.17115 m 0,0 0.255053,0.15922 m 0,0 0.269181,0.14515 m 0,0 0.272389,0.1314 m 0,0 0.279181,0.11614 m 0,0 0.284765,0.10153 m 0,0 0.287933,0.086 m 0,0 0.291552,0.0728 m 0,0 0.294715,0.0532 m 0,0 0.30114,0.0359 m 0,0 0.300871,0.0294 m 0,0 0.305304,0.001 m 0,0 0.305321,-0.001 m 0,0 0.301474,-0.0294 m 0,0 0.30084,-0.0359 m 0,0 0.294714,-0.0532 m 0,0 0.291528,-0.0728 m 0,0 0.28798,-0.086 m 0,0 0.286234,-0.10153 m 0,0 0.279159,-0.11614 m 0,0 0.272402,-0.1314 m 0,0 0.26918,-0.14515 m 0,0 0.255867,-0.15922 m 0,0 0.246574,-0.17115 m 0,0 0.243043,-0.18509 m 0,0 0.229388,-0.19731 m 0,0 0.217265,-0.20751 m 0,0 0.207064,-0.21892 m 0,0 0.1485,-0.16768 m 0,0 0.02908,-0.0326 m 0,0 0.08217,-0.0833 m 0,0 0.08774,-0.0728 m 0,0 0.09505,-0.0617 m 0,0 0.101263,-0.0532 m 0,0 0.112195,-0.036 m 0,0 0.112307,-0.0326 m 0,0 0.112308,-0.003 m 0,0 0.117552,-0.001 m 0,0 0.115908,0.001 m 0,0 0.115902,0.003 m 0,0 0.112192,0.0326 m 0,0 0.108599,0.036 m 0,0 0.09913,0.0532 m 0,0 3.240257,1.87571 m 0,0 0.06536,0.0352 m 0,0 0.178762,0.11967 m 0,0 0.167348,0.13504 m 0,0 0.160282,0.14868 m 0,0 0.148498,0.15919 m 0,0 0.131288,0.16775 m 0,0 0.120352,0.17862 m 0,0 0.104882,0.19204 m 0,0 0.08774,0.19566 m 0,0 0.07603,0.20392 m 0,0 0.06096,0.20746 m 0,0 0.03975,0.21109 m 0,0 0.02884,0.21417 m 0,0 0.001,0.21408 m 0,0 v 3.30562 m 0,0 10e-4,0.21405 m 0,0 0.02884,0.21445 m 0,0 0.03975,0.21115 m 0,0 0.06107,0.20745 m 0,0 0.07603,0.20387 m 0,0 0.08774,0.19499 m 0,0 0.104871,0.19203 m 0,0 0.120351,0.17788 m 0,0 0.131266,0.16775 m 0,0 0.148501,0.16228 m 0,0 0.160295,0.14517 m 0,0 0.167347,0.13514 m 0,0 0.17783,0.1197 m 0,0 0.189993,0.10924 m 0,0 0.196484,0.0875 m 0,0 0.203479,0.0763 m 0,0 0.207073,0.0565 m 0,0 0.210048,0.0398 m 0,0 0.213638,0.0294 m 0,0 0.213458,0.001 m 0,0 h 9.891638 m 0,0 0.217266,-0.001 m 0,0 0.213637,-0.0294 m 0,0 0.210022,-0.0398 m 0,0 0.207077,-0.0565 m 0,0 0.203481,-0.0763 m 0,0 0.196496,-0.0875 m 0,0 0.186541,-0.10924 m 0,0 0.181266,-0.1197 m 0,0 0.167351,-0.13514 m 0,0 0.156618,-0.14517 m 0,0 0.148476,-0.16228 m 0,0 0.133879,-0.16775 m 0,0 0.118305,-0.17788 m 0,0 0.108597,-0.19203 m 0,0 0.08774,-0.19499 m 0,0 0.07603,-0.20387 m 0,0 0.05519,-0.20745 m 0,0 0.03975,-0.21115 m 0,0 0.02908,-0.21445 m 0,0 0.0024,-0.21405 m 0,0 v -1.85042 m 0,0 -0.03582,-0.0353 m 0,0 -0.200113,-0.20744 m 0,0 -0.186568,-0.21844 m 0,0 -0.173806,-0.23199 m 0,0 -0.163743,-0.23696 m 0,0 -0.150243,-0.24716 m 0,0 -0.133871,-0.25077 m 0,0 -0.124032,-0.26287 m 0,0 -0.112192,-0.26808 m 0,0 -0.09505,-0.2733 m 0,0 -0.08245,-0.27681 m 0,0 -0.06617,-0.28002 m 0,0 -0.05365,-0.28358 m 0,0 -0.03583,-0.28361 m 0,0 -0.02701,-0.28678 m 0,0 -10e-4,-0.29034 m 0,0 10e-4,-0.28684 m 0,0 0.02701,-0.28681 m 0,0 0.03583,-0.28705 m 0,0 0.05365,-0.28356 m 0,0 0.06617,-0.28007 m 0,0 0.08245,-0.27682 m 0,0 0.09505,-0.27002 m 0,0 0.112192,-0.26998 m 0,0 0.124032,-0.25829 m 0,0 0.133871,-0.25396 m 0,0 0.150243,-0.24385 m 0,0 0.163743,-0.23701 m 0,0 0.173806,-0.23004 m 0,0 0.186568,-0.22107 m 0,0 0.200113,-0.20747 m 0,0 0.03582,-0.0355 m 0,0 v -7.91495 m 0,0 -0.0024,-0.21416 m 0,0 -0.02908,-0.21409 m 0,0 -0.03975,-0.21112 m 0,0 -0.05519,-0.20754 m 0,0 -0.07603,-0.20047 m 0,0 -0.08774,-0.19731 m 0,0 -0.108597,-0.19208 m 0,0 -0.118305,-0.17859 m 0,0 -0.133879,-0.16774 m 0,0 -0.148476,-0.15942 m 0,0 -0.156618,-0.14865 m 0,0 -0.167351,-0.13144 m 0,0 -0.181266,-0.12212 m 0,0 -0.186541,-0.10667 m 0,0 -0.196496,-0.0875 m 0,0 -0.203481,-0.0763 m 0,0 -0.207077,-0.0626 m 0,0 -0.210022,-0.036 m 0,0 -0.213637,-0.0295 m 0,0 -0.217266,-0.002 m 9.345068,5.23847 -0.115903,10e-4 m 0,0 -0.115908,0.003 m 0,0 -0.112307,0.0326 m 0,0 -0.108598,0.036 m 0,0 -0.104881,0.0532 m 0,0 -0.09484,0.0631 m 0,0 -0.08774,0.0728 m 0,0 -0.08146,0.0833 m 0,0 -0.07243,0.0875 m 0,0 -0.06536,0.0945 m 0,0 -0.04394,0.10581 m 0,0 -0.03975,0.10925 m 0,0 -0.02884,0.11278 m 0,0 -0.0034,0.11279 m 0,0 -0.001,0.11613 m 0,0 v 6.065 m 0,0 0.001,0.11613 m 0,0 0.0034,0.11614 m 0,0 0.02884,0.11279 m 0,0 0.03975,0.10924 m 0,0 0.04394,0.10226 m 0,0 0.06536,0.0945 m 0,0 0.07243,0.0875 m 0,0 0.08146,0.0833 m 0,0 0.08774,0.0728 m 0,0 0.09484,0.062 m 0,0 0.104881,0.0532 m 0,0 0.108598,0.0398 m 0,0 0.112307,0.0295 m 0,0 0.115908,0.003 m 0,0 0.115903,0.001 m 0,0 h 1.043297 m 0,0 0.115902,10e-4 m 0,0 0.11579,0.003 m 0,0 0.11231,0.0326 m 0,0 0.108596,0.036 m 0,0 0.104871,0.0532 m 0,0 0.09484,0.0627 m 0,0 0.08774,0.0728 m 0,0 0.08244,0.0833 m 0,0 0.07243,0.0875 m 0,0 0.02701,0.0326 m 0,0 0.03975,0.059 m 0,0 0.124033,0.17912 m 0,0 0.127586,0.17118 m 0,0 0.133868,0.16774 m 0,0 0.134748,0.16405 m 0,0 0.144851,0.16411 m 0,0 0.148514,0.15874 m 0,0 0.151041,0.15583 m 0,0 0.156599,0.15232 m 0,0 0.156601,0.14861 m 0,0 0.160294,0.14513 m 0,0 0.167349,0.13506 m 0,0 0.167375,0.13507 m 0,0 0.173817,0.12769 m 0,0 0.173807,0.12231 m 0,0 0.177817,0.12224 m 0,0 0.181421,0.11611 m 0,0 0.188287,0.11279 m 0,0 0.190003,0.1057 m 0,0 0.193108,0.10278 m 0,0 0.193106,0.0945 m 0,0 0.196501,0.0876 m 0,0 0.196497,0.0859 m 0,0 0.200101,0.0799 m 0,0 0.203469,0.0763 m 0,0 0.203466,0.0728 m 0,0 0.207097,0.0608 m 0,0 0.207064,0.0622 m 0,0 0.207072,0.0532 m 0,0 0.210034,0.0437 m 0,0 0.213663,0.0398 m 0,0 0.210033,0.036 m 0,0 0.213651,0.0295 m 0,0 0.213685,0.0295 m 0,0 0.213685,0.003 m 0,0 0.213626,0.003 m 0,0 0.217255,0.001 m 0,0 0.213639,0.001 m 0,0 0.217481,-0.001 m 0,0 0.213676,-0.001 m 0,0 0.21365,-0.003 m 0,0 0.213686,-0.003 m 0,0 0.213661,-0.0295 m 0,0 0.213651,-0.0295 m 0,0 0.213683,-0.036 m 0,0 0.210058,-0.0398 m 0,0 0.209998,-0.0437 m 0,0 0.207073,-0.0532 m 0,0 0.210056,-0.0622 m 0,0 0.203473,-0.0608 m 0,0 0.203444,-0.0728 m 0,0 0.203478,-0.0763 m 0,0 0.200128,-0.0799 m 0,0 0.200077,-0.0859 m 0,0 0.196524,-0.0876 m 0,0 0.193536,-0.0945 m 0,0 0.189981,-0.10278 m 0,0 0.190005,-0.1057 m 0,0 0.186746,-0.11279 m 0,0 0.184691,-0.11611 m 0,0 0.178732,-0.12224 m 0,0 0.177639,-0.12231 m 0,0 0.170982,-0.12769 m 0,0 0.167369,-0.13507 m 0,0 0.167375,-0.13506 m 0,0 0.160255,-0.14513 m 0,0 0.160275,-0.14861 m 0,0 0.153907,-0.15232 m 0,0 0.152011,-0.15583 m 0,0 0.148512,-0.15874 m 0,0 0.142509,-0.16411 m 0,0 0.141043,-0.16405 m 0,0 0.131263,-0.16774 m 0,0 0.124031,-0.16769 m 0,0 0.07243,-0.0875 m 0,0 0.08244,-0.0833 m 0,0 0.08774,-0.0728 m 0,0 0.09505,-0.0667 m 0,0 0.10487,-0.0437 m 0,0 0.108598,-0.0398 m 0,0 0.112193,-0.0294 m 0,0 0.115906,-0.003 m 0,0 0.115907,-0.001 m 0,0 0.115788,0.001 m 0,0 0.115906,0.003 m 0,0 0.112308,0.0294 m 0,0 0.108597,0.0398 m 0,0 0.104871,0.0437 m 0,0 5.083323,2.94617 m 0,0 0.0949,0.0609 m 0,0 0.0877,0.0763 m 0,0 0.0825,0.0799 m 0,0 0.0724,0.0875 m 0,0 0.0661,0.0944 m 0,0 0.0537,0.10582 m 0,0 0.0358,0.10924 m 0,0 0.0323,0.11279 m 0,0 0.003,0.11612 m 0,0 0.001,0.11613 m 0,0 v 2.56539 m 0,0 0.002,0.21439 m 0,0 0.0289,0.21411 m 0,0 0.0358,0.21115 m 0,0 0.0614,0.20748 m 0,0 0.076,0.20391 m 0,0 0.0878,0.19569 m 0,0 0.10859,0.19203 m 0,0 0.11755,0.17775 m 0,0 0.13475,0.16773 m 0,0 0.14852,0.16118 m 0,0 0.15659,0.145 m 0,0 0.16738,0.13517 m 0,0 0.18465,0.11965 m 0,0 0.18658,0.10926 m 0,0 0.19647,0.0875 m 0,0 0.20347,0.0763 m 0,0 0.20706,0.0546 m 0,0 0.21007,0.0398 m 0,0 0.21369,0.0295 m 0,0 0.21363,10e-4 m 0,0 h 11.54212 m 0,0 0.21359,-10e-4 m 0,0 0.21336,-0.0295 m 0,0 0.21376,-0.0398 m 0,0 0.20711,-0.0546 m 0,0 0.20009,-0.0763 m 0,0 0.19649,-0.0875 m 0,0 0.18991,-0.10926 m 0,0 0.17881,-0.11965 m 0,0 0.17106,-0.13517 m 0,0 0.15657,-0.145 m 0,0 0.14849,-0.16118 m 0,0 0.1313,-0.16773 m 0,0 0.12034,-0.17775 m 0,0 0.10914,-0.19203 m 0,0 0.0874,-0.19569 m 0,0 0.0762,-0.20391 m 0,0 0.0563,-0.20748 m 0,0 0.0398,-0.21115 m 0,0 0.0296,-0.21411 m 0,0 10e-4,-0.21439 m 0,0 v -4.25711 m 0,0 0.001,-0.11613 m 0,0 0.003,-0.11278 m 0,0 0.0295,-0.11614 m 0,0 0.0398,-0.10571 m 0,0 0.0532,-0.1058 m 0,0 0.0627,-0.0944 m 0,0 0.0728,-0.0875 m 0,0 0.0824,-0.0833 m 0,0 0.0874,-0.0728 m 0,0 0.0943,-0.0615 m 0,0 4.0653,-2.35327 m 0,0 0.10549,-0.0532 m 0,0 0.10914,-0.0357 m 0,0 0.11267,-0.0326 m 0,0 0.11601,-0.003 m 0,0 0.11601,-0.001 m 0,0 0.11601,0.001 m 0,0 0.1159,0.003 m 0,0 0.11267,0.0326 m 0,0 0.10914,0.0357 m 0,0 0.1056,0.0532 m 0,0 0.0941,0.0631 m 0,0 0.0874,0.0728 m 0,0 0.0798,0.0833 m 0,0 0.0295,0.0326 m 0,0 0.14851,0.16769 m 0,0 0.20707,0.21843 m 0,0 0.21534,0.2075 m 0,0 0.23292,0.19691 m 0,0 0.23983,0.18278 m 0,0 0.24986,0.17121 m 0,0 0.25505,0.15866 m 0,0 0.26558,0.1452 m 0,0 0.27249,0.13134 m 0,0 0.27913,0.11614 m 0,0 0.28622,0.10112 m 0,0 0.28797,0.086 m 0,0 0.2948,0.0728 m 0,0 0.29471,0.0532 m 0,0 0.2996,0.0352 m 0,0 0.29823,0.0294 m 0,0 0.30181,0.001 m 0,0 0.30526,-0.001 m 0,0 0.30118,-0.0294 m 0,0 0.29897,-0.0352 m 0,0 0.29473,-0.0532 m 0,0 0.29146,-0.0728 m 0,0 0.2915,-0.086 m 0,0 0.28272,-0.10112 m 0,0 0.27916,-0.11614 m 0,0 0.27591,-0.13134 m 0,0 0.2657,-0.1452 m 0,0 0.25502,-0.15866 m 0,0 0.24983,-0.17121 m 0,0 0.23982,-0.18278 m 0,0 0.22936,-0.19691 m 0,0 0.22204,-0.2075 m 0,0 0.20707,-0.21843 m 0,0 0.19648,-0.23171 m 0,0 0.18273,-0.24034 m 0,0 0.17082,-0.25068 m 0,0 0.15661,-0.25756 m 0,0 0.14852,-0.26644 m 0,0 0.12759,-0.27321 m 0,0 0.116,-0.28009 m 0,0 0.1056,-0.28354 m 0,0 0.0839,-0.29036 m 0,0 0.0692,-0.29386 m 0,0 0.0565,-0.29571 m 0,0 0.0352,-0.30275 m 0,0 0.0277,-0.30275 m 0,0 0.002,-0.30277 m 0,0 -0.002,-0.3021 m 0,0 -0.0277,-0.30278 m 0,0 -0.0352,-0.30433 m 0,0 -0.0565,-0.29604 m 0,0 -0.0692,-0.29385 m 0,0 -0.0839,-0.29033 m 0,0 -0.1056,-0.28359 m 0,0 -0.116,-0.28005 m 0,0 -0.12759,-0.27325 m 0,0 -0.14852,-0.26812 m 0,0 -0.15661,-0.25748 m 0,0 -0.17082,-0.25069 m 0,0 -0.18273,-0.24031 m 0,0 -0.19648,-0.23009 m 0,0 -0.20707,-0.21865 m 0,0 -0.22204,-0.2075 m 0,0 -0.22936,-0.19695 m 0,0 -0.23982,-0.18508 m 0,0 -0.24983,-0.17116 m 0,0 -0.25502,-0.15936 m 0,0 -0.2657,-0.14517 m 0,0 -0.27591,-0.12773 m 0,0 -0.27916,-0.11966 m 0,0 -0.28272,-0.0985 m 0,0 -0.2915,-0.086 m 0,0 -0.29146,-0.0728 m 0,0 -0.29473,-0.0532 m 0,0 -0.29897,-0.0356 m 0,0 -0.30118,-0.0295 m 0,0 -0.30526,-0.001 m 0,0 -0.30181,0.001 m 0,0 -0.29823,0.0295 m 0,0 -0.2996,0.0356 m 0,0 -0.29471,0.0532 m 0,0 -0.2948,0.0728 m 0,0 -0.28797,0.086 m 0,0 -0.28622,0.0985 m 0,0 -0.27913,0.11966 m 0,0 -0.27249,0.12773 m 0,0 -0.26558,0.14517 m 0,0 -0.25505,0.15936 m 0,0 -0.24986,0.17116 m 0,0 -0.23983,0.18508 m 0,0 -0.23292,0.19695 m 0,0 -0.21534,0.2075 m 0,0 -0.20707,0.21865 m 0,0 -0.14851,0.1677 m 0,0 -0.0295,0.0326 m 0,0 -0.0798,0.0832 m 0,0 -0.0874,0.0728 m 0,0 -0.0941,0.066 m 0,0 -0.1056,0.0437 m 0,0 -0.10914,0.0398 m 0,0 -0.11267,0.0295 m 0,0 -0.1159,0.003 m 0,0 -0.11601,10e-4 m 0,0 -0.11601,-10e-4 m 0,0 -0.11601,-0.003 m 0,0 -0.11267,-0.0295 m 0,0 -0.10914,-0.0398 m 0,0 -0.10549,-0.0437 m 0,0 -4.06867,-2.35692 m 0,0 -0.0942,-0.0629 m 0,0 -0.0874,-0.0763 m 0,0 -0.0798,-0.0799 m 0,0 -0.0762,-0.0875 m 0,0 -0.0611,-0.0944 m 0,0 -0.0532,-0.10668 m 0,0 -0.036,-0.10924 m 0,0 -0.0326,-0.11278 m 0,0 -0.003,-0.11612 m 0,0 -10e-4,-0.0728 m 0,0 -0.001,-0.10924 m 0,0 -0.0295,-0.2144 m 0,0 -0.0398,-0.2111 m 0,0 -0.0546,-0.20753 m 0,0 -0.0762,-0.20048 m 0,0 -0.0874,-0.1969 m 0,0 -0.10913,-0.19203 m 0,0 -0.12034,-0.17864 m 0,0 -0.13131,-0.16771 m 0,0 -0.14849,-0.15872 m 0,0 -0.15659,-0.14864 m 0,0 -0.17103,-0.13142 m 0,0 -0.17884,-0.12046 m 0,0 -0.18989,-0.10668 m 0,0 -0.19651,-0.0875 m 0,0 -0.20009,-0.0763 m 0,0 -0.20709,-0.0613 m 0,0 -0.2127,-0.0354 m 0,0 -0.21378,-0.0295 m 0,0 -0.21355,-0.002 m 0,0 H 106.4967 m 0,0 -0.2175,0.002 m 0,0 -0.21364,0.0295 m 0,0 -0.21004,0.0354 m 0,0 -0.20708,0.0613 m 0,0 -0.20348,0.0763 m 0,0 -0.19309,0.0875 m 0,0 -0.19001,0.10668 m 0,0 -0.17877,0.12046 m 0,0 -0.17049,0.13142 m 0,0 -0.1566,0.14864 m 0,0 -0.1485,0.15872 m 0,0 -0.13388,0.16771 m 0,0 -0.11754,0.17864 m 0,0 -0.0725,0.12415 m 0,0 -0.003,0.0296 m 0,0 -0.0662,0.0945 m 0,0 -0.0725,0.0875 m 0,0 -0.0825,0.0833 m 0,0 -0.0877,0.0728 m 0,0 -0.0951,0.0613 m 0,0 -5.08333,2.9462 m 0,0 -0.104871,0.0437 m 0,0 -0.108598,0.0398 m 0,0 -0.112307,0.0295 m 0,0 -0.115904,0.003 m 0,0 -0.115905,0.001 m 0,0 -0.115907,-0.001 m 0,0 -0.115908,-0.003 m 0,0 -0.112307,-0.0295 m 0,0 -0.108598,-0.0398 m 0,0 -0.104871,-0.0437 m 0,0 -0.09505,-0.066 m 0,0 -0.08774,-0.0728 m 0,0 -0.08245,-0.0833 m 0,0 -0.07243,-0.0891 m 0,0 -0.124033,-0.16773 m 0,0 -0.131264,-0.16772 m 0,0 -0.138988,-0.1641 m 0,0 -0.144708,-0.16405 m 0,0 -0.148511,-0.1585 m 0,0 -0.1509,-0.15597 m 0,0 -0.153897,-0.15238 m 0,0 -0.160261,-0.14864 m 0,0 -0.160291,-0.14508 m 0,0 -0.167341,-0.13509 m 0,0 -0.167381,-0.13508 m 0,0 -0.170833,-0.12781 m 0,0 -0.17759,-0.12232 m 0,0 -0.178787,-0.12235 m 0,0 -0.181229,-0.11613 m 0,0 -0.188299,-0.11278 m 0,0 -0.189979,-0.10592 m 0,0 -0.190015,-0.0991 m 0,0 -0.193526,-0.0944 m 0,0 -0.196486,-0.0875 m 0,0 -0.200103,-0.086 m 0,0 -0.20008,-0.0799 m 0,0 -0.203479,-0.0763 m 0,0 -0.20348,-0.0694 m 0,0 -0.203492,-0.0666 m 0,0 -0.210011,-0.0631 m 0,0 -0.207082,-0.0437 m 0,0 -0.210035,-0.0437 m 0,0 -0.210045,-0.0398 m 0,0 -0.213677,-0.0356 m 0,0 -0.213397,-0.0294 m 0,0 -0.213672,-0.0295 m 0,0 -0.213652,-0.0277 m 0,0 -0.213448,-0.003 m 0,0 -0.213638,-10e-4 m 0,0 -0.21537,-0.001 m 0,0 -0.213649,0.001 m 0,0 -0.218197,10e-4 m 0,0 -0.213639,0.003 m 0,0 -0.213676,0.0277 m 0,0 -0.213173,0.0295 m 0,0 -0.213676,0.0294 m 0,0 -0.210055,0.0356 m 0,0 -0.213662,0.0398 m 0,0 -0.210032,0.0437 m 0,0 -0.207088,0.0437 m 0,0 -0.207045,0.0631 m 0,0 -0.207075,0.0666 m 0,0 -0.203484,0.0694 m 0,0 -0.2035,0.0763 m 0,0 -0.200093,0.0799 m 0,0 -0.196508,0.086 m 0,0 -0.196462,0.0875 m 0,0 -0.193333,0.0944 m 0,0 -0.193528,0.0991 m 0,0 -0.190014,0.10592 m 0,0 -0.188286,0.11278 m 0,0 -0.181588,0.11613 m 0,0 -0.178796,0.12235 m 0,0 -0.173795,0.12232 m 0,0 -0.173829,0.12781 m 0,0 -0.16736,0.13508 m 0,0 -0.167365,0.13509 m 0,0 -0.160267,0.14508 m 0,0 -0.156618,0.14864 m 0,0 -0.156607,0.15238 m 0,0 -0.151186,0.15597 m 0,0 -0.148517,0.1585 m 0,0 -0.142807,0.16405 m 0,0 -0.134737,0.1641 m 0,0 -0.134305,0.16772 m 0,0 -0.12759,0.17476 m 0,0 -0.124032,0.17473 m 0,0 -0.03975,0.0612 m 0,0 -0.02701,0.0326 m 0,0 -0.07243,0.0875 m 0,0 -0.08244,0.0833 m 0,0 -0.08774,0.0728 m 0,0 -0.09494,0.0614 m 0,0 -0.104763,0.0532 m 0,0 -0.108598,0.0352 m 0,0 -0.112308,0.0326 m 0,0 -0.115676,0.003 m 0,0 -0.115903,0.001 m 0,0 h -1.043121"
       id="path1" />
  </g>
</svg>
