<?xml version="1.0" encoding="UTF-8" standalone="no"?>
<!-- Created with Inkscape (http://www.inkscape.org/) -->

<svg
   width="25.410322mm"
   height="99.998741mm"
   viewBox="0 0 25.410322 99.998738"
   version="1.1"
   id="svg1"
   inkscape:export-filename="GT Sprosse FB 105mm.svg"
   inkscape:export-xdpi="96"
   inkscape:export-ydpi="96"
   xmlns:inkscape="http://www.inkscape.org/namespaces/inkscape"
   xmlns:sodipodi="http://sodipodi.sourceforge.net/DTD/sodipodi-0.dtd"
   xmlns="http://www.w3.org/2000/svg"
   xmlns:svg="http://www.w3.org/2000/svg">
  <sodipodi:namedview
     id="namedview1"
     pagecolor="#ffffff"
     bordercolor="#999999"
     borderopacity="1"
     inkscape:showpageshadow="2"
     inkscape:pageopacity="0"
     inkscape:pagecheckerboard="0"
     inkscape:deskcolor="#d1d1d1"
     inkscape:document-units="mm"
     inkscape:lockguides="true">
    <inkscape:page
       x="4.0004253e-32"
       y="0"
       width="25.41032"
       height="99.998741"
       id="page2"
       margin="0"
       bleed="0" />
  </sodipodi:namedview>
  <defs
     id="defs1" />
  <g
     inkscape:label="Ebene 1"
     inkscape:groupmode="layer"
     id="layer1"
     transform="translate(-2.1623991,-161.33059)">
    <path
       style="fill:none;stroke:#000000;stroke-width:1.07568px;stroke-linecap:round;stroke-linejoin:round;stroke-miterlimit:4;stroke-dasharray:none;stroke-opacity:1"
       d="m 27.034698,166.5688 v -3.52544 m 0,0 -0.0063,-0.12252 m 0,0 -0.01878,-0.12252 m 0,0 -0.03145,-0.11618 m 0,0 -0.04403,-0.11619 m 0,0 -0.05661,-0.11008 m 0,0 -0.06605,-0.10374 m 0,0 -0.07548,-0.0944 m 0,0 -0.08807,-0.088 m 0,0 -0.09436,-0.0753 m 0,0 -0.100645,-0.069 m 0,0 -0.110081,-0.0535 m 0,0 -0.113227,-0.0439 m 0,0 -0.119517,-0.0315 m 0,0 -0.119516,-0.0211 m 0,0 -0.122662,-0.007 m 0,0 -0.122662,0.007 m 0,0 -0.119517,0.0211 m 0,0 -0.01878,0.002 m 0,0 -21.0983385,4.90481 m 0,0 -0.018777,0.002 m 0,0 -0.1761299,0.0502 m 0,0 -0.1729848,0.0629 m 0,0 -0.1666944,0.0786 m 0,0 -0.1572588,0.0911 m 0,0 -0.1541137,0.10046 m 0,0 -0.1446782,0.11619 m 0,0 -0.1320974,0.1258 m 0,0 -0.1258071,0.1352 m 0,0 -0.1132264,0.14458 m 0,0 -0.1006457,0.15398 m 0,0 -0.09121,0.16031 m 0,0 -0.075484,0.16664 m 0,0 -0.062903,0.17275 m 0,0 -0.050323,0.17909 m 0,0 -0.034597,0.17909 m 0,0 -0.022063,0.18542 m 0,0 -0.00939,0.18238 m 0,0 v 91.23086 m 0,0 0.00634,0.0629 m 0,0 0.00939,0.0596 m 0,0 0.022063,0.0566 m 0,0 0.025161,0.0566 m 0,0 0.034597,0.0502 m 0,0 0.040887,0.0472 m 0,0 0.044032,0.0408 m 0,0 0.053468,0.0345 m 0,0 0.053468,0.0251 m 0,0 0.056613,0.0211 m 0,0 0.059758,0.009 m 0,0 0.062904,0.007 m 0,0 h 2.3337753 m 0,0 0.059761,-0.007 m 0,0 0.059761,-0.009 m 0,0 0.056616,-0.0211 m 0,0 0.056616,-0.0251 m 0,0 0.050323,-0.0345 m 0,0 0.044032,-0.0408 m 0,0 0.040887,-0.0472 m 0,0 0.034597,-0.0502 m 0,0 0.028307,-0.0566 m 0,0 0.018871,-0.0566 m 0,0 0.012581,-0.0596 m 0,0 0.00315,-0.0629 m 0,0 v -85.65364 m 0,0 0.00629,-0.14764 m 0,0 0.015726,-0.14763 m 0,0 0.028307,-0.14459 m 0,0 0.040887,-0.1413 m 0,0 0.050325,-0.13824 m 0,0 0.062906,-0.1352 m 0,0 0.069196,-0.12581 m 0,0 0.081777,-0.12557 m 0,0 0.091213,-0.11313 m 0,0 0.100648,-0.11008 m 0,0 0.1069384,-0.10046 m 0,0 0.1132287,-0.0911 m 0,0 0.1226643,-0.0817 m 0,0 0.1289546,-0.0723 m 0,0 0.1320998,-0.0629 m 0,0 0.1383901,-0.0502 m 0,0 0.1415353,-0.0408 m 0,0 0.1415354,-0.0282 m 0,0 0.1478257,-0.0164 m 0,0 0.1446828,-0.007 m 0,0 0.1478257,0.007 m 0,0 0.1446805,0.0164 m 0,0 0.1446828,0.0282 m 0,0 0.1415354,0.0408 m 0,0 0.1352449,0.0502 m 0,0 0.088067,0.0408 m 0,0 0.022016,0.009 m 0,0 0.059761,0.0188 m 0,0 0.059761,0.0117 m 0,0 0.059761,0.007 m 0,0 0.062906,-0.007 m 0,0 0.059761,-0.0117 m 0,0 0.015726,-0.002 m 0,0 17.2359722,-5.30701 m 0,0 0.01878,-0.007 m 0,0 0.113227,-0.0441 m 0,0 0.110081,-0.0535 m 0,0 0.100645,-0.069 m 0,0 0.09436,-0.0753 m 0,0 0.08806,-0.088 m 0,0 0.07548,-0.0944 m 0,0 0.06605,-0.10374 m 0,0 0.05661,-0.11009 m 0,0 0.04403,-0.11618 m 0,0 0.03145,-0.11618 m 0,0 0.01878,-0.12252 m 0,0 0.0063,-0.12252"
       id="path1" />
  </g>
</svg>
