<?xml version="1.0" encoding="UTF-8" standalone="no"?>
<!-- Created with Inkscape (http://www.inkscape.org/) -->

<svg
   width="116.80862mm"
   height="40.001301mm"
   viewBox="0 0 116.80862 40.0013"
   version="1.1"
   id="svg1"
   inkscape:export-filename="GT Sprosse FB 105mm.svg"
   inkscape:export-xdpi="96"
   inkscape:export-ydpi="96"
   xmlns:inkscape="http://www.inkscape.org/namespaces/inkscape"
   xmlns:sodipodi="http://sodipodi.sourceforge.net/DTD/sodipodi-0.dtd"
   xmlns="http://www.w3.org/2000/svg"
   xmlns:svg="http://www.w3.org/2000/svg">
  <sodipodi:namedview
     id="namedview1"
     pagecolor="#ffffff"
     bordercolor="#999999"
     borderopacity="1"
     inkscape:showpageshadow="2"
     inkscape:pageopacity="0"
     inkscape:pagecheckerboard="0"
     inkscape:deskcolor="#d1d1d1"
     inkscape:document-units="mm"
     inkscape:lockguides="true">
    <inkscape:page
       x="0"
       y="0"
       width="116.80862"
       height="40.001301"
       id="page2"
       margin="0"
       bleed="0" />
  </sodipodi:namedview>
  <defs
     id="defs1" />
  <g
     inkscape:label="Ebene 1"
     inkscape:groupmode="layer"
     id="layer1"
     transform="translate(24.722953,-174.06251)">
    <path
       style="fill:none;stroke:#000000;stroke-width:0.500208px;stroke-linecap:round;stroke-linejoin:round;stroke-miterlimit:4;stroke-dasharray:none;stroke-opacity:1"
       d="m -23.636561,193.63445 83.228128,-19.30884 m 0,0 0.05109,-0.008 m 0,0 0.06992,-0.005 m 0,0 0.07261,0.005 m 0,0 0.06723,0.0134 m 0,0 0.06724,0.0243 m 0,0 0.06454,0.0296 m 0,0 0.05917,0.0404 m 0,0 0.0511,0.0458 m 0,0 0.04841,0.0538 m 0,0 0.03765,0.0592 m 0,0 0.03227,0.0647 m 0,0 0.02152,0.0674 m 0,0 0.01613,0.0701 m 0,0 0.0027,0.07 m 0,0 v 1.62904 m 0,0 -0.0027,0.0727 m 0,0 -0.01613,0.0701 m 0,0 -0.02152,0.0674 m 0,0 -0.03227,0.0619 m 0,0 -0.03765,0.0592 m 0,0 -0.04841,0.0538 m 0,0 -0.0511,0.0458 m 0,0 -0.05917,0.0404 m 0,0 -0.06454,0.0323 m 0,0 -0.04841,0.0161 m 0,0 -7.984501,2.45299 m 0,0 -0.02959,0.008 m 0,0 -0.03227,0.002 m 0,0 -0.03497,-0.002 m 0,0 -0.03227,-0.008 m 0,0 -0.03227,-0.0134 m 0,0 -0.02689,-0.0188 m 0,0 -0.02689,-0.0215 m 0,0 -0.02152,-0.027 m 0,0 -0.01883,-0.027 m 0,0 -0.0054,-0.0134 m 0,0 -0.04572,-0.0996 m 0,0 -0.06186,-0.11308 m 0,0 -0.07261,-0.10504 m 0,0 -0.07799,-0.10234 m 0,0 -0.08606,-0.0915 m 0,0 -0.09412,-0.0889 m 0,0 -0.09951,-0.0781 m 0,0 -0.104878,-0.0701 m 0,0 -0.112951,-0.0647 m 0,0 -0.115637,-0.0538 m 0,0 -0.11833,-0.0431 m 0,0 -0.123706,-0.035 m 0,0 -0.123709,-0.0242 m 0,0 -0.126397,-0.0161 m 0,0 -0.126395,-0.005 m 0,0 -0.129086,0.005 m 0,0 -0.126397,0.0161 m 0,0 -0.11026,0.0215 m 0,0 -71.892774,16.67813 m 0,0 -0.09144,0.027 m 0,0 -0.104878,0.0404 m 0,0 -0.102193,0.0511 m 0,0 -0.09413,0.0619 m 0,0 -0.08874,0.07 m 0,0 -0.07799,0.0808 m 0,0 -0.07261,0.0889 m 0,0 -0.06186,0.0969 m 0,0 -0.05109,0.0996 m 0,0 -0.04034,0.10774 m 0,0 -0.02959,0.10775 m 0,0 -0.01613,0.11309 m 0,0 -0.008,0.1131 m 0,0 v 17.46977 m 0,0 -0.0027,0.035 m 0,0 -0.008,0.0323 m 0,0 -0.01072,0.0323 m 0,0 -0.01882,0.027 m 0,0 -0.02152,0.027 m 0,0 -0.02689,0.0215 m 0,0 -0.02959,0.0188 m 0,0 -0.02959,0.0134 m 0,0 -0.03227,0.008 m 0,0 -0.03497,0.002 m 0,0 h -1.081094 m 0,0 -0.03227,-0.002 m 0,0 -0.03496,-0.008 m 0,0 -0.02958,-0.0134 m 0,0 -0.02959,-0.0188 m 0,0 -0.02689,-0.0215 m 0,0 -0.02152,-0.027 m 0,0 -0.01882,-0.027 m 0,0 -0.01072,-0.0323 m 0,0 -0.0081,-0.0323 m 0,0 -0.0027,-0.035 m 0,0 v -18.90274 m 0,0 0.0054,-0.1131 m 0,0 0.01882,-0.11308 m 0,0 0.02689,-0.10775 m 0,0 0.04034,-0.10775 m 0,0 0.05379,-0.0996 m 0,0 0.05916,-0.0969 m 0,0 0.07261,-0.0889 m 0,0 0.08068,-0.0781 m 0,0 0.08606,-0.0727 m 0,0 0.09681,-0.0619 m 0,0 0.09951,-0.0511 m 0,0 0.104878,-0.0404 m 0,0 0.09144,-0.027"
       id="path1" />
  </g>
</svg>
