<?xml version="1.0" encoding="UTF-8" standalone="no"?>
<!-- Created with Inkscape (http://www.inkscape.org/) -->

<svg
   width="116.80775mm"
   height="40.001003mm"
   viewBox="0 0 116.80776 40.001002"
   version="1.1"
   id="svg1"
   inkscape:export-filename="GT Sprosse FB 105mm.svg"
   inkscape:export-xdpi="96"
   inkscape:export-ydpi="96"
   xmlns:inkscape="http://www.inkscape.org/namespaces/inkscape"
   xmlns:sodipodi="http://sodipodi.sourceforge.net/DTD/sodipodi-0.dtd"
   xmlns="http://www.w3.org/2000/svg"
   xmlns:svg="http://www.w3.org/2000/svg">
  <sodipodi:namedview
     id="namedview1"
     pagecolor="#ffffff"
     bordercolor="#999999"
     borderopacity="1"
     inkscape:showpageshadow="2"
     inkscape:pageopacity="0"
     inkscape:pagecheckerboard="0"
     inkscape:deskcolor="#d1d1d1"
     inkscape:document-units="mm"
     inkscape:lockguides="true">
    <inkscape:page
       x="0"
       y="0"
       width="116.80776"
       height="40.001003"
       id="page2"
       margin="0"
       bleed="0" />
  </sodipodi:namedview>
  <defs
     id="defs1" />
  <g
     inkscape:label="Ebene 1"
     inkscape:groupmode="layer"
     id="layer1"
     transform="translate(37.41653,-172.99159)">
    <path
       style="fill:none;stroke:#000000;stroke-width:0.547366px;stroke-linecap:round;stroke-linejoin:round;stroke-miterlimit:4;stroke-dasharray:none;stroke-opacity:1"
       d="m -34.624885,212.28732 -1.788062,0.41679 m 0,0 -0.05473,0.0108 m 0,0 -0.08028,0.004 m 0,0 -0.07664,-0.004 m 0,0 -0.07664,-0.0183 m 0,0 -0.07298,-0.0256 m 0,0 -0.07298,-0.0329 m 0,0 -0.06204,-0.0439 m 0,0 -0.05839,-0.0512 m 0,0 -0.05474,-0.0585 m 0,0 -0.04014,-0.0658 m 0,0 -0.0365,-0.0695 m 0,0 -0.02554,-0.0768 m 0,0 -0.0146,-0.0768 m 0,0 -0.0037,-0.0768 m 0,0 v -11.11816 m 0,0 0.0037,-0.12431 m 0,0 0.02189,-0.12431 m 0,0 0.03284,-0.12065 m 0,0 0.04379,-0.11694 m 0,0 0.05473,-0.11336 m 0,0 0.06933,-0.10606 m 0,0 0.08028,-0.0951 m 0,0 0.08758,-0.0914 m 0,0 0.09487,-0.0768 m 0,0 0.105825,-0.0695 m 0,0 0.11312,-0.0549 m 0,0 0.116766,-0.0475 m 0,0 0.09853,-0.0256 m 0,0 114.607463,-26.55415 m 0,0 0.05473,-0.0108 m 0,0 0.08028,-0.004 m 0,0 0.07664,0.004 m 0,0 0.07663,0.0146 m 0,0 0.07299,0.0256 m 0,0 0.06933,0.0366 m 0,0 0.06565,0.0402 m 0,0 0.05835,0.0549 m 0,0 0.05106,0.0585 m 0,0 0.04377,0.0622 m 0,0 0.03647,0.0731 m 0,0 0.02559,0.0731 m 0,0 0.01459,0.0768 m 0,0 0.0036,0.0768 m 0,0 v 1.7988 m 0,0 -0.0036,0.0805 m 0,0 -0.01459,0.0768 m 0,0 -0.02559,0.0731 m 0,0 -0.03647,0.0695 m 0,0 -0.04377,0.0658 m 0,0 -0.05106,0.0585 m 0,0 -0.05835,0.0512 m 0,0 -0.06565,0.0439 m 0,0 -0.06933,0.0366 m 0,0 -0.05474,0.0183 m 0,0 -8.808942,2.70185 m 0,0 -0.07298,0.0108 m 0,0 -0.06204,-0.007 m 0,0 -0.05474,-0.0219 m 0,0 -0.0511,-0.0402 m 0,0 -0.0365,-0.0475 m 0,0 -0.01459,-0.0293 m 0,0 -0.011,-0.0256 m 0,0 -0.05839,-0.11336 m 0,0 -0.06568,-0.10606 m 0,0 -0.08029,-0.0951 m 0,0 -0.08758,-0.0913 m 0,0 -0.09853,-0.0768 m 0,0 -0.102178,-0.0695 m 0,0 -0.113131,-0.0585 m 0,0 -0.116766,-0.0439 m 0,0 -0.120421,-0.0329 m 0,0 -0.124071,-0.0183 m 0,0 -0.124071,-0.007 m 0,0 -0.124067,0.007 m 0,0 -0.124071,0.0183 m 0,0 -0.0219,0.007 m 0,0 -6.787336,1.57211 m 0,0 -0.0511,0.0768 m 0,0 -0.08028,0.0988 m 0,0 -0.08758,0.0878 m 0,0 -0.09853,0.0805 m 0,0 -0.105825,0.0695 m 0,0 -0.109472,0.0549 m 0,0 -0.116779,0.0475 m 0,0 -0.12042,0.0293 m 0,0 -0.124071,0.0219 m 0,0 -0.124068,0.007 m 0,0 -0.124071,-0.007 m 0,0 -0.124067,-0.0219 m 0,0 -0.120421,-0.0293 m 0,0 -0.116766,-0.0475 m 0,0 -0.113119,-0.0549 m 0,0 -0.04379,-0.0293 m 0,0 -92.785813,21.49779 m 0,0 -0.08028,0.0219 m 0,0 -0.09487,0.0366 m 0,0 -0.08758,0.0475 m 0,0 -0.08393,0.0549 m 0,0 -0.08028,0.0622 m 0,0 -0.06933,0.0695 m 0,0 -0.06204,0.0768 m 0,0 -0.05473,0.0878 m 0,0 -0.04744,0.0878 m 0,0 -0.0365,0.0951 m 0,0 -0.02554,0.0951 m 0,0 -0.0146,0.0986 m 0,0 -0.0037,0.10236 m 0,0 0.0037,0.0986 m 0,0 0.0146,0.0986 m 0,0 0.02554,0.0988 m 0,0 0.0365,0.0914 m 0,0 0.04744,0.0914 m 0,0 0.02554,0.0402 m 0,0 0.02919,0.0658 m 0,0 0.0073,0.0622 m 0,0 v 0.0183 m 0,0 -0.598453,8.59545 m 0,0 -0.0037,0.0366 m 0,0 -0.0146,0.0768 m 0,0 -0.02554,0.0731 m 0,0 -0.0365,0.0731 m 0,0 -0.04379,0.0622 m 0,0 -0.05108,0.0622 m 0,0 -0.05839,0.0512 m 0,0 -0.06568,0.0439 m 0,0 -0.06933,0.0329 m 0,0 -0.07298,0.0256 m 0,0 -0.02189,0.004"
       id="path1" />
  </g>
</svg>
