<?xml version="1.0" encoding="UTF-8" standalone="no"?>
<!-- Created with Inkscape (http://www.inkscape.org/) -->

<svg
   width="99.998741mm"
   height="25.40959mm"
   viewBox="0 0 99.99874 25.409589"
   version="1.1"
   id="svg1"
   inkscape:export-filename="GT Sprosse FB 105mm.svg"
   inkscape:export-xdpi="96"
   inkscape:export-ydpi="96"
   sodipodi:docname="Steckprofil 11 x 40.svg"
   inkscape:version="1.4.2 (f4327f4, 2025-05-13)"
   xmlns:inkscape="http://www.inkscape.org/namespaces/inkscape"
   xmlns:sodipodi="http://sodipodi.sourceforge.net/DTD/sodipodi-0.dtd"
   xmlns="http://www.w3.org/2000/svg"
   xmlns:svg="http://www.w3.org/2000/svg">
  <sodipodi:namedview
     id="namedview1"
     pagecolor="#ffffff"
     bordercolor="#999999"
     borderopacity="1"
     inkscape:showpageshadow="2"
     inkscape:pageopacity="0"
     inkscape:pagecheckerboard="0"
     inkscape:deskcolor="#d1d1d1"
     inkscape:document-units="mm"
     inkscape:lockguides="true"
     inkscape:zoom="1.5247918"
     inkscape:cx="146.57739"
     inkscape:cy="47.547475"
     inkscape:window-width="1920"
     inkscape:window-height="1017"
     inkscape:window-x="-8"
     inkscape:window-y="-8"
     inkscape:window-maximized="1"
     inkscape:current-layer="layer1">
    <inkscape:page
       x="1.2953694e-06"
       y="9.0816059e-07"
       width="99.998734"
       height="25.40959"
       id="page2"
       margin="0"
       bleed="0" />
  </sodipodi:namedview>
  <defs
     id="defs1" />
  <g
     inkscape:label="Ebene 1"
     inkscape:groupmode="layer"
     id="layer1"
     transform="translate(35.131811,-198.62535)">
    <path
       style="fill:none;stroke:#000000;stroke-width:1.07568px;stroke-linecap:round;stroke-linejoin:round;stroke-miterlimit:4;stroke-dasharray:none;stroke-opacity:1"
       d="m 59.62872,223.4971 h 3.52544 m 0,0 0.12252,-0.006 m 0,0 0.12252,-0.0188 m 0,0 0.11618,-0.0314 m 0,0 0.11619,-0.044 m 0,0 0.11008,-0.0566 m 0,0 0.10374,-0.0661 m 0,0 0.0944,-0.0755 m 0,0 0.088,-0.0881 m 0,0 0.0753,-0.0944 m 0,0 0.069,-0.10065 m 0,0 0.0535,-0.11008 m 0,0 0.0439,-0.11323 m 0,0 0.0315,-0.11951 m 0,0 0.0211,-0.11952 m 0,0 0.007,-0.12266 m 0,0 -0.007,-0.12266 m 0,0 -0.0211,-0.11952 m 0,0 -0.002,-0.0188 m 0,0 -4.90481,-21.09834 m 0,0 -0.002,-0.0188 m 0,0 -0.0502,-0.17613 m 0,0 -0.0629,-0.17299 m 0,0 -0.0786,-0.16669 m 0,0 -0.0911,-0.15726 m 0,0 -0.10046,-0.15412 m 0,0 -0.11619,-0.14467 m 0,0 -0.1258,-0.1321 m 0,0 -0.1352,-0.12581 m 0,0 -0.14458,-0.11323 m 0,0 -0.15398,-0.10064 m 0,0 -0.16031,-0.0912 m 0,0 -0.16664,-0.0755 m 0,0 -0.17275,-0.0629 m 0,0 -0.17909,-0.0503 m 0,0 -0.17909,-0.0346 m 0,0 -0.18542,-0.0221 m 0,0 -0.18238,-0.009 m 0,0 h -91.23086 m 0,0 -0.0629,0.006 m 0,0 -0.0596,0.009 m 0,0 -0.0566,0.0221 m 0,0 -0.0566,0.0252 m 0,0 -0.0502,0.0346 m 0,0 -0.0472,0.0409 m 0,0 -0.0408,0.044 m 0,0 -0.0345,0.0535 m 0,0 -0.0251,0.0535 m 0,0 -0.0211,0.0566 m 0,0 -0.009,0.0598 m 0,0 -0.007,0.0629 m 0,0 v 2.33378 m 0,0 0.007,0.0598 m 0,0 0.009,0.0598 m 0,0 0.0211,0.0566 m 0,0 0.0251,0.0566 m 0,0 0.0345,0.0503 m 0,0 0.0408,0.044 m 0,0 0.0472,0.0409 m 0,0 0.0502,0.0346 m 0,0 0.0566,0.0283 m 0,0 0.0566,0.0189 m 0,0 0.0596,0.0126 m 0,0 0.0629,0.003 m 0,0 h 85.65364 m 0,0 0.14764,0.006 m 0,0 0.14763,0.0157 m 0,0 0.14459,0.0283 m 0,0 0.1413,0.0409 m 0,0 0.13824,0.0503 m 0,0 0.1352,0.0629 m 0,0 0.12581,0.0692 m 0,0 0.12557,0.0818 m 0,0 0.11313,0.0912 m 0,0 0.11008,0.10065 m 0,0 0.10046,0.10694 m 0,0 0.0911,0.11323 m 0,0 0.0817,0.12266 m 0,0 0.0723,0.12896 m 0,0 0.0629,0.1321 m 0,0 0.0502,0.13839 m 0,0 0.0408,0.14153 m 0,0 0.0282,0.14154 m 0,0 0.0164,0.14782 m 0,0 0.007,0.14469 m 0,0 -0.007,0.14782 m 0,0 -0.0164,0.14468 m 0,0 -0.0282,0.14469 m 0,0 -0.0408,0.14153 m 0,0 -0.0502,0.13525 m 0,0 -0.0408,0.0881 m 0,0 -0.009,0.022 m 0,0 -0.0188,0.0598 m 0,0 -0.0117,0.0598 m 0,0 -0.007,0.0598 m 0,0 0.007,0.0629 m 0,0 0.0117,0.0598 m 0,0 0.002,0.0157 m 0,0 5.30701,17.23597 m 0,0 0.007,0.0188 m 0,0 0.0441,0.11322 m 0,0 0.0535,0.11009 m 0,0 0.069,0.10064 m 0,0 0.0753,0.0944 m 0,0 0.088,0.0881 m 0,0 0.0944,0.0755 m 0,0 0.10374,0.0661 m 0,0 0.11009,0.0566 m 0,0 0.11618,0.044 m 0,0 0.11618,0.0314 m 0,0 0.12252,0.0188 m 0,0 0.12252,0.006"
       id="path1" />
  </g>
</svg>
