<?xml version="1.0" encoding="UTF-8" standalone="no"?>
<!-- Created with Inkscape (http://www.inkscape.org/) -->

<svg
   width="499.99811mm"
   height="234.87334mm"
   viewBox="0 0 499.9981 234.87333"
   version="1.1"
   id="svg1"
   xmlns="http://www.w3.org/2000/svg"
   xmlns:svg="http://www.w3.org/2000/svg">
  <defs
     id="defs1" />
  <g
     id="layer1"
     transform="translate(-1001.9965,184.09327)">
    <path
       style="fill:none;stroke:#000000;stroke-width:3.3219px;stroke-linecap:round;stroke-linejoin:round;stroke-miterlimit:4;stroke-dasharray:none;stroke-opacity:1"
       d="m 1008.6512,-69.149417 487.8374,-113.206803 m 0,0 0.2919,-0.0571 m 0,0 0.4061,-0.019 m 0,0 0.4251,0.019 m 0,0 0.4061,0.0971 m 0,0 0.387,0.13578 m 0,0 0.3681,0.17449 m 0,0 0.3489,0.23287 m 0,0 0.3109,0.27156 m 0,0 0.2919,0.31028 m 0,0 0.2284,0.34898 m 0,0 0.1713,0.36865 m 0,0 0.1333,0.40736 m 0,0 0.076,0.40735 m 0,0 v 0.40735 m 0,0 v 9.56485 m 0,0 v 0.40736 m 0,0 -0.076,0.40735 m 0,0 -0.1333,0.40736 m 0,0 -0.1713,0.36865 m 0,0 -0.2284,0.34898 m 0,0 -0.2919,0.31027 m 0,0 -0.3109,0.27157 m 0,0 -0.3489,0.23287 m 0,0 -0.3681,0.17448 m 0,0 -0.2919,0.11612 m 0,0 -46.7963,14.3764 m 0,0 -0.368,0.0571 m 0,0 -0.3299,-0.0381 m 0,0 -0.311,-0.13579 m 0,0 -0.2538,-0.19416 m 0,0 -0.2157,-0.27157 m 0,0 -0.063,-0.13578 m 0,0 -0.063,-0.13579 m 0,0 -0.4632,-0.8925 m 0,0 -0.5393,-0.83426 m 0,0 -0.6155,-0.776 m 0,0 -0.6954,-0.71788 m 0,0 -0.7728,-0.62055 m 0,0 -0.8496,-0.54314 m 0,0 -0.8693,-0.44606 m 0,0 -0.9461,-0.36865 m 0,0 -0.9467,-0.2519 m 0,0 -0.9847,-0.15545 m 0,0 -1.0044,-0.0571 m 0,0 -0.9848,0.0571 m 0,0 -0.9854,0.15545 m 0,0 -0.1523,0.0381 m 0,0 -421.3992,97.763355 m 0,0 -0.5394,0.155454 m 0,0 -0.6154,0.232865 m 0,0 -0.5964,0.310275 m 0,0 -0.5394,0.36865 m 0,0 -0.5203,0.407355 m 0,0 -0.4632,0.484765 m 0,0 -0.4251,0.504435 m 0,0 -0.368,0.56281 m 0,0 -0.2919,0.601515 m 0,0 -0.2284,0.62055 m 0,0 -0.1713,0.64022 m 0,0 -0.1142,0.659636 m 0,0 -0.063,0.659635 m 0,0 V 47.858988 m 0,0 -0.063,0.32994 m 0,0 -0.1142,0.310281 m 0,0 -0.2157,0.252533 m 0,0 -0.2538,0.213194 m 0,0 -0.3109,0.116113 m 0,0 -0.33,0.03807 m 0,0 h -6.3349 m 0,0 -0.33,-0.03807 m 0,0 -0.3108,-0.116113 m 0,0 -0.2539,-0.213194 m 0,0 -0.2157,-0.252533 m 0,0 -0.1142,-0.310281 m 0,0 -0.063,-0.32994 m 0,0 v -110.82048 m 0,0 0.063,-0.659636 m 0,0 0.095,-0.659636 m 0,0 0.1713,-0.64022 m 0,0 0.2475,-0.62055 m 0,0 0.2918,-0.601515 m 0,0 0.368,-0.54314 m 0,0 0.4252,-0.524105 m 0,0 0.4632,-0.465729 m 0,0 0.5202,-0.427025 m 0,0 0.5394,-0.36865 m 0,0 0.5964,-0.29124 m 0,0 0.6155,-0.2519 m 0,0 0.5393,-0.135785"
       id="path1" />
    <path
       style="fill:none;stroke:#000000;stroke-width:0.0193134px;stroke-linecap:round;stroke-linejoin:round;stroke-miterlimit:4;stroke-dasharray:none;stroke-opacity:1"
       d="m 1488.1835,-163.59518 1.7576,-1.76552 m 2.6846,-2.69679 2.6846,-2.69673 m 2.6846,-2.69679 2.356,-2.38639 m -22.4997,14.5316 2.6846,-2.6968 m 2.684,-2.69679 2.6846,-2.69679 m 2.6846,-2.71614 2.6846,-2.69679 m 2.6846,-2.6968 2.7043,-2.69679 m -31.6938,23.74721 0.7729,-0.79542 m 2.7036,-2.69679 2.6846,-2.69679 m 2.6846,-2.71621 2.6846,-2.69679 m 2.6846,-2.69673 2.6846,-2.69679 m 2.6846,-2.71621 2.7037,-2.69679 m -33.6055,25.668 2.6846,-2.69679 m 2.6846,-2.71621 2.7043,-2.69679 m 2.6846,-2.6968 2.684,-2.69679 m 2.6846,-2.69679 2.6846,-2.71614 m 2.6846,-2.69679 2.7043,-2.6968 m -28.2363,20.255 2.7036,-2.69679 m 2.6846,-2.69679 2.6846,-2.71621 m 2.6846,-2.69679 2.6846,-2.69673 m 2.6847,-2.69679 2.2791,-2.28938 m -25.1272,17.13138 v 0 m 2.6846,-2.69679 2.6846,-2.6968 m 2.684,-2.69679 2.6846,-2.69679 m 2.6846,-2.71614 1.217,-1.2029 m -21.3608,13.36752 2.6847,-2.69679 m 2.6846,-2.71621 2.6846,-2.69679 m 2.6846,-2.69673 0.1332,-0.13579 m -24.0066,16.02555 1.0234,-1.02828 m 2.7043,-2.71621 2.6846,-2.69679 m 2.6846,-2.69679 2.6846,-2.69679 m -22.2687,14.27937 2.1053,-2.1341 m 2.7037,-2.69679 2.6846,-2.69679 m 2.6846,-2.6968 2.6846,-2.7162 m -22.8475,14.86147 2.684,-2.69679 m 2.7043,-2.69679 2.6846,-2.71621 m 2.6846,-2.69679 2.2786,-2.28937 m -22.442,14.45399 2.6846,-2.71615 m 2.7037,-2.69678 2.6846,-2.69679 m 2.6846,-2.69679 1.1973,-1.20291 m -21.3601,13.34817 2.6846,-2.69679 m 2.684,-2.69679 2.7042,-2.69679 m 2.6846,-2.71621 0.1142,-0.11612 m -24.006,16.02556 1.0425,-1.04771 m 2.6846,-2.69679 2.6846,-2.69679 m 2.6847,-2.71615 2.7036,-2.69678 m -22.2871,14.27937 2.1243,-2.11475 m 2.6846,-2.69679 2.6846,-2.71615 m 2.6846,-2.69679 2.7037,-2.69679 m -22.8481,14.86141 2.6846,-2.71621 m 2.6847,-2.69679 2.6846,-2.69679 m 2.6846,-2.69679 2.2791,-2.28931 m -22.4229,14.43458 2.6846,-2.69679 m 2.6846,-2.69679 2.6846,-2.69679 m 2.6846,-2.71615 1.1974,-1.18349 m -21.3418,13.34811 2.6846,-2.69679 m 2.6846,-2.71621 2.6846,-2.69679 m 2.6847,-2.69679 0.1142,-0.11612 m -24.0067,16.02549 1.0622,-1.04764 m 2.6846,-2.71621 2.6846,-2.69678 m 2.6846,-2.6968 2.6846,-2.69679 m -22.2688,14.27938 2.1054,-2.13411 m 2.7042,-2.69679 2.684,-2.69679 m 2.6846,-2.69679 2.6847,-2.71621 m -22.8475,14.86141 2.6846,-2.69673 m 2.7037,-2.69679 2.6846,-2.71621 m 2.6846,-2.69678 2.2595,-2.26997 m -22.4229,14.43458 2.6846,-2.71614 m 2.7043,-2.69679 2.6846,-2.69679 m 2.684,-2.69679 1.1782,-1.2029 m -21.3411,13.3481 2.6846,-2.69679 m 2.7037,-2.69673 2.6846,-2.69679 m 2.6846,-2.71621 0.095,-0.0971 m -24.0067,16.02549 1.0628,-1.06706 m 2.684,-2.69679 2.6846,-2.69679 m 2.6846,-2.71614 2.7043,-2.69679 m -22.2878,14.29879 2.1244,-2.13417 m 2.6846,-2.69679 2.6846,-2.71621 m 2.6846,-2.69679 2.7036,-2.69673 m -22.8474,14.86141 2.6846,-2.7162 m 2.684,-2.6968 2.6846,-2.69679 m 2.6846,-2.69679 2.2601,-2.26996 m -22.4039,14.41523 2.6846,-2.69679 m 2.6847,-2.69679 2.6846,-2.69679 m 2.6846,-2.71621 1.1783,-1.18349 m -21.3221,13.34817 2.6846,-2.69679 m 2.6847,-2.7162 2.6846,-2.6968 m 2.6839,-2.69679 0.1143,-0.0971 m -24.0067,16.02555 1.0622,-1.06712 m 2.6846,-2.71614 2.6846,-2.69679 m 2.6846,-2.69679 2.6846,-2.6968 m -22.2878,14.2988 2.144,-2.15353 m 2.6846,-2.69679 2.6846,-2.69679 m 2.6846,-2.69679 2.6846,-2.71621 m -22.848,14.86142 2.6846,-2.6968 m 2.7037,-2.69679 2.6846,-2.71614 m 2.6846,-2.69679 2.2404,-2.25054 m -22.4032,14.41516 2.6846,-2.69679 m 2.7036,-2.71615 2.6846,-2.69679 m 2.6846,-2.69679 1.1777,-1.18349 m -21.3411,13.328697 2.6846,-2.696787 m 2.7036,-2.6968 2.6846,-2.69679 m 2.6847,-2.71614 0.095,-0.0774 m -24.006,16.006067 1.0622,-1.067054 m 2.6846,-2.696792 2.6846,-2.696791 m 2.7037,-2.69679 2.6846,-2.71615 m -162.3488,155.055489 2.125,-2.134109 m 137.917,-138.603229 2.1433,-2.153524 m 2.6846,-2.696792 2.6847,-2.716207 m 2.6846,-2.696788 2.7036,-2.6968 M 1006.15,45.338585 l 2.6846,-2.69679 m 2.6846,-2.716143 1.0431,-1.047701 m 127.9704,-128.592069 2.6846,-2.716208 m 2.6846,-2.696791 2.6846,-2.696792 m 2.6846,-2.696791 2.2398,-2.25054 m -149.8133,142.464025 1.1199,-1.105821 m 2.6846,-2.71621 2.6846,-2.696789 m 120.94,-121.549396 2.6846,-2.696791 m 2.6846,-2.696791 2.6846,-2.696792 m 2.6847,-2.716207 1.1783,-1.164068 m -139.3459,131.929143 2.4524,-2.46399 m 2.6846,-2.696796 2.6846,-2.69679 m 110.2022,-110.742814 2.6846,-2.696791 m 2.6846,-2.716208 2.6846,-2.696791 m 2.6846,-2.696792 0.095,-0.09708 m -127.7388,120.288308 2.6846,-2.69673 m 2.6846,-2.696789 2.3756,-2.405803 m 95.9873,-96.463438 1.0818,-1.067117 m 2.6847,-2.716144 2.684,-2.696792 m 2.6846,-2.696792 2.6846,-2.696791 m -114.2193,106.687985 2.6846,-2.696796 m 2.6846,-2.6967899 1.0431,-1.0477012 m 85.5001,-85.9284869 2.1631,-2.173005 m 2.6846,-2.696791 2.6846,-2.696728 m 2.6846,-2.696791 2.6846,-2.716208 m -107.2663,99.7034909 1.1199,-1.1058813 m 2.6846,-2.6967931 2.6846,-2.69679168 m 77.9292,-78.34261182 2.7043,-2.696791 m 2.6846,-2.696791 2.6846,-2.716144 m 2.6846,-2.696792 2.2398,-2.250604 m -97.4162,89.80882868 2.4524,-2.46399008 m 2.6846,-2.6967278 2.6846,-2.7162077 m 67.1913,-67.5166761 2.6846,-2.696792 m 2.7037,-2.716208 2.6846,-2.696791 m 2.6846,-2.696728 1.1586,-1.164134 m -85.8091,78.148642 2.6846,-2.716208 m 2.6846,-2.696792 2.3756,-2.386326"
       id="path2" />
    <path
       style="fill:none;stroke:#000000;stroke-width:0.0193134px;stroke-linecap:round;stroke-linejoin:round;stroke-miterlimit:4;stroke-dasharray:none;stroke-opacity:1"
       d="m 1069.3338,-74.872819 2.6846,-2.696791 m 2.7042,-2.696791 2.6846,-2.696792 m 2.6846,-2.716144 0.076,-0.07741 m -73.9895,66.255589 2.6846,-2.696791 m 2.6846,-2.696855 1.0431,-1.047638 m 43.5712,-43.788821 1.0812,-1.08647 m 2.6846,-2.696791 2.6846,-2.696792 m 2.7036,-2.696791 2.6846,-2.716208 m -64.2744,56.496709 1.1198,-1.125238 m 2.6846,-2.696792 2.6846,-2.696792 m 35.4596,-35.640261 2.1631,-2.17294 m 2.6846,-2.696792 2.6839,-2.716207 m 2.7043,-2.696792 2.6846,-2.696791 m -54.8691,47.028878 2.4523,-2.463989 m 2.6846,-2.696792 2.6846,-2.696792 m 24.1996,-24.309891 2.6846,-2.716145 m 2.6846,-2.696791 2.6846,-2.696791 m 2.6846,-2.696792 2.2404,-2.250541 m -43.8801,36.008848 2.6846,-2.696729 m 2.6846,-2.696791 2.3756,-2.405805 m 13.7511,-13.813712 2.6846,-2.696792 m 2.6847,-2.696791 2.6846,-2.696792 m 2.6839,-2.716207 1.1593,-1.144655 m -32.0605,24.115859 2.6846,-2.696792 m 2.6846,-2.716207 2.7037,-2.696791 m 2.6846,-2.696792 2.6846,-2.696791 m 2.6846,-2.716145 2.6846,-2.696791 m 2.6846,-2.696791 0.076,-0.07741 m -24.0258,16.0449 1.12,-1.105886 m 2.6846,-2.716208 2.6846,-2.696728 m 2.6846,-2.696791 2.6846,-2.696792"
       id="path3" />
  </g>
</svg>
