<?xml version="1.0" encoding="UTF-8" standalone="no"?>
<!-- Created with Inkscape (http://www.inkscape.org/) -->

<svg
   width="70.194016mm"
   height="40.000713mm"
   viewBox="0 0 70.194014 40.000712"
   version="1.1"
   id="svg1"
   inkscape:export-filename="GT Sprosse FB 105mm.svg"
   inkscape:export-xdpi="96"
   inkscape:export-ydpi="96"
   xmlns:inkscape="http://www.inkscape.org/namespaces/inkscape"
   xmlns:sodipodi="http://sodipodi.sourceforge.net/DTD/sodipodi-0.dtd"
   xmlns="http://www.w3.org/2000/svg"
   xmlns:svg="http://www.w3.org/2000/svg">
  <sodipodi:namedview
     id="namedview1"
     pagecolor="#ffffff"
     bordercolor="#999999"
     borderopacity="1"
     inkscape:showpageshadow="2"
     inkscape:pageopacity="0"
     inkscape:pagecheckerboard="0"
     inkscape:deskcolor="#d1d1d1"
     inkscape:document-units="mm"
     inkscape:lockguides="true">
    <inkscape:page
       x="0"
       y="0"
       width="70.194016"
       height="40.000713"
       id="page2"
       margin="0"
       bleed="0" />
  </sodipodi:namedview>
  <defs
     id="defs1" />
  <g
     inkscape:label="Ebene 1"
     inkscape:groupmode="layer"
     id="layer1"
     transform="translate(11.418019,-170.99398)">
    <path
       style="fill:none;stroke:#000000;stroke-width:0.600567px;stroke-linecap:round;stroke-linejoin:round;stroke-miterlimit:4;stroke-dasharray:none;stroke-opacity:1"
       d="m -11.11771,210.43245 v -22.1821 m 1.010442,-1.27011 -0.01096,0.003 m 0,0 -0.09863,0.0264 m 0,0 -0.09644,0.0373 m 0,0 -0.09205,0.0416 m 0,0 -0.08986,0.0505 m 0,0 -0.08548,0.057 m 0,0 -0.08111,0.0635 m 0,0 -0.07453,0.068 m 0,0 -0.07014,0.0767 m 0,0 -0.06137,0.079 m 0,0 -0.05699,0.0856 m 0,0 -0.05041,0.0899 m 0,0 -0.04383,0.0921 m 0,0 -0.03506,0.0966 m 0,0 -0.02849,0.0986 m 0,0 -0.01973,0.10088 m 0,0 -0.01096,0.10087 m 0,0 -0.0044,0.1031 m 1.010443,-1.2704 67.785142,-15.66919 m 0.797833,0.63396 -0.0022,-0.068 m 0,0 -0.01096,-0.068 m 0,0 -0.01754,-0.0658 m 0,0 -0.02412,-0.0635 m 0,0 -0.03287,-0.0592 m 0,0 -0.03507,-0.057 m 0,0 -0.04383,-0.0548 m 0,0 -0.04822,-0.0483 m 0,0 -0.0526,-0.0416 m 0,0 -0.05699,-0.0373 m 0,0 -0.06137,-0.0307 m 0,0 -0.06357,-0.0241 m 0,0 -0.06576,-0.0197 m 0,0 -0.06795,-0.009 m 0,0 -0.06795,-0.004 m 0,0 -0.06795,0.004 m 0,0 -0.06795,0.009 m 0,0 -0.01096,0.004 m 0.797833,0.63396 v 1.95673 m -0.46029,0.62519 0.01096,-0.004 m 0,0 0.06357,-0.0241 m 0,0 0.06137,-0.0307 m 0,0 0.05699,-0.0373 m 0,0 0.0526,-0.0438 m 0,0 0.04822,-0.0483 m 0,0 0.04383,-0.0526 m 0,0 0.03507,-0.057 m 0,0 0.03287,-0.0615 m 0,0 0.02412,-0.0635 m 0,0 0.01754,-0.0658 m 0,0 0.01096,-0.0658 m 0,0 0.0022,-0.0702 m -0.460291,0.62519 -9.624411,2.94606 m -0.315625,-0.14697 0.0065,0.0154 m 0,0 0.02192,0.0351 m 0,0 0.02631,0.0307 m 0,0 0.03068,0.0264 m 0,0 0.03506,0.0219 m 0,0 0.03726,0.0154 m 0,0 0.03945,0.0104 m 0,0 0.04164,0.003 m 0,0 0.04164,-0.003 m 0,0 0.03507,-0.009 m -0.315624,-0.14697 -0.05699,-0.11849 m 0,0 -0.07451,-0.13381 m 0,0 -0.08549,-0.12724 m 0,0 -0.09425,-0.12071 m 0,0 -0.105208,-0.11406 m 0,0 -0.111784,-0.10309 m 0,0 -0.120555,-0.0966 m 0,0 -0.127131,-0.0856 m 0,0 -0.133706,-0.0746 m 0,0 -0.140279,-0.0635 m 0,0 -0.142467,-0.0548 m 0,0 -0.149046,-0.0416 m 0,0 -0.151237,-0.0286 m 0,0 -0.151238,-0.0176 m 0,0 -0.15343,-0.007 m 0,0 -0.153431,0.007 m 0,0 -0.151238,0.0176 m 0,0 -0.135893,0.0264 m 0,0 -54.1211496,12.51034 m 0,0 -0.010962,0.003 m 0,0 -0.098633,0.0286 m 0,0 -0.096441,0.0351 m 0,0 -0.092057,0.0416 m 0,0 -0.089866,0.0505 m 0,0 -0.085482,0.057 m 0,0 -0.078907,0.0635 m 0,0 -0.076715,0.0702 m 0,0 -0.067948,0.0746 m 0,0 -0.063563,0.0812 m 0,0 -0.056989,0.0855 m 0,0 -0.050413,0.0877 m 0,0 -0.043837,0.0943 m 0,0 -0.03507,0.0944 m 0,0 -0.026302,0.0987 m 0,0 -0.021918,0.10088 m 0,0 -0.010962,0.10309 m 0,0 -0.00438,0.10087 m 0,0 v 20.46228 m -0.2608301,0.26105 0.041646,-0.004 m 0,0 0.039454,-0.009 m 0,0 0.037261,-0.0154 m 0,0 0.03507,-0.0219 m 0,0 0.030685,-0.0264 m 0,0 0.026302,-0.0307 m 0,0 0.021918,-0.0351 m 0,0 0.015343,-0.0394 m 0,0 0.010962,-0.0395 m 0,0 0.00219,-0.0395 m -0.2608301,0.26105 h -1.3018722 m -0.260829,-0.26105 0.0022,0.0395 m 0,0 0.01096,0.0395 m 0,0 0.01535,0.0394 m 0,0 0.02192,0.0351 m 0,0 0.02631,0.0307 m 0,0 0.03068,0.0264 m 0,0 0.03506,0.0219 m 0,0 0.03726,0.0154 m 0,0 0.03945,0.009 m 0,0 0.04164,0.004"
       id="path1"
       inkscape:export-filename="Steckprofil 55 x 18.svg"
       inkscape:export-xdpi="96"
       inkscape:export-ydpi="96" />
  </g>
</svg>
