<?xml version="1.0" encoding="UTF-8" standalone="no"?>
<!-- Created with Inkscape (http://www.inkscape.org/) -->

<svg
   width="750.00153mm"
   height="95.533028mm"
   viewBox="0 0 750.00153 95.533029"
   version="1.1"
   id="svg1"
   xmlns="http://www.w3.org/2000/svg"
   xmlns:svg="http://www.w3.org/2000/svg">
  <defs
     id="defs1" />
  <g
     id="layer1"
     transform="translate(-1016.3577,278.28549)">
    <path
       style="fill:none;stroke:#000000;stroke-width:3.91923px;stroke-linecap:round;stroke-linejoin:round;stroke-miterlimit:4;stroke-dasharray:none;stroke-opacity:1"
       d="m 1040.6788,-186.21698 v -17.56283 m 0,0 0.075,-0.39409 m 0,0 0.1493,-0.36946 m 0,0 0.2164,-0.29558 m 0,0 0.321,-0.24631 m 0,0 0.3657,-0.14778 m 0,0 0.3658,-0.0522 m 0,0 h 7.4713 m 0,0 0.3956,0.0522 m 0,0 0.3434,0.14778 m 0,0 0.3209,0.24631 m 0,0 0.2463,0.29558 m 0,0 0.1493,0.36946 m 0,0 0.075,0.39409 m 0,0 v 7.09409 m 0,0 0.075,0.39409 m 0,0 0.1493,0.34484 m 0,0 0.2463,0.3202 m 0,0 0.2911,0.24631 m 0,0 0.3657,0.14778 m 0,0 0.3956,0.0522 m 0,0 h 48.4513 m 0,0 0.4926,-0.0522 m 0,0 0.4628,-0.0746 m 0,0 0.4627,-0.17241 m 0,0 0.4404,-0.22168 m 0,0 0.418,-0.27094 m 0,0 0.3657,-0.3202 m 0,0 0.321,-0.36947 m 0,0 0.2687,-0.39409 m 0,0 0.2239,-0.44336 m 0,0 0.1493,-0.46799 m 0,0 0.097,-0.46799 m 0,0 v -0.49261 m 0,0 v -64.68443 m 0,0 -0.075,-0.39409 m 0,0 -0.1492,-0.34483 m 0,0 -0.2463,-0.32021 m 0,0 -0.2911,-0.24631 m 0,0 -0.3658,-0.14778 m 0,0 -0.3956,-0.0522 m 0,0 h -83.4794 m 0,0 -0.3956,-0.0523 m 0,0 -0.3434,-0.14778 m 0,0 -0.3209,-0.24631 m 0,0 -0.2463,-0.29557 m 0,0 -0.1493,-0.36947 m 0,0 -0.075,-0.39409 m 0,0 0.075,-0.36947 m 0,0 0.1493,-0.36946 m 0,0 0.2463,-0.29557 m 0,0 6.4667,-6.47824 m 0,0 0.2687,-0.27094 m 0,0 0.6121,-0.49262 m 0,0 0.6643,-0.44335 m 0,0 0.6866,-0.34483 m 0,0 0.7315,-0.27095 m 0,0 0.7591,-0.22167 m 0,0 0.7598,-0.12316 m 0,0 0.7837,-0.0224 m 0,0 h 730.0789 m 0,0 0.4926,0.0224 m 0,0 0.4926,0.0985 m 0,0 0.4628,0.14778 m 0,0 0.4404,0.22168 m 0,0 0.3956,0.27094 m 0,0 0.3657,0.3202 m 0,0 0.3209,0.36947 m 0,0 0.2687,0.41872 m 0,0 0.2165,0.41873 m 0,0 0.1717,0.46799 m 0,0 0.075,0.49261 m 0,0 0.075,0.49262 m 0,0 v 7.09409 m 0,0 -0.075,0.68966 m 0,0 -0.1493,0.66504 m 0,0 -0.194,0.6404 m 0,0 -0.321,0.61578 m 0,0 -0.3657,0.56651 m 0,0 -0.4628,0.51725 m 0,0 -0.515,0.46798 m 0,0 -0.5598,0.36947 m 0,0 -0.612,0.29557 m 0,0 -0.6345,0.22168 m 0,0 -0.6866,0.14778 m 0,0 -0.6643,0.0224 m 0,0 -0.6867,-0.0224 m 0,0 -0.6867,-0.14778 m 0,0 -0.6344,-0.22168 m 0,0 -0.2463,-0.0985 m 0,0 v -2.85734 m 0,0 h -35.8119 m 0,0 -0.3657,0.0523 m 0,0 -0.3658,0.14778 m 0,0 -0.3209,0.24631 m 0,0 -0.2239,0.29557 m 0,0 -0.1717,0.36947 m 0,0 -0.075,0.39409 m 0,0 v 22.41542 m 0,0 0.075,0.3941 m 0,0 0.1717,0.36946 m 0,0 0.2239,0.29557 m 0,0 0.3209,0.24631 m 0,0 0.3658,0.14779 m 0,0 0.3657,0.0522 m 0,0 h 35.8119 m 0,0 v -2.24156 m 0,0 0.075,-0.29557 m 0,0 0.097,-0.27094 m 0,0 0.1941,-0.22168 m 0,0 0.2239,-0.17242 m 0,0 0.2687,-0.12315 m 0,0 0.2911,-0.0522 m 0,0 0.3434,0.0746 m 0,0 0.097,-0.0224 m 0,0 0.6867,-0.0522 m 0,0 0.6643,0.0522 m 0,0 0.6866,0.14778 m 0,0 0.6345,0.22168 m 0,0 0.612,0.29557 m 0,0 0.5598,0.36947 m 0,0 0.515,0.46799 m 0,0 0.4628,0.51725 m 0,0 0.3657,0.56651 m 0,0 0.321,0.61577 m 0,0 0.194,0.6404 m 0,0 0.1493,0.66504 m 0,0 0.075,0.68967 m 0,0 v 45.98857 m 0,0 -0.075,0.49262 m 0,0 -0.075,0.46798 m 0,0 -0.1717,0.46799 m 0,0 -0.2165,0.44336 m 0,0 -0.2687,0.39409 m 0,0 -0.3209,0.36947 m 0,0 -0.3657,0.3202 m 0,0 -0.3956,0.27094 m 0,0 -0.4404,0.22168 m 0,0 -0.4628,0.17241 m 0,0 -0.4926,0.0746 m 0,0 -0.4926,0.0523 m 0,0 h -14.1583 m 0,0 -0.4926,-0.0523 m 0,0 -0.4927,-0.0746 m 0,0 -0.4403,-0.17241 m 0,0 -0.4404,-0.22168 m 0,0 -0.418,-0.27094 m 0,0 -0.3657,-0.3202 m 0,0 -0.321,-0.36947 m 0,0 -0.2687,-0.39409 m 0,0 -0.2239,-0.44336 m 0,0 -0.1493,-0.46799 m 0,0 -0.097,-0.46798 m 0,0 v -0.49262 m 0,0 v -2.9805 m 0,0 v -0.49261 m 0,0 0.097,-0.49262 m 0,0 0.1493,-0.46799 m 0,0 0.2239,-0.41873 m 0,0 0.2687,-0.41872 m 0,0 0.321,-0.36947 m 0,0 0.3657,-0.3202 m 0,0 0.418,-0.27094 m 0,0 0.4404,-0.22168 m 0,0 0.4403,-0.14778 m 0,0 0.4927,-0.0985 m 0,0 0.4926,-0.0224 m 0,0 h 5.2173 m 0,0 0.3433,-0.0224 m 0,0 0.3433,-0.0985 m 0,0 0.321,-0.12316 m 0,0 0.3209,-0.19705 m 0,0 0.2687,-0.22167 m 0,0 0.224,-0.27095 m 0,0 0.1716,-0.29557 m 0,0 0.1493,-0.3202 m 0,0 0.075,-0.34483 m 0,0 v -0.34483 m 0,0 v -26.18418 m 0,0 -0.075,-0.3941 m 0,0 -0.1493,-0.34483 m 0,0 -0.2239,-0.3202 m 0,0 -0.3209,-0.22168 m 0,0 -0.3658,-0.17242 m 0,0 -0.3956,-0.0522 m 0,0 h -32.824 m 0,0 -0.4628,0.0522 m 0,0 -0.4926,0.0985 m 0,0 -0.4628,0.14778 m 0,0 -0.4404,0.22168 m 0,0 -0.3955,0.27094 m 0,0 -0.3658,0.3202 m 0,0 -0.3209,0.36947 m 0,0 -0.2687,0.39409 m 0,0 -0.2239,0.44336 m 0,0 -0.1717,0.46799 m 0,0 -0.097,0.46798 m 0,0 v 0.49262 m 0,0 v 23.94262 m 0,0 v 0.34483 m 0,0 0.097,0.34483 m 0,0 0.1194,0.3202 m 0,0 0.1941,0.29558 m 0,0 0.2239,0.27094 m 0,0 0.2687,0.22167 m 0,0 0.2911,0.19705 m 0,0 0.3209,0.12316 m 0,0 0.3434,0.0985 m 0,0 0.3433,0.0224 m 0,0 h 2.2541 m 0,0 0.4926,0.0224 m 0,0 0.4628,0.0985 m 0,0 0.4628,0.14778 m 0,0 0.4403,0.22168 m 0,0 0.418,0.27094 m 0,0 0.3657,0.3202 m 0,0 0.321,0.36947 m 0,0 0.2687,0.41872 m 0,0 0.2239,0.41873 m 0,0 0.1493,0.46799 m 0,0 0.097,0.49262 m 0,0 v 0.49262 m 0,0 v 2.98049 m 0,0 v 0.49262 m 0,0 -0.097,0.46798 m 0,0 -0.1493,0.46799 m 0,0 -0.2239,0.44336 m 0,0 -0.2687,0.39409 m 0,0 -0.321,0.36947 m 0,0 -0.3657,0.3202 m 0,0 -0.418,0.27094 m 0,0 -0.4403,0.22168 m 0,0 -0.4628,0.17242 m 0,0 -0.4628,0.0746 m 0,0 -0.4926,0.0523 m 0,0 h -8.2058 m 0,0 -0.4926,-0.0523 m 0,0 -0.4926,-0.0746 m 0,0 -0.4404,-0.17242 m 0,0 -0.4404,-0.22168 m 0,0 -0.418,-0.27094 m 0,0 -0.3657,-0.3202 m 0,0 -0.321,-0.36947 m 0,0 -0.2687,-0.39409 m 0,0 -0.2239,-0.44336 m 0,0 -0.1492,-0.46799 m 0,0 -0.097,-0.46798 m 0,0 v -0.49262 m 0,0 v -71.77858 m 0,0 -0.075,-0.3941 m 0,0 -0.1493,-0.36946 m 0,0 -0.2239,-0.29557 m 0,0 -0.321,-0.24631 m 0,0 -0.3657,-0.14779 m 0,0 -0.3657,-0.0522 m 0,0 H 1599.445 m 0,0 -0.3956,0.0522 m 0,0 -0.3433,0.14779 m 0,0 -0.321,0.24631 m 0,0 -0.2463,0.29557 m 0,0 -0.1493,0.36946 m 0,0 -0.075,0.3941 m 0,0 v 71.77858 m 0,0 v 0.49262 m 0,0 -0.097,0.46798 m 0,0 -0.1717,0.46799 m 0,0 -0.1941,0.44336 m 0,0 -0.2687,0.39409 m 0,0 -0.3433,0.36947 m 0,0 -0.3657,0.3202 m 0,0 -0.3956,0.27094 m 0,0 -0.4404,0.22168 m 0,0 -0.4628,0.17242 m 0,0 -0.4627,0.0746 m 0,0 -0.4926,0.0523 m 0,0 h -26.1118 m 0,0 -0.4926,-0.0523 m 0,0 -0.4927,-0.0746 m 0,0 -0.4403,-0.17242 m 0,0 -0.4404,-0.22168 m 0,0 -0.418,-0.27094 m 0,0 -0.3657,-0.3202 m 0,0 -0.321,-0.36947 m 0,0 -0.2687,-0.39409 m 0,0 -0.2164,-0.44336 m 0,0 -0.1493,-0.46799 m 0,0 -0.097,-0.46798 m 0,0 v -0.49262 m 0,0 v -2.98049 m 0,0 v -0.49262 m 0,0 0.097,-0.49262 m 0,0 0.1493,-0.46799 m 0,0 0.2164,-0.41873 m 0,0 0.2687,-0.41872 m 0,0 0.321,-0.36947 m 0,0 0.3657,-0.3202 m 0,0 0.418,-0.27094 m 0,0 0.4404,-0.22168 m 0,0 0.4403,-0.14778 m 0,0 0.4927,-0.0985 m 0,0 0.4926,-0.0224 m 0,0 h 19.4002 m 0,0 v -65.81759 m 0,0 -0.075,-0.36947 m 0,0 -0.1493,-0.36946 m 0,0 -0.2463,-0.3202 m 0,0 -0.321,-0.22168 m 0,0 -0.3433,-0.14779 m 0,0 -0.3956,-0.0522 m 0,0 h -105.9414 m 0,0 -0.3956,0.0522 m 0,0 -0.3433,0.14779 m 0,0 -0.321,0.22168 m 0,0 -0.2463,0.3202 m 0,0 -0.1493,0.36946 m 0,0 -0.075,0.36947 m 0,0 v 65.81759 m 0,0 h 19.4002 m 0,0 0.4926,0.0224 m 0,0 0.4628,0.0985 m 0,0 0.4628,0.14778 m 0,0 0.4403,0.22168 m 0,0 0.418,0.27094 m 0,0 0.3658,0.3202 m 0,0 0.3209,0.36947 m 0,0 0.2687,0.41872 m 0,0 0.2165,0.41873 m 0,0 0.1492,0.46799 m 0,0 0.097,0.49262 m 0,0 v 0.49262 m 0,0 v 2.98049 m 0,0 v 0.49262 m 0,0 -0.097,0.46798 m 0,0 -0.1492,0.46799 m 0,0 -0.2165,0.44336 m 0,0 -0.2687,0.39409 m 0,0 -0.3209,0.36947 m 0,0 -0.3658,0.3202 m 0,0 -0.418,0.27094 m 0,0 -0.4403,0.22168 m 0,0 -0.4628,0.17242 m 0,0 -0.4628,0.0746 m 0,0 -0.4926,0.0523 m 0,0 h -26.1118 m 0,0 -0.4926,-0.0523 m 0,0 -0.4627,-0.0746 m 0,0 -0.4628,-0.17242 m 0,0 -0.4404,-0.22168 m 0,0 -0.4179,-0.27094 m 0,0 -0.3658,-0.3202 m 0,0 -0.3209,-0.36947 m 0,0 -0.2687,-0.39409 m 0,0 -0.2239,-0.44336 m 0,0 -0.1493,-0.46799 m 0,0 -0.097,-0.46798 m 0,0 v -0.49262 m 0,0 v -72.54222 m 0,0 -0.075,-0.36946 m 0,0 -0.1493,-0.36946 m 0,0 -0.2463,-0.32021 m 0,0 -0.3209,-0.22167 m 0,0 -0.3434,-0.14779 m 0,0 -0.3881,-0.0523 m 0,0 h -348.4434 m 0,0 -0.3657,0.0523 m 0,0 -0.3658,0.14779 m 0,0 -0.3209,0.22167 m 0,0 -0.2239,0.32021 m 0,0 -0.1493,0.36946 m 0,0 -0.075,0.36946 m 0,0 v 74.41424 m 0,0 -0.075,0.49262 m 0,0 -0.097,0.46799 m 0,0 -0.1493,0.46799 m 0,0 -0.2165,0.44335 m 0,0 -0.2687,0.3941 m 0,0 -0.3209,0.36946 m 0,0 -0.3657,0.32021 m 0,0 -0.418,0.27094 m 0,0 -0.418,0.22167 m 0,0 -0.4628,0.17242 m 0,0 -0.4926,0.0746 m 0,0 -0.4926,0.0523 m 0,0 h -70.8408 m 0,0 -0.3657,-0.0523 m 0,0 -0.3658,-0.14779 m 0,0 -0.3209,-0.2463 m 0,0 -0.2165,-0.32021 m 0,0 -0.1493,-0.34483 m 0,0 -0.075,-0.39409"
       id="path1" />
    <path
       style="fill:none;stroke:#000000;stroke-width:0.0244952px;stroke-linecap:round;stroke-linejoin:round;stroke-miterlimit:4;stroke-dasharray:none;stroke-opacity:1"
       d="m 1753.4399,-276.32202 1.8122,1.82277 m 3.1602,3.15298 3.1841,3.17754 m -17.6365,-8.15329 0.224,0.22168 m 3.1594,3.17754 3.1603,3.17761 m 3.1841,3.17754 2.9393,2.95594 m -20.3557,-10.88754 3.1603,3.15298 m 3.1595,3.17754 3.1848,3.17754 m -20.5765,-11.10915 3.1602,3.17754 m 3.1602,3.17761 3.1595,3.17754 m 25.0094,25.05109 0.3209,0.3202 m 3.1602,3.17761 1.1263,1.1331 m -48.8185,-39.43637 1.8123,1.82277 m 3.1602,3.15298 3.1595,3.17754 m 3.1602,3.17754 1.3718,1.37948 m 25.3766,25.42055 1.7391,1.74887 m 3.1602,3.17754 3.1842,3.17761 m -55.6286,-46.23488 0.2239,0.22168 m 3.1841,3.17754 3.1602,3.17761 m 3.1595,3.17754 3.1602,3.15299 m 25.1564,25.2235 0.1717,0.17241 m 3.1595,3.17754 3.1602,3.15299 m 3.1841,3.17754 3.1595,3.17754 m 3.1602,3.17761 3.1602,3.17754 m -64.8883,-55.52126 3.1848,3.15298 m 3.1595,3.17754 3.1602,3.17754 m 3.1595,3.17761 3.1602,3.17754 m 3.1841,3.15299 2.278,2.31538 m 16.7058,16.72538 3.1602,3.17754 m 3.1595,3.17761 3.1109,3.10365 m 9.5531,9.58196 3.1602,3.17761 m 3.1841,3.17754 2.7438,2.73418 m -77.1352,-67.78814 3.1595,3.17754 m 3.1849,3.17761 3.1595,3.17754 m 11.684,11.70037 0.98,0.98531 m 3.1602,3.17754 3.1595,3.15299 m 3.1602,3.17754 0.7091,0.71429 m 5.6337,5.64079 3.1603,3.17754 m 3.1602,3.15298 3.1595,3.17754 m 22.1678,22.21837 3.1602,3.17754 m 3.1603,3.15299 1.1755,1.18228 m -86.8598,-77.54251 1.8122,1.82276 m 3.1602,3.15298 3.1841,3.17754 m 3.1602,3.17754 1.3719,1.37949 m 18.2239,18.25249 2.5475,2.5864 m 3.1602,3.15298 3.1841,3.17754 m 3.1602,3.17754 3.1595,3.17762 m 30.2759,30.34703 1.3719,1.3794 m 3.1602,3.17754 3.1841,3.15299 m -93.6207,-84.29184 0.2463,0.22167 m 3.1595,3.17754 3.1602,3.17762 m 3.1841,3.17754 2.9393,2.95594 m 28.7085,28.7705 3.1602,3.15298 m 3.1595,3.17754 2.0332,2.04452 m 29.6146,29.68192 3.1602,3.17754 m 3.1841,3.17761 3.1595,3.17754 m -96.5354,-87.2477 3.1602,3.15298 m 3.1595,3.17754 3.1849,3.17754 m 41.1269,41.23458 3.1602,3.17754 m 28.61,28.67205 3.0624,3.05439 m -96.5353,-87.24771 3.1595,3.17754 m 3.1602,3.17762 3.1595,3.17754 m 49.6761,49.75733 0.98,0.98531 m 3.1602,3.17754 3.1595,3.17754 m -76.2044,-66.85209 1.8369,1.82276 m 3.1602,3.15298 3.1595,3.17754 m 3.1602,3.17754 1.3719,1.37949 m 56.216,56.33408 2.5474,2.56177 m 3.1602,3.17754 1.7391,1.72431 m 4.6053,4.63084 3.1594,3.15299 m -93.596,-84.29184 0.2239,0.22167 m 3.1841,3.17754 3.1602,3.17762 m 3.1595,3.17754 2.9639,2.95594 m 66.676,66.82746 3.1602,3.17754 m 3.1595,3.17761 3.1602,3.17754 m -96.5361,-87.2477 3.1848,3.15298 m 3.1595,3.17754 3.1602,3.17754 m -20.5757,-11.10915 3.1594,3.17754 m 3.1603,3.17762 3.1841,3.17754 m -19.2286,-9.75437 1.8123,1.82276 m 3.1602,3.15298 3.1602,3.17754 m 3.1841,3.17754 1.3719,1.37949 m -22.1932,-12.71031 0.2463,0.22167 m 3.1594,3.17754 3.1603,3.17762 m 3.1594,3.17754 2.964,2.95594 m -20.3556,-10.88755 3.1602,3.15298 m 3.1602,3.17754 3.1595,3.17754 m 3.1841,3.17762 0.9554,0.96068 m -24.7153,-15.24745 3.1841,3.17754 m 3.1602,3.17762 3.1595,3.17754 m 4.7769,4.7787 1.5674,1.55182 m 3.1603,3.17754 3.1594,3.17762 m -31.8925,-22.44005 1.8129,1.82276 m 3.1842,3.15298 3.1594,3.17754 m 3.1603,3.17754 0.6344,0.64041 m 12.052,12.06983 3.1356,3.15291 m 3.1595,3.17761 3.1841,3.17754 m -42.9646,-33.5492 0.2239,0.22168 m 3.1595,3.17754 3.1848,3.17762 m 3.1595,3.17754 2.2049,2.21693 m 23.1232,23.15435 3.1602,3.17761 m 3.1595,3.17754 2.5474,2.53714 m -51.6107,-42.19518 3.1594,3.15298 m 3.1841,3.17754 3.1603,3.17754 m 34.808,34.90405 3.1594,3.17754 m 3.1841,3.15299 0.9554,0.98523 m -62.6827,-53.32896 3.1595,3.17754 m 3.1602,3.17762 3.1841,3.17754 m 42.7444,42.83566 1.5674,1.57645 m 3.1602,3.17754 3.1595,3.15299 m -69.8601,-60.49702 1.813,1.82277 m 3.1595,3.15298 3.1602,3.17754 m 3.1841,3.17754 0.6121,0.6404 m 50.0441,50.15143 3.1356,3.15291 m 3.1594,3.15298 3.1841,3.17754 m -80.9559,-71.60616 0.2463,0.22168 m 3.1595,3.17754 3.1602,3.17761 m 3.1595,3.17754 2.2049,2.21693 m 61.1153,61.23595 3.1602,3.15298 m 3.1595,3.17754 2.5474,2.56177 m -89.5782,-80.27678 3.1595,3.15298 m 3.1602,3.17754 3.1595,3.17755 m 67.7783,67.936 1.8615,1.87203 m 3.1603,3.15298 3.1594,3.17754 m -96.5353,-87.2477 3.1841,3.17754 m 3.1602,3.17761 3.1595,3.17754 m 69.3458,69.51246 0.2911,0.27094 m 3.1602,3.17754 3.1595,3.17761 m 3.1602,3.17754 0.6867,0.66504 m -99.0343,-89.73558 1.813,1.82277 m 3.1841,3.15298 3.1602,3.17754 m 3.1595,3.17754 0.6344,0.6404 m 69.0032,69.16756 3.1595,3.15298 m 3.1602,3.17754 2.2534,2.2662 m -99.0089,-89.73558 0.2239,0.22168 m 3.1595,3.17754 3.1848,3.17761 m 3.1595,3.17754 2.2048,2.21693 m 74.4161,74.58666 2.4989,2.51251 m -96.5354,-87.24771 3.1595,3.15299 m 3.1602,3.17754 3.1841,3.17754 m -20.5757,-11.10915 3.1594,3.17754 m 3.1603,3.17761 3.1594,3.17754 m 3.1849,3.15299 3.1595,3.17754 m 3.1602,3.17754 0.2911,0.29557 m -29.0026,-19.55809 1.813,1.82277 m 3.1595,3.15298 3.1602,3.17754 m 3.1595,3.17754 0.6344,0.64041 m 6.6377,6.62609 2.2295,2.24157 m 3.1594,3.17754 3.1603,3.17754 m -36.6203,-27.19405 0.2463,0.22168 m 3.1595,3.17754 3.1602,3.17761 m 3.1595,3.17754 2.2049,2.21694 m 16.7789,16.79926 3.1848,3.17754 m 3.1595,3.17754 3.1602,3.17762 m -45.9038,-36.48051 3.1841,3.15299 m 3.1602,3.17754 3.1595,3.17754 m 28.4883,28.54889 3.1594,3.17754 m 3.1603,3.17762 1.8861,1.87202 m -57.2699,-47.88522 3.1602,3.17754 m 3.1841,3.17761 3.1595,3.17754 m 37.3308,37.41656 0.6344,0.6404 m 3.1849,3.17754 3.1595,3.17762 m 3.1602,3.17754 0.2911,0.29557 m -66.9947,-57.6396 1.813,1.82276 m 3.1595,3.15299 3.1848,3.17754 m 3.1595,3.17754 0.6121,0.6404 m 44.6297,44.70769 2.2295,2.24149 m 3.1595,3.17761 3.1602,3.17754 m 15.8481,15.86322 3.1603,3.15299 m 3.1594,3.17754 1.445,1.4533 m -98.2251,-88.92269 0.2463,0.22168 m 3.1602,3.17754 3.1595,3.17762 m 3.1841,3.17754 2.2048,2.21693 m 54.7464,54.88079 3.1848,3.17761 m 3.1595,3.17754 3.1602,3.15299 m 3.1595,3.17754 3.1849,3.17754 m 3.1594,3.17761 3.1603,3.17754 m -96.5354,-87.2477 3.1595,3.15298 m 3.1602,3.17754 3.1841,3.17754 m 66.4558,66.63049 3.1595,3.17754 m 3.1602,3.15299 3.1841,3.17754 m -96.5354,-87.24771 3.1595,3.17754 m 3.1602,3.17762 3.1603,3.17754 m 75.3221,75.47344 0.6344,0.66504 m 3.1849,3.17754 0.6643,0.66503 m -99.0097,-89.73558 1.813,1.82277 m 3.1595,3.15298 3.1602,3.17754 m 3.1595,3.17754 0.6344,0.64041 m -21.4334,-11.97131 0.224,0.22168 m 3.1841,3.17754 3.1602,3.17761 m 3.1602,3.17754 2.2041,2.21694 m -19.6204,-10.14855 3.1841,3.15299 m 3.1602,3.17754 3.1595,3.17754 m -20.5758,-11.10915 3.1603,3.17754 m 3.1841,3.17761 3.1602,3.17754 m -19.2293,-9.75437 1.813,1.82276 m 3.1594,3.15299 3.1849,3.17754 m 3.1595,3.17754 0.612,0.6404 m -21.4334,-11.9713 0.2463,0.22167 m 3.1603,3.17754 3.1594,3.17762 m 3.1603,3.17754 2.2287,2.21693 m -19.6204,-10.14854 3.1595,3.15298 m 3.1602,3.17754 3.1595,3.17754 m -20.5512,-11.10915 3.1602,3.17754 m 3.1595,3.17762 3.1602,3.17754 m -19.2293,-9.75437 1.8376,1.82276 m 3.1595,3.15298 3.1602,3.17754 m 3.1595,3.17754 0.6345,0.64041 m -21.4334,-11.97131 0.2164,0.22168 m 3.1602,3.17754 3.1842,3.17761 m 3.1602,3.17754 2.2041,2.21694 m -19.6204,-10.14855 3.1594,3.15299 m 3.1849,3.17754 3.1595,3.17754 m -20.5758,-11.10915 3.1602,3.17754 m 3.1595,3.17761 3.1848,3.17754 m -19.2293,-9.75437 1.813,1.82276 m 3.1595,3.15299 3.1602,3.17754 m 3.1841,3.17754 0.6121,0.6404 m -21.4334,-11.9713 0.2463,0.22167 m 3.1602,3.17754 3.1595,3.17762 m 3.1602,3.17754 2.2041,2.21693 m -19.5958,-10.14854 3.1595,3.15298 m 3.1602,3.17754 3.1595,3.17754 m -20.5758,-11.10915 3.1849,3.17754 m 3.1595,3.17762 3.1602,3.17754 m -19.2293,-9.75437 1.813,1.82276 m 3.1841,3.15298 3.1602,3.17754 m 3.1595,3.17754 0.6344,0.64041 m -21.4334,-11.97131 0.2165,0.22168 m 3.1602,3.17754 3.1841,3.17761 m 3.1602,3.17754 2.2041,2.21694 m -19.6204,-10.14854 3.1602,3.15298 m 3.1842,3.17754 3.1594,3.17754 m -20.5758,-11.10915 3.1603,3.17754 m 3.1594,3.17761 3.1849,3.17754 m -19.2293,-9.75437 1.813,1.82277 m 3.1602,3.15298 3.1595,3.17754 m 3.1602,3.17754 0.6344,0.6404 m -21.4333,-11.9713 0.2463,0.22168 m 3.1602,3.17754 3.1595,3.17761 m 3.1602,3.17754 2.2041,2.21693 m -19.5958,-10.14854 3.1595,3.15298 m 3.1602,3.17754 3.1602,3.17754 m -20.5765,-11.10914 3.1849,3.17754 m 3.1594,3.17761 3.1603,3.17754 m -19.2286,-9.75437 1.8122,1.82276 m 3.1603,3.15298 3.1841,3.17754 m 3.1602,3.17754 0.612,0.64041 m -21.4087,-11.97131 0.2164,0.22168 m 3.1603,3.17754 3.1594,3.17762 m 3.1849,3.17754 2.2041,2.21693 m -19.6204,-10.14854 3.1602,3.15298 m 3.1595,3.17754 3.1848,3.17754 m -20.5765,-11.10915 3.1602,3.17754 m 3.1595,3.17762 3.1602,3.17754 m -19.2039,-9.75438 1.8122,1.82277 m 3.1603,3.15298 3.1594,3.17754 m 3.1603,3.17754 0.6344,0.6404 m -21.4334,-11.9713 0.2165,0.22168 m 3.1848,3.17754 3.1595,3.17761 m 3.1602,3.17754 3.1595,3.15298 m 3.1849,3.17754 2.425,2.43862 m -26.1857,-16.70075 3.1849,3.15299 m 3.1594,3.17754 3.0379,3.05438 m 4.85,4.87722 1.5921,1.60109 m 3.1841,3.15298 3.1602,3.17754 m 3.1595,3.17754 0.8576,0.83753 m -37.2577,-27.80989 3.1603,3.17754 m 3.1841,3.17761 3.1602,3.17754 m 15.8235,15.86322 3.1602,3.15298 m 3.1595,3.17754 3.1849,3.17754 m -44.5567,-35.12565 1.8123,1.82276 m 3.1602,3.15299 3.1841,3.17754 m 28.4637,28.54889 3.1841,3.17754 m 3.1602,3.17754 3.1595,3.17762 m -55.6286,-46.23488 0.2463,0.22168 m 3.1602,3.17754 3.1595,3.17761 m 3.1848,3.17754 1.4451,1.4533 m 33.3383,33.42612 v 0 m 3.1602,3.17754 3.1595,3.17754 m 3.1849,3.17762 2.425,2.43861 m -64.1532,-54.78234 3.1603,3.15299 m 3.1594,3.17754 3.0625,3.05438 m 42.8175,42.93419 1.5921,1.60108 m 3.1841,3.17754 3.1602,3.17762 m 3.1595,3.17754 0.8576,0.83752 m -75.2251,-65.89148 3.1602,3.17754 m 3.1595,3.17761 3.1602,3.17754 m 53.8156,53.92018 3.1602,3.17754 m 3.1595,3.17762 3.1849,3.17754 m -82.5495,-73.20725 1.8376,1.82276 m 3.1595,3.15299 3.1602,3.17754 m 66.4558,66.63041 3.1841,3.17762 m 3.1602,3.17754 3.1595,3.15298 m -90.191,-80.89262 3.1594,3.17761 m 3.1603,3.17754 1.4696,1.4533 m 69.3212,69.48783 2.0085,2.01981 m 3.1602,3.17761 3.1595,3.17754 m -90.191,-80.91717 3.037,3.05438 m 72.9225,73.1088 3.1603,3.15291 m 3.1594,3.17754 0.9554,0.96068 m -18.347,-8.89229 3.1602,3.17761 m 3.1595,3.17754 2.5235,2.53714 m -19.9391,-10.46874 3.1841,3.17761 m 3.1602,3.15291 3.1595,3.17754 m -18.9837,-9.50806 1.5674,1.57645 m 3.1849,3.17761 3.1594,3.17754 m -26.9201,-17.4643 3.1841,3.17754 m 9.4799,9.53277 3.1849,3.15291 m 3.1595,3.17754 0.9554,0.96068 m -24.6914,-15.24737 3.1602,3.17754 m 3.1595,3.17754 3.1602,3.17761 m 3.1602,3.17754 2.5475,2.53714 m -13.6202,-4.13822 3.1602,3.17754"
       id="path2" />
  </g>
</svg>
