<?xml version="1.0" encoding="UTF-8" standalone="no"?>
<!-- Created with Inkscape (http://www.inkscape.org/) -->

<svg
   width="750mm"
   height="270.2532mm"
   viewBox="0 0 749.99999 270.2532"
   version="1.1"
   id="svg1"
   xmlns="http://www.w3.org/2000/svg"
   xmlns:svg="http://www.w3.org/2000/svg">
  <defs
     id="defs1" />
  <g
     id="layer1"
     transform="translate(-1010.5127,221.33692)">
    <path
       style="fill:none;stroke:#000000;stroke-width:6.17266px;stroke-linecap:round;stroke-linejoin:round;stroke-miterlimit:4;stroke-dasharray:none;stroke-opacity:1"
       d="m 1013.6765,43.490398 v -82.273905 m 9.1108,-11.444274 -0.9746,0.26655 m 0,0 -1.1625,0.445033 m 0,0 -1.092,0.56363 m 0,0 -1.0099,0.651697 m 0,0 -0.9745,0.771469 m 0,0 -0.8573,0.888891 m 0,0 -0.7749,0.948778 m 0,0 -0.6576,1.038019 m 0,0 -0.5637,1.09673 m 0,0 -0.4461,1.12726 m 0,0 -0.3288,1.185854 m 0,0 -0.1761,1.215562 m 0,0 -0.1175,1.24527 m 9.1109,-11.444274 727.4527,-167.868418 m 7.211,5.72214 -0.1175,-0.77147 m 0,0 -0.1526,-0.74094 m 0,0 -0.2349,-0.74094 m 0,0 -0.3523,-0.68223 m 0,0 -0.4109,-0.65287 m 0,0 -0.505,-0.56363 m 0,0 -0.5988,-0.50374 m 0,0 -0.6223,-0.44504 m 0,0 -0.7164,-0.32643 m 0,0 -0.7162,-0.26655 m 0,0 -0.7398,-0.14796 m 0,0 -0.775,-0.0352 m 0,0 -0.775,0.0352 m 0,0 -0.5636,0.1186 m 7.211,5.72214 v 17.6111 m -4.1544,5.60342 0.5049,-0.17849 m 0,0 0.7162,-0.32643 m 0,0 0.6224,-0.44504 m 0,0 0.5988,-0.50374 m 0,0 0.5049,-0.56363 m 0,0 0.411,-0.6517 m 0,0 0.3523,-0.68223 m 0,0 0.2348,-0.74094 m 0,0 0.1527,-0.74094 m 0,0 0.1174,-0.77028 m -4.1544,5.60342 -86.8026,26.53523 m -2.8486,-1.30457 0.1173,0.1186 m 0,0 0.1762,0.32643 m 0,0 0.2348,0.26655 m 0,0 0.2936,0.26655 m 0,0 0.2935,0.17731 m 0,0 0.3523,0.14795 m 0,0 0.3523,0.094 m 0,0 0.3523,0.0352 m 0,0 0.3875,-0.0352 m 0,0 0.3288,-0.094 m -2.8487,-1.30456 -0.5049,-1.06738 m 0,0 -0.6811,-1.21556 m 0,0 -0.775,-1.15661 m 0,0 -0.8572,-1.09674 m 0,0 -0.9159,-1.00749 m 0,0 -1.0333,-0.91941 m 0,0 -1.0685,-0.85954 m 0,0 -1.1625,-0.77147 m 0,0 -1.2165,-0.68223 m 0,0 -1.2459,-0.59298 m 0,0 -1.3057,-0.47439 m 0,0 -1.3363,-0.3558 m 0,0 -1.3351,-0.2959 m 0,0 -1.395,-0.14795 m 0,0 -1.3644,-0.0587 m 0,0 -1.395,0.0587 m 0,0 -1.3656,0.14795 m 0,0 -1.2165,0.23719 m 0,0 -604.208,139.435868 m 0,0 -1.0099,0.295906 m 0,0 -1.1272,0.414503 m 0,0 -1.1038,0.56363 m 0,0 -1.0333,0.682227 m 0,0 -0.9511,0.770294 m 0,0 -0.8924,0.859536 m 0,0 -0.775,0.948778 m 0,0 -0.6576,1.038019 m 0,0 -0.5636,1.09673 m 0,0 -0.4462,1.156615 m 0,0 -0.3288,1.185855 m 0,0 -0.1762,1.215562 m 0,0 -0.1174,1.215563 m 0,0 v 66.797562 m -2.3437,2.342235 0.3522,-0.03525 m 0,0 0.3523,-0.09394 m 0,0 0.3522,-0.147953 m 0,0 0.2936,-0.178485 m 0,0 0.2935,-0.237187 m 0,0 0.2349,-0.295913 m 0,0 0.1761,-0.32643 m 0,0 0.1527,-0.326437 m 0,0 0.1174,-0.355793 m 0,0 v -0.355792 m -2.3437,2.342235 h -11.7517 m -2.3743,-2.342235 v 0.355792 m 0,0 0.1174,0.355793 m 0,0 0.1527,0.326437 m 0,0 0.2113,0.32643 m 0,0 0.2349,0.295913 m 0,0 0.27,0.237187 m 0,0 0.3288,0.178485 m 0,0 0.3288,0.147953 m 0,0 0.3523,0.09394 m 0,0 0.3875,0.03525"
       id="path1" />
    <path
       style="fill:none;stroke:#000000;stroke-width:0.0296762px;stroke-linecap:round;stroke-linejoin:round;stroke-miterlimit:4;stroke-dasharray:none;stroke-opacity:1"
       d="m 1015.3979,41.948751 3.8867,3.883882 m -5.6081,-20.546189 4.2143,4.180372 m 4.9858,4.980848 4.9846,5.010547 m -14.1847,-29.114544 1.7214,1.689951 m 4.9858,4.980963 4.9846,4.980848 m -7.4775,-22.41404406 4.9858,4.98084596 m 4.9846,4.9809637 2.2851,2.2829374 m -14.7484,-29.677943 4.9858,4.980846 m 4.9846,4.9809633 4.778,4.7733599 m -16.4698,-31.3974842 4.2143,4.210081 m 4.9858,4.980847 4.9846,4.980964 m -7.4775,-22.41416 4.9846,4.980963 m 4.9858,4.980846 2.285,2.282936 m -4.7779,-19.745723 4.9857,4.980846 m 4.9565,5.010555 4.7779,4.743768 m -3.5321,-18.470862 1.247,1.24527 m 4.9858,4.980846 4.9847,5.010555 m 2.4928,-12.481941 4.9858,4.980963 m 4.9858,4.980846 4.1544,4.150784 m -3.5309,-18.470863 1.8694,1.867846 m 4.9858,4.980964 4.9857,4.980846 m 2.493,-12.452233 4.9845,4.980847 m 4.9858,4.980963 3.5321,3.52809 m -3.5321,-18.470863 2.4929,2.49054 m 4.9857,4.980846 4.9859,4.980964 m 2.4928,-12.45235 4.9858,4.980963 m 4.9858,4.980847 2.9074,2.90563 m -3.5309,-18.47098 3.1164,3.113116 m 4.9846,4.980964 4.9858,4.980846 m 2.4929,-12.452233 4.9858,4.980847 m 4.9857,4.980963 2.2557,2.282937 m -3.5027,-18.470863 3.7399,3.735693 m 4.9858,4.980846 4.9846,4.980964 m 2.4929,-12.45235 4.9857,4.980963 m 4.9858,4.980847 1.6322,1.66036 m -3.5016,-18.470863 4.3623,4.35827 m 4.9858,4.980963 4.9858,4.980846 m 2.4928,-12.452232 4.9858,4.980846 m 4.9847,4.980963 1.0098,1.00749 m -3.5028,-18.441155 4.9858,4.980846 m 4.9858,4.980963 4.9858,4.980964 m -2.8194,-17.759398 0.3288,0.326436 m 4.9858,4.980846 4.9858,4.980964 m 4.9858,4.980846 0.3875,0.385147 m -2.8781,-17.818695 4.9858,4.980963 m 4.9846,4.980847 4.9858,4.980963 m -3.4416,-18.381974 0.951,0.948777 m 4.9858,4.980964 4.9858,4.980847 m 2.4929,-12.452234 4.9858,4.980847 m 4.9858,4.980963 4.4209,4.447276 m -3.5308,-18.470861 1.6028,1.57135 m 4.9846,4.980848 4.9857,4.980964 m 2.4636,-12.452352 4.9857,4.980965 m 4.9858,4.980847 3.828,3.8247 m -3.532,-18.500572 2.1969,2.22364 m 4.9846,4.98096 4.9858,4.980848 m 2.4929,-12.452228 4.9858,4.98084 m 4.9858,4.980965 3.2044,3.172298 m -3.5309,-18.470863 2.8193,2.84633 m 4.9858,4.98085 4.9858,4.98096 m 2.4929,-12.45235 4.9846,4.98097 m 4.9857,4.98084 2.5822,2.54984 m -3.5321,-18.47086 3.4429,3.46879 m 4.9857,4.98096 4.9858,4.98085 m 2.4929,-12.45223 4.9857,4.98084 m 4.9847,4.98097 1.9292,1.92714 m -3.5015,-18.47086 4.0651,4.09137 m 4.9858,4.98096 4.9858,4.98096 m 2.4929,-12.45235 4.9858,4.98097 m 4.9858,4.98084 1.3057,1.30457 m -3.5016,-18.47086 4.6887,4.68435 m 4.9859,5.01056 4.9845,4.98096 m -2.5222,-17.49249 v 0.0353 m 4.9858,4.98084 4.9857,5.01055 m 4.9858,4.98097 0.6811,0.68222 m -3.1751,-18.14477 4.9857,4.98096 m 4.9858,4.98085 4.9858,5.01055 m -3.1457,-18.11507 0.6575,0.6517 m 4.9858,4.98096 4.9846,4.98084 m 4.9858,5.01056 0.1174,0.0587 m -2.5528,-17.52209 4.9858,4.98085 m 4.9857,4.98096 4.7181,4.74377 m -3.5016,-18.47097 1.2765,1.27497 m 4.9857,4.98085 4.9858,4.98096 m 2.4929,-12.45235 4.9846,4.98096 m 4.9858,4.98085 4.0957,4.12119 m -3.5309,-18.47086 1.928,1.89744 m 4.9858,4.98096 4.9858,4.98085 m 2.4929,-12.45223 4.9858,4.98084 m 4.9858,4.98096 3.4722,3.49851 m -3.5321,-18.47087 2.5516,2.52014 m 4.9564,4.98084 4.9858,4.98096 m 2.4929,-12.45235 4.9857,4.98097 m 4.9858,4.98084 2.8781,2.87592 m -3.531,-18.47086 3.1446,3.14271 m 4.9858,4.98097 4.9858,4.98084 m 2.4929,-12.45223 4.9858,4.98084 m 4.9858,4.98097 2.2557,2.25322 m -3.5322,-18.47086 3.7693,3.76529 m 4.9858,4.98096 4.9846,4.98097 m 2.4929,-12.45236 4.9858,4.98097 m 4.9857,4.98084 1.6323,1.60106 m -3.531,-18.47086 4.3917,4.41757 m 4.9857,4.98085 4.9858,4.98096 m 2.4929,-12.45224 4.9857,4.98085 m 4.9847,4.98097 0.9746,0.97813 m -3.4722,-18.41157 4.9858,4.98085 m 4.9858,4.98096 4.9857,4.98085 m -2.8487,-17.78887 0.3523,0.35579 m 4.9858,4.98085 4.9857,4.98096 m 4.9858,4.98085 0.3523,0.35579 m -2.8487,-17.78899 4.9858,4.98096 m 4.9846,4.98085 4.9858,4.98096 m -3.4722,-18.41156 0.9746,0.97813 m 4.9858,4.98096 4.9857,4.98085 m 2.493,-12.45223 4.9857,4.98084 m 4.9858,4.98097 4.3916,4.38798 m -3.5016,-18.47086 1.6029,1.63065 m 4.9846,4.98084 4.9858,4.98096 m 4.9858,4.98085 0.681,0.71159 m -3.1751,-18.14478 4.9858,4.98096 m 4.9858,4.98084 4.9857,4.98097 m 4.9858,4.98085 4.9846,4.98096 m -14.719,-29.64824 2.2557,2.25324 m 4.9858,4.98096 4.9858,4.98084 m 4.9846,4.98096 4.9858,4.98085 m 4.9858,4.98097 0.9746,0.97813 m -13.4438,-28.37337 4.9858,4.98084 m 4.9858,4.98096 4.9858,4.98085 m 4.9857,4.98097 4.9553,4.95125 m -15.312,-30.24122 2.878,2.87581 m 4.9858,4.98096 4.9858,4.98096 m 4.9858,4.98085 4.9552,4.98096 m -7.4481,-22.41416 4.9858,4.98097 m 4.9552,4.98084 4.9858,4.98096 m 4.9858,4.98085 2.9673,2.93522 m -13.9182,-28.84776 3.4722,3.46879 m 4.9858,5.01056 4.9857,4.98096 m 4.9858,4.98096 4.9859,4.98085 m -7.4787,-22.44375 4.9857,5.01055 m 4.9846,4.98097 4.9858,4.98084 m 4.9858,4.98096 0.9511,0.91943 m -12.5231,-27.45431 4.0945,4.09149 m 4.9858,4.98084 4.9858,5.01056 m 4.9858,4.98096 4.57,4.56587 m -7.063,-22.02865 4.9858,4.98084"
       id="path2" />
  </g>
</svg>
