<?xml version="1.0" encoding="UTF-8" standalone="no"?>
<!-- Created with Inkscape (http://www.inkscape.org/) -->

<svg
   width="63.855358mm"
   height="28.588209mm"
   viewBox="0 0 63.855358 28.588209"
   version="1.1"
   id="svg1"
   xml:space="preserve"
   xmlns="http://www.w3.org/2000/svg"
   xmlns:svg="http://www.w3.org/2000/svg"><defs
     id="defs1" /><g
     id="layer1"
     transform="translate(-52.345069,-120.42389)"><path
       style="fill:none;stroke:#000000;stroke-width:0.45955px;stroke-linecap:round;stroke-linejoin:round;stroke-miterlimit:4;stroke-dasharray:none;stroke-opacity:1"
       d="m 115.97064,131.19977 v 1.00438 m 0,0 -0.002,0.0526 m 0,0 -0.0101,0.0526 m 0,0 -0.0121,0.0506 m 0,0 -0.0202,0.0486 m 0,0 -0.0222,0.0466 m 0,0 -0.0282,0.0445 m 0,0 -0.0343,0.0405 m 0,0 -0.0363,0.0385 m 0,0 -0.0403,0.0324 m 0,0 -0.0443,0.0284 m 0,0 -0.0464,0.0243 m 0,0 -0.0484,0.0182 m 0,0 -0.0504,0.0142 m 0,0 -0.0524,0.008 m 0,0 -0.0524,0.002 m 0,0 h -3.99284 m 0,0 -0.0524,-0.002 m 0,0 -0.0504,-0.008 m 0,0 -0.0504,-0.0142 m 0,0 -0.0504,-0.0182 m 0,0 -0.0464,-0.0243 m 0,0 -0.0423,-0.0284 m 0,0 -0.0423,-0.0324 m 0,0 -0.0363,-0.0385 m 0,0 -0.0323,-0.0405 m 0,0 -0.0282,-0.0445 m 0,0 -0.0242,-0.0466 m 0,0 -0.0181,-0.0486 m 0,0 -0.0141,-0.0506 m 0,0 -0.008,-0.0526 m 0,0 -0.004,-0.0526 m 0,0 v -0.50219 m 0,0 0.004,-0.0526 m 0,0 0.008,-0.0506 m 0,0 0.0141,-0.0506 m 0,0 0.0181,-0.0506 m 0,0 0.0242,-0.0466 m 0,0 0.0282,-0.0446 m 0,0 0.0323,-0.0405 m 0,0 0.0363,-0.0365 m 0,0 0.0423,-0.0324 m 0,0 0.0423,-0.0304 m 0,0 0.0464,-0.0223 m 0,0 0.0504,-0.0203 m 0,0 0.0504,-0.0122 m 0,0 0.0504,-0.008 m 0,0 0.0524,-0.004 m 0,0 h 0.69134 m 0,0 0.0524,-0.002 m 0,0 0.0504,-0.008 m 0,0 0.0504,-0.0142 m 0,0 0.0504,-0.0182 m 0,0 0.0464,-0.0243 m 0,0 0.0423,-0.0284 m 0,0 0.0423,-0.0324 m 0,0 0.0363,-0.0385 m 0,0 0.0323,-0.0405 m 0,0 0.0282,-0.0446 m 0,0 0.0242,-0.0466 m 0,0 0.0181,-0.0486 m 0,0 0.0141,-0.0506 m 0,0 0.008,-0.0526 m 0,0 0.004,-0.0526 m 0,0 -0.004,-0.0526 m 0,0 -0.008,-0.0506 m 0,0 -0.0141,-0.0526 m 0,0 -0.004,-0.0162 m 0,0 -2.6787,-7.40528 m 0,0 -0.0262,-0.0648 m 0,0 -0.0484,-0.0931 m 0,0 -0.0564,-0.0891 m 0,0 -0.0665,-0.081 m 0,0 -0.0726,-0.0749 m 0,0 -0.0826,-0.0648 m 0,0 -0.0867,-0.0587 m 0,0 -0.0927,-0.0466 m 0,0 -0.0988,-0.0385 m 0,0 -0.10078,-0.0263 m 0,0 -0.1028,-0.0162 m 0,0 -0.10481,-0.006 m 0,0 H 87.508748 m 0,0 -0.116903,0.004 m 0,0 -0.116904,0.0142 m 0,0 -0.114887,0.0223 m 0,0 -0.114888,0.0324 m 0,0 -0.108841,0.0405 m 0,0 -0.106826,0.0506 m 0,0 -0.102793,0.0567 m 0,0 -0.09876,0.0668 m 0,0 -0.0907,0.0729 m 0,0 -0.08667,0.081 m 0,0 -0.08062,0.0871 m 0,0 -0.07256,0.0932 m 0,0 -0.0645,0.0972 m 0,0 -0.05845,0.10327 m 0,0 -0.04837,0.10732 m 0,0 -0.02419,0.0607 m 0,0 -4.315341,11.92702 m 0,0 -0.01008,0.0344 m 0,0 -0.02822,0.10125 m 0,0 -0.01612,0.10327 m 0,0 -0.004,0.1053 m 0,0 0.004,0.1053 m 0,0 0.01612,0.10327 m 0,0 0.0081,0.0344 m 0,0 2.336046,9.42214 m 0,0 0.0081,0.0344 m 0,0 0.02016,0.0486 m 0,0 0.02217,0.0466 m 0,0 0.03023,0.0446 m 0,0 0.03225,0.0405 m 0,0 0.03628,0.0385 m 0,0 0.04031,0.0324 m 0,0 0.04434,0.0283 m 0,0 0.04636,0.0243 m 0,0 0.04837,0.0182 m 0,0 0.05039,0.0142 m 0,0 0.0524,0.008 m 0,0 0.05241,0.002 m 0,0 h 4.738608 m 0,0 0.03225,0.002 m 0,0 0.03023,0.008 m 0,0 0.02822,0.0121 m 0,0 0.0262,0.0162 m 0,0 0.02419,0.0202 m 0,0 0.02016,0.0243 m 0,0 0.01612,0.0263 m 0,0 0.01209,0.0304 m 0,0 0.0081,0.0304 m 0,0 0.002,0.0304 m 0,0 v 1.1684 m 0,0 0.002,0.0304 m 0,0 0.0081,0.0324 m 0,0 0.01209,0.0283 m 0,0 0.01613,0.0263 m 0,0 0.02016,0.0243 m 0,0 0.02419,0.0202 m 0,0 0.0262,0.0162 m 0,0 0.03023,0.0122 m 0,0 0.03023,0.008 m 0,0 0.03023,0.002 m 0,0 0.03225,-0.002 m 0,0 0.01612,-0.004 m 0,0 1.001739,-0.2511 m 0,0 0.01814,-0.004 m 0,0 0.03023,-0.002 m 0,0 0.03225,0.002 m 0,0 0.03023,0.008 m 0,0 0.02822,0.0121 m 0,0 0.0262,0.0162 m 0,0 0.02419,0.0203 m 0,0 0.02015,0.0243 m 0,0 0.01613,0.0263 m 0,0 0.01209,0.0304 m 0,0 0.0081,0.0304 m 0,0 0.002,0.0304 m 0,0 v 1.3061 m 0,0 -0.002,0.0324 m 0,0 -0.0081,0.0304 m 0,0 -0.01209,0.0304 m 0,0 -0.01613,0.0263 m 0,0 -0.02015,0.0243 m 0,0 -0.02419,0.0203 m 0,0 -0.0262,0.0162 m 0,0 -0.02822,0.0121 m 0,0 -0.03023,0.006 m 0,0 -0.03225,0.004 m 0,0 h -2.096194 m 0,0 -0.03225,-0.004 m 0,0 -0.03023,-0.006 m 0,0 -0.02822,-0.0121 m 0,0 -0.0262,-0.0162 m 0,0 -0.02419,-0.0203 m 0,0 -0.02016,-0.0243 m 0,0 -0.01612,-0.0263 m 0,0 -0.01209,-0.0304 m 0,0 -0.0081,-0.0304 m 0,0 -0.002,-0.0324 m 0,0 v -0.60141 m 0,0 -0.002,-0.0324 m 0,0 -0.0081,-0.0304 m 0,0 -0.01209,-0.0283 m 0,0 -0.01613,-0.0263 m 0,0 -0.02016,-0.0243 m 0,0 -0.02419,-0.0203 m 0,0 -0.0262,-0.0162 m 0,0 -0.03023,-0.0121 m 0,0 -0.03023,-0.008 m 0,0 -0.03023,-0.002 m 0,0 h -6.133386 m 0,0 -0.03225,-0.004 m 0,0 -0.03023,-0.006 m 0,0 -0.02822,-0.0122 m 0,0 -0.02822,-0.0162 m 0,0 -0.02217,-0.0202 m 0,0 -0.02016,-0.0243 m 0,0 -0.01814,-0.0263 m 0,0 -0.0121,-0.0304 m 0,0 -0.002,-0.0142 m 0,0 -0.399081,-1.6058 m 0,0 -0.004,-0.0182 m 0,0 -0.002,-0.0304 m 0,0 0.002,-0.0324 m 0,0 0.0081,-0.0304 m 0,0 0.01209,-0.0284 m 0,0 0.01612,-0.0283 m 0,0 0.02016,-0.0243 m 0,0 0.02419,-0.0202 m 0,0 0.0262,-0.0162 m 0,0 0.02822,-0.0121 m 0,0 0.03225,-0.006 m 0,0 0.03023,-0.004 m 0,0 h 0.294272 m 0,0 0.03023,-0.002 m 0,0 0.03023,-0.006 m 0,0 0.03023,-0.0122 m 0,0 0.0262,-0.0182 m 0,0 0.02419,-0.0202 m 0,0 0.02016,-0.0223 m 0,0 0.01613,-0.0284 m 0,0 0.01209,-0.0283 m 0,0 0.0081,-0.0304 m 0,0 0.002,-0.0324 m 0,0 -0.002,-0.0304 m 0,0 -0.004,-0.0182 m 0,0 -1.586254,-6.40293 m 0,0 -0.01008,-0.0324 m 0,0 -0.01814,-0.0506 m 0,0 -0.02419,-0.0466 m 0,0 -0.02822,-0.0425 m 0,0 -0.03225,-0.0425 m 0,0 -0.03829,-0.0365 m 0,0 -0.04031,-0.0324 m 0,0 -0.04434,-0.0284 m 0,0 -0.04636,-0.0243 m 0,0 -0.04837,-0.0203 m 0,0 -0.05039,-0.0121 m 0,0 -0.05241,-0.008 m 0,0 -0.05039,-0.004 m 0,0 h -2.469077 m 0,0 -0.03023,0.002 m 0,0 -0.03023,0.008 m 0,0 -0.03023,0.0121 m 0,0 -0.0262,0.0162 m 0,0 -0.02419,0.0202 m 0,0 -0.02016,0.0243 m 0,0 -0.01613,0.0263 m 0,0 -0.01209,0.0304 m 0,0 -0.006,0.0304 m 0,0 -0.004,0.0324 m 0,0 v 0.60141 m 0,0 -0.002,0.0324 m 0,0 -0.006,0.0304 m 0,0 -0.01209,0.0284 m 0,0 -0.01814,0.0283 m 0,0 -0.02016,0.0223 m 0,0 -0.02217,0.0203 m 0,0 -0.02822,0.0182 m 0,0 -0.02822,0.0122 m 0,0 -0.03023,0.006 m 0,0 -0.03225,0.002 m 0,0 h -2.596056 m 0,0 -0.03023,-0.002 m 0,0 -0.03023,-0.006 m 0,0 -0.02822,-0.0122 m 0,0 -0.02822,-0.0182 m 0,0 -0.02419,-0.0203 m 0,0 -0.02016,-0.0223 m 0,0 -0.01613,-0.0283 m 0,0 -0.01209,-0.0284 m 0,0 -0.006,-0.0304 m 0,0 -0.004,-0.0324 m 0,0 v -0.60141 m 0,0 -0.002,-0.0324 m 0,0 -0.006,-0.0304 m 0,0 -0.01209,-0.0304 m 0,0 -0.01612,-0.0263 m 0,0 -0.02217,-0.0243 m 0,0 -0.02217,-0.0202 m 0,0 -0.02822,-0.0162 m 0,0 -0.02822,-0.0121 m 0,0 -0.03023,-0.008 m 0,0 -0.03225,-0.002 m 0,0 h -1.630597 m 0,0 -0.03225,-0.002 m 0,0 -0.03023,-0.008 m 0,0 -0.02822,-0.0121 m 0,0 -0.02822,-0.0162 m 0,0 -0.02217,-0.0203 m 0,0 -0.02016,-0.0243 m 0,0 -0.01814,-0.0263 m 0,0 -0.01209,-0.0324 m 0,0 -0.219697,-0.72088 m 0,0 -0.01209,-0.0324 m 0,0 -0.01613,-0.0263 m 0,0 -0.02016,-0.0243 m 0,0 -0.02419,-0.0203 m 0,0 -0.0262,-0.0162 m 0,0 -0.03023,-0.0121 m 0,0 -0.03023,-0.008 m 0,0 -0.03023,-0.002 m 0,0 H 70.24739 m 0,0 -0.03225,-0.002 m 0,0 -0.03023,-0.008 m 0,0 -0.02822,-0.0121 m 0,0 -0.02822,-0.0162 m 0,0 -0.02217,-0.0203 m 0,0 -0.02217,-0.0243 m 0,0 -0.01612,-0.0263 m 0,0 -0.01209,-0.0283 m 0,0 -0.006,-0.0324 m 0,0 -0.002,-0.0304 m 0,0 v -1.60782 m 0,0 0.002,-0.0304 m 0,0 0.006,-0.0324 m 0,0 0.01209,-0.0283 m 0,0 0.01612,-0.0263 m 0,0 0.02217,-0.0243 m 0,0 0.02217,-0.0203 m 0,0 0.02822,-0.0162 m 0,0 0.02822,-0.0121 m 0,0 0.03023,-0.008 m 0,0 0.03225,-0.002 m 0,0 h 1.126705 m 0,0 0.03225,-0.002 m 0,0 0.03023,-0.008 m 0,0 0.02822,-0.0121 m 0,0 0.0262,-0.0162 m 0,0 0.02419,-0.0203 m 0,0 0.02016,-0.0243 m 0,0 0.01612,-0.0263 m 0,0 0.01209,-0.0304 m 0,0 0.0081,-0.0304 m 0,0 0.002,-0.0304 m 0,0 -0.002,-0.0324 m 0,0 -0.006,-0.0263 m 0,0 -1.098487,-3.61658 m 0,0 -0.01411,-0.0344 m 0,0 -0.01613,-0.0263 m 0,0 -0.02016,-0.0243 m 0,0 -0.02419,-0.0203 m 0,0 -0.0262,-0.0162 m 0,0 -0.02822,-0.0122 m 0,0 -0.03225,-0.006 m 0,0 -0.03023,-0.004 m 0,0 h -4.422165 m 0,0 -0.03023,0.004 m 0,0 -0.03023,0.006 m 0,0 -0.03023,0.0122 m 0,0 -0.0262,0.0162 m 0,0 -0.02419,0.0203 m 0,0 -0.02016,0.0243 m 0,0 -0.01612,0.0263 m 0,0 -0.01209,0.0304 m 0,0 -0.0081,0.0304 m 0,0 -0.002,0.0324 m 0,0 v 0.60141 m 0,0 -0.002,0.0324 m 0,0 -0.0081,0.0304 m 0,0 -0.01209,0.0284 m 0,0 -0.01612,0.0283 m 0,0 -0.02016,0.0223 m 0,0 -0.02419,0.0203 m 0,0 -0.0262,0.0182 m 0,0 -0.02822,0.0122 m 0,0 -0.03023,0.006 m 0,0 -0.03225,0.002 m 0,0 h -2.596057 m 0,0 -0.03023,-0.002 m 0,0 -0.03023,-0.006 m 0,0 -0.03023,-0.0122 m 0,0 -0.0262,-0.0182 m 0,0 -0.02419,-0.0203 m 0,0 -0.02016,-0.0223 m 0,0 -0.01612,-0.0283 m 0,0 -0.01209,-0.0284 m 0,0 -0.0081,-0.0304 m 0,0 -0.002,-0.0324 m 0,0 v -1.03273 m 0,0 -0.002,-0.0304 m 0,0 -0.0081,-0.0324 m 0,0 -0.01209,-0.0284 m 0,0 -0.01612,-0.0263 m 0,0 -0.02016,-0.0243 m 0,0 -0.02419,-0.0203 m 0,0 -0.0262,-0.0162 m 0,0 -0.02822,-0.0122 m 0,0 -0.01008,-0.004 m 0,0 -7.886933,-2.12621 m 0,0 -0.02016,-0.004 m 0,0 -0.03225,-0.002 m 0,0 -0.03023,0.002 m 0,0 -0.03225,0.006 m 0,0 -0.02822,0.0122 m 0,0 -0.0262,0.0162 m 0,0 -0.02419,0.0223 m 0,0 -0.02016,0.0223 m 0,0 -0.01613,0.0284 m 0,0 -0.01209,0.0284 m 0,0 -0.0081,0.0304 m 0,0 -0.002,0.0324 m 0,0 v 1.65236 m 0,0 0.002,0.0324 m 0,0 0.0081,0.0304 m 0,0 0.01209,0.0284 m 0,0 0.01613,0.0263 m 0,0 0.02016,0.0243 m 0,0 0.02419,0.0203 m 0,0 0.0262,0.0162 m 0,0 0.02822,0.0122 m 0,0 0.03225,0.008 m 0,0 0.03023,0.002 m 0,0 h 0.798167 m 0,0 0.03225,0.002 m 0,0 0.03023,0.008 m 0,0 0.02822,0.0122 m 0,0 0.02822,0.0162 m 0,0 0.02217,0.0203 m 0,0 0.02016,0.0243 m 0,0 0.01814,0.0263 m 0,0 0.01008,0.0304 m 0,0 0.0081,0.0304 m 0,0 0.002,0.0304 m 0,0 v 1.10562 m 0,0 -0.002,0.0324 m 0,0 -0.0081,0.0304 m 0,0 -0.01008,0.0284 m 0,0 -0.01814,0.0283 m 0,0 -0.02016,0.0223 m 0,0 -0.02217,0.0203 m 0,0 -0.02822,0.0182 m 0,0 -0.02822,0.0122 m 0,0 -0.03023,0.006 m 0,0 -0.03225,0.002 m 0,0 h -2.295736 m 0,0 -0.05241,-0.002 m 0,0 -0.05039,-0.008 m 0,0 -0.05039,-0.0142 m 0,0 -0.05039,-0.0182 m 0,0 -0.04636,-0.0243 m 0,0 -0.04434,-0.0284 m 0,0 -0.04031,-0.0324 m 0,0 -0.03628,-0.0385 m 0,0 -0.03225,-0.0405 m 0,0 -0.02822,-0.0445 m 0,0 -0.02419,-0.0466 m 0,0 -0.01814,-0.0486 m 0,0 -0.01411,-0.0506 m 0,0 -0.0081,-0.0526 m 0,0 -0.004,-0.0526 m 0,0 v -4.82143 m 0,0 0.004,-0.0526 m 0,0 0.0081,-0.0526 m 0,0 0.01411,-0.0506 m 0,0 0.01814,-0.0486 m 0,0 0.02419,-0.0466 m 0,0 0.02822,-0.0446 m 0,0 0.03225,-0.0405 m 0,0 0.03628,-0.0365 m 0,0 0.04031,-0.0344 m 0,0 0.04434,-0.0284 m 0,0 0.04636,-0.0243 m 0,0 0.05039,-0.0182 m 0,0 0.05039,-0.0142 m 0,0 0.05039,-0.008 m 0,0 0.05241,-0.002 m 0,0 0.05241,0.002 m 0,0 0.0524,0.008 m 0,0 0.02419,0.006 m 0,0 11.113863,2.99695 m 0,0 h 5.286845 m 0,0 0.03023,-0.002 m 0,0 0.03023,-0.008 m 0,0 0.03023,-0.0122 m 0,0 0.0262,-0.0162 m 0,0 0.02419,-0.0203 m 0,0 0.02016,-0.0243 m 0,0 0.01612,-0.0263 m 0,0 0.01209,-0.0284 m 0,0 0.0081,-0.0304 m 0,0 0.002,-0.0324 m 0,0 -0.002,-0.0324 m 0,0 -0.006,-0.0263 m 0,0 -0.973522,-3.19741 m 0,0 -0.006,-0.0284 m 0,0 -0.002,-0.0304 m 0,0 0.002,-0.0324 m 0,0 0.0081,-0.0304 m 0,0 0.01209,-0.0284 m 0,0 0.01613,-0.0283 m 0,0 0.02016,-0.0223 m 0,0 0.02419,-0.0223 m 0,0 0.0262,-0.0162 m 0,0 0.03023,-0.0121 m 0,0 0.03023,-0.006 m 0,0 0.03023,-0.002 m 0,0 h 1.239576 m 0,0 0.05241,0.002 m 0,0 0.0524,0.008 m 0,0 0.05039,0.0142 m 0,0 0.04837,0.0182 m 0,0 0.04636,0.0243 m 0,0 0.04434,0.0284 m 0,0 0.04031,0.0324 m 0,0 0.03628,0.0385 m 0,0 0.03426,0.0405 m 0,0 0.02822,0.0446 m 0,0 0.02419,0.0466 m 0,0 0.01814,0.0486 m 0,0 0.002,0.008 m 0,0 2.868159,9.43632 m 0,0 0.002,0.008 m 0,0 0.01814,0.0486 m 0,0 0.02419,0.0486 m 0,0 0.02822,0.0425 m 0,0 0.03225,0.0405 m 0,0 0.0383,0.0385 m 0,0 0.04031,0.0324 m 0,0 0.04434,0.0284 m 0,0 0.04636,0.0243 m 0,0 0.04837,0.0182 m 0,0 0.05039,0.0142 m 0,0 0.0524,0.008 m 0,0 0.05241,0.004 m 0,0 h 1.3202 m 0,0 0.0524,-0.004 m 0,0 0.05241,-0.008 m 0,0 0.05039,-0.0142 m 0,0 0.04837,-0.0182 m 0,0 0.04636,-0.0243 m 0,0 0.04434,-0.0284 m 0,0 0.04031,-0.0324 m 0,0 0.03628,-0.0385 m 0,0 0.03426,-0.0405 m 0,0 0.02822,-0.0425 m 0,0 0.02419,-0.0486 m 0,0 0.01814,-0.0486 m 0,0 0.01411,-0.0506 m 0,0 0.0081,-0.0526 m 0,0 0.002,-0.0526 m 0,0 -0.002,-0.0506 m 0,0 -0.0081,-0.0526 m 0,0 -0.002,-0.008 m 0,0 -3.3136,-14.44202 m 0,0 -0.002,-0.0101 m 0,0 -0.0081,-0.0506 m 0,0 -0.004,-0.0526 m 0,0 0.004,-0.0526 m 0,0 0.0081,-0.0526 m 0,0 0.01209,-0.0506 m 0,0 0.02016,-0.0486 m 0,0 0.02419,-0.0466 m 0,0 0.02822,-0.0446 m 0,0 0.03225,-0.0405 m 0,0 0.03628,-0.0385 m 0,0 0.04031,-0.0324 m 0,0 0.04434,-0.0284 m 0,0 0.04636,-0.0243 m 0,0 0.05039,-0.0182 m 0,0 0.05039,-0.0142 m 0,0 0.05039,-0.008 m 0,0 0.0524,-0.002 m 0,0 h 0.820337 m 0,0 0.05241,0.002 m 0,0 0.05039,0.008 m 0,0 0.05039,0.0142 m 0,0 0.05039,0.0182 m 0,0 0.04636,0.0243 m 0,0 0.04233,0.0284 m 0,0 0.04233,0.0324 m 0,0 0.03628,0.0385 m 0,0 0.03225,0.0405 m 0,0 0.02822,0.0446 m 0,0 0.02419,0.0466 m 0,0 0.01814,0.0486 m 0,0 0.01209,0.0425 m 0,0 3.380114,14.73361 m 0,0 0.01814,0.0688 m 0,0 0.03023,0.077 m 0,0 0.0383,0.0749 m 0,0 0.04636,0.0709 m 0,0 0.05241,0.0648 m 0,0 0.05845,0.0607 m 0,0 0.0645,0.0526 m 0,0 0.07054,0.0466 m 0,0 0.07458,0.0385 m 0,0 0.07861,0.0283 m 0,0 0.08062,0.0223 m 0,0 0.08264,0.0142 m 0,0 0.08264,0.004 m 0,0 0.08465,-0.004 m 0,0 0.08264,-0.0142 m 0,0 0.08062,-0.0223 m 0,0 0.07861,-0.0283 m 0,0 0.07256,-0.0385 m 0,0 0.07054,-0.0466 m 0,0 0.0645,-0.0526 m 0,0 0.06047,-0.0607 m 0,0 0.05241,-0.0648 m 0,0 0.04636,-0.0709 m 0,0 0.03628,-0.0749 m 0,0 0.02217,-0.0506 m 0,0 4.311309,-11.91891 m 0,0 0.01612,-0.0506 m 0,0 0.03225,-0.1134 m 0,0 0.02217,-0.11542 m 0,0 0.01411,-0.11947 m 0,0 0.006,-0.11745 m 0,0 -0.006,-0.11745 m 0,0 -0.01411,-0.11744 m 0,0 -0.02217,-0.11745 m 0,0 -0.03225,-0.1134 m 0,0 -0.04031,-0.11137 m 0,0 -0.04837,-0.10733 m 0,0 -0.05845,-0.10327 m 0,0 -0.0645,-0.0972 m 0,0 -0.07256,-0.0931 m 0,0 -0.08062,-0.0871 m 0,0 -0.08667,-0.081 m 0,0 -0.09272,-0.0729 m 0,0 -0.09675,-0.0648 m 0,0 -0.102796,-0.0587 m 0,0 -0.106826,-0.0486 m 0,0 -0.110855,-0.0425 m 0,0 -0.112871,-0.0324 m 0,0 -0.114887,-0.0223 m 0,0 -0.04233,-0.006 m 0,0 -2.203022,-0.28754 m 0,0 -0.04031,-0.008 m 0,0 -0.05039,-0.0121 m 0,0 -0.04837,-0.0203 m 0,0 -0.04636,-0.0223 m 0,0 -0.04434,-0.0284 m 0,0 -0.04031,-0.0344 m 0,0 -0.03628,-0.0365 m 0,0 -0.03426,-0.0405 m 0,0 -0.02822,-0.0446 m 0,0 -0.02419,-0.0466 m 0,0 -0.01814,-0.0506 m 0,0 -0.01411,-0.0506 m 0,0 -0.0081,-0.0506 m 0,0 -0.002,-0.0526 m 0,0 0.002,-0.0526 m 0,0 0.0081,-0.0526 m 0,0 0.01411,-0.0506 m 0,0 0.01814,-0.0486 m 0,0 0.02419,-0.0466 m 0,0 0.02822,-0.0446 m 0,0 0.03426,-0.0405 m 0,0 0.03628,-0.0385 m 0,0 0.04031,-0.0324 m 0,0 0.04434,-0.0284 m 0,0 0.04636,-0.0243 m 0,0 0.04837,-0.0182 m 0,0 0.05039,-0.0142 m 0,0 0.0524,-0.008 m 0,0 0.05241,-0.002 m 0,0 h 29.489652 m 0,0 0.14109,0.006 m 0,0 0.14109,0.0162 m 0,0 0.13706,0.0263 m 0,0 0.13706,0.0385 m 0,0 0.13101,0.0506 m 0,0 0.129,0.0587 m 0,0 0.12294,0.0688 m 0,0 0.11691,0.079 m 0,0 0.11086,0.0891 m 0,0 0.10481,0.0952 m 0,0 0.0947,0.1053 m 0,0 0.0867,0.11137 m 0,0 0.0786,0.11745 m 0,0 0.0705,0.12352 m 0,0 0.0585,0.1296 m 0,0 0.0282,0.0729 m 0,0 2.74924,7.59967 m 0,0 0.0302,0.083 m 0,0 0.0665,0.14174 m 0,0 0.0766,0.1377 m 0,0 0.0867,0.13162 m 0,0 0.0967,0.12353 m 0,0 0.10683,0.11542 m 0,0 0.11489,0.10732 m 0,0 0.12295,0.0992 m 0,0 0.13101,0.0871 m 0,0 0.13706,0.0769 m 0,0 0.14109,0.0668 m 0,0 0.14714,0.0547 m 0,0 0.15116,0.0425 m 0,0 0.0161,0.004 m 0,0 0.0423,0.0101 m 0,0 0.0484,0.0202 m 0,0 0.0464,0.0223 m 0,0 0.0443,0.0304 m 0,0 0.0403,0.0324 m 0,0 0.0363,0.0365 m 0,0 0.0343,0.0405 m 0,0 0.0282,0.0446 m 0,0 0.0222,0.0466 m 0,0 0.0202,0.0506 m 0,0 0.0121,0.0506 m 0,0 0.0101,0.0506 m 0,0 0.002,0.0526"
       id="path1" /></g></svg>
