<?xml version="1.0" encoding="UTF-8" standalone="no"?>
<!-- Created with Inkscape (http://www.inkscape.org/) -->

<svg
   width="26.551401mm"
   height="12.078633mm"
   viewBox="0 0 26.551401 12.078634"
   version="1.1"
   id="svg1"
   inkscape:export-filename="Allega WS Zusatzprofil.svg"
   inkscape:export-xdpi="96"
   inkscape:export-ydpi="96"
   xmlns:inkscape="http://www.inkscape.org/namespaces/inkscape"
   xmlns:sodipodi="http://sodipodi.sourceforge.net/DTD/sodipodi-0.dtd"
   xmlns="http://www.w3.org/2000/svg"
   xmlns:svg="http://www.w3.org/2000/svg">
  <sodipodi:namedview
     id="namedview1"
     pagecolor="#ffffff"
     bordercolor="#999999"
     borderopacity="1"
     inkscape:showpageshadow="2"
     inkscape:pageopacity="0"
     inkscape:pagecheckerboard="0"
     inkscape:deskcolor="#d1d1d1"
     inkscape:document-units="mm">
    <sodipodi:guide
       position="-88.124165,158.03999"
       orientation="0,793.70079"
       id="guide1"
       inkscape:locked="false" />
    <sodipodi:guide
       position="121.87583,158.03999"
       orientation="1122.5197,0"
       id="guide2"
       inkscape:locked="false" />
    <sodipodi:guide
       position="121.87583,-138.96001"
       orientation="0,-793.70079"
       id="guide3"
       inkscape:locked="false" />
    <sodipodi:guide
       position="-88.124165,-138.96001"
       orientation="-1122.5197,0"
       id="guide4"
       inkscape:locked="false" />
    <inkscape:page
       x="0"
       y="0"
       width="26.551401"
       height="12.078634"
       id="page2"
       margin="0"
       bleed="0" />
  </sodipodi:namedview>
  <defs
     id="defs1" />
  <g
     inkscape:label="Ebene 1"
     inkscape:groupmode="layer"
     id="layer1"
     transform="translate(-88.124166,-142.37194)">
    <path
       style="fill:none;stroke:#000000;stroke-width:0.463273px;stroke-linecap:round;stroke-linejoin:round;stroke-miterlimit:4;stroke-dasharray:none;stroke-opacity:1"
       d="m 98.122533,151.28858 h -9.264621 m 0,0 -0.03959,0.002 m 0,0 -0.03875,0.004 m 0,0 -0.03875,0.008 m 0,0 -0.03791,0.011 m 0,0 -0.03706,0.0136 m 0,0 -0.03622,0.0169 m 0,0 -0.03369,0.0195 m 0,0 -0.03285,0.022 m 0,0 -0.03117,0.0246 m 0,0 -0.02864,0.0263 m 0,0 -0.02695,0.0297 m 0,0 -0.02443,0.0314 m 0,0 -0.0219,0.0322 m 0,0 -0.01937,0.0348 m 0,0 -0.016,0.0365 m 0,0 -0.01432,0.0373 m 0,0 -0.01011,0.0382 m 0,0 -0.0076,0.0382 m 0,0 -0.0051,0.0398 m 0,0 -0.0017,0.0399 m 0,0 v 1.91856 m 0,0 0.0017,0.0398 m 0,0 0.0051,0.039 m 0,0 0.0076,0.039 m 0,0 0.01011,0.0382 m 0,0 0.01432,0.0373 m 0,0 0.016,0.0356 m 0,0 0.01937,0.0348 m 0,0 0.0219,0.0331 m 0,0 0.02443,0.0314 m 0,0 0.02695,0.0288 m 0,0 0.02864,0.0271 m 0,0 0.03117,0.0246 m 0,0 0.03285,0.022 m 0,0 0.03369,0.0195 m 0,0 0.03622,0.0161 m 0,0 0.03706,0.0144 m 0,0 0.03791,0.0102 m 0,0 0.03875,0.008 m 0,0 0.03875,0.005 m 0,0 0.03959,0.002 m 0,0 h 0.400942 m 0,0 0.03959,-0.002 m 0,0 0.03875,-0.005 m 0,0 0.03875,-0.008 m 0,0 0.0379,-0.0102 m 0,0 0.03706,-0.0144 m 0,0 0.03622,-0.0161 m 0,0 0.03369,-0.0195 m 0,0 0.03285,-0.022 m 0,0 0.03117,-0.0246 m 0,0 0.02864,-0.0271 m 0,0 0.02695,-0.0288 m 0,0 0.02443,-0.0314 m 0,0 0.0219,-0.0331 m 0,0 0.01937,-0.0348 m 0,0 0.01685,-0.0356 m 0,0 0.01348,-0.0373 m 0,0 0.01011,-0.0382 m 0,0 0.0084,-0.039 m 0,0 0.0042,-0.039 m 0,0 0.0017,-0.0398 m 0,0 v -0.30267 m 0,0 8.42e-4,-0.0212 m 0,0 0.0034,-0.0212 m 0,0 0.0059,-0.0203 m 0,0 0.0067,-0.0195 m 0,0 0.01011,-0.0187 m 0,0 0.01095,-0.0178 m 0,0 0.01348,-0.017 m 0,0 0.01516,-0.0144 m 0,0 0.016,-0.0136 m 0,0 0.01769,-0.0119 m 0,0 0.01853,-0.009 m 0,0 0.01937,-0.008 m 0,0 0.02106,-0.005 m 0,0 0.02022,-0.003 m 0,0 0.02106,-0.002 m 0,0 h 1.605452 m 0,0 0.02106,-8.5e-4 m 0,0 0.02106,-0.003 m 0,0 0.02021,-0.005 m 0,0 0.01937,-0.008 m 0,0 0.01853,-0.0102 m 0,0 0.01769,-0.011 m 0,0 0.016,-0.0136 m 0,0 0.01516,-0.0144 m 0,0 0.01348,-0.017 m 0,0 0.01095,-0.0178 m 0,0 0.01011,-0.0187 m 0,0 0.0076,-0.0195 m 0,0 0.0051,-0.0203 m 0,0 0.0034,-0.0212 m 0,0 8.43e-4,-0.0212 m 0,0 v -0.10089 m 0,0 0.0017,-0.0212 m 0,0 0.0025,-0.0212 m 0,0 0.0059,-0.0204 m 0,0 0.0076,-0.0195 m 0,0 0.0093,-0.0187 m 0,0 0.01179,-0.0178 m 0,0 0.01264,-0.0161 m 0,0 0.01516,-0.0153 m 0,0 0.016,-0.0136 m 0,0 0.01769,-0.011 m 0,0 0.01937,-0.0102 m 0,0 0.01937,-0.008 m 0,0 0.02021,-0.005 m 0,0 0.02106,-0.003 m 0,0 0.02022,-8.4e-4 m 0,0 h 10.504509 m 0,0 0.0211,-0.002 m 0,0 0.0202,-0.003 m 0,0 0.0202,-0.006 m 0,0 0.0202,-0.008 m 0,0 0.0152,-0.008 m 0,0 0.0303,-0.0161 m 0,0 0.0472,-0.0229 m 0,0 0.0489,-0.0203 m 0,0 0.0497,-0.0178 m 0,0 0.0505,-0.0144 m 0,0 0.0505,-0.0127 m 0,0 0.0522,-0.009 m 0,0 0.0514,-0.007 m 0,0 0.0531,-0.004 m 0,0 0.0522,-0.002 m 0,0 0.0522,0.002 m 0,0 0.0522,0.004 m 0,0 0.0522,0.007 m 0,0 0.0522,0.009 m 0,0 0.0505,0.0127 m 0,0 0.0505,0.0144 m 0,0 0.0497,0.0178 m 0,0 0.048,0.0203 m 0,0 0.048,0.0229 m 0,0 0.0303,0.0161 m 0,0 0.0152,0.008 m 0,0 0.0194,0.008 m 0,0 0.0202,0.006 m 0,0 0.0211,0.003 m 0,0 0.0211,0.002 m 0,0 h 0.33945 m 0,0 0.0202,-0.002 m 0,0 0.0211,-0.003 m 0,0 0.0202,-0.006 m 0,0 0.0194,-0.008 m 0,0 0.016,-0.008 m 0,0 0.0303,-0.0161 m 0,0 0.0472,-0.0229 m 0,0 0.0489,-0.0203 m 0,0 0.0497,-0.0178 m 0,0 0.0497,-0.0144 m 0,0 0.0514,-0.0127 m 0,0 0.0514,-0.009 m 0,0 0.0522,-0.007 m 0,0 0.0522,-0.004 m 0,0 0.0531,-0.002 m 0,0 0.0522,0.002 m 0,0 0.0522,0.004 m 0,0 0.0522,0.007 m 0,0 0.0514,0.009 m 0,0 0.0514,0.0127 m 0,0 0.0505,0.0144 m 0,0 0.0489,0.0178 m 0,0 0.0489,0.0203 m 0,0 0.0472,0.0229 m 0,0 0.0303,0.0161 m 0,0 0.016,0.008 m 0,0 0.0194,0.008 m 0,0 0.0202,0.006 m 0,0 0.0211,0.003 m 0,0 0.0211,0.002 m 0,0 h 7.6339 m 0,0 0.0211,8.4e-4 m 0,0 0.0211,0.003 m 0,0 0.0202,0.005 m 0,0 0.0194,0.008 m 0,0 0.0185,0.0102 m 0,0 0.0177,0.011 m 0,0 0.0168,0.0136 m 0,0 0.0143,0.0153 m 0,0 0.0135,0.0161 m 0,0 0.0118,0.0178 m 0,0 0.009,0.0187 m 0,0 0.008,0.0195 m 0,0 0.004,0.017 m 0,0 0.0446,0.19245 m 0,0 0.004,0.017 m 0,0 0.008,0.0195 m 0,0 0.0101,0.0187 m 0,0 0.011,0.0178 m 0,0 0.0135,0.017 m 0,0 0.0143,0.0144 m 0,0 0.0168,0.0136 m 0,0 0.0177,0.011 m 0,0 0.0185,0.0102 m 0,0 0.0194,0.008 m 0,0 0.0202,0.005 m 0,0 0.0211,0.003 m 0,0 0.0211,8.5e-4 m 0,0 h 1.02931 m 0,0 0.0211,-8.5e-4 m 0,0 0.0211,-0.003 m 0,0 0.0202,-0.005 m 0,0 0.0194,-0.008 m 0,0 0.0185,-0.0102 m 0,0 0.0177,-0.011 m 0,0 0.0169,-0.0136 m 0,0 0.0143,-0.0144 m 0,0 0.0135,-0.017 m 0,0 0.0118,-0.0178 m 0,0 0.009,-0.0187 m 0,0 0.008,-0.0195 m 0,0 0.005,-0.0203 m 0,0 0.003,-0.0212 m 0,0 0.002,-0.0212 m 0,0 -0.002,-0.0212 m 0,0 -0.003,-0.0203 m 0,0 -8.4e-4,-0.003 m 0,0 -2.2852,-9.9658 m 0,0 -8.5e-4,-0.004 m 0,0 -0.0109,-0.0382 m 0,0 -0.0135,-0.0373 m 0,0 -0.0169,-0.0365 m 0,0 -0.0194,-0.0348 m 0,0 -0.0219,-0.0322 m 0,0 -0.0244,-0.0314 m 0,0 -0.0261,-0.0297 m 0,0 -0.0295,-0.0263 m 0,0 -0.0303,-0.0246 m 0,0 -0.0329,-0.0221 m 0,0 -0.0345,-0.0195 m 0,0 -0.0354,-0.017 m 0,0 -0.0371,-0.0136 m 0,0 -0.0379,-0.011 m 0,0 -0.0387,-0.008 m 0,0 -0.0396,-0.004 m 0,0 -0.0387,-0.002 m 0,0 h -0.41189 m 0,0 -0.0396,0.002 m 0,0 -0.0396,0.004 m 0,0 -0.0379,0.008 m 0,0 -0.0379,0.011 m 0,0 -0.0371,0.0136 m 0,0 -0.0362,0.017 m 0,0 -0.0345,0.0195 m 0,0 -0.032,0.0221 m 0,0 -0.0312,0.0246 m 0,0 -0.0295,0.0263 m 0,0 -0.0261,0.0297 m 0,0 -0.0244,0.0314 m 0,0 -0.0219,0.0322 m 0,0 -0.0194,0.0348 m 0,0 -0.0168,0.0365 m 0,0 -0.0135,0.0373 m 0,0 -0.0109,0.0382 m 0,0 -0.008,0.0382 m 0,0 -0.004,0.0399 m 0,0 -0.002,0.0398 m 0,0 0.002,0.039 m 0,0 0.004,0.0399 m 0,0 0.007,0.0348 m 0,0 1.70821,7.44786 m 0,0 0.007,0.0348 m 0,0 0.005,0.0398 m 0,0 0.002,0.039 m 0,0 -0.002,0.0399 m 0,0 -0.005,0.0398 m 0,0 -0.008,0.0382 m 0,0 -0.0101,0.0382 m 0,0 -0.0143,0.0373 m 0,0 -0.016,0.0365 m 0,0 -0.0194,0.0348 m 0,0 -0.0219,0.0322 m 0,0 -0.0244,0.0314 m 0,0 -0.027,0.0297 m 0,0 -0.0286,0.0263 m 0,0 -0.0312,0.0246 m 0,0 -0.0328,0.022 m 0,0 -0.0337,0.0195 m 0,0 -0.0362,0.017 m 0,0 -0.0371,0.0136 m 0,0 -0.0379,0.011 m 0,0 -0.0388,0.008 m 0,0 -0.0387,0.004 m 0,0 -0.0396,0.002 m 0,0 h -1.39488 m 0,0 -0.0396,-0.002 m 0,0 -0.0388,-0.004 m 0,0 -0.0387,-0.008 m 0,0 -0.0379,-0.011 m 0,0 -0.0371,-0.0136 m 0,0 -0.0354,-0.017 m 0,0 -0.0345,-0.0195 m 0,0 -0.0328,-0.022 m 0,0 -0.0312,-0.0246 m 0,0 -0.0286,-0.0263 m 0,0 -0.0269,-0.0297 m 0,0 -0.0244,-0.0314 m 0,0 -0.0219,-0.0322 m 0,0 -0.0185,-0.0348 m 0,0 -0.0169,-0.0365 m 0,0 -0.0135,-0.0373 m 0,0 -0.002,-0.004 m 0,0 -2.49915,-7.97858 m 0,0 -0.002,-0.004 m 0,0 -0.0135,-0.0373 m 0,0 -0.016,-0.0365 m 0,0 -0.0194,-0.0348 m 0,0 -0.0219,-0.0322 m 0,0 -0.0244,-0.0314 m 0,0 -0.027,-0.0297 m 0,0 -0.0286,-0.0263 m 0,0 -0.0312,-0.0246 m 0,0 -0.0328,-0.0221 m 0,0 -0.0345,-0.0195 m 0,0 -0.0354,-0.017 m 0,0 -0.0371,-0.0136 m 0,0 -0.0379,-0.011 m 0,0 -0.0387,-0.008 m 0,0 -0.0387,-0.004 m 0,0 -0.0396,-0.002 m 0,0 h -0.42115 m 0,0 -0.0387,0.002 m 0,0 -0.0396,0.004 m 0,0 -0.0387,0.008 m 0,0 -0.0379,0.011 m 0,0 -0.0371,0.0136 m 0,0 -0.0354,0.017 m 0,0 -0.0345,0.0195 m 0,0 -0.0328,0.0221 m 0,0 -0.0312,0.0246 m 0,0 -0.0286,0.0263 m 0,0 -0.0269,0.0297 m 0,0 -0.0244,0.0314 m 0,0 -0.0219,0.0322 m 0,0 -0.0185,0.0348 m 0,0 -0.0168,0.0365 m 0,0 -0.0135,0.0373 m 0,0 -0.0109,0.0382 m 0,0 -0.008,0.0382 m 0,0 -0.004,0.0399 m 0,0 -0.002,0.0398 m 0,0 0.002,0.039 m 0,0 0.004,0.0399 m 0,0 0.008,0.039 m 0,0 0.009,0.0339 m 0,0 2.30963,7.37156 m 0,0 0.009,0.0339 m 0,0 0.008,0.039 m 0,0 0.004,0.0398 m 0,0 0.002,0.039 m 0,0 -0.002,0.0399 m 0,0 -0.004,0.0398 m 0,0 -0.008,0.0382 m 0,0 -0.011,0.0382 m 0,0 -0.0135,0.0373 m 0,0 -0.0168,0.0365 m 0,0 -0.0194,0.0348 m 0,0 -0.0219,0.0322 m 0,0 -0.0236,0.0314 m 0,0 -0.027,0.0297 m 0,0 -0.0295,0.0263 m 0,0 -0.0303,0.0246 m 0,0 -0.0328,0.022 m 0,0 -0.0345,0.0195 m 0,0 -0.0354,0.017 m 0,0 -0.0371,0.0136 m 0,0 -0.0379,0.011 m 0,0 -0.0388,0.008 m 0,0 -0.0396,0.004 m 0,0 -0.0387,0.002 m 0,0 h -8.604251 m 0,0 -0.02106,8.4e-4 m 0,0 -0.02021,0.003 m 0,0 -0.02022,0.006 m 0,0 -0.02022,0.008 m 0,0 -0.01853,0.009 m 0,0 -0.01769,0.011 m 0,0 -0.016,0.0136 m 0,0 -0.0076,0.008 m 0,0 -0.384095,0.3866 m 0,0 -0.0076,0.007 m 0,0 -0.01685,0.0136 m 0,0 -0.01685,0.0119 m 0,0 -0.01937,0.009 m 0,0 -0.01937,0.008 m 0,0 -0.02022,0.005 m 0,0 -0.02106,0.003 m 0,0 -0.02106,0.002 m 0,0 -0.02106,-0.002 m 0,0 -0.02022,-0.003 m 0,0 -0.02021,-0.005 m 0,0 -0.02022,-0.008 m 0,0 -0.01853,-0.009 m 0,0 -0.01769,-0.0119 m 0,0 -0.016,-0.0136 m 0,0 -0.0076,-0.007 m 0,0 -0.384095,-0.3866 m 0,0 -0.0076,-0.008 m 0,0 -0.01685,-0.0136 m 0,0 -0.01685,-0.011 m 0,0 -0.01937,-0.009 m 0,0 -0.01937,-0.008 m 0,0 -0.02021,-0.006 m 0,0 -0.02106,-0.003 m 0,0 -0.02106,-8.4e-4"
       id="path1" />
  </g>
</svg>
